<svg data-v-423bf9ae="" xmlns="http://www.w3.org/2000/svg" viewBox="0 0 494.5983709741805 60" class="font"><!----><!----><!----><g data-v-423bf9ae="" id="22f5d718-99ec-4e08-89af-db8c5734cbef" fill="black" transform="matrix(4.724409165004871,0,0,4.724409165004871,-3.7795253940101645,-19.32283420575755)"><path d="M4.17 14.11L4.17 14.11Q3.15 14.11 2.39 13.79L2.39 13.79L2.39 13.79Q1.62 13.47 1.21 12.87L1.21 12.87L1.21 12.87Q0.80 12.28 0.80 11.49L0.80 11.49L0.80 11.10L0.80 11.10Q0.80 10.92 0.98 10.92L0.98 10.92L1.58 10.92L1.58 10.92Q1.76 10.92 1.76 11.10L1.76 11.10L1.76 11.44L1.76 11.44Q1.76 12.24 2.44 12.74L2.44 12.74L2.44 12.74Q3.11 13.24 4.24 13.24L4.24 13.24L4.24 13.24Q5.32 13.24 5.88 12.79L5.88 12.79L5.88 12.79Q6.44 12.33 6.44 11.58L6.44 11.58L6.44 11.58Q6.44 11.09 6.18 10.74L6.18 10.74L6.18 10.74Q5.92 10.39 5.39 10.08L5.39 10.08L5.39 10.08Q4.86 9.77 3.86 9.37L3.86 9.37L3.86 9.37Q2.81 8.95 2.23 8.63L2.23 8.63L2.23 8.63Q1.65 8.32 1.29 7.82L1.29 7.82L1.29 7.82Q0.94 7.32 0.94 6.57L0.94 6.57L0.94 6.57Q0.94 5.39 1.76 4.74L1.76 4.74L1.76 4.74Q2.58 4.09 4.02 4.09L4.02 4.09L4.02 4.09Q5.56 4.09 6.45 4.82L6.45 4.82L6.45 4.82Q7.35 5.54 7.35 6.75L7.35 6.75L7.35 7.01L7.35 7.01Q7.35 7.20 7.17 7.20L7.17 7.20L6.55 7.20L6.55 7.20Q6.37 7.20 6.37 7.01L6.37 7.01L6.37 6.80L6.37 6.80Q6.37 5.99 5.74 5.47L5.74 5.47L5.74 5.47Q5.11 4.96 3.96 4.96L3.96 4.96L3.96 4.96Q2.97 4.96 2.44 5.36L2.44 5.36L2.44 5.36Q1.92 5.77 1.92 6.54L1.92 6.54L1.92 6.54Q1.92 7.04 2.18 7.37L2.18 7.37L2.18 7.37Q2.44 7.70 2.92 7.95L2.92 7.95L2.92 7.95Q3.40 8.19 4.40 8.58L4.40 8.58L4.40 8.58Q5.42 9.00 6.05 9.37L6.05 9.37L6.05 9.37Q6.68 9.73 7.06 10.25L7.06 10.25L7.06 10.25Q7.43 10.78 7.43 11.54L7.43 11.54L7.43 11.54Q7.43 12.70 6.57 13.40L6.57 13.40L6.57 13.40Q5.71 14.11 4.17 14.11L4.17 14.11ZM12.04 14.11L12.04 14.11Q11.02 14.11 10.30 13.59L10.30 13.59L10.30 13.59Q9.58 13.08 9.30 12.17L9.30 12.17L9.30 12.17Q9.10 11.52 9.10 10.44L9.10 10.44L9.10 10.44Q9.10 9.38 9.28 8.74L9.28 8.74L9.28 8.74Q9.56 7.84 10.28 7.32L10.28 7.32L10.28 7.32Q11.00 6.80 12.04 6.80L12.04 6.80L12.04 6.80Q13.05 6.80 13.77 7.32L13.77 7.32L13.77 7.32Q14.49 7.84 14.76 8.72L14.76 8.72L14.76 8.72Q14.95 9.39 14.95 10.44L14.95 10.44L14.95 10.44Q14.95 11.52 14.76 12.17L14.76 12.17L14.76 12.17Q14.48 13.08 13.76 13.59L13.76 13.59L13.76 13.59Q13.03 14.11 12.04 14.11L12.04 14.11ZM12.04 13.24L12.04 13.24Q12.71 13.24 13.19 12.87L13.19 12.87L13.19 12.87Q13.66 12.50 13.83 11.87L13.83 11.87L13.83 11.87Q13.94 11.42 13.94 10.46L13.94 10.46L13.94 10.46Q13.94 9.45 13.83 9.04L13.83 9.04L13.83 9.04Q13.68 8.41 13.20 8.04L13.20 8.04L13.20 8.04Q12.71 7.67 12.01 7.67L12.01 7.67L12.01 7.67Q11.34 7.67 10.86 8.04L10.86 8.04L10.86 8.04Q10.39 8.41 10.22 9.04L10.22 9.04L10.22 9.04Q10.11 9.45 10.11 10.46L10.11 10.46L10.11 10.46Q10.11 11.47 10.22 11.87L10.22 11.87L10.22 11.87Q10.37 12.50 10.86 12.87L10.86 12.87L10.86 12.87Q11.34 13.24 12.04 13.24L12.04 13.24ZM21.25 7.10L21.25 7.10Q21.25 6.92 21.43 6.92L21.43 6.92L22.06 6.92L22.06 6.92Q22.25 6.92 22.25 7.10L22.25 7.10L22.25 13.82L22.25 13.82Q22.25 14 22.06 14L22.06 14L21.43 14L21.43 14Q21.25 14 21.25 13.82L21.25 13.82L21.25 13.29L21.25 13.29Q21.25 13.24 21.22 13.23L21.22 13.23L21.22 13.23Q21.20 13.22 21.17 13.26L21.17 13.26L21.17 13.26Q20.57 14.10 19.32 14.10L19.32 14.10L19.32 14.10Q18.65 14.10 18.08 13.82L18.08 13.82L18.08 13.82Q17.51 13.55 17.19 13.03L17.19 13.03L17.19 13.03Q16.86 12.52 16.86 11.79L16.86 11.79L16.86 7.10L16.86 7.10Q16.86 6.92 17.04 6.92L17.04 6.92L17.67 6.92L17.67 6.92Q17.85 6.92 17.85 7.10L17.85 7.10L17.85 11.49L17.85 11.49Q17.85 12.29 18.30 12.76L18.30 12.76L18.30 12.76Q18.75 13.23 19.52 13.23L19.52 13.23L19.52 13.23Q20.31 13.23 20.78 12.75L20.78 12.75L20.78 12.75Q21.25 12.28 21.25 11.49L21.25 11.49L21.25 7.10ZM27.65 7.56L27.65 7.56Q27.65 7.74 27.47 7.74L27.47 7.74L25.94 7.74L25.94 7.74Q25.87 7.74 25.87 7.81L25.87 7.81L25.87 11.90L25.87 11.90Q25.87 12.57 26.17 12.85L26.17 12.85L26.17 12.85Q26.47 13.12 27.12 13.12L27.12 13.12L27.43 13.12L27.43 13.12Q27.61 13.12 27.61 13.30L27.61 13.30L27.61 13.79L27.61 13.79Q27.61 13.97 27.43 13.99L27.43 13.99L26.95 13.99L26.95 13.99Q25.94 13.99 25.42 13.61L25.42 13.61L25.42 13.61Q24.91 13.23 24.91 12.21L24.91 12.21L24.91 7.81L24.91 7.81Q24.91 7.74 24.84 7.74L24.84 7.74L24.04 7.74L24.04 7.74Q23.86 7.74 23.86 7.56L23.86 7.56L23.86 7.10L23.86 7.10Q23.86 6.92 24.04 6.92L24.04 6.92L24.84 6.92L24.84 6.92Q24.91 6.92 24.91 6.85L24.91 6.85L24.91 5.28L24.91 5.28Q24.91 5.10 25.09 5.10L25.09 5.10L25.69 5.10L25.69 5.10Q25.87 5.10 25.87 5.28L25.87 5.28L25.87 6.85L25.87 6.85Q25.87 6.92 25.94 6.92L25.94 6.92L27.47 6.92L27.47 6.92Q27.65 6.92 27.65 7.10L27.65 7.10L27.65 7.56ZM32.51 6.82L32.51 6.82Q33.61 6.82 34.28 7.48L34.28 7.48L34.28 7.48Q34.94 8.13 34.94 9.24L34.94 9.24L34.94 13.82L34.94 13.82Q34.94 14 34.76 14L34.76 14L34.13 14L34.13 14Q33.95 14 33.95 13.82L33.95 13.82L33.95 9.44L33.95 9.44Q33.95 8.65 33.49 8.17L33.49 8.17L33.49 8.17Q33.03 7.69 32.28 7.69L32.28 7.69L32.28 7.69Q31.57 7.69 31.10 8.09L31.10 8.09L31.10 8.09Q30.63 8.50 30.56 9.16L30.56 9.16L30.56 13.82L30.56 13.82Q30.56 14 30.38 14L30.38 14L29.75 14L29.75 14Q29.57 14 29.57 13.82L29.57 13.82L29.57 4.38L29.57 4.38Q29.57 4.20 29.75 4.20L29.75 4.20L30.38 4.20L30.38 4.20Q30.56 4.20 30.56 4.38L30.56 4.38L30.56 7.62L30.56 7.62Q30.56 7.66 30.59 7.68L30.59 7.68L30.59 7.68Q30.62 7.70 30.63 7.66L30.63 7.66L30.63 7.66Q31.25 6.82 32.51 6.82L32.51 6.82ZM46.45 4.89L46.45 4.89Q46.45 5.07 46.27 5.07L46.27 5.07L41.17 5.07L41.17 5.07Q41.10 5.07 41.10 5.14L41.10 5.14L41.10 8.57L41.10 8.57Q41.10 8.64 41.17 8.64L41.17 8.64L44.73 8.64L44.73 8.64Q44.91 8.64 44.91 8.82L44.91 8.82L44.91 9.32L44.91 9.32Q44.91 9.51 44.73 9.51L44.73 9.51L41.17 9.51L41.17 9.51Q41.10 9.51 41.10 9.58L41.10 9.58L41.10 13.06L41.10 13.06Q41.10 13.13 41.17 13.13L41.17 13.13L46.27 13.13L46.27 13.13Q46.45 13.13 46.45 13.31L46.45 13.31L46.45 13.82L46.45 13.82Q46.45 14 46.27 14L46.27 14L40.29 14L40.29 14Q40.11 14 40.11 13.82L40.11 13.82L40.11 4.38L40.11 4.38Q40.11 4.20 40.29 4.20L40.29 4.20L46.27 4.20L46.27 4.20Q46.45 4.20 46.45 4.38L46.45 4.38L46.45 4.89ZM51.32 6.82L51.32 6.82Q52.43 6.82 53.09 7.48L53.09 7.48L53.09 7.48Q53.76 8.13 53.76 9.24L53.76 9.24L53.76 13.82L53.76 13.82Q53.76 14 53.58 14L53.58 14L52.95 14L52.95 14Q52.77 14 52.77 13.82L52.77 13.82L52.77 9.44L52.77 9.44Q52.77 8.65 52.30 8.17L52.30 8.17L52.30 8.17Q51.84 7.69 51.10 7.69L51.10 7.69L51.10 7.69Q50.39 7.69 49.92 8.09L49.92 8.09L49.92 8.09Q49.45 8.50 49.38 9.16L49.38 9.16L49.38 13.82L49.38 13.82Q49.38 14 49.20 14L49.20 14L48.57 14L48.57 14Q48.38 14 48.38 13.82L48.38 13.82L48.38 7.10L48.38 7.10Q48.38 6.92 48.57 6.92L48.57 6.92L49.20 6.92L49.20 6.92Q49.38 6.92 49.38 7.10L49.38 7.10L49.38 7.62L49.38 7.62Q49.38 7.66 49.41 7.68L49.41 7.68L49.41 7.68Q49.43 7.70 49.45 7.66L49.45 7.66L49.45 7.66Q50.06 6.82 51.32 6.82L51.32 6.82ZM60.28 4.38L60.28 4.38Q60.28 4.20 60.47 4.20L60.47 4.20L61.10 4.20L61.10 4.20Q61.28 4.20 61.28 4.38L61.28 4.38L61.28 13.82L61.28 13.82Q61.28 14 61.10 14L61.10 14L60.47 14L60.47 14Q60.28 14 60.28 13.82L60.28 13.82L60.28 13.29L60.28 13.29Q60.28 13.24 60.26 13.24L60.26 13.24L60.26 13.24Q60.23 13.23 60.20 13.26L60.20 13.26L60.20 13.26Q59.89 13.66 59.44 13.89L59.44 13.89L59.44 13.89Q58.98 14.11 58.42 14.11L58.42 14.11L58.42 14.11Q57.44 14.11 56.78 13.61L56.78 13.61L56.78 13.61Q56.11 13.10 55.86 12.24L55.86 12.24L55.86 12.24Q55.66 11.61 55.66 10.46L55.66 10.46L55.66 10.46Q55.66 9.30 55.83 8.72L55.83 8.72L55.83 8.72Q56.08 7.83 56.76 7.31L56.76 7.31L56.76 7.31Q57.43 6.80 58.42 6.80L58.42 6.80L58.42 6.80Q58.97 6.80 59.43 7.02L59.43 7.02L59.43 7.02Q59.89 7.24 60.20 7.64L60.20 7.64L60.20 7.64Q60.23 7.69 60.26 7.67L60.26 7.67L60.26 7.67Q60.28 7.66 60.28 7.62L60.28 7.62L60.28 4.38ZM60.02 12.17L60.02 12.17Q60.14 11.89 60.20 11.51L60.20 11.51L60.20 11.51Q60.26 11.13 60.26 10.46L60.26 10.46L60.26 10.46Q60.26 9.79 60.20 9.40L60.20 9.40L60.20 9.40Q60.14 9.02 60.00 8.72L60.00 8.72L60.00 8.72Q59.84 8.25 59.45 7.96L59.45 7.96L59.45 7.96Q59.07 7.67 58.53 7.67L58.53 7.67L58.53 7.67Q57.97 7.67 57.57 7.95L57.57 7.95L57.57 7.95Q57.16 8.23 56.98 8.69L56.98 8.69L56.98 8.69Q56.81 9.00 56.73 9.39L56.73 9.39L56.73 9.39Q56.66 9.77 56.66 10.46L56.66 10.46L56.66 10.46Q56.66 11.12 56.71 11.49L56.71 11.49L56.71 11.49Q56.77 11.86 56.91 12.15L56.91 12.15L56.91 12.15Q57.08 12.66 57.50 12.95L57.50 12.95L57.50 12.95Q57.93 13.24 58.52 13.24L58.52 13.24L58.52 13.24Q59.08 13.24 59.46 12.95L59.46 12.95L59.46 12.95Q59.84 12.66 60.02 12.17L60.02 12.17ZM66.70 14L66.70 14Q66.51 14 66.51 13.82L66.51 13.82L66.51 4.38L66.51 4.38Q66.51 4.20 66.70 4.20L66.70 4.20L69.96 4.20L69.96 4.20Q71.34 4.20 72.16 4.93L72.16 4.93L72.16 4.93Q72.98 5.66 72.98 6.90L72.98 6.90L72.98 11.30L72.98 11.30Q72.98 12.54 72.16 13.27L72.16 13.27L72.16 13.27Q71.34 14 69.96 14L69.96 14L66.70 14ZM67.51 13.06L67.51 13.06Q67.51 13.13 67.58 13.13L67.58 13.13L70 13.13L70 13.13Q70.91 13.13 71.45 12.60L71.45 12.60L71.45 12.60Q71.99 12.07 71.99 11.17L71.99 11.17L71.99 7.04L71.99 7.04Q71.99 6.13 71.46 5.60L71.46 5.60L71.46 5.60Q70.92 5.07 70 5.07L70 5.07L67.58 5.07L67.58 5.07Q67.51 5.07 67.51 5.14L67.51 5.14L67.51 13.06ZM77.73 13.26L77.73 13.26Q78.36 13.24 78.81 12.97L78.81 12.97L78.81 12.97Q79.27 12.70 79.52 12.21L79.52 12.21L79.52 12.21Q79.55 12.14 79.62 12.11L79.62 12.11L79.62 12.11Q79.69 12.08 79.76 12.12L79.76 12.12L80.16 12.35L80.16 12.35Q80.33 12.45 80.25 12.59L80.25 12.59L80.25 12.59Q79.91 13.29 79.24 13.70L79.24 13.70L79.24 13.70Q78.57 14.11 77.64 14.11L77.64 14.11L77.64 14.11Q76.66 14.11 75.99 13.65L75.99 13.65L75.99 13.65Q75.32 13.19 75.03 12.36L75.03 12.36L75.03 12.36Q74.76 11.66 74.76 10.43L74.76 10.43L74.76 10.43Q74.76 9.83 74.78 9.47L74.78 9.47L74.78 9.47Q74.80 9.11 74.89 8.81L74.89 8.81L74.89 8.81Q75.12 7.90 75.84 7.35L75.84 7.35L75.84 7.35Q76.57 6.80 77.59 6.80L77.59 6.80L77.59 6.80Q78.81 6.80 79.50 7.43L79.50 7.43L79.50 7.43Q80.19 8.06 80.39 9.21L80.39 9.21L80.39 9.21Q80.47 9.66 80.47 10.61L80.47 10.61L80.47 10.61Q80.47 10.79 80.29 10.79L80.29 10.79L75.81 10.79L75.81 10.79Q75.74 10.79 75.74 10.86L75.74 10.86L75.74 10.86Q75.74 11.56 75.82 11.89L75.82 11.89L75.82 11.89Q75.98 12.52 76.47 12.89L76.47 12.89L76.47 12.89Q76.97 13.26 77.73 13.26L77.73 13.26ZM77.59 7.67L77.59 7.67Q76.89 7.67 76.44 8.03L76.44 8.03L76.44 8.03Q75.99 8.39 75.85 8.99L75.85 8.99L75.85 8.99Q75.77 9.27 75.74 9.94L75.74 9.94L75.74 9.94Q75.74 10.01 75.81 10.01L75.81 10.01L79.41 10.01L79.41 10.01Q79.48 10.01 79.48 9.94L79.48 9.94L79.48 9.94Q79.45 9.32 79.39 9.04L79.39 9.04L79.39 9.04Q79.24 8.41 78.77 8.04L78.77 8.04L78.77 8.04Q78.30 7.67 77.59 7.67L77.59 7.67ZM84.77 14.07L84.77 14.07Q83.99 14.07 83.38 13.82L83.38 13.82L83.38 13.82Q82.77 13.57 82.44 13.15L82.44 13.15L82.44 13.15Q82.11 12.73 82.11 12.21L82.11 12.21L82.11 12.08L82.11 12.08Q82.11 11.90 82.29 11.90L82.29 11.90L82.89 11.90L82.89 11.90Q82.98 11.90 83.03 11.94L83.03 11.94L83.03 11.94Q83.08 11.97 83.08 12.03L83.08 12.03L83.08 12.15L83.08 12.15Q83.08 12.61 83.55 12.96L83.55 12.96L83.55 12.96Q84.03 13.30 84.76 13.30L84.76 13.30L84.76 13.30Q85.48 13.30 85.93 12.97L85.93 12.97L85.93 12.97Q86.38 12.64 86.38 12.14L86.38 12.14L86.38 12.14Q86.38 11.79 86.16 11.56L86.16 11.56L86.16 11.56Q85.93 11.34 85.61 11.21L85.61 11.21L85.61 11.21Q85.29 11.09 84.64 10.89L84.64 10.89L84.64 10.89Q83.86 10.67 83.36 10.44L83.36 10.44L83.36 10.44Q82.85 10.22 82.50 9.82L82.50 9.82L82.50 9.82Q82.15 9.42 82.15 8.81L82.15 8.81L82.15 8.81Q82.15 7.91 82.86 7.38L82.86 7.38L82.86 7.38Q83.57 6.85 84.71 6.85L84.71 6.85L84.71 6.85Q85.48 6.85 86.08 7.10L86.08 7.10L86.08 7.10Q86.67 7.35 87.00 7.79L87.00 7.79L87.00 7.79Q87.32 8.23 87.32 8.78L87.32 8.78L87.32 8.78Q87.32 8.96 87.14 8.96L87.14 8.96L86.56 8.96L86.56 8.96Q86.38 8.96 86.38 8.86L86.38 8.86L86.38 8.78L86.38 8.78Q86.38 8.30 85.92 7.98L85.92 7.98L85.92 7.98Q85.47 7.66 84.70 7.66L84.70 7.66L84.70 7.66Q83.99 7.66 83.55 7.95L83.55 7.95L83.55 7.95Q83.12 8.23 83.12 8.74L83.12 8.74L83.12 8.74Q83.12 9.21 83.53 9.46L83.53 9.46L83.53 9.46Q83.94 9.72 84.83 9.97L84.83 9.97L84.83 9.97Q85.64 10.19 86.14 10.40L86.14 10.40L86.14 10.40Q86.65 10.61 87.01 11.02L87.01 11.02L87.01 11.02Q87.37 11.42 87.37 12.07L87.37 12.07L87.37 12.07Q87.37 12.98 86.67 13.52L86.67 13.52L86.67 13.52Q85.96 14.07 84.77 14.07L84.77 14.07ZM89.80 5.64L89.80 5.64Q89.46 5.64 89.25 5.44L89.25 5.44L89.25 5.44Q89.04 5.24 89.04 4.91L89.04 4.91L89.04 4.91Q89.04 4.59 89.25 4.40L89.25 4.40L89.25 4.40Q89.46 4.20 89.80 4.20L89.80 4.20L89.80 4.20Q90.13 4.20 90.34 4.40L90.34 4.40L90.34 4.40Q90.55 4.59 90.55 4.91L90.55 4.91L90.55 4.91Q90.55 5.24 90.34 5.44L90.34 5.44L90.34 5.44Q90.13 5.64 89.80 5.64L89.80 5.64ZM89.49 14L89.49 14Q89.31 14 89.31 13.82L89.31 13.82L89.31 7.10L89.31 7.10Q89.31 6.92 89.49 6.92L89.49 6.92L90.12 6.92L90.12 6.92Q90.30 6.92 90.30 7.10L90.30 7.10L90.30 13.82L90.30 13.82Q90.30 14 90.12 14L90.12 14L89.49 14ZM96.99 7.10L96.99 7.10Q96.99 6.92 97.17 6.92L97.17 6.92L97.80 6.92L97.80 6.92Q97.99 6.92 97.99 7.10L97.99 7.10L97.99 13.76L97.99 13.76Q97.99 15.33 97.08 16.06L97.08 16.06L97.08 16.06Q96.17 16.79 94.60 16.79L94.60 16.79L94.60 16.79Q94.30 16.79 94.15 16.77L94.15 16.77L94.15 16.77Q93.97 16.76 93.97 16.58L93.97 16.58L94.00 16.02L94.00 16.02Q94.00 15.82 94.18 15.85L94.18 15.85L94.18 15.85Q95.66 15.92 96.33 15.41L96.33 15.41L96.33 15.41Q96.99 14.91 96.99 13.73L96.99 13.73L96.99 13.24L96.99 13.24Q96.99 13.20 96.96 13.19L96.96 13.19L96.96 13.19Q96.94 13.17 96.91 13.22L96.91 13.22L96.91 13.22Q96.26 14.04 95.09 14.04L95.09 14.04L95.09 14.04Q94.18 14.04 93.47 13.55L93.47 13.55L93.47 13.55Q92.76 13.06 92.53 12.17L92.53 12.17L92.53 12.17Q92.36 11.59 92.36 10.46L92.36 10.46L92.36 10.46Q92.36 9.84 92.39 9.42L92.39 9.42L92.39 9.42Q92.43 9.00 92.54 8.67L92.54 8.67L92.54 8.67Q92.79 7.83 93.45 7.31L93.45 7.31L93.45 7.31Q94.11 6.80 95.03 6.80L95.03 6.80L95.03 6.80Q96.25 6.80 96.91 7.60L96.91 7.60L96.91 7.60Q96.94 7.64 96.96 7.63L96.96 7.63L96.96 7.63Q96.99 7.62 96.99 7.57L96.99 7.57L96.99 7.10ZM96.92 11.86L96.92 11.86Q96.96 11.65 96.98 11.34L96.98 11.34L96.98 11.34Q96.99 11.03 96.99 10.44L96.99 10.44L96.99 10.44Q96.99 9.73 96.98 9.48L96.98 9.48L96.98 9.48Q96.96 9.24 96.91 9.03L96.91 9.03L96.91 9.03Q96.80 8.44 96.36 8.06L96.36 8.06L96.36 8.06Q95.91 7.67 95.24 7.67L95.24 7.67L95.24 7.67Q94.58 7.67 94.13 8.05L94.13 8.05L94.13 8.05Q93.67 8.43 93.49 9.03L93.49 9.03L93.49 9.03Q93.35 9.48 93.35 10.43L93.35 10.43L93.35 10.43Q93.35 11.45 93.49 11.84L93.49 11.84L93.49 11.84Q93.63 12.43 94.10 12.82L94.10 12.82L94.10 12.82Q94.57 13.20 95.24 13.20L95.24 13.20L95.24 13.20Q95.93 13.20 96.37 12.82L96.37 12.82L96.37 12.82Q96.81 12.45 96.92 11.86L96.92 11.86ZM103.05 6.82L103.05 6.82Q104.16 6.82 104.83 7.48L104.83 7.48L104.83 7.48Q105.49 8.13 105.49 9.24L105.49 9.24L105.49 13.82L105.49 13.82Q105.49 14 105.31 14L105.31 14L104.68 14L104.68 14Q104.50 14 104.50 13.82L104.50 13.82L104.50 9.44L104.50 9.44Q104.50 8.65 104.03 8.17L104.03 8.17L104.03 8.17Q103.57 7.69 102.83 7.69L102.83 7.69L102.83 7.69Q102.12 7.69 101.65 8.09L101.65 8.09L101.65 8.09Q101.18 8.50 101.11 9.16L101.11 9.16L101.11 13.82L101.11 13.82Q101.11 14 100.93 14L100.93 14L100.30 14L100.30 14Q100.11 14 100.11 13.82L100.11 13.82L100.11 7.10L100.11 7.10Q100.11 6.92 100.30 6.92L100.30 6.92L100.93 6.92L100.93 6.92Q101.11 6.92 101.11 7.10L101.11 7.10L101.11 7.62L101.11 7.62Q101.11 7.66 101.14 7.68L101.14 7.68L101.14 7.68Q101.16 7.70 101.18 7.66L101.18 7.66L101.18 7.66Q101.79 6.82 103.05 6.82L103.05 6.82Z"></path></g><!----><!----></svg>