<svg data-v-423bf9ae="" xmlns="http://www.w3.org/2000/svg" viewBox="0 0 570 95" class="iconLeftSlogan"><!----><!----><!----><g data-v-423bf9ae="" id="4ea5869e-8407-4169-b950-106f7b71082c" fill="black" transform="matrix(4.1522489157152584,0,0,4.1522489157152584,93.8168482136617,-1.4948102651023376)"><path d="M8.20 2.31C7.46 0.80 5.88 0.36 4.35 0.36C2.55 0.38 0.56 1.20 0.56 3.22C0.56 5.42 2.41 5.95 4.41 6.19C5.71 6.33 6.68 6.71 6.68 7.63C6.68 8.69 5.59 9.10 4.42 9.10C3.23 9.10 2.10 8.62 1.67 7.55L0.13 8.34C0.85 10.14 2.39 10.75 4.40 10.75C6.58 10.75 8.51 9.81 8.51 7.63C8.51 5.29 6.61 4.76 4.56 4.51C3.39 4.37 2.38 4.13 2.38 3.28C2.38 2.55 3.04 1.97 4.41 1.97C5.47 1.97 6.40 2.51 6.73 3.07ZM13.34 3.46C11.14 3.46 9.77 5.08 9.77 7.06C9.77 9.04 11.12 10.65 13.36 10.65C15.60 10.65 16.95 9.04 16.95 7.06C16.95 5.08 15.54 3.46 13.34 3.46ZM13.36 5.01C14.50 5.01 15.23 6.02 15.23 7.06C15.23 8.11 14.60 9.09 13.36 9.09C12.11 9.09 11.48 8.11 11.48 7.06C11.48 6.02 12.12 5.01 13.36 5.01ZM18.17 3.60L18.17 7.22C18.17 9.37 19.38 10.61 21.03 10.61C21.99 10.61 22.65 10.28 23.37 9.58L23.48 10.51L25.00 10.51L25.00 3.60L23.31 3.60L23.31 7.13C23.31 8.18 22.60 9.06 21.55 9.06C20.45 9.06 19.88 8.26 19.88 7.21L19.88 3.60ZM27.22 1.83L27.22 3.61L25.93 3.61L25.93 5.08L27.22 5.08L27.22 8.06C27.22 9.79 28.20 10.64 29.69 10.58C30.21 10.57 30.62 10.49 31.11 10.29L30.63 8.83C30.38 8.96 30.07 9.04 29.81 9.04C29.27 9.04 28.91 8.72 28.91 8.06L28.91 5.08L30.83 5.08L30.83 3.61L28.92 3.61L28.92 1.65ZM32.10 0.70L32.10 10.50L33.81 10.50L33.81 6.97C33.81 5.94 34.51 5.08 35.52 5.08C36.43 5.08 37.09 5.61 37.09 6.87L37.09 10.50L38.79 10.50L38.79 6.86C38.79 4.83 37.93 3.50 35.97 3.50C35.18 3.50 34.43 3.74 33.81 4.54L33.81 0.70ZM50.50 8.68L45.00 8.68L45.00 6.47L50.30 6.47L50.30 4.75L45.00 4.75L45.00 2.49L50.50 2.49L50.50 0.70L43.16 0.70C43.16 3.96 43.16 7.24 43.16 10.50L50.50 10.50ZM58.59 10.50L58.59 6.87C58.59 4.70 57.29 3.49 55.66 3.49C54.80 3.49 54.10 3.84 53.40 4.52L53.28 3.58L51.76 3.58L51.76 10.50L53.45 10.50L53.45 6.97C53.45 5.92 54.17 5.04 55.22 5.04C56.31 5.04 56.88 5.84 56.88 6.89L56.88 10.50ZM63.41 5.03C64.48 5.03 65.41 5.84 65.41 7.04C65.41 8.29 64.48 9.07 63.41 9.07C62.31 9.07 61.45 8.25 61.45 7.04C61.45 5.80 62.31 5.03 63.41 5.03ZM65.52 0.71L65.52 4.54C65.11 3.82 63.98 3.43 63.25 3.43C61.24 3.43 59.74 4.66 59.74 7.04C59.74 9.31 61.26 10.65 63.29 10.65C64.13 10.65 64.99 10.37 65.52 9.55L65.63 10.50L67.23 10.50L67.23 0.71ZM75.39 0.70C74.19 0.70 72.74 0.70 71.54 0.70L71.54 10.50C72.74 10.50 74.19 10.50 75.39 10.50C78.82 10.50 80.33 7.99 80.29 5.52C80.25 3.09 78.75 0.70 75.39 0.70ZM73.37 2.45L75.39 2.45C77.52 2.45 78.41 3.98 78.46 5.50C78.50 7.10 77.62 8.72 75.39 8.72L73.37 8.72ZM88.52 7.66C88.79 4.82 87.35 3.39 85.04 3.39C82.80 3.39 81.37 4.90 81.37 7C81.37 9.21 82.78 10.68 85.16 10.68C86.21 10.68 87.40 10.32 88.13 9.56L87.04 8.48C86.65 8.89 85.82 9.13 85.19 9.13C83.99 9.13 83.24 8.51 83.13 7.66ZM83.16 6.24C83.41 5.35 84.17 4.90 85.09 4.90C86.07 4.90 86.77 5.35 86.88 6.24ZM95.30 4.31C94.50 3.61 93.69 3.40 92.61 3.40C91.35 3.40 89.70 3.96 89.70 5.56C89.70 7.13 91.25 7.60 92.55 7.70C93.53 7.76 93.93 7.95 93.93 8.43C93.93 8.93 93.32 9.27 92.68 9.25C91.91 9.24 90.79 8.83 90.30 8.29L89.46 9.51C90.47 10.56 91.56 10.74 92.65 10.74C94.63 10.74 95.62 9.69 95.62 8.47C95.62 6.64 93.97 6.34 92.67 6.26C91.78 6.20 91.38 5.95 91.38 5.50C91.38 5.07 91.83 4.82 92.64 4.82C93.30 4.82 93.86 4.97 94.35 5.43ZM98.42 3.57L98.42 10.50L96.71 10.50L96.71 3.57ZM96.56 1.65C96.56 2.98 98.57 2.98 98.57 1.65C98.57 0.32 96.56 0.32 96.56 1.65ZM104.69 3.77C104.22 3.44 103.66 3.37 103.11 3.37C101.18 3.37 99.61 4.72 99.61 6.87C99.61 9.03 100.95 10.35 103.11 10.35C103.96 10.35 104.86 10.78 104.86 11.73C104.86 12.68 104.09 13.22 103.11 13.22C102.13 13.22 101.30 12.63 101.30 11.73L99.61 11.73C99.61 13.59 101.11 14.81 103.11 14.81C105.11 14.81 106.57 13.64 106.57 11.73C106.57 10.85 106.29 10.02 105.14 9.45C106.27 8.93 106.60 7.73 106.60 6.87C106.60 6.12 106.40 5.43 105.87 4.83L106.64 3.85L105.38 2.90ZM103.11 4.93C104.09 4.93 104.90 5.68 104.90 6.87C104.90 8.06 104.09 8.79 103.11 8.79C102.12 8.79 101.30 8.08 101.30 6.87C101.30 5.67 102.12 4.93 103.11 4.93ZM114.48 10.50L114.48 6.87C114.48 4.70 113.18 3.49 111.55 3.49C110.68 3.49 109.98 3.84 109.28 4.52L109.17 3.58L107.65 3.58L107.65 10.50L109.34 10.50L109.34 6.97C109.34 5.92 110.05 5.04 111.10 5.04C112.20 5.04 112.77 5.84 112.77 6.89L112.77 10.50Z"></path></g><!----><g data-v-423bf9ae="" id="43b2251b-61d6-401b-b9a8-9720b7ea8572" transform="matrix(1.0249444749620227,0,0,1.0249444749620227,-13.520709770293294,-3.369737658145141)" stroke="none" fill="black"><path d="M57.484 24.356a8.346 8.346 0 0 0-.037-.388c2.434-2.098 3.985-5.197 3.985-8.657 0-6.305-5.129-11.433-11.434-11.433-6.306 0-11.435 5.128-11.435 11.433 0 3.458 1.549 6.555 3.981 8.653a8.43 8.43 0 0 0-.038.393c-16.417 3.463-28.78 18.06-28.78 35.493 0 20.002 16.272 36.273 36.273 36.273 20.003 0 36.274-16.271 36.274-36.273 0-17.436-12.367-32.034-28.789-35.494zm-15.26-9.044c0-4.287 3.487-7.774 7.775-7.774 4.287 0 7.775 3.487 7.775 7.774a7.738 7.738 0 0 1-1.839 5.01 7.498 7.498 0 0 0-11.876-.004 7.731 7.731 0 0 1-1.835-5.006zm10.518 75.194v-3.584a2.744 2.744 0 1 0-5.487 0v3.584c-14.789-1.314-26.6-13.123-27.913-27.91h2.737a2.745 2.745 0 0 0 0-5.488h-2.737c1.313-14.791 13.124-26.601 27.913-27.915v2.722a2.744 2.744 0 1 0 5.487 0v-2.722c14.79 1.312 26.6 13.124 27.914 27.915h-2.738a2.744 2.744 0 1 0 0 5.488h2.738c-1.314 14.789-13.124 26.597-27.914 27.91z"></path><path d="M39.343 80.205L56.134 62.76l4.519-24.226-16.787 17.445-4.523 24.226zm15.479-30.273l-2.047 10.971-5.559-3.07 7.606-7.901z"></path></g><!----><g data-v-423bf9ae="" id="f032aa05-995e-4a5f-89da-40edc57d7eb1" fill="black" transform="matrix(0.8291627845500514,0,0,0.8291627845500514,93.34506603771337,55.29035568714352)"><path d="M1.22 15.68L1.22 5.88L2.39 5.88L2.39 14.59L7.52 14.59L7.52 15.68L1.22 15.68ZM16.41 11.87L16.41 9.69L16.41 9.69Q16.41 7.78 17.32 6.73L17.32 6.73L17.32 6.73Q18.23 5.68 19.85 5.68L19.85 5.68L19.85 5.68Q21.48 5.68 22.39 6.73L22.39 6.73L22.39 6.73Q23.30 7.78 23.30 9.69L23.30 9.69L23.30 11.87L23.30 11.87Q23.30 13.83 22.39 14.85L22.39 14.85L22.39 14.85Q21.48 15.88 19.85 15.88L19.85 15.88L19.85 15.88Q18.23 15.88 17.32 14.85L17.32 14.85L17.32 14.85Q16.41 13.83 16.41 11.87L16.41 11.87ZM19.85 14.78L19.85 14.78L19.85 14.78Q20.99 14.78 21.55 14.01L21.55 14.01L21.55 14.01Q22.12 13.23 22.12 11.79L22.12 11.79L22.12 9.77L22.12 9.77Q22.12 8.43 21.55 7.60L21.55 7.60L21.55 7.60Q20.99 6.78 19.85 6.78L19.85 6.78L19.85 6.78Q18.72 6.78 18.15 7.60L18.15 7.60L18.15 7.60Q17.58 8.43 17.58 9.77L17.58 9.77L17.58 11.79L17.58 11.79Q17.58 13.23 18.15 14.01L18.15 14.01L18.15 14.01Q18.72 14.78 19.85 14.78ZM35.48 14.78L35.48 14.78L35.48 14.78Q36.08 14.78 36.50 14.58L36.50 14.58L36.50 14.58Q36.93 14.38 37.20 14.04L37.20 14.04L37.20 14.04Q37.48 13.69 37.61 13.25L37.61 13.25L37.61 13.25Q37.74 12.81 37.74 12.32L37.74 12.32L37.74 12.15L38.92 12.15L38.92 12.32L38.92 12.32Q38.92 13.06 38.70 13.71L38.70 13.71L38.70 13.71Q38.47 14.36 38.04 14.85L38.04 14.85L38.04 14.85Q37.60 15.33 36.96 15.60L36.96 15.60L36.96 15.60Q36.32 15.88 35.48 15.88L35.48 15.88L35.48 15.88Q33.85 15.88 32.94 14.85L32.94 14.85L32.94 14.85Q32.03 13.83 32.03 11.87L32.03 11.87L32.03 9.69L32.03 9.69Q32.03 7.78 32.94 6.73L32.94 6.73L32.94 6.73Q33.85 5.68 35.48 5.68L35.48 5.68L35.48 5.68Q36.32 5.68 36.96 5.96L36.96 5.96L36.96 5.96Q37.60 6.23 38.04 6.71L38.04 6.71L38.04 6.71Q38.47 7.20 38.70 7.85L38.70 7.85L38.70 7.85Q38.92 8.50 38.92 9.24L38.92 9.24L38.92 9.41L37.74 9.41L37.74 9.24L37.74 9.24Q37.73 8.76 37.60 8.32L37.60 8.32L37.60 8.32Q37.46 7.87 37.19 7.53L37.19 7.53L37.19 7.53Q36.92 7.18 36.50 6.98L36.50 6.98L36.50 6.98Q36.08 6.78 35.48 6.78L35.48 6.78L35.48 6.78Q34.34 6.78 33.77 7.60L33.77 7.60L33.77 7.60Q33.21 8.43 33.21 9.77L33.21 9.77L33.21 11.79L33.21 11.79Q33.21 13.23 33.77 14.01L33.77 14.01L33.77 14.01Q34.34 14.78 35.48 14.78ZM53.80 15.68L53.09 13.24L48.89 13.24L48.17 15.68L46.91 15.68L49.88 5.88L52.09 5.88L55.06 15.68L53.80 15.68ZM51.07 6.38L50.90 6.38L49.21 12.15L52.77 12.15L51.07 6.38ZM63.49 15.68L63.49 5.88L64.67 5.88L64.67 14.59L69.79 14.59L69.79 15.68L63.49 15.68ZM100.00 9.21L100.00 8.71L100.00 8.71Q100.00 8.23 99.81 7.87L99.81 7.87L99.81 7.87Q99.62 7.50 99.30 7.27L99.30 7.27L99.30 7.27Q98.98 7.03 98.56 6.90L98.56 6.90L98.56 6.90Q98.14 6.78 97.68 6.78L97.68 6.78L97.68 6.78Q97.27 6.78 96.91 6.88L96.91 6.88L96.91 6.88Q96.54 6.99 96.26 7.18L96.26 7.18L96.26 7.18Q95.97 7.38 95.80 7.66L95.80 7.66L95.80 7.66Q95.63 7.95 95.63 8.33L95.63 8.33L95.63 8.41L95.63 8.41Q95.63 8.82 95.80 9.11L95.80 9.11L95.80 9.11Q95.97 9.39 96.30 9.60L96.30 9.60L96.30 9.60Q96.63 9.80 97.12 9.93L97.12 9.93L97.12 9.93Q97.61 10.07 98.27 10.16L98.27 10.16L98.27 10.16Q99.81 10.40 100.53 11.07L100.53 11.07L100.53 11.07Q101.26 11.73 101.26 12.85L101.26 12.85L101.26 13.02L101.26 13.02Q101.26 13.65 101.05 14.17L101.05 14.17L101.05 14.17Q100.83 14.70 100.40 15.08L100.40 15.08L100.40 15.08Q99.97 15.46 99.34 15.67L99.34 15.67L99.34 15.67Q98.71 15.88 97.89 15.88L97.89 15.88L97.89 15.88Q96.95 15.88 96.23 15.60L96.23 15.60L96.23 15.60Q95.51 15.33 95.03 14.85L95.03 14.85L95.03 14.85Q94.54 14.36 94.29 13.71L94.29 13.71L94.29 13.71Q94.04 13.06 94.04 12.29L94.04 12.29L94.04 11.87L95.21 11.87L95.21 12.21L95.21 12.21Q95.21 13.50 95.92 14.14L95.92 14.14L95.92 14.14Q96.63 14.78 97.89 14.78L97.89 14.78L97.89 14.78Q98.98 14.78 99.53 14.30L99.53 14.30L99.53 14.30Q100.09 13.82 100.09 13.02L100.09 13.02L100.09 12.94L100.09 12.94Q100.09 12.17 99.52 11.76L99.52 11.76L99.52 11.76Q98.95 11.35 97.68 11.17L97.68 11.17L97.68 11.17Q96.94 11.07 96.34 10.87L96.34 10.87L96.34 10.87Q95.75 10.67 95.33 10.34L95.33 10.34L95.33 10.34Q94.91 10.01 94.68 9.55L94.68 9.55L94.68 9.55Q94.46 9.09 94.46 8.46L94.46 8.46L94.46 8.29L94.46 8.29Q94.46 7.71 94.70 7.24L94.70 7.24L94.70 7.24Q94.93 6.76 95.36 6.41L95.36 6.41L95.36 6.41Q95.79 6.06 96.38 5.87L96.38 5.87L96.38 5.87Q96.98 5.68 97.69 5.68L97.69 5.68L97.69 5.68Q98.52 5.68 99.17 5.92L99.17 5.92L99.17 5.92Q99.82 6.16 100.27 6.56L100.27 6.56L100.27 6.56Q100.72 6.96 100.95 7.50L100.95 7.50L100.95 7.50Q101.18 8.04 101.18 8.62L101.18 8.62L101.18 9.21L100.00 9.21ZM110.15 6.97L110.15 5.88L116.37 5.88L116.37 6.97L113.85 6.97L113.85 14.59L116.37 14.59L116.37 15.68L110.15 15.68L110.15 14.59L112.67 14.59L112.67 6.97L110.15 6.97ZM125.38 6.97L125.38 5.88L132.27 5.88L132.27 6.97L129.42 6.97L129.42 15.68L128.24 15.68L128.24 6.97L125.38 6.97ZM141.43 15.68L141.43 5.88L147.36 5.88L147.36 6.97L142.60 6.97L142.60 10.22L147.28 10.22L147.28 11.31L142.60 11.31L142.60 14.59L147.45 14.59L147.45 15.68L141.43 15.68ZM162.27 9.21L162.27 8.71L162.27 8.71Q162.27 8.23 162.09 7.87L162.09 7.87L162.09 7.87Q161.90 7.50 161.57 7.27L161.57 7.27L161.57 7.27Q161.25 7.03 160.83 6.90L160.83 6.90L160.83 6.90Q160.41 6.78 159.95 6.78L159.95 6.78L159.95 6.78Q159.54 6.78 159.18 6.88L159.18 6.88L159.18 6.88Q158.82 6.99 158.53 7.18L158.53 7.18L158.53 7.18Q158.24 7.38 158.07 7.66L158.07 7.66L158.07 7.66Q157.91 7.95 157.91 8.33L157.91 8.33L157.91 8.41L157.91 8.41Q157.91 8.82 158.07 9.11L158.07 9.11L158.07 9.11Q158.24 9.39 158.57 9.60L158.57 9.60L158.57 9.60Q158.90 9.80 159.39 9.93L159.39 9.93L159.39 9.93Q159.88 10.07 160.54 10.16L160.54 10.16L160.54 10.16Q162.08 10.40 162.81 11.07L162.81 11.07L162.81 11.07Q163.53 11.73 163.53 12.85L163.53 12.85L163.53 13.02L163.53 13.02Q163.53 13.65 163.32 14.17L163.32 14.17L163.32 14.17Q163.10 14.70 162.67 15.08L162.67 15.08L162.67 15.08Q162.25 15.46 161.62 15.67L161.62 15.67L161.62 15.67Q160.99 15.88 160.16 15.88L160.16 15.88L160.16 15.88Q159.22 15.88 158.50 15.60L158.50 15.60L158.50 15.60Q157.78 15.33 157.30 14.85L157.30 14.85L157.30 14.85Q156.81 14.36 156.56 13.71L156.56 13.71L156.56 13.71Q156.31 13.06 156.31 12.29L156.31 12.29L156.31 11.87L157.49 11.87L157.49 12.21L157.49 12.21Q157.49 13.50 158.19 14.14L158.19 14.14L158.19 14.14Q158.90 14.78 160.16 14.78L160.16 14.78L160.16 14.78Q161.25 14.78 161.81 14.30L161.81 14.30L161.81 14.30Q162.36 13.82 162.36 13.02L162.36 13.02L162.36 12.94L162.36 12.94Q162.36 12.17 161.79 11.76L161.79 11.76L161.79 11.76Q161.22 11.35 159.95 11.17L159.95 11.17L159.95 11.17Q159.21 11.07 158.61 10.87L158.61 10.87L158.61 10.87Q158.02 10.67 157.60 10.34L157.60 10.34L157.60 10.34Q157.18 10.01 156.95 9.55L156.95 9.55L156.95 9.55Q156.73 9.09 156.73 8.46L156.73 8.46L156.73 8.29L156.73 8.29Q156.73 7.71 156.97 7.24L156.97 7.24L156.97 7.24Q157.21 6.76 157.63 6.41L157.63 6.41L157.63 6.41Q158.06 6.06 158.66 5.87L158.66 5.87L158.66 5.87Q159.25 5.68 159.96 5.68L159.96 5.68L159.96 5.68Q160.79 5.68 161.44 5.92L161.44 5.92L161.44 5.92Q162.09 6.16 162.54 6.56L162.54 6.56L162.54 6.56Q162.99 6.96 163.22 7.50L163.22 7.50L163.22 7.50Q163.45 8.04 163.45 8.62L163.45 8.62L163.45 9.21L162.27 9.21ZM188.15 15.68L188.15 5.88L194.17 5.88L194.17 6.97L189.32 6.97L189.32 10.22L194.08 10.22L194.08 11.31L189.32 11.31L189.32 15.68L188.15 15.68ZM203.22 11.87L203.22 9.69L203.22 9.69Q203.22 7.78 204.13 6.73L204.13 6.73L204.13 6.73Q205.04 5.68 206.67 5.68L206.67 5.68L206.67 5.68Q208.29 5.68 209.20 6.73L209.20 6.73L209.20 6.73Q210.11 7.78 210.11 9.69L210.11 9.69L210.11 11.87L210.11 11.87Q210.11 13.83 209.20 14.85L209.20 14.85L209.20 14.85Q208.29 15.88 206.67 15.88L206.67 15.88L206.67 15.88Q205.04 15.88 204.13 14.85L204.13 14.85L204.13 14.85Q203.22 13.83 203.22 11.87L203.22 11.87ZM206.67 14.78L206.67 14.78L206.67 14.78Q207.80 14.78 208.37 14.01L208.37 14.01L208.37 14.01Q208.94 13.23 208.94 11.79L208.94 11.79L208.94 9.77L208.94 9.77Q208.94 8.43 208.37 7.60L208.37 7.60L208.37 7.60Q207.80 6.78 206.67 6.78L206.67 6.78L206.67 6.78Q205.53 6.78 204.97 7.60L204.97 7.60L204.97 7.60Q204.40 8.43 204.40 9.77L204.40 9.77L204.40 11.79L204.40 11.79Q204.40 13.23 204.97 14.01L204.97 14.01L204.97 14.01Q205.53 14.78 206.67 14.78ZM225.30 12.15L225.30 15.68L224.13 15.68L224.13 12.40L224.13 12.40Q224.13 12.04 223.96 11.84L223.96 11.84L223.96 11.84Q223.79 11.65 223.37 11.65L223.37 11.65L220.32 11.65L220.32 15.68L219.14 15.68L219.14 5.88L222.64 5.88L222.64 5.88Q223.40 5.88 223.96 6.10L223.96 6.10L223.96 6.10Q224.52 6.31 224.89 6.68L224.89 6.68L224.89 6.68Q225.26 7.04 225.45 7.53L225.45 7.53L225.45 7.53Q225.64 8.01 225.64 8.54L225.64 8.54L225.64 8.96L225.64 8.96Q225.64 9.51 225.34 10.05L225.34 10.05L225.34 10.05Q225.04 10.60 224.41 10.89L224.41 10.89L224.41 11.06L224.41 11.06Q224.83 11.13 225.06 11.40L225.06 11.40L225.06 11.40Q225.30 11.66 225.30 12.15L225.30 12.15ZM220.32 6.97L220.32 10.56L222.50 10.56L222.50 10.56Q223.50 10.56 223.98 10.13L223.98 10.13L223.98 10.13Q224.46 9.70 224.46 8.88L224.46 8.88L224.46 8.62L224.46 8.62Q224.46 7.88 223.98 7.43L223.98 7.43L223.98 7.43Q223.50 6.97 222.50 6.97L222.50 6.97L220.32 6.97ZM250.31 15.68L250.31 5.88L251.48 5.88L251.48 14.59L256.61 14.59L256.61 15.68L250.31 15.68ZM265.50 11.87L265.50 9.69L265.50 9.69Q265.50 7.78 266.41 6.73L266.41 6.73L266.41 6.73Q267.32 5.68 268.94 5.68L268.94 5.68L268.94 5.68Q270.56 5.68 271.47 6.73L271.47 6.73L271.47 6.73Q272.38 7.78 272.38 9.69L272.38 9.69L272.38 11.87L272.38 11.87Q272.38 13.83 271.47 14.85L271.47 14.85L271.47 14.85Q270.56 15.88 268.94 15.88L268.94 15.88L268.94 15.88Q267.32 15.88 266.41 14.85L266.41 14.85L266.41 14.85Q265.50 13.83 265.50 11.87L265.50 11.87ZM268.94 14.78L268.94 14.78L268.94 14.78Q270.07 14.78 270.64 14.01L270.64 14.01L270.64 14.01Q271.21 13.23 271.21 11.79L271.21 11.79L271.21 9.77L271.21 9.77Q271.21 8.43 270.64 7.60L270.64 7.60L270.64 7.60Q270.07 6.78 268.94 6.78L268.94 6.78L268.94 6.78Q267.81 6.78 267.24 7.60L267.24 7.60L267.24 7.60Q266.67 8.43 266.67 9.77L266.67 9.77L266.67 11.79L266.67 11.79Q266.67 13.23 267.24 14.01L267.24 14.01L267.24 14.01Q267.81 14.78 268.94 14.78ZM284.56 14.78L284.56 14.78L284.56 14.78Q285.17 14.78 285.59 14.58L285.59 14.58L285.59 14.58Q286.02 14.38 286.29 14.04L286.29 14.04L286.29 14.04Q286.57 13.69 286.70 13.25L286.70 13.25L286.70 13.25Q286.83 12.81 286.83 12.32L286.83 12.32L286.83 12.15L288.01 12.15L288.01 12.32L288.01 12.32Q288.01 13.06 287.78 13.71L287.78 13.71L287.78 13.71Q287.56 14.36 287.13 14.85L287.13 14.85L287.13 14.85Q286.69 15.33 286.05 15.60L286.05 15.60L286.05 15.60Q285.40 15.88 284.56 15.88L284.56 15.88L284.56 15.88Q282.94 15.88 282.03 14.85L282.03 14.85L282.03 14.85Q281.12 13.83 281.12 11.87L281.12 11.87L281.12 9.69L281.12 9.69Q281.12 7.78 282.03 6.73L282.03 6.73L282.03 6.73Q282.94 5.68 284.56 5.68L284.56 5.68L284.56 5.68Q285.40 5.68 286.05 5.96L286.05 5.96L286.05 5.96Q286.69 6.23 287.13 6.71L287.13 6.71L287.13 6.71Q287.56 7.20 287.78 7.85L287.78 7.85L287.78 7.85Q288.01 8.50 288.01 9.24L288.01 9.24L288.01 9.41L286.83 9.41L286.83 9.24L286.83 9.24Q286.82 8.76 286.69 8.32L286.69 8.32L286.69 8.32Q286.55 7.87 286.28 7.53L286.28 7.53L286.28 7.53Q286.01 7.18 285.59 6.98L285.59 6.98L285.59 6.98Q285.17 6.78 284.56 6.78L284.56 6.78L284.56 6.78Q283.43 6.78 282.86 7.60L282.86 7.60L282.86 7.60Q282.30 8.43 282.30 9.77L282.30 9.77L282.30 11.79L282.30 11.79Q282.30 13.23 282.86 14.01L282.86 14.01L282.86 14.01Q283.43 14.78 284.56 14.78ZM302.89 15.68L302.18 13.24L297.98 13.24L297.26 15.68L296.00 15.68L298.97 5.88L301.18 5.88L304.15 15.68L302.89 15.68ZM300.16 6.38L299.99 6.38L298.30 12.15L301.85 12.15L300.16 6.38ZM312.58 15.68L312.58 5.88L313.75 5.88L313.75 14.59L318.88 14.59L318.88 15.68L312.58 15.68ZM343.29 15.68L343.29 14.59L344.13 14.59L344.13 6.97L343.29 6.97L343.29 5.88L347.26 5.88L347.26 5.88Q347.96 5.88 348.50 6.08L348.50 6.08L348.50 6.08Q349.03 6.27 349.40 6.61L349.40 6.61L349.40 6.61Q349.78 6.94 349.96 7.41L349.96 7.41L349.96 7.41Q350.15 7.88 350.15 8.43L350.15 8.43L350.15 8.60L350.15 8.60Q350.15 9.00 350.03 9.34L350.03 9.34L350.03 9.34Q349.90 9.67 349.68 9.94L349.68 9.94L349.68 9.94Q349.45 10.21 349.15 10.39L349.15 10.39L349.15 10.39Q348.85 10.58 348.50 10.68L348.50 10.68L348.50 10.85L348.50 10.85Q349.20 11.05 349.68 11.60L349.68 11.60L349.68 11.60Q350.15 12.15 350.15 12.95L350.15 12.95L350.15 13.12L350.15 13.12Q350.15 13.66 349.96 14.13L349.96 14.13L349.96 14.13Q349.78 14.60 349.40 14.95L349.40 14.95L349.40 14.95Q349.03 15.29 348.50 15.48L348.50 15.48L348.50 15.48Q347.96 15.68 347.26 15.68L347.26 15.68L343.29 15.68ZM345.31 11.31L345.31 14.59L347.17 14.59L347.17 14.59Q348.00 14.59 348.52 14.17L348.52 14.17L348.52 14.17Q349.03 13.76 349.03 13.03L349.03 13.03L349.03 12.95L349.03 12.95Q349.03 12.19 348.54 11.75L348.54 11.75L348.54 11.75Q348.05 11.31 347.21 11.31L347.21 11.31L345.31 11.31ZM345.31 6.97L345.31 10.22L347.21 10.22L347.21 10.22Q348.05 10.22 348.54 9.79L348.54 9.79L348.54 9.79Q349.03 9.35 349.03 8.60L349.03 8.60L349.03 8.51L349.03 8.51Q349.03 7.80 348.52 7.38L348.52 7.38L348.52 7.38Q348.00 6.97 347.17 6.97L347.17 6.97L345.31 6.97ZM358.99 5.88L360.16 5.88L360.16 12.38L360.16 12.38Q360.16 13.57 360.72 14.17L360.72 14.17L360.72 14.17Q361.27 14.78 362.35 14.78L362.35 14.78L362.35 14.78Q363.43 14.78 363.98 14.17L363.98 14.17L363.98 14.17Q364.53 13.57 364.53 12.38L364.53 12.38L364.53 5.88L365.71 5.88L365.71 12.38L365.71 12.38Q365.71 14.08 364.81 14.98L364.81 14.98L364.81 14.98Q363.92 15.88 362.35 15.88L362.35 15.88L362.35 15.88Q360.78 15.88 359.88 14.98L359.88 14.98L359.88 14.98Q358.99 14.08 358.99 12.38L358.99 12.38L358.99 5.88ZM380.23 9.21L380.23 8.71L380.23 8.71Q380.23 8.23 380.04 7.87L380.04 7.87L380.04 7.87Q379.85 7.50 379.53 7.27L379.53 7.27L379.53 7.27Q379.20 7.03 378.78 6.90L378.78 6.90L378.78 6.90Q378.36 6.78 377.90 6.78L377.90 6.78L377.90 6.78Q377.50 6.78 377.13 6.88L377.13 6.88L377.13 6.88Q376.77 6.99 376.48 7.18L376.48 7.18L376.48 7.18Q376.19 7.38 376.03 7.66L376.03 7.66L376.03 7.66Q375.86 7.95 375.86 8.33L375.86 8.33L375.86 8.41L375.86 8.41Q375.86 8.82 376.03 9.11L376.03 9.11L376.03 9.11Q376.19 9.39 376.52 9.60L376.52 9.60L376.52 9.60Q376.85 9.80 377.34 9.93L377.34 9.93L377.34 9.93Q377.83 10.07 378.49 10.16L378.49 10.16L378.49 10.16Q380.03 10.40 380.76 11.07L380.76 11.07L380.76 11.07Q381.49 11.73 381.49 12.85L381.49 12.85L381.49 13.02L381.49 13.02Q381.49 13.65 381.27 14.17L381.27 14.17L381.27 14.17Q381.05 14.70 380.62 15.08L380.62 15.08L380.62 15.08Q380.20 15.46 379.57 15.67L379.57 15.67L379.57 15.67Q378.94 15.88 378.11 15.88L378.11 15.88L378.11 15.88Q377.17 15.88 376.45 15.60L376.45 15.60L376.45 15.60Q375.73 15.33 375.25 14.85L375.25 14.85L375.25 14.85Q374.77 14.36 374.51 13.71L374.51 13.71L374.51 13.71Q374.26 13.06 374.26 12.29L374.26 12.29L374.26 11.87L375.44 11.87L375.44 12.21L375.44 12.21Q375.44 13.50 376.14 14.14L376.14 14.14L376.14 14.14Q376.85 14.78 378.11 14.78L378.11 14.78L378.11 14.78Q379.20 14.78 379.76 14.30L379.76 14.30L379.76 14.30Q380.31 13.82 380.31 13.02L380.31 13.02L380.31 12.94L380.31 12.94Q380.31 12.17 379.74 11.76L379.74 11.76L379.74 11.76Q379.18 11.35 377.90 11.17L377.90 11.17L377.90 11.17Q377.16 11.07 376.56 10.87L376.56 10.87L376.56 10.87Q375.97 10.67 375.55 10.34L375.55 10.34L375.55 10.34Q375.13 10.01 374.91 9.55L374.91 9.55L374.91 9.55Q374.68 9.09 374.68 8.46L374.68 8.46L374.68 8.29L374.68 8.29Q374.68 7.71 374.92 7.24L374.92 7.24L374.92 7.24Q375.16 6.76 375.58 6.41L375.58 6.41L375.58 6.41Q376.01 6.06 376.61 5.87L376.61 5.87L376.61 5.87Q377.20 5.68 377.92 5.68L377.92 5.68L377.92 5.68Q378.74 5.68 379.39 5.92L379.39 5.92L379.39 5.92Q380.04 6.16 380.49 6.56L380.49 6.56L380.49 6.56Q380.94 6.96 381.17 7.50L381.17 7.50L381.17 7.50Q381.40 8.04 381.40 8.62L381.40 8.62L381.40 9.21L380.23 9.21ZM390.38 6.97L390.38 5.88L396.59 5.88L396.59 6.97L394.07 6.97L394.07 14.59L396.59 14.59L396.59 15.68L390.38 15.68L390.38 14.59L392.90 14.59L392.90 6.97L390.38 6.97ZM408.14 5.88L410.97 15.18L411.14 15.18L411.14 5.88L412.31 5.88L412.31 15.68L409.96 15.68L407.13 6.38L406.97 6.38L406.97 15.68L405.79 15.68L405.79 5.88L408.14 5.88ZM421.65 15.68L421.65 5.88L427.59 5.88L427.59 6.97L422.83 6.97L422.83 10.22L427.50 10.22L427.50 11.31L422.83 11.31L422.83 14.59L427.67 14.59L427.67 15.68L421.65 15.68ZM442.50 9.21L442.50 8.71L442.50 8.71Q442.50 8.23 442.31 7.87L442.31 7.87L442.31 7.87Q442.12 7.50 441.80 7.27L441.80 7.27L441.80 7.27Q441.48 7.03 441.06 6.90L441.06 6.90L441.06 6.90Q440.64 6.78 440.17 6.78L440.17 6.78L440.17 6.78Q439.77 6.78 439.40 6.88L439.40 6.88L439.40 6.88Q439.04 6.99 438.75 7.18L438.75 7.18L438.75 7.18Q438.47 7.38 438.30 7.66L438.30 7.66L438.30 7.66Q438.13 7.95 438.13 8.33L438.13 8.33L438.13 8.41L438.13 8.41Q438.13 8.82 438.30 9.11L438.30 9.11L438.30 9.11Q438.47 9.39 438.79 9.60L438.79 9.60L438.79 9.60Q439.12 9.80 439.61 9.93L439.61 9.93L439.61 9.93Q440.10 10.07 440.76 10.16L440.76 10.16L440.76 10.16Q442.30 10.40 443.03 11.07L443.03 11.07L443.03 11.07Q443.76 11.73 443.76 12.85L443.76 12.85L443.76 13.02L443.76 13.02Q443.76 13.65 443.54 14.17L443.54 14.17L443.54 14.17Q443.32 14.70 442.90 15.08L442.90 15.08L442.90 15.08Q442.47 15.46 441.84 15.67L441.84 15.67L441.84 15.67Q441.21 15.88 440.38 15.88L440.38 15.88L440.38 15.88Q439.45 15.88 438.72 15.60L438.72 15.60L438.72 15.60Q438.00 15.33 437.52 14.85L437.52 14.85L437.52 14.85Q437.04 14.36 436.79 13.71L436.79 13.71L436.79 13.71Q436.53 13.06 436.53 12.29L436.53 12.29L436.53 11.87L437.71 11.87L437.71 12.21L437.71 12.21Q437.71 13.50 438.42 14.14L438.42 14.14L438.42 14.14Q439.12 14.78 440.38 14.78L440.38 14.78L440.38 14.78Q441.48 14.78 442.03 14.30L442.03 14.30L442.03 14.30Q442.58 13.82 442.58 13.02L442.58 13.02L442.58 12.94L442.58 12.94Q442.58 12.17 442.01 11.76L442.01 11.76L442.01 11.76Q441.45 11.35 440.17 11.17L440.17 11.17L440.17 11.17Q439.43 11.07 438.84 10.87L438.84 10.87L438.84 10.87Q438.24 10.67 437.82 10.34L437.82 10.34L437.82 10.34Q437.40 10.01 437.18 9.55L437.18 9.55L437.18 9.55Q436.95 9.09 436.95 8.46L436.95 8.46L436.95 8.29L436.95 8.29Q436.95 7.71 437.19 7.24L437.19 7.24L437.19 7.24Q437.43 6.76 437.86 6.41L437.86 6.41L437.86 6.41Q438.28 6.06 438.88 5.87L438.88 5.87L438.88 5.87Q439.47 5.68 440.19 5.68L440.19 5.68L440.19 5.68Q441.01 5.68 441.66 5.92L441.66 5.92L441.66 5.92Q442.32 6.16 442.76 6.56L442.76 6.56L442.76 6.56Q443.21 6.96 443.44 7.50L443.44 7.50L443.44 7.50Q443.67 8.04 443.67 8.62L443.67 8.62L443.67 9.21L442.50 9.21ZM458.07 9.21L458.07 8.71L458.07 8.71Q458.07 8.23 457.88 7.87L457.88 7.87L457.88 7.87Q457.69 7.50 457.37 7.27L457.37 7.27L457.37 7.27Q457.04 7.03 456.62 6.90L456.62 6.90L456.62 6.90Q456.20 6.78 455.74 6.78L455.74 6.78L455.74 6.78Q455.34 6.78 454.97 6.88L454.97 6.88L454.97 6.88Q454.61 6.99 454.32 7.18L454.32 7.18L454.32 7.18Q454.03 7.38 453.87 7.66L453.87 7.66L453.87 7.66Q453.70 7.95 453.70 8.33L453.70 8.33L453.70 8.41L453.70 8.41Q453.70 8.82 453.87 9.11L453.87 9.11L453.87 9.11Q454.03 9.39 454.36 9.60L454.36 9.60L454.36 9.60Q454.69 9.80 455.18 9.93L455.18 9.93L455.18 9.93Q455.67 10.07 456.33 10.16L456.33 10.16L456.33 10.16Q457.87 10.40 458.60 11.07L458.60 11.07L458.60 11.07Q459.33 11.73 459.33 12.85L459.33 12.85L459.33 13.02L459.33 13.02Q459.33 13.65 459.11 14.17L459.11 14.17L459.11 14.17Q458.89 14.70 458.46 15.08L458.46 15.08L458.46 15.08Q458.04 15.46 457.41 15.67L457.41 15.67L457.41 15.67Q456.78 15.88 455.95 15.88L455.95 15.88L455.95 15.88Q455.01 15.88 454.29 15.60L454.29 15.60L454.29 15.60Q453.57 15.33 453.09 14.85L453.09 14.85L453.09 14.85Q452.61 14.36 452.35 13.71L452.35 13.71L452.35 13.71Q452.10 13.06 452.10 12.29L452.10 12.29L452.10 11.87L453.28 11.87L453.28 12.21L453.28 12.21Q453.28 13.50 453.98 14.14L453.98 14.14L453.98 14.14Q454.69 14.78 455.95 14.78L455.95 14.78L455.95 14.78Q457.04 14.78 457.60 14.30L457.60 14.30L457.60 14.30Q458.15 13.82 458.15 13.02L458.15 13.02L458.15 12.94L458.15 12.94Q458.15 12.17 457.58 11.76L457.58 11.76L457.58 11.76Q457.02 11.35 455.74 11.17L455.74 11.17L455.74 11.17Q455.00 11.07 454.40 10.87L454.40 10.87L454.40 10.87Q453.81 10.67 453.39 10.34L453.39 10.34L453.39 10.34Q452.97 10.01 452.75 9.55L452.75 9.55L452.75 9.55Q452.52 9.09 452.52 8.46L452.52 8.46L452.52 8.29L452.52 8.29Q452.52 7.71 452.76 7.24L452.76 7.24L452.76 7.24Q453.00 6.76 453.42 6.41L453.42 6.41L453.42 6.41Q453.85 6.06 454.45 5.87L454.45 5.87L454.45 5.87Q455.04 5.68 455.76 5.68L455.76 5.68L455.76 5.68Q456.58 5.68 457.23 5.92L457.23 5.92L457.23 5.92Q457.88 6.16 458.33 6.56L458.33 6.56L458.33 6.56Q458.78 6.96 459.01 7.50L459.01 7.50L459.01 7.50Q459.24 8.04 459.24 8.62L459.24 8.62L459.24 9.21L458.07 9.21Z"></path></g></svg>