<svg data-v-fde0c5aa="" xmlns="http://www.w3.org/2000/svg" viewBox="0 0 300 300" class="font"><!----><defs data-v-fde0c5aa=""><!----></defs><rect data-v-fde0c5aa="" fill="#FA485D" x="0" y="0" width="300px" height="300px" class="logo-background-square"></rect><defs data-v-fde0c5aa=""><!----></defs><g data-v-fde0c5aa="" id="558c595b-8b96-4483-ad10-81f44ace668b" fill="#FFED83" transform="matrix(1.9239176935490887,0,0,1.9239176935490887,39.749890709012575,135.40708353299195)"><path d="M8.20 2.31C7.46 0.80 5.88 0.36 4.35 0.36C2.55 0.38 0.56 1.20 0.56 3.22C0.56 5.42 2.41 5.95 4.41 6.19C5.71 6.33 6.68 6.71 6.68 7.63C6.68 8.69 5.59 9.10 4.42 9.10C3.23 9.10 2.10 8.62 1.67 7.55L0.13 8.34C0.85 10.14 2.39 10.75 4.40 10.75C6.58 10.75 8.51 9.81 8.51 7.63C8.51 5.29 6.61 4.76 4.56 4.51C3.39 4.37 2.38 4.13 2.38 3.28C2.38 2.55 3.04 1.97 4.41 1.97C5.47 1.97 6.40 2.51 6.73 3.07ZM13.34 3.46C11.14 3.46 9.77 5.08 9.77 7.06C9.77 9.04 11.12 10.65 13.36 10.65C15.60 10.65 16.95 9.04 16.95 7.06C16.95 5.08 15.54 3.46 13.34 3.46ZM13.36 5.01C14.50 5.01 15.23 6.02 15.23 7.06C15.23 8.11 14.60 9.09 13.36 9.09C12.11 9.09 11.48 8.11 11.48 7.06C11.48 6.02 12.12 5.01 13.36 5.01ZM18.17 3.60L18.17 7.22C18.17 9.37 19.38 10.61 21.03 10.61C21.99 10.61 22.65 10.28 23.37 9.58L23.48 10.51L25.00 10.51L25.00 3.60L23.31 3.60L23.31 7.13C23.31 8.18 22.60 9.06 21.55 9.06C20.45 9.06 19.88 8.26 19.88 7.21L19.88 3.60ZM27.22 1.83L27.22 3.61L25.93 3.61L25.93 5.08L27.22 5.08L27.22 8.06C27.22 9.79 28.20 10.64 29.69 10.58C30.21 10.57 30.62 10.49 31.11 10.29L30.63 8.83C30.38 8.96 30.07 9.04 29.81 9.04C29.27 9.04 28.91 8.72 28.91 8.06L28.91 5.08L30.83 5.08L30.83 3.61L28.92 3.61L28.92 1.65ZM32.10 0.70L32.10 10.50L33.81 10.50L33.81 6.97C33.81 5.94 34.51 5.08 35.52 5.08C36.43 5.08 37.09 5.61 37.09 6.87L37.09 10.50L38.79 10.50L38.79 6.86C38.79 4.83 37.93 3.50 35.97 3.50C35.18 3.50 34.43 3.74 33.81 4.54L33.81 0.70ZM50.50 8.68L45.00 8.68L45.00 6.47L50.30 6.47L50.30 4.75L45.00 4.75L45.00 2.49L50.50 2.49L50.50 0.70L43.16 0.70C43.16 3.96 43.16 7.24 43.16 10.50L50.50 10.50ZM58.59 10.50L58.59 6.87C58.59 4.70 57.29 3.49 55.66 3.49C54.80 3.49 54.10 3.84 53.40 4.52L53.28 3.58L51.76 3.58L51.76 10.50L53.45 10.50L53.45 6.97C53.45 5.92 54.17 5.04 55.22 5.04C56.31 5.04 56.88 5.84 56.88 6.89L56.88 10.50ZM63.41 5.03C64.48 5.03 65.41 5.84 65.41 7.04C65.41 8.29 64.48 9.07 63.41 9.07C62.31 9.07 61.45 8.25 61.45 7.04C61.45 5.80 62.31 5.03 63.41 5.03ZM65.52 0.71L65.52 4.54C65.11 3.82 63.98 3.43 63.25 3.43C61.24 3.43 59.74 4.66 59.74 7.04C59.74 9.31 61.26 10.65 63.29 10.65C64.13 10.65 64.99 10.37 65.52 9.55L65.63 10.50L67.23 10.50L67.23 0.71ZM75.39 0.70C74.19 0.70 72.74 0.70 71.54 0.70L71.54 10.50C72.74 10.50 74.19 10.50 75.39 10.50C78.82 10.50 80.33 7.99 80.29 5.52C80.25 3.09 78.75 0.70 75.39 0.70ZM73.37 2.45L75.39 2.45C77.52 2.45 78.41 3.98 78.46 5.50C78.50 7.10 77.62 8.72 75.39 8.72L73.37 8.72ZM88.52 7.66C88.79 4.82 87.35 3.39 85.04 3.39C82.80 3.39 81.37 4.90 81.37 7C81.37 9.21 82.78 10.68 85.16 10.68C86.21 10.68 87.40 10.32 88.13 9.56L87.04 8.48C86.65 8.89 85.82 9.13 85.19 9.13C83.99 9.13 83.24 8.51 83.13 7.66ZM83.16 6.24C83.41 5.35 84.17 4.90 85.09 4.90C86.07 4.90 86.77 5.35 86.88 6.24ZM95.30 4.31C94.50 3.61 93.69 3.40 92.61 3.40C91.35 3.40 89.70 3.96 89.70 5.56C89.70 7.13 91.25 7.60 92.55 7.70C93.53 7.76 93.93 7.95 93.93 8.43C93.93 8.93 93.32 9.27 92.68 9.25C91.91 9.24 90.79 8.83 90.30 8.29L89.46 9.51C90.47 10.56 91.56 10.74 92.65 10.74C94.63 10.74 95.62 9.69 95.62 8.47C95.62 6.64 93.97 6.34 92.67 6.26C91.78 6.20 91.38 5.95 91.38 5.50C91.38 5.07 91.83 4.82 92.64 4.82C93.30 4.82 93.86 4.97 94.35 5.43ZM98.42 3.57L98.42 10.50L96.71 10.50L96.71 3.57ZM96.56 1.65C96.56 2.98 98.57 2.98 98.57 1.65C98.57 0.32 96.56 0.32 96.56 1.65ZM104.69 3.77C104.22 3.44 103.66 3.37 103.11 3.37C101.18 3.37 99.61 4.72 99.61 6.87C99.61 9.03 100.95 10.35 103.11 10.35C103.96 10.35 104.86 10.78 104.86 11.73C104.86 12.68 104.09 13.22 103.11 13.22C102.13 13.22 101.30 12.63 101.30 11.73L99.61 11.73C99.61 13.59 101.11 14.81 103.11 14.81C105.11 14.81 106.57 13.64 106.57 11.73C106.57 10.85 106.29 10.02 105.14 9.45C106.27 8.93 106.60 7.73 106.60 6.87C106.60 6.12 106.40 5.43 105.87 4.83L106.64 3.85L105.38 2.90ZM103.11 4.93C104.09 4.93 104.90 5.68 104.90 6.87C104.90 8.06 104.09 8.79 103.11 8.79C102.12 8.79 101.30 8.08 101.30 6.87C101.30 5.67 102.12 4.93 103.11 4.93ZM114.48 10.50L114.48 6.87C114.48 4.70 113.18 3.49 111.55 3.49C110.68 3.49 109.98 3.84 109.28 4.52L109.17 3.58L107.65 3.58L107.65 10.50L109.34 10.50L109.34 6.97C109.34 5.92 110.05 5.04 111.10 5.04C112.20 5.04 112.77 5.84 112.77 6.89L112.77 10.50Z"></path></g><!----><!----></svg>