<svg data-v-423bf9ae="" xmlns="http://www.w3.org/2000/svg" viewBox="0 0 610 90" class="iconLeftSlogan"><!----><!----><!----><g data-v-423bf9ae="" id="e7828d98-3780-43dc-b301-02d448c03ff9" fill="black" transform="matrix(4.552351943151171,0,0,4.552351943151171,81.42024447033742,-10.97116833530724)"><path d="M4.18 2.42L4.18 2.42Q5.61 2.42 6.39 2.76L6.39 2.76L6.39 2.76Q7.18 3.10 7.86 3.79L7.86 3.79L6.49 5.15L6.49 5.15Q5.81 4.33 4.58 4.33L4.58 4.33L4.58 4.33Q3.35 4.33 3.01 4.92L3.01 4.92L3.01 4.92Q2.67 5.50 3.01 5.91L3.01 5.91L3.01 5.91Q3.35 6.32 4.58 6.52L4.58 6.52L4.58 6.52Q5.88 6.66 6.94 7.38L6.94 7.38L6.94 7.38Q8.00 8.09 8.00 9.67L8.00 9.67L8.00 9.67Q8.00 10.90 6.87 11.79L6.87 11.79L6.87 11.79Q5.74 12.67 4.23 12.67L4.23 12.67L4.23 12.67Q2.80 12.67 1.85 12.26L1.85 12.26L1.85 12.26Q0.89 11.85 0.21 11.17L0.21 11.17L1.57 9.80L1.57 9.80Q2.26 10.62 3.90 10.76L3.90 10.76L3.90 10.76Q5.26 10.76 5.60 10.18L5.60 10.18L5.60 10.18Q5.94 9.60 5.60 9.02L5.60 9.02L5.60 9.02Q5.26 8.44 3.90 8.30L3.90 8.30L3.90 8.30Q2.67 8.16 1.64 7.55L1.64 7.55L1.64 7.55Q0.62 6.93 0.62 5.43L0.62 5.43L0.62 5.43Q0.62 4.07 1.78 3.24L1.78 3.24L1.78 3.24Q2.95 2.42 4.18 2.42L4.18 2.42ZM12.76 12.74L12.76 12.74Q11.27 12.74 10.27 11.74L10.27 11.74L10.27 11.74Q9.28 10.74 9.28 9.26L9.28 9.26L9.28 9.26Q9.28 7.77 10.27 6.77L10.27 6.77L10.27 6.77Q11.27 5.77 12.76 5.77L12.76 5.77L12.76 5.77Q14.25 5.77 15.25 6.77L15.25 6.77L15.25 6.77Q16.25 7.77 16.25 9.26L16.25 9.26L16.25 9.26Q16.25 10.75 15.25 11.74L15.25 11.74L15.25 11.74Q14.25 12.74 12.76 12.74L12.76 12.74ZM12.76 11.09L12.76 11.09L12.76 11.09Q13.54 11.09 14.02 10.56L14.02 10.56L14.02 10.56Q14.51 10.04 14.51 9.26L14.51 9.26L14.51 9.26Q14.51 8.48 14.02 7.96L14.02 7.96L14.02 7.96Q13.54 7.43 12.75 7.43L12.75 7.43L12.75 7.43Q11.98 7.43 11.49 7.96L11.49 7.96L11.49 7.96Q11.01 8.48 11.01 9.26L11.01 9.26L11.01 9.26Q11.01 10.04 11.49 10.56L11.49 10.56L11.49 10.56Q11.98 11.09 12.76 11.09ZM21.67 10.25L21.67 10.25L21.67 5.83L23.58 5.83L23.58 12.67L21.67 12.67L21.67 12.05L21.67 12.05Q20.98 12.67 20.03 12.67L20.03 12.67L20.03 12.67Q18.73 12.67 18.05 11.88L18.05 11.88L18.05 11.88Q17.36 11.09 17.36 10.07L17.36 10.07L17.36 5.83L19.28 5.83L19.28 9.59L19.28 9.59Q19.28 10.27 19.62 10.65L19.62 10.65L19.62 10.65Q19.96 11.03 20.65 11.05L20.65 11.05L20.65 11.05Q21.25 11.01 21.67 10.25ZM29.46 12.35L29.46 12.35Q28.96 12.67 28.33 12.67L28.33 12.67L28.33 12.67Q27.17 12.67 26.48 12.02L26.48 12.02L26.48 12.02Q25.80 11.38 25.80 10.35L25.80 10.35L25.80 7.39L24.77 7.39L24.77 5.84L25.80 5.84L25.80 3.99L27.72 3.79L27.72 5.84L28.75 5.84L28.75 7.39L27.72 7.39L27.72 10.08L27.72 10.08Q27.72 10.62 27.95 10.85L27.95 10.85L27.95 10.85Q28.18 11.07 28.54 11.07L28.54 11.07L28.54 11.07Q28.65 11.07 29.05 10.98L29.05 10.98L29.46 12.35ZM32.53 8.05L32.53 8.05L32.53 12.67L30.62 12.67L30.62 2.42L32.53 2.42L32.53 6.45L32.53 6.45Q33.22 5.84 34.17 5.84L34.17 5.84L34.17 5.84Q35.47 5.84 36.16 6.62L36.16 6.62L36.16 6.62Q36.84 7.41 36.84 8.44L36.84 8.44L36.84 12.67L34.92 12.67L34.92 8.91L34.92 8.91Q34.92 8.23 34.58 7.85L34.58 7.85L34.58 7.85Q34.24 7.48 33.55 7.46L33.55 7.46L33.55 7.46Q32.96 7.50 32.53 8.05ZM50.57 12.67L43.05 12.67L43.05 2.43L50.59 2.42L50.59 4.33L45.10 4.33L45.10 6.52L49.21 6.52L49.21 8.43L45.10 8.43L45.10 10.76L50.57 10.76L50.57 12.67ZM54.41 8.33L54.41 8.33L54.41 12.67L52.49 12.67L52.49 6.04L54.41 5.83L54.41 6.45L54.41 6.45Q55.10 5.84 56.05 5.84L56.05 5.84L56.05 5.84Q57.35 5.84 58.03 6.62L58.03 6.62L58.03 6.62Q58.71 7.41 58.71 8.44L58.71 8.44L58.71 12.67L56.80 12.67L56.80 8.91L56.80 8.91Q56.80 8.23 56.46 7.85L56.46 7.85L56.46 7.85Q56.12 7.48 55.43 7.46L55.43 7.46L55.43 7.46Q54.83 7.50 54.41 8.33ZM64.89 2.42L66.81 2.43L66.81 12.67L64.89 12.67L64.89 12.13L64.89 12.13Q64.13 12.67 63.39 12.67L63.39 12.67L63.39 12.67Q61.82 12.67 60.89 11.65L60.89 11.65L60.89 11.65Q59.97 10.62 59.97 9.26L59.97 9.26L59.97 9.26Q59.97 7.89 60.89 6.86L60.89 6.86L60.89 6.86Q61.82 5.84 63.39 5.84L63.39 5.84L63.39 5.84Q64.42 5.91 64.89 6.39L64.89 6.39L64.89 2.42ZM64.89 9.87L64.89 9.87L64.89 8.76L64.89 8.76Q64.76 7.62 63.46 7.42L63.46 7.42L63.46 7.42Q61.82 7.55 61.61 9.12L61.61 9.12L61.61 9.12Q61.68 11.03 63.46 11.10L63.46 11.10L63.46 11.10Q64.76 10.90 64.89 9.87ZM77.38 10.63L75.48 10.63L75.48 4.47L77.38 4.47L77.38 4.47Q80.11 4.47 80.12 7.55L80.12 7.55L80.12 7.55Q80.11 10.62 77.38 10.63L77.38 10.63ZM73.43 12.67L77.38 12.67L77.38 12.67Q82.17 12.67 82.17 7.55L82.17 7.55L82.17 7.55Q82.17 2.41 77.38 2.41L77.38 2.41L73.43 2.41L73.43 12.67ZM83.85 9.26L83.85 9.26L83.85 9.26Q83.85 7.75 84.81 6.79L84.81 6.79L84.81 6.79Q85.76 5.84 87.27 5.84L87.27 5.84L87.27 5.84Q88.77 5.84 89.66 6.79L89.66 6.79L89.66 6.79Q90.55 7.75 90.55 9.26L90.55 9.26L90.55 9.94L85.83 9.94L85.83 9.94Q85.90 10.49 86.31 10.79L86.31 10.79L86.31 10.79Q86.72 11.10 87.27 11.10L87.27 11.10L87.27 11.10Q88.22 11.10 88.98 10.55L88.98 10.55L90.07 11.65L90.07 11.65Q89.32 12.67 87.27 12.67L87.27 12.67L87.27 12.67Q85.76 12.67 84.81 11.72L84.81 11.72L84.81 11.72Q83.85 10.76 83.85 9.26ZM88.63 8.57L88.63 8.57Q88.63 8.03 88.22 7.72L88.22 7.72L88.22 7.72Q87.81 7.41 87.27 7.41L87.27 7.41L87.27 7.41Q86.72 7.41 86.31 7.72L86.31 7.72L86.31 7.72Q85.90 8.03 85.90 8.57L85.90 8.57L88.63 8.57ZM94.42 5.80L94.42 5.80Q95.38 5.80 95.92 6.03L95.92 6.03L95.92 6.03Q96.45 6.26 96.91 6.72L96.91 6.72L95.85 7.92L95.85 7.92Q95.38 7.37 94.68 7.37L94.68 7.37L94.68 7.37Q93.99 7.37 93.76 7.63L93.76 7.63L93.76 7.63Q93.53 7.88 93.76 8.09L93.76 8.09L93.76 8.09Q93.99 8.30 94.68 8.44L94.68 8.44L94.68 8.44Q95.70 8.53 96.35 9.02L96.35 9.02L96.35 9.02Q97.00 9.50 97.00 10.71L97.00 10.71L97.00 10.71Q97.00 11.68 96.24 12.21L96.24 12.21L96.24 12.21Q95.47 12.74 94.45 12.74L94.45 12.74L94.45 12.74Q93.48 12.74 92.84 12.47L92.84 12.47L92.84 12.47Q92.19 12.19 91.72 11.72L91.72 11.72L92.78 10.53L92.78 10.53Q93.25 11.08 94.23 11.17L94.23 11.17L94.23 11.17Q95.01 11.17 95.24 10.91L95.24 10.91L95.24 10.91Q95.47 10.66 95.31 10.40L95.31 10.40L95.31 10.40Q95.15 10.14 94.23 10.06L94.23 10.06L94.23 10.06Q93.39 9.96 92.70 9.54L92.70 9.54L92.70 9.54Q92.00 9.13 92.00 7.97L92.00 7.97L92.00 7.97Q92.00 6.91 92.79 6.35L92.79 6.35L92.79 6.35Q93.58 5.80 94.42 5.80L94.42 5.80ZM100.31 12.67L98.40 12.67L98.40 5.83L100.31 5.83L100.31 12.67ZM98.33 4.20L98.33 4.20L98.33 4.20Q98.33 4.61 98.60 4.88L98.60 4.88L98.60 4.88Q98.88 5.15 99.35 5.15L99.35 5.15L99.35 5.15Q99.83 5.15 100.11 4.88L100.11 4.88L100.11 4.88Q100.38 4.61 100.38 4.20L100.38 4.20L100.38 4.20Q100.38 3.79 100.11 3.51L100.11 3.51L100.11 3.51Q99.83 3.23 99.34 3.23L99.34 3.23L99.34 3.23Q98.88 3.23 98.60 3.51L98.60 3.51L98.60 3.51Q98.33 3.79 98.33 4.20ZM106.52 5.84L108.43 6.04L108.43 12.13L108.43 12.13Q108.43 13.56 107.58 14.53L107.58 14.53L107.58 14.53Q106.72 15.49 105.42 15.54L105.42 15.54L105.01 15.59L105.01 15.59Q103.03 15.54 101.94 14.45L101.94 14.45L102.83 13.43L102.83 13.43Q103.58 13.97 104.65 14.04L104.65 14.04L104.65 14.04Q105.75 14.04 106.13 13.53L106.13 13.53L106.13 13.53Q106.52 13.02 106.52 12.40L106.52 12.40L106.52 12.06L106.52 12.06Q105.75 12.67 104.74 12.67L104.74 12.67L104.74 12.67Q103.17 12.67 102.38 11.75L102.38 11.75L102.38 11.75Q101.60 10.83 101.60 9.26L101.60 9.26L101.60 9.26Q101.60 7.75 102.45 6.79L102.45 6.79L102.45 6.79Q103.30 5.84 104.88 5.84L104.88 5.84L104.88 5.84Q106.04 5.91 106.52 6.46L106.52 6.46L106.52 5.84ZM106.52 9.87L106.52 9.87L106.52 8.76L106.52 8.76Q106.38 7.62 105.08 7.42L105.08 7.42L105.08 7.42Q103.37 7.48 103.24 9.12L103.24 9.12L103.24 9.12Q103.30 11.03 105.08 11.10L105.08 11.10L105.08 11.10Q106.38 10.90 106.52 9.87ZM111.71 8.33L111.71 8.33L111.71 12.67L109.80 12.67L109.80 6.04L111.71 5.83L111.71 6.45L111.71 6.45Q112.40 5.84 113.35 5.84L113.35 5.84L113.35 5.84Q114.65 5.84 115.34 6.62L115.34 6.62L115.34 6.62Q116.02 7.41 116.02 8.44L116.02 8.44L116.02 12.67L114.11 12.67L114.11 8.91L114.11 8.91Q114.11 8.23 113.76 7.85L113.76 7.85L113.76 7.85Q113.42 7.48 112.73 7.46L112.73 7.46L112.73 7.46Q112.14 7.50 111.71 8.33Z"></path></g><!----><g data-v-423bf9ae="" id="50c59f48-75c0-4f3c-aa0d-d78719e01988" transform="matrix(4.455445376275492,0,0,4.455445376275492,-21.4653445153059,-7.565343813269372)" stroke="none" fill="black"><path d="M9.305 19l.2-2h4.99l.2 2h-5.39zm.6-6h4.19l.2 2h-4.59l.2-2zm.4-4h3.39l.2 2h-3.79l.2-2zm.4-4h2.59l.2 2h-2.99l.2-2zM19 19h-2.295l-.2-2H18.5v-2h-2.195l-.2-2H18v-2h-2.095l-.2-2H17.5V7h-1.995l-.2-2H17V3h-1.895l-.11-1.1-1.99.2.09.9h-2.19l.09-.9-1.99-.2-.11 1.1H7v2h1.695l-.2 2H6.5v2h1.795l-.2 2H6v2h1.895l-.2 2H5.5v2h1.995l-.2 2H5v2h2.095l-.09.9 1.99.2.11-1.1h5.79l.11 1.1 1.99-.2-.09-.9H19v-2z"></path></g><!----><g data-v-423bf9ae="" id="5837e785-50d6-4f1f-8ea2-f584ba9c2dfa" fill="black" transform="matrix(0.8059434709656361,0,0,0.8059434709656361,82.10221434702396,56.945476127060054)"><path d="M14.50 3.92L13.96 3.92L13.92 3.92L12.45 3.92L12.45 4.19C12.45 4.34 12.53 4.42 12.71 4.44L12.84 4.44C12.89 4.44 12.99 4.45 13.13 4.45C13.27 4.45 13.41 4.47 13.58 4.47L11.20 12.24C11.17 12.33 11.14 12.43 11.13 12.54C11.12 12.66 11.09 12.75 11.06 12.87C11.03 12.75 11.02 12.63 10.99 12.53L10.91 12.24L8.11 4.10C8.08 4.05 8.05 3.99 8.01 3.96C7.97 3.93 7.91 3.92 7.84 3.92L7.64 3.92C7.57 3.92 7.52 3.93 7.48 3.98C7.43 4.02 7.39 4.05 7.38 4.10L4.58 12.25C4.55 12.35 4.52 12.43 4.49 12.54C4.47 12.64 4.45 12.75 4.42 12.88C4.41 12.78 4.38 12.67 4.35 12.54C4.34 12.43 4.31 12.33 4.28 12.24L1.90 4.47C2.07 4.47 2.21 4.45 2.34 4.45C2.46 4.45 2.55 4.44 2.60 4.44L2.72 4.44C2.90 4.42 3.00 4.34 3.00 4.19L3.00 3.92L1.53 3.92L0.94 3.92L0.34 3.92L0.34 4.19C0.34 4.34 0.43 4.42 0.62 4.44L0.71 4.44C0.76 4.44 0.80 4.45 0.87 4.45C0.94 4.45 1.02 4.47 1.11 4.47L4.06 13.82L4.69 13.82L7.63 5.22C7.67 5.11 7.70 5.00 7.73 4.87C7.76 5.00 7.78 5.11 7.83 5.22L10.75 13.82L11.40 13.82L14.34 4.47C14.42 4.47 14.49 4.45 14.56 4.45C14.63 4.45 14.69 4.44 14.73 4.44L14.83 4.44C15.01 4.42 15.09 4.34 15.09 4.19L15.09 3.92ZM24.33 3.92L23.14 3.92L23.14 4.19C23.14 4.34 23.24 4.42 23.42 4.44L23.56 4.44C23.63 4.44 23.73 4.45 23.87 4.45C24.01 4.45 24.16 4.47 24.33 4.47L24.33 13.26C24.16 13.26 24.01 13.27 23.87 13.27C23.73 13.27 23.63 13.29 23.56 13.29L23.42 13.29C23.24 13.30 23.16 13.38 23.16 13.54L23.16 13.82L24.33 13.82L30.27 13.82L30.27 13.22L30.27 11.76L29.92 11.76C29.72 11.76 29.64 11.89 29.62 12.11C29.62 12.14 29.61 12.19 29.61 12.29C29.61 12.39 29.61 12.53 29.60 12.74C29.58 12.95 29.57 13.09 29.57 13.22L25.05 13.22L25.05 9.09L28.99 9.09L28.99 8.51L25.05 8.51L25.05 4.51L29.57 4.51C29.60 5.12 29.62 5.50 29.62 5.63C29.64 5.85 29.72 5.96 29.92 5.96L30.27 5.96L30.27 4.51L30.27 3.92ZM45.96 9.52C45.54 9.11 44.94 8.86 44.16 8.75C44.48 8.67 44.76 8.55 45.01 8.40C45.26 8.25 45.49 8.08 45.65 7.87C45.82 7.66 45.96 7.43 46.05 7.20C46.13 6.96 46.19 6.71 46.19 6.44C46.19 6.05 46.10 5.68 45.98 5.38C45.85 5.07 45.64 4.80 45.37 4.58C45.11 4.37 44.77 4.20 44.35 4.09C43.93 3.98 43.44 3.92 42.88 3.92L40.04 3.92L38.85 3.92L38.85 4.19C38.85 4.34 38.95 4.42 39.13 4.44L39.27 4.44C39.34 4.44 39.44 4.45 39.58 4.45C39.72 4.45 39.87 4.47 40.04 4.47L40.04 13.26C39.87 13.26 39.72 13.27 39.58 13.27C39.44 13.27 39.34 13.29 39.27 13.29L39.13 13.29C38.95 13.30 38.86 13.38 38.86 13.54L38.86 13.82L40.04 13.82L43.25 13.82C43.78 13.82 44.24 13.76 44.66 13.64C45.08 13.51 45.43 13.34 45.71 13.10C45.99 12.87 46.21 12.59 46.37 12.25C46.52 11.91 46.59 11.54 46.59 11.12C46.59 10.46 46.38 9.93 45.96 9.52ZM40.75 4.48L42.88 4.48C43.76 4.48 44.42 4.66 44.84 5.00C45.26 5.35 45.47 5.84 45.47 6.51C45.47 6.76 45.43 7.03 45.33 7.27C45.23 7.50 45.08 7.71 44.87 7.91C44.66 8.11 44.39 8.26 44.07 8.37C43.75 8.48 43.36 8.55 42.90 8.55L40.75 8.55ZM45.21 12.68C44.76 13.06 44.10 13.24 43.23 13.24L40.75 13.24L40.75 9.07L43.25 9.07C43.67 9.07 44.03 9.11 44.35 9.21C44.67 9.31 44.95 9.45 45.18 9.62C45.40 9.80 45.57 10.00 45.70 10.25C45.81 10.50 45.88 10.79 45.88 11.10C45.88 11.79 45.65 12.31 45.21 12.68ZM74.16 6.80C73.93 6.19 73.61 5.68 73.19 5.25C72.77 4.82 72.28 4.48 71.71 4.26C71.13 4.03 70.48 3.92 69.78 3.92L66.35 3.92L65.16 3.92L65.16 4.19C65.16 4.34 65.25 4.42 65.44 4.44L65.58 4.44C65.65 4.44 65.74 4.45 65.88 4.45C66.02 4.45 66.18 4.47 66.35 4.47L66.35 13.26C66.18 13.26 66.02 13.27 65.88 13.27C65.74 13.27 65.65 13.29 65.58 13.29L65.44 13.29C65.25 13.30 65.16 13.38 65.16 13.54L65.16 13.82L66.35 13.82L69.78 13.82C70.48 13.82 71.13 13.71 71.71 13.48C72.28 13.26 72.77 12.92 73.19 12.49C73.61 12.05 73.93 11.54 74.16 10.92C74.38 10.30 74.51 9.63 74.51 8.86C74.51 8.11 74.38 7.42 74.16 6.80ZM73.47 10.72C73.28 11.27 73.02 11.72 72.67 12.10C72.32 12.47 71.90 12.75 71.41 12.95C70.92 13.15 70.38 13.24 69.78 13.24L67.06 13.24L67.06 4.49L69.78 4.49C70.38 4.49 70.92 4.59 71.41 4.79C71.90 4.98 72.32 5.26 72.67 5.64C73.02 6.02 73.28 6.47 73.47 7.01C73.67 7.56 73.77 8.18 73.77 8.86C73.77 9.56 73.67 10.18 73.47 10.72ZM83.99 3.92L82.80 3.92L82.80 4.19C82.80 4.34 82.89 4.42 83.08 4.44L83.22 4.44C83.29 4.44 83.38 4.45 83.52 4.45C83.66 4.45 83.82 4.47 83.99 4.47L83.99 13.26C83.82 13.26 83.66 13.27 83.52 13.27C83.38 13.27 83.29 13.29 83.22 13.29L83.08 13.29C82.89 13.30 82.81 13.38 82.81 13.54L82.81 13.82L83.99 13.82L89.92 13.82L89.92 13.22L89.92 11.76L89.57 11.76C89.38 11.76 89.29 11.89 89.28 12.11C89.28 12.14 89.26 12.19 89.26 12.29C89.26 12.39 89.26 12.53 89.25 12.74C89.24 12.95 89.22 13.09 89.22 13.22L84.70 13.22L84.70 9.09L88.65 9.09L88.65 8.51L84.70 8.51L84.70 4.51L89.22 4.51C89.25 5.12 89.28 5.50 89.28 5.63C89.29 5.85 89.38 5.96 89.57 5.96L89.92 5.96L89.92 4.51L89.92 3.92ZM107.41 3.92L106.85 3.92L106.82 3.92L105.35 3.92L105.35 4.19C105.35 4.34 105.43 4.42 105.62 4.44L105.74 4.44C105.80 4.44 105.88 4.45 106.01 4.45C106.13 4.45 106.27 4.47 106.43 4.47L103.22 12.32C103.14 12.53 103.07 12.75 103.01 13.01C102.96 12.77 102.89 12.53 102.80 12.32L99.57 4.47C99.72 4.47 99.88 4.45 100.00 4.45C100.13 4.45 100.21 4.44 100.27 4.44L100.38 4.44C100.56 4.42 100.66 4.34 100.66 4.19L100.66 3.92L99.16 3.92L98.60 3.92L98 3.92L98 4.19C98 4.34 98.10 4.42 98.28 4.44L98.38 4.44C98.42 4.44 98.49 4.45 98.56 4.45C98.63 4.45 98.73 4.47 98.83 4.47L102.69 13.82L103.32 13.82L107.18 4.47C107.28 4.47 107.38 4.45 107.45 4.45C107.52 4.45 107.59 4.44 107.63 4.44L107.72 4.44C107.90 4.42 108.00 4.34 108.00 4.19L108.00 3.92ZM117.24 3.92L116.05 3.92L116.05 4.19C116.05 4.34 116.14 4.42 116.33 4.44L116.47 4.44C116.54 4.44 116.63 4.45 116.77 4.45C116.91 4.45 117.07 4.47 117.24 4.47L117.24 13.26C117.07 13.26 116.91 13.27 116.77 13.27C116.63 13.27 116.54 13.29 116.47 13.29L116.33 13.29C116.14 13.30 116.06 13.38 116.06 13.54L116.06 13.82L117.24 13.82L123.17 13.82L123.17 13.22L123.17 11.76L122.82 11.76C122.63 11.76 122.54 11.89 122.53 12.11C122.53 12.14 122.51 12.19 122.51 12.29C122.51 12.39 122.51 12.53 122.50 12.74C122.49 12.95 122.47 13.09 122.47 13.22L117.95 13.22L117.95 9.09L121.90 9.09L121.90 8.51L117.95 8.51L117.95 4.51L122.47 4.51C122.50 5.12 122.53 5.50 122.53 5.63C122.54 5.85 122.63 5.96 122.82 5.96L123.17 5.96L123.17 4.51L123.17 3.92ZM138.12 11.97C137.93 11.97 137.84 12.08 137.83 12.31C137.83 12.32 137.83 12.38 137.82 12.43C137.80 12.49 137.80 12.59 137.79 12.71C137.77 12.84 137.76 13.01 137.75 13.20L133.66 13.20L133.66 4.47C133.83 4.47 133.97 4.45 134.11 4.45C134.25 4.45 134.36 4.44 134.43 4.44L134.55 4.44C134.74 4.42 134.83 4.34 134.83 4.19L134.83 3.92L133.66 3.92L132.94 3.92L131.75 3.92L131.75 4.19C131.75 4.34 131.85 4.42 132.03 4.44L132.17 4.44C132.24 4.44 132.34 4.45 132.48 4.45C132.62 4.45 132.78 4.47 132.94 4.47L132.94 13.26C132.78 13.26 132.62 13.27 132.48 13.27C132.34 13.27 132.24 13.29 132.17 13.29L132.03 13.29C131.85 13.30 131.75 13.38 131.75 13.54L131.75 13.82L132.94 13.82L138.22 13.82L138.35 13.82L138.47 13.82L138.47 13.55L138.47 12.99L138.47 11.97L138.19 11.97ZM155.61 8.86C155.61 8.11 155.48 7.41 155.26 6.79C155.04 6.17 154.71 5.64 154.29 5.19C153.87 4.75 153.38 4.40 152.81 4.16C152.24 3.92 151.58 3.79 150.88 3.79C150.18 3.79 149.55 3.92 148.97 4.16C148.40 4.40 147.90 4.75 147.48 5.19C147.06 5.64 146.73 6.17 146.51 6.79C146.29 7.41 146.16 8.11 146.16 8.86C146.16 9.63 146.29 10.33 146.51 10.95C146.73 11.56 147.06 12.10 147.48 12.54C147.90 12.99 148.40 13.33 148.97 13.57C149.55 13.80 150.18 13.93 150.88 13.93C151.58 13.93 152.24 13.80 152.81 13.57C153.38 13.33 153.87 12.99 154.29 12.54C154.71 12.10 155.04 11.56 155.26 10.95C155.48 10.33 155.61 9.63 155.61 8.86ZM154.85 8.86C154.85 9.56 154.77 10.18 154.57 10.72C154.38 11.27 154.11 11.75 153.76 12.12C153.41 12.50 152.99 12.81 152.50 13.01C152.01 13.20 151.48 13.30 150.88 13.30C150.29 13.30 149.76 13.20 149.27 13.01C148.78 12.81 148.36 12.50 148.01 12.12C147.66 11.75 147.38 11.27 147.18 10.72C146.99 10.18 146.90 9.56 146.90 8.86C146.90 8.18 146.99 7.55 147.18 7.00C147.38 6.45 147.66 5.98 148.01 5.60C148.36 5.22 148.78 4.91 149.27 4.72C149.76 4.52 150.29 4.41 150.88 4.41C151.48 4.41 152.01 4.52 152.50 4.72C152.99 4.91 153.41 5.22 153.76 5.60C154.11 5.98 154.38 6.45 154.57 7.00C154.77 7.55 154.85 8.18 154.85 8.86ZM170.11 4.68C169.53 4.17 168.64 3.92 167.48 3.92L165.07 3.92L163.88 3.92L163.88 4.19C163.88 4.34 163.98 4.42 164.16 4.44L164.30 4.44C164.37 4.44 164.47 4.45 164.61 4.45C164.75 4.45 164.91 4.47 165.07 4.47L165.07 13.26C164.91 13.26 164.75 13.27 164.61 13.27C164.47 13.27 164.37 13.29 164.30 13.29L164.16 13.29C163.98 13.30 163.88 13.38 163.88 13.54L163.88 13.82L165.07 13.82L165.79 13.82L166.96 13.82L166.96 13.54C166.96 13.38 166.87 13.30 166.68 13.29L166.56 13.29C166.49 13.29 166.38 13.27 166.24 13.27C166.10 13.27 165.96 13.26 165.79 13.26L165.79 9.83L167.48 9.83C168.03 9.83 168.52 9.74 168.95 9.60C169.39 9.45 169.75 9.25 170.06 8.99C170.37 8.72 170.60 8.41 170.76 8.05C170.93 7.69 171.00 7.29 171.00 6.86C171.00 5.92 170.70 5.18 170.11 4.68ZM170.09 7.81C169.96 8.11 169.78 8.36 169.54 8.57C169.30 8.78 169.01 8.95 168.66 9.07C168.31 9.20 167.92 9.25 167.48 9.25L165.79 9.25L165.79 4.48L167.48 4.48C168.41 4.48 169.11 4.69 169.58 5.10C170.04 5.50 170.28 6.09 170.28 6.85C170.28 7.20 170.21 7.52 170.09 7.81ZM191.06 4.44C191.24 4.42 191.34 4.34 191.34 4.19L191.34 3.92L190.16 3.92L189.66 3.92C189.59 3.92 189.55 3.92 189.50 3.93C189.46 3.95 189.43 3.99 189.39 4.05L185.50 10.92C185.46 10.99 185.43 11.06 185.40 11.13C185.37 11.20 185.35 11.28 185.32 11.35C185.26 11.20 185.21 11.06 185.14 10.93L181.13 4.05C181.09 3.99 181.06 3.95 181.02 3.93C180.98 3.92 180.94 3.92 180.87 3.92L180.38 3.92L179.19 3.92L179.19 4.19C179.19 4.34 179.28 4.42 179.47 4.44L179.61 4.44C179.68 4.44 179.77 4.45 179.91 4.45C180.05 4.45 180.21 4.47 180.38 4.47L180.38 13.26C180.21 13.26 180.05 13.27 179.91 13.27C179.77 13.27 179.68 13.29 179.61 13.29L179.47 13.29C179.28 13.30 179.19 13.38 179.19 13.54L179.19 13.82L180.38 13.82L180.99 13.82L182.21 13.82L182.21 13.54C182.21 13.38 182.11 13.30 181.93 13.29L181.79 13.29C181.72 13.29 181.61 13.27 181.47 13.27C181.33 13.27 181.16 13.26 180.99 13.26L180.99 5.38C180.99 5.25 180.99 5.12 180.98 4.98L184.98 11.91C185.05 12.04 185.15 12.10 185.26 12.10L185.37 12.10C185.50 12.10 185.58 12.04 185.65 11.91L189.55 4.98C189.53 5.12 189.53 5.25 189.53 5.38L189.53 13.26C189.36 13.26 189.20 13.27 189.06 13.27C188.92 13.27 188.80 13.29 188.73 13.29L188.59 13.29C188.41 13.30 188.31 13.38 188.31 13.54L188.31 13.82L189.53 13.82L190.16 13.82L191.34 13.82L191.34 13.54C191.34 13.38 191.24 13.30 191.06 13.29L190.93 13.29C190.86 13.29 190.75 13.27 190.61 13.27C190.47 13.27 190.33 13.26 190.16 13.26L190.16 4.47C190.33 4.47 190.47 4.45 190.61 4.45C190.75 4.45 190.86 4.44 190.93 4.44ZM200.87 3.92L199.68 3.92L199.68 4.19C199.68 4.34 199.78 4.42 199.96 4.44L200.10 4.44C200.17 4.44 200.27 4.45 200.41 4.45C200.55 4.45 200.70 4.47 200.87 4.47L200.87 13.26C200.70 13.26 200.55 13.27 200.41 13.27C200.27 13.27 200.17 13.29 200.10 13.29L199.96 13.29C199.78 13.30 199.70 13.38 199.70 13.54L199.70 13.82L200.87 13.82L206.81 13.82L206.81 13.22L206.81 11.76L206.46 11.76C206.26 11.76 206.18 11.89 206.16 12.11C206.16 12.14 206.15 12.19 206.15 12.29C206.15 12.39 206.15 12.53 206.14 12.74C206.12 12.95 206.11 13.09 206.11 13.22L201.59 13.22L201.59 9.09L205.53 9.09L205.53 8.51L201.59 8.51L201.59 4.51L206.11 4.51C206.14 5.12 206.16 5.50 206.16 5.63C206.18 5.85 206.26 5.96 206.46 5.96L206.81 5.96L206.81 4.51L206.81 3.92ZM224.22 3.92L223.59 3.92L222.38 3.92L222.38 4.19C222.38 4.34 222.47 4.42 222.66 4.44L222.80 4.44C222.87 4.44 222.98 4.45 223.12 4.45C223.26 4.45 223.43 4.47 223.59 4.47L223.59 12.22C223.59 12.35 223.59 12.49 223.61 12.63L217.20 4.05C217.15 3.99 217.13 3.95 217.08 3.93C217.04 3.92 217 3.91 216.93 3.91L216.58 3.91L215.39 3.91L215.39 4.19C215.39 4.34 215.49 4.42 215.67 4.44L215.81 4.44C215.88 4.44 215.98 4.45 216.12 4.45C216.26 4.45 216.41 4.47 216.58 4.47L216.58 13.26C216.41 13.26 216.26 13.27 216.12 13.27C215.98 13.27 215.88 13.29 215.81 13.29L215.67 13.29C215.49 13.30 215.39 13.38 215.39 13.54L215.39 13.82L216.58 13.82L217.20 13.82L218.41 13.82L218.41 13.54C218.41 13.38 218.32 13.30 218.13 13.29L217.99 13.29C217.92 13.29 217.80 13.27 217.66 13.27C217.52 13.27 217.36 13.26 217.20 13.26L217.20 5.49C217.20 5.36 217.20 5.22 217.18 5.08L223.62 13.68C223.69 13.78 223.76 13.82 223.87 13.82L224.22 13.82L224.22 4.47C224.39 4.47 224.53 4.45 224.67 4.45C224.81 4.45 224.92 4.44 224.99 4.44L225.12 4.44C225.30 4.42 225.40 4.34 225.40 4.19L225.40 3.92ZM240.95 3.92L240.76 3.92L233.46 3.92L233.25 3.92L233.16 3.92L233.16 5.96L233.51 5.96C233.70 5.96 233.79 5.85 233.80 5.63C233.80 5.53 233.83 5.17 233.86 4.52L236.75 4.52L236.75 13.26C236.59 13.26 236.45 13.27 236.31 13.27C236.17 13.27 236.05 13.29 235.98 13.29L235.86 13.29C235.68 13.30 235.58 13.38 235.58 13.54L235.58 13.82L236.75 13.82L237.47 13.82L238.66 13.82L238.66 13.54C238.66 13.38 238.56 13.30 238.38 13.29L238.24 13.29C238.17 13.29 238.07 13.27 237.93 13.27C237.79 13.27 237.64 13.26 237.47 13.26L237.47 4.52L240.35 4.52C240.39 5.24 240.41 5.60 240.41 5.63C240.42 5.85 240.52 5.96 240.72 5.96L241.05 5.96L241.05 3.92ZM266.66 3.92L266.31 3.92L260.72 3.92L259.53 3.92L259.53 4.19C259.53 4.34 259.63 4.42 259.81 4.44L259.95 4.44C260.02 4.44 260.12 4.45 260.26 4.45C260.40 4.45 260.55 4.47 260.72 4.47L260.72 13.26C260.55 13.26 260.40 13.27 260.26 13.27C260.12 13.27 260.02 13.29 259.95 13.29L259.81 13.29C259.63 13.30 259.53 13.38 259.53 13.54L259.53 13.82L260.72 13.82L261.44 13.82L262.61 13.82L262.61 13.54C262.61 13.38 262.53 13.30 262.35 13.29L262.21 13.29C262.14 13.29 262.04 13.27 261.90 13.27C261.76 13.27 261.60 13.26 261.44 13.26L261.44 9.27L265.13 9.27L265.13 8.67L261.44 8.67L261.44 4.51L266.04 4.51C266.07 5.18 266.10 5.56 266.10 5.63C266.11 5.85 266.21 5.96 266.41 5.96L266.74 5.96L266.74 3.92ZM284.13 8.86C284.13 8.11 284.00 7.41 283.78 6.79C283.56 6.17 283.23 5.64 282.81 5.19C282.39 4.75 281.90 4.40 281.33 4.16C280.76 3.92 280.10 3.79 279.40 3.79C278.70 3.79 278.07 3.92 277.49 4.16C276.92 4.40 276.42 4.75 276.00 5.19C275.58 5.64 275.25 6.17 275.03 6.79C274.81 7.41 274.68 8.11 274.68 8.86C274.68 9.63 274.81 10.33 275.03 10.95C275.25 11.56 275.58 12.10 276.00 12.54C276.42 12.99 276.92 13.33 277.49 13.57C278.07 13.80 278.70 13.93 279.40 13.93C280.10 13.93 280.76 13.80 281.33 13.57C281.90 13.33 282.39 12.99 282.81 12.54C283.23 12.10 283.56 11.56 283.78 10.95C284.00 10.33 284.13 9.63 284.13 8.86ZM283.37 8.86C283.37 9.56 283.29 10.18 283.09 10.72C282.90 11.27 282.63 11.75 282.28 12.12C281.93 12.50 281.51 12.81 281.02 13.01C280.53 13.20 280 13.30 279.40 13.30C278.81 13.30 278.28 13.20 277.79 13.01C277.30 12.81 276.88 12.50 276.53 12.12C276.18 11.75 275.90 11.27 275.70 10.72C275.51 10.18 275.42 9.56 275.42 8.86C275.42 8.18 275.51 7.55 275.70 7.00C275.90 6.45 276.18 5.98 276.53 5.60C276.88 5.22 277.30 4.91 277.79 4.72C278.28 4.52 278.81 4.41 279.40 4.41C280 4.41 280.53 4.52 281.02 4.72C281.51 4.91 281.93 5.22 282.28 5.60C282.63 5.98 282.90 6.45 283.09 7.00C283.29 7.55 283.37 8.18 283.37 8.86ZM300.40 13.29L300.30 13.29L300.12 13.29C300.03 13.29 299.95 13.27 299.87 13.27L296.90 9.53C296.81 9.42 296.70 9.32 296.59 9.25C297.02 9.21 297.42 9.11 297.77 8.96C298.12 8.81 298.40 8.61 298.65 8.37C298.89 8.13 299.08 7.85 299.21 7.55C299.33 7.24 299.40 6.89 299.40 6.51C299.40 5.66 299.12 5.03 298.56 4.58C298.00 4.14 297.15 3.92 296.00 3.92L293.59 3.92L292.42 3.92L292.42 4.19C292.42 4.34 292.50 4.42 292.68 4.44L292.82 4.44C292.89 4.44 292.99 4.45 293.13 4.45C293.27 4.45 293.43 4.47 293.59 4.47L293.59 13.26C293.43 13.26 293.27 13.27 293.13 13.27C292.99 13.27 292.89 13.29 292.82 13.29L292.68 13.29C292.50 13.30 292.40 13.38 292.40 13.54L292.40 13.82L293.59 13.82L294.31 13.82L295.48 13.82L295.48 13.54C295.48 13.38 295.39 13.30 295.20 13.29L295.06 13.29C294.99 13.29 294.90 13.27 294.76 13.27C294.62 13.27 294.48 13.26 294.31 13.26L294.31 9.34L295.48 9.34C295.68 9.34 295.82 9.35 295.90 9.39C295.99 9.44 296.07 9.52 296.16 9.62L299.33 13.64C299.39 13.71 299.43 13.75 299.49 13.78C299.54 13.80 299.61 13.82 299.68 13.82L299.75 13.82L300.30 13.82L300.66 13.82L300.66 13.54C300.66 13.38 300.58 13.30 300.40 13.29ZM295.90 8.81L294.31 8.81L294.31 4.48L296.00 4.48C296.88 4.48 297.56 4.66 298.02 5.00C298.48 5.33 298.70 5.87 298.70 6.57C298.70 6.92 298.65 7.21 298.52 7.49C298.40 7.77 298.20 7.99 297.96 8.19C297.72 8.39 297.43 8.55 297.08 8.65C296.73 8.75 296.34 8.81 295.90 8.81ZM325.61 11.97C325.42 11.97 325.33 12.08 325.32 12.31C325.32 12.32 325.32 12.38 325.30 12.43C325.29 12.49 325.29 12.59 325.28 12.71C325.26 12.84 325.25 13.01 325.23 13.20L321.15 13.20L321.15 4.47C321.31 4.47 321.45 4.45 321.59 4.45C321.73 4.45 321.85 4.44 321.92 4.44L322.04 4.44C322.22 4.42 322.32 4.34 322.32 4.19L322.32 3.92L321.15 3.92L320.43 3.92L319.24 3.92L319.24 4.19C319.24 4.34 319.34 4.42 319.52 4.44L319.66 4.44C319.73 4.44 319.83 4.45 319.97 4.45C320.11 4.45 320.26 4.47 320.43 4.47L320.43 13.26C320.26 13.26 320.11 13.27 319.97 13.27C319.83 13.27 319.73 13.29 319.66 13.29L319.52 13.29C319.34 13.30 319.24 13.38 319.24 13.54L319.24 13.82L320.43 13.82L325.71 13.82L325.84 13.82L325.96 13.82L325.96 13.55L325.96 12.99L325.96 11.97L325.68 11.97ZM343.10 8.86C343.10 8.11 342.97 7.41 342.75 6.79C342.52 6.17 342.20 5.64 341.78 5.19C341.36 4.75 340.87 4.40 340.30 4.16C339.72 3.92 339.07 3.79 338.37 3.79C337.67 3.79 337.04 3.92 336.46 4.16C335.89 4.40 335.38 4.75 334.96 5.19C334.54 5.64 334.22 6.17 334.00 6.79C333.77 7.41 333.65 8.11 333.65 8.86C333.65 9.63 333.77 10.33 334.00 10.95C334.22 11.56 334.54 12.10 334.96 12.54C335.38 12.99 335.89 13.33 336.46 13.57C337.04 13.80 337.67 13.93 338.37 13.93C339.07 13.93 339.72 13.80 340.30 13.57C340.87 13.33 341.36 12.99 341.78 12.54C342.20 12.10 342.52 11.56 342.75 10.95C342.97 10.33 343.10 9.63 343.10 8.86ZM342.34 8.86C342.34 9.56 342.26 10.18 342.06 10.72C341.87 11.27 341.60 11.75 341.25 12.12C340.90 12.50 340.48 12.81 339.99 13.01C339.50 13.20 338.97 13.30 338.37 13.30C337.78 13.30 337.25 13.20 336.76 13.01C336.27 12.81 335.85 12.50 335.50 12.12C335.15 11.75 334.87 11.27 334.67 10.72C334.47 10.18 334.39 9.56 334.39 8.86C334.39 8.18 334.47 7.55 334.67 7.00C334.87 6.45 335.15 5.98 335.50 5.60C335.85 5.22 336.27 4.91 336.76 4.72C337.25 4.52 337.78 4.41 338.37 4.41C338.97 4.41 339.50 4.52 339.99 4.72C340.48 4.91 340.90 5.22 341.25 5.60C341.60 5.98 341.87 6.45 342.06 7.00C342.26 7.55 342.34 8.18 342.34 8.86ZM359.10 12.21C359.07 12.18 359.03 12.15 358.99 12.15C358.96 12.15 358.95 12.15 358.92 12.17C358.90 12.18 358.88 12.21 358.85 12.22C358.65 12.40 358.44 12.56 358.25 12.70C358.05 12.84 357.84 12.94 357.60 13.03C357.36 13.13 357.11 13.20 356.83 13.24C356.55 13.29 356.24 13.31 355.89 13.31C355.33 13.31 354.79 13.22 354.31 13.01C353.82 12.81 353.42 12.52 353.07 12.14C352.72 11.76 352.42 11.28 352.23 10.74C352.03 10.19 351.93 9.56 351.93 8.86C351.93 8.18 352.03 7.56 352.23 7.01C352.44 6.47 352.72 6.01 353.08 5.61C353.44 5.24 353.88 4.94 354.38 4.73C354.89 4.52 355.43 4.42 356.03 4.42C356.93 4.42 357.76 4.56 358.48 4.89C358.53 5.78 358.57 6.30 358.57 6.41C358.58 6.64 358.67 6.75 358.86 6.75L359.20 6.75L359.20 4.51C358.02 4.03 356.96 3.81 356.03 3.81C355.32 3.81 354.68 3.92 354.07 4.17C353.49 4.42 352.95 4.76 352.53 5.21C352.10 5.66 351.78 6.19 351.54 6.80C351.30 7.42 351.19 8.11 351.19 8.86C351.19 9.63 351.32 10.32 351.54 10.95C351.76 11.58 352.09 12.10 352.49 12.54C352.90 12.99 353.39 13.33 353.96 13.57C354.54 13.80 355.15 13.93 355.84 13.93C356.24 13.93 356.62 13.90 356.97 13.83C357.31 13.76 357.63 13.66 357.92 13.54C358.20 13.41 358.47 13.26 358.71 13.09C358.95 12.91 359.17 12.73 359.38 12.50ZM376.68 13.22L376.22 13.17L372.44 3.91L371.73 3.91L367.93 13.17L367.49 13.22C367.30 13.23 367.22 13.33 367.22 13.50L367.22 13.82L367.67 13.82L367.96 13.82L368.21 13.82L368.31 13.82L369.63 13.82L369.63 13.50C369.63 13.31 369.52 13.23 369.31 13.22C369.29 13.22 369.26 13.20 369.22 13.20C369.18 13.20 369.12 13.19 369.03 13.19C368.93 13.19 368.80 13.19 368.66 13.17L369.64 10.75L369.71 10.57L374.44 10.57L374.51 10.75L375.49 13.17C375.35 13.19 375.24 13.19 375.14 13.19C375.05 13.19 374.98 13.20 374.93 13.20C374.89 13.20 374.86 13.22 374.85 13.22C374.64 13.23 374.53 13.31 374.53 13.50L374.53 13.82L375.84 13.82L375.94 13.82L376.21 13.82L376.49 13.82L376.95 13.82L376.95 13.50C376.95 13.33 376.87 13.23 376.68 13.22ZM371.88 5.22C371.91 5.14 371.95 5.04 371.98 4.94C372.01 4.84 372.05 4.75 372.08 4.63C372.11 4.75 372.15 4.84 372.18 4.94C372.20 5.04 372.25 5.12 372.27 5.21L374.23 10.04L369.94 10.04ZM391.55 11.97C391.36 11.97 391.27 12.08 391.26 12.31C391.26 12.32 391.26 12.38 391.24 12.43C391.23 12.49 391.23 12.59 391.22 12.71C391.20 12.84 391.19 13.01 391.17 13.20L387.09 13.20L387.09 4.47C387.25 4.47 387.39 4.45 387.53 4.45C387.67 4.45 387.79 4.44 387.86 4.44L387.98 4.44C388.16 4.42 388.26 4.34 388.26 4.19L388.26 3.92L387.09 3.92L386.37 3.92L385.18 3.92L385.18 4.19C385.18 4.34 385.28 4.42 385.46 4.44L385.60 4.44C385.67 4.44 385.77 4.45 385.91 4.45C386.05 4.45 386.20 4.47 386.37 4.47L386.37 13.26C386.20 13.26 386.05 13.27 385.91 13.27C385.77 13.27 385.67 13.29 385.60 13.29L385.46 13.29C385.28 13.30 385.18 13.38 385.18 13.54L385.18 13.82L386.37 13.82L391.65 13.82L391.78 13.82L391.90 13.82L391.90 13.55L391.90 12.99L391.90 11.97L391.62 11.97ZM417.82 9.52C417.40 9.11 416.79 8.86 416.01 8.75C416.33 8.67 416.61 8.55 416.86 8.40C417.12 8.25 417.34 8.08 417.51 7.87C417.68 7.66 417.82 7.43 417.90 7.20C417.98 6.96 418.04 6.71 418.04 6.44C418.04 6.05 417.96 5.68 417.83 5.38C417.70 5.07 417.49 4.80 417.23 4.58C416.96 4.37 416.63 4.20 416.21 4.09C415.79 3.98 415.30 3.92 414.74 3.92L411.89 3.92L410.70 3.92L410.70 4.19C410.70 4.34 410.80 4.42 410.98 4.44L411.12 4.44C411.19 4.44 411.29 4.45 411.43 4.45C411.57 4.45 411.73 4.47 411.89 4.47L411.89 13.26C411.73 13.26 411.57 13.27 411.43 13.27C411.29 13.27 411.19 13.29 411.12 13.29L410.98 13.29C410.80 13.30 410.72 13.38 410.72 13.54L410.72 13.82L411.89 13.82L415.10 13.82C415.63 13.82 416.09 13.76 416.51 13.64C416.93 13.51 417.28 13.34 417.56 13.10C417.84 12.87 418.07 12.59 418.22 12.25C418.38 11.91 418.45 11.54 418.45 11.12C418.45 10.46 418.24 9.93 417.82 9.52ZM412.61 4.48L414.74 4.48C415.62 4.48 416.28 4.66 416.70 5.00C417.12 5.35 417.33 5.84 417.33 6.51C417.33 6.76 417.28 7.03 417.19 7.27C417.09 7.50 416.93 7.71 416.72 7.91C416.51 8.11 416.25 8.26 415.93 8.37C415.60 8.48 415.21 8.55 414.75 8.55L412.61 8.55ZM417.06 12.68C416.61 13.06 415.95 13.24 415.09 13.24L412.61 13.24L412.61 9.07L415.10 9.07C415.52 9.07 415.88 9.11 416.21 9.21C416.53 9.31 416.81 9.45 417.03 9.62C417.26 9.80 417.42 10.00 417.55 10.25C417.66 10.50 417.73 10.79 417.73 11.10C417.73 11.79 417.51 12.31 417.06 12.68ZM434.95 3.92L434.24 3.92L432.88 3.92L432.88 4.19C432.88 4.34 432.98 4.42 433.16 4.44L433.33 4.44C433.43 4.44 433.57 4.45 433.73 4.45C433.90 4.45 434.07 4.47 434.24 4.47L434.24 10.04C434.24 10.50 434.17 10.92 434.03 11.33C433.89 11.73 433.69 12.08 433.43 12.38C433.16 12.67 432.85 12.89 432.47 13.06C432.10 13.23 431.68 13.31 431.20 13.31C430.72 13.31 430.29 13.23 429.91 13.06C429.53 12.89 429.21 12.66 428.96 12.36C428.69 12.07 428.51 11.72 428.37 11.33C428.23 10.93 428.16 10.50 428.16 10.04L428.16 4.47C428.33 4.47 428.50 4.45 428.67 4.45C428.83 4.45 428.97 4.44 429.07 4.44L429.24 4.44C429.42 4.42 429.52 4.34 429.52 4.19L429.52 3.92L428.16 3.92L427.45 3.92L426.27 3.92L426.27 4.19C426.27 4.34 426.36 4.42 426.54 4.44L426.68 4.44C426.75 4.44 426.85 4.45 426.99 4.45C427.13 4.45 427.28 4.47 427.45 4.47L427.45 10.04C427.45 10.58 427.53 11.09 427.70 11.56C427.87 12.04 428.12 12.46 428.44 12.81C428.76 13.16 429.17 13.44 429.63 13.64C430.09 13.83 430.63 13.93 431.20 13.93C431.77 13.93 432.29 13.83 432.75 13.64C433.22 13.44 433.62 13.16 433.94 12.81C434.27 12.46 434.52 12.04 434.69 11.56C434.85 11.09 434.95 10.58 434.95 10.04L434.95 4.47C435.12 4.47 435.26 4.45 435.40 4.45C435.54 4.45 435.65 4.44 435.72 4.44L435.85 4.44C436.03 4.42 436.13 4.34 436.13 4.19L436.13 3.92ZM449.88 9.91C449.74 9.65 449.54 9.39 449.30 9.21C449.06 9.03 448.81 8.88 448.52 8.75C448.22 8.62 447.90 8.51 447.59 8.41C447.29 8.32 446.98 8.20 446.68 8.11C446.39 7.99 446.12 7.87 445.89 7.71C445.65 7.56 445.47 7.38 445.33 7.15C445.19 6.93 445.10 6.65 445.10 6.31C445.10 6.06 445.16 5.82 445.26 5.59C445.35 5.35 445.49 5.15 445.68 4.97C445.86 4.79 446.08 4.65 446.36 4.55C446.64 4.45 446.95 4.40 447.31 4.40C447.99 4.40 448.60 4.51 449.16 4.75C449.20 5.54 449.23 5.99 449.23 6.06C449.25 6.29 449.33 6.41 449.53 6.41L449.86 6.41L449.86 4.38C448.98 4.00 448.14 3.81 447.31 3.81C446.85 3.81 446.45 3.88 446.08 4.02C445.72 4.16 445.42 4.34 445.19 4.58C444.95 4.82 444.75 5.08 444.63 5.39C444.50 5.70 444.44 6.02 444.44 6.36C444.44 6.78 444.51 7.14 444.65 7.42C444.79 7.70 444.99 7.92 445.23 8.12C445.47 8.32 445.72 8.46 446.01 8.58C446.31 8.71 446.63 8.82 446.94 8.92C447.24 9.02 447.54 9.11 447.85 9.21C448.14 9.31 448.41 9.45 448.64 9.60C448.88 9.76 449.06 9.94 449.20 10.16C449.34 10.39 449.41 10.68 449.41 11.03C449.41 11.35 449.36 11.66 449.25 11.94C449.13 12.22 448.98 12.46 448.77 12.67C448.56 12.88 448.29 13.05 447.99 13.16C447.68 13.29 447.33 13.33 446.94 13.33C446.15 13.33 445.49 13.20 444.96 12.95C444.95 12.75 444.95 12.54 444.93 12.32C444.92 12.10 444.92 11.91 444.91 11.76C444.89 11.61 444.89 11.52 444.89 11.51C444.88 11.28 444.78 11.17 444.58 11.17L444.25 11.17L444.25 13.02L444.25 13.20L444.25 13.38C445.10 13.75 445.98 13.93 446.91 13.93C447.41 13.93 447.86 13.85 448.25 13.69C448.64 13.54 448.98 13.31 449.25 13.05C449.51 12.78 449.74 12.46 449.88 12.10C450.02 11.73 450.09 11.34 450.09 10.92C450.09 10.51 450.02 10.18 449.88 9.91ZM461.16 4.44C461.34 4.42 461.43 4.34 461.43 4.19L461.43 3.91L460.25 3.91L459.54 3.91L458.35 3.91L458.35 4.19C458.35 4.34 458.44 4.42 458.63 4.44L458.77 4.44C458.84 4.44 458.93 4.45 459.07 4.45C459.21 4.45 459.37 4.47 459.54 4.47L459.54 13.26C459.37 13.26 459.21 13.27 459.07 13.27C458.93 13.27 458.84 13.29 458.77 13.29L458.63 13.29C458.44 13.30 458.35 13.38 458.35 13.54L458.35 13.82L459.54 13.82L460.25 13.82L461.43 13.82L461.43 13.54C461.43 13.38 461.34 13.30 461.16 13.29L461.02 13.29C460.95 13.29 460.85 13.27 460.71 13.27C460.57 13.27 460.42 13.26 460.25 13.26L460.25 4.47C460.42 4.47 460.57 4.45 460.71 4.45C460.85 4.45 460.95 4.44 461.02 4.44ZM478.60 3.92L477.97 3.92L476.76 3.92L476.76 4.19C476.76 4.34 476.85 4.42 477.04 4.44L477.18 4.44C477.25 4.44 477.36 4.45 477.50 4.45C477.64 4.45 477.81 4.47 477.97 4.47L477.97 12.22C477.97 12.35 477.97 12.49 477.99 12.63L471.58 4.05C471.53 3.99 471.51 3.95 471.46 3.93C471.42 3.92 471.38 3.91 471.31 3.91L470.96 3.91L469.77 3.91L469.77 4.19C469.77 4.34 469.87 4.42 470.05 4.44L470.19 4.44C470.26 4.44 470.36 4.45 470.50 4.45C470.64 4.45 470.79 4.47 470.96 4.47L470.96 13.26C470.79 13.26 470.64 13.27 470.50 13.27C470.36 13.27 470.26 13.29 470.19 13.29L470.05 13.29C469.87 13.30 469.77 13.38 469.77 13.54L469.77 13.82L470.96 13.82L471.58 13.82L472.79 13.82L472.79 13.54C472.79 13.38 472.70 13.30 472.51 13.29L472.37 13.29C472.30 13.29 472.18 13.27 472.04 13.27C471.90 13.27 471.74 13.26 471.58 13.26L471.58 5.49C471.58 5.36 471.58 5.22 471.56 5.08L478.00 13.68C478.07 13.78 478.14 13.82 478.25 13.82L478.60 13.82L478.60 4.47C478.77 4.47 478.91 4.45 479.05 4.45C479.19 4.45 479.30 4.44 479.37 4.44L479.50 4.44C479.68 4.42 479.78 4.34 479.78 4.19L479.78 3.92ZM489.01 3.92L487.82 3.92L487.82 4.19C487.82 4.34 487.91 4.42 488.10 4.44L488.24 4.44C488.31 4.44 488.40 4.45 488.54 4.45C488.68 4.45 488.84 4.47 489.01 4.47L489.01 13.26C488.84 13.26 488.68 13.27 488.54 13.27C488.40 13.27 488.31 13.29 488.24 13.29L488.10 13.29C487.91 13.30 487.83 13.38 487.83 13.54L487.83 13.82L489.01 13.82L494.94 13.82L494.94 13.22L494.94 11.76L494.59 11.76C494.40 11.76 494.31 11.89 494.30 12.11C494.30 12.14 494.28 12.19 494.28 12.29C494.28 12.39 494.28 12.53 494.27 12.74C494.26 12.95 494.24 13.09 494.24 13.22L489.72 13.22L489.72 9.09L493.67 9.09L493.67 8.51L489.72 8.51L489.72 4.51L494.24 4.51C494.27 5.12 494.30 5.50 494.30 5.63C494.31 5.85 494.40 5.96 494.59 5.96L494.94 5.96L494.94 4.51L494.94 3.92ZM509.25 9.91C509.11 9.65 508.91 9.39 508.68 9.21C508.44 9.03 508.19 8.88 507.89 8.75C507.60 8.62 507.28 8.51 506.97 8.41C506.66 8.32 506.35 8.20 506.06 8.11C505.76 7.99 505.50 7.87 505.26 7.71C505.02 7.56 504.84 7.38 504.70 7.15C504.56 6.93 504.48 6.65 504.48 6.31C504.48 6.06 504.53 5.82 504.63 5.59C504.73 5.35 504.87 5.15 505.05 4.97C505.23 4.79 505.46 4.65 505.74 4.55C506.02 4.45 506.32 4.40 506.69 4.40C507.36 4.40 507.98 4.51 508.54 4.75C508.58 5.54 508.61 5.99 508.61 6.06C508.62 6.29 508.70 6.41 508.90 6.41L509.24 6.41L509.24 4.38C508.35 4.00 507.51 3.81 506.69 3.81C506.23 3.81 505.82 3.88 505.46 4.02C505.09 4.16 504.80 4.34 504.56 4.58C504.32 4.82 504.13 5.08 504.00 5.39C503.87 5.70 503.82 6.02 503.82 6.36C503.82 6.78 503.89 7.14 504.03 7.42C504.17 7.70 504.36 7.92 504.60 8.12C504.84 8.32 505.09 8.46 505.39 8.58C505.68 8.71 506.00 8.82 506.31 8.92C506.62 9.02 506.91 9.11 507.22 9.21C507.51 9.31 507.78 9.45 508.02 9.60C508.26 9.76 508.44 9.94 508.58 10.16C508.72 10.39 508.79 10.68 508.79 11.03C508.79 11.35 508.73 11.66 508.62 11.94C508.51 12.22 508.35 12.46 508.14 12.67C507.93 12.88 507.67 13.05 507.36 13.16C507.05 13.29 506.70 13.33 506.31 13.33C505.53 13.33 504.87 13.20 504.34 12.95C504.32 12.75 504.32 12.54 504.31 12.32C504.29 12.10 504.29 11.91 504.28 11.76C504.27 11.61 504.27 11.52 504.27 11.51C504.25 11.28 504.15 11.17 503.96 11.17L503.62 11.17L503.62 13.02L503.62 13.20L503.62 13.38C504.48 13.75 505.36 13.93 506.28 13.93C506.79 13.93 507.23 13.85 507.63 13.69C508.02 13.54 508.35 13.31 508.62 13.05C508.89 12.78 509.11 12.46 509.25 12.10C509.39 11.73 509.46 11.34 509.46 10.92C509.46 10.51 509.39 10.18 509.25 9.91ZM523.45 9.91C523.31 9.65 523.11 9.39 522.87 9.21C522.63 9.03 522.38 8.88 522.09 8.75C521.79 8.62 521.47 8.51 521.16 8.41C520.86 8.32 520.55 8.20 520.25 8.11C519.96 7.99 519.69 7.87 519.46 7.71C519.22 7.56 519.04 7.38 518.90 7.15C518.76 6.93 518.67 6.65 518.67 6.31C518.67 6.06 518.73 5.82 518.83 5.59C518.92 5.35 519.06 5.15 519.25 4.97C519.43 4.79 519.65 4.65 519.93 4.55C520.21 4.45 520.52 4.40 520.88 4.40C521.56 4.40 522.17 4.51 522.73 4.75C522.77 5.54 522.80 5.99 522.80 6.06C522.82 6.29 522.90 6.41 523.10 6.41L523.43 6.41L523.43 4.38C522.55 4.00 521.71 3.81 520.88 3.81C520.42 3.81 520.02 3.88 519.65 4.02C519.29 4.16 518.99 4.34 518.76 4.58C518.52 4.82 518.32 5.08 518.20 5.39C518.07 5.70 518.01 6.02 518.01 6.36C518.01 6.78 518.08 7.14 518.22 7.42C518.36 7.70 518.56 7.92 518.80 8.12C519.04 8.32 519.29 8.46 519.58 8.58C519.88 8.71 520.20 8.82 520.51 8.92C520.81 9.02 521.11 9.11 521.42 9.21C521.71 9.31 521.98 9.45 522.21 9.60C522.45 9.76 522.63 9.94 522.77 10.16C522.91 10.39 522.98 10.68 522.98 11.03C522.98 11.35 522.93 11.66 522.82 11.94C522.70 12.22 522.55 12.46 522.34 12.67C522.13 12.88 521.86 13.05 521.56 13.16C521.25 13.29 520.90 13.33 520.51 13.33C519.72 13.33 519.06 13.20 518.53 12.95C518.52 12.75 518.52 12.54 518.50 12.32C518.49 12.10 518.49 11.91 518.48 11.76C518.46 11.61 518.46 11.52 518.46 11.51C518.45 11.28 518.35 11.17 518.15 11.17L517.82 11.17L517.82 13.02L517.82 13.20L517.82 13.38C518.67 13.75 519.55 13.93 520.48 13.93C520.98 13.93 521.43 13.85 521.82 13.69C522.21 13.54 522.55 13.31 522.82 13.05C523.08 12.78 523.31 12.46 523.45 12.10C523.59 11.73 523.66 11.34 523.66 10.92C523.66 10.51 523.59 10.18 523.45 9.91Z"></path></g></svg>