<svg data-v-423bf9ae="" xmlns="http://www.w3.org/2000/svg" viewBox="0 0 527.2078674221966 60" class="font"><!----><!----><!----><g data-v-423bf9ae="" id="b75fb802-6aab-4b47-9840-df832ae7e475" fill="black" transform="matrix(4.552351943151171,0,0,4.552351943151171,-0.9559914915766399,-10.97116833530724)"><path d="M4.18 2.42L4.18 2.42Q5.61 2.42 6.39 2.76L6.39 2.76L6.39 2.76Q7.18 3.10 7.86 3.79L7.86 3.79L6.49 5.15L6.49 5.15Q5.81 4.33 4.58 4.33L4.58 4.33L4.58 4.33Q3.35 4.33 3.01 4.92L3.01 4.92L3.01 4.92Q2.67 5.50 3.01 5.91L3.01 5.91L3.01 5.91Q3.35 6.32 4.58 6.52L4.58 6.52L4.58 6.52Q5.88 6.66 6.94 7.38L6.94 7.38L6.94 7.38Q8.00 8.09 8.00 9.67L8.00 9.67L8.00 9.67Q8.00 10.90 6.87 11.79L6.87 11.79L6.87 11.79Q5.74 12.67 4.23 12.67L4.23 12.67L4.23 12.67Q2.80 12.67 1.85 12.26L1.85 12.26L1.85 12.26Q0.89 11.85 0.21 11.17L0.21 11.17L1.57 9.80L1.57 9.80Q2.26 10.62 3.90 10.76L3.90 10.76L3.90 10.76Q5.26 10.76 5.60 10.18L5.60 10.18L5.60 10.18Q5.94 9.60 5.60 9.02L5.60 9.02L5.60 9.02Q5.26 8.44 3.90 8.30L3.90 8.30L3.90 8.30Q2.67 8.16 1.64 7.55L1.64 7.55L1.64 7.55Q0.62 6.93 0.62 5.43L0.62 5.43L0.62 5.43Q0.62 4.07 1.78 3.24L1.78 3.24L1.78 3.24Q2.95 2.42 4.18 2.42L4.18 2.42ZM12.76 12.74L12.76 12.74Q11.27 12.74 10.27 11.74L10.27 11.74L10.27 11.74Q9.28 10.74 9.28 9.26L9.28 9.26L9.28 9.26Q9.28 7.77 10.27 6.77L10.27 6.77L10.27 6.77Q11.27 5.77 12.76 5.77L12.76 5.77L12.76 5.77Q14.25 5.77 15.25 6.77L15.25 6.77L15.25 6.77Q16.25 7.77 16.25 9.26L16.25 9.26L16.25 9.26Q16.25 10.75 15.25 11.74L15.25 11.74L15.25 11.74Q14.25 12.74 12.76 12.74L12.76 12.74ZM12.76 11.09L12.76 11.09L12.76 11.09Q13.54 11.09 14.02 10.56L14.02 10.56L14.02 10.56Q14.51 10.04 14.51 9.26L14.51 9.26L14.51 9.26Q14.51 8.48 14.02 7.96L14.02 7.96L14.02 7.96Q13.54 7.43 12.75 7.43L12.75 7.43L12.75 7.43Q11.98 7.43 11.49 7.96L11.49 7.96L11.49 7.96Q11.01 8.48 11.01 9.26L11.01 9.26L11.01 9.26Q11.01 10.04 11.49 10.56L11.49 10.56L11.49 10.56Q11.98 11.09 12.76 11.09ZM21.67 10.25L21.67 10.25L21.67 5.83L23.58 5.83L23.58 12.67L21.67 12.67L21.67 12.05L21.67 12.05Q20.98 12.67 20.03 12.67L20.03 12.67L20.03 12.67Q18.73 12.67 18.05 11.88L18.05 11.88L18.05 11.88Q17.36 11.09 17.36 10.07L17.36 10.07L17.36 5.83L19.28 5.83L19.28 9.59L19.28 9.59Q19.28 10.27 19.62 10.65L19.62 10.65L19.62 10.65Q19.96 11.03 20.65 11.05L20.65 11.05L20.65 11.05Q21.25 11.01 21.67 10.25ZM29.46 12.35L29.46 12.35Q28.96 12.67 28.33 12.67L28.33 12.67L28.33 12.67Q27.17 12.67 26.48 12.02L26.48 12.02L26.48 12.02Q25.80 11.38 25.80 10.35L25.80 10.35L25.80 7.39L24.77 7.39L24.77 5.84L25.80 5.84L25.80 3.99L27.72 3.79L27.72 5.84L28.75 5.84L28.75 7.39L27.72 7.39L27.72 10.08L27.72 10.08Q27.72 10.62 27.95 10.85L27.95 10.85L27.95 10.85Q28.18 11.07 28.54 11.07L28.54 11.07L28.54 11.07Q28.65 11.07 29.05 10.98L29.05 10.98L29.46 12.35ZM32.53 8.05L32.53 8.05L32.53 12.67L30.62 12.67L30.62 2.42L32.53 2.42L32.53 6.45L32.53 6.45Q33.22 5.84 34.17 5.84L34.17 5.84L34.17 5.84Q35.47 5.84 36.16 6.62L36.16 6.62L36.16 6.62Q36.84 7.41 36.84 8.44L36.84 8.44L36.84 12.67L34.92 12.67L34.92 8.91L34.92 8.91Q34.92 8.23 34.58 7.85L34.58 7.85L34.58 7.85Q34.24 7.48 33.55 7.46L33.55 7.46L33.55 7.46Q32.96 7.50 32.53 8.05ZM50.57 12.67L43.05 12.67L43.05 2.43L50.59 2.42L50.59 4.33L45.10 4.33L45.10 6.52L49.21 6.52L49.21 8.43L45.10 8.43L45.10 10.76L50.57 10.76L50.57 12.67ZM54.41 8.33L54.41 8.33L54.41 12.67L52.49 12.67L52.49 6.04L54.41 5.83L54.41 6.45L54.41 6.45Q55.10 5.84 56.05 5.84L56.05 5.84L56.05 5.84Q57.35 5.84 58.03 6.62L58.03 6.62L58.03 6.62Q58.71 7.41 58.71 8.44L58.71 8.44L58.71 12.67L56.80 12.67L56.80 8.91L56.80 8.91Q56.80 8.23 56.46 7.85L56.46 7.85L56.46 7.85Q56.12 7.48 55.43 7.46L55.43 7.46L55.43 7.46Q54.83 7.50 54.41 8.33ZM64.89 2.42L66.81 2.43L66.81 12.67L64.89 12.67L64.89 12.13L64.89 12.13Q64.13 12.67 63.39 12.67L63.39 12.67L63.39 12.67Q61.82 12.67 60.89 11.65L60.89 11.65L60.89 11.65Q59.97 10.62 59.97 9.26L59.97 9.26L59.97 9.26Q59.97 7.89 60.89 6.86L60.89 6.86L60.89 6.86Q61.82 5.84 63.39 5.84L63.39 5.84L63.39 5.84Q64.42 5.91 64.89 6.39L64.89 6.39L64.89 2.42ZM64.89 9.87L64.89 9.87L64.89 8.76L64.89 8.76Q64.76 7.62 63.46 7.42L63.46 7.42L63.46 7.42Q61.82 7.55 61.61 9.12L61.61 9.12L61.61 9.12Q61.68 11.03 63.46 11.10L63.46 11.10L63.46 11.10Q64.76 10.90 64.89 9.87ZM77.38 10.63L75.48 10.63L75.48 4.47L77.38 4.47L77.38 4.47Q80.11 4.47 80.12 7.55L80.12 7.55L80.12 7.55Q80.11 10.62 77.38 10.63L77.38 10.63ZM73.43 12.67L77.38 12.67L77.38 12.67Q82.17 12.67 82.17 7.55L82.17 7.55L82.17 7.55Q82.17 2.41 77.38 2.41L77.38 2.41L73.43 2.41L73.43 12.67ZM83.85 9.26L83.85 9.26L83.85 9.26Q83.85 7.75 84.81 6.79L84.81 6.79L84.81 6.79Q85.76 5.84 87.27 5.84L87.27 5.84L87.27 5.84Q88.77 5.84 89.66 6.79L89.66 6.79L89.66 6.79Q90.55 7.75 90.55 9.26L90.55 9.26L90.55 9.94L85.83 9.94L85.83 9.94Q85.90 10.49 86.31 10.79L86.31 10.79L86.31 10.79Q86.72 11.10 87.27 11.10L87.27 11.10L87.27 11.10Q88.22 11.10 88.98 10.55L88.98 10.55L90.07 11.65L90.07 11.65Q89.32 12.67 87.27 12.67L87.27 12.67L87.27 12.67Q85.76 12.67 84.81 11.72L84.81 11.72L84.81 11.72Q83.85 10.76 83.85 9.26ZM88.63 8.57L88.63 8.57Q88.63 8.03 88.22 7.72L88.22 7.72L88.22 7.72Q87.81 7.41 87.27 7.41L87.27 7.41L87.27 7.41Q86.72 7.41 86.31 7.72L86.31 7.72L86.31 7.72Q85.90 8.03 85.90 8.57L85.90 8.57L88.63 8.57ZM94.42 5.80L94.42 5.80Q95.38 5.80 95.92 6.03L95.92 6.03L95.92 6.03Q96.45 6.26 96.91 6.72L96.91 6.72L95.85 7.92L95.85 7.92Q95.38 7.37 94.68 7.37L94.68 7.37L94.68 7.37Q93.99 7.37 93.76 7.63L93.76 7.63L93.76 7.63Q93.53 7.88 93.76 8.09L93.76 8.09L93.76 8.09Q93.99 8.30 94.68 8.44L94.68 8.44L94.68 8.44Q95.70 8.53 96.35 9.02L96.35 9.02L96.35 9.02Q97.00 9.50 97.00 10.71L97.00 10.71L97.00 10.71Q97.00 11.68 96.24 12.21L96.24 12.21L96.24 12.21Q95.47 12.74 94.45 12.74L94.45 12.74L94.45 12.74Q93.48 12.74 92.84 12.47L92.84 12.47L92.84 12.47Q92.19 12.19 91.72 11.72L91.72 11.72L92.78 10.53L92.78 10.53Q93.25 11.08 94.23 11.17L94.23 11.17L94.23 11.17Q95.01 11.17 95.24 10.91L95.24 10.91L95.24 10.91Q95.47 10.66 95.31 10.40L95.31 10.40L95.31 10.40Q95.15 10.14 94.23 10.06L94.23 10.06L94.23 10.06Q93.39 9.96 92.70 9.54L92.70 9.54L92.70 9.54Q92.00 9.13 92.00 7.97L92.00 7.97L92.00 7.97Q92.00 6.91 92.79 6.35L92.79 6.35L92.79 6.35Q93.58 5.80 94.42 5.80L94.42 5.80ZM100.31 12.67L98.40 12.67L98.40 5.83L100.31 5.83L100.31 12.67ZM98.33 4.20L98.33 4.20L98.33 4.20Q98.33 4.61 98.60 4.88L98.60 4.88L98.60 4.88Q98.88 5.15 99.35 5.15L99.35 5.15L99.35 5.15Q99.83 5.15 100.11 4.88L100.11 4.88L100.11 4.88Q100.38 4.61 100.38 4.20L100.38 4.20L100.38 4.20Q100.38 3.79 100.11 3.51L100.11 3.51L100.11 3.51Q99.83 3.23 99.34 3.23L99.34 3.23L99.34 3.23Q98.88 3.23 98.60 3.51L98.60 3.51L98.60 3.51Q98.33 3.79 98.33 4.20ZM106.52 5.84L108.43 6.04L108.43 12.13L108.43 12.13Q108.43 13.56 107.58 14.53L107.58 14.53L107.58 14.53Q106.72 15.49 105.42 15.54L105.42 15.54L105.01 15.59L105.01 15.59Q103.03 15.54 101.94 14.45L101.94 14.45L102.83 13.43L102.83 13.43Q103.58 13.97 104.65 14.04L104.65 14.04L104.65 14.04Q105.75 14.04 106.13 13.53L106.13 13.53L106.13 13.53Q106.52 13.02 106.52 12.40L106.52 12.40L106.52 12.06L106.52 12.06Q105.75 12.67 104.74 12.67L104.74 12.67L104.74 12.67Q103.17 12.67 102.38 11.75L102.38 11.75L102.38 11.75Q101.60 10.83 101.60 9.26L101.60 9.26L101.60 9.26Q101.60 7.75 102.45 6.79L102.45 6.79L102.45 6.79Q103.30 5.84 104.88 5.84L104.88 5.84L104.88 5.84Q106.04 5.91 106.52 6.46L106.52 6.46L106.52 5.84ZM106.52 9.87L106.52 9.87L106.52 8.76L106.52 8.76Q106.38 7.62 105.08 7.42L105.08 7.42L105.08 7.42Q103.37 7.48 103.24 9.12L103.24 9.12L103.24 9.12Q103.30 11.03 105.08 11.10L105.08 11.10L105.08 11.10Q106.38 10.90 106.52 9.87ZM111.71 8.33L111.71 8.33L111.71 12.67L109.80 12.67L109.80 6.04L111.71 5.83L111.71 6.45L111.71 6.45Q112.40 5.84 113.35 5.84L113.35 5.84L113.35 5.84Q114.65 5.84 115.34 6.62L115.34 6.62L115.34 6.62Q116.02 7.41 116.02 8.44L116.02 8.44L116.02 12.67L114.11 12.67L114.11 8.91L114.11 8.91Q114.11 8.23 113.76 7.85L113.76 7.85L113.76 7.85Q113.42 7.48 112.73 7.46L112.73 7.46L112.73 7.46Q112.14 7.50 111.71 8.33Z"></path></g><!----><!----></svg>