<svg data-v-423bf9ae="" xmlns="http://www.w3.org/2000/svg" viewBox="0 0 479 90" class="iconLeftSlogan"><!----><!----><!----><g data-v-423bf9ae="" id="977dae9d-50e0-4a2b-bebe-907e03e093af" fill="#ffffff" transform="matrix(4.285714285714286,0,0,4.285714285714286,81.1762328190463,-9.642857142857139)"><path d="M5.99 8.81L5.99 8.81L5.99 8.81Q6.15 9.06 6.15 9.81L6.15 9.81L6.15 9.81Q6.15 10.56 5.84 11.07L5.84 11.07L5.84 11.07Q5.56 11.48 4.65 12.20L4.65 12.20L4.65 12.20Q3.74 12.92 3.30 12.92L3.30 12.92L3.30 12.92Q2.53 12.92 1.54 12.12L1.54 12.12L1.54 12.12Q0.55 11.31 0.28 10.35L0.28 10.35L1.83 9.28L1.83 9.28Q2.06 9.94 2.55 10.49L2.55 10.49L2.55 10.49Q3.04 11.03 3.24 11.03L3.24 11.03L3.24 11.03Q3.44 11.03 3.68 10.90L3.68 10.90L3.68 10.90Q3.91 10.77 4.03 10.63L4.03 10.63L4.03 10.63Q4.21 10.40 4.21 9.93L4.21 9.93L4.21 9.93Q4.21 9.45 3.99 9.34L3.99 9.34L3.99 9.34Q3.71 9.10 2.91 8.71L2.91 8.71L2.91 8.71Q2.10 8.32 1.41 7.86L1.41 7.86L1.41 7.86Q0.73 7.41 0.54 6.97L0.54 6.97L0.54 6.97Q0.35 6.54 0.35 5.84L0.35 5.84L0.35 5.84Q0.35 5.15 0.66 4.63L0.66 4.63L0.66 4.63Q0.94 4.23 1.85 3.51L1.85 3.51L1.85 3.51Q2.76 2.79 3.19 2.79L3.19 2.79L3.19 2.79Q3.96 2.79 4.96 3.59L4.96 3.59L4.96 3.59Q5.95 4.40 6.22 5.36L6.22 5.36L4.66 6.44L4.66 6.44Q4.44 5.78 3.95 5.23L3.95 5.23L3.95 5.23Q3.46 4.68 3.25 4.68L3.25 4.68L3.25 4.68Q3.05 4.68 2.81 4.80L2.81 4.80L2.81 4.80Q2.58 4.93 2.43 5.12L2.43 5.12L2.43 5.12Q2.28 5.31 2.28 5.76L2.28 5.76L2.28 5.76Q2.28 6.22 2.56 6.37L2.56 6.37L2.56 6.37Q2.79 6.57 3.58 6.99L3.58 6.99L3.58 6.99Q5.63 8.11 5.99 8.81ZM9.19 11.10L9.19 11.10L9.19 11.10Q9.41 11.31 9.53 11.31L9.53 11.31L9.53 11.31Q9.66 11.31 9.88 11.10L9.88 11.10L9.88 11.10Q10.09 10.89 10.19 10.72L10.19 10.72L10.19 10.72Q10.37 10.42 10.37 8.99L10.37 8.99L10.37 8.99Q10.37 7.56 10.19 7.24L10.19 7.24L10.19 7.24Q10.09 7.07 9.88 6.86L9.88 6.86L9.88 6.86Q9.66 6.65 9.53 6.65L9.53 6.65L9.53 6.65Q9.41 6.65 9.19 6.86L9.19 6.86L9.19 6.86Q8.97 7.07 8.88 7.24L8.88 7.24L8.88 7.24Q8.69 7.55 8.69 8.97L8.69 8.97L8.69 8.97Q8.69 10.40 8.88 10.72L8.88 10.72L8.88 10.72Q8.97 10.89 9.19 11.10ZM10.80 12.24L10.80 12.24L10.80 12.24Q9.94 12.92 9.53 12.92L9.53 12.92L9.53 12.92Q9.13 12.92 8.27 12.24L8.27 12.24L8.27 12.24Q7.41 11.55 7.21 11.21L7.21 11.21L7.21 11.21Q6.92 10.70 6.92 8.97L6.92 8.97L6.92 8.97Q6.92 7.25 7.21 6.75L7.21 6.75L7.21 6.75Q7.41 6.41 8.27 5.73L8.27 5.73L8.27 5.73Q9.13 5.04 9.53 5.04L9.53 5.04L9.53 5.04Q9.94 5.04 10.80 5.73L10.80 5.73L10.80 5.73Q11.66 6.41 11.86 6.75L11.86 6.75L11.86 6.75Q12.15 7.25 12.15 8.97L12.15 8.97L12.15 8.97Q12.15 10.70 11.86 11.21L11.86 11.21L11.86 11.21Q11.66 11.55 10.80 12.24ZM13.13 10.61L13.13 5.21L14.98 5.21L14.98 10.42L14.98 10.42Q14.98 10.65 15.20 10.91L15.20 10.91L15.20 10.91Q15.43 11.17 15.62 11.17L15.62 11.17L15.62 11.17Q15.82 11.17 16.44 10.60L16.44 10.60L16.44 5.21L18.28 5.21L18.28 12.75L16.86 12.75L16.69 11.93L16.69 11.93Q15.64 12.92 15.22 12.92L15.22 12.92L15.22 12.92Q14.80 12.92 13.97 12.14L13.97 12.14L13.97 12.14Q13.13 11.37 13.13 10.61L13.13 10.61ZM23.38 6.68L21.81 6.68L21.81 9.77L21.81 9.77Q21.81 10.43 22.26 10.98L22.26 10.98L22.26 10.98Q22.71 11.52 23.49 11.84L23.49 11.84L21.95 12.92L21.95 12.92Q21.11 12.53 20.54 11.84L20.54 11.84L20.54 11.84Q19.96 11.14 19.96 10.37L19.96 10.37L19.96 6.68L19.26 6.68L19.26 5.63L19.96 5.46L19.96 5.46Q19.94 4.77 19.80 4.38L19.80 4.38L19.80 4.38Q19.66 3.98 19.26 3.60L19.26 3.60L20.80 2.52L20.80 2.52Q21.81 3.32 21.81 4.79L21.81 4.79L21.81 5.21L23.38 5.21L23.38 6.68ZM26.60 7.38L26.60 12.75L24.75 12.75L24.75 5.11L24.75 5.11Q24.75 4.40 24.58 4.02L24.58 4.02L24.58 4.02Q24.42 3.64 24.05 3.33L24.05 3.33L25.59 2.25L25.59 2.25Q26.60 3.05 26.60 4.51L26.60 4.51L26.60 5.81L26.60 5.81Q27.47 5.04 27.86 5.04L27.86 5.04L27.86 5.04Q28.25 5.04 29.11 5.82L29.11 5.82L29.11 5.82Q29.97 6.59 29.97 7.35L29.97 7.35L29.97 10.05L29.97 10.05Q29.97 10.77 30.14 11.16L30.14 11.16L30.14 11.16Q30.31 11.55 30.67 11.84L30.67 11.84L29.13 12.92L29.13 12.92Q28.13 12.12 28.13 10.65L28.13 10.65L28.13 7.55L28.13 7.55Q28.13 7.31 27.87 7.05L27.87 7.05L27.87 7.05Q27.62 6.79 27.41 6.79L27.41 6.79L27.41 6.79Q27.19 6.79 26.60 7.38L26.60 7.38ZM37.02 4.86L37.02 6.79L39.52 6.79L39.52 8.48L37.02 8.48L37.02 11.06L40.36 11.06L40.36 12.75L35.08 12.75L35.08 4.13L37.02 2.79L40.14 2.79L40.14 4.49L37.53 4.49L37.02 4.86ZM43.47 7.38L43.47 12.75L41.62 12.75L41.62 7.92L41.62 7.92Q41.62 7.21 41.45 6.82L41.45 6.82L41.45 6.82Q41.29 6.43 40.92 6.13L40.92 6.13L42.46 5.05L42.46 5.05Q42.98 5.47 43.23 6.02L43.23 6.02L43.23 6.02Q44.27 5.04 44.70 5.04L44.70 5.04L44.70 5.04Q45.12 5.04 45.98 5.82L45.98 5.82L45.98 5.82Q46.84 6.59 46.84 7.35L46.84 7.35L46.84 10.05L46.84 10.05Q46.84 10.77 47.01 11.16L47.01 11.16L47.01 11.16Q47.18 11.55 47.54 11.84L47.54 11.84L46.00 12.92L46.00 12.92Q45.00 12.12 45.00 10.65L45.00 10.65L45.00 7.55L45.00 7.55Q45.00 7.31 44.74 7.05L44.74 7.05L44.74 7.05Q44.49 6.79 44.28 6.79L44.28 6.79L44.28 6.79Q44.06 6.79 43.47 7.38L43.47 7.38ZM48.33 6.89L48.33 6.89Q48.44 6.54 49.20 5.79L49.20 5.79L49.20 5.79Q49.97 5.04 50.33 5.04L50.33 5.04L50.33 5.04Q50.69 5.04 51.58 5.80L51.58 5.80L51.58 5.11L51.58 5.11Q51.58 4.40 51.41 4.02L51.41 4.02L51.41 4.02Q51.24 3.64 50.88 3.33L50.88 3.33L52.42 2.25L52.42 2.25Q53.42 3.05 53.42 4.51L53.42 4.51L53.42 12.75L52.00 12.75L51.83 11.93L51.83 11.93Q50.81 12.92 50.30 12.92L50.30 12.92L50.30 12.92Q49.97 12.92 49.20 12.17L49.20 12.17L49.20 12.17Q48.44 11.42 48.33 11.07L48.33 11.07L48.33 11.07Q48.17 10.72 48.17 8.98L48.17 8.98L48.17 8.98Q48.17 7.24 48.33 6.89L48.33 6.89ZM51.48 7.34L51.48 7.34L51.48 7.34Q51.38 7.17 51.08 6.98L51.08 6.98L51.08 6.98Q50.78 6.79 50.62 6.79L50.62 6.79L50.62 6.79Q50.47 6.79 50.30 6.97L50.30 6.97L50.30 6.97Q50.12 7.15 50.04 7.35L50.04 7.35L50.04 7.35Q49.95 7.55 49.95 8.98L49.95 8.98L49.95 8.98Q49.95 10.42 50.04 10.61L50.04 10.61L50.04 10.61Q50.12 10.79 50.30 10.98L50.30 10.98L50.30 10.98Q50.47 11.17 50.62 11.17L50.62 11.17L50.62 11.17Q50.76 11.17 51.07 10.98L51.07 10.98L51.07 10.98Q51.37 10.79 51.46 10.65L51.46 10.65L51.46 10.65Q51.55 10.46 51.58 9.52L51.58 9.52L51.58 9.00L51.58 9.00Q51.58 7.52 51.48 7.34ZM59.85 3.51L59.85 3.51L59.85 3.51Q60.77 2.79 61.25 2.79L61.25 2.79L61.25 2.79Q61.73 2.79 62.73 3.70L62.73 3.70L62.73 3.70Q63.73 4.62 63.97 5.19L63.97 5.19L63.97 5.19Q64.12 5.56 64.12 7.03L64.12 7.03L64.12 8.68L64.12 8.68Q64.12 10.15 63.97 10.51L63.97 10.51L63.97 10.51Q63.71 11.06 62.75 11.91L62.75 11.91L62.75 11.91Q61.78 12.75 61.22 12.75L61.22 12.75L58.32 12.75L58.32 6.76L58.32 6.76Q58.32 5.63 58.16 5.17L58.16 5.17L58.16 5.17Q58.00 4.70 57.48 4.07L57.48 4.07L59.33 2.79L59.33 2.79Q59.63 3.01 59.85 3.51ZM61.22 4.79L61.22 4.79L61.22 4.79Q60.82 4.79 60.21 5.05L60.21 5.05L60.21 5.05Q60.26 5.35 60.26 5.95L60.26 5.95L60.26 11.06L61.22 11.06L61.22 11.06Q61.42 11.06 61.69 10.77L61.69 10.77L61.69 10.77Q61.96 10.49 62.08 10.23L62.08 10.23L62.08 10.23Q62.19 9.97 62.19 8.82L62.19 8.82L62.19 7.03L62.19 7.03Q62.19 5.88 62.08 5.62L62.08 5.62L62.08 5.62Q61.96 5.36 61.69 5.07L61.69 5.07L61.69 5.07Q61.42 4.79 61.22 4.79ZM70.48 8.96L70.48 8.96L70.48 9.46L67.09 9.46L67.09 9.46Q67.09 10.30 67.30 10.79L67.30 10.79L67.30 10.79Q67.37 10.96 67.55 11.14L67.55 11.14L67.55 11.14Q67.73 11.31 67.93 11.31L67.93 11.31L67.93 11.31Q68.12 11.31 68.42 10.98L68.42 10.98L68.42 10.98Q68.71 10.64 68.88 10.16L68.88 10.16L70.32 11.19L70.32 11.19Q69.94 11.89 69.17 12.40L69.17 12.40L69.17 12.40Q68.39 12.92 67.91 12.92L67.91 12.92L67.91 12.92Q67.44 12.92 66.54 12.18L66.54 12.18L66.54 12.18Q65.63 11.44 65.44 11.02L65.44 11.02L65.44 11.02Q65.24 10.61 65.24 8.98L65.24 8.98L65.24 8.98Q65.24 7.35 65.44 6.94L65.44 6.94L65.44 6.94Q65.63 6.52 66.54 5.78L66.54 5.78L66.54 5.78Q67.44 5.04 67.86 5.04L67.86 5.04L67.86 5.04Q68.28 5.04 69.18 5.78L69.18 5.78L69.18 5.78Q70.08 6.52 70.28 6.94L70.28 6.94L70.28 6.94Q70.48 7.35 70.48 8.96ZM68.54 7.20L68.54 7.20L68.54 7.20Q68.43 7.01 68.22 6.83L68.22 6.83L68.22 6.83Q68.00 6.65 67.81 6.65L67.81 6.65L67.81 6.65Q67.62 6.65 67.38 7.02L67.38 7.02L67.38 7.02Q67.14 7.39 67.09 8.13L67.09 8.13L68.68 8.13L68.68 8.13Q68.64 7.39 68.54 7.20ZM76.45 10.49L76.45 10.49L76.45 10.49Q76.45 10.92 75.38 11.92L75.38 11.92L75.38 11.92Q74.30 12.92 73.77 12.92L73.77 12.92L73.77 12.92Q73.25 12.92 72.47 12.40L72.47 12.40L72.47 12.40Q71.69 11.89 71.32 11.19L71.32 11.19L72.76 10.19L72.76 10.19Q73.46 11.17 73.78 11.17L73.78 11.17L73.78 11.17Q74.02 11.17 74.37 10.93L74.37 10.93L74.37 10.93Q74.72 10.70 74.72 10.49L74.72 10.49L74.72 10.49Q74.72 10.43 74.38 10.24L74.38 10.24L74.38 10.24Q74.05 10.05 73.56 9.77L73.56 9.77L73.56 9.77Q73.08 9.48 72.60 9.12L72.60 9.12L72.60 9.12Q72.13 8.76 71.79 8.25L71.79 8.25L71.79 8.25Q71.46 7.73 71.46 7.20L71.46 7.20L71.46 7.20Q71.46 6.66 72.41 5.85L72.41 5.85L72.41 5.85Q73.36 5.04 73.87 5.04L73.87 5.04L73.87 5.04Q74.38 5.04 75.16 5.56L75.16 5.56L75.16 5.56Q75.94 6.08 76.31 6.78L76.31 6.78L74.87 7.77L74.87 7.77Q74.17 6.79 73.85 6.79L73.85 6.79L73.85 6.79Q73.68 6.79 73.44 6.98L73.44 6.98L73.44 6.98Q73.19 7.17 73.19 7.32L73.19 7.32L73.19 7.32Q73.19 7.48 73.70 7.80L73.70 7.80L73.70 7.80Q74.21 8.12 74.82 8.46L74.82 8.46L74.82 8.46Q75.43 8.81 75.94 9.36L75.94 9.36L75.94 9.36Q76.45 9.91 76.45 10.49ZM77.29 10.65L77.29 5.21L79.14 5.21L79.14 10.05L79.14 10.05Q79.14 10.77 79.31 11.16L79.31 11.16L79.31 11.16Q79.48 11.55 79.84 11.84L79.84 11.84L78.30 12.92L78.30 12.92Q77.29 12.12 77.29 10.65L77.29 10.65ZM78.25 2.28L78.25 2.28L78.25 2.28Q78.40 2.28 78.93 2.74L78.93 2.74L78.93 2.74Q79.46 3.19 79.46 3.35L79.46 3.35L79.46 3.35Q79.46 3.51 78.93 3.98L78.93 3.98L78.93 3.98Q78.39 4.44 78.24 4.44L78.24 4.44L78.24 4.44Q78.09 4.44 77.56 3.98L77.56 3.98L77.56 3.98Q77.03 3.53 77.03 3.37L77.03 3.37L77.03 3.37Q77.03 3.21 77.57 2.74L77.57 2.74L77.57 2.74Q78.11 2.28 78.25 2.28ZM83.56 7.32L83.56 7.32L83.56 7.32Q83.45 7.15 83.16 6.97L83.16 6.97L83.16 6.97Q82.87 6.79 82.71 6.79L82.71 6.79L82.71 6.79Q82.56 6.79 82.38 6.97L82.38 6.97L82.38 6.97Q82.21 7.15 82.15 7.31L82.15 7.31L82.15 7.31Q82.04 7.53 82.04 8.71L82.04 8.71L82.04 8.71Q82.04 9.88 82.15 10.09L82.15 10.09L82.15 10.09Q82.21 10.23 82.38 10.42L82.38 10.42L82.38 10.42Q82.56 10.61 82.71 10.61L82.71 10.61L82.71 10.61Q82.87 10.61 83.17 10.42L83.17 10.42L83.17 10.42Q83.47 10.23 83.57 10.07L83.57 10.07L83.57 10.07Q83.66 9.91 83.66 8.70L83.66 8.70L83.66 8.70Q83.66 7.49 83.56 7.32ZM84.11 5.21L85.48 5.21L85.48 12.29L85.48 12.29Q85.48 14.08 85.32 14.43L85.32 14.43L85.32 14.43Q85.16 14.77 84.20 15.51L84.20 15.51L84.20 15.51Q83.23 16.25 82.75 16.25L82.75 16.25L82.75 16.25Q82.26 16.25 81.54 15.77L81.54 15.77L81.54 15.77Q80.81 15.29 80.44 14.66L80.44 14.66L81.89 13.66L82.03 13.85L82.03 13.85Q82.54 14.50 82.75 14.50L82.75 14.50L82.75 14.50Q82.95 14.50 83.21 14.32L83.21 14.32L83.21 14.32Q83.47 14.14 83.56 13.94L83.56 13.94L83.56 13.94Q83.65 13.73 83.65 12.22L83.65 12.22L83.69 11.68L83.69 11.68Q82.74 12.36 82.40 12.36L82.40 12.36L82.40 12.36Q82.05 12.36 81.31 11.62L81.31 11.62L81.31 11.62Q80.57 10.88 80.42 10.51L80.42 10.51L80.42 10.51Q80.26 10.15 80.26 8.71L80.26 8.71L80.26 8.71Q80.26 7.27 80.42 6.89L80.42 6.89L80.42 6.89Q80.57 6.52 81.31 5.78L81.31 5.78L81.31 5.78Q82.05 5.04 82.45 5.04L82.45 5.04L82.45 5.04Q82.84 5.04 83.94 5.94L83.94 5.94L84.11 5.21ZM88.73 7.38L88.73 12.75L86.88 12.75L86.88 7.92L86.88 7.92Q86.88 7.21 86.72 6.82L86.72 6.82L86.72 6.82Q86.55 6.43 86.18 6.13L86.18 6.13L87.72 5.05L87.72 5.05Q88.24 5.47 88.49 6.02L88.49 6.02L88.49 6.02Q89.53 5.04 89.96 5.04L89.96 5.04L89.96 5.04Q90.38 5.04 91.25 5.82L91.25 5.82L91.25 5.82Q92.11 6.59 92.11 7.35L92.11 7.35L92.11 10.05L92.11 10.05Q92.11 10.77 92.27 11.16L92.27 11.16L92.27 11.16Q92.44 11.55 92.81 11.84L92.81 11.84L91.27 12.92L91.27 12.92Q90.26 12.12 90.26 10.65L90.26 10.65L90.26 7.55L90.26 7.55Q90.26 7.31 90.01 7.05L90.01 7.05L90.01 7.05Q89.75 6.79 89.54 6.79L89.54 6.79L89.54 6.79Q89.32 6.79 88.73 7.38L88.73 7.38Z"></path></g><!----><g data-v-423bf9ae="" id="9cf5bd27-2b18-449e-aed5-f40e2402cf25" transform="matrix(4.455445376275492,0,0,4.455445376275492,-21.4653445153059,-7.565343813269372)" stroke="none" fill="#C76164"><path d="M9.305 19l.2-2h4.99l.2 2h-5.39zm.6-6h4.19l.2 2h-4.59l.2-2zm.4-4h3.39l.2 2h-3.79l.2-2zm.4-4h2.59l.2 2h-2.99l.2-2zM19 19h-2.295l-.2-2H18.5v-2h-2.195l-.2-2H18v-2h-2.095l-.2-2H17.5V7h-1.995l-.2-2H17V3h-1.895l-.11-1.1-1.99.2.09.9h-2.19l.09-.9-1.99-.2-.11 1.1H7v2h1.695l-.2 2H6.5v2h1.795l-.2 2H6v2h1.895l-.2 2H5.5v2h1.995l-.2 2H5v2h2.095l-.09.9 1.99.2.11-1.1h5.79l.11 1.1 1.99-.2-.09-.9H19v-2z"></path></g><!----><g data-v-423bf9ae="" id="43f02021-7a95-4d17-825f-4b3b96558b38" fill="#ffffff" transform="matrix(0.7268942084268223,0,0,0.7268942084268223,82.10001619134707,58.00830830554519)"><path d="M0.87 3.64L0.38 3.64L0.39 3.08L3.98 3.08L3.98 3.64L3.34 3.64L3.34 3.64Q2.97 3.64 2.85 3.72L2.85 3.72L2.85 3.72Q2.74 3.80 2.74 4.16L2.74 4.16L2.74 11.22L2.74 11.22Q2.74 11.57 2.83 11.67L2.83 11.67L2.83 11.67Q2.91 11.77 3.21 11.77L3.21 11.77L3.21 11.77Q6.08 11.74 6.73 11.63L6.73 11.63L6.73 11.63Q6.95 11.61 7.03 11.39L7.03 11.39L7.03 11.39Q7.11 11.17 7.31 10.05L7.31 10.05L7.80 10.08L7.33 12.41L0.57 12.41L0.56 11.87L0.95 11.87L0.95 11.87Q1.46 11.87 1.52 11.80L1.52 11.80L1.52 11.80Q1.61 11.72 1.61 11.33L1.61 11.33L1.61 4.09L1.61 4.09Q1.61 3.80 1.46 3.72L1.46 3.72L1.46 3.72Q1.31 3.64 0.87 3.64L0.87 3.64ZM15.91 7.83L15.91 7.83L15.91 7.83Q15.91 6.62 16.32 5.68L16.32 5.68L16.32 5.68Q16.73 4.72 17.42 4.12L17.42 4.12L17.42 4.12Q18.12 3.51 18.98 3.19L18.98 3.19L18.98 3.19Q19.82 2.88 20.77 2.88L20.77 2.88L20.77 2.88Q22.03 2.88 23.08 3.40L23.08 3.40L23.08 3.40Q24.16 3.93 24.87 5.07L24.87 5.07L24.87 5.07Q25.57 6.17 25.57 7.75L25.57 7.75L25.57 7.75Q25.57 8.70 25.27 9.54L25.27 9.54L25.27 9.54Q24.96 10.38 24.35 11.10L24.35 11.10L24.35 11.10Q23.75 11.81 22.81 12.22L22.81 12.22L22.81 12.22Q21.85 12.63 20.66 12.64L20.66 12.64L20.66 12.64Q19.52 12.64 18.59 12.23L18.59 12.23L18.59 12.23Q17.65 11.83 17.09 11.14L17.09 11.14L17.09 11.14Q16.52 10.45 16.22 9.60L16.22 9.60L16.22 9.60Q15.91 8.72 15.91 7.83ZM17.17 7.38L17.17 7.38L17.17 7.38Q17.17 8.52 17.60 9.60L17.60 9.60L17.60 9.60Q18.01 10.64 18.94 11.33L18.94 11.33L18.94 11.33Q19.84 12.03 21.03 12.04L21.03 12.04L21.03 12.04Q22.41 12.04 23.34 11.01L23.34 11.01L23.34 11.01Q24.29 9.97 24.29 8.10L24.29 8.10L24.29 8.10Q24.29 5.99 23.13 4.72L23.13 4.72L23.13 4.72Q21.98 3.46 20.47 3.45L20.47 3.45L20.47 3.45Q19.95 3.45 19.41 3.65L19.41 3.65L19.41 3.65Q18.87 3.85 18.36 4.25L18.36 4.25L18.36 4.25Q17.81 4.68 17.49 5.48L17.49 5.48L17.49 5.48Q17.17 6.27 17.17 7.38ZM34.07 8.02L34.07 8.02L34.07 8.02Q34.07 6.86 34.54 5.83L34.54 5.83L34.54 5.83Q35.01 4.85 35.76 4.27L35.76 4.27L35.76 4.27Q36.50 3.69 37.40 3.37L37.40 3.37L37.40 3.37Q38.29 3.05 39.14 3.05L39.14 3.05L39.14 3.05Q40.00 3.05 40.67 3.16L40.67 3.16L40.67 3.16Q41.30 3.26 41.60 3.37L41.60 3.37L41.60 3.37Q41.90 3.48 41.94 3.48L41.94 3.48L41.94 3.48Q42.11 3.48 42.13 3.41L42.13 3.41L42.13 3.41Q42.16 3.33 42.16 3.09L42.16 3.09L42.16 2.97L42.69 2.97L42.69 2.97Q42.73 4.30 42.86 5.64L42.86 5.64L42.36 5.65L42.36 5.65Q42.33 5.40 42.31 5.26L42.31 5.26L42.31 5.26Q42.31 5.20 42.31 5.13L42.31 5.13L42.31 5.13Q42.30 5.07 42.29 5.02L42.29 5.02L42.29 5.02Q42.29 4.98 42.29 4.95L42.29 4.95L42.29 4.95Q42.26 4.84 42.26 4.74L42.26 4.74L42.26 4.74Q42.26 4.68 42.22 4.59L42.22 4.59L42.22 4.59Q42.22 4.57 42.19 4.55L42.19 4.55L42.19 4.55Q42.16 4.52 42.16 4.50L42.16 4.50L42.16 4.50Q42.13 4.44 42.06 4.41L42.06 4.41L42.06 4.41Q42.02 4.38 41.99 4.37L41.99 4.37L41.99 4.37Q41.97 4.36 41.94 4.35L41.94 4.35L41.94 4.35Q41.92 4.35 41.90 4.33L41.90 4.33L41.90 4.33Q41.88 4.31 41.84 4.29L41.84 4.29L41.84 4.29Q41.79 4.27 41.75 4.25L41.75 4.25L41.75 4.25Q41.53 4.16 41.50 4.14L41.50 4.14L41.50 4.14Q41.15 3.96 40.51 3.83L40.51 3.83L40.51 3.83Q39.84 3.71 39.18 3.71L39.18 3.71L39.18 3.71Q37.45 3.71 36.36 4.84L36.36 4.84L36.36 4.84Q35.25 5.99 35.26 7.62L35.26 7.62L35.26 7.62Q35.26 9.35 36.48 10.69L36.48 10.69L36.48 10.69Q37.68 12.02 39.50 12.02L39.50 12.02L39.50 12.02Q40.50 12.02 41.45 11.49L41.45 11.49L41.45 11.49Q42.40 10.94 42.42 10.58L42.42 10.58L42.46 9.41L42.96 9.41L42.88 11.45L42.88 11.45Q42.81 11.49 42.68 11.57L42.68 11.57L42.68 11.57Q42.62 11.60 42.16 11.85L42.16 11.85L42.16 11.85Q41.78 12.05 41.34 12.23L41.34 12.23L41.34 12.23Q40.97 12.39 40.33 12.51L40.33 12.51L40.33 12.51Q39.72 12.63 39.15 12.64L39.15 12.64L39.15 12.64Q36.77 12.64 35.41 11.39L35.41 11.39L35.41 11.39Q34.07 10.14 34.07 8.02ZM51.00 12.41L50.99 11.87L51.16 11.87L51.16 11.87Q51.55 11.87 51.68 11.73L51.68 11.73L51.68 11.73Q51.80 11.57 52.14 10.83L52.14 10.83L53.05 8.82L53.62 7.53L53.62 7.53Q53.89 6.97 53.93 6.86L53.93 6.86L53.93 6.86Q54.00 6.70 54.05 6.60L54.05 6.60L54.05 6.60Q54.10 6.51 54.11 6.45L54.11 6.45L54.21 6.21L55.64 2.74L55.93 2.74L55.93 2.74Q56.79 4.98 58.97 10.25L58.97 10.25L58.97 10.25Q59.42 11.34 59.62 11.64L59.62 11.64L59.62 11.64Q59.75 11.87 60.19 11.87L60.19 11.87L60.40 11.87L60.39 12.41L57.20 12.41L57.21 11.87L57.63 11.87L57.63 11.87Q58.24 11.87 58.24 11.70L58.24 11.70L58.24 11.70Q58.24 11.63 58.11 11.27L58.11 11.27L57.07 8.72L53.82 8.72L52.71 11.18L52.71 11.18Q52.58 11.50 52.58 11.63L52.58 11.63L52.58 11.63Q52.58 11.79 52.67 11.83L52.67 11.83L52.67 11.83Q52.77 11.87 53.15 11.87L53.15 11.87L53.72 11.87L53.72 12.41L51.00 12.41ZM55.50 4.79L54.09 8.10L56.83 8.10L55.50 4.79ZM68.63 3.64L68.13 3.64L68.15 3.08L71.74 3.08L71.74 3.64L71.10 3.64L71.10 3.64Q70.72 3.64 70.61 3.72L70.61 3.72L70.61 3.72Q70.50 3.80 70.50 4.16L70.50 4.16L70.50 11.22L70.50 11.22Q70.50 11.57 70.58 11.67L70.58 11.67L70.58 11.67Q70.67 11.77 70.96 11.77L70.96 11.77L70.96 11.77Q73.83 11.74 74.49 11.63L74.49 11.63L74.49 11.63Q74.70 11.61 74.79 11.39L74.79 11.39L74.79 11.39Q74.87 11.17 75.07 10.05L75.07 10.05L75.56 10.08L75.09 12.41L68.33 12.41L68.32 11.87L68.71 11.87L68.71 11.87Q69.21 11.87 69.28 11.80L69.28 11.80L69.28 11.80Q69.36 11.72 69.37 11.33L69.37 11.33L69.37 4.09L69.37 4.09Q69.37 3.80 69.21 3.72L69.21 3.72L69.21 3.72Q69.06 3.64 68.63 3.64L68.63 3.64ZM92.83 10.04L92.83 10.04L93.32 9.98L93.51 10.85L93.51 10.85Q93.62 11.33 93.69 11.41L93.69 11.41L93.69 11.41Q93.75 11.49 94.17 11.64L94.17 11.64L94.17 11.64Q95.01 11.95 95.90 11.95L95.90 11.95L95.90 11.95Q96.69 11.95 97.23 11.49L97.23 11.49L97.23 11.49Q97.76 11.04 97.76 10.26L97.76 10.26L97.76 10.26Q97.76 9.65 97.30 9.21L97.30 9.21L97.30 9.21Q96.82 8.76 95.97 8.30L95.97 8.30L95.40 7.98L95.40 7.98Q94.65 7.55 94.42 7.36L94.42 7.36L94.42 7.36Q94.06 7.08 93.74 6.59L93.74 6.59L93.74 6.59Q93.43 6.10 93.43 5.46L93.43 5.46L93.43 5.46Q93.43 4.39 94.27 3.68L94.27 3.68L94.27 3.68Q95.12 2.97 96.22 2.97L96.22 2.97L96.22 2.97Q96.50 2.97 96.85 3.04L96.85 3.04L96.85 3.04Q97.05 3.08 97.38 3.17L97.38 3.17L97.62 3.25L97.62 3.25Q97.72 3.25 97.76 3.16L97.76 3.16L97.76 3.16Q97.82 3.05 97.82 2.98L97.82 2.98L97.83 2.88L98.31 2.85L98.52 5.41L98.01 5.43L97.89 4.18L97.89 4.18Q97.15 3.62 95.98 3.62L95.98 3.62L95.98 3.62Q95.34 3.62 94.83 4.05L94.83 4.05L94.83 4.05Q94.36 4.47 94.36 5.12L94.36 5.12L94.36 5.12Q94.36 5.72 94.81 6.17L94.81 6.17L94.81 6.17Q95.24 6.60 96.11 7.08L96.11 7.08L96.88 7.50L96.88 7.50Q97.83 8.03 98.36 8.59L98.36 8.59L98.36 8.59Q98.90 9.15 98.90 9.92L98.90 9.92L98.90 9.92Q98.90 10.99 98.04 11.76L98.04 11.76L98.04 11.76Q97.17 12.54 95.72 12.54L95.72 12.54L95.72 12.54Q95.16 12.54 94.65 12.41L94.65 12.41L94.65 12.41Q94.15 12.29 94.10 12.29L94.10 12.29L94.10 12.29Q93.84 12.29 93.84 12.58L93.84 12.58L93.86 12.76L93.38 12.80L93.38 12.80Q93.32 12.41 92.83 10.04ZM107.67 3.64L107.08 3.64L107.09 3.08L110.61 3.08L110.61 3.64L110.37 3.64L110.37 3.64Q109.83 3.64 109.66 3.73L109.66 3.73L109.66 3.73Q109.52 3.81 109.52 4.28L109.52 4.28L109.52 11.22L109.52 11.22Q109.52 11.68 109.63 11.77L109.63 11.77L109.63 11.77Q109.74 11.87 110.27 11.87L110.27 11.87L110.82 11.87L110.83 12.41L107.25 12.41L107.24 11.87L107.60 11.87L107.60 11.87Q108.16 11.87 108.27 11.77L108.27 11.77L108.27 11.77Q108.38 11.67 108.38 11.25L108.38 11.25L108.38 4.14L108.38 4.14Q108.38 3.77 108.28 3.71L108.28 3.71L108.28 3.71Q108.17 3.64 107.67 3.64L107.67 3.64ZM118.85 5.35L118.35 5.33L118.35 5.33Q118.47 4.17 118.56 3.08L118.56 3.08L126.64 3.08L126.64 3.08Q126.55 4.13 126.53 4.53L126.53 4.53L126.53 4.53Q126.49 5.26 126.46 5.32L126.46 5.32L125.97 5.30L125.97 5.30Q126.05 4.34 126.05 4.16L126.05 4.16L126.05 4.16Q126.05 3.88 125.90 3.79L125.90 3.79L125.90 3.79Q125.73 3.69 125.33 3.69L125.33 3.69L123.72 3.69L123.72 3.69Q123.22 3.69 123.09 3.79L123.09 3.79L123.09 3.79Q123.00 3.87 122.99 4.36L122.99 4.36L122.99 11.22L122.99 11.22Q122.99 11.66 123.14 11.76L123.14 11.76L123.14 11.76Q123.29 11.87 123.81 11.87L123.81 11.87L124.37 11.87L124.38 12.41L120.69 12.40L120.69 11.87L120.91 11.87L120.91 11.87Q121.58 11.87 121.72 11.79L121.72 11.79L121.72 11.79Q121.86 11.70 121.86 11.28L121.86 11.28L121.86 4.48L121.86 4.48Q121.86 3.92 121.77 3.80L121.77 3.80L121.77 3.80Q121.67 3.69 121.24 3.69L121.24 3.69L119.77 3.69L119.77 3.69Q119.59 3.69 119.52 3.71L119.52 3.71L119.52 3.71Q119.45 3.72 119.34 3.72L119.34 3.72L119.34 3.72Q119.31 3.72 119.20 3.79L119.20 3.79L119.20 3.79Q119.12 3.84 119.09 3.86L119.09 3.86L119.09 3.86Q119.06 3.88 119.02 3.99L119.02 3.99L119.02 3.99Q118.99 4.05 118.97 4.14L118.97 4.14L118.97 4.14Q118.94 4.21 118.92 4.36L118.92 4.36L118.92 4.36Q118.89 4.59 118.89 4.61L118.89 4.61L118.89 4.61Q118.89 4.80 118.88 4.95L118.88 4.95L118.88 4.95Q118.88 5.02 118.87 5.15L118.87 5.15L118.87 5.15Q118.86 5.29 118.85 5.35L118.85 5.35ZM134.39 3.64L134.37 3.08L141.59 3.08L141.59 3.08Q141.60 4.14 141.65 5.28L141.65 5.28L141.11 5.30L141.11 5.30Q141.09 4.66 141.04 4.25L141.04 4.25L141.04 4.25Q141.00 3.89 140.94 3.80L140.94 3.80L140.94 3.80Q140.89 3.71 140.77 3.69L140.77 3.69L140.77 3.69Q140.68 3.68 140.09 3.68L140.09 3.68L137.71 3.68L137.71 3.68Q137.16 3.68 137.02 3.77L137.02 3.77L137.02 3.77Q136.90 3.86 136.90 4.33L136.90 4.33L136.90 6.28L136.90 6.28Q136.90 6.69 136.95 6.76L136.95 6.76L136.95 6.76Q137.02 6.84 137.36 6.84L137.36 6.84L139.47 6.84L139.47 6.84Q139.84 6.84 139.92 6.73L139.92 6.73L139.92 6.73Q140 6.63 140.01 6.14L140.01 6.14L140.01 5.61L140.52 5.63L140.52 8.97L140.01 8.97L140.01 8.24L140.01 8.24Q140.01 7.66 139.93 7.57L139.93 7.57L139.93 7.57Q139.85 7.46 139.50 7.46L139.50 7.46L137.40 7.46L137.40 7.46Q137.07 7.46 136.98 7.54L136.98 7.54L136.98 7.54Q136.90 7.63 136.90 7.89L136.90 7.89L136.90 11.20L136.90 11.20Q136.90 11.57 136.98 11.67L136.98 11.67L136.98 11.67Q137.07 11.77 137.34 11.77L137.34 11.77L137.34 11.77Q140.26 11.75 140.79 11.69L140.79 11.69L140.79 11.69Q141.31 11.63 141.39 11.38L141.39 11.38L141.39 11.36L141.40 11.35L141.63 10.17L142.11 10.25L141.76 12.41L134.65 12.41L134.65 11.87L135.02 11.87L135.02 11.87Q135.58 11.87 135.67 11.80L135.67 11.80L135.67 11.80Q135.76 11.72 135.76 11.33L135.76 11.33L135.76 4.24L135.76 4.24Q135.76 3.82 135.61 3.73L135.61 3.73L135.61 3.73Q135.44 3.64 134.78 3.64L134.78 3.64L134.39 3.64ZM149.95 10.04L149.95 10.04L150.45 9.98L150.63 10.85L150.63 10.85Q150.74 11.33 150.81 11.41L150.81 11.41L150.81 11.41Q150.88 11.49 151.29 11.64L151.29 11.64L151.29 11.64Q152.13 11.95 153.02 11.95L153.02 11.95L153.02 11.95Q153.81 11.95 154.35 11.49L154.35 11.49L154.35 11.49Q154.88 11.04 154.88 10.26L154.88 10.26L154.88 10.26Q154.88 9.65 154.42 9.21L154.42 9.21L154.42 9.21Q153.95 8.76 153.09 8.30L153.09 8.30L152.52 7.98L152.52 7.98Q151.77 7.55 151.54 7.36L151.54 7.36L151.54 7.36Q151.18 7.08 150.87 6.59L150.87 6.59L150.87 6.59Q150.55 6.10 150.55 5.46L150.55 5.46L150.55 5.46Q150.55 4.39 151.40 3.68L151.40 3.68L151.40 3.68Q152.24 2.97 153.34 2.97L153.34 2.97L153.34 2.97Q153.62 2.97 153.97 3.04L153.97 3.04L153.97 3.04Q154.17 3.08 154.51 3.17L154.51 3.17L154.75 3.25L154.75 3.25Q154.84 3.25 154.88 3.16L154.88 3.16L154.88 3.16Q154.94 3.05 154.94 2.98L154.94 2.98L154.95 2.88L155.43 2.85L155.64 5.41L155.13 5.43L155.01 4.18L155.01 4.18Q154.27 3.62 153.10 3.62L153.10 3.62L153.10 3.62Q152.46 3.62 151.96 4.05L151.96 4.05L151.96 4.05Q151.48 4.47 151.48 5.12L151.48 5.12L151.48 5.12Q151.48 5.72 151.93 6.17L151.93 6.17L151.93 6.17Q152.36 6.60 153.23 7.08L153.23 7.08L154 7.50L154 7.50Q154.95 8.03 155.48 8.59L155.48 8.59L155.48 8.59Q156.02 9.15 156.02 9.92L156.02 9.92L156.02 9.92Q156.02 10.99 155.16 11.76L155.16 11.76L155.16 11.76Q154.29 12.54 152.84 12.54L152.84 12.54L152.84 12.54Q152.28 12.54 151.77 12.41L151.77 12.41L151.77 12.41Q151.27 12.29 151.22 12.29L151.22 12.29L151.22 12.29Q150.96 12.29 150.96 12.58L150.96 12.58L150.98 12.76L150.50 12.80L150.50 12.80Q150.44 12.41 149.95 10.04ZM173.78 3.64L173.77 3.08L180.95 3.08L180.95 3.08Q180.97 4.14 181.02 5.28L181.02 5.28L180.48 5.30L180.48 5.30Q180.46 4.66 180.41 4.25L180.41 4.25L180.41 4.25Q180.37 3.89 180.31 3.80L180.31 3.80L180.31 3.80Q180.26 3.71 180.14 3.69L180.14 3.69L180.14 3.69Q180.04 3.68 179.46 3.68L179.46 3.68L177.08 3.68L177.08 3.68Q176.53 3.68 176.39 3.77L176.39 3.77L176.39 3.77Q176.26 3.86 176.26 4.33L176.26 4.33L176.26 6.28L176.26 6.28Q176.26 6.69 176.32 6.76L176.32 6.76L176.32 6.76Q176.39 6.84 176.72 6.84L176.72 6.84L178.84 6.84L178.84 6.84Q179.20 6.84 179.29 6.74L179.29 6.74L179.29 6.74Q179.37 6.64 179.37 6.17L179.37 6.17L179.37 5.63L179.89 5.63L179.89 8.97L179.37 8.97L179.37 8.26L179.37 8.26Q179.37 7.68 179.29 7.57L179.29 7.57L179.29 7.57Q179.20 7.46 178.87 7.46L178.87 7.46L176.77 7.46L176.77 7.46Q176.44 7.46 176.35 7.54L176.35 7.54L176.35 7.54Q176.26 7.63 176.26 7.89L176.26 7.89L176.26 11.20L176.26 11.20Q176.26 11.60 176.33 11.73L176.33 11.73L176.33 11.73Q176.42 11.87 176.68 11.87L176.68 11.87L177.62 11.87L177.62 12.41L174.02 12.41L174.02 11.87L174.43 11.87L174.43 11.87Q174.94 11.87 175.03 11.79L175.03 11.79L175.03 11.79Q175.13 11.70 175.13 11.33L175.13 11.33L175.13 4.24L175.13 4.24Q175.13 3.79 174.96 3.71L174.96 3.71L174.96 3.71Q174.82 3.64 173.78 3.64L173.78 3.64ZM189.45 7.83L189.45 7.83L189.45 7.83Q189.45 6.62 189.85 5.68L189.85 5.68L189.85 5.68Q190.27 4.72 190.96 4.12L190.96 4.12L190.96 4.12Q191.65 3.51 192.51 3.19L192.51 3.19L192.51 3.19Q193.35 2.88 194.30 2.88L194.30 2.88L194.30 2.88Q195.56 2.88 196.62 3.40L196.62 3.40L196.62 3.40Q197.70 3.93 198.41 5.07L198.41 5.07L198.41 5.07Q199.10 6.17 199.11 7.75L199.11 7.75L199.11 7.75Q199.11 8.70 198.80 9.54L198.80 9.54L198.80 9.54Q198.50 10.38 197.89 11.10L197.89 11.10L197.89 11.10Q197.29 11.81 196.35 12.22L196.35 12.22L196.35 12.22Q195.38 12.63 194.20 12.64L194.20 12.64L194.20 12.64Q193.06 12.64 192.12 12.23L192.12 12.23L192.12 12.23Q191.19 11.83 190.63 11.14L190.63 11.14L190.63 11.14Q190.05 10.45 189.76 9.60L189.76 9.60L189.76 9.60Q189.45 8.72 189.45 7.83ZM190.71 7.38L190.71 7.38L190.71 7.38Q190.71 8.52 191.14 9.60L191.14 9.60L191.14 9.60Q191.54 10.64 192.47 11.33L192.47 11.33L192.47 11.33Q193.38 12.03 194.57 12.04L194.57 12.04L194.57 12.04Q195.95 12.04 196.88 11.01L196.88 11.01L196.88 11.01Q197.83 9.97 197.83 8.10L197.83 8.10L197.83 8.10Q197.83 5.99 196.67 4.72L196.67 4.72L196.67 4.72Q195.52 3.46 194.01 3.45L194.01 3.45L194.01 3.45Q193.49 3.45 192.95 3.65L192.95 3.65L192.95 3.65Q192.40 3.85 191.90 4.25L191.90 4.25L191.90 4.25Q191.35 4.68 191.03 5.48L191.03 5.48L191.03 5.48Q190.71 6.27 190.71 7.38ZM207.56 3.64L207.17 3.64L207.18 3.08L210.40 3.08L210.40 3.08Q211.54 3.08 212.14 3.21L212.14 3.21L212.14 3.21Q212.78 3.37 213.25 3.75L213.25 3.75L213.25 3.75Q214.25 4.57 214.25 5.71L214.25 5.71L214.25 5.71Q214.25 6.43 213.78 7.04L213.78 7.04L213.78 7.04Q213.29 7.66 212.26 7.92L212.26 7.92L214.94 11.49L214.94 11.49Q215.25 11.87 215.54 11.87L215.54 11.87L216.15 11.87L216.17 12.41L214.14 12.41L211.15 8.10L210.98 8.10L210.98 8.10Q210.94 8.10 210.88 8.11L210.88 8.11L210.88 8.11Q210.83 8.11 210.81 8.11L210.81 8.11L210.81 8.11Q209.93 8.11 209.54 8.03L209.54 8.03L209.54 11.46L209.54 11.46Q209.54 11.76 209.68 11.81L209.68 11.81L209.68 11.81Q209.80 11.87 210.51 11.87L210.51 11.87L211.22 11.87L211.19 12.41L207.46 12.41L207.46 11.87L207.79 11.87L207.79 11.87Q208.25 11.87 208.32 11.81L208.32 11.81L208.32 11.81Q208.40 11.74 208.40 11.46L208.40 11.46L208.40 4.14L208.40 4.14Q208.40 3.82 208.21 3.73L208.21 3.73L208.21 3.73Q207.98 3.64 207.56 3.64L207.56 3.64ZM209.54 4.28L209.54 7.57L209.54 7.57Q209.72 7.70 210.43 7.71L210.43 7.71L210.43 7.71Q211.70 7.71 212.28 7.27L212.28 7.27L212.28 7.27Q212.87 6.84 212.87 5.92L212.87 5.92L212.87 5.92Q212.87 4.92 212.10 4.27L212.10 4.27L212.10 4.27Q211.34 3.64 209.96 3.64L209.96 3.64L209.96 3.64Q209.71 3.64 209.62 3.75L209.62 3.75L209.62 3.75Q209.54 3.84 209.54 4.28L209.54 4.28ZM233.99 3.64L233.50 3.64L233.51 3.08L237.10 3.08L237.10 3.64L236.46 3.64L236.46 3.64Q236.09 3.64 235.97 3.72L235.97 3.72L235.97 3.72Q235.86 3.80 235.86 4.16L235.86 4.16L235.86 11.22L235.86 11.22Q235.86 11.57 235.95 11.67L235.95 11.67L235.95 11.67Q236.03 11.77 236.33 11.77L236.33 11.77L236.33 11.77Q239.20 11.74 239.85 11.63L239.85 11.63L239.85 11.63Q240.06 11.61 240.15 11.39L240.15 11.39L240.15 11.39Q240.23 11.17 240.43 10.05L240.43 10.05L240.92 10.08L240.45 12.41L233.69 12.41L233.68 11.87L234.07 11.87L234.07 11.87Q234.58 11.87 234.64 11.80L234.64 11.80L234.64 11.80Q234.73 11.72 234.73 11.33L234.73 11.33L234.73 4.09L234.73 4.09Q234.73 3.80 234.58 3.72L234.58 3.72L234.58 3.72Q234.42 3.64 233.99 3.64L233.99 3.64ZM249.03 7.83L249.03 7.83L249.03 7.83Q249.03 6.62 249.44 5.68L249.44 5.68L249.44 5.68Q249.85 4.72 250.54 4.12L250.54 4.12L250.54 4.12Q251.23 3.51 252.10 3.19L252.10 3.19L252.10 3.19Q252.94 2.88 253.89 2.88L253.89 2.88L253.89 2.88Q255.14 2.88 256.20 3.40L256.20 3.40L256.20 3.40Q257.28 3.93 257.99 5.07L257.99 5.07L257.99 5.07Q258.69 6.17 258.69 7.75L258.69 7.75L258.69 7.75Q258.69 8.70 258.38 9.54L258.38 9.54L258.38 9.54Q258.08 10.38 257.47 11.10L257.47 11.10L257.47 11.10Q256.87 11.81 255.93 12.22L255.93 12.22L255.93 12.22Q254.97 12.63 253.78 12.64L253.78 12.64L253.78 12.64Q252.64 12.64 251.71 12.23L251.71 12.23L251.71 12.23Q250.77 11.83 250.21 11.14L250.21 11.14L250.21 11.14Q249.63 10.45 249.34 9.60L249.34 9.60L249.34 9.60Q249.03 8.72 249.03 7.83ZM250.29 7.38L250.29 7.38L250.29 7.38Q250.29 8.52 250.72 9.60L250.72 9.60L250.72 9.60Q251.13 10.64 252.05 11.33L252.05 11.33L252.05 11.33Q252.96 12.03 254.15 12.04L254.15 12.04L254.15 12.04Q255.53 12.04 256.46 11.01L256.46 11.01L256.46 11.01Q257.41 9.97 257.41 8.10L257.41 8.10L257.41 8.10Q257.41 5.99 256.25 4.72L256.25 4.72L256.25 4.72Q255.10 3.46 253.59 3.45L253.59 3.45L253.59 3.45Q253.07 3.45 252.53 3.65L252.53 3.65L252.53 3.65Q251.99 3.85 251.48 4.25L251.48 4.25L251.48 4.25Q250.93 4.68 250.61 5.48L250.61 5.48L250.61 5.48Q250.29 6.27 250.29 7.38ZM267.19 8.02L267.19 8.02L267.19 8.02Q267.19 6.86 267.66 5.83L267.66 5.83L267.66 5.83Q268.13 4.85 268.88 4.27L268.88 4.27L268.88 4.27Q269.62 3.69 270.52 3.37L270.52 3.37L270.52 3.37Q271.41 3.05 272.25 3.05L272.25 3.05L272.25 3.05Q273.12 3.05 273.79 3.16L273.79 3.16L273.79 3.16Q274.42 3.26 274.72 3.37L274.72 3.37L274.72 3.37Q275.02 3.48 275.06 3.48L275.06 3.48L275.06 3.48Q275.23 3.48 275.25 3.41L275.25 3.41L275.25 3.41Q275.28 3.33 275.28 3.09L275.28 3.09L275.28 2.97L275.81 2.97L275.81 2.97Q275.85 4.30 275.98 5.64L275.98 5.64L275.47 5.65L275.47 5.65Q275.45 5.40 275.43 5.26L275.43 5.26L275.43 5.26Q275.43 5.20 275.43 5.13L275.43 5.13L275.43 5.13Q275.42 5.07 275.41 5.02L275.41 5.02L275.41 5.02Q275.41 4.98 275.41 4.95L275.41 4.95L275.41 4.95Q275.38 4.84 275.38 4.74L275.38 4.74L275.38 4.74Q275.38 4.68 275.34 4.59L275.34 4.59L275.34 4.59Q275.34 4.57 275.31 4.55L275.31 4.55L275.31 4.55Q275.28 4.52 275.28 4.50L275.28 4.50L275.28 4.50Q275.25 4.44 275.18 4.41L275.18 4.41L275.18 4.41Q275.14 4.38 275.11 4.37L275.11 4.37L275.11 4.37Q275.08 4.36 275.06 4.35L275.06 4.35L275.06 4.35Q275.04 4.35 275.02 4.33L275.02 4.33L275.02 4.33Q275.00 4.31 274.96 4.29L274.96 4.29L274.96 4.29Q274.91 4.27 274.87 4.25L274.87 4.25L274.87 4.25Q274.65 4.16 274.62 4.14L274.62 4.14L274.62 4.14Q274.27 3.96 273.63 3.83L273.63 3.83L273.63 3.83Q272.96 3.71 272.30 3.71L272.30 3.71L272.30 3.71Q270.57 3.71 269.48 4.84L269.48 4.84L269.48 4.84Q268.37 5.99 268.38 7.62L268.38 7.62L268.38 7.62Q268.38 9.35 269.60 10.69L269.60 10.69L269.60 10.69Q270.80 12.02 272.62 12.02L272.62 12.02L272.62 12.02Q273.62 12.02 274.57 11.49L274.57 11.49L274.57 11.49Q275.52 10.94 275.54 10.58L275.54 10.58L275.58 9.41L276.08 9.41L275.99 11.45L275.99 11.45Q275.93 11.49 275.80 11.57L275.80 11.57L275.80 11.57Q275.74 11.60 275.28 11.85L275.28 11.85L275.28 11.85Q274.90 12.05 274.46 12.23L274.46 12.23L274.46 12.23Q274.09 12.39 273.44 12.51L273.44 12.51L273.44 12.51Q272.84 12.63 272.27 12.64L272.27 12.64L272.27 12.64Q269.89 12.64 268.53 11.39L268.53 11.39L268.53 11.39Q267.19 10.14 267.19 8.02ZM284.12 12.41L284.11 11.87L284.28 11.87L284.28 11.87Q284.67 11.87 284.80 11.73L284.80 11.73L284.80 11.73Q284.92 11.57 285.26 10.83L285.26 10.83L286.17 8.82L286.74 7.53L286.74 7.53Q287.01 6.97 287.05 6.86L287.05 6.86L287.05 6.86Q287.12 6.70 287.17 6.60L287.17 6.60L287.17 6.60Q287.22 6.51 287.23 6.45L287.23 6.45L287.33 6.21L288.76 2.74L289.05 2.74L289.05 2.74Q289.91 4.98 292.09 10.25L292.09 10.25L292.09 10.25Q292.54 11.34 292.74 11.64L292.74 11.64L292.74 11.64Q292.87 11.87 293.31 11.87L293.31 11.87L293.52 11.87L293.51 12.41L290.32 12.41L290.33 11.87L290.75 11.87L290.75 11.87Q291.36 11.87 291.36 11.70L291.36 11.70L291.36 11.70Q291.36 11.63 291.22 11.27L291.22 11.27L290.19 8.72L286.94 8.72L285.83 11.18L285.83 11.18Q285.69 11.50 285.69 11.63L285.69 11.63L285.69 11.63Q285.69 11.79 285.79 11.83L285.79 11.83L285.79 11.83Q285.89 11.87 286.27 11.87L286.27 11.87L286.84 11.87L286.84 12.41L284.12 12.41ZM288.62 4.79L287.21 8.10L289.95 8.10L288.62 4.79ZM301.75 3.64L301.25 3.64L301.27 3.08L304.86 3.08L304.86 3.64L304.22 3.64L304.22 3.64Q303.84 3.64 303.73 3.72L303.73 3.72L303.73 3.72Q303.62 3.80 303.62 4.16L303.62 4.16L303.62 11.22L303.62 11.22Q303.62 11.57 303.70 11.67L303.70 11.67L303.70 11.67Q303.79 11.77 304.08 11.77L304.08 11.77L304.08 11.77Q306.95 11.74 307.61 11.63L307.61 11.63L307.61 11.63Q307.82 11.61 307.90 11.39L307.90 11.39L307.90 11.39Q307.99 11.17 308.18 10.05L308.18 10.05L308.68 10.08L308.21 12.41L301.45 12.41L301.44 11.87L301.83 11.87L301.83 11.87Q302.33 11.87 302.40 11.80L302.40 11.80L302.40 11.80Q302.48 11.72 302.49 11.33L302.49 11.33L302.49 4.09L302.49 4.09Q302.49 3.80 302.33 3.72L302.33 3.72L302.33 3.72Q302.18 3.64 301.75 3.64L301.75 3.64ZM326.38 3.64L325.98 3.64L326.01 3.08L329.10 3.08L329.10 3.08Q330.85 3.08 331.63 3.75L331.63 3.75L331.63 3.75Q332.40 4.42 332.39 5.37L332.39 5.37L332.39 5.37Q332.39 6.08 331.86 6.60L331.86 6.60L331.86 6.60Q331.30 7.14 330.60 7.35L330.60 7.35L330.60 7.35Q331.68 7.57 332.21 8.34L332.21 8.34L332.21 8.34Q332.73 9.08 332.73 10.01L332.73 10.01L332.73 10.01Q332.73 11.01 332.10 11.59L332.10 11.59L332.10 11.59Q331.50 12.13 330.54 12.28L330.54 12.28L330.54 12.28Q329.62 12.41 328.08 12.41L328.08 12.41L326.09 12.41L326.09 11.87L326.51 11.87L326.51 11.87Q326.87 11.87 326.99 11.80L326.99 11.80L326.99 11.80Q327.10 11.73 327.10 11.46L327.10 11.46L327.10 4.14L327.10 4.14Q327.10 3.81 326.95 3.72L326.95 3.72L326.95 3.72Q326.81 3.64 326.38 3.64L326.38 3.64ZM328.21 7.59L328.21 7.59L328.23 11.35L328.23 11.35Q328.23 11.63 328.40 11.71L328.40 11.71L328.40 11.71Q328.57 11.80 329.14 11.80L329.14 11.80L329.14 11.80Q331.40 11.80 331.40 9.91L331.40 9.91L331.40 9.91Q331.40 9.22 331.08 8.73L331.08 8.73L331.08 8.73Q330.76 8.24 330.24 8.02L330.24 8.02L330.24 8.02Q329.65 7.75 329.21 7.68L329.21 7.68L329.21 7.68Q328.73 7.59 328.21 7.59ZM328.23 4.01L328.23 7.19L329.61 7.19L329.61 7.19Q330.26 7.19 330.68 6.66L330.68 6.66L330.68 6.66Q331.08 6.15 331.09 5.54L331.09 5.54L331.09 5.54Q331.09 4.85 330.50 4.27L330.50 4.27L330.50 4.27Q329.93 3.69 328.65 3.69L328.65 3.69L328.65 3.69Q328.23 3.69 328.23 4.01L328.23 4.01ZM341.15 3.64L340.77 3.64L340.77 3.08L344.13 3.08L344.15 3.64L343.62 3.64L343.62 3.64Q343.18 3.64 343.03 3.73L343.03 3.73L343.03 3.73Q342.86 3.83 342.86 4.16L342.86 4.16L342.86 9.33L342.86 9.33Q342.86 9.63 342.89 9.78L342.89 9.78L342.89 9.78Q342.93 10.01 343.10 10.41L343.10 10.41L343.10 10.41Q343.27 10.80 343.56 11.09L343.56 11.09L343.56 11.09Q343.87 11.40 344.43 11.63L344.43 11.63L344.43 11.63Q345.00 11.85 345.78 11.85L345.78 11.85L345.78 11.85Q346.64 11.85 347.18 11.67L347.18 11.67L347.18 11.67Q347.74 11.48 348.05 11.22L348.05 11.22L348.05 11.22Q348.36 10.96 348.50 10.49L348.50 10.49L348.50 10.49Q348.67 9.95 348.68 9.66L348.68 9.66L348.68 9.66Q348.71 9.18 348.71 8.67L348.71 8.67L348.71 4.14L348.71 4.14Q348.71 3.81 348.57 3.72L348.57 3.72L348.57 3.72Q348.42 3.64 347.94 3.64L347.94 3.64L347.45 3.64L347.48 3.08L350.11 3.08L350.11 3.64L349.92 3.64L349.92 3.64Q349.60 3.64 349.48 3.75L349.48 3.75L349.48 3.75Q349.37 3.86 349.37 4.25L349.37 4.25L349.37 9.22L349.37 9.22Q349.37 12.67 345.78 12.67L345.78 12.67L345.78 12.67Q343.62 12.67 342.67 11.76L342.67 11.76L342.67 11.76Q341.73 10.86 341.73 9.41L341.73 9.41L341.73 4.14L341.73 4.14Q341.73 3.81 341.63 3.72L341.63 3.72L341.63 3.72Q341.52 3.64 341.15 3.64L341.15 3.64ZM357.82 10.04L357.82 10.04L358.31 9.98L358.50 10.85L358.50 10.85Q358.61 11.33 358.67 11.41L358.67 11.41L358.67 11.41Q358.74 11.49 359.15 11.64L359.15 11.64L359.15 11.64Q359.99 11.95 360.89 11.95L360.89 11.95L360.89 11.95Q361.68 11.95 362.22 11.49L362.22 11.49L362.22 11.49Q362.75 11.04 362.75 10.26L362.75 10.26L362.75 10.26Q362.75 9.65 362.29 9.21L362.29 9.21L362.29 9.21Q361.81 8.76 360.96 8.30L360.96 8.30L360.38 7.98L360.38 7.98Q359.64 7.55 359.41 7.36L359.41 7.36L359.41 7.36Q359.04 7.08 358.73 6.59L358.73 6.59L358.73 6.59Q358.42 6.10 358.42 5.46L358.42 5.46L358.42 5.46Q358.42 4.39 359.26 3.68L359.26 3.68L359.26 3.68Q360.10 2.97 361.21 2.97L361.21 2.97L361.21 2.97Q361.49 2.97 361.84 3.04L361.84 3.04L361.84 3.04Q362.04 3.08 362.37 3.17L362.37 3.17L362.61 3.25L362.61 3.25Q362.71 3.25 362.75 3.16L362.75 3.16L362.75 3.16Q362.80 3.05 362.80 2.98L362.80 2.98L362.82 2.88L363.30 2.85L363.51 5.41L363.00 5.43L362.88 4.18L362.88 4.18Q362.13 3.62 360.97 3.62L360.97 3.62L360.97 3.62Q360.33 3.62 359.82 4.05L359.82 4.05L359.82 4.05Q359.34 4.47 359.34 5.12L359.34 5.12L359.34 5.12Q359.34 5.72 359.80 6.17L359.80 6.17L359.80 6.17Q360.23 6.60 361.09 7.08L361.09 7.08L361.87 7.50L361.87 7.50Q362.82 8.03 363.35 8.59L363.35 8.59L363.35 8.59Q363.88 9.15 363.88 9.92L363.88 9.92L363.88 9.92Q363.88 10.99 363.03 11.76L363.03 11.76L363.03 11.76Q362.16 12.54 360.71 12.54L360.71 12.54L360.71 12.54Q360.14 12.54 359.64 12.41L359.64 12.41L359.64 12.41Q359.14 12.29 359.08 12.29L359.08 12.29L359.08 12.29Q358.83 12.29 358.83 12.58L358.83 12.58L358.85 12.76L358.37 12.80L358.37 12.80Q358.31 12.41 357.82 10.04ZM372.65 3.64L372.07 3.64L372.08 3.08L375.59 3.08L375.59 3.64L375.36 3.64L375.36 3.64Q374.81 3.64 374.64 3.73L374.64 3.73L374.64 3.73Q374.51 3.81 374.51 4.28L374.51 4.28L374.51 11.22L374.51 11.22Q374.51 11.68 374.62 11.77L374.62 11.77L374.62 11.77Q374.73 11.87 375.26 11.87L375.26 11.87L375.81 11.87L375.82 12.41L372.24 12.41L372.22 11.87L372.59 11.87L372.59 11.87Q373.15 11.87 373.26 11.77L373.26 11.77L373.26 11.77Q373.37 11.67 373.37 11.25L373.37 11.25L373.37 4.14L373.37 4.14Q373.37 3.77 373.27 3.71L373.27 3.71L373.27 3.71Q373.16 3.64 372.65 3.64L372.65 3.64ZM383.57 3.64L383.56 3.08L385.73 3.08L391.47 10.48L391.47 4.14L391.47 4.14Q391.47 3.81 391.31 3.72L391.31 3.72L391.31 3.72Q391.16 3.64 390.70 3.64L390.70 3.64L390.21 3.64L390.24 3.08L393.22 3.08L393.22 3.64L392.90 3.64L392.90 3.64Q392.43 3.64 392.28 3.75L392.28 3.75L392.28 3.75Q392.13 3.86 392.13 4.25L392.13 4.25L392.13 12.32L392.13 12.47L392.13 12.47Q392.13 12.52 392.12 12.57L392.12 12.57L392.12 12.57Q392.10 12.61 392.07 12.64L392.07 12.64L392.07 12.64Q392.05 12.65 392 12.65L392 12.65L391.81 12.65L391.75 12.65L391.72 12.65L391.69 12.64L391.69 12.64Q391.67 12.64 391.65 12.63L391.65 12.63L391.65 12.63Q391.64 12.61 391.64 12.60L391.64 12.60L391.64 12.60Q391.64 12.58 391.62 12.57L391.62 12.57L391.62 12.57Q391.60 12.54 391.57 12.50L391.57 12.50L391.57 12.50Q391.56 12.48 391.54 12.45L391.54 12.45L391.54 12.45Q391.51 12.41 391.50 12.40L391.50 12.40L385.40 4.56L385.46 11.22L385.46 11.22Q385.46 11.67 385.63 11.77L385.63 11.77L385.63 11.77Q385.79 11.87 386.50 11.87L386.50 11.87L386.74 11.87L386.74 12.41L383.80 12.41L383.80 11.87L384.22 11.87L384.22 11.87Q384.60 11.87 384.71 11.76L384.71 11.76L384.71 11.76Q384.80 11.66 384.81 11.25L384.81 11.25L384.81 3.80L384.67 3.64L383.57 3.64ZM400.97 3.64L400.96 3.08L408.17 3.08L408.17 3.08Q408.18 4.14 408.24 5.28L408.24 5.28L407.69 5.30L407.69 5.30Q407.67 4.66 407.62 4.25L407.62 4.25L407.62 4.25Q407.58 3.89 407.52 3.80L407.52 3.80L407.52 3.80Q407.47 3.71 407.35 3.69L407.35 3.69L407.35 3.69Q407.26 3.68 406.67 3.68L406.67 3.68L404.29 3.68L404.29 3.68Q403.74 3.68 403.60 3.77L403.60 3.77L403.60 3.77Q403.48 3.86 403.48 4.33L403.48 4.33L403.48 6.28L403.48 6.28Q403.48 6.69 403.53 6.76L403.53 6.76L403.53 6.76Q403.60 6.84 403.94 6.84L403.94 6.84L406.05 6.84L406.05 6.84Q406.42 6.84 406.50 6.73L406.50 6.73L406.50 6.73Q406.58 6.63 406.59 6.14L406.59 6.14L406.59 5.61L407.10 5.63L407.10 8.97L406.59 8.97L406.59 8.24L406.59 8.24Q406.59 7.66 406.51 7.57L406.51 7.57L406.51 7.57Q406.43 7.46 406.08 7.46L406.08 7.46L403.98 7.46L403.98 7.46Q403.65 7.46 403.56 7.54L403.56 7.54L403.56 7.54Q403.48 7.63 403.48 7.89L403.48 7.89L403.48 11.20L403.48 11.20Q403.48 11.57 403.56 11.67L403.56 11.67L403.56 11.67Q403.65 11.77 403.92 11.77L403.92 11.77L403.92 11.77Q406.84 11.75 407.37 11.69L407.37 11.69L407.37 11.69Q407.89 11.63 407.97 11.38L407.97 11.38L407.98 11.36L407.98 11.35L408.21 10.17L408.69 10.25L408.34 12.41L401.24 12.41L401.24 11.87L401.60 11.87L401.60 11.87Q402.17 11.87 402.25 11.80L402.25 11.80L402.25 11.80Q402.34 11.72 402.34 11.33L402.34 11.33L402.34 4.24L402.34 4.24Q402.34 3.82 402.19 3.73L402.19 3.73L402.19 3.73Q402.02 3.64 401.37 3.64L401.37 3.64L400.97 3.64ZM416.53 10.04L416.53 10.04L417.03 9.98L417.21 10.85L417.21 10.85Q417.32 11.33 417.39 11.41L417.39 11.41L417.39 11.41Q417.46 11.49 417.87 11.64L417.87 11.64L417.87 11.64Q418.71 11.95 419.60 11.95L419.60 11.95L419.60 11.95Q420.39 11.95 420.93 11.49L420.93 11.49L420.93 11.49Q421.46 11.04 421.46 10.26L421.46 10.26L421.46 10.26Q421.46 9.65 421.00 9.21L421.00 9.21L421.00 9.21Q420.53 8.76 419.67 8.30L419.67 8.30L419.10 7.98L419.10 7.98Q418.35 7.55 418.12 7.36L418.12 7.36L418.12 7.36Q417.76 7.08 417.45 6.59L417.45 6.59L417.45 6.59Q417.14 6.10 417.14 5.46L417.14 5.46L417.14 5.46Q417.14 4.39 417.98 3.68L417.98 3.68L417.98 3.68Q418.82 2.97 419.92 2.97L419.92 2.97L419.92 2.97Q420.21 2.97 420.55 3.04L420.55 3.04L420.55 3.04Q420.75 3.08 421.09 3.17L421.09 3.17L421.33 3.25L421.33 3.25Q421.42 3.25 421.46 3.16L421.46 3.16L421.46 3.16Q421.52 3.05 421.52 2.98L421.52 2.98L421.53 2.88L422.01 2.85L422.22 5.41L421.72 5.43L421.59 4.18L421.59 4.18Q420.85 3.62 419.69 3.62L419.69 3.62L419.69 3.62Q419.04 3.62 418.54 4.05L418.54 4.05L418.54 4.05Q418.06 4.47 418.06 5.12L418.06 5.12L418.06 5.12Q418.06 5.72 418.51 6.17L418.51 6.17L418.51 6.17Q418.94 6.60 419.81 7.08L419.81 7.08L420.58 7.50L420.58 7.50Q421.53 8.03 422.06 8.59L422.06 8.59L422.06 8.59Q422.60 9.15 422.60 9.92L422.60 9.92L422.60 9.92Q422.60 10.99 421.74 11.76L421.74 11.76L421.74 11.76Q420.88 12.54 419.42 12.54L419.42 12.54L419.42 12.54Q418.86 12.54 418.36 12.41L418.36 12.41L418.36 12.41Q417.85 12.29 417.80 12.29L417.80 12.29L417.80 12.29Q417.55 12.29 417.55 12.58L417.55 12.58L417.56 12.76L417.08 12.80L417.08 12.80Q417.02 12.41 416.53 10.04ZM430.75 10.04L430.75 10.04L431.25 9.98L431.43 10.85L431.43 10.85Q431.54 11.33 431.61 11.41L431.61 11.41L431.61 11.41Q431.68 11.49 432.09 11.64L432.09 11.64L432.09 11.64Q432.93 11.95 433.82 11.95L433.82 11.95L433.82 11.95Q434.61 11.95 435.15 11.49L435.15 11.49L435.15 11.49Q435.68 11.04 435.68 10.26L435.68 10.26L435.68 10.26Q435.68 9.65 435.22 9.21L435.22 9.21L435.22 9.21Q434.75 8.76 433.89 8.30L433.89 8.30L433.32 7.98L433.32 7.98Q432.57 7.55 432.34 7.36L432.34 7.36L432.34 7.36Q431.98 7.08 431.67 6.59L431.67 6.59L431.67 6.59Q431.35 6.10 431.35 5.46L431.35 5.46L431.35 5.46Q431.35 4.39 432.20 3.68L432.20 3.68L432.20 3.68Q433.04 2.97 434.14 2.97L434.14 2.97L434.14 2.97Q434.42 2.97 434.77 3.04L434.77 3.04L434.77 3.04Q434.97 3.08 435.31 3.17L435.31 3.17L435.54 3.25L435.54 3.25Q435.64 3.25 435.68 3.16L435.68 3.16L435.68 3.16Q435.74 3.05 435.74 2.98L435.74 2.98L435.75 2.88L436.23 2.85L436.44 5.41L435.93 5.43L435.81 4.18L435.81 4.18Q435.07 3.62 433.90 3.62L433.90 3.62L433.90 3.62Q433.26 3.62 432.76 4.05L432.76 4.05L432.76 4.05Q432.28 4.47 432.28 5.12L432.28 5.12L432.28 5.12Q432.28 5.72 432.73 6.17L432.73 6.17L432.73 6.17Q433.16 6.60 434.03 7.08L434.03 7.08L434.80 7.50L434.80 7.50Q435.75 8.03 436.28 8.59L436.28 8.59L436.28 8.59Q436.82 9.15 436.82 9.92L436.82 9.92L436.82 9.92Q436.82 10.99 435.96 11.76L435.96 11.76L435.96 11.76Q435.09 12.54 433.64 12.54L433.64 12.54L433.64 12.54Q433.08 12.54 432.57 12.41L432.57 12.41L432.57 12.41Q432.07 12.29 432.02 12.29L432.02 12.29L432.02 12.29Q431.76 12.29 431.76 12.58L431.76 12.58L431.78 12.76L431.30 12.80L431.30 12.80Q431.24 12.41 430.75 10.04Z"></path></g></svg>