<svg data-v-fde0c5aa="" xmlns="http://www.w3.org/2000/svg" viewBox="0 0 300 300" class="font"><!----><defs data-v-fde0c5aa=""><!----></defs><rect data-v-fde0c5aa="" fill="#552521" x="0" y="0" width="300px" height="300px" class="logo-background-square"></rect><defs data-v-fde0c5aa=""><!----></defs><g data-v-fde0c5aa="" id="4197b0d6-78f9-4c5b-a8d4-3af4ac8cc461" fill="#C76164" transform="matrix(2.377607293876069,0,0,2.377607293876069,39.334269954880355,128.00713253164636)"><path d="M5.99 8.81L5.99 8.81L5.99 8.81Q6.15 9.06 6.15 9.81L6.15 9.81L6.15 9.81Q6.15 10.56 5.84 11.07L5.84 11.07L5.84 11.07Q5.56 11.48 4.65 12.20L4.65 12.20L4.65 12.20Q3.74 12.92 3.30 12.92L3.30 12.92L3.30 12.92Q2.53 12.92 1.54 12.12L1.54 12.12L1.54 12.12Q0.55 11.31 0.28 10.35L0.28 10.35L1.83 9.28L1.83 9.28Q2.06 9.94 2.55 10.49L2.55 10.49L2.55 10.49Q3.04 11.03 3.24 11.03L3.24 11.03L3.24 11.03Q3.44 11.03 3.68 10.90L3.68 10.90L3.68 10.90Q3.91 10.77 4.03 10.63L4.03 10.63L4.03 10.63Q4.21 10.40 4.21 9.93L4.21 9.93L4.21 9.93Q4.21 9.45 3.99 9.34L3.99 9.34L3.99 9.34Q3.71 9.10 2.91 8.71L2.91 8.71L2.91 8.71Q2.10 8.32 1.41 7.86L1.41 7.86L1.41 7.86Q0.73 7.41 0.54 6.97L0.54 6.97L0.54 6.97Q0.35 6.54 0.35 5.84L0.35 5.84L0.35 5.84Q0.35 5.15 0.66 4.63L0.66 4.63L0.66 4.63Q0.94 4.23 1.85 3.51L1.85 3.51L1.85 3.51Q2.76 2.79 3.19 2.79L3.19 2.79L3.19 2.79Q3.96 2.79 4.96 3.59L4.96 3.59L4.96 3.59Q5.95 4.40 6.22 5.36L6.22 5.36L4.66 6.44L4.66 6.44Q4.44 5.78 3.95 5.23L3.95 5.23L3.95 5.23Q3.46 4.68 3.25 4.68L3.25 4.68L3.25 4.68Q3.05 4.68 2.81 4.80L2.81 4.80L2.81 4.80Q2.58 4.93 2.43 5.12L2.43 5.12L2.43 5.12Q2.28 5.31 2.28 5.76L2.28 5.76L2.28 5.76Q2.28 6.22 2.56 6.37L2.56 6.37L2.56 6.37Q2.79 6.57 3.58 6.99L3.58 6.99L3.58 6.99Q5.63 8.11 5.99 8.81ZM9.19 11.10L9.19 11.10L9.19 11.10Q9.41 11.31 9.53 11.31L9.53 11.31L9.53 11.31Q9.66 11.31 9.88 11.10L9.88 11.10L9.88 11.10Q10.09 10.89 10.19 10.72L10.19 10.72L10.19 10.72Q10.37 10.42 10.37 8.99L10.37 8.99L10.37 8.99Q10.37 7.56 10.19 7.24L10.19 7.24L10.19 7.24Q10.09 7.07 9.88 6.86L9.88 6.86L9.88 6.86Q9.66 6.65 9.53 6.65L9.53 6.65L9.53 6.65Q9.41 6.65 9.19 6.86L9.19 6.86L9.19 6.86Q8.97 7.07 8.88 7.24L8.88 7.24L8.88 7.24Q8.69 7.55 8.69 8.97L8.69 8.97L8.69 8.97Q8.69 10.40 8.88 10.72L8.88 10.72L8.88 10.72Q8.97 10.89 9.19 11.10ZM10.80 12.24L10.80 12.24L10.80 12.24Q9.94 12.92 9.53 12.92L9.53 12.92L9.53 12.92Q9.13 12.92 8.27 12.24L8.27 12.24L8.27 12.24Q7.41 11.55 7.21 11.21L7.21 11.21L7.21 11.21Q6.92 10.70 6.92 8.97L6.92 8.97L6.92 8.97Q6.92 7.25 7.21 6.75L7.21 6.75L7.21 6.75Q7.41 6.41 8.27 5.73L8.27 5.73L8.27 5.73Q9.13 5.04 9.53 5.04L9.53 5.04L9.53 5.04Q9.94 5.04 10.80 5.73L10.80 5.73L10.80 5.73Q11.66 6.41 11.86 6.75L11.86 6.75L11.86 6.75Q12.15 7.25 12.15 8.97L12.15 8.97L12.15 8.97Q12.15 10.70 11.86 11.21L11.86 11.21L11.86 11.21Q11.66 11.55 10.80 12.24ZM13.13 10.61L13.13 5.21L14.98 5.21L14.98 10.42L14.98 10.42Q14.98 10.65 15.20 10.91L15.20 10.91L15.20 10.91Q15.43 11.17 15.62 11.17L15.62 11.17L15.62 11.17Q15.82 11.17 16.44 10.60L16.44 10.60L16.44 5.21L18.28 5.21L18.28 12.75L16.86 12.75L16.69 11.93L16.69 11.93Q15.64 12.92 15.22 12.92L15.22 12.92L15.22 12.92Q14.80 12.92 13.97 12.14L13.97 12.14L13.97 12.14Q13.13 11.37 13.13 10.61L13.13 10.61ZM23.38 6.68L21.81 6.68L21.81 9.77L21.81 9.77Q21.81 10.43 22.26 10.98L22.26 10.98L22.26 10.98Q22.71 11.52 23.49 11.84L23.49 11.84L21.95 12.92L21.95 12.92Q21.11 12.53 20.54 11.84L20.54 11.84L20.54 11.84Q19.96 11.14 19.96 10.37L19.96 10.37L19.96 6.68L19.26 6.68L19.26 5.63L19.96 5.46L19.96 5.46Q19.94 4.77 19.80 4.38L19.80 4.38L19.80 4.38Q19.66 3.98 19.26 3.60L19.26 3.60L20.80 2.52L20.80 2.52Q21.81 3.32 21.81 4.79L21.81 4.79L21.81 5.21L23.38 5.21L23.38 6.68ZM26.60 7.38L26.60 12.75L24.75 12.75L24.75 5.11L24.75 5.11Q24.75 4.40 24.58 4.02L24.58 4.02L24.58 4.02Q24.42 3.64 24.05 3.33L24.05 3.33L25.59 2.25L25.59 2.25Q26.60 3.05 26.60 4.51L26.60 4.51L26.60 5.81L26.60 5.81Q27.47 5.04 27.86 5.04L27.86 5.04L27.86 5.04Q28.25 5.04 29.11 5.82L29.11 5.82L29.11 5.82Q29.97 6.59 29.97 7.35L29.97 7.35L29.97 10.05L29.97 10.05Q29.97 10.77 30.14 11.16L30.14 11.16L30.14 11.16Q30.31 11.55 30.67 11.84L30.67 11.84L29.13 12.92L29.13 12.92Q28.13 12.12 28.13 10.65L28.13 10.65L28.13 7.55L28.13 7.55Q28.13 7.31 27.87 7.05L27.87 7.05L27.87 7.05Q27.62 6.79 27.41 6.79L27.41 6.79L27.41 6.79Q27.19 6.79 26.60 7.38L26.60 7.38ZM37.02 4.86L37.02 6.79L39.52 6.79L39.52 8.48L37.02 8.48L37.02 11.06L40.36 11.06L40.36 12.75L35.08 12.75L35.08 4.13L37.02 2.79L40.14 2.79L40.14 4.49L37.53 4.49L37.02 4.86ZM43.47 7.38L43.47 12.75L41.62 12.75L41.62 7.92L41.62 7.92Q41.62 7.21 41.45 6.82L41.45 6.82L41.45 6.82Q41.29 6.43 40.92 6.13L40.92 6.13L42.46 5.05L42.46 5.05Q42.98 5.47 43.23 6.02L43.23 6.02L43.23 6.02Q44.27 5.04 44.70 5.04L44.70 5.04L44.70 5.04Q45.12 5.04 45.98 5.82L45.98 5.82L45.98 5.82Q46.84 6.59 46.84 7.35L46.84 7.35L46.84 10.05L46.84 10.05Q46.84 10.77 47.01 11.16L47.01 11.16L47.01 11.16Q47.18 11.55 47.54 11.84L47.54 11.84L46.00 12.92L46.00 12.92Q45.00 12.12 45.00 10.65L45.00 10.65L45.00 7.55L45.00 7.55Q45.00 7.31 44.74 7.05L44.74 7.05L44.74 7.05Q44.49 6.79 44.28 6.79L44.28 6.79L44.28 6.79Q44.06 6.79 43.47 7.38L43.47 7.38ZM48.33 6.89L48.33 6.89Q48.44 6.54 49.20 5.79L49.20 5.79L49.20 5.79Q49.97 5.04 50.33 5.04L50.33 5.04L50.33 5.04Q50.69 5.04 51.58 5.80L51.58 5.80L51.58 5.11L51.58 5.11Q51.58 4.40 51.41 4.02L51.41 4.02L51.41 4.02Q51.24 3.64 50.88 3.33L50.88 3.33L52.42 2.25L52.42 2.25Q53.42 3.05 53.42 4.51L53.42 4.51L53.42 12.75L52.00 12.75L51.83 11.93L51.83 11.93Q50.81 12.92 50.30 12.92L50.30 12.92L50.30 12.92Q49.97 12.92 49.20 12.17L49.20 12.17L49.20 12.17Q48.44 11.42 48.33 11.07L48.33 11.07L48.33 11.07Q48.17 10.72 48.17 8.98L48.17 8.98L48.17 8.98Q48.17 7.24 48.33 6.89L48.33 6.89ZM51.48 7.34L51.48 7.34L51.48 7.34Q51.38 7.17 51.08 6.98L51.08 6.98L51.08 6.98Q50.78 6.79 50.62 6.79L50.62 6.79L50.62 6.79Q50.47 6.79 50.30 6.97L50.30 6.97L50.30 6.97Q50.12 7.15 50.04 7.35L50.04 7.35L50.04 7.35Q49.95 7.55 49.95 8.98L49.95 8.98L49.95 8.98Q49.95 10.42 50.04 10.61L50.04 10.61L50.04 10.61Q50.12 10.79 50.30 10.98L50.30 10.98L50.30 10.98Q50.47 11.17 50.62 11.17L50.62 11.17L50.62 11.17Q50.76 11.17 51.07 10.98L51.07 10.98L51.07 10.98Q51.37 10.79 51.46 10.65L51.46 10.65L51.46 10.65Q51.55 10.46 51.58 9.52L51.58 9.52L51.58 9.00L51.58 9.00Q51.58 7.52 51.48 7.34ZM59.85 3.51L59.85 3.51L59.85 3.51Q60.77 2.79 61.25 2.79L61.25 2.79L61.25 2.79Q61.73 2.79 62.73 3.70L62.73 3.70L62.73 3.70Q63.73 4.62 63.97 5.19L63.97 5.19L63.97 5.19Q64.12 5.56 64.12 7.03L64.12 7.03L64.12 8.68L64.12 8.68Q64.12 10.15 63.97 10.51L63.97 10.51L63.97 10.51Q63.71 11.06 62.75 11.91L62.75 11.91L62.75 11.91Q61.78 12.75 61.22 12.75L61.22 12.75L58.32 12.75L58.32 6.76L58.32 6.76Q58.32 5.63 58.16 5.17L58.16 5.17L58.16 5.17Q58.00 4.70 57.48 4.07L57.48 4.07L59.33 2.79L59.33 2.79Q59.63 3.01 59.85 3.51ZM61.22 4.79L61.22 4.79L61.22 4.79Q60.82 4.79 60.21 5.05L60.21 5.05L60.21 5.05Q60.26 5.35 60.26 5.95L60.26 5.95L60.26 11.06L61.22 11.06L61.22 11.06Q61.42 11.06 61.69 10.77L61.69 10.77L61.69 10.77Q61.96 10.49 62.08 10.23L62.08 10.23L62.08 10.23Q62.19 9.97 62.19 8.82L62.19 8.82L62.19 7.03L62.19 7.03Q62.19 5.88 62.08 5.62L62.08 5.62L62.08 5.62Q61.96 5.36 61.69 5.07L61.69 5.07L61.69 5.07Q61.42 4.79 61.22 4.79ZM70.48 8.96L70.48 8.96L70.48 9.46L67.09 9.46L67.09 9.46Q67.09 10.30 67.30 10.79L67.30 10.79L67.30 10.79Q67.37 10.96 67.55 11.14L67.55 11.14L67.55 11.14Q67.73 11.31 67.93 11.31L67.93 11.31L67.93 11.31Q68.12 11.31 68.42 10.98L68.42 10.98L68.42 10.98Q68.71 10.64 68.88 10.16L68.88 10.16L70.32 11.19L70.32 11.19Q69.94 11.89 69.17 12.40L69.17 12.40L69.17 12.40Q68.39 12.92 67.91 12.92L67.91 12.92L67.91 12.92Q67.44 12.92 66.54 12.18L66.54 12.18L66.54 12.18Q65.63 11.44 65.44 11.02L65.44 11.02L65.44 11.02Q65.24 10.61 65.24 8.98L65.24 8.98L65.24 8.98Q65.24 7.35 65.44 6.94L65.44 6.94L65.44 6.94Q65.63 6.52 66.54 5.78L66.54 5.78L66.54 5.78Q67.44 5.04 67.86 5.04L67.86 5.04L67.86 5.04Q68.28 5.04 69.18 5.78L69.18 5.78L69.18 5.78Q70.08 6.52 70.28 6.94L70.28 6.94L70.28 6.94Q70.48 7.35 70.48 8.96ZM68.54 7.20L68.54 7.20L68.54 7.20Q68.43 7.01 68.22 6.83L68.22 6.83L68.22 6.83Q68.00 6.65 67.81 6.65L67.81 6.65L67.81 6.65Q67.62 6.65 67.38 7.02L67.38 7.02L67.38 7.02Q67.14 7.39 67.09 8.13L67.09 8.13L68.68 8.13L68.68 8.13Q68.64 7.39 68.54 7.20ZM76.45 10.49L76.45 10.49L76.45 10.49Q76.45 10.92 75.38 11.92L75.38 11.92L75.38 11.92Q74.30 12.92 73.77 12.92L73.77 12.92L73.77 12.92Q73.25 12.92 72.47 12.40L72.47 12.40L72.47 12.40Q71.69 11.89 71.32 11.19L71.32 11.19L72.76 10.19L72.76 10.19Q73.46 11.17 73.78 11.17L73.78 11.17L73.78 11.17Q74.02 11.17 74.37 10.93L74.37 10.93L74.37 10.93Q74.72 10.70 74.72 10.49L74.72 10.49L74.72 10.49Q74.72 10.43 74.38 10.24L74.38 10.24L74.38 10.24Q74.05 10.05 73.56 9.77L73.56 9.77L73.56 9.77Q73.08 9.48 72.60 9.12L72.60 9.12L72.60 9.12Q72.13 8.76 71.79 8.25L71.79 8.25L71.79 8.25Q71.46 7.73 71.46 7.20L71.46 7.20L71.46 7.20Q71.46 6.66 72.41 5.85L72.41 5.85L72.41 5.85Q73.36 5.04 73.87 5.04L73.87 5.04L73.87 5.04Q74.38 5.04 75.16 5.56L75.16 5.56L75.16 5.56Q75.94 6.08 76.31 6.78L76.31 6.78L74.87 7.77L74.87 7.77Q74.17 6.79 73.85 6.79L73.85 6.79L73.85 6.79Q73.68 6.79 73.44 6.98L73.44 6.98L73.44 6.98Q73.19 7.17 73.19 7.32L73.19 7.32L73.19 7.32Q73.19 7.48 73.70 7.80L73.70 7.80L73.70 7.80Q74.21 8.12 74.82 8.46L74.82 8.46L74.82 8.46Q75.43 8.81 75.94 9.36L75.94 9.36L75.94 9.36Q76.45 9.91 76.45 10.49ZM77.29 10.65L77.29 5.21L79.14 5.21L79.14 10.05L79.14 10.05Q79.14 10.77 79.31 11.16L79.31 11.16L79.31 11.16Q79.48 11.55 79.84 11.84L79.84 11.84L78.30 12.92L78.30 12.92Q77.29 12.12 77.29 10.65L77.29 10.65ZM78.25 2.28L78.25 2.28L78.25 2.28Q78.40 2.28 78.93 2.74L78.93 2.74L78.93 2.74Q79.46 3.19 79.46 3.35L79.46 3.35L79.46 3.35Q79.46 3.51 78.93 3.98L78.93 3.98L78.93 3.98Q78.39 4.44 78.24 4.44L78.24 4.44L78.24 4.44Q78.09 4.44 77.56 3.98L77.56 3.98L77.56 3.98Q77.03 3.53 77.03 3.37L77.03 3.37L77.03 3.37Q77.03 3.21 77.57 2.74L77.57 2.74L77.57 2.74Q78.11 2.28 78.25 2.28ZM83.56 7.32L83.56 7.32L83.56 7.32Q83.45 7.15 83.16 6.97L83.16 6.97L83.16 6.97Q82.87 6.79 82.71 6.79L82.71 6.79L82.71 6.79Q82.56 6.79 82.38 6.97L82.38 6.97L82.38 6.97Q82.21 7.15 82.15 7.31L82.15 7.31L82.15 7.31Q82.04 7.53 82.04 8.71L82.04 8.71L82.04 8.71Q82.04 9.88 82.15 10.09L82.15 10.09L82.15 10.09Q82.21 10.23 82.38 10.42L82.38 10.42L82.38 10.42Q82.56 10.61 82.71 10.61L82.71 10.61L82.71 10.61Q82.87 10.61 83.17 10.42L83.17 10.42L83.17 10.42Q83.47 10.23 83.57 10.07L83.57 10.07L83.57 10.07Q83.66 9.91 83.66 8.70L83.66 8.70L83.66 8.70Q83.66 7.49 83.56 7.32ZM84.11 5.21L85.48 5.21L85.48 12.29L85.48 12.29Q85.48 14.08 85.32 14.43L85.32 14.43L85.32 14.43Q85.16 14.77 84.20 15.51L84.20 15.51L84.20 15.51Q83.23 16.25 82.75 16.25L82.75 16.25L82.75 16.25Q82.26 16.25 81.54 15.77L81.54 15.77L81.54 15.77Q80.81 15.29 80.44 14.66L80.44 14.66L81.89 13.66L82.03 13.85L82.03 13.85Q82.54 14.50 82.75 14.50L82.75 14.50L82.75 14.50Q82.95 14.50 83.21 14.32L83.21 14.32L83.21 14.32Q83.47 14.14 83.56 13.94L83.56 13.94L83.56 13.94Q83.65 13.73 83.65 12.22L83.65 12.22L83.69 11.68L83.69 11.68Q82.74 12.36 82.40 12.36L82.40 12.36L82.40 12.36Q82.05 12.36 81.31 11.62L81.31 11.62L81.31 11.62Q80.57 10.88 80.42 10.51L80.42 10.51L80.42 10.51Q80.26 10.15 80.26 8.71L80.26 8.71L80.26 8.71Q80.26 7.27 80.42 6.89L80.42 6.89L80.42 6.89Q80.57 6.52 81.31 5.78L81.31 5.78L81.31 5.78Q82.05 5.04 82.45 5.04L82.45 5.04L82.45 5.04Q82.84 5.04 83.94 5.94L83.94 5.94L84.11 5.21ZM88.73 7.38L88.73 12.75L86.88 12.75L86.88 7.92L86.88 7.92Q86.88 7.21 86.72 6.82L86.72 6.82L86.72 6.82Q86.55 6.43 86.18 6.13L86.18 6.13L87.72 5.05L87.72 5.05Q88.24 5.47 88.49 6.02L88.49 6.02L88.49 6.02Q89.53 5.04 89.96 5.04L89.96 5.04L89.96 5.04Q90.38 5.04 91.25 5.82L91.25 5.82L91.25 5.82Q92.11 6.59 92.11 7.35L92.11 7.35L92.11 10.05L92.11 10.05Q92.11 10.77 92.27 11.16L92.27 11.16L92.27 11.16Q92.44 11.55 92.81 11.84L92.81 11.84L91.27 12.92L91.27 12.92Q90.26 12.12 90.26 10.65L90.26 10.65L90.26 7.55L90.26 7.55Q90.26 7.31 90.01 7.05L90.01 7.05L90.01 7.05Q89.75 6.79 89.54 6.79L89.54 6.79L89.54 6.79Q89.32 6.79 88.73 7.38L88.73 7.38Z"></path></g><!----><!----></svg>