<svg data-v-423bf9ae="" xmlns="http://www.w3.org/2000/svg" viewBox="0 0 593 90" class="iconLeftSlogan"><!----><!----><!----><g data-v-423bf9ae="" id="41628fa8-b46f-453b-9965-6db5da742737" fill="white" transform="matrix(4.285714285714286,0,0,4.285714285714286,81.17623499887333,-9.642857142857139)"><path d="M5.99 8.81L5.99 8.81L5.99 8.81Q6.15 9.06 6.15 9.81L6.15 9.81L6.15 9.81Q6.15 10.56 5.84 11.07L5.84 11.07L5.84 11.07Q5.56 11.48 4.65 12.20L4.65 12.20L4.65 12.20Q3.74 12.92 3.30 12.92L3.30 12.92L3.30 12.92Q2.53 12.92 1.54 12.12L1.54 12.12L1.54 12.12Q0.55 11.31 0.28 10.35L0.28 10.35L1.83 9.28L1.83 9.28Q2.06 9.94 2.55 10.49L2.55 10.49L2.55 10.49Q3.04 11.03 3.24 11.03L3.24 11.03L3.24 11.03Q3.44 11.03 3.68 10.90L3.68 10.90L3.68 10.90Q3.91 10.77 4.03 10.63L4.03 10.63L4.03 10.63Q4.21 10.40 4.21 9.93L4.21 9.93L4.21 9.93Q4.21 9.45 3.99 9.34L3.99 9.34L3.99 9.34Q3.71 9.10 2.91 8.71L2.91 8.71L2.91 8.71Q2.10 8.32 1.41 7.86L1.41 7.86L1.41 7.86Q0.73 7.41 0.54 6.97L0.54 6.97L0.54 6.97Q0.35 6.54 0.35 5.84L0.35 5.84L0.35 5.84Q0.35 5.15 0.66 4.63L0.66 4.63L0.66 4.63Q0.94 4.23 1.85 3.51L1.85 3.51L1.85 3.51Q2.76 2.79 3.19 2.79L3.19 2.79L3.19 2.79Q3.96 2.79 4.96 3.59L4.96 3.59L4.96 3.59Q5.95 4.40 6.22 5.36L6.22 5.36L4.66 6.44L4.66 6.44Q4.44 5.78 3.95 5.23L3.95 5.23L3.95 5.23Q3.46 4.68 3.25 4.68L3.25 4.68L3.25 4.68Q3.05 4.68 2.81 4.80L2.81 4.80L2.81 4.80Q2.58 4.93 2.43 5.12L2.43 5.12L2.43 5.12Q2.28 5.31 2.28 5.76L2.28 5.76L2.28 5.76Q2.28 6.22 2.56 6.37L2.56 6.37L2.56 6.37Q2.79 6.57 3.58 6.99L3.58 6.99L3.58 6.99Q5.63 8.11 5.99 8.81ZM9.19 11.10L9.19 11.10L9.19 11.10Q9.41 11.31 9.53 11.31L9.53 11.31L9.53 11.31Q9.66 11.31 9.88 11.10L9.88 11.10L9.88 11.10Q10.09 10.89 10.19 10.72L10.19 10.72L10.19 10.72Q10.37 10.42 10.37 8.99L10.37 8.99L10.37 8.99Q10.37 7.56 10.19 7.24L10.19 7.24L10.19 7.24Q10.09 7.07 9.88 6.86L9.88 6.86L9.88 6.86Q9.66 6.65 9.53 6.65L9.53 6.65L9.53 6.65Q9.41 6.65 9.19 6.86L9.19 6.86L9.19 6.86Q8.97 7.07 8.88 7.24L8.88 7.24L8.88 7.24Q8.69 7.55 8.69 8.97L8.69 8.97L8.69 8.97Q8.69 10.40 8.88 10.72L8.88 10.72L8.88 10.72Q8.97 10.89 9.19 11.10ZM10.80 12.24L10.80 12.24L10.80 12.24Q9.94 12.92 9.53 12.92L9.53 12.92L9.53 12.92Q9.13 12.92 8.27 12.24L8.27 12.24L8.27 12.24Q7.41 11.55 7.21 11.21L7.21 11.21L7.21 11.21Q6.92 10.70 6.92 8.97L6.92 8.97L6.92 8.97Q6.92 7.25 7.21 6.75L7.21 6.75L7.21 6.75Q7.41 6.41 8.27 5.73L8.27 5.73L8.27 5.73Q9.13 5.04 9.53 5.04L9.53 5.04L9.53 5.04Q9.94 5.04 10.80 5.73L10.80 5.73L10.80 5.73Q11.66 6.41 11.86 6.75L11.86 6.75L11.86 6.75Q12.15 7.25 12.15 8.97L12.15 8.97L12.15 8.97Q12.15 10.70 11.86 11.21L11.86 11.21L11.86 11.21Q11.66 11.55 10.80 12.24ZM13.13 10.61L13.13 5.21L14.98 5.21L14.98 10.42L14.98 10.42Q14.98 10.65 15.20 10.91L15.20 10.91L15.20 10.91Q15.43 11.17 15.62 11.17L15.62 11.17L15.62 11.17Q15.82 11.17 16.44 10.60L16.44 10.60L16.44 5.21L18.28 5.21L18.28 12.75L16.86 12.75L16.69 11.93L16.69 11.93Q15.64 12.92 15.22 12.92L15.22 12.92L15.22 12.92Q14.80 12.92 13.97 12.14L13.97 12.14L13.97 12.14Q13.13 11.37 13.13 10.61L13.13 10.61ZM23.38 6.68L21.81 6.68L21.81 9.77L21.81 9.77Q21.81 10.43 22.26 10.98L22.26 10.98L22.26 10.98Q22.71 11.52 23.49 11.84L23.49 11.84L21.95 12.92L21.95 12.92Q21.11 12.53 20.54 11.84L20.54 11.84L20.54 11.84Q19.96 11.14 19.96 10.37L19.96 10.37L19.96 6.68L19.26 6.68L19.26 5.63L19.96 5.46L19.96 5.46Q19.94 4.77 19.80 4.38L19.80 4.38L19.80 4.38Q19.66 3.98 19.26 3.60L19.26 3.60L20.80 2.52L20.80 2.52Q21.81 3.32 21.81 4.79L21.81 4.79L21.81 5.21L23.38 5.21L23.38 6.68ZM26.60 7.38L26.60 12.75L24.75 12.75L24.75 5.11L24.75 5.11Q24.75 4.40 24.58 4.02L24.58 4.02L24.58 4.02Q24.42 3.64 24.05 3.33L24.05 3.33L25.59 2.25L25.59 2.25Q26.60 3.05 26.60 4.51L26.60 4.51L26.60 5.81L26.60 5.81Q27.47 5.04 27.86 5.04L27.86 5.04L27.86 5.04Q28.25 5.04 29.11 5.82L29.11 5.82L29.11 5.82Q29.97 6.59 29.97 7.35L29.97 7.35L29.97 10.05L29.97 10.05Q29.97 10.77 30.14 11.16L30.14 11.16L30.14 11.16Q30.31 11.55 30.67 11.84L30.67 11.84L29.13 12.92L29.13 12.92Q28.13 12.12 28.13 10.65L28.13 10.65L28.13 7.55L28.13 7.55Q28.13 7.31 27.87 7.05L27.87 7.05L27.87 7.05Q27.62 6.79 27.41 6.79L27.41 6.79L27.41 6.79Q27.19 6.79 26.60 7.38L26.60 7.38ZM37.02 4.86L37.02 6.79L39.52 6.79L39.52 8.48L37.02 8.48L37.02 11.06L40.36 11.06L40.36 12.75L35.08 12.75L35.08 4.13L37.02 2.79L40.14 2.79L40.14 4.49L37.53 4.49L37.02 4.86ZM43.47 7.38L43.47 12.75L41.62 12.75L41.62 7.92L41.62 7.92Q41.62 7.21 41.45 6.82L41.45 6.82L41.45 6.82Q41.29 6.43 40.92 6.13L40.92 6.13L42.46 5.05L42.46 5.05Q42.98 5.47 43.23 6.02L43.23 6.02L43.23 6.02Q44.27 5.04 44.70 5.04L44.70 5.04L44.70 5.04Q45.12 5.04 45.98 5.82L45.98 5.82L45.98 5.82Q46.84 6.59 46.84 7.35L46.84 7.35L46.84 10.05L46.84 10.05Q46.84 10.77 47.01 11.16L47.01 11.16L47.01 11.16Q47.18 11.55 47.54 11.84L47.54 11.84L46.00 12.92L46.00 12.92Q45.00 12.12 45.00 10.65L45.00 10.65L45.00 7.55L45.00 7.55Q45.00 7.31 44.74 7.05L44.74 7.05L44.74 7.05Q44.49 6.79 44.28 6.79L44.28 6.79L44.28 6.79Q44.06 6.79 43.47 7.38L43.47 7.38ZM48.33 6.89L48.33 6.89Q48.44 6.54 49.20 5.79L49.20 5.79L49.20 5.79Q49.97 5.04 50.33 5.04L50.33 5.04L50.33 5.04Q50.69 5.04 51.58 5.80L51.58 5.80L51.58 5.11L51.58 5.11Q51.58 4.40 51.41 4.02L51.41 4.02L51.41 4.02Q51.24 3.64 50.88 3.33L50.88 3.33L52.42 2.25L52.42 2.25Q53.42 3.05 53.42 4.51L53.42 4.51L53.42 12.75L52.00 12.75L51.83 11.93L51.83 11.93Q50.81 12.92 50.30 12.92L50.30 12.92L50.30 12.92Q49.97 12.92 49.20 12.17L49.20 12.17L49.20 12.17Q48.44 11.42 48.33 11.07L48.33 11.07L48.33 11.07Q48.17 10.72 48.17 8.98L48.17 8.98L48.17 8.98Q48.17 7.24 48.33 6.89L48.33 6.89ZM51.48 7.34L51.48 7.34L51.48 7.34Q51.38 7.17 51.08 6.98L51.08 6.98L51.08 6.98Q50.78 6.79 50.62 6.79L50.62 6.79L50.62 6.79Q50.47 6.79 50.30 6.97L50.30 6.97L50.30 6.97Q50.12 7.15 50.04 7.35L50.04 7.35L50.04 7.35Q49.95 7.55 49.95 8.98L49.95 8.98L49.95 8.98Q49.95 10.42 50.04 10.61L50.04 10.61L50.04 10.61Q50.12 10.79 50.30 10.98L50.30 10.98L50.30 10.98Q50.47 11.17 50.62 11.17L50.62 11.17L50.62 11.17Q50.76 11.17 51.07 10.98L51.07 10.98L51.07 10.98Q51.37 10.79 51.46 10.65L51.46 10.65L51.46 10.65Q51.55 10.46 51.58 9.52L51.58 9.52L51.58 9.00L51.58 9.00Q51.58 7.52 51.48 7.34ZM61.61 2.95L63.55 2.95L63.55 8.26L63.55 8.26Q63.55 9.04 63.64 9.46L63.64 9.46L63.64 9.46Q63.73 9.87 64.01 10.39L64.01 10.39L64.01 10.39Q64.29 10.92 64.39 10.92L64.39 10.92L64.39 10.92Q64.50 10.92 64.78 10.39L64.78 10.39L64.78 10.39Q65.06 9.87 65.16 9.46L65.16 9.46L65.16 9.46Q65.25 9.04 65.25 8.26L65.25 8.26L65.25 6.76L65.25 6.76Q65.25 5.59 65.09 5.12L65.09 5.12L65.09 5.12Q64.93 4.65 64.41 3.96L64.41 3.96L66.09 2.79L66.09 2.79Q66.54 3.09 66.86 3.93L66.86 3.93L66.86 3.93Q67.19 4.77 67.19 5.95L67.19 5.95L67.19 8.26L67.19 8.26Q67.19 9.35 66.98 10.06L66.98 10.06L66.98 10.06Q66.77 10.77 65.82 11.84L65.82 11.84L65.82 11.84Q64.88 12.92 64.40 12.92L64.40 12.92L64.40 12.92Q64.11 12.92 63.58 12.39L63.58 12.39L63.58 12.39Q63.06 11.86 62.58 11.14L62.58 11.14L62.58 11.14Q62.08 11.87 61.57 12.40L61.57 12.40L61.57 12.40Q61.05 12.92 60.76 12.92L60.76 12.92L60.76 12.92Q60.28 12.92 59.34 11.84L59.34 11.84L59.34 11.84Q58.39 10.77 58.18 10.06L58.18 10.06L58.18 10.06Q57.97 9.35 57.97 8.26L57.97 8.26L57.97 2.95L59.91 2.95L59.91 8.26L59.91 8.26Q59.91 9.17 60.00 9.52L60.00 9.52L60.00 9.52Q60.10 9.87 60.38 10.39L60.38 10.39L60.38 10.39Q60.66 10.92 60.77 10.92L60.77 10.92L60.77 10.92Q60.87 10.92 61.15 10.39L61.15 10.39L61.15 10.39Q61.43 9.87 61.52 9.46L61.52 9.46L61.52 9.46Q61.61 9.04 61.61 8.26L61.61 8.26L61.61 2.95ZM73.33 8.96L73.33 8.96L73.33 9.46L69.94 9.46L69.94 9.46Q69.94 10.30 70.15 10.79L70.15 10.79L70.15 10.79Q70.22 10.96 70.41 11.14L70.41 11.14L70.41 11.14Q70.59 11.31 70.78 11.31L70.78 11.31L70.78 11.31Q70.98 11.31 71.27 10.98L71.27 10.98L71.27 10.98Q71.57 10.64 71.74 10.16L71.74 10.16L73.18 11.19L73.18 11.19Q72.80 11.89 72.02 12.40L72.02 12.40L72.02 12.40Q71.25 12.92 70.77 12.92L70.77 12.92L70.77 12.92Q70.29 12.92 69.39 12.18L69.39 12.18L69.39 12.18Q68.49 11.44 68.29 11.02L68.29 11.02L68.29 11.02Q68.10 10.61 68.10 8.98L68.10 8.98L68.10 8.98Q68.10 7.35 68.29 6.94L68.29 6.94L68.29 6.94Q68.49 6.52 69.39 5.78L69.39 5.78L69.39 5.78Q70.29 5.04 70.71 5.04L70.71 5.04L70.71 5.04Q71.13 5.04 72.04 5.78L72.04 5.78L72.04 5.78Q72.94 6.52 73.14 6.94L73.14 6.94L73.14 6.94Q73.33 7.35 73.33 8.96ZM71.39 7.20L71.39 7.20L71.39 7.20Q71.29 7.01 71.07 6.83L71.07 6.83L71.07 6.83Q70.85 6.65 70.67 6.65L70.67 6.65L70.67 6.65Q70.48 6.65 70.24 7.02L70.24 7.02L70.24 7.02Q70.00 7.39 69.94 8.13L69.94 8.13L71.54 8.13L71.54 8.13Q71.50 7.39 71.39 7.20ZM76.17 12.75L74.80 12.75L74.80 5.11L74.80 5.11Q74.80 4.40 74.63 4.02L74.63 4.02L74.63 4.02Q74.47 3.64 74.10 3.33L74.10 3.33L75.64 2.25L75.64 2.25Q76.65 3.05 76.65 4.51L76.65 4.51L76.65 5.78L76.65 5.78Q77.49 5.04 77.86 5.04L77.86 5.04L77.86 5.04Q78.23 5.04 79.00 5.79L79.00 5.79L79.00 5.79Q79.76 6.54 79.87 6.89L79.87 6.89L79.87 6.89Q80.02 7.24 80.02 8.98L80.02 8.98L80.02 8.98Q80.02 10.72 79.87 11.07L79.87 11.07L79.87 11.07Q79.76 11.42 79.00 12.17L79.00 12.17L79.00 12.17Q78.23 12.92 77.90 12.92L77.90 12.92L77.90 12.92Q77.41 12.92 76.33 11.90L76.33 11.90L76.17 12.75ZM76.72 10.62L76.72 10.62L76.72 10.62Q76.82 10.79 77.12 10.98L77.12 10.98L77.12 10.98Q77.42 11.17 77.57 11.17L77.57 11.17L77.57 11.17Q77.73 11.17 77.90 10.99L77.90 10.99L77.90 10.99Q78.08 10.81 78.16 10.61L78.16 10.61L78.16 10.61Q78.25 10.42 78.25 8.98L78.25 8.98L78.25 8.98Q78.25 7.55 78.16 7.36L78.16 7.36L78.16 7.36Q78.08 7.17 77.90 6.98L77.90 6.98L77.90 6.98Q77.73 6.79 77.58 6.79L77.58 6.79L77.58 6.79Q77.43 6.79 77.13 6.98L77.13 6.98L77.13 6.98Q76.83 7.17 76.73 7.31L76.73 7.31L76.73 7.31Q76.62 7.55 76.62 8.99L76.62 8.99L76.62 8.99Q76.62 10.44 76.72 10.62ZM86.45 3.51L86.45 3.51L86.45 3.51Q87.37 2.79 87.85 2.79L87.85 2.79L87.85 2.79Q88.33 2.79 89.33 3.70L89.33 3.70L89.33 3.70Q90.33 4.62 90.57 5.19L90.57 5.19L90.57 5.19Q90.72 5.56 90.72 7.03L90.72 7.03L90.72 8.68L90.72 8.68Q90.72 10.15 90.57 10.51L90.57 10.51L90.57 10.51Q90.31 11.06 89.35 11.91L89.35 11.91L89.35 11.91Q88.38 12.75 87.82 12.75L87.82 12.75L84.92 12.75L84.92 6.76L84.92 6.76Q84.92 5.63 84.76 5.17L84.76 5.17L84.76 5.17Q84.60 4.70 84.08 4.07L84.08 4.07L85.93 2.79L85.93 2.79Q86.23 3.01 86.45 3.51ZM87.82 4.79L87.82 4.79L87.82 4.79Q87.42 4.79 86.81 5.05L86.81 5.05L86.81 5.05Q86.86 5.35 86.86 5.95L86.86 5.95L86.86 11.06L87.82 11.06L87.82 11.06Q88.02 11.06 88.29 10.77L88.29 10.77L88.29 10.77Q88.56 10.49 88.68 10.23L88.68 10.23L88.68 10.23Q88.79 9.97 88.79 8.82L88.79 8.82L88.79 7.03L88.79 7.03Q88.79 5.88 88.68 5.62L88.68 5.62L88.68 5.62Q88.56 5.36 88.29 5.07L88.29 5.07L88.29 5.07Q88.02 4.79 87.82 4.79ZM97.08 8.96L97.08 8.96L97.08 9.46L93.69 9.46L93.69 9.46Q93.69 10.30 93.90 10.79L93.90 10.79L93.90 10.79Q93.97 10.96 94.15 11.14L94.15 11.14L94.15 11.14Q94.33 11.31 94.53 11.31L94.53 11.31L94.53 11.31Q94.72 11.31 95.02 10.98L95.02 10.98L95.02 10.98Q95.31 10.64 95.48 10.16L95.48 10.16L96.92 11.19L96.92 11.19Q96.54 11.89 95.77 12.40L95.77 12.40L95.77 12.40Q94.99 12.92 94.51 12.92L94.51 12.92L94.51 12.92Q94.04 12.92 93.14 12.18L93.14 12.18L93.14 12.18Q92.23 11.44 92.04 11.02L92.04 11.02L92.04 11.02Q91.84 10.61 91.84 8.98L91.84 8.98L91.84 8.98Q91.84 7.35 92.04 6.94L92.04 6.94L92.04 6.94Q92.23 6.52 93.14 5.78L93.14 5.78L93.14 5.78Q94.04 5.04 94.46 5.04L94.46 5.04L94.46 5.04Q94.88 5.04 95.78 5.78L95.78 5.78L95.78 5.78Q96.68 6.52 96.88 6.94L96.88 6.94L96.88 6.94Q97.08 7.35 97.08 8.96ZM95.14 7.20L95.14 7.20L95.14 7.20Q95.03 7.01 94.82 6.83L94.82 6.83L94.82 6.83Q94.60 6.65 94.41 6.65L94.41 6.65L94.41 6.65Q94.22 6.65 93.98 7.02L93.98 7.02L93.98 7.02Q93.74 7.39 93.69 8.13L93.69 8.13L95.28 8.13L95.28 8.13Q95.24 7.39 95.14 7.20ZM103.05 10.49L103.05 10.49L103.05 10.49Q103.05 10.92 101.98 11.92L101.98 11.92L101.98 11.92Q100.90 12.92 100.37 12.92L100.37 12.92L100.37 12.92Q99.85 12.92 99.07 12.40L99.07 12.40L99.07 12.40Q98.29 11.89 97.92 11.19L97.92 11.19L99.36 10.19L99.36 10.19Q100.06 11.17 100.38 11.17L100.38 11.17L100.38 11.17Q100.62 11.17 100.97 10.93L100.97 10.93L100.97 10.93Q101.32 10.70 101.32 10.49L101.32 10.49L101.32 10.49Q101.32 10.43 100.98 10.24L100.98 10.24L100.98 10.24Q100.65 10.05 100.16 9.77L100.16 9.77L100.16 9.77Q99.68 9.48 99.20 9.12L99.20 9.12L99.20 9.12Q98.73 8.76 98.39 8.25L98.39 8.25L98.39 8.25Q98.06 7.73 98.06 7.20L98.06 7.20L98.06 7.20Q98.06 6.66 99.01 5.85L99.01 5.85L99.01 5.85Q99.96 5.04 100.47 5.04L100.47 5.04L100.47 5.04Q100.98 5.04 101.76 5.56L101.76 5.56L101.76 5.56Q102.54 6.08 102.91 6.78L102.91 6.78L101.47 7.77L101.47 7.77Q100.77 6.79 100.45 6.79L100.45 6.79L100.45 6.79Q100.28 6.79 100.04 6.98L100.04 6.98L100.04 6.98Q99.79 7.17 99.79 7.32L99.79 7.32L99.79 7.32Q99.79 7.48 100.30 7.80L100.30 7.80L100.30 7.80Q100.81 8.12 101.42 8.46L101.42 8.46L101.42 8.46Q102.03 8.81 102.54 9.36L102.54 9.36L102.54 9.36Q103.05 9.91 103.05 10.49ZM103.89 10.65L103.89 5.21L105.74 5.21L105.74 10.05L105.74 10.05Q105.74 10.77 105.91 11.16L105.91 11.16L105.91 11.16Q106.08 11.55 106.44 11.84L106.44 11.84L104.90 12.92L104.90 12.92Q103.89 12.12 103.89 10.65L103.89 10.65ZM104.85 2.28L104.85 2.28L104.85 2.28Q105 2.28 105.53 2.74L105.53 2.74L105.53 2.74Q106.06 3.19 106.06 3.35L106.06 3.35L106.06 3.35Q106.06 3.51 105.53 3.98L105.53 3.98L105.53 3.98Q104.99 4.44 104.84 4.44L104.84 4.44L104.84 4.44Q104.69 4.44 104.16 3.98L104.16 3.98L104.16 3.98Q103.63 3.53 103.63 3.37L103.63 3.37L103.63 3.37Q103.63 3.21 104.17 2.74L104.17 2.74L104.17 2.74Q104.71 2.28 104.85 2.28ZM110.16 7.32L110.16 7.32L110.16 7.32Q110.05 7.15 109.76 6.97L109.76 6.97L109.76 6.97Q109.47 6.79 109.31 6.79L109.31 6.79L109.31 6.79Q109.16 6.79 108.98 6.97L108.98 6.97L108.98 6.97Q108.81 7.15 108.75 7.31L108.75 7.31L108.75 7.31Q108.64 7.53 108.64 8.71L108.64 8.71L108.64 8.71Q108.64 9.88 108.75 10.09L108.75 10.09L108.75 10.09Q108.81 10.23 108.98 10.42L108.98 10.42L108.98 10.42Q109.16 10.61 109.31 10.61L109.31 10.61L109.31 10.61Q109.47 10.61 109.77 10.42L109.77 10.42L109.77 10.42Q110.07 10.23 110.17 10.07L110.17 10.07L110.17 10.07Q110.26 9.91 110.26 8.70L110.26 8.70L110.26 8.70Q110.26 7.49 110.16 7.32ZM110.71 5.21L112.08 5.21L112.08 12.29L112.08 12.29Q112.08 14.08 111.92 14.43L111.92 14.43L111.92 14.43Q111.76 14.77 110.80 15.51L110.80 15.51L110.80 15.51Q109.83 16.25 109.35 16.25L109.35 16.25L109.35 16.25Q108.86 16.25 108.14 15.77L108.14 15.77L108.14 15.77Q107.41 15.29 107.04 14.66L107.04 14.66L108.49 13.66L108.63 13.85L108.63 13.85Q109.14 14.50 109.35 14.50L109.35 14.50L109.35 14.50Q109.55 14.50 109.81 14.32L109.81 14.32L109.81 14.32Q110.07 14.14 110.16 13.94L110.16 13.94L110.16 13.94Q110.25 13.73 110.25 12.22L110.25 12.22L110.29 11.68L110.29 11.68Q109.34 12.36 109.00 12.36L109.00 12.36L109.00 12.36Q108.65 12.36 107.91 11.62L107.91 11.62L107.91 11.62Q107.17 10.88 107.02 10.51L107.02 10.51L107.02 10.51Q106.86 10.15 106.86 8.71L106.86 8.71L106.86 8.71Q106.86 7.27 107.02 6.89L107.02 6.89L107.02 6.89Q107.17 6.52 107.91 5.78L107.91 5.78L107.91 5.78Q108.65 5.04 109.05 5.04L109.05 5.04L109.05 5.04Q109.44 5.04 110.54 5.94L110.54 5.94L110.71 5.21ZM115.33 7.38L115.33 12.75L113.48 12.75L113.48 7.92L113.48 7.92Q113.48 7.21 113.32 6.82L113.32 6.82L113.32 6.82Q113.15 6.43 112.78 6.13L112.78 6.13L114.32 5.05L114.32 5.05Q114.84 5.47 115.09 6.02L115.09 6.02L115.09 6.02Q116.13 5.04 116.56 5.04L116.56 5.04L116.56 5.04Q116.98 5.04 117.85 5.82L117.85 5.82L117.85 5.82Q118.71 6.59 118.71 7.35L118.71 7.35L118.71 10.05L118.71 10.05Q118.71 10.77 118.87 11.16L118.87 11.16L118.87 11.16Q119.04 11.55 119.41 11.84L119.41 11.84L117.87 12.92L117.87 12.92Q116.86 12.12 116.86 10.65L116.86 10.65L116.86 7.55L116.86 7.55Q116.86 7.31 116.61 7.05L116.61 7.05L116.61 7.05Q116.35 6.79 116.14 6.79L116.14 6.79L116.14 6.79Q115.92 6.79 115.33 7.38L115.33 7.38Z"></path></g><!----><g data-v-423bf9ae="" id="8f876f61-0af6-4a61-9be0-03baf77ce83b" transform="matrix(4.455445376275492,0,0,4.455445376275492,-21.4653445153059,-7.565343813269372)" stroke="none" fill="white"><path d="M9.305 19l.2-2h4.99l.2 2h-5.39zm.6-6h4.19l.2 2h-4.59l.2-2zm.4-4h3.39l.2 2h-3.79l.2-2zm.4-4h2.59l.2 2h-2.99l.2-2zM19 19h-2.295l-.2-2H18.5v-2h-2.195l-.2-2H18v-2h-2.095l-.2-2H17.5V7h-1.995l-.2-2H17V3h-1.895l-.11-1.1-1.99.2.09.9h-2.19l.09-.9-1.99-.2-.11 1.1H7v2h1.695l-.2 2H6.5v2h1.795l-.2 2H6v2h1.895l-.2 2H5.5v2h1.995l-.2 2H5v2h2.095l-.09.9 1.99.2.11-1.1h5.79l.11 1.1 1.99-.2-.09-.9H19v-2z"></path></g><!----><g data-v-423bf9ae="" id="c9ea8100-7042-4073-a39f-9c06773adcf2" fill="white" transform="matrix(0.7832884634639807,0,0,0.7832884634639807,82.25874171276399,55.55092168007813)"><path d="M8.41 5.88L7.42 15.68L5.28 15.68L4.37 6.38L4.20 6.38L3.29 15.68L1.15 15.68L0.15 5.88L1.22 5.88L2.16 15.18L2.32 15.18L3.21 5.88L5.36 5.88L6.24 15.18L6.41 15.18L7.35 5.88L8.41 5.88ZM16.88 15.68L16.88 5.88L22.82 5.88L22.82 6.97L18.06 6.97L18.06 10.22L22.74 10.22L22.74 11.31L18.06 11.31L18.06 14.59L22.90 14.59L22.90 15.68L16.88 15.68ZM31.93 15.68L31.93 14.59L32.77 14.59L32.77 6.97L31.93 6.97L31.93 5.88L35.90 5.88L35.90 5.88Q36.60 5.88 37.13 6.08L37.13 6.08L37.13 6.08Q37.67 6.27 38.05 6.61L38.05 6.61L38.05 6.61Q38.42 6.94 38.60 7.41L38.60 7.41L38.60 7.41Q38.79 7.88 38.79 8.43L38.79 8.43L38.79 8.60L38.79 8.60Q38.79 9.00 38.67 9.34L38.67 9.34L38.67 9.34Q38.54 9.67 38.32 9.94L38.32 9.94L38.32 9.94Q38.09 10.21 37.79 10.39L37.79 10.39L37.79 10.39Q37.49 10.58 37.14 10.68L37.14 10.68L37.14 10.85L37.14 10.85Q37.84 11.05 38.32 11.60L38.32 11.60L38.32 11.60Q38.79 12.15 38.79 12.95L38.79 12.95L38.79 13.12L38.79 13.12Q38.79 13.66 38.60 14.13L38.60 14.13L38.60 14.13Q38.42 14.60 38.05 14.95L38.05 14.95L38.05 14.95Q37.67 15.29 37.13 15.48L37.13 15.48L37.13 15.48Q36.60 15.68 35.90 15.68L35.90 15.68L31.93 15.68ZM33.95 11.31L33.95 14.59L35.81 14.59L35.81 14.59Q36.64 14.59 37.16 14.17L37.16 14.17L37.16 14.17Q37.67 13.76 37.67 13.03L37.67 13.03L37.67 12.95L37.67 12.95Q37.67 12.19 37.18 11.75L37.18 11.75L37.18 11.75Q36.69 11.31 35.85 11.31L35.85 11.31L33.95 11.31ZM33.95 6.97L33.95 10.22L35.85 10.22L35.85 10.22Q36.69 10.22 37.18 9.79L37.18 9.79L37.18 9.79Q37.67 9.35 37.67 8.60L37.67 8.60L37.67 8.51L37.67 8.51Q37.67 7.80 37.16 7.38L37.16 7.38L37.16 7.38Q36.64 6.97 35.81 6.97L35.81 6.97L33.95 6.97ZM63.29 6.97L63.29 5.88L66.51 5.88L66.51 5.88Q68.33 5.88 69.17 6.75L69.17 6.75L69.17 6.75Q70.01 7.62 70.01 9.52L70.01 9.52L70.01 12.04L70.01 12.04Q70.01 13.94 69.17 14.81L69.17 14.81L69.17 14.81Q68.33 15.68 66.51 15.68L66.51 15.68L63.29 15.68L63.29 14.57L64.13 14.57L64.13 6.97L63.29 6.97ZM65.31 14.59L66.35 14.59L66.35 14.59Q66.99 14.59 67.46 14.46L67.46 14.46L67.46 14.46Q67.93 14.34 68.24 14.04L68.24 14.04L68.24 14.04Q68.54 13.73 68.69 13.23L68.69 13.23L68.69 13.23Q68.84 12.73 68.84 11.96L68.84 11.96L68.84 9.60L68.84 9.60Q68.84 8.83 68.69 8.33L68.69 8.33L68.69 8.33Q68.54 7.83 68.24 7.53L68.24 7.53L68.24 7.53Q67.93 7.22 67.46 7.10L67.46 7.10L67.46 7.10Q66.99 6.97 66.35 6.97L66.35 6.97L65.31 6.97L65.31 14.59ZM79.16 15.68L79.16 5.88L85.09 5.88L85.09 6.97L80.33 6.97L80.33 10.22L85.01 10.22L85.01 11.31L80.33 11.31L80.33 14.59L85.18 14.59L85.18 15.68L79.16 15.68ZM96.56 15.68L93.79 5.88L95.05 5.88L97.61 15.18L97.78 15.18L100.34 5.88L101.60 5.88L98.83 15.68L96.56 15.68ZM110.29 15.68L110.29 5.88L116.23 5.88L116.23 6.97L111.47 6.97L111.47 10.22L116.14 10.22L116.14 11.31L111.47 11.31L111.47 14.59L116.31 14.59L116.31 15.68L110.29 15.68ZM125.76 15.68L125.76 5.88L126.94 5.88L126.94 14.59L132.06 14.59L132.06 15.68L125.76 15.68ZM140.95 11.87L140.95 9.69L140.95 9.69Q140.95 7.78 141.86 6.73L141.86 6.73L141.86 6.73Q142.77 5.68 144.40 5.68L144.40 5.68L144.40 5.68Q146.02 5.68 146.93 6.73L146.93 6.73L146.93 6.73Q147.84 7.78 147.84 9.69L147.84 9.69L147.84 11.87L147.84 11.87Q147.84 13.83 146.93 14.85L146.93 14.85L146.93 14.85Q146.02 15.88 144.40 15.88L144.40 15.88L144.40 15.88Q142.77 15.88 141.86 14.85L141.86 14.85L141.86 14.85Q140.95 13.83 140.95 11.87L140.95 11.87ZM144.40 14.78L144.40 14.78L144.40 14.78Q145.53 14.78 146.10 14.01L146.10 14.01L146.10 14.01Q146.66 13.23 146.66 11.79L146.66 11.79L146.66 9.77L146.66 9.77Q146.66 8.43 146.10 7.60L146.10 7.60L146.10 7.60Q145.53 6.78 144.40 6.78L144.40 6.78L144.40 6.78Q143.26 6.78 142.69 7.60L142.69 7.60L142.69 7.60Q142.13 8.43 142.13 9.77L142.13 9.77L142.13 11.79L142.13 11.79Q142.13 13.23 142.69 14.01L142.69 14.01L142.69 14.01Q143.26 14.78 144.40 14.78ZM160.37 11.65L158.05 11.65L158.05 15.68L156.87 15.68L156.87 5.88L160.37 5.88L160.37 5.88Q161.13 5.88 161.69 6.10L161.69 6.10L161.69 6.10Q162.25 6.31 162.62 6.68L162.62 6.68L162.62 6.68Q162.99 7.04 163.18 7.53L163.18 7.53L163.18 7.53Q163.37 8.01 163.37 8.54L163.37 8.54L163.37 8.96L163.37 8.96Q163.37 9.49 163.18 9.98L163.18 9.98L163.18 9.98Q162.99 10.47 162.61 10.84L162.61 10.84L162.61 10.84Q162.23 11.21 161.67 11.43L161.67 11.43L161.67 11.43Q161.11 11.65 160.37 11.65L160.37 11.65ZM158.05 6.97L158.05 10.56L160.23 10.56L160.23 10.56Q162.19 10.56 162.19 8.88L162.19 8.88L162.19 8.62L162.19 8.62Q162.19 7.88 161.71 7.43L161.71 7.43L161.71 7.43Q161.22 6.97 160.23 6.97L160.23 6.97L158.05 6.97ZM171.89 15.68L171.89 5.88L174.13 5.88L175.45 15.18L175.62 15.18L176.93 5.88L179.17 5.88L179.17 15.68L178.08 15.68L178.08 6.38L177.91 6.38L176.60 15.68L174.47 15.68L173.15 6.38L172.98 6.38L172.98 15.68L171.89 15.68ZM188.13 15.68L188.13 5.88L194.07 5.88L194.07 6.97L189.31 6.97L189.31 10.22L193.98 10.22L193.98 11.31L189.31 11.31L189.31 14.59L194.15 14.59L194.15 15.68L188.13 15.68ZM205.76 5.88L208.59 15.18L208.75 15.18L208.75 5.88L209.93 5.88L209.93 15.68L207.58 15.68L204.75 6.38L204.58 6.38L204.58 15.68L203.41 15.68L203.41 5.88L205.76 5.88ZM218.79 6.97L218.79 5.88L225.68 5.88L225.68 6.97L222.82 6.97L222.82 15.68L221.65 15.68L221.65 6.97L218.79 6.97ZM250.42 15.68L250.42 5.88L256.44 5.88L256.44 6.97L251.59 6.97L251.59 10.22L256.35 10.22L256.35 11.31L251.59 11.31L251.59 15.68L250.42 15.68ZM265.50 11.87L265.50 9.69L265.50 9.69Q265.50 7.78 266.41 6.73L266.41 6.73L266.41 6.73Q267.32 5.68 268.94 5.68L268.94 5.68L268.94 5.68Q270.56 5.68 271.47 6.73L271.47 6.73L271.47 6.73Q272.38 7.78 272.38 9.69L272.38 9.69L272.38 11.87L272.38 11.87Q272.38 13.83 271.47 14.85L271.47 14.85L271.47 14.85Q270.56 15.88 268.94 15.88L268.94 15.88L268.94 15.88Q267.32 15.88 266.41 14.85L266.41 14.85L266.41 14.85Q265.50 13.83 265.50 11.87L265.50 11.87ZM268.94 14.78L268.94 14.78L268.94 14.78Q270.07 14.78 270.64 14.01L270.64 14.01L270.64 14.01Q271.21 13.23 271.21 11.79L271.21 11.79L271.21 9.77L271.21 9.77Q271.21 8.43 270.64 7.60L270.64 7.60L270.64 7.60Q270.07 6.78 268.94 6.78L268.94 6.78L268.94 6.78Q267.81 6.78 267.24 7.60L267.24 7.60L267.24 7.60Q266.67 8.43 266.67 9.77L266.67 9.77L266.67 11.79L266.67 11.79Q266.67 13.23 267.24 14.01L267.24 14.01L267.24 14.01Q267.81 14.78 268.94 14.78ZM287.57 12.15L287.57 15.68L286.40 15.68L286.40 12.40L286.40 12.40Q286.40 12.04 286.23 11.84L286.23 11.84L286.23 11.84Q286.06 11.65 285.64 11.65L285.64 11.65L282.59 11.65L282.59 15.68L281.41 15.68L281.41 5.88L284.91 5.88L284.91 5.88Q285.67 5.88 286.23 6.10L286.23 6.10L286.23 6.10Q286.79 6.31 287.16 6.68L287.16 6.68L287.16 6.68Q287.53 7.04 287.72 7.53L287.72 7.53L287.72 7.53Q287.91 8.01 287.91 8.54L287.91 8.54L287.91 8.96L287.91 8.96Q287.91 9.51 287.61 10.05L287.61 10.05L287.61 10.05Q287.31 10.60 286.68 10.89L286.68 10.89L286.68 11.06L286.68 11.06Q287.10 11.13 287.34 11.40L287.34 11.40L287.34 11.40Q287.57 11.66 287.57 12.15L287.57 12.15ZM282.59 6.97L282.59 10.56L284.77 10.56L284.77 10.56Q285.77 10.56 286.25 10.13L286.25 10.13L286.25 10.13Q286.73 9.70 286.73 8.88L286.73 8.88L286.73 8.62L286.73 8.62Q286.73 7.88 286.25 7.43L286.25 7.43L286.25 7.43Q285.77 6.97 284.77 6.97L284.77 6.97L282.59 6.97ZM312.58 15.68L312.58 5.88L313.75 5.88L313.75 14.59L318.88 14.59L318.88 15.68L312.58 15.68ZM327.77 11.87L327.77 9.69L327.77 9.69Q327.77 7.78 328.68 6.73L328.68 6.73L328.68 6.73Q329.59 5.68 331.21 5.68L331.21 5.68L331.21 5.68Q332.84 5.68 333.75 6.73L333.75 6.73L333.75 6.73Q334.66 7.78 334.66 9.69L334.66 9.69L334.66 11.87L334.66 11.87Q334.66 13.83 333.75 14.85L333.75 14.85L333.75 14.85Q332.84 15.88 331.21 15.88L331.21 15.88L331.21 15.88Q329.59 15.88 328.68 14.85L328.68 14.85L328.68 14.85Q327.77 13.83 327.77 11.87L327.77 11.87ZM331.21 14.78L331.21 14.78L331.21 14.78Q332.35 14.78 332.91 14.01L332.91 14.01L332.91 14.01Q333.48 13.23 333.48 11.79L333.48 11.79L333.48 9.77L333.48 9.77Q333.48 8.43 332.91 7.60L332.91 7.60L332.91 7.60Q332.35 6.78 331.21 6.78L331.21 6.78L331.21 6.78Q330.08 6.78 329.51 7.60L329.51 7.60L329.51 7.60Q328.94 8.43 328.94 9.77L328.94 9.77L328.94 11.79L328.94 11.79Q328.94 13.23 329.51 14.01L329.51 14.01L329.51 14.01Q330.08 14.78 331.21 14.78ZM346.84 14.78L346.84 14.78L346.84 14.78Q347.44 14.78 347.87 14.58L347.87 14.58L347.87 14.58Q348.29 14.38 348.56 14.04L348.56 14.04L348.56 14.04Q348.84 13.69 348.97 13.25L348.97 13.25L348.97 13.25Q349.10 12.81 349.10 12.32L349.10 12.32L349.10 12.15L350.28 12.15L350.28 12.32L350.28 12.32Q350.28 13.06 350.06 13.71L350.06 13.71L350.06 13.71Q349.83 14.36 349.40 14.85L349.40 14.85L349.40 14.85Q348.96 15.33 348.32 15.60L348.32 15.60L348.32 15.60Q347.68 15.88 346.84 15.88L346.84 15.88L346.84 15.88Q345.21 15.88 344.30 14.85L344.30 14.85L344.30 14.85Q343.39 13.83 343.39 11.87L343.39 11.87L343.39 9.69L343.39 9.69Q343.39 7.78 344.30 6.73L344.30 6.73L344.30 6.73Q345.21 5.68 346.84 5.68L346.84 5.68L346.84 5.68Q347.68 5.68 348.32 5.96L348.32 5.96L348.32 5.96Q348.96 6.23 349.40 6.71L349.40 6.71L349.40 6.71Q349.83 7.20 350.06 7.85L350.06 7.85L350.06 7.85Q350.28 8.50 350.28 9.24L350.28 9.24L350.28 9.41L349.10 9.41L349.10 9.24L349.10 9.24Q349.09 8.76 348.96 8.32L348.96 8.32L348.96 8.32Q348.82 7.87 348.55 7.53L348.55 7.53L348.55 7.53Q348.28 7.18 347.86 6.98L347.86 6.98L347.86 6.98Q347.44 6.78 346.84 6.78L346.84 6.78L346.84 6.78Q345.70 6.78 345.13 7.60L345.13 7.60L345.13 7.60Q344.57 8.43 344.57 9.77L344.57 9.77L344.57 11.79L344.57 11.79Q344.57 13.23 345.13 14.01L345.13 14.01L345.13 14.01Q345.70 14.78 346.84 14.78ZM365.16 15.68L364.45 13.24L360.25 13.24L359.53 15.68L358.27 15.68L361.24 5.88L363.45 5.88L366.42 15.68L365.16 15.68ZM362.43 6.38L362.26 6.38L360.57 12.15L364.13 12.15L362.43 6.38ZM374.85 15.68L374.85 5.88L376.03 5.88L376.03 14.59L381.15 14.59L381.15 15.68L374.85 15.68ZM405.57 15.68L405.57 14.59L406.41 14.59L406.41 6.97L405.57 6.97L405.57 5.88L409.53 5.88L409.53 5.88Q410.23 5.88 410.77 6.08L410.77 6.08L410.77 6.08Q411.31 6.27 411.68 6.61L411.68 6.61L411.68 6.61Q412.05 6.94 412.24 7.41L412.24 7.41L412.24 7.41Q412.43 7.88 412.43 8.43L412.43 8.43L412.43 8.60L412.43 8.60Q412.43 9.00 412.30 9.34L412.30 9.34L412.30 9.34Q412.17 9.67 411.95 9.94L411.95 9.94L411.95 9.94Q411.73 10.21 411.42 10.39L411.42 10.39L411.42 10.39Q411.12 10.58 410.77 10.68L410.77 10.68L410.77 10.85L410.77 10.85Q411.47 11.05 411.95 11.60L411.95 11.60L411.95 11.60Q412.43 12.15 412.43 12.95L412.43 12.95L412.43 13.12L412.43 13.12Q412.43 13.66 412.24 14.13L412.24 14.13L412.24 14.13Q412.05 14.60 411.68 14.95L411.68 14.95L411.68 14.95Q411.31 15.29 410.77 15.48L410.77 15.48L410.77 15.48Q410.23 15.68 409.53 15.68L409.53 15.68L405.57 15.68ZM407.58 11.31L407.58 14.59L409.44 14.59L409.44 14.59Q410.27 14.59 410.79 14.17L410.79 14.17L410.79 14.17Q411.31 13.76 411.31 13.03L411.31 13.03L411.31 12.95L411.31 12.95Q411.31 12.19 410.82 11.75L410.82 11.75L410.82 11.75Q410.33 11.31 409.49 11.31L409.49 11.31L407.58 11.31ZM407.58 6.97L407.58 10.22L409.49 10.22L409.49 10.22Q410.33 10.22 410.82 9.79L410.82 9.79L410.82 9.79Q411.31 9.35 411.31 8.60L411.31 8.60L411.31 8.51L411.31 8.51Q411.31 7.80 410.79 7.38L410.79 7.38L410.79 7.38Q410.27 6.97 409.44 6.97L409.44 6.97L407.58 6.97ZM421.26 5.88L422.44 5.88L422.44 12.38L422.44 12.38Q422.44 13.57 422.99 14.17L422.99 14.17L422.99 14.17Q423.54 14.78 424.62 14.78L424.62 14.78L424.62 14.78Q425.70 14.78 426.25 14.17L426.25 14.17L426.25 14.17Q426.80 13.57 426.80 12.38L426.80 12.38L426.80 5.88L427.98 5.88L427.98 12.38L427.98 12.38Q427.98 14.08 427.08 14.98L427.08 14.98L427.08 14.98Q426.19 15.88 424.62 15.88L424.62 15.88L424.62 15.88Q423.05 15.88 422.16 14.98L422.16 14.98L422.16 14.98Q421.26 14.08 421.26 12.38L421.26 12.38L421.26 5.88ZM442.50 9.21L442.50 8.71L442.50 8.71Q442.50 8.23 442.31 7.87L442.31 7.87L442.31 7.87Q442.12 7.50 441.80 7.27L441.80 7.27L441.80 7.27Q441.48 7.03 441.06 6.90L441.06 6.90L441.06 6.90Q440.64 6.78 440.17 6.78L440.17 6.78L440.17 6.78Q439.77 6.78 439.40 6.88L439.40 6.88L439.40 6.88Q439.04 6.99 438.75 7.18L438.75 7.18L438.75 7.18Q438.47 7.38 438.30 7.66L438.30 7.66L438.30 7.66Q438.13 7.95 438.13 8.33L438.13 8.33L438.13 8.41L438.13 8.41Q438.13 8.82 438.30 9.11L438.30 9.11L438.30 9.11Q438.47 9.39 438.79 9.60L438.79 9.60L438.79 9.60Q439.12 9.80 439.61 9.93L439.61 9.93L439.61 9.93Q440.10 10.07 440.76 10.16L440.76 10.16L440.76 10.16Q442.30 10.40 443.03 11.07L443.03 11.07L443.03 11.07Q443.76 11.73 443.76 12.85L443.76 12.85L443.76 13.02L443.76 13.02Q443.76 13.65 443.54 14.17L443.54 14.17L443.54 14.17Q443.32 14.70 442.90 15.08L442.90 15.08L442.90 15.08Q442.47 15.46 441.84 15.67L441.84 15.67L441.84 15.67Q441.21 15.88 440.38 15.88L440.38 15.88L440.38 15.88Q439.45 15.88 438.72 15.60L438.72 15.60L438.72 15.60Q438.00 15.33 437.52 14.85L437.52 14.85L437.52 14.85Q437.04 14.36 436.79 13.71L436.79 13.71L436.79 13.71Q436.53 13.06 436.53 12.29L436.53 12.29L436.53 11.87L437.71 11.87L437.71 12.21L437.71 12.21Q437.71 13.50 438.42 14.14L438.42 14.14L438.42 14.14Q439.12 14.78 440.38 14.78L440.38 14.78L440.38 14.78Q441.48 14.78 442.03 14.30L442.03 14.30L442.03 14.30Q442.58 13.82 442.58 13.02L442.58 13.02L442.58 12.94L442.58 12.94Q442.58 12.17 442.01 11.76L442.01 11.76L442.01 11.76Q441.45 11.35 440.17 11.17L440.17 11.17L440.17 11.17Q439.43 11.07 438.84 10.87L438.84 10.87L438.84 10.87Q438.24 10.67 437.82 10.34L437.82 10.34L437.82 10.34Q437.40 10.01 437.18 9.55L437.18 9.55L437.18 9.55Q436.95 9.09 436.95 8.46L436.95 8.46L436.95 8.29L436.95 8.29Q436.95 7.71 437.19 7.24L437.19 7.24L437.19 7.24Q437.43 6.76 437.86 6.41L437.86 6.41L437.86 6.41Q438.28 6.06 438.88 5.87L438.88 5.87L438.88 5.87Q439.47 5.68 440.19 5.68L440.19 5.68L440.19 5.68Q441.01 5.68 441.66 5.92L441.66 5.92L441.66 5.92Q442.32 6.16 442.76 6.56L442.76 6.56L442.76 6.56Q443.21 6.96 443.44 7.50L443.44 7.50L443.44 7.50Q443.67 8.04 443.67 8.62L443.67 8.62L443.67 9.21L442.50 9.21ZM452.65 6.97L452.65 5.88L458.86 5.88L458.86 6.97L456.34 6.97L456.34 14.59L458.86 14.59L458.86 15.68L452.65 15.68L452.65 14.59L455.17 14.59L455.17 6.97L452.65 6.97ZM470.41 5.88L473.24 15.18L473.41 15.18L473.41 5.88L474.59 5.88L474.59 15.68L472.23 15.68L469.41 6.38L469.24 6.38L469.24 15.68L468.06 15.68L468.06 5.88L470.41 5.88ZM483.92 15.68L483.92 5.88L489.86 5.88L489.86 6.97L485.10 6.97L485.10 10.22L489.78 10.22L489.78 11.31L485.10 11.31L485.10 14.59L489.94 14.59L489.94 15.68L483.92 15.68ZM504.77 9.21L504.77 8.71L504.77 8.71Q504.77 8.23 504.58 7.87L504.58 7.87L504.58 7.87Q504.39 7.50 504.07 7.27L504.07 7.27L504.07 7.27Q503.75 7.03 503.33 6.90L503.33 6.90L503.33 6.90Q502.91 6.78 502.45 6.78L502.45 6.78L502.45 6.78Q502.04 6.78 501.68 6.88L501.68 6.88L501.68 6.88Q501.31 6.99 501.02 7.18L501.02 7.18L501.02 7.18Q500.74 7.38 500.57 7.66L500.57 7.66L500.57 7.66Q500.40 7.95 500.40 8.33L500.40 8.33L500.40 8.41L500.40 8.41Q500.40 8.82 500.57 9.11L500.57 9.11L500.57 9.11Q500.74 9.39 501.07 9.60L501.07 9.60L501.07 9.60Q501.40 9.80 501.89 9.93L501.89 9.93L501.89 9.93Q502.38 10.07 503.03 10.16L503.03 10.16L503.03 10.16Q504.57 10.40 505.30 11.07L505.30 11.07L505.30 11.07Q506.03 11.73 506.03 12.85L506.03 12.85L506.03 13.02L506.03 13.02Q506.03 13.65 505.81 14.17L505.81 14.17L505.81 14.17Q505.60 14.70 505.17 15.08L505.17 15.08L505.17 15.08Q504.74 15.46 504.11 15.67L504.11 15.67L504.11 15.67Q503.48 15.88 502.66 15.88L502.66 15.88L502.66 15.88Q501.72 15.88 501.00 15.60L501.00 15.60L501.00 15.60Q500.28 15.33 499.79 14.85L499.79 14.85L499.79 14.85Q499.31 14.36 499.06 13.71L499.06 13.71L499.06 13.71Q498.81 13.06 498.81 12.29L498.81 12.29L498.81 11.87L499.98 11.87L499.98 12.21L499.98 12.21Q499.98 13.50 500.69 14.14L500.69 14.14L500.69 14.14Q501.40 14.78 502.66 14.78L502.66 14.78L502.66 14.78Q503.75 14.78 504.30 14.30L504.30 14.30L504.30 14.30Q504.85 13.82 504.85 13.02L504.85 13.02L504.85 12.94L504.85 12.94Q504.85 12.17 504.29 11.76L504.29 11.76L504.29 11.76Q503.72 11.35 502.45 11.17L502.45 11.17L502.45 11.17Q501.70 11.07 501.11 10.87L501.11 10.87L501.11 10.87Q500.51 10.67 500.09 10.34L500.09 10.34L500.09 10.34Q499.67 10.01 499.45 9.55L499.45 9.55L499.45 9.55Q499.23 9.09 499.23 8.46L499.23 8.46L499.23 8.29L499.23 8.29Q499.23 7.71 499.46 7.24L499.46 7.24L499.46 7.24Q499.70 6.76 500.13 6.41L500.13 6.41L500.13 6.41Q500.56 6.06 501.15 5.87L501.15 5.87L501.15 5.87Q501.75 5.68 502.46 5.68L502.46 5.68L502.46 5.68Q503.29 5.68 503.94 5.92L503.94 5.92L503.94 5.92Q504.59 6.16 505.04 6.56L505.04 6.56L505.04 6.56Q505.48 6.96 505.71 7.50L505.71 7.50L505.71 7.50Q505.95 8.04 505.95 8.62L505.95 8.62L505.95 9.21L504.77 9.21ZM520.34 9.21L520.34 8.71L520.34 8.71Q520.34 8.23 520.15 7.87L520.15 7.87L520.15 7.87Q519.96 7.50 519.64 7.27L519.64 7.27L519.64 7.27Q519.32 7.03 518.90 6.90L518.90 6.90L518.90 6.90Q518.48 6.78 518.01 6.78L518.01 6.78L518.01 6.78Q517.61 6.78 517.24 6.88L517.24 6.88L517.24 6.88Q516.88 6.99 516.59 7.18L516.59 7.18L516.59 7.18Q516.31 7.38 516.14 7.66L516.14 7.66L516.14 7.66Q515.97 7.95 515.97 8.33L515.97 8.33L515.97 8.41L515.97 8.41Q515.97 8.82 516.14 9.11L516.14 9.11L516.14 9.11Q516.31 9.39 516.63 9.60L516.63 9.60L516.63 9.60Q516.96 9.80 517.45 9.93L517.45 9.93L517.45 9.93Q517.94 10.07 518.60 10.16L518.60 10.16L518.60 10.16Q520.14 10.40 520.87 11.07L520.87 11.07L520.87 11.07Q521.60 11.73 521.60 12.85L521.60 12.85L521.60 13.02L521.60 13.02Q521.60 13.65 521.38 14.17L521.38 14.17L521.38 14.17Q521.16 14.70 520.74 15.08L520.74 15.08L520.74 15.08Q520.31 15.46 519.68 15.67L519.68 15.67L519.68 15.67Q519.05 15.88 518.22 15.88L518.22 15.88L518.22 15.88Q517.29 15.88 516.56 15.60L516.56 15.60L516.56 15.60Q515.84 15.33 515.36 14.85L515.36 14.85L515.36 14.85Q514.88 14.36 514.63 13.71L514.63 13.71L514.63 13.71Q514.37 13.06 514.37 12.29L514.37 12.29L514.37 11.87L515.55 11.87L515.55 12.21L515.55 12.21Q515.55 13.50 516.26 14.14L516.26 14.14L516.26 14.14Q516.96 14.78 518.22 14.78L518.22 14.78L518.22 14.78Q519.32 14.78 519.87 14.30L519.87 14.30L519.87 14.30Q520.42 13.82 520.42 13.02L520.42 13.02L520.42 12.94L520.42 12.94Q520.42 12.17 519.85 11.76L519.85 11.76L519.85 11.76Q519.29 11.35 518.01 11.17L518.01 11.17L518.01 11.17Q517.27 11.07 516.68 10.87L516.68 10.87L516.68 10.87Q516.08 10.67 515.66 10.34L515.66 10.34L515.66 10.34Q515.24 10.01 515.02 9.55L515.02 9.55L515.02 9.55Q514.79 9.09 514.79 8.46L514.79 8.46L514.79 8.29L514.79 8.29Q514.79 7.71 515.03 7.24L515.03 7.24L515.03 7.24Q515.27 6.76 515.70 6.41L515.70 6.41L515.70 6.41Q516.12 6.06 516.72 5.87L516.72 5.87L516.72 5.87Q517.31 5.68 518.03 5.68L518.03 5.68L518.03 5.68Q518.85 5.68 519.50 5.92L519.50 5.92L519.50 5.92Q520.16 6.16 520.60 6.56L520.60 6.56L520.60 6.56Q521.05 6.96 521.28 7.50L521.28 7.50L521.28 7.50Q521.51 8.04 521.51 8.62L521.51 8.62L521.51 9.21L520.34 9.21Z"></path></g></svg>