<svg data-v-fde0c5aa="" xmlns="http://www.w3.org/2000/svg" viewBox="0 0 300 300" class="font"><!----><defs data-v-fde0c5aa=""><!----></defs><rect data-v-fde0c5aa="" fill="#927053" x="0" y="0" width="300px" height="300px" class="logo-background-square"></rect><defs data-v-fde0c5aa=""><!----></defs><g data-v-fde0c5aa="" id="b45c3b6a-074e-4a85-8a9e-d636533dd8cb" fill="#583936" transform="matrix(1.8467219926366387,0,0,1.8467219926366387,39.48291783986028,132.9178215681111)"><path d="M5.99 8.81L5.99 8.81L5.99 8.81Q6.15 9.06 6.15 9.81L6.15 9.81L6.15 9.81Q6.15 10.56 5.84 11.07L5.84 11.07L5.84 11.07Q5.56 11.48 4.65 12.20L4.65 12.20L4.65 12.20Q3.74 12.92 3.30 12.92L3.30 12.92L3.30 12.92Q2.53 12.92 1.54 12.12L1.54 12.12L1.54 12.12Q0.55 11.31 0.28 10.35L0.28 10.35L1.83 9.28L1.83 9.28Q2.06 9.94 2.55 10.49L2.55 10.49L2.55 10.49Q3.04 11.03 3.24 11.03L3.24 11.03L3.24 11.03Q3.44 11.03 3.68 10.90L3.68 10.90L3.68 10.90Q3.91 10.77 4.03 10.63L4.03 10.63L4.03 10.63Q4.21 10.40 4.21 9.93L4.21 9.93L4.21 9.93Q4.21 9.45 3.99 9.34L3.99 9.34L3.99 9.34Q3.71 9.10 2.91 8.71L2.91 8.71L2.91 8.71Q2.10 8.32 1.41 7.86L1.41 7.86L1.41 7.86Q0.73 7.41 0.54 6.97L0.54 6.97L0.54 6.97Q0.35 6.54 0.35 5.84L0.35 5.84L0.35 5.84Q0.35 5.15 0.66 4.63L0.66 4.63L0.66 4.63Q0.94 4.23 1.85 3.51L1.85 3.51L1.85 3.51Q2.76 2.79 3.19 2.79L3.19 2.79L3.19 2.79Q3.96 2.79 4.96 3.59L4.96 3.59L4.96 3.59Q5.95 4.40 6.22 5.36L6.22 5.36L4.66 6.44L4.66 6.44Q4.44 5.78 3.95 5.23L3.95 5.23L3.95 5.23Q3.46 4.68 3.25 4.68L3.25 4.68L3.25 4.68Q3.05 4.68 2.81 4.80L2.81 4.80L2.81 4.80Q2.58 4.93 2.43 5.12L2.43 5.12L2.43 5.12Q2.28 5.31 2.28 5.76L2.28 5.76L2.28 5.76Q2.28 6.22 2.56 6.37L2.56 6.37L2.56 6.37Q2.79 6.57 3.58 6.99L3.58 6.99L3.58 6.99Q5.63 8.11 5.99 8.81ZM9.19 11.10L9.19 11.10L9.19 11.10Q9.41 11.31 9.53 11.31L9.53 11.31L9.53 11.31Q9.66 11.31 9.88 11.10L9.88 11.10L9.88 11.10Q10.09 10.89 10.19 10.72L10.19 10.72L10.19 10.72Q10.37 10.42 10.37 8.99L10.37 8.99L10.37 8.99Q10.37 7.56 10.19 7.24L10.19 7.24L10.19 7.24Q10.09 7.07 9.88 6.86L9.88 6.86L9.88 6.86Q9.66 6.65 9.53 6.65L9.53 6.65L9.53 6.65Q9.41 6.65 9.19 6.86L9.19 6.86L9.19 6.86Q8.97 7.07 8.88 7.24L8.88 7.24L8.88 7.24Q8.69 7.55 8.69 8.97L8.69 8.97L8.69 8.97Q8.69 10.40 8.88 10.72L8.88 10.72L8.88 10.72Q8.97 10.89 9.19 11.10ZM10.80 12.24L10.80 12.24L10.80 12.24Q9.94 12.92 9.53 12.92L9.53 12.92L9.53 12.92Q9.13 12.92 8.27 12.24L8.27 12.24L8.27 12.24Q7.41 11.55 7.21 11.21L7.21 11.21L7.21 11.21Q6.92 10.70 6.92 8.97L6.92 8.97L6.92 8.97Q6.92 7.25 7.21 6.75L7.21 6.75L7.21 6.75Q7.41 6.41 8.27 5.73L8.27 5.73L8.27 5.73Q9.13 5.04 9.53 5.04L9.53 5.04L9.53 5.04Q9.94 5.04 10.80 5.73L10.80 5.73L10.80 5.73Q11.66 6.41 11.86 6.75L11.86 6.75L11.86 6.75Q12.15 7.25 12.15 8.97L12.15 8.97L12.15 8.97Q12.15 10.70 11.86 11.21L11.86 11.21L11.86 11.21Q11.66 11.55 10.80 12.24ZM13.13 10.61L13.13 5.21L14.98 5.21L14.98 10.42L14.98 10.42Q14.98 10.65 15.20 10.91L15.20 10.91L15.20 10.91Q15.43 11.17 15.62 11.17L15.62 11.17L15.62 11.17Q15.82 11.17 16.44 10.60L16.44 10.60L16.44 5.21L18.28 5.21L18.28 12.75L16.86 12.75L16.69 11.93L16.69 11.93Q15.64 12.92 15.22 12.92L15.22 12.92L15.22 12.92Q14.80 12.92 13.97 12.14L13.97 12.14L13.97 12.14Q13.13 11.37 13.13 10.61L13.13 10.61ZM23.38 6.68L21.81 6.68L21.81 9.77L21.81 9.77Q21.81 10.43 22.26 10.98L22.26 10.98L22.26 10.98Q22.71 11.52 23.49 11.84L23.49 11.84L21.95 12.92L21.95 12.92Q21.11 12.53 20.54 11.84L20.54 11.84L20.54 11.84Q19.96 11.14 19.96 10.37L19.96 10.37L19.96 6.68L19.26 6.68L19.26 5.63L19.96 5.46L19.96 5.46Q19.94 4.77 19.80 4.38L19.80 4.38L19.80 4.38Q19.66 3.98 19.26 3.60L19.26 3.60L20.80 2.52L20.80 2.52Q21.81 3.32 21.81 4.79L21.81 4.79L21.81 5.21L23.38 5.21L23.38 6.68ZM26.60 7.38L26.60 12.75L24.75 12.75L24.75 5.11L24.75 5.11Q24.75 4.40 24.58 4.02L24.58 4.02L24.58 4.02Q24.42 3.64 24.05 3.33L24.05 3.33L25.59 2.25L25.59 2.25Q26.60 3.05 26.60 4.51L26.60 4.51L26.60 5.81L26.60 5.81Q27.47 5.04 27.86 5.04L27.86 5.04L27.86 5.04Q28.25 5.04 29.11 5.82L29.11 5.82L29.11 5.82Q29.97 6.59 29.97 7.35L29.97 7.35L29.97 10.05L29.97 10.05Q29.97 10.77 30.14 11.16L30.14 11.16L30.14 11.16Q30.31 11.55 30.67 11.84L30.67 11.84L29.13 12.92L29.13 12.92Q28.13 12.12 28.13 10.65L28.13 10.65L28.13 7.55L28.13 7.55Q28.13 7.31 27.87 7.05L27.87 7.05L27.87 7.05Q27.62 6.79 27.41 6.79L27.41 6.79L27.41 6.79Q27.19 6.79 26.60 7.38L26.60 7.38ZM37.02 4.86L37.02 6.79L39.52 6.79L39.52 8.48L37.02 8.48L37.02 11.06L40.36 11.06L40.36 12.75L35.08 12.75L35.08 4.13L37.02 2.79L40.14 2.79L40.14 4.49L37.53 4.49L37.02 4.86ZM43.47 7.38L43.47 12.75L41.62 12.75L41.62 7.92L41.62 7.92Q41.62 7.21 41.45 6.82L41.45 6.82L41.45 6.82Q41.29 6.43 40.92 6.13L40.92 6.13L42.46 5.05L42.46 5.05Q42.98 5.47 43.23 6.02L43.23 6.02L43.23 6.02Q44.27 5.04 44.70 5.04L44.70 5.04L44.70 5.04Q45.12 5.04 45.98 5.82L45.98 5.82L45.98 5.82Q46.84 6.59 46.84 7.35L46.84 7.35L46.84 10.05L46.84 10.05Q46.84 10.77 47.01 11.16L47.01 11.16L47.01 11.16Q47.18 11.55 47.54 11.84L47.54 11.84L46.00 12.92L46.00 12.92Q45.00 12.12 45.00 10.65L45.00 10.65L45.00 7.55L45.00 7.55Q45.00 7.31 44.74 7.05L44.74 7.05L44.74 7.05Q44.49 6.79 44.28 6.79L44.28 6.79L44.28 6.79Q44.06 6.79 43.47 7.38L43.47 7.38ZM48.33 6.89L48.33 6.89Q48.44 6.54 49.20 5.79L49.20 5.79L49.20 5.79Q49.97 5.04 50.33 5.04L50.33 5.04L50.33 5.04Q50.69 5.04 51.58 5.80L51.58 5.80L51.58 5.11L51.58 5.11Q51.58 4.40 51.41 4.02L51.41 4.02L51.41 4.02Q51.24 3.64 50.88 3.33L50.88 3.33L52.42 2.25L52.42 2.25Q53.42 3.05 53.42 4.51L53.42 4.51L53.42 12.75L52.00 12.75L51.83 11.93L51.83 11.93Q50.81 12.92 50.30 12.92L50.30 12.92L50.30 12.92Q49.97 12.92 49.20 12.17L49.20 12.17L49.20 12.17Q48.44 11.42 48.33 11.07L48.33 11.07L48.33 11.07Q48.17 10.72 48.17 8.98L48.17 8.98L48.17 8.98Q48.17 7.24 48.33 6.89L48.33 6.89ZM51.48 7.34L51.48 7.34L51.48 7.34Q51.38 7.17 51.08 6.98L51.08 6.98L51.08 6.98Q50.78 6.79 50.62 6.79L50.62 6.79L50.62 6.79Q50.47 6.79 50.30 6.97L50.30 6.97L50.30 6.97Q50.12 7.15 50.04 7.35L50.04 7.35L50.04 7.35Q49.95 7.55 49.95 8.98L49.95 8.98L49.95 8.98Q49.95 10.42 50.04 10.61L50.04 10.61L50.04 10.61Q50.12 10.79 50.30 10.98L50.30 10.98L50.30 10.98Q50.47 11.17 50.62 11.17L50.62 11.17L50.62 11.17Q50.76 11.17 51.07 10.98L51.07 10.98L51.07 10.98Q51.37 10.79 51.46 10.65L51.46 10.65L51.46 10.65Q51.55 10.46 51.58 9.52L51.58 9.52L51.58 9.00L51.58 9.00Q51.58 7.52 51.48 7.34ZM61.61 2.95L63.55 2.95L63.55 8.26L63.55 8.26Q63.55 9.04 63.64 9.46L63.64 9.46L63.64 9.46Q63.73 9.87 64.01 10.39L64.01 10.39L64.01 10.39Q64.29 10.92 64.39 10.92L64.39 10.92L64.39 10.92Q64.50 10.92 64.78 10.39L64.78 10.39L64.78 10.39Q65.06 9.87 65.16 9.46L65.16 9.46L65.16 9.46Q65.25 9.04 65.25 8.26L65.25 8.26L65.25 6.76L65.25 6.76Q65.25 5.59 65.09 5.12L65.09 5.12L65.09 5.12Q64.93 4.65 64.41 3.96L64.41 3.96L66.09 2.79L66.09 2.79Q66.54 3.09 66.86 3.93L66.86 3.93L66.86 3.93Q67.19 4.77 67.19 5.95L67.19 5.95L67.19 8.26L67.19 8.26Q67.19 9.35 66.98 10.06L66.98 10.06L66.98 10.06Q66.77 10.77 65.82 11.84L65.82 11.84L65.82 11.84Q64.88 12.92 64.40 12.92L64.40 12.92L64.40 12.92Q64.11 12.92 63.58 12.39L63.58 12.39L63.58 12.39Q63.06 11.86 62.58 11.14L62.58 11.14L62.58 11.14Q62.08 11.87 61.57 12.40L61.57 12.40L61.57 12.40Q61.05 12.92 60.76 12.92L60.76 12.92L60.76 12.92Q60.28 12.92 59.34 11.84L59.34 11.84L59.34 11.84Q58.39 10.77 58.18 10.06L58.18 10.06L58.18 10.06Q57.97 9.35 57.97 8.26L57.97 8.26L57.97 2.95L59.91 2.95L59.91 8.26L59.91 8.26Q59.91 9.17 60.00 9.52L60.00 9.52L60.00 9.52Q60.10 9.87 60.38 10.39L60.38 10.39L60.38 10.39Q60.66 10.92 60.77 10.92L60.77 10.92L60.77 10.92Q60.87 10.92 61.15 10.39L61.15 10.39L61.15 10.39Q61.43 9.87 61.52 9.46L61.52 9.46L61.52 9.46Q61.61 9.04 61.61 8.26L61.61 8.26L61.61 2.95ZM73.33 8.96L73.33 8.96L73.33 9.46L69.94 9.46L69.94 9.46Q69.94 10.30 70.15 10.79L70.15 10.79L70.15 10.79Q70.22 10.96 70.41 11.14L70.41 11.14L70.41 11.14Q70.59 11.31 70.78 11.31L70.78 11.31L70.78 11.31Q70.98 11.31 71.27 10.98L71.27 10.98L71.27 10.98Q71.57 10.64 71.74 10.16L71.74 10.16L73.18 11.19L73.18 11.19Q72.80 11.89 72.02 12.40L72.02 12.40L72.02 12.40Q71.25 12.92 70.77 12.92L70.77 12.92L70.77 12.92Q70.29 12.92 69.39 12.18L69.39 12.18L69.39 12.18Q68.49 11.44 68.29 11.02L68.29 11.02L68.29 11.02Q68.10 10.61 68.10 8.98L68.10 8.98L68.10 8.98Q68.10 7.35 68.29 6.94L68.29 6.94L68.29 6.94Q68.49 6.52 69.39 5.78L69.39 5.78L69.39 5.78Q70.29 5.04 70.71 5.04L70.71 5.04L70.71 5.04Q71.13 5.04 72.04 5.78L72.04 5.78L72.04 5.78Q72.94 6.52 73.14 6.94L73.14 6.94L73.14 6.94Q73.33 7.35 73.33 8.96ZM71.39 7.20L71.39 7.20L71.39 7.20Q71.29 7.01 71.07 6.83L71.07 6.83L71.07 6.83Q70.85 6.65 70.67 6.65L70.67 6.65L70.67 6.65Q70.48 6.65 70.24 7.02L70.24 7.02L70.24 7.02Q70.00 7.39 69.94 8.13L69.94 8.13L71.54 8.13L71.54 8.13Q71.50 7.39 71.39 7.20ZM76.17 12.75L74.80 12.75L74.80 5.11L74.80 5.11Q74.80 4.40 74.63 4.02L74.63 4.02L74.63 4.02Q74.47 3.64 74.10 3.33L74.10 3.33L75.64 2.25L75.64 2.25Q76.65 3.05 76.65 4.51L76.65 4.51L76.65 5.78L76.65 5.78Q77.49 5.04 77.86 5.04L77.86 5.04L77.86 5.04Q78.23 5.04 79.00 5.79L79.00 5.79L79.00 5.79Q79.76 6.54 79.87 6.89L79.87 6.89L79.87 6.89Q80.02 7.24 80.02 8.98L80.02 8.98L80.02 8.98Q80.02 10.72 79.87 11.07L79.87 11.07L79.87 11.07Q79.76 11.42 79.00 12.17L79.00 12.17L79.00 12.17Q78.23 12.92 77.90 12.92L77.90 12.92L77.90 12.92Q77.41 12.92 76.33 11.90L76.33 11.90L76.17 12.75ZM76.72 10.62L76.72 10.62L76.72 10.62Q76.82 10.79 77.12 10.98L77.12 10.98L77.12 10.98Q77.42 11.17 77.57 11.17L77.57 11.17L77.57 11.17Q77.73 11.17 77.90 10.99L77.90 10.99L77.90 10.99Q78.08 10.81 78.16 10.61L78.16 10.61L78.16 10.61Q78.25 10.42 78.25 8.98L78.25 8.98L78.25 8.98Q78.25 7.55 78.16 7.36L78.16 7.36L78.16 7.36Q78.08 7.17 77.90 6.98L77.90 6.98L77.90 6.98Q77.73 6.79 77.58 6.79L77.58 6.79L77.58 6.79Q77.43 6.79 77.13 6.98L77.13 6.98L77.13 6.98Q76.83 7.17 76.73 7.31L76.73 7.31L76.73 7.31Q76.62 7.55 76.62 8.99L76.62 8.99L76.62 8.99Q76.62 10.44 76.72 10.62ZM86.45 3.51L86.45 3.51L86.45 3.51Q87.37 2.79 87.85 2.79L87.85 2.79L87.85 2.79Q88.33 2.79 89.33 3.70L89.33 3.70L89.33 3.70Q90.33 4.62 90.57 5.19L90.57 5.19L90.57 5.19Q90.72 5.56 90.72 7.03L90.72 7.03L90.72 8.68L90.72 8.68Q90.72 10.15 90.57 10.51L90.57 10.51L90.57 10.51Q90.31 11.06 89.35 11.91L89.35 11.91L89.35 11.91Q88.38 12.75 87.82 12.75L87.82 12.75L84.92 12.75L84.92 6.76L84.92 6.76Q84.92 5.63 84.76 5.17L84.76 5.17L84.76 5.17Q84.60 4.70 84.08 4.07L84.08 4.07L85.93 2.79L85.93 2.79Q86.23 3.01 86.45 3.51ZM87.82 4.79L87.82 4.79L87.82 4.79Q87.42 4.79 86.81 5.05L86.81 5.05L86.81 5.05Q86.86 5.35 86.86 5.95L86.86 5.95L86.86 11.06L87.82 11.06L87.82 11.06Q88.02 11.06 88.29 10.77L88.29 10.77L88.29 10.77Q88.56 10.49 88.68 10.23L88.68 10.23L88.68 10.23Q88.79 9.97 88.79 8.82L88.79 8.82L88.79 7.03L88.79 7.03Q88.79 5.88 88.68 5.62L88.68 5.62L88.68 5.62Q88.56 5.36 88.29 5.07L88.29 5.07L88.29 5.07Q88.02 4.79 87.82 4.79ZM97.08 8.96L97.08 8.96L97.08 9.46L93.69 9.46L93.69 9.46Q93.69 10.30 93.90 10.79L93.90 10.79L93.90 10.79Q93.97 10.96 94.15 11.14L94.15 11.14L94.15 11.14Q94.33 11.31 94.53 11.31L94.53 11.31L94.53 11.31Q94.72 11.31 95.02 10.98L95.02 10.98L95.02 10.98Q95.31 10.64 95.48 10.16L95.48 10.16L96.92 11.19L96.92 11.19Q96.54 11.89 95.77 12.40L95.77 12.40L95.77 12.40Q94.99 12.92 94.51 12.92L94.51 12.92L94.51 12.92Q94.04 12.92 93.14 12.18L93.14 12.18L93.14 12.18Q92.23 11.44 92.04 11.02L92.04 11.02L92.04 11.02Q91.84 10.61 91.84 8.98L91.84 8.98L91.84 8.98Q91.84 7.35 92.04 6.94L92.04 6.94L92.04 6.94Q92.23 6.52 93.14 5.78L93.14 5.78L93.14 5.78Q94.04 5.04 94.46 5.04L94.46 5.04L94.46 5.04Q94.88 5.04 95.78 5.78L95.78 5.78L95.78 5.78Q96.68 6.52 96.88 6.94L96.88 6.94L96.88 6.94Q97.08 7.35 97.08 8.96ZM95.14 7.20L95.14 7.20L95.14 7.20Q95.03 7.01 94.82 6.83L94.82 6.83L94.82 6.83Q94.60 6.65 94.41 6.65L94.41 6.65L94.41 6.65Q94.22 6.65 93.98 7.02L93.98 7.02L93.98 7.02Q93.74 7.39 93.69 8.13L93.69 8.13L95.28 8.13L95.28 8.13Q95.24 7.39 95.14 7.20ZM103.05 10.49L103.05 10.49L103.05 10.49Q103.05 10.92 101.98 11.92L101.98 11.92L101.98 11.92Q100.90 12.92 100.37 12.92L100.37 12.92L100.37 12.92Q99.85 12.92 99.07 12.40L99.07 12.40L99.07 12.40Q98.29 11.89 97.92 11.19L97.92 11.19L99.36 10.19L99.36 10.19Q100.06 11.17 100.38 11.17L100.38 11.17L100.38 11.17Q100.62 11.17 100.97 10.93L100.97 10.93L100.97 10.93Q101.32 10.70 101.32 10.49L101.32 10.49L101.32 10.49Q101.32 10.43 100.98 10.24L100.98 10.24L100.98 10.24Q100.65 10.05 100.16 9.77L100.16 9.77L100.16 9.77Q99.68 9.48 99.20 9.12L99.20 9.12L99.20 9.12Q98.73 8.76 98.39 8.25L98.39 8.25L98.39 8.25Q98.06 7.73 98.06 7.20L98.06 7.20L98.06 7.20Q98.06 6.66 99.01 5.85L99.01 5.85L99.01 5.85Q99.96 5.04 100.47 5.04L100.47 5.04L100.47 5.04Q100.98 5.04 101.76 5.56L101.76 5.56L101.76 5.56Q102.54 6.08 102.91 6.78L102.91 6.78L101.47 7.77L101.47 7.77Q100.77 6.79 100.45 6.79L100.45 6.79L100.45 6.79Q100.28 6.79 100.04 6.98L100.04 6.98L100.04 6.98Q99.79 7.17 99.79 7.32L99.79 7.32L99.79 7.32Q99.79 7.48 100.30 7.80L100.30 7.80L100.30 7.80Q100.81 8.12 101.42 8.46L101.42 8.46L101.42 8.46Q102.03 8.81 102.54 9.36L102.54 9.36L102.54 9.36Q103.05 9.91 103.05 10.49ZM103.89 10.65L103.89 5.21L105.74 5.21L105.74 10.05L105.74 10.05Q105.74 10.77 105.91 11.16L105.91 11.16L105.91 11.16Q106.08 11.55 106.44 11.84L106.44 11.84L104.90 12.92L104.90 12.92Q103.89 12.12 103.89 10.65L103.89 10.65ZM104.85 2.28L104.85 2.28L104.85 2.28Q105 2.28 105.53 2.74L105.53 2.74L105.53 2.74Q106.06 3.19 106.06 3.35L106.06 3.35L106.06 3.35Q106.06 3.51 105.53 3.98L105.53 3.98L105.53 3.98Q104.99 4.44 104.84 4.44L104.84 4.44L104.84 4.44Q104.69 4.44 104.16 3.98L104.16 3.98L104.16 3.98Q103.63 3.53 103.63 3.37L103.63 3.37L103.63 3.37Q103.63 3.21 104.17 2.74L104.17 2.74L104.17 2.74Q104.71 2.28 104.85 2.28ZM110.16 7.32L110.16 7.32L110.16 7.32Q110.05 7.15 109.76 6.97L109.76 6.97L109.76 6.97Q109.47 6.79 109.31 6.79L109.31 6.79L109.31 6.79Q109.16 6.79 108.98 6.97L108.98 6.97L108.98 6.97Q108.81 7.15 108.75 7.31L108.75 7.31L108.75 7.31Q108.64 7.53 108.64 8.71L108.64 8.71L108.64 8.71Q108.64 9.88 108.75 10.09L108.75 10.09L108.75 10.09Q108.81 10.23 108.98 10.42L108.98 10.42L108.98 10.42Q109.16 10.61 109.31 10.61L109.31 10.61L109.31 10.61Q109.47 10.61 109.77 10.42L109.77 10.42L109.77 10.42Q110.07 10.23 110.17 10.07L110.17 10.07L110.17 10.07Q110.26 9.91 110.26 8.70L110.26 8.70L110.26 8.70Q110.26 7.49 110.16 7.32ZM110.71 5.21L112.08 5.21L112.08 12.29L112.08 12.29Q112.08 14.08 111.92 14.43L111.92 14.43L111.92 14.43Q111.76 14.77 110.80 15.51L110.80 15.51L110.80 15.51Q109.83 16.25 109.35 16.25L109.35 16.25L109.35 16.25Q108.86 16.25 108.14 15.77L108.14 15.77L108.14 15.77Q107.41 15.29 107.04 14.66L107.04 14.66L108.49 13.66L108.63 13.85L108.63 13.85Q109.14 14.50 109.35 14.50L109.35 14.50L109.35 14.50Q109.55 14.50 109.81 14.32L109.81 14.32L109.81 14.32Q110.07 14.14 110.16 13.94L110.16 13.94L110.16 13.94Q110.25 13.73 110.25 12.22L110.25 12.22L110.29 11.68L110.29 11.68Q109.34 12.36 109.00 12.36L109.00 12.36L109.00 12.36Q108.65 12.36 107.91 11.62L107.91 11.62L107.91 11.62Q107.17 10.88 107.02 10.51L107.02 10.51L107.02 10.51Q106.86 10.15 106.86 8.71L106.86 8.71L106.86 8.71Q106.86 7.27 107.02 6.89L107.02 6.89L107.02 6.89Q107.17 6.52 107.91 5.78L107.91 5.78L107.91 5.78Q108.65 5.04 109.05 5.04L109.05 5.04L109.05 5.04Q109.44 5.04 110.54 5.94L110.54 5.94L110.71 5.21ZM115.33 7.38L115.33 12.75L113.48 12.75L113.48 7.92L113.48 7.92Q113.48 7.21 113.32 6.82L113.32 6.82L113.32 6.82Q113.15 6.43 112.78 6.13L112.78 6.13L114.32 5.05L114.32 5.05Q114.84 5.47 115.09 6.02L115.09 6.02L115.09 6.02Q116.13 5.04 116.56 5.04L116.56 5.04L116.56 5.04Q116.98 5.04 117.85 5.82L117.85 5.82L117.85 5.82Q118.71 6.59 118.71 7.35L118.71 7.35L118.71 10.05L118.71 10.05Q118.71 10.77 118.87 11.16L118.87 11.16L118.87 11.16Q119.04 11.55 119.41 11.84L119.41 11.84L117.87 12.92L117.87 12.92Q116.86 12.12 116.86 10.65L116.86 10.65L116.86 7.55L116.86 7.55Q116.86 7.31 116.61 7.05L116.61 7.05L116.61 7.05Q116.35 6.79 116.14 6.79L116.14 6.79L116.14 6.79Q115.92 6.79 115.33 7.38L115.33 7.38Z"></path></g><!----><!----></svg>