<svg data-v-423bf9ae="" xmlns="http://www.w3.org/2000/svg" viewBox="0 0 347 95" class="iconLeftSlogan"><!----><!----><!----><g data-v-423bf9ae="" id="25107fcf-b154-4d16-ae1a-97bc894a5fe1" fill="#36131B" transform="matrix(4.369992862376109,0,0,4.369992862376109,92.69604549440082,-13.415877557347578)"><path d="M2.90 12.94L2.90 11.30L2.90 11.30Q2.90 11.03 2.88 10.86L2.88 10.86L2.88 10.86Q2.87 10.70 2.83 10.57L2.83 10.57L2.83 10.57Q2.79 10.44 2.72 10.34L2.72 10.34L2.72 10.34Q2.65 10.23 2.55 10.11L2.55 10.11L2.55 10.11Q2.34 9.86 2.13 9.64L2.13 9.64L2.13 9.64Q1.92 9.42 1.69 9.21L1.69 9.21L1.69 9.21Q1.47 8.99 1.24 8.74L1.24 8.74L1.24 8.74Q1.01 8.50 0.76 8.19L0.76 8.19L0.76 8.19Q0.48 7.87 0.43 7.53L0.43 7.53L0.43 7.53Q0.38 7.18 0.38 6.69L0.38 6.69L0.38 4.97L0.38 4.97Q0.38 3.07 2.17 3.07L2.17 3.07L2.17 3.07Q3.14 3.07 3.53 3.54L3.53 3.54L3.53 3.54Q3.92 4.00 3.92 4.97L3.92 4.97L3.92 7.07L2.93 7.07L2.93 5.11L2.93 5.11Q2.93 4.68 2.78 4.41L2.78 4.41L2.78 4.41Q2.63 4.14 2.20 4.14L2.20 4.14L2.20 4.14Q1.46 4.14 1.46 4.97L1.46 4.97L1.46 6.68L1.46 6.68Q1.46 7.04 1.51 7.21L1.51 7.21L1.51 7.21Q1.55 7.38 1.71 7.57L1.71 7.57L1.71 7.57Q2.13 8.11 2.57 8.51L2.57 8.51L2.57 8.51Q3.01 8.92 3.46 9.45L3.46 9.45L3.46 9.45Q3.61 9.63 3.71 9.81L3.71 9.81L3.71 9.81Q3.81 10.00 3.86 10.21L3.86 10.21L3.86 10.21Q3.92 10.42 3.94 10.68L3.94 10.68L3.94 10.68Q3.96 10.95 3.96 11.28L3.96 11.28L3.96 12.94L3.96 12.94Q3.96 13.86 3.55 14.35L3.55 14.35L3.55 14.35Q3.14 14.84 2.17 14.84L2.17 14.84L2.17 14.84Q1.23 14.84 0.81 14.35L0.81 14.35L0.81 14.35Q0.38 13.86 0.38 12.94L0.38 12.94L0.38 10.49L1.40 10.49L1.40 12.78L1.40 12.78Q1.40 13.23 1.56 13.51L1.56 13.51L1.56 13.51Q1.72 13.79 2.14 13.79L2.14 13.79L2.14 13.79Q2.55 13.79 2.72 13.57L2.72 13.57L2.72 13.57Q2.90 13.36 2.90 12.94L2.90 12.94ZM4.77 13.12L4.77 7.64L4.77 7.64Q4.77 6.80 5.17 6.36L5.17 6.36L5.17 6.36Q5.56 5.91 6.37 5.91L6.37 5.91L6.37 5.91Q7.17 5.91 7.57 6.36L7.57 6.36L7.57 6.36Q7.97 6.80 7.97 7.64L7.97 7.64L7.97 13.12L7.97 13.12Q7.97 13.96 7.57 14.40L7.57 14.40L7.57 14.40Q7.17 14.84 6.37 14.84L6.37 14.84L6.37 14.84Q5.56 14.84 5.17 14.40L5.17 14.40L5.17 14.40Q4.77 13.96 4.77 13.12L4.77 13.12ZM7.03 13.09L7.03 7.67L7.03 7.67Q7.03 7.31 6.89 7.11L6.89 7.11L6.89 7.11Q6.76 6.90 6.37 6.90L6.37 6.90L6.37 6.90Q5.98 6.90 5.84 7.11L5.84 7.11L5.84 7.11Q5.71 7.31 5.71 7.67L5.71 7.67L5.71 13.12L5.71 13.12Q5.71 13.48 5.84 13.67L5.84 13.67L5.84 13.67Q5.98 13.86 6.37 13.86L6.37 13.86L6.37 13.86Q6.76 13.86 6.89 13.66L6.89 13.66L6.89 13.66Q7.03 13.47 7.03 13.09L7.03 13.09ZM12.08 14.71L11.26 14.71L11.26 14.71Q11.24 14.56 11.23 14.41L11.23 14.41L11.23 14.41Q11.23 14.25 11.23 14.08L11.23 14.08L11.23 14.08Q11.03 14.43 10.72 14.62L10.72 14.62L10.72 14.62Q10.40 14.81 10.00 14.81L10.00 14.81L10.00 14.81Q8.88 14.81 8.88 13.31L8.88 13.31L8.88 6.05L9.84 6.05L9.84 13.16L9.84 13.16Q9.84 13.55 9.97 13.71L9.97 13.71L9.97 13.71Q10.09 13.86 10.37 13.86L10.37 13.86L10.37 13.86Q10.60 13.86 10.80 13.74L10.80 13.74L10.80 13.74Q11.00 13.62 11.12 13.34L11.12 13.34L11.12 6.05L12.08 6.05L12.08 14.71ZM15.12 14L15.12 14.77L15.12 14.77Q15.05 14.80 14.92 14.82L14.92 14.82L14.92 14.82Q14.78 14.84 14.67 14.84L14.67 14.84L14.67 14.84Q13.90 14.84 13.52 14.36L13.52 14.36L13.52 14.36Q13.15 13.89 13.15 13.05L13.15 13.05L13.15 6.90L12.74 6.90L12.74 6.05L13.15 6.05L13.15 3.30L14.11 3.30L14.11 6.05L15.09 6.05L15.09 6.90L14.11 6.90L14.11 13.05L14.11 13.05Q14.11 13.58 14.30 13.80L14.30 13.80L14.30 13.80Q14.49 14.01 14.94 14.01L14.94 14.01L14.94 14.01Q14.98 14.01 15.03 14.01L15.03 14.01L15.03 14.01Q15.08 14.01 15.12 14L15.12 14ZM19.03 14.71L18.06 14.71L18.06 7.56L18.06 7.56Q18.06 7.18 17.93 7.02L17.93 7.02L17.93 7.02Q17.81 6.86 17.50 6.86L17.50 6.86L17.50 6.86Q17.29 6.86 17.08 6.99L17.08 6.99L17.08 6.99Q16.87 7.11 16.76 7.39L16.76 7.39L16.76 14.71L15.79 14.71L15.79 3.19L16.76 3.19L16.76 6.54L16.76 6.54Q16.95 6.26 17.25 6.08L17.25 6.08L17.25 6.08Q17.54 5.91 17.91 5.91L17.91 5.91L17.91 5.91Q18.49 5.91 18.76 6.29L18.76 6.29L18.76 6.29Q19.03 6.66 19.03 7.50L19.03 7.50L19.03 14.71ZM25.05 14.71L21.92 14.71L21.92 3.19L24.98 3.19L24.98 4.27L22.99 4.27L22.99 8.32L24.39 8.32L24.39 9.38L22.99 9.38L22.99 13.66L25.05 13.66L25.05 14.71ZM29.08 14.71L28.11 14.71L28.11 7.56L28.11 7.56Q28.11 7.18 27.99 7.02L27.99 7.02L27.99 7.02Q27.86 6.86 27.55 6.86L27.55 6.86L27.55 6.86Q27.34 6.86 27.13 6.99L27.13 6.99L27.13 6.99Q26.92 7.11 26.81 7.39L26.81 7.39L26.81 14.71L25.84 14.71L25.84 6.05L26.66 6.05L26.66 6.05Q26.70 6.37 26.70 6.71L26.70 6.71L26.70 6.71Q26.89 6.34 27.22 6.13L27.22 6.13L27.22 6.13Q27.54 5.91 27.94 5.91L27.94 5.91L27.94 5.91Q28.53 5.91 28.80 6.29L28.80 6.29L28.80 6.29Q29.08 6.66 29.08 7.50L29.08 7.50L29.08 14.71ZM32.31 13.22L32.31 7.46L32.31 7.46Q32.07 6.89 31.56 6.89L31.56 6.89L31.56 6.89Q31.23 6.89 31.09 7.05L31.09 7.05L31.09 7.05Q30.95 7.21 30.95 7.60L30.95 7.60L30.95 13.06L30.95 13.06Q30.95 13.47 31.09 13.63L31.09 13.63L31.09 13.63Q31.23 13.79 31.56 13.79L31.56 13.79L31.56 13.79Q32.07 13.79 32.31 13.22L32.31 13.22ZM33.26 14.71L32.45 14.71L32.45 14.71Q32.44 14.56 32.43 14.40L32.43 14.40L32.43 14.40Q32.42 14.24 32.42 14.07L32.42 14.07L32.42 14.07Q32.27 14.42 31.98 14.62L31.98 14.62L31.98 14.62Q31.70 14.81 31.22 14.81L31.22 14.81L31.22 14.81Q29.99 14.81 29.99 13.19L29.99 13.19L29.99 7.50L29.99 7.50Q29.99 6.65 30.29 6.28L30.29 6.28L30.29 6.28Q30.59 5.91 31.26 5.91L31.26 5.91L31.26 5.91Q31.60 5.91 31.87 6.06L31.87 6.06L31.87 6.06Q32.14 6.22 32.31 6.47L32.31 6.47L32.31 3.19L33.26 3.19L33.26 14.71ZM38.77 12.75L38.77 5.18L38.77 5.18Q38.77 4.75 38.58 4.51L38.58 4.51L38.58 4.51Q38.39 4.27 38.01 4.27L38.01 4.27L37.28 4.27L37.28 13.66L38.01 13.66L38.01 13.66Q38.77 13.66 38.77 12.75L38.77 12.75ZM38.01 14.71L36.22 14.71L36.22 3.19L38.01 3.19L38.01 3.19Q38.93 3.19 39.38 3.72L39.38 3.72L39.38 3.72Q39.83 4.24 39.83 5.17L39.83 5.17L39.83 12.75L39.83 12.75Q39.83 14.71 38.01 14.71L38.01 14.71ZM42.84 9.77L42.84 7.69L42.84 7.69Q42.84 6.92 42.20 6.92L42.20 6.92L42.20 6.92Q41.59 6.92 41.59 7.69L41.59 7.69L41.59 9.77L42.84 9.77ZM42.84 13.09L42.84 11.19L43.75 11.19L43.75 13.09L43.75 13.09Q43.75 14.84 42.20 14.84L42.20 14.84L42.20 14.84Q40.70 14.84 40.70 13.09L40.70 13.09L40.70 7.69L40.70 7.69Q40.70 6.80 41.08 6.36L41.08 6.36L41.08 6.36Q41.47 5.91 42.20 5.91L42.20 5.91L42.20 5.91Q43.75 5.91 43.75 7.69L43.75 7.69L43.75 10.47L41.59 10.47L41.59 13.09L41.59 13.09Q41.59 13.86 42.20 13.86L42.20 13.86L42.20 13.86Q42.84 13.86 42.84 13.09L42.84 13.09ZM46.72 13.20L46.72 12.21L46.72 12.21Q46.72 11.93 46.64 11.73L46.64 11.73L46.64 11.73Q46.56 11.52 46.30 11.20L46.30 11.20L46.30 11.20Q46.00 10.85 45.64 10.54L45.64 10.54L45.64 10.54Q45.28 10.22 45.01 9.90L45.01 9.90L45.01 9.90Q44.73 9.59 44.65 9.28L44.65 9.28L44.65 9.28Q44.56 8.97 44.56 8.47L44.56 8.47L44.56 7.57L44.56 7.57Q44.56 6.68 44.95 6.29L44.95 6.29L44.95 6.29Q45.35 5.91 46.10 5.91L46.10 5.91L46.10 5.91Q46.98 5.91 47.31 6.30L47.31 6.30L47.31 6.30Q47.64 6.69 47.64 7.57L47.64 7.57L47.64 8.99L46.76 8.99L46.76 7.57L46.76 7.57Q46.76 7.25 46.58 7.06L46.58 7.06L46.58 7.06Q46.40 6.87 46.13 6.87L46.13 6.87L46.13 6.87Q45.50 6.87 45.50 7.57L45.50 7.57L45.50 8.60L45.50 8.60Q45.50 8.90 45.58 9.08L45.58 9.08L45.58 9.08Q45.65 9.25 45.89 9.51L45.89 9.51L45.89 9.51Q46.17 9.81 46.52 10.09L46.52 10.09L46.52 10.09Q46.87 10.37 47.14 10.68L47.14 10.68L47.14 10.68Q47.46 11.06 47.57 11.42L47.57 11.42L47.57 11.42Q47.68 11.77 47.68 12.33L47.68 12.33L47.68 13.27L47.68 13.27Q47.68 14.11 47.29 14.48L47.29 14.48L47.29 14.48Q46.89 14.84 46.07 14.84L46.07 14.84L46.07 14.84Q44.56 14.84 44.56 13.23L44.56 13.23L44.56 11.82L45.43 11.82L45.43 13.20L45.43 13.20Q45.43 13.52 45.62 13.71L45.62 13.71L45.62 13.71Q45.81 13.90 46.09 13.90L46.09 13.90L46.09 13.90Q46.72 13.90 46.72 13.20L46.72 13.20ZM49.59 4.94L48.62 4.94L48.62 3.19L49.59 3.19L49.59 4.94ZM49.59 14.71L48.62 14.71L48.62 6.05L49.59 6.05L49.59 14.71ZM52.92 15.20L52.92 13.76L52.92 13.76Q52.77 14.01 52.48 14.16L52.48 14.16L52.48 14.16Q52.19 14.31 51.83 14.31L51.83 14.31L51.83 14.31Q51.16 14.31 50.86 13.94L50.86 13.94L50.86 13.94Q50.57 13.58 50.57 12.73L50.57 12.73L50.57 7.59L50.57 7.59Q50.57 6.75 50.88 6.36L50.88 6.36L50.88 6.36Q51.20 5.96 51.80 5.96L51.80 5.96L51.80 5.96Q52.25 5.96 52.54 6.15L52.54 6.15L52.54 6.15Q52.82 6.34 53.00 6.71L53.00 6.71L53.00 6.71Q53.00 6.54 53.01 6.37L53.01 6.37L53.01 6.37Q53.02 6.20 53.03 6.05L53.03 6.05L53.84 6.05L53.84 15.16L53.84 15.16Q53.84 15.96 53.46 16.38L53.46 16.38L53.46 16.38Q53.07 16.80 52.26 16.80L52.26 16.80L52.26 16.80Q51.81 16.80 51.51 16.69L51.51 16.69L51.51 16.69Q51.20 16.58 51.02 16.37L51.02 16.37L51.02 16.37Q50.83 16.16 50.76 15.86L50.76 15.86L50.76 15.86Q50.68 15.55 50.68 15.16L50.68 15.16L50.68 14.81L51.55 14.81L51.55 15.20L51.55 15.20Q51.55 15.96 52.25 15.96L52.25 15.96L52.25 15.96Q52.92 15.96 52.92 15.20L52.92 15.20ZM52.92 12.82L52.92 7.56L52.92 7.56Q52.81 7.28 52.60 7.13L52.60 7.13L52.60 7.13Q52.39 6.99 52.14 6.99L52.14 6.99L52.14 6.99Q51.77 6.99 51.65 7.16L51.65 7.16L51.65 7.16Q51.52 7.34 51.52 7.64L51.52 7.64L51.52 12.70L51.52 12.70Q51.52 13.06 51.65 13.22L51.65 13.22L51.65 13.22Q51.79 13.38 52.14 13.38L52.14 13.38L52.14 13.38Q52.39 13.38 52.60 13.24L52.60 13.24L52.60 13.24Q52.81 13.10 52.92 12.82L52.92 12.82ZM58.13 14.71L57.16 14.71L57.16 7.56L57.16 7.56Q57.16 7.18 57.04 7.02L57.04 7.02L57.04 7.02Q56.91 6.86 56.60 6.86L56.60 6.86L56.60 6.86Q56.39 6.86 56.18 6.99L56.18 6.99L56.18 6.99Q55.97 7.11 55.86 7.39L55.86 7.39L55.86 14.71L54.89 14.71L54.89 6.05L55.71 6.05L55.71 6.05Q55.75 6.37 55.75 6.71L55.75 6.71L55.75 6.71Q55.94 6.34 56.27 6.13L56.27 6.13L56.27 6.13Q56.59 5.91 56.99 5.91L56.99 5.91L56.99 5.91Q57.58 5.91 57.86 6.29L57.86 6.29L57.86 6.29Q58.13 6.66 58.13 7.50L58.13 7.50L58.13 14.71Z"></path></g><defs data-v-423bf9ae=""><linearGradient data-v-423bf9ae="" gradientTransform="rotate(25)" id="307c2da5-e036-4660-bdba-df0061d079c6" x1="0%" y1="0%" x2="100%" y2="0%"><stop data-v-423bf9ae="" offset="0%" style="stop-color: rgb(112, 36, 61); stop-opacity: 1;"></stop><stop data-v-423bf9ae="" offset="100%" style="stop-color: rgb(193, 87, 103); stop-opacity: 1;"></stop></linearGradient></defs><g data-v-423bf9ae="" id="19bc4df5-92a2-48e2-a107-8c56f3d99951" transform="matrix(1.0249444749620227,0,0,1.0249444749620227,-13.520709770293294,-3.369737658145141)" stroke="none" fill="url(#307c2da5-e036-4660-bdba-df0061d079c6)"><path d="M57.484 24.356a8.346 8.346 0 0 0-.037-.388c2.434-2.098 3.985-5.197 3.985-8.657 0-6.305-5.129-11.433-11.434-11.433-6.306 0-11.435 5.128-11.435 11.433 0 3.458 1.549 6.555 3.981 8.653a8.43 8.43 0 0 0-.038.393c-16.417 3.463-28.78 18.06-28.78 35.493 0 20.002 16.272 36.273 36.273 36.273 20.003 0 36.274-16.271 36.274-36.273 0-17.436-12.367-32.034-28.789-35.494zm-15.26-9.044c0-4.287 3.487-7.774 7.775-7.774 4.287 0 7.775 3.487 7.775 7.774a7.738 7.738 0 0 1-1.839 5.01 7.498 7.498 0 0 0-11.876-.004 7.731 7.731 0 0 1-1.835-5.006zm10.518 75.194v-3.584a2.744 2.744 0 1 0-5.487 0v3.584c-14.789-1.314-26.6-13.123-27.913-27.91h2.737a2.745 2.745 0 0 0 0-5.488h-2.737c1.313-14.791 13.124-26.601 27.913-27.915v2.722a2.744 2.744 0 1 0 5.487 0v-2.722c14.79 1.312 26.6 13.124 27.914 27.915h-2.738a2.744 2.744 0 1 0 0 5.488h2.738c-1.314 14.789-13.124 26.597-27.914 27.91z"></path><path d="M39.343 80.205L56.134 62.76l4.519-24.226-16.787 17.445-4.523 24.226zm15.479-30.273l-2.047 10.971-5.559-3.07 7.606-7.901z"></path></g><!----><g data-v-423bf9ae="" id="233230e9-099a-4167-b670-56d165b04684" fill="#36131B" transform="matrix(0.4254602886248224,0,0,0.4254602886248224,94.22475287338104,57.579132012503024)"><path d="M1.15 6.34L0.31 6.15L0.36 5.89L3.05 5.89L3.03 6.11L1.90 6.32L3.86 13.18L5.90 6.18L6.21 6.14L8.15 13.18L10.36 6.36L9.08 6.13L9.12 5.89L11.74 5.89L11.72 6.14L10.91 6.34L8.22 14.49L7.77 14.57L5.94 7.63L3.92 14.49L3.44 14.57L1.15 6.34ZM20.66 6.36L19.43 6.18L19.48 5.89L25.68 5.89L25.46 8.07L25.15 8.03L25.02 6.24L21.37 6.24L21.37 9.89L23.66 9.89L23.91 8.94L24.28 8.89L24.06 11.55L23.71 11.61L23.60 10.26L21.37 10.26L21.37 14.03L25.21 14.03L25.72 12.19L26.00 12.26L25.79 14.40L19.46 14.40L19.50 14.11L20.66 13.90L20.66 6.36ZM35.60 6.15L35.60 9.75L37.72 9.75L37.72 9.75Q38.18 9.45 38.51 9.01L38.51 9.01L38.51 9.01Q38.85 8.57 38.85 8.02L38.85 8.02L38.85 8.02Q38.85 7.08 38.21 6.59L38.21 6.59L38.21 6.59Q37.57 6.11 36.44 6.11L36.44 6.11L36.44 6.11Q35.79 6.11 35.60 6.15L35.60 6.15ZM35.60 10.08L35.60 14.03L37.28 14.03L37.28 14.03Q37.92 14.03 38.38 13.85L38.38 13.85L38.38 13.85Q38.83 13.68 39.08 13.38L39.08 13.38L39.08 13.38Q39.32 13.08 39.43 12.74L39.43 12.74L39.43 12.74Q39.54 12.41 39.54 12.02L39.54 12.02L39.54 12.02Q39.54 11.68 39.43 11.36L39.43 11.36L39.43 11.36Q39.32 11.04 39.08 10.74L39.08 10.74L39.08 10.74Q38.84 10.45 38.40 10.26L38.40 10.26L38.40 10.26Q37.95 10.08 37.35 10.08L37.35 10.08L35.60 10.08ZM36.61 14.40L33.70 14.40L33.76 14.11L34.91 13.90L34.91 6.51L33.74 6.36L33.80 6.12L33.80 6.12Q33.93 6.10 34.36 6.03L34.36 6.03L34.36 6.03Q34.80 5.96 34.98 5.94L34.98 5.94L34.98 5.94Q35.15 5.91 35.51 5.87L35.51 5.87L35.51 5.87Q35.86 5.83 36.17 5.82L36.17 5.82L36.17 5.82Q36.48 5.80 36.83 5.80L36.83 5.80L36.83 5.80Q38.12 5.80 38.83 6.38L38.83 6.38L38.83 6.38Q39.55 6.96 39.55 7.79L39.55 7.79L39.55 7.79Q39.55 8.98 38.13 9.76L38.13 9.76L38.13 9.80L38.13 9.80Q39.12 9.86 39.69 10.46L39.69 10.46L39.69 10.46Q40.26 11.05 40.26 11.80L40.26 11.80L40.26 11.80Q40.26 12.22 40.16 12.58L40.16 12.58L40.16 12.58Q40.06 12.95 39.80 13.29L39.80 13.29L39.80 13.29Q39.53 13.63 39.13 13.87L39.13 13.87L39.13 13.87Q38.73 14.11 38.08 14.25L38.08 14.25L38.08 14.25Q37.43 14.40 36.61 14.40L36.61 14.40ZM59.78 6.19L59.78 14.03L61.01 14.03L61.01 14.03Q62.82 14.03 63.91 12.95L63.91 12.95L63.91 12.95Q65.01 11.87 65.01 10.12L65.01 10.12L65.01 10.12Q65.01 8.20 63.96 7.18L63.96 7.18L63.96 7.18Q62.90 6.16 60.97 6.16L60.97 6.16L60.97 6.16Q59.97 6.16 59.78 6.19L59.78 6.19ZM60.83 14.40L57.88 14.40L57.93 14.11L59.09 13.90L59.09 6.51L57.91 6.36L57.98 6.12L57.98 6.12Q60.07 5.79 61.22 5.79L61.22 5.79L61.22 5.79Q62.19 5.79 62.96 6.03L62.96 6.03L62.96 6.03Q63.74 6.26 64.25 6.66L64.25 6.66L64.25 6.66Q64.76 7.05 65.11 7.59L65.11 7.59L65.11 7.59Q65.45 8.13 65.60 8.71L65.60 8.71L65.60 8.71Q65.75 9.29 65.75 9.92L65.75 9.92L65.75 9.92Q65.75 10.64 65.58 11.28L65.58 11.28L65.58 11.28Q65.41 11.93 65.02 12.50L65.02 12.50L65.02 12.50Q64.64 13.08 64.08 13.49L64.08 13.49L64.08 13.49Q63.51 13.91 62.68 14.15L62.68 14.15L62.68 14.15Q61.85 14.40 60.83 14.40L60.83 14.40ZM74.69 6.36L73.47 6.18L73.51 5.89L79.71 5.89L79.50 8.07L79.18 8.03L79.05 6.24L75.40 6.24L75.40 9.89L77.69 9.89L77.94 8.94L78.31 8.89L78.09 11.55L77.74 11.61L77.63 10.26L75.40 10.26L75.40 14.03L79.24 14.03L79.75 12.19L80.03 12.26L79.82 14.40L73.49 14.40L73.53 14.11L74.69 13.90L74.69 6.36ZM88.72 6.34L87.72 6.14L87.75 5.89L90.64 5.89L90.62 6.14L89.47 6.32L91.83 13.30L94.41 6.34L93.14 6.14L93.16 5.89L95.83 5.89L95.80 6.14L94.92 6.32L91.90 14.47L91.55 14.57L88.72 6.34ZM104.75 6.36L103.52 6.18L103.57 5.89L109.76 5.89L109.55 8.07L109.24 8.03L109.11 6.24L105.46 6.24L105.46 9.89L107.75 9.89L108.00 8.94L108.37 8.89L108.14 11.55L107.80 11.61L107.69 10.26L105.46 10.26L105.46 14.03L109.30 14.03L109.81 12.19L110.09 12.26L109.88 14.40L103.54 14.40L103.58 14.11L104.75 13.90L104.75 6.36ZM123.96 14.40L117.81 14.40L117.84 14.11L119 13.90L119 6.34L117.82 6.17L117.85 5.90L120.96 5.90L120.93 6.17L119.73 6.32L119.73 14.03L123.35 14.03L123.88 12.09L124.18 12.14L123.96 14.40ZM132.68 9.75L132.68 9.75L132.68 9.75Q132.68 11.03 133.04 12.01L133.04 12.01L133.04 12.01Q133.40 13.00 134.12 13.57L134.12 13.57L134.12 13.57Q134.84 14.14 135.82 14.14L135.82 14.14L135.82 14.14Q136.39 14.14 136.88 13.92L136.88 13.92L136.88 13.92Q137.38 13.70 137.72 13.33L137.72 13.33L137.72 13.33Q138.07 12.96 138.31 12.49L138.31 12.49L138.31 12.49Q138.55 12.01 138.67 11.50L138.67 11.50L138.67 11.50Q138.78 10.99 138.78 10.48L138.78 10.48L138.78 10.48Q138.78 8.50 137.93 7.29L137.93 7.29L137.93 7.29Q137.08 6.07 135.63 6.07L135.63 6.07L135.63 6.07Q135.05 6.07 134.56 6.28L134.56 6.28L134.56 6.28Q134.07 6.49 133.72 6.85L133.72 6.85L133.72 6.85Q133.38 7.21 133.14 7.69L133.14 7.69L133.14 7.69Q132.90 8.16 132.79 8.69L132.79 8.69L132.79 8.69Q132.68 9.21 132.68 9.75ZM131.93 10.16L131.93 10.16L131.93 10.16Q131.93 8.16 133.02 6.92L133.02 6.92L133.02 6.92Q134.12 5.69 135.96 5.69L135.96 5.69L135.96 5.69Q137.09 5.69 137.91 6.27L137.91 6.27L137.91 6.27Q138.73 6.86 139.13 7.84L139.13 7.84L139.13 7.84Q139.52 8.83 139.52 10.11L139.52 10.11L139.52 10.11Q139.52 10.75 139.37 11.38L139.37 11.38L139.37 11.38Q139.22 12.00 138.90 12.58L138.90 12.58L138.90 12.58Q138.57 13.17 138.11 13.61L138.11 13.61L138.11 13.61Q137.65 14.05 136.97 14.32L136.97 14.32L136.97 14.32Q136.29 14.58 135.49 14.58L135.49 14.58L135.49 14.58Q134.44 14.58 133.61 13.98L133.61 13.98L133.61 13.98Q132.79 13.37 132.36 12.37L132.36 12.37L132.36 12.37Q131.93 11.37 131.93 10.16ZM150.66 14.40L147.25 14.40L147.28 14.11L148.36 13.90L148.36 6.51L147.25 6.36L147.31 6.12L147.31 6.12Q147.49 6.09 147.93 6.02L147.93 6.02L147.93 6.02Q148.38 5.94 148.61 5.91L148.61 5.91L148.61 5.91Q148.84 5.88 149.25 5.84L149.25 5.84L149.25 5.84Q149.66 5.81 150.08 5.81L150.08 5.81L150.08 5.81Q150.77 5.81 151.35 5.96L151.35 5.96L151.35 5.96Q151.94 6.10 152.40 6.40L152.40 6.40L152.40 6.40Q152.87 6.69 153.13 7.18L153.13 7.18L153.13 7.18Q153.38 7.66 153.38 8.29L153.38 8.29L153.38 8.29Q153.38 8.90 153.10 9.43L153.10 9.43L153.10 9.43Q152.82 9.97 152.36 10.33L152.36 10.33L152.36 10.33Q151.90 10.69 151.30 10.90L151.30 10.90L151.30 10.90Q150.70 11.10 150.06 11.10L150.06 11.10L150.06 11.10Q149.79 11.10 149.72 11.09L149.72 11.09L149.65 10.80L150.02 10.78L150.02 10.78Q150.68 10.75 151.18 10.55L151.18 10.55L151.18 10.55Q151.68 10.36 151.97 10.03L151.97 10.03L151.97 10.03Q152.26 9.70 152.40 9.30L152.40 9.30L152.40 9.30Q152.54 8.90 152.54 8.43L152.54 8.43L152.54 8.43Q152.54 7.98 152.37 7.57L152.37 7.57L152.37 7.57Q152.20 7.16 151.88 6.83L151.88 6.83L151.88 6.83Q151.56 6.50 151.04 6.31L151.04 6.31L151.04 6.31Q150.51 6.11 149.86 6.11L149.86 6.11L149.11 6.15L149.11 13.95L150.71 14.08L150.66 14.40ZM163.88 14.40L161.05 14.40L161.08 14.17L162.22 13.96L162.79 6.36L161.53 6.14L161.58 5.89L163.76 5.89L164.25 7.18L166.39 12.84L168.84 6.88L169.26 5.89L171.49 5.89L171.45 6.14L170.28 6.34L170.65 14.01L171.88 14.12L171.87 14.40L168.71 14.40L168.75 14.17L169.92 13.96L169.53 6.41L166.35 13.99L166.01 14.05L163.22 6.53L162.68 14.01L163.92 14.12L163.88 14.40ZM180.80 6.36L179.58 6.18L179.63 5.89L185.82 5.89L185.61 8.07L185.29 8.03L185.17 6.24L181.51 6.24L181.51 9.89L183.80 9.89L184.06 8.94L184.43 8.89L184.20 11.55L183.85 11.61L183.74 10.26L181.51 10.26L181.51 14.03L185.36 14.03L185.86 12.19L186.14 12.26L185.94 14.40L179.60 14.40L179.64 14.11L180.80 13.90L180.80 6.36ZM195.10 6.36L193.83 6.14L193.89 5.89L195.96 5.89L200.68 13.17L200.68 6.33L199.43 6.16L199.47 5.89L202.37 5.89L202.32 6.16L201.18 6.32L201.18 14.44L200.81 14.52L195.60 6.65L195.60 13.95L196.86 14.08L196.79 14.40L193.92 14.40L193.96 14.11L195.10 13.90L195.10 6.36ZM210.12 8.09L210.05 5.89L217.11 5.89L216.87 8.16L216.53 8.12L216.41 6.24L213.88 6.24L213.88 13.90L215.09 14.08L215.01 14.40L211.91 14.40L211.95 14.11L213.14 13.90L213.14 6.24L210.71 6.24L210.47 8.15L210.12 8.09ZM235.94 6.36L234.73 6.18L234.78 5.89L240.97 5.89L240.75 8.09L240.41 8.04L240.27 6.24L236.65 6.24L236.65 10.07L238.92 10.07L239.19 9.11L239.57 9.06L239.36 11.72L238.98 11.77L238.86 10.43L236.65 10.43L236.65 13.92L238.33 14.03L238.25 14.40L234.76 14.40L234.78 14.11L235.94 13.90L235.94 6.36ZM249.46 9.75L249.46 9.75L249.46 9.75Q249.46 11.03 249.83 12.01L249.83 12.01L249.83 12.01Q250.19 13.00 250.91 13.57L250.91 13.57L250.91 13.57Q251.62 14.14 252.60 14.14L252.60 14.14L252.60 14.14Q253.18 14.14 253.67 13.92L253.67 13.92L253.67 13.92Q254.16 13.70 254.51 13.33L254.51 13.33L254.51 13.33Q254.85 12.96 255.09 12.49L255.09 12.49L255.09 12.49Q255.34 12.01 255.45 11.50L255.45 11.50L255.45 11.50Q255.57 10.99 255.57 10.48L255.57 10.48L255.57 10.48Q255.57 8.50 254.72 7.29L254.72 7.29L254.72 7.29Q253.87 6.07 252.42 6.07L252.42 6.07L252.42 6.07Q251.84 6.07 251.34 6.28L251.34 6.28L251.34 6.28Q250.85 6.49 250.51 6.85L250.51 6.85L250.51 6.85Q250.17 7.21 249.93 7.69L249.93 7.69L249.93 7.69Q249.69 8.16 249.58 8.69L249.58 8.69L249.58 8.69Q249.46 9.21 249.46 9.75ZM248.71 10.16L248.71 10.16L248.71 10.16Q248.71 8.16 249.81 6.92L249.81 6.92L249.81 6.92Q250.91 5.69 252.75 5.69L252.75 5.69L252.75 5.69Q253.88 5.69 254.70 6.27L254.70 6.27L254.70 6.27Q255.51 6.86 255.91 7.84L255.91 7.84L255.91 7.84Q256.31 8.83 256.31 10.11L256.31 10.11L256.31 10.11Q256.31 10.75 256.16 11.38L256.16 11.38L256.16 11.38Q256.01 12.00 255.68 12.58L255.68 12.58L255.68 12.58Q255.36 13.17 254.90 13.61L254.90 13.61L254.90 13.61Q254.43 14.05 253.76 14.32L253.76 14.32L253.76 14.32Q253.08 14.58 252.27 14.58L252.27 14.58L252.27 14.58Q251.22 14.58 250.40 13.98L250.40 13.98L250.40 13.98Q249.57 13.37 249.14 12.37L249.14 12.37L249.14 12.37Q248.71 11.37 248.71 10.16ZM265.85 6.18L265.85 10.11L267.40 10.11L267.40 10.11Q268.08 9.86 268.54 9.28L268.54 9.28L268.54 9.28Q269.00 8.70 269.00 8.02L269.00 8.02L269.00 8.02Q269.00 7.11 268.38 6.63L268.38 6.63L268.38 6.63Q267.76 6.15 266.68 6.15L266.68 6.15L265.85 6.18ZM267.22 14.40L264.03 14.40L264.08 14.11L265.15 13.90L265.15 6.51L264.05 6.37L264.11 6.13L264.11 6.13Q265.94 5.83 267.02 5.83L267.02 5.83L267.02 5.83Q267.78 5.83 268.39 6.05L268.39 6.05L268.39 6.05Q269.00 6.27 269.38 6.73L269.38 6.73L269.38 6.73Q269.75 7.19 269.75 7.83L269.75 7.83L269.75 7.83Q269.75 8.57 269.33 9.14L269.33 9.14L269.33 9.14Q268.90 9.72 267.87 10.23L267.87 10.23L267.87 10.23L269.19 12.19L269.19 12.19Q269.90 13.23 270.24 13.58L270.24 13.58L270.24 13.58Q270.59 13.92 270.97 14.05L270.97 14.05L271.30 14.16L271.26 14.42L271.26 14.42Q270.96 14.52 270.62 14.52L270.62 14.52L270.62 14.52Q270.33 14.52 270.08 14.40L270.08 14.40L270.08 14.40Q269.83 14.28 269.59 14.01L269.59 14.01L269.59 14.01Q269.34 13.75 269.16 13.48L269.16 13.48L269.16 13.48Q268.97 13.22 268.70 12.77L268.70 12.77L267.31 10.49L265.85 10.49L265.85 13.95L267.29 14.08L267.22 14.40ZM295.07 14.40L288.91 14.40L288.95 14.11L290.10 13.90L290.10 6.34L288.93 6.17L288.96 5.90L292.07 5.90L292.04 6.17L290.83 6.32L290.83 14.03L294.46 14.03L294.98 12.09L295.29 12.14L295.07 14.40ZM303.78 9.75L303.78 9.75L303.78 9.75Q303.78 11.03 304.14 12.01L304.14 12.01L304.14 12.01Q304.51 13.00 305.22 13.57L305.22 13.57L305.22 13.57Q305.94 14.14 306.92 14.14L306.92 14.14L306.92 14.14Q307.49 14.14 307.99 13.92L307.99 13.92L307.99 13.92Q308.48 13.70 308.82 13.33L308.82 13.33L308.82 13.33Q309.17 12.96 309.41 12.49L309.41 12.49L309.41 12.49Q309.65 12.01 309.77 11.50L309.77 11.50L309.77 11.50Q309.89 10.99 309.89 10.48L309.89 10.48L309.89 10.48Q309.89 8.50 309.04 7.29L309.04 7.29L309.04 7.29Q308.18 6.07 306.74 6.07L306.74 6.07L306.74 6.07Q306.15 6.07 305.66 6.28L305.66 6.28L305.66 6.28Q305.17 6.49 304.83 6.85L304.83 6.85L304.83 6.85Q304.49 7.21 304.25 7.69L304.25 7.69L304.25 7.69Q304.01 8.16 303.90 8.69L303.90 8.69L303.90 8.69Q303.78 9.21 303.78 9.75ZM303.03 10.16L303.03 10.16L303.03 10.16Q303.03 8.16 304.13 6.92L304.13 6.92L304.13 6.92Q305.22 5.69 307.06 5.69L307.06 5.69L307.06 5.69Q308.20 5.69 309.02 6.27L309.02 6.27L309.02 6.27Q309.83 6.86 310.23 7.84L310.23 7.84L310.23 7.84Q310.63 8.83 310.63 10.11L310.63 10.11L310.63 10.11Q310.63 10.75 310.47 11.38L310.47 11.38L310.47 11.38Q310.32 12.00 310.00 12.58L310.00 12.58L310.00 12.58Q309.67 13.17 309.21 13.61L309.21 13.61L309.21 13.61Q308.75 14.05 308.08 14.32L308.08 14.32L308.08 14.32Q307.40 14.58 306.59 14.58L306.59 14.58L306.59 14.58Q305.54 14.58 304.72 13.98L304.72 13.98L304.72 13.98Q303.89 13.37 303.46 12.37L303.46 12.37L303.46 12.37Q303.03 11.37 303.03 10.16ZM318.38 10.25L318.38 10.25L318.38 10.25Q318.38 9.73 318.48 9.21L318.48 9.21L318.48 9.21Q318.59 8.68 318.79 8.17L318.79 8.17L318.79 8.17Q318.99 7.66 319.32 7.22L319.32 7.22L319.32 7.22Q319.65 6.77 320.06 6.44L320.06 6.44L320.06 6.44Q320.48 6.10 321.03 5.90L321.03 5.90L321.03 5.90Q321.59 5.71 322.23 5.71L322.23 5.71L322.23 5.71Q323.64 5.71 324.55 6.39L324.55 6.39L324.34 8.70L324.02 8.64L323.81 6.87L323.81 6.87Q323.22 6.09 321.90 6.09L321.90 6.09L321.90 6.09Q320.76 6.09 319.93 7.19L319.93 7.19L319.93 7.19Q319.10 8.30 319.10 10.00L319.10 10.00L319.10 10.00Q319.10 11.92 319.90 12.97L319.90 12.97L319.90 12.97Q320.71 14.03 322.18 14.03L322.18 14.03L322.18 14.03Q322.92 14.03 323.61 13.65L323.61 13.65L323.61 13.65Q324.30 13.28 324.77 12.74L324.77 12.74L324.93 12.99L324.93 12.99Q324.75 13.25 324.47 13.51L324.47 13.51L324.47 13.51Q324.18 13.77 323.79 14.02L323.79 14.02L323.79 14.02Q323.41 14.27 322.90 14.42L322.90 14.42L322.90 14.42Q322.40 14.57 321.87 14.57L321.87 14.57L321.87 14.57Q320.30 14.57 319.34 13.40L319.34 13.40L319.34 13.40Q318.38 12.22 318.38 10.25ZM336.66 6.98L335.30 10.75L337.98 10.75L336.66 6.98ZM335.34 14.40L332.62 14.40L332.65 14.11L333.62 13.90L336.62 5.82L336.98 5.73L339.81 13.95L340.72 14.08L340.66 14.39L337.87 14.39L337.93 14.10L339.06 13.90L338.11 11.13L335.16 11.13L334.15 13.95L335.41 14.08L335.34 14.40ZM354.57 14.40L348.42 14.40L348.46 14.11L349.61 13.90L349.61 6.34L348.43 6.17L348.46 5.90L351.57 5.90L351.54 6.17L350.34 6.32L350.34 14.03L353.96 14.03L354.49 12.09L354.79 12.14L354.57 14.40ZM374.32 6.15L374.32 9.75L376.43 9.75L376.43 9.75Q376.89 9.45 377.23 9.01L377.23 9.01L377.23 9.01Q377.56 8.57 377.56 8.02L377.56 8.02L377.56 8.02Q377.56 7.08 376.92 6.59L376.92 6.59L376.92 6.59Q376.28 6.11 375.15 6.11L375.15 6.11L375.15 6.11Q374.50 6.11 374.32 6.15L374.32 6.15ZM374.32 10.08L374.32 14.03L376.00 14.03L376.00 14.03Q376.63 14.03 377.09 13.85L377.09 13.85L377.09 13.85Q377.55 13.68 377.79 13.38L377.79 13.38L377.79 13.38Q378.03 13.08 378.14 12.74L378.14 12.74L378.14 12.74Q378.25 12.41 378.25 12.02L378.25 12.02L378.25 12.02Q378.25 11.68 378.14 11.36L378.14 11.36L378.14 11.36Q378.03 11.04 377.79 10.74L377.79 10.74L377.79 10.74Q377.56 10.45 377.11 10.26L377.11 10.26L377.11 10.26Q376.67 10.08 376.07 10.08L376.07 10.08L374.32 10.08ZM375.32 14.40L372.42 14.40L372.47 14.11L373.63 13.90L373.63 6.51L372.45 6.36L372.52 6.12L372.52 6.12Q372.64 6.10 373.08 6.03L373.08 6.03L373.08 6.03Q373.52 5.96 373.69 5.94L373.69 5.94L373.69 5.94Q373.86 5.91 374.22 5.87L374.22 5.87L374.22 5.87Q374.58 5.83 374.89 5.82L374.89 5.82L374.89 5.82Q375.20 5.80 375.55 5.80L375.55 5.80L375.55 5.80Q376.83 5.80 377.55 6.38L377.55 6.38L377.55 6.38Q378.26 6.96 378.26 7.79L378.26 7.79L378.26 7.79Q378.26 8.98 376.84 9.76L376.84 9.76L376.84 9.80L376.84 9.80Q377.84 9.86 378.41 10.46L378.41 10.46L378.41 10.46Q378.98 11.05 378.98 11.80L378.98 11.80L378.98 11.80Q378.98 12.22 378.88 12.58L378.88 12.58L378.88 12.58Q378.77 12.95 378.51 13.29L378.51 13.29L378.51 13.29Q378.25 13.63 377.84 13.87L377.84 13.87L377.84 13.87Q377.44 14.11 376.79 14.25L376.79 14.25L376.79 14.25Q376.15 14.40 375.32 14.40L375.32 14.40ZM387.90 6.33L386.66 6.16L386.69 5.89L389.79 5.89L389.76 6.16L388.61 6.32L388.61 11.01L388.61 11.01Q388.61 11.87 388.79 12.49L388.79 12.49L388.79 12.49Q388.97 13.10 389.32 13.45L389.32 13.45L389.32 13.45Q389.67 13.79 390.12 13.95L390.12 13.95L390.12 13.95Q390.56 14.11 391.15 14.11L391.15 14.11L391.15 14.11Q392.33 14.11 392.97 13.40L392.97 13.40L392.97 13.40Q393.61 12.68 393.61 11.33L393.61 11.33L393.61 6.33L392.34 6.16L392.38 5.89L395.28 5.89L395.23 6.16L394.09 6.32L394.07 11.05L394.07 11.05Q394.06 12.78 393.33 13.68L393.33 13.68L393.33 13.68Q392.59 14.58 390.93 14.58L390.93 14.58L390.93 14.58Q390.43 14.58 390.00 14.49L390.00 14.49L390.00 14.49Q389.58 14.40 389.18 14.16L389.18 14.16L389.18 14.16Q388.79 13.93 388.51 13.56L388.51 13.56L388.51 13.56Q388.23 13.19 388.07 12.60L388.07 12.60L388.07 12.60Q387.90 12.01 387.90 11.24L387.90 11.24L387.90 6.33ZM402.97 13.60L402.97 13.60L403.18 11.66L403.50 11.71L403.70 13.21L403.70 13.21Q403.92 13.64 404.45 13.89L404.45 13.89L404.45 13.89Q404.98 14.14 405.58 14.14L405.58 14.14L405.58 14.14Q406.27 14.14 406.75 13.74L406.75 13.74L406.75 13.74Q407.22 13.33 407.22 12.61L407.22 12.61L407.22 12.61Q407.22 12.20 407.01 11.83L407.01 11.83L407.01 11.83Q406.79 11.46 406.45 11.18L406.45 11.18L406.45 11.18Q406.10 10.90 405.68 10.63L405.68 10.63L405.68 10.63Q405.26 10.36 404.84 10.07L404.84 10.07L404.84 10.07Q404.43 9.79 404.08 9.48L404.08 9.48L404.08 9.48Q403.74 9.17 403.52 8.75L403.52 8.75L403.52 8.75Q403.31 8.33 403.31 7.84L403.31 7.84L403.31 7.84Q403.31 6.88 404.00 6.29L404.00 6.29L404.00 6.29Q404.69 5.71 405.58 5.71L405.58 5.71L405.58 5.71Q406.16 5.71 406.70 5.90L406.70 5.90L406.70 5.90Q407.24 6.09 407.57 6.46L407.57 6.46L407.35 8.58L407.03 8.53L406.85 6.87L406.85 6.87Q406.66 6.54 406.25 6.32L406.25 6.32L406.25 6.32Q405.83 6.10 405.40 6.10L405.40 6.10L405.40 6.10Q404.80 6.10 404.39 6.48L404.39 6.48L404.39 6.48Q403.98 6.87 403.98 7.52L403.98 7.52L403.98 7.52Q403.98 7.96 404.20 8.35L404.20 8.35L404.20 8.35Q404.42 8.74 404.77 9.03L404.77 9.03L404.77 9.03Q405.13 9.32 405.55 9.61L405.55 9.61L405.55 9.61Q405.97 9.89 406.40 10.17L406.40 10.17L406.40 10.17Q406.83 10.45 407.18 10.75L407.18 10.75L407.18 10.75Q407.53 11.05 407.75 11.45L407.75 11.45L407.75 11.45Q407.98 11.85 407.98 12.29L407.98 12.29L407.98 12.29Q407.98 13.28 407.22 13.93L407.22 13.93L407.22 13.93Q406.47 14.57 405.23 14.57L405.23 14.57L405.23 14.57Q404.52 14.57 403.92 14.30L403.92 14.30L403.92 14.30Q403.31 14.03 402.97 13.60ZM416.86 6.33L415.67 6.16L415.71 5.89L418.84 5.89L418.79 6.16L417.59 6.32L417.59 13.95L418.91 14.08L418.85 14.40L415.74 14.40L415.78 14.11L416.86 13.90L416.86 6.33ZM427.87 6.36L426.60 6.14L426.66 5.89L428.73 5.89L433.45 13.17L433.45 6.33L432.20 6.16L432.24 5.89L435.14 5.89L435.09 6.16L433.95 6.32L433.95 14.44L433.58 14.52L428.37 6.65L428.37 13.95L429.63 14.08L429.56 14.40L426.69 14.40L426.73 14.11L427.87 13.90L427.87 6.36ZM444.05 6.36L442.83 6.18L442.87 5.89L449.07 5.89L448.85 8.07L448.54 8.03L448.41 6.24L444.76 6.24L444.76 9.89L447.05 9.89L447.30 8.94L447.67 8.89L447.45 11.55L447.10 11.61L446.99 10.26L444.76 10.26L444.76 14.03L448.60 14.03L449.11 12.19L449.39 12.26L449.18 14.40L442.85 14.40L442.89 14.11L444.05 13.90L444.05 6.36ZM457.11 13.60L457.11 13.60L457.31 11.66L457.64 11.71L457.83 13.21L457.83 13.21Q458.06 13.64 458.59 13.89L458.59 13.89L458.59 13.89Q459.12 14.14 459.72 14.14L459.72 14.14L459.72 14.14Q460.40 14.14 460.88 13.74L460.88 13.74L460.88 13.74Q461.36 13.33 461.36 12.61L461.36 12.61L461.36 12.61Q461.36 12.20 461.14 11.83L461.14 11.83L461.14 11.83Q460.93 11.46 460.58 11.18L460.58 11.18L460.58 11.18Q460.24 10.90 459.82 10.63L459.82 10.63L459.82 10.63Q459.40 10.36 458.98 10.07L458.98 10.07L458.98 10.07Q458.56 9.79 458.22 9.48L458.22 9.48L458.22 9.48Q457.87 9.17 457.66 8.75L457.66 8.75L457.66 8.75Q457.44 8.33 457.44 7.84L457.44 7.84L457.44 7.84Q457.44 6.88 458.13 6.29L458.13 6.29L458.13 6.29Q458.83 5.71 459.71 5.71L459.71 5.71L459.71 5.71Q460.30 5.71 460.84 5.90L460.84 5.90L460.84 5.90Q461.38 6.09 461.71 6.46L461.71 6.46L461.48 8.58L461.17 8.53L460.98 6.87L460.98 6.87Q460.80 6.54 460.38 6.32L460.38 6.32L460.38 6.32Q459.96 6.10 459.53 6.10L459.53 6.10L459.53 6.10Q458.94 6.10 458.52 6.48L458.52 6.48L458.52 6.48Q458.11 6.87 458.11 7.52L458.11 7.52L458.11 7.52Q458.11 7.96 458.33 8.35L458.33 8.35L458.33 8.35Q458.55 8.74 458.91 9.03L458.91 9.03L458.91 9.03Q459.26 9.32 459.68 9.61L459.68 9.61L459.68 9.61Q460.11 9.89 460.53 10.17L460.53 10.17L460.53 10.17Q460.96 10.45 461.31 10.75L461.31 10.75L461.31 10.75Q461.67 11.05 461.89 11.45L461.89 11.45L461.89 11.45Q462.11 11.85 462.11 12.29L462.11 12.29L462.11 12.29Q462.11 13.28 461.36 13.93L461.36 13.93L461.36 13.93Q460.61 14.57 459.36 14.57L459.36 14.57L459.36 14.57Q458.65 14.57 458.05 14.30L458.05 14.30L458.05 14.30Q457.45 14.03 457.11 13.60ZM469.83 13.60L469.83 13.60L470.04 11.66L470.37 11.71L470.56 13.21L470.56 13.21Q470.78 13.64 471.31 13.89L471.31 13.89L471.31 13.89Q471.84 14.14 472.45 14.14L472.45 14.14L472.45 14.14Q473.13 14.14 473.61 13.74L473.61 13.74L473.61 13.74Q474.09 13.33 474.09 12.61L474.09 12.61L474.09 12.61Q474.09 12.20 473.87 11.83L473.87 11.83L473.87 11.83Q473.66 11.46 473.31 11.18L473.31 11.18L473.31 11.18Q472.96 10.90 472.54 10.63L472.54 10.63L472.54 10.63Q472.12 10.36 471.71 10.07L471.71 10.07L471.71 10.07Q471.29 9.79 470.94 9.48L470.94 9.48L470.94 9.48Q470.60 9.17 470.38 8.75L470.38 8.75L470.38 8.75Q470.17 8.33 470.17 7.84L470.17 7.84L470.17 7.84Q470.17 6.88 470.86 6.29L470.86 6.29L470.86 6.29Q471.56 5.71 472.44 5.71L472.44 5.71L472.44 5.71Q473.03 5.71 473.57 5.90L473.57 5.90L473.57 5.90Q474.11 6.09 474.43 6.46L474.43 6.46L474.21 8.58L473.89 8.53L473.71 6.87L473.71 6.87Q473.53 6.54 473.11 6.32L473.11 6.32L473.11 6.32Q472.69 6.10 472.26 6.10L472.26 6.10L472.26 6.10Q471.67 6.10 471.25 6.48L471.25 6.48L471.25 6.48Q470.84 6.87 470.84 7.52L470.84 7.52L470.84 7.52Q470.84 7.96 471.06 8.35L471.06 8.35L471.06 8.35Q471.28 8.74 471.64 9.03L471.64 9.03L471.64 9.03Q471.99 9.32 472.41 9.61L472.41 9.61L472.41 9.61Q472.83 9.89 473.26 10.17L473.26 10.17L473.26 10.17Q473.69 10.45 474.04 10.75L474.04 10.75L474.04 10.75Q474.39 11.05 474.62 11.45L474.62 11.45L474.62 11.45Q474.84 11.85 474.84 12.29L474.84 12.29L474.84 12.29Q474.84 13.28 474.09 13.93L474.09 13.93L474.09 13.93Q473.33 14.57 472.09 14.57L472.09 14.57L472.09 14.57Q471.38 14.57 470.78 14.30L470.78 14.30L470.78 14.30Q470.18 14.03 469.83 13.60Z"></path></g></svg>