<svg data-v-423bf9ae="" xmlns="http://www.w3.org/2000/svg" viewBox="0 0 252.3670878022203 60" class="font"><!----><!----><!----><g data-v-423bf9ae="" id="215111c4-7a5b-4603-a43b-32d3a3030454" fill="white" transform="matrix(4.369992862376109,0,0,4.369992862376109,-1.660598182356992,-13.415877557347578)"><path d="M2.90 12.94L2.90 11.30L2.90 11.30Q2.90 11.03 2.88 10.86L2.88 10.86L2.88 10.86Q2.87 10.70 2.83 10.57L2.83 10.57L2.83 10.57Q2.79 10.44 2.72 10.34L2.72 10.34L2.72 10.34Q2.65 10.23 2.55 10.11L2.55 10.11L2.55 10.11Q2.34 9.86 2.13 9.64L2.13 9.64L2.13 9.64Q1.92 9.42 1.69 9.21L1.69 9.21L1.69 9.21Q1.47 8.99 1.24 8.74L1.24 8.74L1.24 8.74Q1.01 8.50 0.76 8.19L0.76 8.19L0.76 8.19Q0.48 7.87 0.43 7.53L0.43 7.53L0.43 7.53Q0.38 7.18 0.38 6.69L0.38 6.69L0.38 4.97L0.38 4.97Q0.38 3.07 2.17 3.07L2.17 3.07L2.17 3.07Q3.14 3.07 3.53 3.54L3.53 3.54L3.53 3.54Q3.92 4.00 3.92 4.97L3.92 4.97L3.92 7.07L2.93 7.07L2.93 5.11L2.93 5.11Q2.93 4.68 2.78 4.41L2.78 4.41L2.78 4.41Q2.63 4.14 2.20 4.14L2.20 4.14L2.20 4.14Q1.46 4.14 1.46 4.97L1.46 4.97L1.46 6.68L1.46 6.68Q1.46 7.04 1.51 7.21L1.51 7.21L1.51 7.21Q1.55 7.38 1.71 7.57L1.71 7.57L1.71 7.57Q2.13 8.11 2.57 8.51L2.57 8.51L2.57 8.51Q3.01 8.92 3.46 9.45L3.46 9.45L3.46 9.45Q3.61 9.63 3.71 9.81L3.71 9.81L3.71 9.81Q3.81 10.00 3.86 10.21L3.86 10.21L3.86 10.21Q3.92 10.42 3.94 10.68L3.94 10.68L3.94 10.68Q3.96 10.95 3.96 11.28L3.96 11.28L3.96 12.94L3.96 12.94Q3.96 13.86 3.55 14.35L3.55 14.35L3.55 14.35Q3.14 14.84 2.17 14.84L2.17 14.84L2.17 14.84Q1.23 14.84 0.81 14.35L0.81 14.35L0.81 14.35Q0.38 13.86 0.38 12.94L0.38 12.94L0.38 10.49L1.40 10.49L1.40 12.78L1.40 12.78Q1.40 13.23 1.56 13.51L1.56 13.51L1.56 13.51Q1.72 13.79 2.14 13.79L2.14 13.79L2.14 13.79Q2.55 13.79 2.72 13.57L2.72 13.57L2.72 13.57Q2.90 13.36 2.90 12.94L2.90 12.94ZM4.77 13.12L4.77 7.64L4.77 7.64Q4.77 6.80 5.17 6.36L5.17 6.36L5.17 6.36Q5.56 5.91 6.37 5.91L6.37 5.91L6.37 5.91Q7.17 5.91 7.57 6.36L7.57 6.36L7.57 6.36Q7.97 6.80 7.97 7.64L7.97 7.64L7.97 13.12L7.97 13.12Q7.97 13.96 7.57 14.40L7.57 14.40L7.57 14.40Q7.17 14.84 6.37 14.84L6.37 14.84L6.37 14.84Q5.56 14.84 5.17 14.40L5.17 14.40L5.17 14.40Q4.77 13.96 4.77 13.12L4.77 13.12ZM7.03 13.09L7.03 7.67L7.03 7.67Q7.03 7.31 6.89 7.11L6.89 7.11L6.89 7.11Q6.76 6.90 6.37 6.90L6.37 6.90L6.37 6.90Q5.98 6.90 5.84 7.11L5.84 7.11L5.84 7.11Q5.71 7.31 5.71 7.67L5.71 7.67L5.71 13.12L5.71 13.12Q5.71 13.48 5.84 13.67L5.84 13.67L5.84 13.67Q5.98 13.86 6.37 13.86L6.37 13.86L6.37 13.86Q6.76 13.86 6.89 13.66L6.89 13.66L6.89 13.66Q7.03 13.47 7.03 13.09L7.03 13.09ZM12.08 14.71L11.26 14.71L11.26 14.71Q11.24 14.56 11.23 14.41L11.23 14.41L11.23 14.41Q11.23 14.25 11.23 14.08L11.23 14.08L11.23 14.08Q11.03 14.43 10.72 14.62L10.72 14.62L10.72 14.62Q10.40 14.81 10.00 14.81L10.00 14.81L10.00 14.81Q8.88 14.81 8.88 13.31L8.88 13.31L8.88 6.05L9.84 6.05L9.84 13.16L9.84 13.16Q9.84 13.55 9.97 13.71L9.97 13.71L9.97 13.71Q10.09 13.86 10.37 13.86L10.37 13.86L10.37 13.86Q10.60 13.86 10.80 13.74L10.80 13.74L10.80 13.74Q11.00 13.62 11.12 13.34L11.12 13.34L11.12 6.05L12.08 6.05L12.08 14.71ZM15.12 14L15.12 14.77L15.12 14.77Q15.05 14.80 14.92 14.82L14.92 14.82L14.92 14.82Q14.78 14.84 14.67 14.84L14.67 14.84L14.67 14.84Q13.90 14.84 13.52 14.36L13.52 14.36L13.52 14.36Q13.15 13.89 13.15 13.05L13.15 13.05L13.15 6.90L12.74 6.90L12.74 6.05L13.15 6.05L13.15 3.30L14.11 3.30L14.11 6.05L15.09 6.05L15.09 6.90L14.11 6.90L14.11 13.05L14.11 13.05Q14.11 13.58 14.30 13.80L14.30 13.80L14.30 13.80Q14.49 14.01 14.94 14.01L14.94 14.01L14.94 14.01Q14.98 14.01 15.03 14.01L15.03 14.01L15.03 14.01Q15.08 14.01 15.12 14L15.12 14ZM19.03 14.71L18.06 14.71L18.06 7.56L18.06 7.56Q18.06 7.18 17.93 7.02L17.93 7.02L17.93 7.02Q17.81 6.86 17.50 6.86L17.50 6.86L17.50 6.86Q17.29 6.86 17.08 6.99L17.08 6.99L17.08 6.99Q16.87 7.11 16.76 7.39L16.76 7.39L16.76 14.71L15.79 14.71L15.79 3.19L16.76 3.19L16.76 6.54L16.76 6.54Q16.95 6.26 17.25 6.08L17.25 6.08L17.25 6.08Q17.54 5.91 17.91 5.91L17.91 5.91L17.91 5.91Q18.49 5.91 18.76 6.29L18.76 6.29L18.76 6.29Q19.03 6.66 19.03 7.50L19.03 7.50L19.03 14.71ZM25.05 14.71L21.92 14.71L21.92 3.19L24.98 3.19L24.98 4.27L22.99 4.27L22.99 8.32L24.39 8.32L24.39 9.38L22.99 9.38L22.99 13.66L25.05 13.66L25.05 14.71ZM29.08 14.71L28.11 14.71L28.11 7.56L28.11 7.56Q28.11 7.18 27.99 7.02L27.99 7.02L27.99 7.02Q27.86 6.86 27.55 6.86L27.55 6.86L27.55 6.86Q27.34 6.86 27.13 6.99L27.13 6.99L27.13 6.99Q26.92 7.11 26.81 7.39L26.81 7.39L26.81 14.71L25.84 14.71L25.84 6.05L26.66 6.05L26.66 6.05Q26.70 6.37 26.70 6.71L26.70 6.71L26.70 6.71Q26.89 6.34 27.22 6.13L27.22 6.13L27.22 6.13Q27.54 5.91 27.94 5.91L27.94 5.91L27.94 5.91Q28.53 5.91 28.80 6.29L28.80 6.29L28.80 6.29Q29.08 6.66 29.08 7.50L29.08 7.50L29.08 14.71ZM32.31 13.22L32.31 7.46L32.31 7.46Q32.07 6.89 31.56 6.89L31.56 6.89L31.56 6.89Q31.23 6.89 31.09 7.05L31.09 7.05L31.09 7.05Q30.95 7.21 30.95 7.60L30.95 7.60L30.95 13.06L30.95 13.06Q30.95 13.47 31.09 13.63L31.09 13.63L31.09 13.63Q31.23 13.79 31.56 13.79L31.56 13.79L31.56 13.79Q32.07 13.79 32.31 13.22L32.31 13.22ZM33.26 14.71L32.45 14.71L32.45 14.71Q32.44 14.56 32.43 14.40L32.43 14.40L32.43 14.40Q32.42 14.24 32.42 14.07L32.42 14.07L32.42 14.07Q32.27 14.42 31.98 14.62L31.98 14.62L31.98 14.62Q31.70 14.81 31.22 14.81L31.22 14.81L31.22 14.81Q29.99 14.81 29.99 13.19L29.99 13.19L29.99 7.50L29.99 7.50Q29.99 6.65 30.29 6.28L30.29 6.28L30.29 6.28Q30.59 5.91 31.26 5.91L31.26 5.91L31.26 5.91Q31.60 5.91 31.87 6.06L31.87 6.06L31.87 6.06Q32.14 6.22 32.31 6.47L32.31 6.47L32.31 3.19L33.26 3.19L33.26 14.71ZM38.77 12.75L38.77 5.18L38.77 5.18Q38.77 4.75 38.58 4.51L38.58 4.51L38.58 4.51Q38.39 4.27 38.01 4.27L38.01 4.27L37.28 4.27L37.28 13.66L38.01 13.66L38.01 13.66Q38.77 13.66 38.77 12.75L38.77 12.75ZM38.01 14.71L36.22 14.71L36.22 3.19L38.01 3.19L38.01 3.19Q38.93 3.19 39.38 3.72L39.38 3.72L39.38 3.72Q39.83 4.24 39.83 5.17L39.83 5.17L39.83 12.75L39.83 12.75Q39.83 14.71 38.01 14.71L38.01 14.71ZM42.84 9.77L42.84 7.69L42.84 7.69Q42.84 6.92 42.20 6.92L42.20 6.92L42.20 6.92Q41.59 6.92 41.59 7.69L41.59 7.69L41.59 9.77L42.84 9.77ZM42.84 13.09L42.84 11.19L43.75 11.19L43.75 13.09L43.75 13.09Q43.75 14.84 42.20 14.84L42.20 14.84L42.20 14.84Q40.70 14.84 40.70 13.09L40.70 13.09L40.70 7.69L40.70 7.69Q40.70 6.80 41.08 6.36L41.08 6.36L41.08 6.36Q41.47 5.91 42.20 5.91L42.20 5.91L42.20 5.91Q43.75 5.91 43.75 7.69L43.75 7.69L43.75 10.47L41.59 10.47L41.59 13.09L41.59 13.09Q41.59 13.86 42.20 13.86L42.20 13.86L42.20 13.86Q42.84 13.86 42.84 13.09L42.84 13.09ZM46.72 13.20L46.72 12.21L46.72 12.21Q46.72 11.93 46.64 11.73L46.64 11.73L46.64 11.73Q46.56 11.52 46.30 11.20L46.30 11.20L46.30 11.20Q46.00 10.85 45.64 10.54L45.64 10.54L45.64 10.54Q45.28 10.22 45.01 9.90L45.01 9.90L45.01 9.90Q44.73 9.59 44.65 9.28L44.65 9.28L44.65 9.28Q44.56 8.97 44.56 8.47L44.56 8.47L44.56 7.57L44.56 7.57Q44.56 6.68 44.95 6.29L44.95 6.29L44.95 6.29Q45.35 5.91 46.10 5.91L46.10 5.91L46.10 5.91Q46.98 5.91 47.31 6.30L47.31 6.30L47.31 6.30Q47.64 6.69 47.64 7.57L47.64 7.57L47.64 8.99L46.76 8.99L46.76 7.57L46.76 7.57Q46.76 7.25 46.58 7.06L46.58 7.06L46.58 7.06Q46.40 6.87 46.13 6.87L46.13 6.87L46.13 6.87Q45.50 6.87 45.50 7.57L45.50 7.57L45.50 8.60L45.50 8.60Q45.50 8.90 45.58 9.08L45.58 9.08L45.58 9.08Q45.65 9.25 45.89 9.51L45.89 9.51L45.89 9.51Q46.17 9.81 46.52 10.09L46.52 10.09L46.52 10.09Q46.87 10.37 47.14 10.68L47.14 10.68L47.14 10.68Q47.46 11.06 47.57 11.42L47.57 11.42L47.57 11.42Q47.68 11.77 47.68 12.33L47.68 12.33L47.68 13.27L47.68 13.27Q47.68 14.11 47.29 14.48L47.29 14.48L47.29 14.48Q46.89 14.84 46.07 14.84L46.07 14.84L46.07 14.84Q44.56 14.84 44.56 13.23L44.56 13.23L44.56 11.82L45.43 11.82L45.43 13.20L45.43 13.20Q45.43 13.52 45.62 13.71L45.62 13.71L45.62 13.71Q45.81 13.90 46.09 13.90L46.09 13.90L46.09 13.90Q46.72 13.90 46.72 13.20L46.72 13.20ZM49.59 4.94L48.62 4.94L48.62 3.19L49.59 3.19L49.59 4.94ZM49.59 14.71L48.62 14.71L48.62 6.05L49.59 6.05L49.59 14.71ZM52.92 15.20L52.92 13.76L52.92 13.76Q52.77 14.01 52.48 14.16L52.48 14.16L52.48 14.16Q52.19 14.31 51.83 14.31L51.83 14.31L51.83 14.31Q51.16 14.31 50.86 13.94L50.86 13.94L50.86 13.94Q50.57 13.58 50.57 12.73L50.57 12.73L50.57 7.59L50.57 7.59Q50.57 6.75 50.88 6.36L50.88 6.36L50.88 6.36Q51.20 5.96 51.80 5.96L51.80 5.96L51.80 5.96Q52.25 5.96 52.54 6.15L52.54 6.15L52.54 6.15Q52.82 6.34 53.00 6.71L53.00 6.71L53.00 6.71Q53.00 6.54 53.01 6.37L53.01 6.37L53.01 6.37Q53.02 6.20 53.03 6.05L53.03 6.05L53.84 6.05L53.84 15.16L53.84 15.16Q53.84 15.96 53.46 16.38L53.46 16.38L53.46 16.38Q53.07 16.80 52.26 16.80L52.26 16.80L52.26 16.80Q51.81 16.80 51.51 16.69L51.51 16.69L51.51 16.69Q51.20 16.58 51.02 16.37L51.02 16.37L51.02 16.37Q50.83 16.16 50.76 15.86L50.76 15.86L50.76 15.86Q50.68 15.55 50.68 15.16L50.68 15.16L50.68 14.81L51.55 14.81L51.55 15.20L51.55 15.20Q51.55 15.96 52.25 15.96L52.25 15.96L52.25 15.96Q52.92 15.96 52.92 15.20L52.92 15.20ZM52.92 12.82L52.92 7.56L52.92 7.56Q52.81 7.28 52.60 7.13L52.60 7.13L52.60 7.13Q52.39 6.99 52.14 6.99L52.14 6.99L52.14 6.99Q51.77 6.99 51.65 7.16L51.65 7.16L51.65 7.16Q51.52 7.34 51.52 7.64L51.52 7.64L51.52 12.70L51.52 12.70Q51.52 13.06 51.65 13.22L51.65 13.22L51.65 13.22Q51.79 13.38 52.14 13.38L52.14 13.38L52.14 13.38Q52.39 13.38 52.60 13.24L52.60 13.24L52.60 13.24Q52.81 13.10 52.92 12.82L52.92 12.82ZM58.13 14.71L57.16 14.71L57.16 7.56L57.16 7.56Q57.16 7.18 57.04 7.02L57.04 7.02L57.04 7.02Q56.91 6.86 56.60 6.86L56.60 6.86L56.60 6.86Q56.39 6.86 56.18 6.99L56.18 6.99L56.18 6.99Q55.97 7.11 55.86 7.39L55.86 7.39L55.86 14.71L54.89 14.71L54.89 6.05L55.71 6.05L55.71 6.05Q55.75 6.37 55.75 6.71L55.75 6.71L55.75 6.71Q55.94 6.34 56.27 6.13L56.27 6.13L56.27 6.13Q56.59 5.91 56.99 5.91L56.99 5.91L56.99 5.91Q57.58 5.91 57.86 6.29L57.86 6.29L57.86 6.29Q58.13 6.66 58.13 7.50L58.13 7.50L58.13 14.71Z"></path></g><!----><!----></svg>