<svg data-v-423bf9ae="" xmlns="http://www.w3.org/2000/svg" viewBox="0 0 687 95" class="iconLeftSlogan"><!----><!----><!----><g data-v-423bf9ae="" id="ef29ffae-6267-47a5-9aa9-63b2ae5188a1" fill="#D48372" transform="matrix(4.735595867300924,0,0,4.735595867300924,92.3677060725779,-10.276242439665985)"><path d="M3.74 12.46L3.74 12.46Q2.83 12.46 2.07 12.12L2.07 12.12L2.07 12.12Q1.32 11.77 0.87 11.10L0.87 11.10L0.87 11.10Q0.42 10.43 0.42 9.48L0.42 9.48L0.43 9.17L2.30 9.17L2.28 9.39L2.28 9.39Q2.28 10.09 2.69 10.51L2.69 10.51L2.69 10.51Q3.09 10.92 3.82 10.92L3.82 10.92L3.82 10.92Q4.56 10.92 4.92 10.59L4.92 10.59L4.92 10.59Q5.28 10.26 5.28 9.79L5.28 9.79L5.28 9.79Q5.28 9.31 5.03 9.01L5.03 9.01L5.03 9.01Q4.77 8.71 4.40 8.54L4.40 8.54L4.40 8.54Q4.03 8.37 3.36 8.15L3.36 8.15L3.36 8.15Q2.48 7.87 1.93 7.59L1.93 7.59L1.93 7.59Q1.39 7.31 1.00 6.73L1.00 6.73L1.00 6.73Q0.62 6.16 0.62 5.21L0.62 5.21L0.62 5.21Q0.62 4.34 1.05 3.73L1.05 3.73L1.05 3.73Q1.48 3.12 2.21 2.82L2.21 2.82L2.21 2.82Q2.94 2.52 3.82 2.52L3.82 2.52L3.82 2.52Q5.19 2.52 6.07 3.23L6.07 3.23L6.07 3.23Q6.94 3.93 6.94 5.35L6.94 5.35L6.94 5.52L5.11 5.52L5.11 5.39L5.11 5.39Q5.11 4.77 4.76 4.42L4.76 4.42L4.76 4.42Q4.41 4.06 3.81 4.06L3.81 4.06L3.81 4.06Q3.18 4.06 2.82 4.35L2.82 4.35L2.82 4.35Q2.46 4.63 2.46 5.08L2.46 5.08L2.46 5.08Q2.46 5.47 2.70 5.73L2.70 5.73L2.70 5.73Q2.94 5.98 3.30 6.13L3.30 6.13L3.30 6.13Q3.65 6.29 4.28 6.48L4.28 6.48L4.28 6.48Q5.19 6.78 5.75 7.05L5.75 7.05L5.75 7.05Q6.31 7.32 6.72 7.90L6.72 7.90L6.72 7.90Q7.13 8.47 7.13 9.41L7.13 9.41L7.13 9.41Q7.13 10.99 6.22 11.72L6.22 11.72L6.22 11.72Q5.32 12.46 3.74 12.46L3.74 12.46ZM11.17 12.46L11.17 12.46Q9.69 12.46 8.96 11.52L8.96 11.52L8.96 11.52Q8.23 10.58 8.23 8.61L8.23 8.61L8.23 8.61Q8.23 6.64 8.96 5.70L8.96 5.70L8.96 5.70Q9.69 4.76 11.17 4.76L11.17 4.76L11.17 4.76Q12.66 4.76 13.38 5.70L13.38 5.70L13.38 5.70Q14.11 6.64 14.11 8.61L14.11 8.61L14.11 8.61Q14.11 10.58 13.38 11.52L13.38 11.52L13.38 11.52Q12.66 12.46 11.17 12.46L11.17 12.46ZM11.17 11.05L11.17 11.05Q11.80 11.05 12.08 10.51L12.08 10.51L12.08 10.51Q12.36 9.97 12.36 8.88L12.36 8.88L12.36 8.34L12.36 8.34Q12.36 7.25 12.08 6.71L12.08 6.71L12.08 6.71Q11.80 6.17 11.17 6.17L11.17 6.17L11.17 6.17Q10.54 6.17 10.26 6.71L10.26 6.71L10.26 6.71Q9.98 7.25 9.98 8.34L9.98 8.34L9.98 8.88L9.98 8.88Q9.98 9.97 10.26 10.51L10.26 10.51L10.26 10.51Q10.54 11.05 11.17 11.05L11.17 11.05ZM17.40 12.46L17.40 12.46Q16.49 12.46 15.97 11.89L15.97 11.89L15.97 11.89Q15.44 11.33 15.44 10.09L15.44 10.09L15.44 4.93L17.12 4.93L17.12 9.63L17.12 9.63Q17.12 10.33 17.36 10.63L17.36 10.63L17.36 10.63Q17.60 10.93 18.09 10.93L18.09 10.93L18.09 10.93Q18.58 10.93 18.91 10.52L18.91 10.52L18.91 10.52Q19.24 10.11 19.24 9.49L19.24 9.49L19.24 4.93L20.92 4.93L20.92 12.29L19.52 12.29L19.35 11.38L19.26 11.38L19.26 11.38Q18.94 11.86 18.48 12.16L18.48 12.16L18.48 12.16Q18.02 12.46 17.40 12.46L17.40 12.46ZM24.29 12.46L24.29 12.46Q23.37 12.46 22.96 11.89L22.96 11.89L22.96 11.89Q22.55 11.33 22.55 10.49L22.55 10.49L22.55 6.34L21.81 6.34L21.81 4.93L22.55 4.93L22.81 2.86L24.23 2.86L24.23 4.93L25.30 4.93L25.30 6.34L24.23 6.34L24.23 10.44L24.23 10.44Q24.23 10.74 24.39 10.89L24.39 10.89L24.39 10.89Q24.54 11.05 24.82 11.05L24.82 11.05L25.30 11.05L25.30 12.29L25.30 12.29Q25.12 12.36 24.82 12.41L24.82 12.41L24.82 12.41Q24.53 12.46 24.29 12.46L24.29 12.46ZM26.28 12.29L26.28 2.17L27.96 2.17L27.96 5.71L28.01 5.71L28.01 5.71Q28.29 5.31 28.74 5.03L28.74 5.03L28.74 5.03Q29.19 4.76 29.79 4.76L29.79 4.76L29.79 4.76Q30.70 4.76 31.23 5.33L31.23 5.33L31.23 5.33Q31.75 5.89 31.75 7.13L31.75 7.13L31.75 12.29L30.07 12.29L30.07 7.59L30.07 7.59Q30.07 6.90 29.83 6.59L29.83 6.59L29.83 6.59Q29.58 6.29 29.11 6.29L29.11 6.29L29.11 6.29Q28.62 6.29 28.29 6.71L28.29 6.71L28.29 6.71Q27.96 7.14 27.96 7.76L27.96 7.76L27.96 12.29L26.28 12.29ZM36.55 12.29L36.55 2.69L42.67 2.69L42.67 4.28L38.35 4.28L38.35 6.58L42.06 6.58L42.06 8.18L38.35 8.18L38.35 10.70L42.76 10.70L42.76 12.29L36.55 12.29ZM44.14 12.29L44.14 4.93L45.54 4.93L45.71 5.84L45.79 5.84L45.79 5.84Q46.12 5.36 46.58 5.06L46.58 5.06L46.58 5.06Q47.04 4.76 47.66 4.76L47.66 4.76L47.66 4.76Q48.57 4.76 49.09 5.33L49.09 5.33L49.09 5.33Q49.62 5.89 49.62 7.13L49.62 7.13L49.62 12.29L47.94 12.29L47.94 7.59L47.94 7.59Q47.94 6.90 47.69 6.59L47.69 6.59L47.69 6.59Q47.45 6.29 46.97 6.29L46.97 6.29L46.97 6.29Q46.48 6.29 46.15 6.71L46.15 6.71L46.15 6.71Q45.82 7.14 45.82 7.76L45.82 7.76L45.82 12.29L44.14 12.29ZM53.33 12.46L53.33 12.46Q52.21 12.46 51.58 11.50L51.58 11.50L51.58 11.50Q50.96 10.54 50.96 8.60L50.96 8.60L50.96 8.60Q50.96 6.68 51.58 5.72L51.58 5.72L51.58 5.72Q52.21 4.76 53.24 4.76L53.24 4.76L53.24 4.76Q53.80 4.76 54.24 5.00L54.24 5.00L54.24 5.00Q54.68 5.25 54.88 5.68L54.88 5.68L54.95 5.68L54.95 2.17L56.63 2.17L56.63 12.29L55.23 12.29L55.06 11.38L54.99 11.38L54.99 11.38Q54.73 11.91 54.29 12.19L54.29 12.19L54.29 12.19Q53.86 12.46 53.33 12.46L53.33 12.46ZM53.83 10.93L53.83 10.93Q54.42 10.93 54.68 10.42L54.68 10.42L54.68 10.42Q54.95 9.91 54.95 8.88L54.95 8.88L54.95 8.37L54.95 8.37Q54.95 7.34 54.68 6.81L54.68 6.81L54.68 6.81Q54.42 6.29 53.83 6.29L53.83 6.29L53.83 6.29Q53.24 6.29 52.98 6.80L52.98 6.80L52.98 6.80Q52.71 7.31 52.71 8.34L52.71 8.34L52.71 8.88L52.71 8.88Q52.71 9.91 52.98 10.42L52.98 10.42L52.98 10.42Q53.24 10.93 53.83 10.93L53.83 10.93ZM62.68 12.29L60.59 2.69L62.37 2.69L63.52 8.60L63.52 8.60Q63.57 8.86 63.63 9.32L63.63 9.32L63.63 9.32Q63.69 9.79 63.70 9.94L63.70 9.94L63.76 9.94L63.76 9.94Q63.77 9.79 63.83 9.32L63.83 9.32L63.83 9.32Q63.88 8.85 63.94 8.60L63.94 8.60L65.10 2.69L67.13 2.69L68.28 8.60L68.28 8.60Q68.33 8.96 68.39 9.37L68.39 9.37L68.39 9.37Q68.45 9.79 68.46 9.94L68.46 9.94L68.52 9.94L68.52 9.94Q68.53 9.80 68.59 9.34L68.59 9.34L68.59 9.34Q68.64 8.89 68.70 8.60L68.70 8.60L69.87 2.69L71.41 2.69L69.33 12.29L67.52 12.29L66.22 6.17L66.22 6.17Q66.15 5.87 66.09 5.41L66.09 5.41L66.09 5.41Q66.04 4.96 66.02 4.82L66.02 4.82L65.97 4.82L65.97 4.82Q65.95 4.97 65.89 5.45L65.89 5.45L65.89 5.45Q65.83 5.92 65.77 6.17L65.77 6.17L64.48 12.29L62.68 12.29ZM74.75 12.46L74.75 12.46Q73.30 12.46 72.58 11.52L72.58 11.52L72.58 11.52Q71.86 10.57 71.86 8.61L71.86 8.61L71.86 8.61Q71.86 4.76 74.69 4.76L74.69 4.76L74.69 4.76Q76.03 4.76 76.69 5.70L76.69 5.70L76.69 5.70Q77.35 6.64 77.35 8.61L77.35 8.61L77.35 9.03L73.61 9.03L73.61 9.03Q73.63 10.07 73.89 10.58L73.89 10.58L73.89 10.58Q74.14 11.09 74.75 11.09L74.75 11.09L74.75 11.09Q75.18 11.09 75.43 10.72L75.43 10.72L75.43 10.72Q75.68 10.35 75.68 9.69L75.68 9.69L77.35 9.69L77.35 9.69Q77.35 11.06 76.64 11.76L76.64 11.76L76.64 11.76Q75.92 12.46 74.75 12.46L74.75 12.46ZM73.63 7.81L75.59 7.81L75.59 7.81Q75.59 6.13 74.69 6.13L74.69 6.13L74.69 6.13Q74.17 6.13 73.92 6.56L73.92 6.56L73.92 6.56Q73.67 6.99 73.63 7.81L73.63 7.81ZM81.89 12.46L81.89 12.46Q81.35 12.46 80.92 12.19L80.92 12.19L80.92 12.19Q80.49 11.91 80.22 11.38L80.22 11.38L80.15 11.38L79.98 12.29L78.58 12.29L78.58 2.17L80.26 2.17L80.26 5.68L80.33 5.68L80.33 5.68Q80.53 5.25 80.97 5.00L80.97 5.00L80.97 5.00Q81.41 4.76 81.97 4.76L81.97 4.76L81.97 4.76Q83.01 4.76 83.63 5.72L83.63 5.72L83.63 5.72Q84.25 6.68 84.25 8.60L84.25 8.60L84.25 8.60Q84.25 10.54 83.63 11.50L83.63 11.50L83.63 11.50Q83.01 12.46 81.89 12.46L81.89 12.46ZM81.38 10.93L81.38 10.93Q81.97 10.93 82.24 10.42L82.24 10.42L82.24 10.42Q82.50 9.91 82.50 8.88L82.50 8.88L82.50 8.34L82.50 8.34Q82.50 7.31 82.24 6.80L82.24 6.80L82.24 6.80Q81.97 6.29 81.38 6.29L81.38 6.29L81.38 6.29Q80.79 6.29 80.53 6.81L80.53 6.81L80.53 6.81Q80.26 7.34 80.26 8.37L80.26 8.37L80.26 8.88L80.26 8.88Q80.26 9.91 80.53 10.42L80.53 10.42L80.53 10.42Q80.79 10.93 81.38 10.93L81.38 10.93ZM88.86 12.29L88.86 2.69L91.98 2.69L91.98 2.69Q93.80 2.69 94.81 3.88L94.81 3.88L94.81 3.88Q95.83 5.07 95.83 7.35L95.83 7.35L95.83 7.35Q95.83 9.77 94.82 11.03L94.82 11.03L94.82 11.03Q93.81 12.29 91.98 12.29L91.98 12.29L88.86 12.29ZM90.65 10.70L91.81 10.70L91.81 10.70Q92.83 10.70 93.41 9.93L93.41 9.93L93.41 9.93Q93.98 9.17 93.98 7.70L93.98 7.70L93.98 7L93.98 7Q93.98 5.67 93.41 4.98L93.41 4.98L93.41 4.98Q92.83 4.28 91.81 4.28L91.81 4.28L90.65 4.28L90.65 10.70ZM99.62 12.46L99.62 12.46Q98.18 12.46 97.46 11.52L97.46 11.52L97.46 11.52Q96.74 10.57 96.74 8.61L96.74 8.61L96.74 8.61Q96.74 4.76 99.57 4.76L99.57 4.76L99.57 4.76Q100.91 4.76 101.57 5.70L101.57 5.70L101.57 5.70Q102.23 6.64 102.23 8.61L102.23 8.61L102.23 9.03L98.49 9.03L98.49 9.03Q98.50 10.07 98.76 10.58L98.76 10.58L98.76 10.58Q99.02 11.09 99.62 11.09L99.62 11.09L99.62 11.09Q100.06 11.09 100.31 10.72L100.31 10.72L100.31 10.72Q100.56 10.35 100.56 9.69L100.56 9.69L102.23 9.69L102.23 9.69Q102.23 11.06 101.51 11.76L101.51 11.76L101.51 11.76Q100.80 12.46 99.62 12.46L99.62 12.46ZM98.50 7.81L100.46 7.81L100.46 7.81Q100.46 6.13 99.57 6.13L99.57 6.13L99.57 6.13Q99.05 6.13 98.80 6.56L98.80 6.56L98.80 6.56Q98.55 6.99 98.50 7.81L98.50 7.81ZM105.83 12.46L105.83 12.46Q104.57 12.46 103.86 11.82L103.86 11.82L103.86 11.82Q103.15 11.19 103.15 10.12L103.15 10.12L103.17 9.95L104.87 9.95L104.87 10.05L104.87 10.05Q104.89 10.60 105.18 10.84L105.18 10.84L105.18 10.84Q105.48 11.09 105.88 11.09L105.88 11.09L105.88 11.09Q106.27 11.09 106.57 10.90L106.57 10.90L106.57 10.90Q106.86 10.71 106.86 10.29L106.86 10.29L106.86 10.29Q106.86 9.84 106.53 9.64L106.53 9.64L106.53 9.64Q106.19 9.44 105.46 9.24L105.46 9.24L105.46 9.24Q104.76 9.04 104.33 8.85L104.33 8.85L104.33 8.85Q103.89 8.65 103.58 8.20L103.58 8.20L103.58 8.20Q103.26 7.76 103.26 7L103.26 7L103.26 7Q103.26 5.92 104.00 5.34L104.00 5.34L104.00 5.34Q104.73 4.76 105.90 4.76L105.90 4.76L105.90 4.76Q106.97 4.76 107.68 5.30L107.68 5.30L107.68 5.30Q108.39 5.84 108.39 6.76L108.39 6.76L108.37 7.08L106.67 7.08L106.67 7.06L106.67 7.06Q106.65 6.13 105.84 6.13L105.84 6.13L105.84 6.13Q105.45 6.13 105.21 6.33L105.21 6.33L105.21 6.33Q104.97 6.52 104.97 6.86L104.97 6.86L104.97 6.86Q104.97 7.25 105.29 7.43L105.29 7.43L105.29 7.43Q105.62 7.60 106.30 7.78L106.30 7.78L106.30 7.78Q107.02 7.97 107.46 8.17L107.46 8.17L107.46 8.17Q107.91 8.37 108.24 8.83L108.24 8.83L108.24 8.83Q108.57 9.28 108.57 10.08L108.57 10.08L108.57 10.08Q108.57 12.46 105.83 12.46L105.83 12.46ZM109.83 3.70L109.83 2.17L111.51 2.17L111.51 3.70L109.83 3.70ZM109.83 12.29L109.83 4.93L111.51 4.93L111.51 12.29L109.83 12.29ZM114.11 14.84L114.11 14.84Q113.43 14.84 112.96 14.36L112.96 14.36L112.96 14.36Q112.49 13.89 112.49 13.15L112.49 13.15L112.49 13.15Q112.49 12.17 113.43 11.65L113.43 11.65L113.43 11.65Q112.84 11.28 112.84 10.54L112.84 10.54L112.84 10.54Q112.84 10.08 113.14 9.75L113.14 9.75L113.14 9.75Q113.44 9.42 113.92 9.25L113.92 9.25L113.92 9.25Q113.02 8.60 113.02 7.27L113.02 7.27L113.02 7.27Q113.02 6.10 113.73 5.43L113.73 5.43L113.73 5.43Q114.44 4.76 115.74 4.76L115.74 4.76L115.74 4.76Q116.44 4.76 116.97 4.97L116.97 4.97L116.97 4.97Q117.35 4.70 117.52 4.33L117.52 4.33L117.52 4.33Q117.68 3.96 117.68 3.70L117.68 3.70L119.07 3.70L119.07 3.70Q119.07 5.21 117.88 5.57L117.88 5.57L117.88 5.57Q118.47 6.23 118.47 7.27L118.47 7.27L118.47 7.27Q118.47 8.43 117.76 9.10L117.76 9.10L117.76 9.10Q117.05 9.77 115.74 9.77L115.74 9.77L115.04 9.77L115.04 9.77Q114.81 9.77 114.67 9.90L114.67 9.90L114.67 9.90Q114.53 10.02 114.53 10.22L114.53 10.22L114.53 10.22Q114.53 10.40 114.66 10.53L114.66 10.53L114.66 10.53Q114.79 10.65 114.97 10.65L114.97 10.65L117.52 10.65L117.52 10.65Q118.23 10.65 118.71 11.18L118.71 11.18L118.71 11.18Q119.20 11.70 119.20 12.57L119.20 12.57L119.20 12.57Q119.20 13.24 118.88 13.76L118.88 13.76L118.88 13.76Q118.57 14.28 118.02 14.56L118.02 14.56L118.02 14.56Q117.47 14.84 116.82 14.84L116.82 14.84L114.11 14.84ZM115.74 8.53L115.74 8.53Q116.26 8.53 116.52 8.20L116.52 8.20L116.52 8.20Q116.79 7.87 116.79 7.27L116.79 7.27L116.79 7.27Q116.79 6.66 116.52 6.33L116.52 6.33L116.52 6.33Q116.26 6.01 115.74 6.01L115.74 6.01L115.74 6.01Q115.23 6.01 114.97 6.33L114.97 6.33L114.97 6.33Q114.70 6.66 114.70 7.27L114.70 7.27L114.70 7.27Q114.70 7.87 114.97 8.20L114.97 8.20L114.97 8.20Q115.23 8.53 115.74 8.53L115.74 8.53ZM114.86 13.57L116.75 13.57L116.75 13.57Q117.07 13.57 117.28 13.38L117.28 13.38L117.28 13.38Q117.50 13.19 117.50 12.88L117.50 12.88L117.50 12.88Q117.50 12.57 117.31 12.39L117.31 12.39L117.31 12.39Q117.11 12.21 116.82 12.21L116.82 12.21L114.86 12.21L114.86 12.21Q114.58 12.21 114.38 12.40L114.38 12.40L114.38 12.40Q114.18 12.60 114.18 12.88L114.18 12.88L114.18 12.88Q114.18 13.19 114.37 13.38L114.37 13.38L114.37 13.38Q114.56 13.57 114.86 13.57L114.86 13.57ZM120.05 12.29L120.05 4.93L121.45 4.93L121.62 5.84L121.70 5.84L121.70 5.84Q122.02 5.36 122.49 5.06L122.49 5.06L122.49 5.06Q122.95 4.76 123.56 4.76L123.56 4.76L123.56 4.76Q124.47 4.76 125.00 5.33L125.00 5.33L125.00 5.33Q125.52 5.89 125.52 7.13L125.52 7.13L125.52 12.29L123.84 12.29L123.84 7.59L123.84 7.59Q123.84 6.90 123.60 6.59L123.60 6.59L123.60 6.59Q123.35 6.29 122.88 6.29L122.88 6.29L122.88 6.29Q122.39 6.29 122.06 6.71L122.06 6.71L122.06 6.71Q121.73 7.14 121.73 7.76L121.73 7.76L121.73 12.29L120.05 12.29Z"></path></g><!----><g data-v-423bf9ae="" id="7852dc16-a662-43fc-9e32-57bcef9270e3" transform="matrix(1.0249444749620227,0,0,1.0249444749620227,-13.520709770293294,-3.369737658145141)" stroke="none" fill="#D48372"><path d="M57.484 24.356a8.346 8.346 0 0 0-.037-.388c2.434-2.098 3.985-5.197 3.985-8.657 0-6.305-5.129-11.433-11.434-11.433-6.306 0-11.435 5.128-11.435 11.433 0 3.458 1.549 6.555 3.981 8.653a8.43 8.43 0 0 0-.038.393c-16.417 3.463-28.78 18.06-28.78 35.493 0 20.002 16.272 36.273 36.273 36.273 20.003 0 36.274-16.271 36.274-36.273 0-17.436-12.367-32.034-28.789-35.494zm-15.26-9.044c0-4.287 3.487-7.774 7.775-7.774 4.287 0 7.775 3.487 7.775 7.774a7.738 7.738 0 0 1-1.839 5.01 7.498 7.498 0 0 0-11.876-.004 7.731 7.731 0 0 1-1.835-5.006zm10.518 75.194v-3.584a2.744 2.744 0 1 0-5.487 0v3.584c-14.789-1.314-26.6-13.123-27.913-27.91h2.737a2.745 2.745 0 0 0 0-5.488h-2.737c1.313-14.791 13.124-26.601 27.913-27.915v2.722a2.744 2.744 0 1 0 5.487 0v-2.722c14.79 1.312 26.6 13.124 27.914 27.915h-2.738a2.744 2.744 0 1 0 0 5.488h2.738c-1.314 14.789-13.124 26.597-27.914 27.91z"></path><path d="M39.343 80.205L56.134 62.76l4.519-24.226-16.787 17.445-4.523 24.226zm15.479-30.273l-2.047 10.971-5.559-3.07 7.606-7.901z"></path></g><!----><g data-v-423bf9ae="" id="34097bac-4383-4a46-8907-10c9bb24b9a2" fill="#D48372" transform="matrix(0.9088857474310227,0,0,0.9088857474310227,94.2203103730138,54.83752782391948)"><path d="M8.41 5.88L7.42 15.68L5.28 15.68L4.37 6.38L4.20 6.38L3.29 15.68L1.15 15.68L0.15 5.88L1.22 5.88L2.16 15.18L2.32 15.18L3.21 5.88L5.36 5.88L6.24 15.18L6.41 15.18L7.35 5.88L8.41 5.88ZM16.88 15.68L16.88 5.88L22.82 5.88L22.82 6.97L18.06 6.97L18.06 10.22L22.74 10.22L22.74 11.31L18.06 11.31L18.06 14.59L22.90 14.59L22.90 15.68L16.88 15.68ZM31.93 15.68L31.93 14.59L32.77 14.59L32.77 6.97L31.93 6.97L31.93 5.88L35.90 5.88L35.90 5.88Q36.60 5.88 37.13 6.08L37.13 6.08L37.13 6.08Q37.67 6.27 38.05 6.61L38.05 6.61L38.05 6.61Q38.42 6.94 38.60 7.41L38.60 7.41L38.60 7.41Q38.79 7.88 38.79 8.43L38.79 8.43L38.79 8.60L38.79 8.60Q38.79 9.00 38.67 9.34L38.67 9.34L38.67 9.34Q38.54 9.67 38.32 9.94L38.32 9.94L38.32 9.94Q38.09 10.21 37.79 10.39L37.79 10.39L37.79 10.39Q37.49 10.58 37.14 10.68L37.14 10.68L37.14 10.85L37.14 10.85Q37.84 11.05 38.32 11.60L38.32 11.60L38.32 11.60Q38.79 12.15 38.79 12.95L38.79 12.95L38.79 13.12L38.79 13.12Q38.79 13.66 38.60 14.13L38.60 14.13L38.60 14.13Q38.42 14.60 38.05 14.95L38.05 14.95L38.05 14.95Q37.67 15.29 37.13 15.48L37.13 15.48L37.13 15.48Q36.60 15.68 35.90 15.68L35.90 15.68L31.93 15.68ZM33.95 11.31L33.95 14.59L35.81 14.59L35.81 14.59Q36.64 14.59 37.16 14.17L37.16 14.17L37.16 14.17Q37.67 13.76 37.67 13.03L37.67 13.03L37.67 12.95L37.67 12.95Q37.67 12.19 37.18 11.75L37.18 11.75L37.18 11.75Q36.69 11.31 35.85 11.31L35.85 11.31L33.95 11.31ZM33.95 6.97L33.95 10.22L35.85 10.22L35.85 10.22Q36.69 10.22 37.18 9.79L37.18 9.79L37.18 9.79Q37.67 9.35 37.67 8.60L37.67 8.60L37.67 8.51L37.67 8.51Q37.67 7.80 37.16 7.38L37.16 7.38L37.16 7.38Q36.64 6.97 35.81 6.97L35.81 6.97L33.95 6.97ZM63.29 6.97L63.29 5.88L66.51 5.88L66.51 5.88Q68.33 5.88 69.17 6.75L69.17 6.75L69.17 6.75Q70.01 7.62 70.01 9.52L70.01 9.52L70.01 12.04L70.01 12.04Q70.01 13.94 69.17 14.81L69.17 14.81L69.17 14.81Q68.33 15.68 66.51 15.68L66.51 15.68L63.29 15.68L63.29 14.57L64.13 14.57L64.13 6.97L63.29 6.97ZM65.31 14.59L66.35 14.59L66.35 14.59Q66.99 14.59 67.46 14.46L67.46 14.46L67.46 14.46Q67.93 14.34 68.24 14.04L68.24 14.04L68.24 14.04Q68.54 13.73 68.69 13.23L68.69 13.23L68.69 13.23Q68.84 12.73 68.84 11.96L68.84 11.96L68.84 9.60L68.84 9.60Q68.84 8.83 68.69 8.33L68.69 8.33L68.69 8.33Q68.54 7.83 68.24 7.53L68.24 7.53L68.24 7.53Q67.93 7.22 67.46 7.10L67.46 7.10L67.46 7.10Q66.99 6.97 66.35 6.97L66.35 6.97L65.31 6.97L65.31 14.59ZM79.16 15.68L79.16 5.88L85.09 5.88L85.09 6.97L80.33 6.97L80.33 10.22L85.01 10.22L85.01 11.31L80.33 11.31L80.33 14.59L85.18 14.59L85.18 15.68L79.16 15.68ZM96.56 15.68L93.79 5.88L95.05 5.88L97.61 15.18L97.78 15.18L100.34 5.88L101.60 5.88L98.83 15.68L96.56 15.68ZM110.29 15.68L110.29 5.88L116.23 5.88L116.23 6.97L111.47 6.97L111.47 10.22L116.14 10.22L116.14 11.31L111.47 11.31L111.47 14.59L116.31 14.59L116.31 15.68L110.29 15.68ZM125.76 15.68L125.76 5.88L126.94 5.88L126.94 14.59L132.06 14.59L132.06 15.68L125.76 15.68ZM140.95 11.87L140.95 9.69L140.95 9.69Q140.95 7.78 141.86 6.73L141.86 6.73L141.86 6.73Q142.77 5.68 144.40 5.68L144.40 5.68L144.40 5.68Q146.02 5.68 146.93 6.73L146.93 6.73L146.93 6.73Q147.84 7.78 147.84 9.69L147.84 9.69L147.84 11.87L147.84 11.87Q147.84 13.83 146.93 14.85L146.93 14.85L146.93 14.85Q146.02 15.88 144.40 15.88L144.40 15.88L144.40 15.88Q142.77 15.88 141.86 14.85L141.86 14.85L141.86 14.85Q140.95 13.83 140.95 11.87L140.95 11.87ZM144.40 14.78L144.40 14.78L144.40 14.78Q145.53 14.78 146.10 14.01L146.10 14.01L146.10 14.01Q146.66 13.23 146.66 11.79L146.66 11.79L146.66 9.77L146.66 9.77Q146.66 8.43 146.10 7.60L146.10 7.60L146.10 7.60Q145.53 6.78 144.40 6.78L144.40 6.78L144.40 6.78Q143.26 6.78 142.69 7.60L142.69 7.60L142.69 7.60Q142.13 8.43 142.13 9.77L142.13 9.77L142.13 11.79L142.13 11.79Q142.13 13.23 142.69 14.01L142.69 14.01L142.69 14.01Q143.26 14.78 144.40 14.78ZM160.37 11.65L158.05 11.65L158.05 15.68L156.87 15.68L156.87 5.88L160.37 5.88L160.37 5.88Q161.13 5.88 161.69 6.10L161.69 6.10L161.69 6.10Q162.25 6.31 162.62 6.68L162.62 6.68L162.62 6.68Q162.99 7.04 163.18 7.53L163.18 7.53L163.18 7.53Q163.37 8.01 163.37 8.54L163.37 8.54L163.37 8.96L163.37 8.96Q163.37 9.49 163.18 9.98L163.18 9.98L163.18 9.98Q162.99 10.47 162.61 10.84L162.61 10.84L162.61 10.84Q162.23 11.21 161.67 11.43L161.67 11.43L161.67 11.43Q161.11 11.65 160.37 11.65L160.37 11.65ZM158.05 6.97L158.05 10.56L160.23 10.56L160.23 10.56Q162.19 10.56 162.19 8.88L162.19 8.88L162.19 8.62L162.19 8.62Q162.19 7.88 161.71 7.43L161.71 7.43L161.71 7.43Q161.22 6.97 160.23 6.97L160.23 6.97L158.05 6.97ZM171.89 15.68L171.89 5.88L174.13 5.88L175.45 15.18L175.62 15.18L176.93 5.88L179.17 5.88L179.17 15.68L178.08 15.68L178.08 6.38L177.91 6.38L176.60 15.68L174.47 15.68L173.15 6.38L172.98 6.38L172.98 15.68L171.89 15.68ZM188.13 15.68L188.13 5.88L194.07 5.88L194.07 6.97L189.31 6.97L189.31 10.22L193.98 10.22L193.98 11.31L189.31 11.31L189.31 14.59L194.15 14.59L194.15 15.68L188.13 15.68ZM205.76 5.88L208.59 15.18L208.75 15.18L208.75 5.88L209.93 5.88L209.93 15.68L207.58 15.68L204.75 6.38L204.58 6.38L204.58 15.68L203.41 15.68L203.41 5.88L205.76 5.88ZM218.79 6.97L218.79 5.88L225.68 5.88L225.68 6.97L222.82 6.97L222.82 15.68L221.65 15.68L221.65 6.97L218.79 6.97ZM250.42 15.68L250.42 5.88L256.44 5.88L256.44 6.97L251.59 6.97L251.59 10.22L256.35 10.22L256.35 11.31L251.59 11.31L251.59 15.68L250.42 15.68ZM265.50 11.87L265.50 9.69L265.50 9.69Q265.50 7.78 266.41 6.73L266.41 6.73L266.41 6.73Q267.32 5.68 268.94 5.68L268.94 5.68L268.94 5.68Q270.56 5.68 271.47 6.73L271.47 6.73L271.47 6.73Q272.38 7.78 272.38 9.69L272.38 9.69L272.38 11.87L272.38 11.87Q272.38 13.83 271.47 14.85L271.47 14.85L271.47 14.85Q270.56 15.88 268.94 15.88L268.94 15.88L268.94 15.88Q267.32 15.88 266.41 14.85L266.41 14.85L266.41 14.85Q265.50 13.83 265.50 11.87L265.50 11.87ZM268.94 14.78L268.94 14.78L268.94 14.78Q270.07 14.78 270.64 14.01L270.64 14.01L270.64 14.01Q271.21 13.23 271.21 11.79L271.21 11.79L271.21 9.77L271.21 9.77Q271.21 8.43 270.64 7.60L270.64 7.60L270.64 7.60Q270.07 6.78 268.94 6.78L268.94 6.78L268.94 6.78Q267.81 6.78 267.24 7.60L267.24 7.60L267.24 7.60Q266.67 8.43 266.67 9.77L266.67 9.77L266.67 11.79L266.67 11.79Q266.67 13.23 267.24 14.01L267.24 14.01L267.24 14.01Q267.81 14.78 268.94 14.78ZM287.57 12.15L287.57 15.68L286.40 15.68L286.40 12.40L286.40 12.40Q286.40 12.04 286.23 11.84L286.23 11.84L286.23 11.84Q286.06 11.65 285.64 11.65L285.64 11.65L282.59 11.65L282.59 15.68L281.41 15.68L281.41 5.88L284.91 5.88L284.91 5.88Q285.67 5.88 286.23 6.10L286.23 6.10L286.23 6.10Q286.79 6.31 287.16 6.68L287.16 6.68L287.16 6.68Q287.53 7.04 287.72 7.53L287.72 7.53L287.72 7.53Q287.91 8.01 287.91 8.54L287.91 8.54L287.91 8.96L287.91 8.96Q287.91 9.51 287.61 10.05L287.61 10.05L287.61 10.05Q287.31 10.60 286.68 10.89L286.68 10.89L286.68 11.06L286.68 11.06Q287.10 11.13 287.34 11.40L287.34 11.40L287.34 11.40Q287.57 11.66 287.57 12.15L287.57 12.15ZM282.59 6.97L282.59 10.56L284.77 10.56L284.77 10.56Q285.77 10.56 286.25 10.13L286.25 10.13L286.25 10.13Q286.73 9.70 286.73 8.88L286.73 8.88L286.73 8.62L286.73 8.62Q286.73 7.88 286.25 7.43L286.25 7.43L286.25 7.43Q285.77 6.97 284.77 6.97L284.77 6.97L282.59 6.97ZM312.58 15.68L312.58 5.88L313.75 5.88L313.75 14.59L318.88 14.59L318.88 15.68L312.58 15.68ZM327.77 11.87L327.77 9.69L327.77 9.69Q327.77 7.78 328.68 6.73L328.68 6.73L328.68 6.73Q329.59 5.68 331.21 5.68L331.21 5.68L331.21 5.68Q332.84 5.68 333.75 6.73L333.75 6.73L333.75 6.73Q334.66 7.78 334.66 9.69L334.66 9.69L334.66 11.87L334.66 11.87Q334.66 13.83 333.75 14.85L333.75 14.85L333.75 14.85Q332.84 15.88 331.21 15.88L331.21 15.88L331.21 15.88Q329.59 15.88 328.68 14.85L328.68 14.85L328.68 14.85Q327.77 13.83 327.77 11.87L327.77 11.87ZM331.21 14.78L331.21 14.78L331.21 14.78Q332.35 14.78 332.91 14.01L332.91 14.01L332.91 14.01Q333.48 13.23 333.48 11.79L333.48 11.79L333.48 9.77L333.48 9.77Q333.48 8.43 332.91 7.60L332.91 7.60L332.91 7.60Q332.35 6.78 331.21 6.78L331.21 6.78L331.21 6.78Q330.08 6.78 329.51 7.60L329.51 7.60L329.51 7.60Q328.94 8.43 328.94 9.77L328.94 9.77L328.94 11.79L328.94 11.79Q328.94 13.23 329.51 14.01L329.51 14.01L329.51 14.01Q330.08 14.78 331.21 14.78ZM346.84 14.78L346.84 14.78L346.84 14.78Q347.44 14.78 347.87 14.58L347.87 14.58L347.87 14.58Q348.29 14.38 348.56 14.04L348.56 14.04L348.56 14.04Q348.84 13.69 348.97 13.25L348.97 13.25L348.97 13.25Q349.10 12.81 349.10 12.32L349.10 12.32L349.10 12.15L350.28 12.15L350.28 12.32L350.28 12.32Q350.28 13.06 350.06 13.71L350.06 13.71L350.06 13.71Q349.83 14.36 349.40 14.85L349.40 14.85L349.40 14.85Q348.96 15.33 348.32 15.60L348.32 15.60L348.32 15.60Q347.68 15.88 346.84 15.88L346.84 15.88L346.84 15.88Q345.21 15.88 344.30 14.85L344.30 14.85L344.30 14.85Q343.39 13.83 343.39 11.87L343.39 11.87L343.39 9.69L343.39 9.69Q343.39 7.78 344.30 6.73L344.30 6.73L344.30 6.73Q345.21 5.68 346.84 5.68L346.84 5.68L346.84 5.68Q347.68 5.68 348.32 5.96L348.32 5.96L348.32 5.96Q348.96 6.23 349.40 6.71L349.40 6.71L349.40 6.71Q349.83 7.20 350.06 7.85L350.06 7.85L350.06 7.85Q350.28 8.50 350.28 9.24L350.28 9.24L350.28 9.41L349.10 9.41L349.10 9.24L349.10 9.24Q349.09 8.76 348.96 8.32L348.96 8.32L348.96 8.32Q348.82 7.87 348.55 7.53L348.55 7.53L348.55 7.53Q348.28 7.18 347.86 6.98L347.86 6.98L347.86 6.98Q347.44 6.78 346.84 6.78L346.84 6.78L346.84 6.78Q345.70 6.78 345.13 7.60L345.13 7.60L345.13 7.60Q344.57 8.43 344.57 9.77L344.57 9.77L344.57 11.79L344.57 11.79Q344.57 13.23 345.13 14.01L345.13 14.01L345.13 14.01Q345.70 14.78 346.84 14.78ZM365.16 15.68L364.45 13.24L360.25 13.24L359.53 15.68L358.27 15.68L361.24 5.88L363.45 5.88L366.42 15.68L365.16 15.68ZM362.43 6.38L362.26 6.38L360.57 12.15L364.13 12.15L362.43 6.38ZM374.85 15.68L374.85 5.88L376.03 5.88L376.03 14.59L381.15 14.59L381.15 15.68L374.85 15.68ZM405.57 15.68L405.57 14.59L406.41 14.59L406.41 6.97L405.57 6.97L405.57 5.88L409.53 5.88L409.53 5.88Q410.23 5.88 410.77 6.08L410.77 6.08L410.77 6.08Q411.31 6.27 411.68 6.61L411.68 6.61L411.68 6.61Q412.05 6.94 412.24 7.41L412.24 7.41L412.24 7.41Q412.43 7.88 412.43 8.43L412.43 8.43L412.43 8.60L412.43 8.60Q412.43 9.00 412.30 9.34L412.30 9.34L412.30 9.34Q412.17 9.67 411.95 9.94L411.95 9.94L411.95 9.94Q411.73 10.21 411.42 10.39L411.42 10.39L411.42 10.39Q411.12 10.58 410.77 10.68L410.77 10.68L410.77 10.85L410.77 10.85Q411.47 11.05 411.95 11.60L411.95 11.60L411.95 11.60Q412.43 12.15 412.43 12.95L412.43 12.95L412.43 13.12L412.43 13.12Q412.43 13.66 412.24 14.13L412.24 14.13L412.24 14.13Q412.05 14.60 411.68 14.95L411.68 14.95L411.68 14.95Q411.31 15.29 410.77 15.48L410.77 15.48L410.77 15.48Q410.23 15.68 409.53 15.68L409.53 15.68L405.57 15.68ZM407.58 11.31L407.58 14.59L409.44 14.59L409.44 14.59Q410.27 14.59 410.79 14.17L410.79 14.17L410.79 14.17Q411.31 13.76 411.31 13.03L411.31 13.03L411.31 12.95L411.31 12.95Q411.31 12.19 410.82 11.75L410.82 11.75L410.82 11.75Q410.33 11.31 409.49 11.31L409.49 11.31L407.58 11.31ZM407.58 6.97L407.58 10.22L409.49 10.22L409.49 10.22Q410.33 10.22 410.82 9.79L410.82 9.79L410.82 9.79Q411.31 9.35 411.31 8.60L411.31 8.60L411.31 8.51L411.31 8.51Q411.31 7.80 410.79 7.38L410.79 7.38L410.79 7.38Q410.27 6.97 409.44 6.97L409.44 6.97L407.58 6.97ZM421.26 5.88L422.44 5.88L422.44 12.38L422.44 12.38Q422.44 13.57 422.99 14.17L422.99 14.17L422.99 14.17Q423.54 14.78 424.62 14.78L424.62 14.78L424.62 14.78Q425.70 14.78 426.25 14.17L426.25 14.17L426.25 14.17Q426.80 13.57 426.80 12.38L426.80 12.38L426.80 5.88L427.98 5.88L427.98 12.38L427.98 12.38Q427.98 14.08 427.08 14.98L427.08 14.98L427.08 14.98Q426.19 15.88 424.62 15.88L424.62 15.88L424.62 15.88Q423.05 15.88 422.16 14.98L422.16 14.98L422.16 14.98Q421.26 14.08 421.26 12.38L421.26 12.38L421.26 5.88ZM442.50 9.21L442.50 8.71L442.50 8.71Q442.50 8.23 442.31 7.87L442.31 7.87L442.31 7.87Q442.12 7.50 441.80 7.27L441.80 7.27L441.80 7.27Q441.48 7.03 441.06 6.90L441.06 6.90L441.06 6.90Q440.64 6.78 440.17 6.78L440.17 6.78L440.17 6.78Q439.77 6.78 439.40 6.88L439.40 6.88L439.40 6.88Q439.04 6.99 438.75 7.18L438.75 7.18L438.75 7.18Q438.47 7.38 438.30 7.66L438.30 7.66L438.30 7.66Q438.13 7.95 438.13 8.33L438.13 8.33L438.13 8.41L438.13 8.41Q438.13 8.82 438.30 9.11L438.30 9.11L438.30 9.11Q438.47 9.39 438.79 9.60L438.79 9.60L438.79 9.60Q439.12 9.80 439.61 9.93L439.61 9.93L439.61 9.93Q440.10 10.07 440.76 10.16L440.76 10.16L440.76 10.16Q442.30 10.40 443.03 11.07L443.03 11.07L443.03 11.07Q443.76 11.73 443.76 12.85L443.76 12.85L443.76 13.02L443.76 13.02Q443.76 13.65 443.54 14.17L443.54 14.17L443.54 14.17Q443.32 14.70 442.90 15.08L442.90 15.08L442.90 15.08Q442.47 15.46 441.84 15.67L441.84 15.67L441.84 15.67Q441.21 15.88 440.38 15.88L440.38 15.88L440.38 15.88Q439.45 15.88 438.72 15.60L438.72 15.60L438.72 15.60Q438.00 15.33 437.52 14.85L437.52 14.85L437.52 14.85Q437.04 14.36 436.79 13.71L436.79 13.71L436.79 13.71Q436.53 13.06 436.53 12.29L436.53 12.29L436.53 11.87L437.71 11.87L437.71 12.21L437.71 12.21Q437.71 13.50 438.42 14.14L438.42 14.14L438.42 14.14Q439.12 14.78 440.38 14.78L440.38 14.78L440.38 14.78Q441.48 14.78 442.03 14.30L442.03 14.30L442.03 14.30Q442.58 13.82 442.58 13.02L442.58 13.02L442.58 12.94L442.58 12.94Q442.58 12.17 442.01 11.76L442.01 11.76L442.01 11.76Q441.45 11.35 440.17 11.17L440.17 11.17L440.17 11.17Q439.43 11.07 438.84 10.87L438.84 10.87L438.84 10.87Q438.24 10.67 437.82 10.34L437.82 10.34L437.82 10.34Q437.40 10.01 437.18 9.55L437.18 9.55L437.18 9.55Q436.95 9.09 436.95 8.46L436.95 8.46L436.95 8.29L436.95 8.29Q436.95 7.71 437.19 7.24L437.19 7.24L437.19 7.24Q437.43 6.76 437.86 6.41L437.86 6.41L437.86 6.41Q438.28 6.06 438.88 5.87L438.88 5.87L438.88 5.87Q439.47 5.68 440.19 5.68L440.19 5.68L440.19 5.68Q441.01 5.68 441.66 5.92L441.66 5.92L441.66 5.92Q442.32 6.16 442.76 6.56L442.76 6.56L442.76 6.56Q443.21 6.96 443.44 7.50L443.44 7.50L443.44 7.50Q443.67 8.04 443.67 8.62L443.67 8.62L443.67 9.21L442.50 9.21ZM452.65 6.97L452.65 5.88L458.86 5.88L458.86 6.97L456.34 6.97L456.34 14.59L458.86 14.59L458.86 15.68L452.65 15.68L452.65 14.59L455.17 14.59L455.17 6.97L452.65 6.97ZM470.41 5.88L473.24 15.18L473.41 15.18L473.41 5.88L474.59 5.88L474.59 15.68L472.23 15.68L469.41 6.38L469.24 6.38L469.24 15.68L468.06 15.68L468.06 5.88L470.41 5.88ZM483.92 15.68L483.92 5.88L489.86 5.88L489.86 6.97L485.10 6.97L485.10 10.22L489.78 10.22L489.78 11.31L485.10 11.31L485.10 14.59L489.94 14.59L489.94 15.68L483.92 15.68ZM504.77 9.21L504.77 8.71L504.77 8.71Q504.77 8.23 504.58 7.87L504.58 7.87L504.58 7.87Q504.39 7.50 504.07 7.27L504.07 7.27L504.07 7.27Q503.75 7.03 503.33 6.90L503.33 6.90L503.33 6.90Q502.91 6.78 502.45 6.78L502.45 6.78L502.45 6.78Q502.04 6.78 501.68 6.88L501.68 6.88L501.68 6.88Q501.31 6.99 501.02 7.18L501.02 7.18L501.02 7.18Q500.74 7.38 500.57 7.66L500.57 7.66L500.57 7.66Q500.40 7.95 500.40 8.33L500.40 8.33L500.40 8.41L500.40 8.41Q500.40 8.82 500.57 9.11L500.57 9.11L500.57 9.11Q500.74 9.39 501.07 9.60L501.07 9.60L501.07 9.60Q501.40 9.80 501.89 9.93L501.89 9.93L501.89 9.93Q502.38 10.07 503.03 10.16L503.03 10.16L503.03 10.16Q504.57 10.40 505.30 11.07L505.30 11.07L505.30 11.07Q506.03 11.73 506.03 12.85L506.03 12.85L506.03 13.02L506.03 13.02Q506.03 13.65 505.81 14.17L505.81 14.17L505.81 14.17Q505.60 14.70 505.17 15.08L505.17 15.08L505.17 15.08Q504.74 15.46 504.11 15.67L504.11 15.67L504.11 15.67Q503.48 15.88 502.66 15.88L502.66 15.88L502.66 15.88Q501.72 15.88 501.00 15.60L501.00 15.60L501.00 15.60Q500.28 15.33 499.79 14.85L499.79 14.85L499.79 14.85Q499.31 14.36 499.06 13.71L499.06 13.71L499.06 13.71Q498.81 13.06 498.81 12.29L498.81 12.29L498.81 11.87L499.98 11.87L499.98 12.21L499.98 12.21Q499.98 13.50 500.69 14.14L500.69 14.14L500.69 14.14Q501.40 14.78 502.66 14.78L502.66 14.78L502.66 14.78Q503.75 14.78 504.30 14.30L504.30 14.30L504.30 14.30Q504.85 13.82 504.85 13.02L504.85 13.02L504.85 12.94L504.85 12.94Q504.85 12.17 504.29 11.76L504.29 11.76L504.29 11.76Q503.72 11.35 502.45 11.17L502.45 11.17L502.45 11.17Q501.70 11.07 501.11 10.87L501.11 10.87L501.11 10.87Q500.51 10.67 500.09 10.34L500.09 10.34L500.09 10.34Q499.67 10.01 499.45 9.55L499.45 9.55L499.45 9.55Q499.23 9.09 499.23 8.46L499.23 8.46L499.23 8.29L499.23 8.29Q499.23 7.71 499.46 7.24L499.46 7.24L499.46 7.24Q499.70 6.76 500.13 6.41L500.13 6.41L500.13 6.41Q500.56 6.06 501.15 5.87L501.15 5.87L501.15 5.87Q501.75 5.68 502.46 5.68L502.46 5.68L502.46 5.68Q503.29 5.68 503.94 5.92L503.94 5.92L503.94 5.92Q504.59 6.16 505.04 6.56L505.04 6.56L505.04 6.56Q505.48 6.96 505.71 7.50L505.71 7.50L505.71 7.50Q505.95 8.04 505.95 8.62L505.95 8.62L505.95 9.21L504.77 9.21ZM520.34 9.21L520.34 8.71L520.34 8.71Q520.34 8.23 520.15 7.87L520.15 7.87L520.15 7.87Q519.96 7.50 519.64 7.27L519.64 7.27L519.64 7.27Q519.32 7.03 518.90 6.90L518.90 6.90L518.90 6.90Q518.48 6.78 518.01 6.78L518.01 6.78L518.01 6.78Q517.61 6.78 517.24 6.88L517.24 6.88L517.24 6.88Q516.88 6.99 516.59 7.18L516.59 7.18L516.59 7.18Q516.31 7.38 516.14 7.66L516.14 7.66L516.14 7.66Q515.97 7.95 515.97 8.33L515.97 8.33L515.97 8.41L515.97 8.41Q515.97 8.82 516.14 9.11L516.14 9.11L516.14 9.11Q516.31 9.39 516.63 9.60L516.63 9.60L516.63 9.60Q516.96 9.80 517.45 9.93L517.45 9.93L517.45 9.93Q517.94 10.07 518.60 10.16L518.60 10.16L518.60 10.16Q520.14 10.40 520.87 11.07L520.87 11.07L520.87 11.07Q521.60 11.73 521.60 12.85L521.60 12.85L521.60 13.02L521.60 13.02Q521.60 13.65 521.38 14.17L521.38 14.17L521.38 14.17Q521.16 14.70 520.74 15.08L520.74 15.08L520.74 15.08Q520.31 15.46 519.68 15.67L519.68 15.67L519.68 15.67Q519.05 15.88 518.22 15.88L518.22 15.88L518.22 15.88Q517.29 15.88 516.56 15.60L516.56 15.60L516.56 15.60Q515.84 15.33 515.36 14.85L515.36 14.85L515.36 14.85Q514.88 14.36 514.63 13.71L514.63 13.71L514.63 13.71Q514.37 13.06 514.37 12.29L514.37 12.29L514.37 11.87L515.55 11.87L515.55 12.21L515.55 12.21Q515.55 13.50 516.26 14.14L516.26 14.14L516.26 14.14Q516.96 14.78 518.22 14.78L518.22 14.78L518.22 14.78Q519.32 14.78 519.87 14.30L519.87 14.30L519.87 14.30Q520.42 13.82 520.42 13.02L520.42 13.02L520.42 12.94L520.42 12.94Q520.42 12.17 519.85 11.76L519.85 11.76L519.85 11.76Q519.29 11.35 518.01 11.17L518.01 11.17L518.01 11.17Q517.27 11.07 516.68 10.87L516.68 10.87L516.68 10.87Q516.08 10.67 515.66 10.34L515.66 10.34L515.66 10.34Q515.24 10.01 515.02 9.55L515.02 9.55L515.02 9.55Q514.79 9.09 514.79 8.46L514.79 8.46L514.79 8.29L514.79 8.29Q514.79 7.71 515.03 7.24L515.03 7.24L515.03 7.24Q515.27 6.76 515.70 6.41L515.70 6.41L515.70 6.41Q516.12 6.06 516.72 5.87L516.72 5.87L516.72 5.87Q517.31 5.68 518.03 5.68L518.03 5.68L518.03 5.68Q518.85 5.68 519.50 5.92L519.50 5.92L519.50 5.92Q520.16 6.16 520.60 6.56L520.60 6.56L520.60 6.56Q521.05 6.96 521.28 7.50L521.28 7.50L521.28 7.50Q521.51 8.04 521.51 8.62L521.51 8.62L521.51 9.21L520.34 9.21Z"></path></g></svg>