<svg data-v-423bf9ae="" xmlns="http://www.w3.org/2000/svg" viewBox="0 0 592.4230357733998 60" class="font"><!----><!----><!----><g data-v-423bf9ae="" id="49e11af1-fc09-4f7f-9399-ee36d02ea90f" fill="black" transform="matrix(4.735595867300924,0,0,4.735595867300924,-1.9889528629689721,-10.276242439665985)"><path d="M3.74 12.46L3.74 12.46Q2.83 12.46 2.07 12.12L2.07 12.12L2.07 12.12Q1.32 11.77 0.87 11.10L0.87 11.10L0.87 11.10Q0.42 10.43 0.42 9.48L0.42 9.48L0.43 9.17L2.30 9.17L2.28 9.39L2.28 9.39Q2.28 10.09 2.69 10.51L2.69 10.51L2.69 10.51Q3.09 10.92 3.82 10.92L3.82 10.92L3.82 10.92Q4.56 10.92 4.92 10.59L4.92 10.59L4.92 10.59Q5.28 10.26 5.28 9.79L5.28 9.79L5.28 9.79Q5.28 9.31 5.03 9.01L5.03 9.01L5.03 9.01Q4.77 8.71 4.40 8.54L4.40 8.54L4.40 8.54Q4.03 8.37 3.36 8.15L3.36 8.15L3.36 8.15Q2.48 7.87 1.93 7.59L1.93 7.59L1.93 7.59Q1.39 7.31 1.00 6.73L1.00 6.73L1.00 6.73Q0.62 6.16 0.62 5.21L0.62 5.21L0.62 5.21Q0.62 4.34 1.05 3.73L1.05 3.73L1.05 3.73Q1.48 3.12 2.21 2.82L2.21 2.82L2.21 2.82Q2.94 2.52 3.82 2.52L3.82 2.52L3.82 2.52Q5.19 2.52 6.07 3.23L6.07 3.23L6.07 3.23Q6.94 3.93 6.94 5.35L6.94 5.35L6.94 5.52L5.11 5.52L5.11 5.39L5.11 5.39Q5.11 4.77 4.76 4.42L4.76 4.42L4.76 4.42Q4.41 4.06 3.81 4.06L3.81 4.06L3.81 4.06Q3.18 4.06 2.82 4.35L2.82 4.35L2.82 4.35Q2.46 4.63 2.46 5.08L2.46 5.08L2.46 5.08Q2.46 5.47 2.70 5.73L2.70 5.73L2.70 5.73Q2.94 5.98 3.30 6.13L3.30 6.13L3.30 6.13Q3.65 6.29 4.28 6.48L4.28 6.48L4.28 6.48Q5.19 6.78 5.75 7.05L5.75 7.05L5.75 7.05Q6.31 7.32 6.72 7.90L6.72 7.90L6.72 7.90Q7.13 8.47 7.13 9.41L7.13 9.41L7.13 9.41Q7.13 10.99 6.22 11.72L6.22 11.72L6.22 11.72Q5.32 12.46 3.74 12.46L3.74 12.46ZM11.17 12.46L11.17 12.46Q9.69 12.46 8.96 11.52L8.96 11.52L8.96 11.52Q8.23 10.58 8.23 8.61L8.23 8.61L8.23 8.61Q8.23 6.64 8.96 5.70L8.96 5.70L8.96 5.70Q9.69 4.76 11.17 4.76L11.17 4.76L11.17 4.76Q12.66 4.76 13.38 5.70L13.38 5.70L13.38 5.70Q14.11 6.64 14.11 8.61L14.11 8.61L14.11 8.61Q14.11 10.58 13.38 11.52L13.38 11.52L13.38 11.52Q12.66 12.46 11.17 12.46L11.17 12.46ZM11.17 11.05L11.17 11.05Q11.80 11.05 12.08 10.51L12.08 10.51L12.08 10.51Q12.36 9.97 12.36 8.88L12.36 8.88L12.36 8.34L12.36 8.34Q12.36 7.25 12.08 6.71L12.08 6.71L12.08 6.71Q11.80 6.17 11.17 6.17L11.17 6.17L11.17 6.17Q10.54 6.17 10.26 6.71L10.26 6.71L10.26 6.71Q9.98 7.25 9.98 8.34L9.98 8.34L9.98 8.88L9.98 8.88Q9.98 9.97 10.26 10.51L10.26 10.51L10.26 10.51Q10.54 11.05 11.17 11.05L11.17 11.05ZM17.40 12.46L17.40 12.46Q16.49 12.46 15.97 11.89L15.97 11.89L15.97 11.89Q15.44 11.33 15.44 10.09L15.44 10.09L15.44 4.93L17.12 4.93L17.12 9.63L17.12 9.63Q17.12 10.33 17.36 10.63L17.36 10.63L17.36 10.63Q17.60 10.93 18.09 10.93L18.09 10.93L18.09 10.93Q18.58 10.93 18.91 10.52L18.91 10.52L18.91 10.52Q19.24 10.11 19.24 9.49L19.24 9.49L19.24 4.93L20.92 4.93L20.92 12.29L19.52 12.29L19.35 11.38L19.26 11.38L19.26 11.38Q18.94 11.86 18.48 12.16L18.48 12.16L18.48 12.16Q18.02 12.46 17.40 12.46L17.40 12.46ZM24.29 12.46L24.29 12.46Q23.37 12.46 22.96 11.89L22.96 11.89L22.96 11.89Q22.55 11.33 22.55 10.49L22.55 10.49L22.55 6.34L21.81 6.34L21.81 4.93L22.55 4.93L22.81 2.86L24.23 2.86L24.23 4.93L25.30 4.93L25.30 6.34L24.23 6.34L24.23 10.44L24.23 10.44Q24.23 10.74 24.39 10.89L24.39 10.89L24.39 10.89Q24.54 11.05 24.82 11.05L24.82 11.05L25.30 11.05L25.30 12.29L25.30 12.29Q25.12 12.36 24.82 12.41L24.82 12.41L24.82 12.41Q24.53 12.46 24.29 12.46L24.29 12.46ZM26.28 12.29L26.28 2.17L27.96 2.17L27.96 5.71L28.01 5.71L28.01 5.71Q28.29 5.31 28.74 5.03L28.74 5.03L28.74 5.03Q29.19 4.76 29.79 4.76L29.79 4.76L29.79 4.76Q30.70 4.76 31.23 5.33L31.23 5.33L31.23 5.33Q31.75 5.89 31.75 7.13L31.75 7.13L31.75 12.29L30.07 12.29L30.07 7.59L30.07 7.59Q30.07 6.90 29.83 6.59L29.83 6.59L29.83 6.59Q29.58 6.29 29.11 6.29L29.11 6.29L29.11 6.29Q28.62 6.29 28.29 6.71L28.29 6.71L28.29 6.71Q27.96 7.14 27.96 7.76L27.96 7.76L27.96 12.29L26.28 12.29ZM36.55 12.29L36.55 2.69L42.67 2.69L42.67 4.28L38.35 4.28L38.35 6.58L42.06 6.58L42.06 8.18L38.35 8.18L38.35 10.70L42.76 10.70L42.76 12.29L36.55 12.29ZM44.14 12.29L44.14 4.93L45.54 4.93L45.71 5.84L45.79 5.84L45.79 5.84Q46.12 5.36 46.58 5.06L46.58 5.06L46.58 5.06Q47.04 4.76 47.66 4.76L47.66 4.76L47.66 4.76Q48.57 4.76 49.09 5.33L49.09 5.33L49.09 5.33Q49.62 5.89 49.62 7.13L49.62 7.13L49.62 12.29L47.94 12.29L47.94 7.59L47.94 7.59Q47.94 6.90 47.69 6.59L47.69 6.59L47.69 6.59Q47.45 6.29 46.97 6.29L46.97 6.29L46.97 6.29Q46.48 6.29 46.15 6.71L46.15 6.71L46.15 6.71Q45.82 7.14 45.82 7.76L45.82 7.76L45.82 12.29L44.14 12.29ZM53.33 12.46L53.33 12.46Q52.21 12.46 51.58 11.50L51.58 11.50L51.58 11.50Q50.96 10.54 50.96 8.60L50.96 8.60L50.96 8.60Q50.96 6.68 51.58 5.72L51.58 5.72L51.58 5.72Q52.21 4.76 53.24 4.76L53.24 4.76L53.24 4.76Q53.80 4.76 54.24 5.00L54.24 5.00L54.24 5.00Q54.68 5.25 54.88 5.68L54.88 5.68L54.95 5.68L54.95 2.17L56.63 2.17L56.63 12.29L55.23 12.29L55.06 11.38L54.99 11.38L54.99 11.38Q54.73 11.91 54.29 12.19L54.29 12.19L54.29 12.19Q53.86 12.46 53.33 12.46L53.33 12.46ZM53.83 10.93L53.83 10.93Q54.42 10.93 54.68 10.42L54.68 10.42L54.68 10.42Q54.95 9.91 54.95 8.88L54.95 8.88L54.95 8.37L54.95 8.37Q54.95 7.34 54.68 6.81L54.68 6.81L54.68 6.81Q54.42 6.29 53.83 6.29L53.83 6.29L53.83 6.29Q53.24 6.29 52.98 6.80L52.98 6.80L52.98 6.80Q52.71 7.31 52.71 8.34L52.71 8.34L52.71 8.88L52.71 8.88Q52.71 9.91 52.98 10.42L52.98 10.42L52.98 10.42Q53.24 10.93 53.83 10.93L53.83 10.93ZM62.68 12.29L60.59 2.69L62.37 2.69L63.52 8.60L63.52 8.60Q63.57 8.86 63.63 9.32L63.63 9.32L63.63 9.32Q63.69 9.79 63.70 9.94L63.70 9.94L63.76 9.94L63.76 9.94Q63.77 9.79 63.83 9.32L63.83 9.32L63.83 9.32Q63.88 8.85 63.94 8.60L63.94 8.60L65.10 2.69L67.13 2.69L68.28 8.60L68.28 8.60Q68.33 8.96 68.39 9.37L68.39 9.37L68.39 9.37Q68.45 9.79 68.46 9.94L68.46 9.94L68.52 9.94L68.52 9.94Q68.53 9.80 68.59 9.34L68.59 9.34L68.59 9.34Q68.64 8.89 68.70 8.60L68.70 8.60L69.87 2.69L71.41 2.69L69.33 12.29L67.52 12.29L66.22 6.17L66.22 6.17Q66.15 5.87 66.09 5.41L66.09 5.41L66.09 5.41Q66.04 4.96 66.02 4.82L66.02 4.82L65.97 4.82L65.97 4.82Q65.95 4.97 65.89 5.45L65.89 5.45L65.89 5.45Q65.83 5.92 65.77 6.17L65.77 6.17L64.48 12.29L62.68 12.29ZM74.75 12.46L74.75 12.46Q73.30 12.46 72.58 11.52L72.58 11.52L72.58 11.52Q71.86 10.57 71.86 8.61L71.86 8.61L71.86 8.61Q71.86 4.76 74.69 4.76L74.69 4.76L74.69 4.76Q76.03 4.76 76.69 5.70L76.69 5.70L76.69 5.70Q77.35 6.64 77.35 8.61L77.35 8.61L77.35 9.03L73.61 9.03L73.61 9.03Q73.63 10.07 73.89 10.58L73.89 10.58L73.89 10.58Q74.14 11.09 74.75 11.09L74.75 11.09L74.75 11.09Q75.18 11.09 75.43 10.72L75.43 10.72L75.43 10.72Q75.68 10.35 75.68 9.69L75.68 9.69L77.35 9.69L77.35 9.69Q77.35 11.06 76.64 11.76L76.64 11.76L76.64 11.76Q75.92 12.46 74.75 12.46L74.75 12.46ZM73.63 7.81L75.59 7.81L75.59 7.81Q75.59 6.13 74.69 6.13L74.69 6.13L74.69 6.13Q74.17 6.13 73.92 6.56L73.92 6.56L73.92 6.56Q73.67 6.99 73.63 7.81L73.63 7.81ZM81.89 12.46L81.89 12.46Q81.35 12.46 80.92 12.19L80.92 12.19L80.92 12.19Q80.49 11.91 80.22 11.38L80.22 11.38L80.15 11.38L79.98 12.29L78.58 12.29L78.58 2.17L80.26 2.17L80.26 5.68L80.33 5.68L80.33 5.68Q80.53 5.25 80.97 5.00L80.97 5.00L80.97 5.00Q81.41 4.76 81.97 4.76L81.97 4.76L81.97 4.76Q83.01 4.76 83.63 5.72L83.63 5.72L83.63 5.72Q84.25 6.68 84.25 8.60L84.25 8.60L84.25 8.60Q84.25 10.54 83.63 11.50L83.63 11.50L83.63 11.50Q83.01 12.46 81.89 12.46L81.89 12.46ZM81.38 10.93L81.38 10.93Q81.97 10.93 82.24 10.42L82.24 10.42L82.24 10.42Q82.50 9.91 82.50 8.88L82.50 8.88L82.50 8.34L82.50 8.34Q82.50 7.31 82.24 6.80L82.24 6.80L82.24 6.80Q81.97 6.29 81.38 6.29L81.38 6.29L81.38 6.29Q80.79 6.29 80.53 6.81L80.53 6.81L80.53 6.81Q80.26 7.34 80.26 8.37L80.26 8.37L80.26 8.88L80.26 8.88Q80.26 9.91 80.53 10.42L80.53 10.42L80.53 10.42Q80.79 10.93 81.38 10.93L81.38 10.93ZM88.86 12.29L88.86 2.69L91.98 2.69L91.98 2.69Q93.80 2.69 94.81 3.88L94.81 3.88L94.81 3.88Q95.83 5.07 95.83 7.35L95.83 7.35L95.83 7.35Q95.83 9.77 94.82 11.03L94.82 11.03L94.82 11.03Q93.81 12.29 91.98 12.29L91.98 12.29L88.86 12.29ZM90.65 10.70L91.81 10.70L91.81 10.70Q92.83 10.70 93.41 9.93L93.41 9.93L93.41 9.93Q93.98 9.17 93.98 7.70L93.98 7.70L93.98 7L93.98 7Q93.98 5.67 93.41 4.98L93.41 4.98L93.41 4.98Q92.83 4.28 91.81 4.28L91.81 4.28L90.65 4.28L90.65 10.70ZM99.62 12.46L99.62 12.46Q98.18 12.46 97.46 11.52L97.46 11.52L97.46 11.52Q96.74 10.57 96.74 8.61L96.74 8.61L96.74 8.61Q96.74 4.76 99.57 4.76L99.57 4.76L99.57 4.76Q100.91 4.76 101.57 5.70L101.57 5.70L101.57 5.70Q102.23 6.64 102.23 8.61L102.23 8.61L102.23 9.03L98.49 9.03L98.49 9.03Q98.50 10.07 98.76 10.58L98.76 10.58L98.76 10.58Q99.02 11.09 99.62 11.09L99.62 11.09L99.62 11.09Q100.06 11.09 100.31 10.72L100.31 10.72L100.31 10.72Q100.56 10.35 100.56 9.69L100.56 9.69L102.23 9.69L102.23 9.69Q102.23 11.06 101.51 11.76L101.51 11.76L101.51 11.76Q100.80 12.46 99.62 12.46L99.62 12.46ZM98.50 7.81L100.46 7.81L100.46 7.81Q100.46 6.13 99.57 6.13L99.57 6.13L99.57 6.13Q99.05 6.13 98.80 6.56L98.80 6.56L98.80 6.56Q98.55 6.99 98.50 7.81L98.50 7.81ZM105.83 12.46L105.83 12.46Q104.57 12.46 103.86 11.82L103.86 11.82L103.86 11.82Q103.15 11.19 103.15 10.12L103.15 10.12L103.17 9.95L104.87 9.95L104.87 10.05L104.87 10.05Q104.89 10.60 105.18 10.84L105.18 10.84L105.18 10.84Q105.48 11.09 105.88 11.09L105.88 11.09L105.88 11.09Q106.27 11.09 106.57 10.90L106.57 10.90L106.57 10.90Q106.86 10.71 106.86 10.29L106.86 10.29L106.86 10.29Q106.86 9.84 106.53 9.64L106.53 9.64L106.53 9.64Q106.19 9.44 105.46 9.24L105.46 9.24L105.46 9.24Q104.76 9.04 104.33 8.85L104.33 8.85L104.33 8.85Q103.89 8.65 103.58 8.20L103.58 8.20L103.58 8.20Q103.26 7.76 103.26 7L103.26 7L103.26 7Q103.26 5.92 104.00 5.34L104.00 5.34L104.00 5.34Q104.73 4.76 105.90 4.76L105.90 4.76L105.90 4.76Q106.97 4.76 107.68 5.30L107.68 5.30L107.68 5.30Q108.39 5.84 108.39 6.76L108.39 6.76L108.37 7.08L106.67 7.08L106.67 7.06L106.67 7.06Q106.65 6.13 105.84 6.13L105.84 6.13L105.84 6.13Q105.45 6.13 105.21 6.33L105.21 6.33L105.21 6.33Q104.97 6.52 104.97 6.86L104.97 6.86L104.97 6.86Q104.97 7.25 105.29 7.43L105.29 7.43L105.29 7.43Q105.62 7.60 106.30 7.78L106.30 7.78L106.30 7.78Q107.02 7.97 107.46 8.17L107.46 8.17L107.46 8.17Q107.91 8.37 108.24 8.83L108.24 8.83L108.24 8.83Q108.57 9.28 108.57 10.08L108.57 10.08L108.57 10.08Q108.57 12.46 105.83 12.46L105.83 12.46ZM109.83 3.70L109.83 2.17L111.51 2.17L111.51 3.70L109.83 3.70ZM109.83 12.29L109.83 4.93L111.51 4.93L111.51 12.29L109.83 12.29ZM114.11 14.84L114.11 14.84Q113.43 14.84 112.96 14.36L112.96 14.36L112.96 14.36Q112.49 13.89 112.49 13.15L112.49 13.15L112.49 13.15Q112.49 12.17 113.43 11.65L113.43 11.65L113.43 11.65Q112.84 11.28 112.84 10.54L112.84 10.54L112.84 10.54Q112.84 10.08 113.14 9.75L113.14 9.75L113.14 9.75Q113.44 9.42 113.92 9.25L113.92 9.25L113.92 9.25Q113.02 8.60 113.02 7.27L113.02 7.27L113.02 7.27Q113.02 6.10 113.73 5.43L113.73 5.43L113.73 5.43Q114.44 4.76 115.74 4.76L115.74 4.76L115.74 4.76Q116.44 4.76 116.97 4.97L116.97 4.97L116.97 4.97Q117.35 4.70 117.52 4.33L117.52 4.33L117.52 4.33Q117.68 3.96 117.68 3.70L117.68 3.70L119.07 3.70L119.07 3.70Q119.07 5.21 117.88 5.57L117.88 5.57L117.88 5.57Q118.47 6.23 118.47 7.27L118.47 7.27L118.47 7.27Q118.47 8.43 117.76 9.10L117.76 9.10L117.76 9.10Q117.05 9.77 115.74 9.77L115.74 9.77L115.04 9.77L115.04 9.77Q114.81 9.77 114.67 9.90L114.67 9.90L114.67 9.90Q114.53 10.02 114.53 10.22L114.53 10.22L114.53 10.22Q114.53 10.40 114.66 10.53L114.66 10.53L114.66 10.53Q114.79 10.65 114.97 10.65L114.97 10.65L117.52 10.65L117.52 10.65Q118.23 10.65 118.71 11.18L118.71 11.18L118.71 11.18Q119.20 11.70 119.20 12.57L119.20 12.57L119.20 12.57Q119.20 13.24 118.88 13.76L118.88 13.76L118.88 13.76Q118.57 14.28 118.02 14.56L118.02 14.56L118.02 14.56Q117.47 14.84 116.82 14.84L116.82 14.84L114.11 14.84ZM115.74 8.53L115.74 8.53Q116.26 8.53 116.52 8.20L116.52 8.20L116.52 8.20Q116.79 7.87 116.79 7.27L116.79 7.27L116.79 7.27Q116.79 6.66 116.52 6.33L116.52 6.33L116.52 6.33Q116.26 6.01 115.74 6.01L115.74 6.01L115.74 6.01Q115.23 6.01 114.97 6.33L114.97 6.33L114.97 6.33Q114.70 6.66 114.70 7.27L114.70 7.27L114.70 7.27Q114.70 7.87 114.97 8.20L114.97 8.20L114.97 8.20Q115.23 8.53 115.74 8.53L115.74 8.53ZM114.86 13.57L116.75 13.57L116.75 13.57Q117.07 13.57 117.28 13.38L117.28 13.38L117.28 13.38Q117.50 13.19 117.50 12.88L117.50 12.88L117.50 12.88Q117.50 12.57 117.31 12.39L117.31 12.39L117.31 12.39Q117.11 12.21 116.82 12.21L116.82 12.21L114.86 12.21L114.86 12.21Q114.58 12.21 114.38 12.40L114.38 12.40L114.38 12.40Q114.18 12.60 114.18 12.88L114.18 12.88L114.18 12.88Q114.18 13.19 114.37 13.38L114.37 13.38L114.37 13.38Q114.56 13.57 114.86 13.57L114.86 13.57ZM120.05 12.29L120.05 4.93L121.45 4.93L121.62 5.84L121.70 5.84L121.70 5.84Q122.02 5.36 122.49 5.06L122.49 5.06L122.49 5.06Q122.95 4.76 123.56 4.76L123.56 4.76L123.56 4.76Q124.47 4.76 125.00 5.33L125.00 5.33L125.00 5.33Q125.52 5.89 125.52 7.13L125.52 7.13L125.52 12.29L123.84 12.29L123.84 7.59L123.84 7.59Q123.84 6.90 123.60 6.59L123.60 6.59L123.60 6.59Q123.35 6.29 122.88 6.29L122.88 6.29L122.88 6.29Q122.39 6.29 122.06 6.71L122.06 6.71L122.06 6.71Q121.73 7.14 121.73 7.76L121.73 7.76L121.73 12.29L120.05 12.29Z"></path></g><!----><!----></svg>