<svg data-v-423bf9ae="" xmlns="http://www.w3.org/2000/svg" viewBox="0 0 545 90" class="iconLeftSlogan"><!----><!----><!----><g data-v-423bf9ae="" id="29683784-6898-4cff-9168-e9beaa5c65e4" fill="white" transform="matrix(4.735595867300924,0,0,4.735595867300924,80.3872874229209,-10.276242439665985)"><path d="M3.74 12.46L3.74 12.46Q2.83 12.46 2.07 12.12L2.07 12.12L2.07 12.12Q1.32 11.77 0.87 11.10L0.87 11.10L0.87 11.10Q0.42 10.43 0.42 9.48L0.42 9.48L0.43 9.17L2.30 9.17L2.28 9.39L2.28 9.39Q2.28 10.09 2.69 10.51L2.69 10.51L2.69 10.51Q3.09 10.92 3.82 10.92L3.82 10.92L3.82 10.92Q4.56 10.92 4.92 10.59L4.92 10.59L4.92 10.59Q5.28 10.26 5.28 9.79L5.28 9.79L5.28 9.79Q5.28 9.31 5.03 9.01L5.03 9.01L5.03 9.01Q4.77 8.71 4.40 8.54L4.40 8.54L4.40 8.54Q4.03 8.37 3.36 8.15L3.36 8.15L3.36 8.15Q2.48 7.87 1.93 7.59L1.93 7.59L1.93 7.59Q1.39 7.31 1.00 6.73L1.00 6.73L1.00 6.73Q0.62 6.16 0.62 5.21L0.62 5.21L0.62 5.21Q0.62 4.34 1.05 3.73L1.05 3.73L1.05 3.73Q1.48 3.12 2.21 2.82L2.21 2.82L2.21 2.82Q2.94 2.52 3.82 2.52L3.82 2.52L3.82 2.52Q5.19 2.52 6.07 3.23L6.07 3.23L6.07 3.23Q6.94 3.93 6.94 5.35L6.94 5.35L6.94 5.52L5.11 5.52L5.11 5.39L5.11 5.39Q5.11 4.77 4.76 4.42L4.76 4.42L4.76 4.42Q4.41 4.06 3.81 4.06L3.81 4.06L3.81 4.06Q3.18 4.06 2.82 4.35L2.82 4.35L2.82 4.35Q2.46 4.63 2.46 5.08L2.46 5.08L2.46 5.08Q2.46 5.47 2.70 5.73L2.70 5.73L2.70 5.73Q2.94 5.98 3.30 6.13L3.30 6.13L3.30 6.13Q3.65 6.29 4.28 6.48L4.28 6.48L4.28 6.48Q5.19 6.78 5.75 7.05L5.75 7.05L5.75 7.05Q6.31 7.32 6.72 7.90L6.72 7.90L6.72 7.90Q7.13 8.47 7.13 9.41L7.13 9.41L7.13 9.41Q7.13 10.99 6.22 11.72L6.22 11.72L6.22 11.72Q5.32 12.46 3.74 12.46L3.74 12.46ZM11.17 12.46L11.17 12.46Q9.69 12.46 8.96 11.52L8.96 11.52L8.96 11.52Q8.23 10.58 8.23 8.61L8.23 8.61L8.23 8.61Q8.23 6.64 8.96 5.70L8.96 5.70L8.96 5.70Q9.69 4.76 11.17 4.76L11.17 4.76L11.17 4.76Q12.66 4.76 13.38 5.70L13.38 5.70L13.38 5.70Q14.11 6.64 14.11 8.61L14.11 8.61L14.11 8.61Q14.11 10.58 13.38 11.52L13.38 11.52L13.38 11.52Q12.66 12.46 11.17 12.46L11.17 12.46ZM11.17 11.05L11.17 11.05Q11.80 11.05 12.08 10.51L12.08 10.51L12.08 10.51Q12.36 9.97 12.36 8.88L12.36 8.88L12.36 8.34L12.36 8.34Q12.36 7.25 12.08 6.71L12.08 6.71L12.08 6.71Q11.80 6.17 11.17 6.17L11.17 6.17L11.17 6.17Q10.54 6.17 10.26 6.71L10.26 6.71L10.26 6.71Q9.98 7.25 9.98 8.34L9.98 8.34L9.98 8.88L9.98 8.88Q9.98 9.97 10.26 10.51L10.26 10.51L10.26 10.51Q10.54 11.05 11.17 11.05L11.17 11.05ZM17.40 12.46L17.40 12.46Q16.49 12.46 15.97 11.89L15.97 11.89L15.97 11.89Q15.44 11.33 15.44 10.09L15.44 10.09L15.44 4.93L17.12 4.93L17.12 9.63L17.12 9.63Q17.12 10.33 17.36 10.63L17.36 10.63L17.36 10.63Q17.60 10.93 18.09 10.93L18.09 10.93L18.09 10.93Q18.58 10.93 18.91 10.52L18.91 10.52L18.91 10.52Q19.24 10.11 19.24 9.49L19.24 9.49L19.24 4.93L20.92 4.93L20.92 12.29L19.52 12.29L19.35 11.38L19.26 11.38L19.26 11.38Q18.94 11.86 18.48 12.16L18.48 12.16L18.48 12.16Q18.02 12.46 17.40 12.46L17.40 12.46ZM24.29 12.46L24.29 12.46Q23.37 12.46 22.96 11.89L22.96 11.89L22.96 11.89Q22.55 11.33 22.55 10.49L22.55 10.49L22.55 6.34L21.81 6.34L21.81 4.93L22.55 4.93L22.81 2.86L24.23 2.86L24.23 4.93L25.30 4.93L25.30 6.34L24.23 6.34L24.23 10.44L24.23 10.44Q24.23 10.74 24.39 10.89L24.39 10.89L24.39 10.89Q24.54 11.05 24.82 11.05L24.82 11.05L25.30 11.05L25.30 12.29L25.30 12.29Q25.12 12.36 24.82 12.41L24.82 12.41L24.82 12.41Q24.53 12.46 24.29 12.46L24.29 12.46ZM26.28 12.29L26.28 2.17L27.96 2.17L27.96 5.71L28.01 5.71L28.01 5.71Q28.29 5.31 28.74 5.03L28.74 5.03L28.74 5.03Q29.19 4.76 29.79 4.76L29.79 4.76L29.79 4.76Q30.70 4.76 31.23 5.33L31.23 5.33L31.23 5.33Q31.75 5.89 31.75 7.13L31.75 7.13L31.75 12.29L30.07 12.29L30.07 7.59L30.07 7.59Q30.07 6.90 29.83 6.59L29.83 6.59L29.83 6.59Q29.58 6.29 29.11 6.29L29.11 6.29L29.11 6.29Q28.62 6.29 28.29 6.71L28.29 6.71L28.29 6.71Q27.96 7.14 27.96 7.76L27.96 7.76L27.96 12.29L26.28 12.29ZM36.55 12.29L36.55 2.69L42.67 2.69L42.67 4.28L38.35 4.28L38.35 6.58L42.06 6.58L42.06 8.18L38.35 8.18L38.35 10.70L42.76 10.70L42.76 12.29L36.55 12.29ZM44.14 12.29L44.14 4.93L45.54 4.93L45.71 5.84L45.79 5.84L45.79 5.84Q46.12 5.36 46.58 5.06L46.58 5.06L46.58 5.06Q47.04 4.76 47.66 4.76L47.66 4.76L47.66 4.76Q48.57 4.76 49.09 5.33L49.09 5.33L49.09 5.33Q49.62 5.89 49.62 7.13L49.62 7.13L49.62 12.29L47.94 12.29L47.94 7.59L47.94 7.59Q47.94 6.90 47.69 6.59L47.69 6.59L47.69 6.59Q47.45 6.29 46.97 6.29L46.97 6.29L46.97 6.29Q46.48 6.29 46.15 6.71L46.15 6.71L46.15 6.71Q45.82 7.14 45.82 7.76L45.82 7.76L45.82 12.29L44.14 12.29ZM53.33 12.46L53.33 12.46Q52.21 12.46 51.58 11.50L51.58 11.50L51.58 11.50Q50.96 10.54 50.96 8.60L50.96 8.60L50.96 8.60Q50.96 6.68 51.58 5.72L51.58 5.72L51.58 5.72Q52.21 4.76 53.24 4.76L53.24 4.76L53.24 4.76Q53.80 4.76 54.24 5.00L54.24 5.00L54.24 5.00Q54.68 5.25 54.88 5.68L54.88 5.68L54.95 5.68L54.95 2.17L56.63 2.17L56.63 12.29L55.23 12.29L55.06 11.38L54.99 11.38L54.99 11.38Q54.73 11.91 54.29 12.19L54.29 12.19L54.29 12.19Q53.86 12.46 53.33 12.46L53.33 12.46ZM53.83 10.93L53.83 10.93Q54.42 10.93 54.68 10.42L54.68 10.42L54.68 10.42Q54.95 9.91 54.95 8.88L54.95 8.88L54.95 8.37L54.95 8.37Q54.95 7.34 54.68 6.81L54.68 6.81L54.68 6.81Q54.42 6.29 53.83 6.29L53.83 6.29L53.83 6.29Q53.24 6.29 52.98 6.80L52.98 6.80L52.98 6.80Q52.71 7.31 52.71 8.34L52.71 8.34L52.71 8.88L52.71 8.88Q52.71 9.91 52.98 10.42L52.98 10.42L52.98 10.42Q53.24 10.93 53.83 10.93L53.83 10.93ZM61.43 12.29L61.43 2.69L64.55 2.69L64.55 2.69Q66.37 2.69 67.39 3.88L67.39 3.88L67.39 3.88Q68.40 5.07 68.40 7.35L68.40 7.35L68.40 7.35Q68.40 9.77 67.40 11.03L67.40 11.03L67.40 11.03Q66.39 12.29 64.55 12.29L64.55 12.29L61.43 12.29ZM63.22 10.70L64.39 10.70L64.39 10.70Q65.41 10.70 65.98 9.93L65.98 9.93L65.98 9.93Q66.56 9.17 66.56 7.70L66.56 7.70L66.56 7L66.56 7Q66.56 5.67 65.98 4.98L65.98 4.98L65.98 4.98Q65.41 4.28 64.39 4.28L64.39 4.28L63.22 4.28L63.22 10.70ZM72.20 12.46L72.20 12.46Q70.76 12.46 70.04 11.52L70.04 11.52L70.04 11.52Q69.31 10.57 69.31 8.61L69.31 8.61L69.31 8.61Q69.31 4.76 72.14 4.76L72.14 4.76L72.14 4.76Q73.49 4.76 74.14 5.70L74.14 5.70L74.14 5.70Q74.80 6.64 74.80 8.61L74.80 8.61L74.80 9.03L71.06 9.03L71.06 9.03Q71.08 10.07 71.34 10.58L71.34 10.58L71.34 10.58Q71.60 11.09 72.20 11.09L72.20 11.09L72.20 11.09Q72.63 11.09 72.88 10.72L72.88 10.72L72.88 10.72Q73.14 10.35 73.14 9.69L73.14 9.69L74.80 9.69L74.80 9.69Q74.80 11.06 74.09 11.76L74.09 11.76L74.09 11.76Q73.37 12.46 72.20 12.46L72.20 12.46ZM71.08 7.81L73.04 7.81L73.04 7.81Q73.04 6.13 72.14 6.13L72.14 6.13L72.14 6.13Q71.62 6.13 71.37 6.56L71.37 6.56L71.37 6.56Q71.12 6.99 71.08 7.81L71.08 7.81ZM78.40 12.46L78.40 12.46Q77.14 12.46 76.43 11.82L76.43 11.82L76.43 11.82Q75.73 11.19 75.73 10.12L75.73 10.12L75.74 9.95L77.45 9.95L77.45 10.05L77.45 10.05Q77.46 10.60 77.76 10.84L77.76 10.84L77.76 10.84Q78.05 11.09 78.46 11.09L78.46 11.09L78.46 11.09Q78.85 11.09 79.14 10.90L79.14 10.90L79.14 10.90Q79.44 10.71 79.44 10.29L79.44 10.29L79.44 10.29Q79.44 9.84 79.10 9.64L79.10 9.64L79.10 9.64Q78.76 9.44 78.04 9.24L78.04 9.24L78.04 9.24Q77.34 9.04 76.90 8.85L76.90 8.85L76.90 8.85Q76.47 8.65 76.15 8.20L76.15 8.20L76.15 8.20Q75.84 7.76 75.84 7L75.84 7L75.84 7Q75.84 5.92 76.57 5.34L76.57 5.34L76.57 5.34Q77.31 4.76 78.47 4.76L78.47 4.76L78.47 4.76Q79.55 4.76 80.26 5.30L80.26 5.30L80.26 5.30Q80.96 5.84 80.96 6.76L80.96 6.76L80.95 7.08L79.24 7.08L79.24 7.06L79.24 7.06Q79.23 6.13 78.41 6.13L78.41 6.13L78.41 6.13Q78.02 6.13 77.78 6.33L77.78 6.33L77.78 6.33Q77.55 6.52 77.55 6.86L77.55 6.86L77.55 6.86Q77.55 7.25 77.87 7.43L77.87 7.43L77.87 7.43Q78.19 7.60 78.88 7.78L78.88 7.78L78.88 7.78Q79.59 7.97 80.04 8.17L80.04 8.17L80.04 8.17Q80.49 8.37 80.82 8.83L80.82 8.83L80.82 8.83Q81.14 9.28 81.14 10.08L81.14 10.08L81.14 10.08Q81.14 12.46 78.40 12.46L78.40 12.46ZM82.40 3.70L82.40 2.17L84.08 2.17L84.08 3.70L82.40 3.70ZM82.40 12.29L82.40 4.93L84.08 4.93L84.08 12.29L82.40 12.29ZM86.69 14.84L86.69 14.84Q86.00 14.84 85.53 14.36L85.53 14.36L85.53 14.36Q85.06 13.89 85.06 13.15L85.06 13.15L85.06 13.15Q85.06 12.17 86.00 11.65L86.00 11.65L86.00 11.65Q85.41 11.28 85.41 10.54L85.41 10.54L85.41 10.54Q85.41 10.08 85.72 9.75L85.72 9.75L85.72 9.75Q86.02 9.42 86.49 9.25L86.49 9.25L86.49 9.25Q85.60 8.60 85.60 7.27L85.60 7.27L85.60 7.27Q85.60 6.10 86.30 5.43L86.30 5.43L86.30 5.43Q87.01 4.76 88.31 4.76L88.31 4.76L88.31 4.76Q89.01 4.76 89.54 4.97L89.54 4.97L89.54 4.97Q89.92 4.70 90.09 4.33L90.09 4.33L90.09 4.33Q90.26 3.96 90.26 3.70L90.26 3.70L91.64 3.70L91.64 3.70Q91.64 5.21 90.45 5.57L90.45 5.57L90.45 5.57Q91.04 6.23 91.04 7.27L91.04 7.27L91.04 7.27Q91.04 8.43 90.34 9.10L90.34 9.10L90.34 9.10Q89.63 9.77 88.31 9.77L88.31 9.77L87.61 9.77L87.61 9.77Q87.39 9.77 87.25 9.90L87.25 9.90L87.25 9.90Q87.11 10.02 87.11 10.22L87.11 10.22L87.11 10.22Q87.11 10.40 87.23 10.53L87.23 10.53L87.23 10.53Q87.36 10.65 87.54 10.65L87.54 10.65L90.09 10.65L90.09 10.65Q90.80 10.65 91.29 11.18L91.29 11.18L91.29 11.18Q91.77 11.70 91.77 12.57L91.77 12.57L91.77 12.57Q91.77 13.24 91.45 13.76L91.45 13.76L91.45 13.76Q91.14 14.28 90.59 14.56L90.59 14.56L90.59 14.56Q90.05 14.84 89.39 14.84L89.39 14.84L86.69 14.84ZM88.31 8.53L88.31 8.53Q88.83 8.53 89.10 8.20L89.10 8.20L89.10 8.20Q89.36 7.87 89.36 7.27L89.36 7.27L89.36 7.27Q89.36 6.66 89.10 6.33L89.10 6.33L89.10 6.33Q88.83 6.01 88.31 6.01L88.31 6.01L88.31 6.01Q87.81 6.01 87.54 6.33L87.54 6.33L87.54 6.33Q87.28 6.66 87.28 7.27L87.28 7.27L87.28 7.27Q87.28 7.87 87.54 8.20L87.54 8.20L87.54 8.20Q87.81 8.53 88.31 8.53L88.31 8.53ZM87.43 13.57L89.32 13.57L89.32 13.57Q89.64 13.57 89.86 13.38L89.86 13.38L89.86 13.38Q90.08 13.19 90.08 12.88L90.08 12.88L90.08 12.88Q90.08 12.57 89.88 12.39L89.88 12.39L89.88 12.39Q89.68 12.21 89.39 12.21L89.39 12.21L87.43 12.21L87.43 12.21Q87.15 12.21 86.95 12.40L86.95 12.40L86.95 12.40Q86.76 12.60 86.76 12.88L86.76 12.88L86.76 12.88Q86.76 13.19 86.95 13.38L86.95 13.38L86.95 13.38Q87.14 13.57 87.43 13.57L87.43 13.57ZM92.62 12.29L92.62 4.93L94.02 4.93L94.19 5.84L94.28 5.84L94.28 5.84Q94.60 5.36 95.06 5.06L95.06 5.06L95.06 5.06Q95.52 4.76 96.14 4.76L96.14 4.76L96.14 4.76Q97.05 4.76 97.57 5.33L97.57 5.33L97.57 5.33Q98.10 5.89 98.10 7.13L98.10 7.13L98.10 12.29L96.42 12.29L96.42 7.59L96.42 7.59Q96.42 6.90 96.17 6.59L96.17 6.59L96.17 6.59Q95.93 6.29 95.45 6.29L95.45 6.29L95.45 6.29Q94.96 6.29 94.63 6.71L94.63 6.71L94.63 6.71Q94.30 7.14 94.30 7.76L94.30 7.76L94.30 12.29L92.62 12.29Z"></path></g><!----><g data-v-423bf9ae="" id="ca83a439-b318-4f85-9b1f-5e5ddf9a0ac3" transform="matrix(4.455445376275492,0,0,4.455445376275492,-21.4653445153059,-7.565343813269372)" stroke="none" fill="white"><path d="M9.305 19l.2-2h4.99l.2 2h-5.39zm.6-6h4.19l.2 2h-4.59l.2-2zm.4-4h3.39l.2 2h-3.79l.2-2zm.4-4h2.59l.2 2h-2.99l.2-2zM19 19h-2.295l-.2-2H18.5v-2h-2.195l-.2-2H18v-2h-2.095l-.2-2H17.5V7h-1.995l-.2-2H17V3h-1.895l-.11-1.1-1.99.2.09.9h-2.19l.09-.9-1.99-.2-.11 1.1H7v2h1.695l-.2 2H6.5v2h1.795l-.2 2H6v2h1.895l-.2 2H5.5v2h1.995l-.2 2H5v2h2.095l-.09.9 1.99.2.11-1.1h5.79l.11 1.1 1.99-.2-.09-.9H19v-2z"></path></g><!----><g data-v-423bf9ae="" id="7db3ecc9-a57e-4f74-977a-81db40577174" fill="white" transform="matrix(0.807793797217768,0,0,0.807793797217768,81.3907255164153,55.41173128888729)"><path d="M1.22 15.68L1.22 5.88L2.39 5.88L2.39 14.59L7.52 14.59L7.52 15.68L1.22 15.68ZM16.41 11.87L16.41 9.69L16.41 9.69Q16.41 7.78 17.32 6.73L17.32 6.73L17.32 6.73Q18.23 5.68 19.85 5.68L19.85 5.68L19.85 5.68Q21.48 5.68 22.39 6.73L22.39 6.73L22.39 6.73Q23.30 7.78 23.30 9.69L23.30 9.69L23.30 11.87L23.30 11.87Q23.30 13.83 22.39 14.85L22.39 14.85L22.39 14.85Q21.48 15.88 19.85 15.88L19.85 15.88L19.85 15.88Q18.23 15.88 17.32 14.85L17.32 14.85L17.32 14.85Q16.41 13.83 16.41 11.87L16.41 11.87ZM19.85 14.78L19.85 14.78L19.85 14.78Q20.99 14.78 21.55 14.01L21.55 14.01L21.55 14.01Q22.12 13.23 22.12 11.79L22.12 11.79L22.12 9.77L22.12 9.77Q22.12 8.43 21.55 7.60L21.55 7.60L21.55 7.60Q20.99 6.78 19.85 6.78L19.85 6.78L19.85 6.78Q18.72 6.78 18.15 7.60L18.15 7.60L18.15 7.60Q17.58 8.43 17.58 9.77L17.58 9.77L17.58 11.79L17.58 11.79Q17.58 13.23 18.15 14.01L18.15 14.01L18.15 14.01Q18.72 14.78 19.85 14.78ZM35.48 14.78L35.48 14.78L35.48 14.78Q36.08 14.78 36.50 14.58L36.50 14.58L36.50 14.58Q36.93 14.38 37.20 14.04L37.20 14.04L37.20 14.04Q37.48 13.69 37.61 13.25L37.61 13.25L37.61 13.25Q37.74 12.81 37.74 12.32L37.74 12.32L37.74 12.15L38.92 12.15L38.92 12.32L38.92 12.32Q38.92 13.06 38.70 13.71L38.70 13.71L38.70 13.71Q38.47 14.36 38.04 14.85L38.04 14.85L38.04 14.85Q37.60 15.33 36.96 15.60L36.96 15.60L36.96 15.60Q36.32 15.88 35.48 15.88L35.48 15.88L35.48 15.88Q33.85 15.88 32.94 14.85L32.94 14.85L32.94 14.85Q32.03 13.83 32.03 11.87L32.03 11.87L32.03 9.69L32.03 9.69Q32.03 7.78 32.94 6.73L32.94 6.73L32.94 6.73Q33.85 5.68 35.48 5.68L35.48 5.68L35.48 5.68Q36.32 5.68 36.96 5.96L36.96 5.96L36.96 5.96Q37.60 6.23 38.04 6.71L38.04 6.71L38.04 6.71Q38.47 7.20 38.70 7.85L38.70 7.85L38.70 7.85Q38.92 8.50 38.92 9.24L38.92 9.24L38.92 9.41L37.74 9.41L37.74 9.24L37.74 9.24Q37.73 8.76 37.60 8.32L37.60 8.32L37.60 8.32Q37.46 7.87 37.19 7.53L37.19 7.53L37.19 7.53Q36.92 7.18 36.50 6.98L36.50 6.98L36.50 6.98Q36.08 6.78 35.48 6.78L35.48 6.78L35.48 6.78Q34.34 6.78 33.77 7.60L33.77 7.60L33.77 7.60Q33.21 8.43 33.21 9.77L33.21 9.77L33.21 11.79L33.21 11.79Q33.21 13.23 33.77 14.01L33.77 14.01L33.77 14.01Q34.34 14.78 35.48 14.78ZM53.80 15.68L53.09 13.24L48.89 13.24L48.17 15.68L46.91 15.68L49.88 5.88L52.09 5.88L55.06 15.68L53.80 15.68ZM51.07 6.38L50.90 6.38L49.21 12.15L52.77 12.15L51.07 6.38ZM63.49 15.68L63.49 5.88L64.67 5.88L64.67 14.59L69.79 14.59L69.79 15.68L63.49 15.68ZM100.00 9.21L100.00 8.71L100.00 8.71Q100.00 8.23 99.81 7.87L99.81 7.87L99.81 7.87Q99.62 7.50 99.30 7.27L99.30 7.27L99.30 7.27Q98.98 7.03 98.56 6.90L98.56 6.90L98.56 6.90Q98.14 6.78 97.68 6.78L97.68 6.78L97.68 6.78Q97.27 6.78 96.91 6.88L96.91 6.88L96.91 6.88Q96.54 6.99 96.26 7.18L96.26 7.18L96.26 7.18Q95.97 7.38 95.80 7.66L95.80 7.66L95.80 7.66Q95.63 7.95 95.63 8.33L95.63 8.33L95.63 8.41L95.63 8.41Q95.63 8.82 95.80 9.11L95.80 9.11L95.80 9.11Q95.97 9.39 96.30 9.60L96.30 9.60L96.30 9.60Q96.63 9.80 97.12 9.93L97.12 9.93L97.12 9.93Q97.61 10.07 98.27 10.16L98.27 10.16L98.27 10.16Q99.81 10.40 100.53 11.07L100.53 11.07L100.53 11.07Q101.26 11.73 101.26 12.85L101.26 12.85L101.26 13.02L101.26 13.02Q101.26 13.65 101.05 14.17L101.05 14.17L101.05 14.17Q100.83 14.70 100.40 15.08L100.40 15.08L100.40 15.08Q99.97 15.46 99.34 15.67L99.34 15.67L99.34 15.67Q98.71 15.88 97.89 15.88L97.89 15.88L97.89 15.88Q96.95 15.88 96.23 15.60L96.23 15.60L96.23 15.60Q95.51 15.33 95.03 14.85L95.03 14.85L95.03 14.85Q94.54 14.36 94.29 13.71L94.29 13.71L94.29 13.71Q94.04 13.06 94.04 12.29L94.04 12.29L94.04 11.87L95.21 11.87L95.21 12.21L95.21 12.21Q95.21 13.50 95.92 14.14L95.92 14.14L95.92 14.14Q96.63 14.78 97.89 14.78L97.89 14.78L97.89 14.78Q98.98 14.78 99.53 14.30L99.53 14.30L99.53 14.30Q100.09 13.82 100.09 13.02L100.09 13.02L100.09 12.94L100.09 12.94Q100.09 12.17 99.52 11.76L99.52 11.76L99.52 11.76Q98.95 11.35 97.68 11.17L97.68 11.17L97.68 11.17Q96.94 11.07 96.34 10.87L96.34 10.87L96.34 10.87Q95.75 10.67 95.33 10.34L95.33 10.34L95.33 10.34Q94.91 10.01 94.68 9.55L94.68 9.55L94.68 9.55Q94.46 9.09 94.46 8.46L94.46 8.46L94.46 8.29L94.46 8.29Q94.46 7.71 94.70 7.24L94.70 7.24L94.70 7.24Q94.93 6.76 95.36 6.41L95.36 6.41L95.36 6.41Q95.79 6.06 96.38 5.87L96.38 5.87L96.38 5.87Q96.98 5.68 97.69 5.68L97.69 5.68L97.69 5.68Q98.52 5.68 99.17 5.92L99.17 5.92L99.17 5.92Q99.82 6.16 100.27 6.56L100.27 6.56L100.27 6.56Q100.72 6.96 100.95 7.50L100.95 7.50L100.95 7.50Q101.18 8.04 101.18 8.62L101.18 8.62L101.18 9.21L100.00 9.21ZM110.15 6.97L110.15 5.88L116.37 5.88L116.37 6.97L113.85 6.97L113.85 14.59L116.37 14.59L116.37 15.68L110.15 15.68L110.15 14.59L112.67 14.59L112.67 6.97L110.15 6.97ZM125.38 6.97L125.38 5.88L132.27 5.88L132.27 6.97L129.42 6.97L129.42 15.68L128.24 15.68L128.24 6.97L125.38 6.97ZM141.43 15.68L141.43 5.88L147.36 5.88L147.36 6.97L142.60 6.97L142.60 10.22L147.28 10.22L147.28 11.31L142.60 11.31L142.60 14.59L147.45 14.59L147.45 15.68L141.43 15.68ZM162.27 9.21L162.27 8.71L162.27 8.71Q162.27 8.23 162.09 7.87L162.09 7.87L162.09 7.87Q161.90 7.50 161.57 7.27L161.57 7.27L161.57 7.27Q161.25 7.03 160.83 6.90L160.83 6.90L160.83 6.90Q160.41 6.78 159.95 6.78L159.95 6.78L159.95 6.78Q159.54 6.78 159.18 6.88L159.18 6.88L159.18 6.88Q158.82 6.99 158.53 7.18L158.53 7.18L158.53 7.18Q158.24 7.38 158.07 7.66L158.07 7.66L158.07 7.66Q157.91 7.95 157.91 8.33L157.91 8.33L157.91 8.41L157.91 8.41Q157.91 8.82 158.07 9.11L158.07 9.11L158.07 9.11Q158.24 9.39 158.57 9.60L158.57 9.60L158.57 9.60Q158.90 9.80 159.39 9.93L159.39 9.93L159.39 9.93Q159.88 10.07 160.54 10.16L160.54 10.16L160.54 10.16Q162.08 10.40 162.81 11.07L162.81 11.07L162.81 11.07Q163.53 11.73 163.53 12.85L163.53 12.85L163.53 13.02L163.53 13.02Q163.53 13.65 163.32 14.17L163.32 14.17L163.32 14.17Q163.10 14.70 162.67 15.08L162.67 15.08L162.67 15.08Q162.25 15.46 161.62 15.67L161.62 15.67L161.62 15.67Q160.99 15.88 160.16 15.88L160.16 15.88L160.16 15.88Q159.22 15.88 158.50 15.60L158.50 15.60L158.50 15.60Q157.78 15.33 157.30 14.85L157.30 14.85L157.30 14.85Q156.81 14.36 156.56 13.71L156.56 13.71L156.56 13.71Q156.31 13.06 156.31 12.29L156.31 12.29L156.31 11.87L157.49 11.87L157.49 12.21L157.49 12.21Q157.49 13.50 158.19 14.14L158.19 14.14L158.19 14.14Q158.90 14.78 160.16 14.78L160.16 14.78L160.16 14.78Q161.25 14.78 161.81 14.30L161.81 14.30L161.81 14.30Q162.36 13.82 162.36 13.02L162.36 13.02L162.36 12.94L162.36 12.94Q162.36 12.17 161.79 11.76L161.79 11.76L161.79 11.76Q161.22 11.35 159.95 11.17L159.95 11.17L159.95 11.17Q159.21 11.07 158.61 10.87L158.61 10.87L158.61 10.87Q158.02 10.67 157.60 10.34L157.60 10.34L157.60 10.34Q157.18 10.01 156.95 9.55L156.95 9.55L156.95 9.55Q156.73 9.09 156.73 8.46L156.73 8.46L156.73 8.29L156.73 8.29Q156.73 7.71 156.97 7.24L156.97 7.24L156.97 7.24Q157.21 6.76 157.63 6.41L157.63 6.41L157.63 6.41Q158.06 6.06 158.66 5.87L158.66 5.87L158.66 5.87Q159.25 5.68 159.96 5.68L159.96 5.68L159.96 5.68Q160.79 5.68 161.44 5.92L161.44 5.92L161.44 5.92Q162.09 6.16 162.54 6.56L162.54 6.56L162.54 6.56Q162.99 6.96 163.22 7.50L163.22 7.50L163.22 7.50Q163.45 8.04 163.45 8.62L163.45 8.62L163.45 9.21L162.27 9.21ZM188.15 15.68L188.15 5.88L194.17 5.88L194.17 6.97L189.32 6.97L189.32 10.22L194.08 10.22L194.08 11.31L189.32 11.31L189.32 15.68L188.15 15.68ZM203.22 11.87L203.22 9.69L203.22 9.69Q203.22 7.78 204.13 6.73L204.13 6.73L204.13 6.73Q205.04 5.68 206.67 5.68L206.67 5.68L206.67 5.68Q208.29 5.68 209.20 6.73L209.20 6.73L209.20 6.73Q210.11 7.78 210.11 9.69L210.11 9.69L210.11 11.87L210.11 11.87Q210.11 13.83 209.20 14.85L209.20 14.85L209.20 14.85Q208.29 15.88 206.67 15.88L206.67 15.88L206.67 15.88Q205.04 15.88 204.13 14.85L204.13 14.85L204.13 14.85Q203.22 13.83 203.22 11.87L203.22 11.87ZM206.67 14.78L206.67 14.78L206.67 14.78Q207.80 14.78 208.37 14.01L208.37 14.01L208.37 14.01Q208.94 13.23 208.94 11.79L208.94 11.79L208.94 9.77L208.94 9.77Q208.94 8.43 208.37 7.60L208.37 7.60L208.37 7.60Q207.80 6.78 206.67 6.78L206.67 6.78L206.67 6.78Q205.53 6.78 204.97 7.60L204.97 7.60L204.97 7.60Q204.40 8.43 204.40 9.77L204.40 9.77L204.40 11.79L204.40 11.79Q204.40 13.23 204.97 14.01L204.97 14.01L204.97 14.01Q205.53 14.78 206.67 14.78ZM225.30 12.15L225.30 15.68L224.13 15.68L224.13 12.40L224.13 12.40Q224.13 12.04 223.96 11.84L223.96 11.84L223.96 11.84Q223.79 11.65 223.37 11.65L223.37 11.65L220.32 11.65L220.32 15.68L219.14 15.68L219.14 5.88L222.64 5.88L222.64 5.88Q223.40 5.88 223.96 6.10L223.96 6.10L223.96 6.10Q224.52 6.31 224.89 6.68L224.89 6.68L224.89 6.68Q225.26 7.04 225.45 7.53L225.45 7.53L225.45 7.53Q225.64 8.01 225.64 8.54L225.64 8.54L225.64 8.96L225.64 8.96Q225.64 9.51 225.34 10.05L225.34 10.05L225.34 10.05Q225.04 10.60 224.41 10.89L224.41 10.89L224.41 11.06L224.41 11.06Q224.83 11.13 225.06 11.40L225.06 11.40L225.06 11.40Q225.30 11.66 225.30 12.15L225.30 12.15ZM220.32 6.97L220.32 10.56L222.50 10.56L222.50 10.56Q223.50 10.56 223.98 10.13L223.98 10.13L223.98 10.13Q224.46 9.70 224.46 8.88L224.46 8.88L224.46 8.62L224.46 8.62Q224.46 7.88 223.98 7.43L223.98 7.43L223.98 7.43Q223.50 6.97 222.50 6.97L222.50 6.97L220.32 6.97ZM250.31 15.68L250.31 5.88L251.48 5.88L251.48 14.59L256.61 14.59L256.61 15.68L250.31 15.68ZM265.50 11.87L265.50 9.69L265.50 9.69Q265.50 7.78 266.41 6.73L266.41 6.73L266.41 6.73Q267.32 5.68 268.94 5.68L268.94 5.68L268.94 5.68Q270.56 5.68 271.47 6.73L271.47 6.73L271.47 6.73Q272.38 7.78 272.38 9.69L272.38 9.69L272.38 11.87L272.38 11.87Q272.38 13.83 271.47 14.85L271.47 14.85L271.47 14.85Q270.56 15.88 268.94 15.88L268.94 15.88L268.94 15.88Q267.32 15.88 266.41 14.85L266.41 14.85L266.41 14.85Q265.50 13.83 265.50 11.87L265.50 11.87ZM268.94 14.78L268.94 14.78L268.94 14.78Q270.07 14.78 270.64 14.01L270.64 14.01L270.64 14.01Q271.21 13.23 271.21 11.79L271.21 11.79L271.21 9.77L271.21 9.77Q271.21 8.43 270.64 7.60L270.64 7.60L270.64 7.60Q270.07 6.78 268.94 6.78L268.94 6.78L268.94 6.78Q267.81 6.78 267.24 7.60L267.24 7.60L267.24 7.60Q266.67 8.43 266.67 9.77L266.67 9.77L266.67 11.79L266.67 11.79Q266.67 13.23 267.24 14.01L267.24 14.01L267.24 14.01Q267.81 14.78 268.94 14.78ZM284.56 14.78L284.56 14.78L284.56 14.78Q285.17 14.78 285.59 14.58L285.59 14.58L285.59 14.58Q286.02 14.38 286.29 14.04L286.29 14.04L286.29 14.04Q286.57 13.69 286.70 13.25L286.70 13.25L286.70 13.25Q286.83 12.81 286.83 12.32L286.83 12.32L286.83 12.15L288.01 12.15L288.01 12.32L288.01 12.32Q288.01 13.06 287.78 13.71L287.78 13.71L287.78 13.71Q287.56 14.36 287.13 14.85L287.13 14.85L287.13 14.85Q286.69 15.33 286.05 15.60L286.05 15.60L286.05 15.60Q285.40 15.88 284.56 15.88L284.56 15.88L284.56 15.88Q282.94 15.88 282.03 14.85L282.03 14.85L282.03 14.85Q281.12 13.83 281.12 11.87L281.12 11.87L281.12 9.69L281.12 9.69Q281.12 7.78 282.03 6.73L282.03 6.73L282.03 6.73Q282.94 5.68 284.56 5.68L284.56 5.68L284.56 5.68Q285.40 5.68 286.05 5.96L286.05 5.96L286.05 5.96Q286.69 6.23 287.13 6.71L287.13 6.71L287.13 6.71Q287.56 7.20 287.78 7.85L287.78 7.85L287.78 7.85Q288.01 8.50 288.01 9.24L288.01 9.24L288.01 9.41L286.83 9.41L286.83 9.24L286.83 9.24Q286.82 8.76 286.69 8.32L286.69 8.32L286.69 8.32Q286.55 7.87 286.28 7.53L286.28 7.53L286.28 7.53Q286.01 7.18 285.59 6.98L285.59 6.98L285.59 6.98Q285.17 6.78 284.56 6.78L284.56 6.78L284.56 6.78Q283.43 6.78 282.86 7.60L282.86 7.60L282.86 7.60Q282.30 8.43 282.30 9.77L282.30 9.77L282.30 11.79L282.30 11.79Q282.30 13.23 282.86 14.01L282.86 14.01L282.86 14.01Q283.43 14.78 284.56 14.78ZM302.89 15.68L302.18 13.24L297.98 13.24L297.26 15.68L296.00 15.68L298.97 5.88L301.18 5.88L304.15 15.68L302.89 15.68ZM300.16 6.38L299.99 6.38L298.30 12.15L301.85 12.15L300.16 6.38ZM312.58 15.68L312.58 5.88L313.75 5.88L313.75 14.59L318.88 14.59L318.88 15.68L312.58 15.68ZM343.29 15.68L343.29 14.59L344.13 14.59L344.13 6.97L343.29 6.97L343.29 5.88L347.26 5.88L347.26 5.88Q347.96 5.88 348.50 6.08L348.50 6.08L348.50 6.08Q349.03 6.27 349.40 6.61L349.40 6.61L349.40 6.61Q349.78 6.94 349.96 7.41L349.96 7.41L349.96 7.41Q350.15 7.88 350.15 8.43L350.15 8.43L350.15 8.60L350.15 8.60Q350.15 9.00 350.03 9.34L350.03 9.34L350.03 9.34Q349.90 9.67 349.68 9.94L349.68 9.94L349.68 9.94Q349.45 10.21 349.15 10.39L349.15 10.39L349.15 10.39Q348.85 10.58 348.50 10.68L348.50 10.68L348.50 10.85L348.50 10.85Q349.20 11.05 349.68 11.60L349.68 11.60L349.68 11.60Q350.15 12.15 350.15 12.95L350.15 12.95L350.15 13.12L350.15 13.12Q350.15 13.66 349.96 14.13L349.96 14.13L349.96 14.13Q349.78 14.60 349.40 14.95L349.40 14.95L349.40 14.95Q349.03 15.29 348.50 15.48L348.50 15.48L348.50 15.48Q347.96 15.68 347.26 15.68L347.26 15.68L343.29 15.68ZM345.31 11.31L345.31 14.59L347.17 14.59L347.17 14.59Q348.00 14.59 348.52 14.17L348.52 14.17L348.52 14.17Q349.03 13.76 349.03 13.03L349.03 13.03L349.03 12.95L349.03 12.95Q349.03 12.19 348.54 11.75L348.54 11.75L348.54 11.75Q348.05 11.31 347.21 11.31L347.21 11.31L345.31 11.31ZM345.31 6.97L345.31 10.22L347.21 10.22L347.21 10.22Q348.05 10.22 348.54 9.79L348.54 9.79L348.54 9.79Q349.03 9.35 349.03 8.60L349.03 8.60L349.03 8.51L349.03 8.51Q349.03 7.80 348.52 7.38L348.52 7.38L348.52 7.38Q348.00 6.97 347.17 6.97L347.17 6.97L345.31 6.97ZM358.99 5.88L360.16 5.88L360.16 12.38L360.16 12.38Q360.16 13.57 360.72 14.17L360.72 14.17L360.72 14.17Q361.27 14.78 362.35 14.78L362.35 14.78L362.35 14.78Q363.43 14.78 363.98 14.17L363.98 14.17L363.98 14.17Q364.53 13.57 364.53 12.38L364.53 12.38L364.53 5.88L365.71 5.88L365.71 12.38L365.71 12.38Q365.71 14.08 364.81 14.98L364.81 14.98L364.81 14.98Q363.92 15.88 362.35 15.88L362.35 15.88L362.35 15.88Q360.78 15.88 359.88 14.98L359.88 14.98L359.88 14.98Q358.99 14.08 358.99 12.38L358.99 12.38L358.99 5.88ZM380.23 9.21L380.23 8.71L380.23 8.71Q380.23 8.23 380.04 7.87L380.04 7.87L380.04 7.87Q379.85 7.50 379.53 7.27L379.53 7.27L379.53 7.27Q379.20 7.03 378.78 6.90L378.78 6.90L378.78 6.90Q378.36 6.78 377.90 6.78L377.90 6.78L377.90 6.78Q377.50 6.78 377.13 6.88L377.13 6.88L377.13 6.88Q376.77 6.99 376.48 7.18L376.48 7.18L376.48 7.18Q376.19 7.38 376.03 7.66L376.03 7.66L376.03 7.66Q375.86 7.95 375.86 8.33L375.86 8.33L375.86 8.41L375.86 8.41Q375.86 8.82 376.03 9.11L376.03 9.11L376.03 9.11Q376.19 9.39 376.52 9.60L376.52 9.60L376.52 9.60Q376.85 9.80 377.34 9.93L377.34 9.93L377.34 9.93Q377.83 10.07 378.49 10.16L378.49 10.16L378.49 10.16Q380.03 10.40 380.76 11.07L380.76 11.07L380.76 11.07Q381.49 11.73 381.49 12.85L381.49 12.85L381.49 13.02L381.49 13.02Q381.49 13.65 381.27 14.17L381.27 14.17L381.27 14.17Q381.05 14.70 380.62 15.08L380.62 15.08L380.62 15.08Q380.20 15.46 379.57 15.67L379.57 15.67L379.57 15.67Q378.94 15.88 378.11 15.88L378.11 15.88L378.11 15.88Q377.17 15.88 376.45 15.60L376.45 15.60L376.45 15.60Q375.73 15.33 375.25 14.85L375.25 14.85L375.25 14.85Q374.77 14.36 374.51 13.71L374.51 13.71L374.51 13.71Q374.26 13.06 374.26 12.29L374.26 12.29L374.26 11.87L375.44 11.87L375.44 12.21L375.44 12.21Q375.44 13.50 376.14 14.14L376.14 14.14L376.14 14.14Q376.85 14.78 378.11 14.78L378.11 14.78L378.11 14.78Q379.20 14.78 379.76 14.30L379.76 14.30L379.76 14.30Q380.31 13.82 380.31 13.02L380.31 13.02L380.31 12.94L380.31 12.94Q380.31 12.17 379.74 11.76L379.74 11.76L379.74 11.76Q379.18 11.35 377.90 11.17L377.90 11.17L377.90 11.17Q377.16 11.07 376.56 10.87L376.56 10.87L376.56 10.87Q375.97 10.67 375.55 10.34L375.55 10.34L375.55 10.34Q375.13 10.01 374.91 9.55L374.91 9.55L374.91 9.55Q374.68 9.09 374.68 8.46L374.68 8.46L374.68 8.29L374.68 8.29Q374.68 7.71 374.92 7.24L374.92 7.24L374.92 7.24Q375.16 6.76 375.58 6.41L375.58 6.41L375.58 6.41Q376.01 6.06 376.61 5.87L376.61 5.87L376.61 5.87Q377.20 5.68 377.92 5.68L377.92 5.68L377.92 5.68Q378.74 5.68 379.39 5.92L379.39 5.92L379.39 5.92Q380.04 6.16 380.49 6.56L380.49 6.56L380.49 6.56Q380.94 6.96 381.17 7.50L381.17 7.50L381.17 7.50Q381.40 8.04 381.40 8.62L381.40 8.62L381.40 9.21L380.23 9.21ZM390.38 6.97L390.38 5.88L396.59 5.88L396.59 6.97L394.07 6.97L394.07 14.59L396.59 14.59L396.59 15.68L390.38 15.68L390.38 14.59L392.90 14.59L392.90 6.97L390.38 6.97ZM408.14 5.88L410.97 15.18L411.14 15.18L411.14 5.88L412.31 5.88L412.31 15.68L409.96 15.68L407.13 6.38L406.97 6.38L406.97 15.68L405.79 15.68L405.79 5.88L408.14 5.88ZM421.65 15.68L421.65 5.88L427.59 5.88L427.59 6.97L422.83 6.97L422.83 10.22L427.50 10.22L427.50 11.31L422.83 11.31L422.83 14.59L427.67 14.59L427.67 15.68L421.65 15.68ZM442.50 9.21L442.50 8.71L442.50 8.71Q442.50 8.23 442.31 7.87L442.31 7.87L442.31 7.87Q442.12 7.50 441.80 7.27L441.80 7.27L441.80 7.27Q441.48 7.03 441.06 6.90L441.06 6.90L441.06 6.90Q440.64 6.78 440.17 6.78L440.17 6.78L440.17 6.78Q439.77 6.78 439.40 6.88L439.40 6.88L439.40 6.88Q439.04 6.99 438.75 7.18L438.75 7.18L438.75 7.18Q438.47 7.38 438.30 7.66L438.30 7.66L438.30 7.66Q438.13 7.95 438.13 8.33L438.13 8.33L438.13 8.41L438.13 8.41Q438.13 8.82 438.30 9.11L438.30 9.11L438.30 9.11Q438.47 9.39 438.79 9.60L438.79 9.60L438.79 9.60Q439.12 9.80 439.61 9.93L439.61 9.93L439.61 9.93Q440.10 10.07 440.76 10.16L440.76 10.16L440.76 10.16Q442.30 10.40 443.03 11.07L443.03 11.07L443.03 11.07Q443.76 11.73 443.76 12.85L443.76 12.85L443.76 13.02L443.76 13.02Q443.76 13.65 443.54 14.17L443.54 14.17L443.54 14.17Q443.32 14.70 442.90 15.08L442.90 15.08L442.90 15.08Q442.47 15.46 441.84 15.67L441.84 15.67L441.84 15.67Q441.21 15.88 440.38 15.88L440.38 15.88L440.38 15.88Q439.45 15.88 438.72 15.60L438.72 15.60L438.72 15.60Q438.00 15.33 437.52 14.85L437.52 14.85L437.52 14.85Q437.04 14.36 436.79 13.71L436.79 13.71L436.79 13.71Q436.53 13.06 436.53 12.29L436.53 12.29L436.53 11.87L437.71 11.87L437.71 12.21L437.71 12.21Q437.71 13.50 438.42 14.14L438.42 14.14L438.42 14.14Q439.12 14.78 440.38 14.78L440.38 14.78L440.38 14.78Q441.48 14.78 442.03 14.30L442.03 14.30L442.03 14.30Q442.58 13.82 442.58 13.02L442.58 13.02L442.58 12.94L442.58 12.94Q442.58 12.17 442.01 11.76L442.01 11.76L442.01 11.76Q441.45 11.35 440.17 11.17L440.17 11.17L440.17 11.17Q439.43 11.07 438.84 10.87L438.84 10.87L438.84 10.87Q438.24 10.67 437.82 10.34L437.82 10.34L437.82 10.34Q437.40 10.01 437.18 9.55L437.18 9.55L437.18 9.55Q436.95 9.09 436.95 8.46L436.95 8.46L436.95 8.29L436.95 8.29Q436.95 7.71 437.19 7.24L437.19 7.24L437.19 7.24Q437.43 6.76 437.86 6.41L437.86 6.41L437.86 6.41Q438.28 6.06 438.88 5.87L438.88 5.87L438.88 5.87Q439.47 5.68 440.19 5.68L440.19 5.68L440.19 5.68Q441.01 5.68 441.66 5.92L441.66 5.92L441.66 5.92Q442.32 6.16 442.76 6.56L442.76 6.56L442.76 6.56Q443.21 6.96 443.44 7.50L443.44 7.50L443.44 7.50Q443.67 8.04 443.67 8.62L443.67 8.62L443.67 9.21L442.50 9.21ZM458.07 9.21L458.07 8.71L458.07 8.71Q458.07 8.23 457.88 7.87L457.88 7.87L457.88 7.87Q457.69 7.50 457.37 7.27L457.37 7.27L457.37 7.27Q457.04 7.03 456.62 6.90L456.62 6.90L456.62 6.90Q456.20 6.78 455.74 6.78L455.74 6.78L455.74 6.78Q455.34 6.78 454.97 6.88L454.97 6.88L454.97 6.88Q454.61 6.99 454.32 7.18L454.32 7.18L454.32 7.18Q454.03 7.38 453.87 7.66L453.87 7.66L453.87 7.66Q453.70 7.95 453.70 8.33L453.70 8.33L453.70 8.41L453.70 8.41Q453.70 8.82 453.87 9.11L453.87 9.11L453.87 9.11Q454.03 9.39 454.36 9.60L454.36 9.60L454.36 9.60Q454.69 9.80 455.18 9.93L455.18 9.93L455.18 9.93Q455.67 10.07 456.33 10.16L456.33 10.16L456.33 10.16Q457.87 10.40 458.60 11.07L458.60 11.07L458.60 11.07Q459.33 11.73 459.33 12.85L459.33 12.85L459.33 13.02L459.33 13.02Q459.33 13.65 459.11 14.17L459.11 14.17L459.11 14.17Q458.89 14.70 458.46 15.08L458.46 15.08L458.46 15.08Q458.04 15.46 457.41 15.67L457.41 15.67L457.41 15.67Q456.78 15.88 455.95 15.88L455.95 15.88L455.95 15.88Q455.01 15.88 454.29 15.60L454.29 15.60L454.29 15.60Q453.57 15.33 453.09 14.85L453.09 14.85L453.09 14.85Q452.61 14.36 452.35 13.71L452.35 13.71L452.35 13.71Q452.10 13.06 452.10 12.29L452.10 12.29L452.10 11.87L453.28 11.87L453.28 12.21L453.28 12.21Q453.28 13.50 453.98 14.14L453.98 14.14L453.98 14.14Q454.69 14.78 455.95 14.78L455.95 14.78L455.95 14.78Q457.04 14.78 457.60 14.30L457.60 14.30L457.60 14.30Q458.15 13.82 458.15 13.02L458.15 13.02L458.15 12.94L458.15 12.94Q458.15 12.17 457.58 11.76L457.58 11.76L457.58 11.76Q457.02 11.35 455.74 11.17L455.74 11.17L455.74 11.17Q455.00 11.07 454.40 10.87L454.40 10.87L454.40 10.87Q453.81 10.67 453.39 10.34L453.39 10.34L453.39 10.34Q452.97 10.01 452.75 9.55L452.75 9.55L452.75 9.55Q452.52 9.09 452.52 8.46L452.52 8.46L452.52 8.29L452.52 8.29Q452.52 7.71 452.76 7.24L452.76 7.24L452.76 7.24Q453.00 6.76 453.42 6.41L453.42 6.41L453.42 6.41Q453.85 6.06 454.45 5.87L454.45 5.87L454.45 5.87Q455.04 5.68 455.76 5.68L455.76 5.68L455.76 5.68Q456.58 5.68 457.23 5.92L457.23 5.92L457.23 5.92Q457.88 6.16 458.33 6.56L458.33 6.56L458.33 6.56Q458.78 6.96 459.01 7.50L459.01 7.50L459.01 7.50Q459.24 8.04 459.24 8.62L459.24 8.62L459.24 9.21L458.07 9.21Z"></path></g></svg>