<svg data-v-fde0c5aa="" xmlns="http://www.w3.org/2000/svg" viewBox="0 0 300 300" class="font"><!----><defs data-v-fde0c5aa=""><!----></defs><rect data-v-fde0c5aa="" fill="#E0285A" x="0" y="0" width="300px" height="300px" class="logo-background-square"></rect><defs data-v-fde0c5aa=""><!----></defs><g data-v-fde0c5aa="" id="95fd3acf-27af-4f14-a4dc-2c5ce8712f0b" fill="#E68AB2" transform="matrix(2.2522522452156752,0,0,2.2522522452156752,39.0540540194209,130.84459439669087)"><path d="M3.74 12.46L3.74 12.46Q2.83 12.46 2.07 12.12L2.07 12.12L2.07 12.12Q1.32 11.77 0.87 11.10L0.87 11.10L0.87 11.10Q0.42 10.43 0.42 9.48L0.42 9.48L0.43 9.17L2.30 9.17L2.28 9.39L2.28 9.39Q2.28 10.09 2.69 10.51L2.69 10.51L2.69 10.51Q3.09 10.92 3.82 10.92L3.82 10.92L3.82 10.92Q4.56 10.92 4.92 10.59L4.92 10.59L4.92 10.59Q5.28 10.26 5.28 9.79L5.28 9.79L5.28 9.79Q5.28 9.31 5.03 9.01L5.03 9.01L5.03 9.01Q4.77 8.71 4.40 8.54L4.40 8.54L4.40 8.54Q4.03 8.37 3.36 8.15L3.36 8.15L3.36 8.15Q2.48 7.87 1.93 7.59L1.93 7.59L1.93 7.59Q1.39 7.31 1.00 6.73L1.00 6.73L1.00 6.73Q0.62 6.16 0.62 5.21L0.62 5.21L0.62 5.21Q0.62 4.34 1.05 3.73L1.05 3.73L1.05 3.73Q1.48 3.12 2.21 2.82L2.21 2.82L2.21 2.82Q2.94 2.52 3.82 2.52L3.82 2.52L3.82 2.52Q5.19 2.52 6.07 3.23L6.07 3.23L6.07 3.23Q6.94 3.93 6.94 5.35L6.94 5.35L6.94 5.52L5.11 5.52L5.11 5.39L5.11 5.39Q5.11 4.77 4.76 4.42L4.76 4.42L4.76 4.42Q4.41 4.06 3.81 4.06L3.81 4.06L3.81 4.06Q3.18 4.06 2.82 4.35L2.82 4.35L2.82 4.35Q2.46 4.63 2.46 5.08L2.46 5.08L2.46 5.08Q2.46 5.47 2.70 5.73L2.70 5.73L2.70 5.73Q2.94 5.98 3.30 6.13L3.30 6.13L3.30 6.13Q3.65 6.29 4.28 6.48L4.28 6.48L4.28 6.48Q5.19 6.78 5.75 7.05L5.75 7.05L5.75 7.05Q6.31 7.32 6.72 7.90L6.72 7.90L6.72 7.90Q7.13 8.47 7.13 9.41L7.13 9.41L7.13 9.41Q7.13 10.99 6.22 11.72L6.22 11.72L6.22 11.72Q5.32 12.46 3.74 12.46L3.74 12.46ZM11.17 12.46L11.17 12.46Q9.69 12.46 8.96 11.52L8.96 11.52L8.96 11.52Q8.23 10.58 8.23 8.61L8.23 8.61L8.23 8.61Q8.23 6.64 8.96 5.70L8.96 5.70L8.96 5.70Q9.69 4.76 11.17 4.76L11.17 4.76L11.17 4.76Q12.66 4.76 13.38 5.70L13.38 5.70L13.38 5.70Q14.11 6.64 14.11 8.61L14.11 8.61L14.11 8.61Q14.11 10.58 13.38 11.52L13.38 11.52L13.38 11.52Q12.66 12.46 11.17 12.46L11.17 12.46ZM11.17 11.05L11.17 11.05Q11.80 11.05 12.08 10.51L12.08 10.51L12.08 10.51Q12.36 9.97 12.36 8.88L12.36 8.88L12.36 8.34L12.36 8.34Q12.36 7.25 12.08 6.71L12.08 6.71L12.08 6.71Q11.80 6.17 11.17 6.17L11.17 6.17L11.17 6.17Q10.54 6.17 10.26 6.71L10.26 6.71L10.26 6.71Q9.98 7.25 9.98 8.34L9.98 8.34L9.98 8.88L9.98 8.88Q9.98 9.97 10.26 10.51L10.26 10.51L10.26 10.51Q10.54 11.05 11.17 11.05L11.17 11.05ZM17.40 12.46L17.40 12.46Q16.49 12.46 15.97 11.89L15.97 11.89L15.97 11.89Q15.44 11.33 15.44 10.09L15.44 10.09L15.44 4.93L17.12 4.93L17.12 9.63L17.12 9.63Q17.12 10.33 17.36 10.63L17.36 10.63L17.36 10.63Q17.60 10.93 18.09 10.93L18.09 10.93L18.09 10.93Q18.58 10.93 18.91 10.52L18.91 10.52L18.91 10.52Q19.24 10.11 19.24 9.49L19.24 9.49L19.24 4.93L20.92 4.93L20.92 12.29L19.52 12.29L19.35 11.38L19.26 11.38L19.26 11.38Q18.94 11.86 18.48 12.16L18.48 12.16L18.48 12.16Q18.02 12.46 17.40 12.46L17.40 12.46ZM24.29 12.46L24.29 12.46Q23.37 12.46 22.96 11.89L22.96 11.89L22.96 11.89Q22.55 11.33 22.55 10.49L22.55 10.49L22.55 6.34L21.81 6.34L21.81 4.93L22.55 4.93L22.81 2.86L24.23 2.86L24.23 4.93L25.30 4.93L25.30 6.34L24.23 6.34L24.23 10.44L24.23 10.44Q24.23 10.74 24.39 10.89L24.39 10.89L24.39 10.89Q24.54 11.05 24.82 11.05L24.82 11.05L25.30 11.05L25.30 12.29L25.30 12.29Q25.12 12.36 24.82 12.41L24.82 12.41L24.82 12.41Q24.53 12.46 24.29 12.46L24.29 12.46ZM26.28 12.29L26.28 2.17L27.96 2.17L27.96 5.71L28.01 5.71L28.01 5.71Q28.29 5.31 28.74 5.03L28.74 5.03L28.74 5.03Q29.19 4.76 29.79 4.76L29.79 4.76L29.79 4.76Q30.70 4.76 31.23 5.33L31.23 5.33L31.23 5.33Q31.75 5.89 31.75 7.13L31.75 7.13L31.75 12.29L30.07 12.29L30.07 7.59L30.07 7.59Q30.07 6.90 29.83 6.59L29.83 6.59L29.83 6.59Q29.58 6.29 29.11 6.29L29.11 6.29L29.11 6.29Q28.62 6.29 28.29 6.71L28.29 6.71L28.29 6.71Q27.96 7.14 27.96 7.76L27.96 7.76L27.96 12.29L26.28 12.29ZM36.55 12.29L36.55 2.69L42.67 2.69L42.67 4.28L38.35 4.28L38.35 6.58L42.06 6.58L42.06 8.18L38.35 8.18L38.35 10.70L42.76 10.70L42.76 12.29L36.55 12.29ZM44.14 12.29L44.14 4.93L45.54 4.93L45.71 5.84L45.79 5.84L45.79 5.84Q46.12 5.36 46.58 5.06L46.58 5.06L46.58 5.06Q47.04 4.76 47.66 4.76L47.66 4.76L47.66 4.76Q48.57 4.76 49.09 5.33L49.09 5.33L49.09 5.33Q49.62 5.89 49.62 7.13L49.62 7.13L49.62 12.29L47.94 12.29L47.94 7.59L47.94 7.59Q47.94 6.90 47.69 6.59L47.69 6.59L47.69 6.59Q47.45 6.29 46.97 6.29L46.97 6.29L46.97 6.29Q46.48 6.29 46.15 6.71L46.15 6.71L46.15 6.71Q45.82 7.14 45.82 7.76L45.82 7.76L45.82 12.29L44.14 12.29ZM53.33 12.46L53.33 12.46Q52.21 12.46 51.58 11.50L51.58 11.50L51.58 11.50Q50.96 10.54 50.96 8.60L50.96 8.60L50.96 8.60Q50.96 6.68 51.58 5.72L51.58 5.72L51.58 5.72Q52.21 4.76 53.24 4.76L53.24 4.76L53.24 4.76Q53.80 4.76 54.24 5.00L54.24 5.00L54.24 5.00Q54.68 5.25 54.88 5.68L54.88 5.68L54.95 5.68L54.95 2.17L56.63 2.17L56.63 12.29L55.23 12.29L55.06 11.38L54.99 11.38L54.99 11.38Q54.73 11.91 54.29 12.19L54.29 12.19L54.29 12.19Q53.86 12.46 53.33 12.46L53.33 12.46ZM53.83 10.93L53.83 10.93Q54.42 10.93 54.68 10.42L54.68 10.42L54.68 10.42Q54.95 9.91 54.95 8.88L54.95 8.88L54.95 8.37L54.95 8.37Q54.95 7.34 54.68 6.81L54.68 6.81L54.68 6.81Q54.42 6.29 53.83 6.29L53.83 6.29L53.83 6.29Q53.24 6.29 52.98 6.80L52.98 6.80L52.98 6.80Q52.71 7.31 52.71 8.34L52.71 8.34L52.71 8.88L52.71 8.88Q52.71 9.91 52.98 10.42L52.98 10.42L52.98 10.42Q53.24 10.93 53.83 10.93L53.83 10.93ZM61.43 12.29L61.43 2.69L64.55 2.69L64.55 2.69Q66.37 2.69 67.39 3.88L67.39 3.88L67.39 3.88Q68.40 5.07 68.40 7.35L68.40 7.35L68.40 7.35Q68.40 9.77 67.40 11.03L67.40 11.03L67.40 11.03Q66.39 12.29 64.55 12.29L64.55 12.29L61.43 12.29ZM63.22 10.70L64.39 10.70L64.39 10.70Q65.41 10.70 65.98 9.93L65.98 9.93L65.98 9.93Q66.56 9.17 66.56 7.70L66.56 7.70L66.56 7L66.56 7Q66.56 5.67 65.98 4.98L65.98 4.98L65.98 4.98Q65.41 4.28 64.39 4.28L64.39 4.28L63.22 4.28L63.22 10.70ZM72.20 12.46L72.20 12.46Q70.76 12.46 70.04 11.52L70.04 11.52L70.04 11.52Q69.31 10.57 69.31 8.61L69.31 8.61L69.31 8.61Q69.31 4.76 72.14 4.76L72.14 4.76L72.14 4.76Q73.49 4.76 74.14 5.70L74.14 5.70L74.14 5.70Q74.80 6.64 74.80 8.61L74.80 8.61L74.80 9.03L71.06 9.03L71.06 9.03Q71.08 10.07 71.34 10.58L71.34 10.58L71.34 10.58Q71.60 11.09 72.20 11.09L72.20 11.09L72.20 11.09Q72.63 11.09 72.88 10.72L72.88 10.72L72.88 10.72Q73.14 10.35 73.14 9.69L73.14 9.69L74.80 9.69L74.80 9.69Q74.80 11.06 74.09 11.76L74.09 11.76L74.09 11.76Q73.37 12.46 72.20 12.46L72.20 12.46ZM71.08 7.81L73.04 7.81L73.04 7.81Q73.04 6.13 72.14 6.13L72.14 6.13L72.14 6.13Q71.62 6.13 71.37 6.56L71.37 6.56L71.37 6.56Q71.12 6.99 71.08 7.81L71.08 7.81ZM78.40 12.46L78.40 12.46Q77.14 12.46 76.43 11.82L76.43 11.82L76.43 11.82Q75.73 11.19 75.73 10.12L75.73 10.12L75.74 9.95L77.45 9.95L77.45 10.05L77.45 10.05Q77.46 10.60 77.76 10.84L77.76 10.84L77.76 10.84Q78.05 11.09 78.46 11.09L78.46 11.09L78.46 11.09Q78.85 11.09 79.14 10.90L79.14 10.90L79.14 10.90Q79.44 10.71 79.44 10.29L79.44 10.29L79.44 10.29Q79.44 9.84 79.10 9.64L79.10 9.64L79.10 9.64Q78.76 9.44 78.04 9.24L78.04 9.24L78.04 9.24Q77.34 9.04 76.90 8.85L76.90 8.85L76.90 8.85Q76.47 8.65 76.15 8.20L76.15 8.20L76.15 8.20Q75.84 7.76 75.84 7L75.84 7L75.84 7Q75.84 5.92 76.57 5.34L76.57 5.34L76.57 5.34Q77.31 4.76 78.47 4.76L78.47 4.76L78.47 4.76Q79.55 4.76 80.26 5.30L80.26 5.30L80.26 5.30Q80.96 5.84 80.96 6.76L80.96 6.76L80.95 7.08L79.24 7.08L79.24 7.06L79.24 7.06Q79.23 6.13 78.41 6.13L78.41 6.13L78.41 6.13Q78.02 6.13 77.78 6.33L77.78 6.33L77.78 6.33Q77.55 6.52 77.55 6.86L77.55 6.86L77.55 6.86Q77.55 7.25 77.87 7.43L77.87 7.43L77.87 7.43Q78.19 7.60 78.88 7.78L78.88 7.78L78.88 7.78Q79.59 7.97 80.04 8.17L80.04 8.17L80.04 8.17Q80.49 8.37 80.82 8.83L80.82 8.83L80.82 8.83Q81.14 9.28 81.14 10.08L81.14 10.08L81.14 10.08Q81.14 12.46 78.40 12.46L78.40 12.46ZM82.40 3.70L82.40 2.17L84.08 2.17L84.08 3.70L82.40 3.70ZM82.40 12.29L82.40 4.93L84.08 4.93L84.08 12.29L82.40 12.29ZM86.69 14.84L86.69 14.84Q86.00 14.84 85.53 14.36L85.53 14.36L85.53 14.36Q85.06 13.89 85.06 13.15L85.06 13.15L85.06 13.15Q85.06 12.17 86.00 11.65L86.00 11.65L86.00 11.65Q85.41 11.28 85.41 10.54L85.41 10.54L85.41 10.54Q85.41 10.08 85.72 9.75L85.72 9.75L85.72 9.75Q86.02 9.42 86.49 9.25L86.49 9.25L86.49 9.25Q85.60 8.60 85.60 7.27L85.60 7.27L85.60 7.27Q85.60 6.10 86.30 5.43L86.30 5.43L86.30 5.43Q87.01 4.76 88.31 4.76L88.31 4.76L88.31 4.76Q89.01 4.76 89.54 4.97L89.54 4.97L89.54 4.97Q89.92 4.70 90.09 4.33L90.09 4.33L90.09 4.33Q90.26 3.96 90.26 3.70L90.26 3.70L91.64 3.70L91.64 3.70Q91.64 5.21 90.45 5.57L90.45 5.57L90.45 5.57Q91.04 6.23 91.04 7.27L91.04 7.27L91.04 7.27Q91.04 8.43 90.34 9.10L90.34 9.10L90.34 9.10Q89.63 9.77 88.31 9.77L88.31 9.77L87.61 9.77L87.61 9.77Q87.39 9.77 87.25 9.90L87.25 9.90L87.25 9.90Q87.11 10.02 87.11 10.22L87.11 10.22L87.11 10.22Q87.11 10.40 87.23 10.53L87.23 10.53L87.23 10.53Q87.36 10.65 87.54 10.65L87.54 10.65L90.09 10.65L90.09 10.65Q90.80 10.65 91.29 11.18L91.29 11.18L91.29 11.18Q91.77 11.70 91.77 12.57L91.77 12.57L91.77 12.57Q91.77 13.24 91.45 13.76L91.45 13.76L91.45 13.76Q91.14 14.28 90.59 14.56L90.59 14.56L90.59 14.56Q90.05 14.84 89.39 14.84L89.39 14.84L86.69 14.84ZM88.31 8.53L88.31 8.53Q88.83 8.53 89.10 8.20L89.10 8.20L89.10 8.20Q89.36 7.87 89.36 7.27L89.36 7.27L89.36 7.27Q89.36 6.66 89.10 6.33L89.10 6.33L89.10 6.33Q88.83 6.01 88.31 6.01L88.31 6.01L88.31 6.01Q87.81 6.01 87.54 6.33L87.54 6.33L87.54 6.33Q87.28 6.66 87.28 7.27L87.28 7.27L87.28 7.27Q87.28 7.87 87.54 8.20L87.54 8.20L87.54 8.20Q87.81 8.53 88.31 8.53L88.31 8.53ZM87.43 13.57L89.32 13.57L89.32 13.57Q89.64 13.57 89.86 13.38L89.86 13.38L89.86 13.38Q90.08 13.19 90.08 12.88L90.08 12.88L90.08 12.88Q90.08 12.57 89.88 12.39L89.88 12.39L89.88 12.39Q89.68 12.21 89.39 12.21L89.39 12.21L87.43 12.21L87.43 12.21Q87.15 12.21 86.95 12.40L86.95 12.40L86.95 12.40Q86.76 12.60 86.76 12.88L86.76 12.88L86.76 12.88Q86.76 13.19 86.95 13.38L86.95 13.38L86.95 13.38Q87.14 13.57 87.43 13.57L87.43 13.57ZM92.62 12.29L92.62 4.93L94.02 4.93L94.19 5.84L94.28 5.84L94.28 5.84Q94.60 5.36 95.06 5.06L95.06 5.06L95.06 5.06Q95.52 4.76 96.14 4.76L96.14 4.76L96.14 4.76Q97.05 4.76 97.57 5.33L97.57 5.33L97.57 5.33Q98.10 5.89 98.10 7.13L98.10 7.13L98.10 12.29L96.42 12.29L96.42 7.59L96.42 7.59Q96.42 6.90 96.17 6.59L96.17 6.59L96.17 6.59Q95.93 6.29 95.45 6.29L95.45 6.29L95.45 6.29Q94.96 6.29 94.63 6.71L94.63 6.71L94.63 6.71Q94.30 7.14 94.30 7.76L94.30 7.76L94.30 12.29L92.62 12.29Z"></path></g><!----><!----></svg>