<svg data-v-423bf9ae="" xmlns="http://www.w3.org/2000/svg" viewBox="0 0 501 95" class="iconLeftSlogan"><!----><!----><!----><g data-v-423bf9ae="" id="3eb39a92-839b-4d80-ba47-e2547537d7d5" fill="#10143A" transform="matrix(4.237288181254157,0,0,4.237288181254157,92.8312226446678,0.720339121135229)"><path d="M3.49 4.20L3.49 4.20L3.49 4.20Q3.98 4.37 4.48 4.62L4.48 4.62L4.48 4.62Q4.98 4.87 5.38 5.25L5.38 5.25L5.38 5.25Q5.78 5.63 6.03 6.15L6.03 6.15L6.03 6.15Q6.27 6.66 6.24 7.38L6.24 7.38L6.24 7.38Q6.22 7.92 6.10 8.34L6.10 8.34L6.10 8.34Q5.98 8.76 5.80 9.08L5.80 9.08L5.80 9.08Q5.61 9.39 5.40 9.61L5.40 9.61L5.40 9.61Q5.18 9.83 4.98 9.97L4.98 9.97L4.98 9.97Q4.48 10.33 3.87 10.46L3.87 10.46L3.87 10.46Q3.26 10.58 2.65 10.54L2.65 10.54L2.65 10.54Q2.03 10.49 1.44 10.29L1.44 10.29L1.44 10.29Q0.84 10.09 0.36 9.81L0.36 9.81L1.05 7.62L1.05 7.62Q1.39 7.77 1.85 7.95L1.85 7.95L1.85 7.95Q2.31 8.12 2.75 8.18L2.75 8.18L2.75 8.18Q3.19 8.23 3.53 8.10L3.53 8.10L3.53 8.10Q3.86 7.97 3.98 7.48L3.98 7.48L3.98 7.48Q4.05 7.17 3.80 6.95L3.80 6.95L3.80 6.95Q3.56 6.73 3.15 6.52L3.15 6.52L3.15 6.52Q2.74 6.31 2.25 6.05L2.25 6.05L2.25 6.05Q1.75 5.80 1.33 5.42L1.33 5.42L1.33 5.42Q0.91 5.04 0.64 4.48L0.64 4.48L0.64 4.48Q0.36 3.92 0.39 3.11L0.39 3.11L0.39 3.11Q0.43 2.06 0.94 1.38L0.94 1.38L0.94 1.38Q1.44 0.70 2.22 0.39L2.22 0.39L2.22 0.39Q3.00 0.08 3.94 0.13L3.94 0.13L3.94 0.13Q4.89 0.18 5.81 0.59L5.81 0.59L5.08 2.60L5.08 2.60Q4.84 2.51 4.45 2.41L4.45 2.41L4.45 2.41Q4.06 2.32 3.68 2.35L3.68 2.35L3.68 2.35Q3.30 2.37 3.01 2.54L3.01 2.54L3.01 2.54Q2.72 2.72 2.66 3.15L2.66 3.15L2.66 3.15Q2.60 3.53 2.87 3.79L2.87 3.79L2.87 3.79Q3.14 4.05 3.49 4.20ZM10.08 2.38L10.08 2.38L10.08 2.38Q10.71 2.38 11.24 2.55L11.24 2.55L11.24 2.55Q11.77 2.73 12.16 3.07L12.16 3.07L12.16 3.07Q12.54 3.42 12.76 3.92L12.76 3.92L12.76 3.92Q12.98 4.42 12.98 5.08L12.98 5.08L12.98 7.85L12.98 7.85Q12.98 8.51 12.76 9.02L12.76 9.02L12.76 9.02Q12.54 9.52 12.17 9.86L12.17 9.86L12.17 9.86Q11.79 10.21 11.26 10.39L11.26 10.39L11.26 10.39Q10.72 10.57 10.09 10.57L10.09 10.57L10.09 10.57Q9.45 10.57 8.92 10.39L8.92 10.39L8.92 10.39Q8.39 10.21 8.00 9.86L8.00 9.86L8.00 9.86Q7.62 9.52 7.40 9.02L7.40 9.02L7.40 9.02Q7.18 8.51 7.18 7.85L7.18 7.85L7.18 5.08L7.18 5.08Q7.18 4.42 7.40 3.92L7.40 3.92L7.40 3.92Q7.62 3.42 8.00 3.07L8.00 3.07L8.00 3.07Q8.39 2.73 8.92 2.55L8.92 2.55L8.92 2.55Q9.45 2.38 10.08 2.38ZM10.77 7.85L10.77 5.05L10.77 5.05Q10.77 4.80 10.56 4.67L10.56 4.67L10.56 4.67Q10.35 4.54 10.09 4.54L10.09 4.54L10.09 4.54Q9.83 4.54 9.62 4.67L9.62 4.67L9.62 4.67Q9.41 4.80 9.41 5.05L9.41 5.05L9.41 7.85L9.41 7.85Q9.41 8.11 9.61 8.24L9.61 8.24L9.61 8.24Q9.81 8.37 10.07 8.37L10.07 8.37L10.07 8.37Q10.32 8.37 10.54 8.25L10.54 8.25L10.54 8.25Q10.75 8.12 10.77 7.85L10.77 7.85ZM20.01 10.51L19.89 10.51L18.89 9.95L18.89 9.95Q18.51 10.22 18.12 10.37L18.12 10.37L18.12 10.37Q17.74 10.51 17.09 10.51L17.09 10.51L17.09 10.51Q16.48 10.51 15.95 10.37L15.95 10.37L15.95 10.37Q15.43 10.23 15.05 9.91L15.05 9.91L15.05 9.91Q14.67 9.59 14.46 9.07L14.46 9.07L14.46 9.07Q14.24 8.55 14.24 7.81L14.24 7.81L14.24 2.56L14.10 2.44L16.60 2.44L16.46 2.55L16.46 7.90L16.46 7.90Q16.46 8.13 16.67 8.25L16.67 8.25L16.67 8.25Q16.87 8.37 17.11 8.37L17.11 8.37L17.11 8.37Q17.36 8.37 17.56 8.25L17.56 8.25L17.56 8.25Q17.77 8.13 17.77 7.90L17.77 7.90L17.77 2.56L17.64 2.44L20.13 2.44L20.01 2.56L20.01 10.51ZM24.71 8.37L24.71 8.37L25.33 8.37L25.51 8.26L25.51 10.63L25.31 10.53L24.57 10.53L24.57 10.53Q24.16 10.53 23.77 10.46L23.77 10.46L23.77 10.46Q23.37 10.40 23.01 10.21L23.01 10.21L23.01 10.21Q22.65 10.02 22.36 9.68L22.36 9.68L22.36 9.68Q22.06 9.34 21.88 8.78L21.88 8.78L21.88 4.52L21.13 4.52L20.97 4.65L20.97 2.25L21.13 2.39L21.88 2.39L21.88 0.08L21.73-0.06L24.23-0.06L24.08 0.11L24.08 2.39L25.21 2.39L25.37 2.25L25.37 4.65L25.21 4.52L24.08 4.52L24.08 8.02L24.08 8.02Q24.15 8.18 24.32 8.28L24.32 8.28L24.32 8.28Q24.49 8.39 24.71 8.37ZM30.11 5.01L30.11 5.01L30.11 5.01Q30.11 4.83 29.99 4.70L29.99 4.70L29.99 4.70Q29.86 4.58 29.68 4.58L29.68 4.58L28.85 4.58L28.85 10.36L28.98 10.50L26.46 10.50L26.61 10.36L26.61 0.36L26.49 0.20L28.99 0.20L28.87 0.38L28.87 2.42L29.71 2.42L29.71 2.42Q30.39 2.42 30.89 2.61L30.89 2.61L30.89 2.61Q31.39 2.80 31.71 3.15L31.71 3.15L31.71 3.15Q32.03 3.50 32.19 4.00L32.19 4.00L32.19 4.00Q32.34 4.51 32.34 5.11L32.34 5.11L32.34 10.36L32.49 10.50L29.97 10.50L30.11 10.37L30.11 5.01ZM36.54 0.17L36.54 0.17L41.17 0.17L41.29 0.04L41.29 2.55L41.16 2.42L38.79 2.42L38.79 4.20L40.96 4.20L41.09 4.07L41.09 6.59L40.96 6.45L38.79 6.45L38.79 8.25L41.37 8.25L41.50 8.12L41.50 10.63L41.37 10.50L36.41 10.50L36.54 10.37L36.54 0.17ZM42.66 2.42L42.77 2.42L43.78 2.98L43.78 2.98Q43.96 2.86 44.14 2.75L44.14 2.75L44.14 2.75Q44.32 2.65 44.53 2.57L44.53 2.57L44.53 2.57Q44.74 2.49 45.00 2.46L45.00 2.46L45.00 2.46Q45.25 2.42 45.57 2.42L45.57 2.42L45.57 2.42Q46.19 2.42 46.71 2.56L46.71 2.56L46.71 2.56Q47.24 2.70 47.61 3.02L47.61 3.02L47.61 3.02Q47.99 3.35 48.21 3.86L48.21 3.86L48.21 3.86Q48.43 4.38 48.43 5.12L48.43 5.12L48.43 10.37L48.57 10.50L46.06 10.50L46.20 10.39L46.20 5.04L46.20 5.04Q46.20 4.80 46.00 4.68L46.00 4.68L46.00 4.68Q45.79 4.56 45.55 4.56L45.55 4.56L45.55 4.56Q45.30 4.56 45.10 4.68L45.10 4.68L45.10 4.68Q44.90 4.80 44.90 5.04L44.90 5.04L44.90 10.37L45.02 10.50L42.53 10.50L42.66 10.37L42.66 2.42ZM55.47 10.50L55.30 10.50L53.87 9.72L53.87 9.72Q53.38 10.22 52.91 10.38L52.91 10.38L52.91 10.38Q52.44 10.54 51.98 10.54L51.98 10.54L51.98 10.54Q50.97 10.54 50.34 9.82L50.34 9.82L50.34 9.82Q49.71 9.10 49.71 7.80L49.71 7.80L49.71 5.11L49.71 5.11Q49.71 4.51 49.87 4.00L49.87 4.00L49.87 4.00Q50.02 3.50 50.34 3.15L50.34 3.15L50.34 3.15Q50.67 2.80 51.16 2.61L51.16 2.61L51.16 2.61Q51.66 2.42 52.35 2.42L52.35 2.42L53.21 2.42L53.21 0.38L53.09 0.20L55.59 0.20L55.47 0.36L55.47 10.50ZM52.72 8.30L52.75 8.30L53.24 7.95L53.24 4.55L52.37 4.55L52.37 4.55Q52.19 4.55 52.07 4.68L52.07 4.68L52.07 4.68Q51.94 4.82 51.94 5.00L51.94 5.00L51.94 7.91L51.94 7.91Q51.94 8.08 52.02 8.18L52.02 8.18L52.02 8.18Q52.09 8.29 52.21 8.33L52.21 8.33L52.21 8.33Q52.33 8.37 52.47 8.37L52.47 8.37L52.47 8.37Q52.61 8.36 52.72 8.30L52.72 8.30ZM59.56 0.17L62.92 0.17L62.92 0.17Q63.48 0.17 63.97 0.34L63.97 0.34L63.97 0.34Q64.46 0.52 64.82 0.86L64.82 0.86L64.82 0.86Q65.18 1.20 65.39 1.71L65.39 1.71L65.39 1.71Q65.60 2.21 65.60 2.87L65.60 2.87L65.60 7.81L65.60 7.81Q65.60 8.51 65.39 9.02L65.39 9.02L65.39 9.02Q65.18 9.52 64.82 9.85L64.82 9.85L64.82 9.85Q64.46 10.18 63.97 10.34L63.97 10.34L63.97 10.34Q63.48 10.50 62.92 10.50L62.92 10.50L59.56 10.50L59.68 10.37L59.68 0.29L59.56 0.17ZM63.35 7.81L63.35 2.87L63.35 2.87Q63.35 2.67 63.22 2.55L63.22 2.55L63.22 2.55Q63.10 2.42 62.92 2.42L62.92 2.42L61.94 2.42L61.94 8.25L62.92 8.25L62.92 8.25Q63.10 8.25 63.22 8.12L63.22 8.12L63.22 8.12Q63.35 7.99 63.35 7.81L63.35 7.81ZM69.05 7.83L69.05 7.83L69.05 7.83Q69.05 8.13 69.28 8.29L69.28 8.29L69.28 8.29Q69.51 8.46 69.78 8.46L69.78 8.46L69.78 8.46Q70.06 8.47 70.29 8.32L70.29 8.32L70.29 8.32Q70.53 8.18 70.55 7.87L70.55 7.87L72.58 7.87L72.58 7.87Q72.58 8.61 72.37 9.11L72.37 9.11L72.37 9.11Q72.17 9.62 71.81 9.94L71.81 9.94L71.81 9.94Q71.44 10.26 70.93 10.40L70.93 10.40L70.93 10.40Q70.42 10.54 69.79 10.54L69.79 10.54L69.79 10.54Q68.42 10.54 67.65 9.83L67.65 9.83L67.65 9.83Q66.88 9.11 66.88 7.84L66.88 7.84L66.88 5.14L66.88 5.14Q66.88 4.58 67.03 4.08L67.03 4.08L67.03 4.08Q67.17 3.58 67.52 3.21L67.52 3.21L67.52 3.21Q67.86 2.84 68.43 2.63L68.43 2.63L68.43 2.63Q68.99 2.41 69.82 2.41L69.82 2.41L69.82 2.41Q71.13 2.41 71.85 3.04L71.85 3.04L71.85 3.04Q72.56 3.68 72.56 5.00L72.56 5.00L72.56 5.00Q72.56 5.74 72.25 6.20L72.25 6.20L72.25 6.20Q71.93 6.65 71.43 6.95L71.43 6.95L71.43 6.95Q70.92 7.25 70.29 7.44L70.29 7.44L70.29 7.44Q69.66 7.63 69.05 7.83ZM70.49 5.03L70.49 5.03L70.49 5.03Q70.49 4.76 70.27 4.63L70.27 4.63L70.27 4.63Q70.04 4.49 69.77 4.49L69.77 4.49L69.77 4.49Q69.50 4.49 69.27 4.62L69.27 4.62L69.27 4.62Q69.05 4.75 69.05 4.98L69.05 4.98L69.05 5.77L69.05 5.77Q69.52 5.68 69.81 5.60L69.81 5.60L69.81 5.60Q70.10 5.52 70.25 5.43L70.25 5.43L70.25 5.43Q70.41 5.35 70.45 5.25L70.45 5.25L70.45 5.25Q70.49 5.15 70.49 5.03ZM75.82 5.24L75.82 5.24L75.82 5.24Q76.09 5.35 76.57 5.54L76.57 5.54L76.57 5.54Q77.06 5.73 77.53 6.06L77.53 6.06L77.53 6.06Q77.99 6.40 78.32 6.89L78.32 6.89L78.32 6.89Q78.65 7.38 78.61 8.09L78.61 8.09L78.61 8.09Q78.57 8.82 78.32 9.32L78.32 9.32L78.32 9.32Q78.06 9.81 77.67 10.11L77.67 10.11L77.67 10.11Q77.27 10.40 76.77 10.51L76.77 10.51L76.77 10.51Q76.27 10.61 75.73 10.57L75.73 10.57L75.73 10.57Q75.28 10.54 74.67 10.42L74.67 10.42L74.67 10.42Q74.06 10.30 73.44 9.98L73.44 9.98L74.12 7.85L74.12 7.85Q74.31 7.97 74.59 8.06L74.59 8.06L74.59 8.06Q74.87 8.15 75.17 8.22L75.17 8.22L75.17 8.22Q75.46 8.29 75.75 8.33L75.75 8.33L75.75 8.33Q76.05 8.37 76.27 8.37L76.27 8.37L76.27 8.37Q76.43 8.12 76.36 7.80L76.36 7.80L76.36 7.80Q76.17 7.71 75.89 7.59L75.89 7.59L75.89 7.59Q75.60 7.48 75.29 7.31L75.29 7.31L75.29 7.31Q74.97 7.14 74.66 6.90L74.66 6.90L74.66 6.90Q74.34 6.66 74.10 6.36L74.10 6.36L74.10 6.36Q73.86 6.05 73.73 5.65L73.73 5.65L73.73 5.65Q73.60 5.25 73.64 4.75L73.64 4.75L73.64 4.75Q73.68 4.31 73.80 3.98L73.80 3.98L73.80 3.98Q73.92 3.64 74.09 3.40L74.09 3.40L74.09 3.40Q74.26 3.16 74.45 3.00L74.45 3.00L74.45 3.00Q74.63 2.83 74.82 2.73L74.82 2.73L74.82 2.73Q75.28 2.45 75.82 2.40L75.82 2.40L75.82 2.40Q76.37 2.35 76.87 2.43L76.87 2.43L76.87 2.43Q77.36 2.51 77.76 2.63L77.76 2.63L77.76 2.63Q78.15 2.76 78.33 2.84L78.33 2.84L77.46 4.91L77.46 4.91Q77.35 4.87 77.15 4.82L77.15 4.82L77.15 4.82Q76.96 4.76 76.75 4.72L76.75 4.72L76.75 4.72Q76.54 4.68 76.33 4.64L76.33 4.64L76.33 4.64Q76.12 4.61 75.99 4.61L75.99 4.61L75.99 4.61Q75.94 4.61 75.88 4.68L75.88 4.68L75.88 4.68Q75.82 4.76 75.79 4.87L75.79 4.87L75.79 4.87Q75.75 4.97 75.75 5.08L75.75 5.08L75.75 5.08Q75.75 5.18 75.82 5.24ZM82.07 10.50L79.53 10.50L79.66 10.37L79.66 2.80L79.53 2.67L82.07 2.67L81.94 2.80L81.94 10.37L82.07 10.50ZM79.45 1.04L79.45 1.04L79.45 1.04Q79.45 0.63 79.65 0.36L79.65 0.36L79.65 0.36Q79.84 0.10 80.13-0.04L80.13-0.04L80.13-0.04Q80.42-0.17 80.76-0.17L80.76-0.17L80.76-0.17Q81.10-0.17 81.39-0.04L81.39-0.04L81.39-0.04Q81.68 0.10 81.87 0.36L81.87 0.36L81.87 0.36Q82.07 0.63 82.07 1.04L82.07 1.04L82.07 1.04Q82.07 1.43 81.87 1.70L81.87 1.70L81.87 1.70Q81.68 1.97 81.39 2.10L81.39 2.10L81.39 2.10Q81.10 2.23 80.76 2.23L80.76 2.23L80.76 2.23Q80.42 2.24 80.13 2.10L80.13 2.10L80.13 2.10Q79.84 1.96 79.65 1.70L79.65 1.70L79.65 1.70Q79.45 1.44 79.45 1.04ZM88.86 2.44L89.03 2.44L89.03 12.39L89.03 12.39Q88.58 13.16 87.93 13.57L87.93 13.57L87.93 13.57Q87.28 13.99 86.42 13.99L86.42 13.99L86.42 13.99Q86.04 13.99 85.67 13.94L85.67 13.94L85.67 13.94Q85.29 13.89 84.90 13.75L84.90 13.75L84.90 13.75Q84.50 13.62 84.10 13.38L84.10 13.38L84.10 13.38Q83.69 13.13 83.24 12.74L83.24 12.74L84.38 11.07L84.38 11.07Q84.84 11.45 85.24 11.62L85.24 11.62L85.24 11.62Q85.64 11.79 85.95 11.82L85.95 11.82L85.95 11.82Q86.25 11.84 86.47 11.78L86.47 11.78L86.47 11.78Q86.69 11.72 86.80 11.63L86.80 11.63L86.81 10.50L86.81 10.50Q86.74 10.51 86.60 10.51L86.60 10.51L86.60 10.51Q86.46 10.51 86.31 10.51L86.31 10.51L85.92 10.51L85.92 10.51Q85.36 10.51 84.87 10.35L84.87 10.35L84.87 10.35Q84.38 10.18 84.01 9.84L84.01 9.84L84.01 9.84Q83.65 9.51 83.44 9.01L83.44 9.01L83.44 9.01Q83.23 8.51 83.23 7.84L83.23 7.84L83.23 5.17L83.23 5.17Q83.23 4.54 83.44 4.02L83.44 4.02L83.44 4.02Q83.65 3.51 84.01 3.16L84.01 3.16L84.01 3.16Q84.38 2.81 84.87 2.63L84.87 2.63L84.87 2.63Q85.36 2.44 85.92 2.44L85.92 2.44L86.32 2.44L86.32 2.44Q86.77 2.44 87.16 2.60L87.16 2.60L87.16 2.60Q87.56 2.76 87.89 3.00L87.89 3.00L88.86 2.44ZM85.92 8.36L86.81 8.36L86.81 4.58L85.92 4.58L85.92 4.58Q85.72 4.58 85.60 4.70L85.60 4.70L85.60 4.70Q85.47 4.83 85.47 5.03L85.47 5.03L85.47 7.92L85.47 7.92Q85.47 8.11 85.60 8.23L85.60 8.23L85.60 8.23Q85.72 8.36 85.92 8.36L85.92 8.36ZM90.40 2.42L90.51 2.42L91.52 2.98L91.52 2.98Q91.70 2.86 91.88 2.75L91.88 2.75L91.88 2.75Q92.06 2.65 92.27 2.57L92.27 2.57L92.27 2.57Q92.48 2.49 92.74 2.46L92.74 2.46L92.74 2.46Q92.99 2.42 93.31 2.42L93.31 2.42L93.31 2.42Q93.93 2.42 94.45 2.56L94.45 2.56L94.45 2.56Q94.98 2.70 95.35 3.02L95.35 3.02L95.35 3.02Q95.73 3.35 95.95 3.86L95.95 3.86L95.95 3.86Q96.17 4.38 96.17 5.12L96.17 5.12L96.17 10.37L96.31 10.50L93.80 10.50L93.94 10.39L93.94 5.04L93.94 5.04Q93.94 4.80 93.74 4.68L93.74 4.68L93.74 4.68Q93.53 4.56 93.29 4.56L93.29 4.56L93.29 4.56Q93.04 4.56 92.84 4.68L92.84 4.68L92.84 4.68Q92.64 4.80 92.64 5.04L92.64 5.04L92.64 10.37L92.76 10.50L90.27 10.50L90.40 10.37L90.40 2.42Z"></path></g><!----><g data-v-423bf9ae="" id="6e79a5a9-ee27-4848-af93-bcf75db29e19" transform="matrix(1.0249444749620227,0,0,1.0249444749620227,-13.520709770293294,-3.369737658145141)" stroke="none" fill="#10143A"><path d="M57.484 24.356a8.346 8.346 0 0 0-.037-.388c2.434-2.098 3.985-5.197 3.985-8.657 0-6.305-5.129-11.433-11.434-11.433-6.306 0-11.435 5.128-11.435 11.433 0 3.458 1.549 6.555 3.981 8.653a8.43 8.43 0 0 0-.038.393c-16.417 3.463-28.78 18.06-28.78 35.493 0 20.002 16.272 36.273 36.273 36.273 20.003 0 36.274-16.271 36.274-36.273 0-17.436-12.367-32.034-28.789-35.494zm-15.26-9.044c0-4.287 3.487-7.774 7.775-7.774 4.287 0 7.775 3.487 7.775 7.774a7.738 7.738 0 0 1-1.839 5.01 7.498 7.498 0 0 0-11.876-.004 7.731 7.731 0 0 1-1.835-5.006zm10.518 75.194v-3.584a2.744 2.744 0 1 0-5.487 0v3.584c-14.789-1.314-26.6-13.123-27.913-27.91h2.737a2.745 2.745 0 0 0 0-5.488h-2.737c1.313-14.791 13.124-26.601 27.913-27.915v2.722a2.744 2.744 0 1 0 5.487 0v-2.722c14.79 1.312 26.6 13.124 27.914 27.915h-2.738a2.744 2.744 0 1 0 0 5.488h2.738c-1.314 14.789-13.124 26.597-27.914 27.91z"></path><path d="M39.343 80.205L56.134 62.76l4.519-24.226-16.787 17.445-4.523 24.226zm15.479-30.273l-2.047 10.971-5.559-3.07 7.606-7.901z"></path></g><!----><g data-v-423bf9ae="" id="12cd404f-f8bf-4e15-a0f2-93f2d4a1ab9e" fill="#10143A" transform="matrix(0.630545447449051,0,0,0.630545447449051,94.02876020089045,58.27230380006204)"><path d="M0.76 3.64L0.52 3.64L0.52 3.08L3.62 3.08L3.61 3.64L3.30 3.64L3.30 3.64Q2.47 3.64 2.47 3.94L2.47 3.94L2.47 3.94Q2.47 4.03 2.51 4.09L2.51 4.09L4.93 10.76L7.24 4.85L7.14 4.57L7.14 4.57Q7.11 4.52 7.09 4.44L7.09 4.44L7.09 4.44Q7.07 4.36 7.05 4.31L7.05 4.31L7.05 4.31Q7.03 4.25 7.01 4.22L7.01 4.22L7.01 4.22Q6.99 4.16 6.89 3.96L6.89 3.96L6.89 3.96Q6.81 3.80 6.69 3.71L6.69 3.71L6.69 3.71Q6.61 3.64 6.44 3.64L6.44 3.64L5.76 3.64L5.76 3.08L9.08 3.08L9.08 3.64L8.35 3.64L8.35 3.64Q8.11 3.64 8.05 3.68L8.05 3.68L8.05 3.68Q7.98 3.72 7.98 3.86L7.98 3.86L7.98 3.86Q7.98 4.00 8.23 4.76L8.23 4.76L10.27 10.72L12.77 4.18L12.77 4.18Q12.82 4.01 12.82 3.94L12.82 3.94L12.82 3.94Q12.82 3.75 12.65 3.69L12.65 3.69L12.65 3.69Q12.50 3.64 12.14 3.64L12.14 3.64L11.77 3.64L11.77 3.08L14.17 3.08L14.18 3.64L14.01 3.64L14.01 3.64Q13.67 3.64 13.57 3.77L13.57 3.77L13.57 3.77Q13.45 3.96 13.20 4.60L13.20 4.60L10.11 12.64L9.87 12.64L7.49 5.64L4.77 12.63L4.55 12.63L1.58 4.52L1.58 4.52Q1.37 3.96 1.20 3.79L1.20 3.79L1.20 3.79Q1.05 3.63 0.76 3.64L0.76 3.64ZM21.93 3.64L21.92 3.08L29.13 3.08L29.13 3.08Q29.14 4.14 29.20 5.28L29.20 5.28L28.65 5.30L28.65 5.30Q28.64 4.66 28.58 4.25L28.58 4.25L28.58 4.25Q28.54 3.89 28.49 3.80L28.49 3.80L28.49 3.80Q28.43 3.71 28.31 3.69L28.31 3.69L28.31 3.69Q28.22 3.68 27.63 3.68L27.63 3.68L25.25 3.68L25.25 3.68Q24.71 3.68 24.56 3.77L24.56 3.77L24.56 3.77Q24.44 3.86 24.44 4.33L24.44 4.33L24.44 6.28L24.44 6.28Q24.44 6.69 24.49 6.76L24.49 6.76L24.49 6.76Q24.56 6.84 24.90 6.84L24.90 6.84L27.02 6.84L27.02 6.84Q27.38 6.84 27.46 6.73L27.46 6.73L27.46 6.73Q27.54 6.63 27.55 6.14L27.55 6.14L27.55 5.61L28.06 5.63L28.06 8.97L27.55 8.97L27.55 8.24L27.55 8.24Q27.55 7.66 27.47 7.57L27.47 7.57L27.47 7.57Q27.39 7.46 27.04 7.46L27.04 7.46L24.94 7.46L24.94 7.46Q24.61 7.46 24.52 7.54L24.52 7.54L24.52 7.54Q24.44 7.63 24.44 7.89L24.44 7.89L24.44 11.20L24.44 11.20Q24.44 11.57 24.52 11.67L24.52 11.67L24.52 11.67Q24.61 11.77 24.88 11.77L24.88 11.77L24.88 11.77Q27.80 11.75 28.33 11.69L28.33 11.69L28.33 11.69Q28.85 11.63 28.93 11.38L28.93 11.38L28.94 11.36L28.94 11.35L29.17 10.17L29.65 10.25L29.30 12.41L22.20 12.41L22.20 11.87L22.57 11.87L22.57 11.87Q23.13 11.87 23.21 11.80L23.21 11.80L23.21 11.80Q23.30 11.72 23.30 11.33L23.30 11.33L23.30 4.24L23.30 4.24Q23.30 3.82 23.15 3.73L23.15 3.73L23.15 3.73Q22.98 3.64 22.33 3.64L22.33 3.64L21.93 3.64ZM37.92 3.64L37.52 3.64L37.55 3.08L40.65 3.08L40.65 3.08Q42.39 3.08 43.17 3.75L43.17 3.75L43.17 3.75Q43.94 4.42 43.93 5.37L43.93 5.37L43.93 5.37Q43.93 6.08 43.40 6.60L43.40 6.60L43.40 6.60Q42.84 7.14 42.14 7.35L42.14 7.35L42.14 7.35Q43.22 7.57 43.76 8.34L43.76 8.34L43.76 8.34Q44.28 9.08 44.27 10.01L44.27 10.01L44.27 10.01Q44.27 11.01 43.64 11.59L43.64 11.59L43.64 11.59Q43.04 12.13 42.09 12.28L42.09 12.28L42.09 12.28Q41.17 12.41 39.62 12.41L39.62 12.41L37.64 12.41L37.64 11.87L38.06 11.87L38.06 11.87Q38.42 11.87 38.53 11.80L38.53 11.80L38.53 11.80Q38.64 11.73 38.64 11.46L38.64 11.46L38.64 4.14L38.64 4.14Q38.64 3.81 38.49 3.72L38.49 3.72L38.49 3.72Q38.36 3.64 37.92 3.64L37.92 3.64ZM39.75 7.59L39.75 7.59L39.78 11.35L39.78 11.35Q39.78 11.63 39.95 11.71L39.95 11.71L39.95 11.71Q40.11 11.80 40.69 11.80L40.69 11.80L40.69 11.80Q42.94 11.80 42.94 9.91L42.94 9.91L42.94 9.91Q42.94 9.22 42.62 8.73L42.62 8.73L42.62 8.73Q42.31 8.24 41.78 8.02L41.78 8.02L41.78 8.02Q41.19 7.75 40.76 7.68L40.76 7.68L40.76 7.68Q40.28 7.59 39.75 7.59ZM39.78 4.01L39.78 7.19L41.15 7.19L41.15 7.19Q41.81 7.19 42.23 6.66L42.23 6.66L42.23 6.66Q42.63 6.15 42.64 5.54L42.64 5.54L42.64 5.54Q42.64 4.85 42.05 4.27L42.05 4.27L42.05 4.27Q41.47 3.69 40.20 3.69L40.20 3.69L40.20 3.69Q39.78 3.69 39.78 4.01L39.78 4.01ZM61.93 3.64L61.89 3.08L65.67 3.08L65.67 3.08Q66.99 3.08 67.85 3.19L67.85 3.19L67.85 3.19Q68.67 3.29 69.36 3.69L69.36 3.69L69.36 3.69Q70.31 4.27 70.82 5.24L70.82 5.24L70.82 5.24Q71.31 6.21 71.31 7.39L71.31 7.39L71.31 7.39Q71.31 8.05 71.17 8.65L71.17 8.65L71.17 8.65Q71.01 9.29 70.62 9.98L70.62 9.98L70.62 9.98Q70.19 10.73 69.63 11.21L69.63 11.21L69.63 11.21Q69.00 11.76 68.03 12.08L68.03 12.08L68.03 12.08Q67.03 12.41 65.75 12.41L65.75 12.41L62.14 12.41L62.13 11.87L62.50 11.87L62.50 11.87Q63.02 11.87 63.12 11.79L63.12 11.79L63.12 11.79Q63.23 11.70 63.23 11.25L63.23 11.25L63.23 4.14L63.23 4.14Q63.23 3.77 63.14 3.71L63.14 3.71L63.14 3.71Q63.03 3.64 62.51 3.64L62.51 3.64L61.93 3.64ZM64.37 4.39L64.37 11.22L64.37 11.22Q64.37 11.67 64.53 11.77L64.53 11.77L64.53 11.77Q64.69 11.87 65.56 11.87L65.56 11.87L65.56 11.87Q66.61 11.87 67.40 11.61L67.40 11.61L67.40 11.61Q68.26 11.35 68.69 10.99L68.69 10.99L68.69 10.99Q69.19 10.58 69.49 10.05L69.49 10.05L69.49 10.05Q69.79 9.52 69.92 8.96L69.92 8.96L69.92 8.96Q70.05 8.41 70.05 7.82L70.05 7.82L70.05 7.82Q70.05 7.03 69.78 6.34L69.78 6.34L69.78 6.34Q69.51 5.65 68.99 5.05L68.99 5.05L68.99 5.05Q68.46 4.46 67.55 4.09L67.55 4.09L67.55 4.09Q66.62 3.73 65.46 3.73L65.46 3.73L64.94 3.73L64.94 3.73Q64.58 3.73 64.48 3.85L64.48 3.85L64.48 3.85Q64.37 3.99 64.37 4.39L64.37 4.39ZM79.30 3.64L79.28 3.08L86.50 3.08L86.50 3.08Q86.51 4.14 86.56 5.28L86.56 5.28L86.02 5.30L86.02 5.30Q86.00 4.66 85.95 4.25L85.95 4.25L85.95 4.25Q85.91 3.89 85.85 3.80L85.85 3.80L85.85 3.80Q85.80 3.71 85.68 3.69L85.68 3.69L85.68 3.69Q85.59 3.68 85.00 3.68L85.00 3.68L82.62 3.68L82.62 3.68Q82.07 3.68 81.93 3.77L81.93 3.77L81.93 3.77Q81.81 3.86 81.81 4.33L81.81 4.33L81.81 6.28L81.81 6.28Q81.81 6.69 81.86 6.76L81.86 6.76L81.86 6.76Q81.93 6.84 82.27 6.84L82.27 6.84L84.38 6.84L84.38 6.84Q84.75 6.84 84.83 6.73L84.83 6.73L84.83 6.73Q84.91 6.63 84.92 6.14L84.92 6.14L84.92 5.61L85.43 5.63L85.43 8.97L84.92 8.97L84.92 8.24L84.92 8.24Q84.92 7.66 84.84 7.57L84.84 7.57L84.84 7.57Q84.76 7.46 84.41 7.46L84.41 7.46L82.31 7.46L82.31 7.46Q81.98 7.46 81.89 7.54L81.89 7.54L81.89 7.54Q81.81 7.63 81.81 7.89L81.81 7.89L81.81 11.20L81.81 11.20Q81.81 11.57 81.89 11.67L81.89 11.67L81.89 11.67Q81.98 11.77 82.25 11.77L82.25 11.77L82.25 11.77Q85.17 11.75 85.70 11.69L85.70 11.69L85.70 11.69Q86.21 11.63 86.30 11.38L86.30 11.38L86.30 11.36L86.31 11.35L86.54 10.17L87.01 10.25L86.67 12.41L79.56 12.41L79.56 11.87L79.93 11.87L79.93 11.87Q80.49 11.87 80.58 11.80L80.58 11.80L80.58 11.80Q80.67 11.72 80.67 11.33L80.67 11.33L80.67 4.24L80.67 4.24Q80.67 3.82 80.52 3.73L80.52 3.73L80.52 3.73Q80.35 3.64 79.69 3.64L79.69 3.64L79.30 3.64ZM95.38 3.64L94.89 3.64L94.89 3.08L98.40 3.08L98.39 3.64L97.65 3.64L97.65 3.64Q97.32 3.64 97.32 3.82L97.32 3.82L97.32 3.82Q97.32 3.98 97.51 4.48L97.51 4.48L100.11 10.94L103.05 4.18L103.05 4.18Q103.12 3.97 103.13 3.92L103.13 3.92L103.13 3.92Q103.13 3.79 103.03 3.74L103.03 3.74L103.03 3.74Q102.93 3.68 102.79 3.65L102.79 3.65L102.79 3.65Q102.70 3.64 102.44 3.64L102.44 3.64L101.99 3.64L101.96 3.08L104.80 3.08L104.77 3.64L104.37 3.64L104.37 3.64Q104.05 3.64 103.89 3.83L103.89 3.83L103.89 3.83Q103.81 3.93 103.35 4.94L103.35 4.94L103.35 4.94Q103.13 5.46 103.07 5.57L103.07 5.57L99.93 12.63L99.70 12.63L96.45 4.73L96.45 4.73Q96.13 3.93 95.98 3.79L95.98 3.79L95.98 3.79Q95.83 3.63 95.38 3.64L95.38 3.64ZM112.55 3.64L112.54 3.08L119.75 3.08L119.75 3.08Q119.77 4.14 119.82 5.28L119.82 5.28L119.27 5.30L119.27 5.30Q119.26 4.66 119.21 4.25L119.21 4.25L119.21 4.25Q119.16 3.89 119.11 3.80L119.11 3.80L119.11 3.80Q119.05 3.71 118.94 3.69L118.94 3.69L118.94 3.69Q118.84 3.68 118.25 3.68L118.25 3.68L115.88 3.68L115.88 3.68Q115.33 3.68 115.19 3.77L115.19 3.77L115.19 3.77Q115.06 3.86 115.06 4.33L115.06 4.33L115.06 6.28L115.06 6.28Q115.06 6.69 115.12 6.76L115.12 6.76L115.12 6.76Q115.19 6.84 115.53 6.84L115.53 6.84L117.64 6.84L117.64 6.84Q118.00 6.84 118.08 6.73L118.08 6.73L118.08 6.73Q118.17 6.63 118.17 6.14L118.17 6.14L118.17 5.61L118.69 5.63L118.69 8.97L118.17 8.97L118.17 8.24L118.17 8.24Q118.17 7.66 118.10 7.57L118.10 7.57L118.10 7.57Q118.02 7.46 117.67 7.46L117.67 7.46L115.57 7.46L115.57 7.46Q115.23 7.46 115.15 7.54L115.15 7.54L115.15 7.54Q115.06 7.63 115.06 7.89L115.06 7.89L115.06 11.20L115.06 11.20Q115.06 11.57 115.15 11.67L115.15 11.67L115.15 11.67Q115.23 11.77 115.51 11.77L115.51 11.77L115.51 11.77Q118.43 11.75 118.95 11.69L118.95 11.69L118.95 11.69Q119.47 11.63 119.55 11.38L119.55 11.38L119.56 11.36L119.57 11.35L119.79 10.17L120.27 10.25L119.92 12.41L112.82 12.41L112.82 11.87L113.19 11.87L113.19 11.87Q113.75 11.87 113.83 11.80L113.83 11.80L113.83 11.80Q113.93 11.72 113.93 11.33L113.93 11.33L113.93 4.24L113.93 4.24Q113.93 3.82 113.78 3.73L113.78 3.73L113.78 3.73Q113.61 3.64 112.95 3.64L112.95 3.64L112.55 3.64ZM128.64 3.64L128.15 3.64L128.16 3.08L131.75 3.08L131.75 3.64L131.11 3.64L131.11 3.64Q130.74 3.64 130.62 3.72L130.62 3.72L130.62 3.72Q130.51 3.80 130.51 4.16L130.51 4.16L130.51 11.22L130.51 11.22Q130.51 11.57 130.60 11.67L130.60 11.67L130.60 11.67Q130.68 11.77 130.98 11.77L130.98 11.77L130.98 11.77Q133.85 11.74 134.50 11.63L134.50 11.63L134.50 11.63Q134.72 11.61 134.80 11.39L134.80 11.39L134.80 11.39Q134.88 11.17 135.08 10.05L135.08 10.05L135.57 10.08L135.11 12.41L128.34 12.41L128.33 11.87L128.72 11.87L128.72 11.87Q129.23 11.87 129.29 11.80L129.29 11.80L129.29 11.80Q129.38 11.72 129.38 11.33L129.38 11.33L129.38 4.09L129.38 4.09Q129.38 3.80 129.23 3.72L129.23 3.72L129.23 3.72Q129.08 3.64 128.64 3.64L128.64 3.64ZM143.68 7.83L143.68 7.83L143.68 7.83Q143.68 6.62 144.09 5.68L144.09 5.68L144.09 5.68Q144.50 4.72 145.20 4.12L145.20 4.12L145.20 4.12Q145.89 3.51 146.75 3.19L146.75 3.19L146.75 3.19Q147.59 2.88 148.54 2.88L148.54 2.88L148.54 2.88Q149.80 2.88 150.85 3.40L150.85 3.40L150.85 3.40Q151.93 3.93 152.64 5.07L152.64 5.07L152.64 5.07Q153.34 6.17 153.34 7.75L153.34 7.75L153.34 7.75Q153.34 8.70 153.04 9.54L153.04 9.54L153.04 9.54Q152.73 10.38 152.12 11.10L152.12 11.10L152.12 11.10Q151.52 11.81 150.58 12.22L150.58 12.22L150.58 12.22Q149.62 12.63 148.43 12.64L148.43 12.64L148.43 12.64Q147.29 12.64 146.36 12.23L146.36 12.23L146.36 12.23Q145.42 11.83 144.86 11.14L144.86 11.14L144.86 11.14Q144.29 10.45 143.99 9.60L143.99 9.60L143.99 9.60Q143.68 8.72 143.68 7.83ZM144.94 7.38L144.94 7.38L144.94 7.38Q144.94 8.52 145.37 9.60L145.37 9.60L145.37 9.60Q145.78 10.64 146.71 11.33L146.71 11.33L146.71 11.33Q147.62 12.03 148.80 12.04L148.80 12.04L148.80 12.04Q150.18 12.04 151.12 11.01L151.12 11.01L151.12 11.01Q152.07 9.97 152.07 8.10L152.07 8.10L152.07 8.10Q152.07 5.99 150.90 4.72L150.90 4.72L150.90 4.72Q149.75 3.46 148.24 3.45L148.24 3.45L148.24 3.45Q147.72 3.45 147.18 3.65L147.18 3.65L147.18 3.65Q146.64 3.85 146.13 4.25L146.13 4.25L146.13 4.25Q145.58 4.68 145.26 5.48L145.26 5.48L145.26 5.48Q144.94 6.27 144.94 7.38ZM165.18 12.41L161.46 12.41L161.46 11.87L161.90 11.87L161.90 11.87Q162.27 11.87 162.33 11.81L162.33 11.81L162.33 11.81Q162.39 11.74 162.40 11.46L162.40 11.46L162.40 4.14L162.40 4.14Q162.40 3.81 162.32 3.72L162.32 3.72L162.32 3.72Q162.23 3.64 161.87 3.64L161.87 3.64L161.50 3.64L161.51 3.08L164.40 3.08L164.40 3.08Q165.55 3.08 166.20 3.19L166.20 3.19L166.20 3.19Q166.80 3.28 167.27 3.68L167.27 3.68L167.27 3.68Q168.46 4.64 168.46 6.19L168.46 6.19L168.46 6.19Q168.46 7.23 167.69 7.98L167.69 7.98L167.69 7.98Q166.91 8.74 165.50 8.73L165.50 8.73L165.50 8.73Q165.33 8.73 164.92 8.70L164.92 8.70L164.92 8.70Q164.81 8.69 164.38 8.62L164.38 8.62L164.38 8.62Q164.05 8.55 163.95 8.54L163.95 8.54L163.95 8.54Q163.66 8.47 163.65 8.46L163.65 8.46L163.53 8.44L163.53 11.46L163.53 11.46Q163.53 11.74 163.66 11.81L163.66 11.81L163.66 11.81Q163.77 11.87 164.49 11.87L164.49 11.87L165.18 11.87L165.18 12.41ZM163.53 4.28L163.53 8.02L163.53 8.02Q163.88 8.29 164.85 8.29L164.85 8.29L164.85 8.29Q165.98 8.29 166.56 7.75L166.56 7.75L166.56 7.75Q167.15 7.21 167.15 6.16L167.15 6.16L167.15 6.16Q167.15 4.98 166.24 4.31L166.24 4.31L166.24 4.31Q165.34 3.64 163.95 3.64L163.95 3.64L163.95 3.64Q163.70 3.64 163.62 3.75L163.62 3.75L163.62 3.75Q163.54 3.84 163.53 4.28L163.53 4.28ZM179.60 12.41L176.58 12.41L176.58 11.87L176.72 11.87L176.72 11.87Q177.30 11.87 177.42 11.77L177.42 11.77L177.42 11.77Q177.54 11.68 177.56 11.21L177.56 11.21L177.69 4.38L177.69 4.38Q177.69 4.35 177.69 4.28L177.69 4.28L177.69 4.28Q177.70 4.21 177.70 4.17L177.70 4.17L177.70 4.01L177.70 4.01Q177.70 3.76 177.63 3.71L177.63 3.71L177.63 3.71Q177.53 3.64 177.30 3.64L177.30 3.64L176.59 3.64L176.58 3.08L178.69 3.08L181.88 10.55L185.02 3.08L187.26 3.08L187.26 3.64L186.79 3.64L186.79 3.64Q186.33 3.64 186.21 3.71L186.21 3.71L186.21 3.71Q186.05 3.79 186.05 4.08L186.05 4.08L186.05 11.22L186.05 11.22Q186.05 11.68 186.17 11.77L186.17 11.77L186.17 11.77Q186.28 11.87 186.91 11.87L186.91 11.87L187.19 11.87L187.20 12.41L183.80 12.41L183.78 11.87L184.06 11.87L184.06 11.87Q184.68 11.87 184.80 11.77L184.80 11.77L184.80 11.77Q184.92 11.66 184.92 11.25L184.92 11.25L184.92 4.83L182.77 9.91L181.91 12.02L181.91 12.02Q181.77 12.37 181.73 12.44L181.73 12.44L181.73 12.44Q181.69 12.51 181.62 12.51L181.62 12.51L181.62 12.51Q181.52 12.51 181.07 11.52L181.07 11.52L178.26 5.01L178.20 11.39L178.20 11.39Q178.20 11.74 178.40 11.80L178.40 11.80L178.40 11.80Q178.64 11.87 179.60 11.87L179.60 11.87L179.60 12.41ZM194.94 3.64L194.93 3.08L202.14 3.08L202.14 3.08Q202.15 4.14 202.21 5.28L202.21 5.28L201.66 5.30L201.66 5.30Q201.65 4.66 201.59 4.25L201.59 4.25L201.59 4.25Q201.55 3.89 201.50 3.80L201.50 3.80L201.50 3.80Q201.44 3.71 201.33 3.69L201.33 3.69L201.33 3.69Q201.23 3.68 200.64 3.68L200.64 3.68L198.26 3.68L198.26 3.68Q197.72 3.68 197.57 3.77L197.57 3.77L197.57 3.77Q197.45 3.86 197.45 4.33L197.45 4.33L197.45 6.28L197.45 6.28Q197.45 6.69 197.50 6.76L197.50 6.76L197.50 6.76Q197.57 6.84 197.91 6.84L197.91 6.84L200.03 6.84L200.03 6.84Q200.39 6.84 200.47 6.73L200.47 6.73L200.47 6.73Q200.55 6.63 200.56 6.14L200.56 6.14L200.56 5.61L201.07 5.63L201.07 8.97L200.56 8.97L200.56 8.24L200.56 8.24Q200.56 7.66 200.48 7.57L200.48 7.57L200.48 7.57Q200.40 7.46 200.05 7.46L200.05 7.46L197.96 7.46L197.96 7.46Q197.62 7.46 197.53 7.54L197.53 7.54L197.53 7.54Q197.45 7.63 197.45 7.89L197.45 7.89L197.45 11.20L197.45 11.20Q197.45 11.57 197.53 11.67L197.53 11.67L197.53 11.67Q197.62 11.77 197.89 11.77L197.89 11.77L197.89 11.77Q200.81 11.75 201.34 11.69L201.34 11.69L201.34 11.69Q201.86 11.63 201.94 11.38L201.94 11.38L201.95 11.36L201.95 11.35L202.18 10.17L202.66 10.25L202.31 12.41L195.21 12.41L195.21 11.87L195.58 11.87L195.58 11.87Q196.14 11.87 196.22 11.80L196.22 11.80L196.22 11.80Q196.31 11.72 196.31 11.33L196.31 11.33L196.31 4.24L196.31 4.24Q196.31 3.82 196.16 3.73L196.16 3.73L196.16 3.73Q195.99 3.64 195.34 3.64L195.34 3.64L194.94 3.64ZM210.55 3.64L210.53 3.08L212.71 3.08L218.44 10.48L218.44 4.14L218.44 4.14Q218.44 3.81 218.29 3.72L218.29 3.72L218.29 3.72Q218.13 3.64 217.68 3.64L217.68 3.64L217.18 3.64L217.21 3.08L220.19 3.08L220.19 3.64L219.87 3.64L219.87 3.64Q219.41 3.64 219.26 3.75L219.26 3.75L219.26 3.75Q219.11 3.86 219.11 4.25L219.11 4.25L219.11 12.32L219.11 12.47L219.11 12.47Q219.11 12.52 219.09 12.57L219.09 12.57L219.09 12.57Q219.08 12.61 219.04 12.64L219.04 12.64L219.04 12.64Q219.03 12.65 218.98 12.65L218.98 12.65L218.78 12.65L218.72 12.65L218.70 12.65L218.67 12.64L218.67 12.64Q218.64 12.64 218.63 12.63L218.63 12.63L218.63 12.63Q218.61 12.61 218.61 12.60L218.61 12.60L218.61 12.60Q218.61 12.58 218.60 12.57L218.60 12.57L218.60 12.57Q218.57 12.54 218.54 12.50L218.54 12.50L218.54 12.50Q218.53 12.48 218.51 12.45L218.51 12.45L218.51 12.45Q218.49 12.41 218.48 12.40L218.48 12.40L212.37 4.56L212.44 11.22L212.44 11.22Q212.44 11.67 212.60 11.77L212.60 11.77L212.60 11.77Q212.76 11.87 213.47 11.87L213.47 11.87L213.71 11.87L213.71 12.41L210.77 12.41L210.77 11.87L211.20 11.87L211.20 11.87Q211.57 11.87 211.68 11.76L211.68 11.76L211.68 11.76Q211.78 11.66 211.78 11.25L211.78 11.25L211.78 3.80L211.64 3.64L210.55 3.64ZM228.21 5.35L227.71 5.33L227.71 5.33Q227.83 4.17 227.92 3.08L227.92 3.08L236.00 3.08L236.00 3.08Q235.92 4.13 235.89 4.53L235.89 4.53L235.89 4.53Q235.85 5.26 235.83 5.32L235.83 5.32L235.33 5.30L235.33 5.30Q235.41 4.34 235.41 4.16L235.41 4.16L235.41 4.16Q235.41 3.88 235.27 3.79L235.27 3.79L235.27 3.79Q235.09 3.69 234.69 3.69L234.69 3.69L233.08 3.69L233.08 3.69Q232.58 3.69 232.46 3.79L232.46 3.79L232.46 3.79Q232.36 3.87 232.35 4.36L232.35 4.36L232.35 11.22L232.35 11.22Q232.35 11.66 232.50 11.76L232.50 11.76L232.50 11.76Q232.65 11.87 233.17 11.87L233.17 11.87L233.73 11.87L233.74 12.41L230.05 12.40L230.05 11.87L230.27 11.87L230.27 11.87Q230.94 11.87 231.08 11.79L231.08 11.79L231.08 11.79Q231.23 11.70 231.23 11.28L231.23 11.28L231.23 4.48L231.23 4.48Q231.23 3.92 231.13 3.80L231.13 3.80L231.13 3.80Q231.03 3.69 230.60 3.69L230.60 3.69L229.13 3.69L229.13 3.69Q228.95 3.69 228.88 3.71L228.88 3.71L228.88 3.71Q228.81 3.72 228.70 3.72L228.70 3.72L228.70 3.72Q228.68 3.72 228.56 3.79L228.56 3.79L228.56 3.79Q228.48 3.84 228.45 3.86L228.45 3.86L228.45 3.86Q228.42 3.88 228.38 3.99L228.38 3.99L228.38 3.99Q228.35 4.05 228.33 4.14L228.33 4.14L228.33 4.14Q228.30 4.21 228.28 4.36L228.28 4.36L228.28 4.36Q228.25 4.59 228.25 4.61L228.25 4.61L228.25 4.61Q228.25 4.80 228.24 4.95L228.24 4.95L228.24 4.95Q228.24 5.02 228.23 5.15L228.23 5.15L228.23 5.15Q228.22 5.29 228.21 5.35L228.21 5.35ZM253.32 3.64L253.31 3.08L260.49 3.08L260.49 3.08Q260.50 4.14 260.56 5.28L260.56 5.28L260.01 5.30L260.01 5.30Q260.00 4.66 259.94 4.25L259.94 4.25L259.94 4.25Q259.90 3.89 259.85 3.80L259.85 3.80L259.85 3.80Q259.79 3.71 259.68 3.69L259.68 3.69L259.68 3.69Q259.58 3.68 258.99 3.68L258.99 3.68L256.61 3.68L256.61 3.68Q256.07 3.68 255.92 3.77L255.92 3.77L255.92 3.77Q255.80 3.86 255.80 4.33L255.80 4.33L255.80 6.28L255.80 6.28Q255.80 6.69 255.86 6.76L255.86 6.76L255.86 6.76Q255.92 6.84 256.26 6.84L256.26 6.84L258.38 6.84L258.38 6.84Q258.74 6.84 258.82 6.74L258.82 6.74L258.82 6.74Q258.90 6.64 258.90 6.17L258.90 6.17L258.90 5.63L259.42 5.63L259.42 8.97L258.90 8.97L258.90 8.26L258.90 8.26Q258.90 7.68 258.82 7.57L258.82 7.57L258.82 7.57Q258.74 7.46 258.41 7.46L258.41 7.46L256.31 7.46L256.31 7.46Q255.97 7.46 255.89 7.54L255.89 7.54L255.89 7.54Q255.80 7.63 255.80 7.89L255.80 7.89L255.80 11.20L255.80 11.20Q255.80 11.60 255.87 11.73L255.87 11.73L255.87 11.73Q255.95 11.87 256.22 11.87L256.22 11.87L257.15 11.87L257.15 12.41L253.56 12.41L253.56 11.87L253.97 11.87L253.97 11.87Q254.47 11.87 254.57 11.79L254.57 11.79L254.57 11.79Q254.67 11.70 254.67 11.33L254.67 11.33L254.67 4.24L254.67 4.24Q254.67 3.79 254.50 3.71L254.50 3.71L254.50 3.71Q254.36 3.64 253.32 3.64L253.32 3.64ZM268.99 7.83L268.99 7.83L268.99 7.83Q268.99 6.62 269.39 5.68L269.39 5.68L269.39 5.68Q269.81 4.72 270.50 4.12L270.50 4.12L270.50 4.12Q271.19 3.51 272.05 3.19L272.05 3.19L272.05 3.19Q272.89 2.88 273.84 2.88L273.84 2.88L273.84 2.88Q275.10 2.88 276.15 3.40L276.15 3.40L276.15 3.40Q277.23 3.93 277.94 5.07L277.94 5.07L277.94 5.07Q278.64 6.17 278.65 7.75L278.65 7.75L278.65 7.75Q278.65 8.70 278.34 9.54L278.34 9.54L278.34 9.54Q278.03 10.38 277.43 11.10L277.43 11.10L277.43 11.10Q276.82 11.81 275.88 12.22L275.88 12.22L275.88 12.22Q274.92 12.63 273.73 12.64L273.73 12.64L273.73 12.64Q272.60 12.64 271.66 12.23L271.66 12.23L271.66 12.23Q270.72 11.83 270.16 11.14L270.16 11.14L270.16 11.14Q269.59 10.45 269.29 9.60L269.29 9.60L269.29 9.60Q268.99 8.72 268.99 7.83ZM270.25 7.38L270.25 7.38L270.25 7.38Q270.25 8.52 270.68 9.60L270.68 9.60L270.68 9.60Q271.08 10.64 272.01 11.33L272.01 11.33L272.01 11.33Q272.92 12.03 274.11 12.04L274.11 12.04L274.11 12.04Q275.48 12.04 276.42 11.01L276.42 11.01L276.42 11.01Q277.37 9.97 277.37 8.10L277.37 8.10L277.37 8.10Q277.37 5.99 276.21 4.72L276.21 4.72L276.21 4.72Q275.06 3.46 273.55 3.45L273.55 3.45L273.55 3.45Q273.03 3.45 272.48 3.65L272.48 3.65L272.48 3.65Q271.94 3.85 271.43 4.25L271.43 4.25L271.43 4.25Q270.89 4.68 270.57 5.48L270.57 5.48L270.57 5.48Q270.25 6.27 270.25 7.38ZM287.10 3.64L286.71 3.64L286.72 3.08L289.94 3.08L289.94 3.08Q291.07 3.08 291.68 3.21L291.68 3.21L291.68 3.21Q292.32 3.37 292.78 3.75L292.78 3.75L292.78 3.75Q293.79 4.57 293.79 5.71L293.79 5.71L293.79 5.71Q293.79 6.43 293.32 7.04L293.32 7.04L293.32 7.04Q292.82 7.66 291.79 7.92L291.79 7.92L294.48 11.49L294.48 11.49Q294.79 11.87 295.08 11.87L295.08 11.87L295.68 11.87L295.71 12.41L293.68 12.41L290.68 8.10L290.51 8.10L290.51 8.10Q290.47 8.10 290.42 8.11L290.42 8.11L290.42 8.11Q290.36 8.11 290.35 8.11L290.35 8.11L290.35 8.11Q289.47 8.11 289.07 8.03L289.07 8.03L289.07 11.46L289.07 11.46Q289.07 11.76 289.21 11.81L289.21 11.81L289.21 11.81Q289.34 11.87 290.04 11.87L290.04 11.87L290.75 11.87L290.73 12.41L287 12.41L287 11.87L287.32 11.87L287.32 11.87Q287.79 11.87 287.85 11.81L287.85 11.81L287.85 11.81Q287.94 11.74 287.94 11.46L287.94 11.46L287.94 4.14L287.94 4.14Q287.94 3.82 287.75 3.73L287.75 3.73L287.75 3.73Q287.52 3.64 287.10 3.64L287.10 3.64ZM289.07 4.28L289.07 7.57L289.07 7.57Q289.26 7.70 289.97 7.71L289.97 7.71L289.97 7.71Q291.24 7.71 291.82 7.27L291.82 7.27L291.82 7.27Q292.41 6.84 292.41 5.92L292.41 5.92L292.41 5.92Q292.41 4.92 291.63 4.27L291.63 4.27L291.63 4.27Q290.88 3.64 289.50 3.64L289.50 3.64L289.50 3.64Q289.24 3.64 289.16 3.75L289.16 3.75L289.16 3.75Q289.08 3.84 289.07 4.28L289.07 4.28ZM313.52 3.64L313.03 3.64L313.04 3.08L316.63 3.08L316.63 3.64L316.00 3.64L316.00 3.64Q315.62 3.64 315.51 3.72L315.51 3.72L315.51 3.72Q315.40 3.80 315.40 4.16L315.40 4.16L315.40 11.22L315.40 11.22Q315.40 11.57 315.48 11.67L315.48 11.67L315.48 11.67Q315.57 11.77 315.86 11.77L315.86 11.77L315.86 11.77Q318.73 11.74 319.39 11.63L319.39 11.63L319.39 11.63Q319.60 11.61 319.68 11.39L319.68 11.39L319.68 11.39Q319.76 11.17 319.96 10.05L319.96 10.05L320.46 10.08L319.99 12.41L313.23 12.41L313.22 11.87L313.61 11.87L313.61 11.87Q314.11 11.87 314.18 11.80L314.18 11.80L314.18 11.80Q314.26 11.72 314.27 11.33L314.27 11.33L314.27 4.09L314.27 4.09Q314.27 3.80 314.11 3.72L314.11 3.72L314.11 3.72Q313.96 3.64 313.52 3.64L313.52 3.64ZM328.57 7.83L328.57 7.83L328.57 7.83Q328.57 6.62 328.97 5.68L328.97 5.68L328.97 5.68Q329.39 4.72 330.08 4.12L330.08 4.12L330.08 4.12Q330.77 3.51 331.63 3.19L331.63 3.19L331.63 3.19Q332.47 2.88 333.42 2.88L333.42 2.88L333.42 2.88Q334.68 2.88 335.73 3.40L335.73 3.40L335.73 3.40Q336.81 3.93 337.52 5.07L337.52 5.07L337.52 5.07Q338.22 6.17 338.23 7.75L338.23 7.75L338.23 7.75Q338.23 8.70 337.92 9.54L337.92 9.54L337.92 9.54Q337.61 10.38 337.01 11.10L337.01 11.10L337.01 11.10Q336.40 11.81 335.47 12.22L335.47 12.22L335.47 12.22Q334.50 12.63 333.31 12.64L333.31 12.64L333.31 12.64Q332.18 12.64 331.24 12.23L331.24 12.23L331.24 12.23Q330.31 11.83 329.75 11.14L329.75 11.14L329.75 11.14Q329.17 10.45 328.88 9.60L328.88 9.60L328.88 9.60Q328.57 8.72 328.57 7.83ZM329.83 7.38L329.83 7.38L329.83 7.38Q329.83 8.52 330.26 9.60L330.26 9.60L330.26 9.60Q330.66 10.64 331.59 11.33L331.59 11.33L331.59 11.33Q332.50 12.03 333.69 12.04L333.69 12.04L333.69 12.04Q335.06 12.04 336 11.01L336 11.01L336 11.01Q336.95 9.97 336.95 8.10L336.95 8.10L336.95 8.10Q336.95 5.99 335.79 4.72L335.79 4.72L335.79 4.72Q334.64 3.46 333.13 3.45L333.13 3.45L333.13 3.45Q332.61 3.45 332.07 3.65L332.07 3.65L332.07 3.65Q331.52 3.85 331.02 4.25L331.02 4.25L331.02 4.25Q330.47 4.68 330.15 5.48L330.15 5.48L330.15 5.48Q329.83 6.27 329.83 7.38ZM346.73 8.02L346.73 8.02L346.73 8.02Q346.73 6.86 347.20 5.83L347.20 5.83L347.20 5.83Q347.66 4.85 348.41 4.27L348.41 4.27L348.41 4.27Q349.16 3.69 350.05 3.37L350.05 3.37L350.05 3.37Q350.95 3.05 351.79 3.05L351.79 3.05L351.79 3.05Q352.66 3.05 353.33 3.16L353.33 3.16L353.33 3.16Q353.96 3.26 354.25 3.37L354.25 3.37L354.25 3.37Q354.56 3.48 354.59 3.48L354.59 3.48L354.59 3.48Q354.76 3.48 354.79 3.41L354.79 3.41L354.79 3.41Q354.81 3.33 354.81 3.09L354.81 3.09L354.81 2.97L355.35 2.97L355.35 2.97Q355.39 4.30 355.52 5.64L355.52 5.64L355.01 5.65L355.01 5.65Q354.98 5.40 354.97 5.26L354.97 5.26L354.97 5.26Q354.97 5.20 354.96 5.13L354.96 5.13L354.96 5.13Q354.96 5.07 354.95 5.02L354.95 5.02L354.95 5.02Q354.94 4.98 354.94 4.95L354.94 4.95L354.94 4.95Q354.92 4.84 354.92 4.74L354.92 4.74L354.92 4.74Q354.92 4.68 354.87 4.59L354.87 4.59L354.87 4.59Q354.87 4.57 354.84 4.55L354.84 4.55L354.84 4.55Q354.81 4.52 354.81 4.50L354.81 4.50L354.81 4.50Q354.79 4.44 354.72 4.41L354.72 4.41L354.72 4.41Q354.68 4.38 354.65 4.37L354.65 4.37L354.65 4.37Q354.62 4.36 354.59 4.35L354.59 4.35L354.59 4.35Q354.58 4.35 354.56 4.33L354.56 4.33L354.56 4.33Q354.53 4.31 354.49 4.29L354.49 4.29L354.49 4.29Q354.45 4.27 354.41 4.25L354.41 4.25L354.41 4.25Q354.18 4.16 354.16 4.14L354.16 4.14L354.16 4.14Q353.81 3.96 353.17 3.83L353.17 3.83L353.17 3.83Q352.50 3.71 351.83 3.71L351.83 3.71L351.83 3.71Q350.11 3.71 349.02 4.84L349.02 4.84L349.02 4.84Q347.91 5.99 347.92 7.62L347.92 7.62L347.92 7.62Q347.92 9.35 349.13 10.69L349.13 10.69L349.13 10.69Q350.33 12.02 352.15 12.02L352.15 12.02L352.15 12.02Q353.16 12.02 354.10 11.49L354.10 11.49L354.10 11.49Q355.05 10.94 355.08 10.58L355.08 10.58L355.12 9.41L355.61 9.41L355.53 11.45L355.53 11.45Q355.46 11.49 355.33 11.57L355.33 11.57L355.33 11.57Q355.28 11.60 354.81 11.85L354.81 11.85L354.81 11.85Q354.44 12.05 353.99 12.23L353.99 12.23L353.99 12.23Q353.63 12.39 352.98 12.51L352.98 12.51L352.98 12.51Q352.37 12.63 351.80 12.64L351.80 12.64L351.80 12.64Q349.43 12.64 348.07 11.39L348.07 11.39L348.07 11.39Q346.73 10.14 346.73 8.02ZM363.66 12.41L363.64 11.87L363.82 11.87L363.82 11.87Q364.21 11.87 364.33 11.73L364.33 11.73L364.33 11.73Q364.46 11.57 364.79 10.83L364.79 10.83L365.70 8.82L366.28 7.53L366.28 7.53Q366.54 6.97 366.58 6.86L366.58 6.86L366.58 6.86Q366.65 6.70 366.70 6.60L366.70 6.60L366.70 6.60Q366.75 6.51 366.77 6.45L366.77 6.45L366.86 6.21L368.29 2.74L368.59 2.74L368.59 2.74Q369.44 4.98 371.63 10.25L371.63 10.25L371.63 10.25Q372.08 11.34 372.27 11.64L372.27 11.64L372.27 11.64Q372.41 11.87 372.85 11.87L372.85 11.87L373.06 11.87L373.04 12.41L369.85 12.41L369.87 11.87L370.28 11.87L370.28 11.87Q370.90 11.87 370.90 11.70L370.90 11.70L370.90 11.70Q370.90 11.63 370.76 11.27L370.76 11.27L369.72 8.72L366.47 8.72L365.37 11.18L365.37 11.18Q365.23 11.50 365.23 11.63L365.23 11.63L365.23 11.63Q365.23 11.79 365.33 11.83L365.33 11.83L365.33 11.83Q365.42 11.87 365.80 11.87L365.80 11.87L366.38 11.87L366.38 12.41L363.66 12.41ZM368.16 4.79L366.74 8.10L369.48 8.10L368.16 4.79ZM381.28 3.64L380.79 3.64L380.80 3.08L384.39 3.08L384.39 3.64L383.76 3.64L383.76 3.64Q383.38 3.64 383.27 3.72L383.27 3.72L383.27 3.72Q383.15 3.80 383.15 4.16L383.15 4.16L383.15 11.22L383.15 11.22Q383.15 11.57 383.24 11.67L383.24 11.67L383.24 11.67Q383.33 11.77 383.62 11.77L383.62 11.77L383.62 11.77Q386.49 11.74 387.15 11.63L387.15 11.63L387.15 11.63Q387.36 11.61 387.44 11.39L387.44 11.39L387.44 11.39Q387.52 11.17 387.72 10.05L387.72 10.05L388.21 10.08L387.75 12.41L380.99 12.41L380.97 11.87L381.36 11.87L381.36 11.87Q381.87 11.87 381.94 11.80L381.94 11.80L381.94 11.80Q382.02 11.72 382.03 11.33L382.03 11.33L382.03 4.09L382.03 4.09Q382.03 3.80 381.87 3.72L381.87 3.72L381.87 3.72Q381.72 3.64 381.28 3.64L381.28 3.64ZM405.91 3.64L405.51 3.64L405.54 3.08L408.64 3.08L408.64 3.08Q410.38 3.08 411.16 3.75L411.16 3.75L411.16 3.75Q411.93 4.42 411.93 5.37L411.93 5.37L411.93 5.37Q411.93 6.08 411.39 6.60L411.39 6.60L411.39 6.60Q410.83 7.14 410.14 7.35L410.14 7.35L410.14 7.35Q411.22 7.57 411.75 8.34L411.75 8.34L411.75 8.34Q412.27 9.08 412.26 10.01L412.26 10.01L412.26 10.01Q412.26 11.01 411.63 11.59L411.63 11.59L411.63 11.59Q411.03 12.13 410.08 12.28L410.08 12.28L410.08 12.28Q409.16 12.41 407.61 12.41L407.61 12.41L405.63 12.41L405.63 11.87L406.05 11.87L406.05 11.87Q406.41 11.87 406.52 11.80L406.52 11.80L406.52 11.80Q406.64 11.73 406.64 11.46L406.64 11.46L406.64 4.14L406.64 4.14Q406.64 3.81 406.49 3.72L406.49 3.72L406.49 3.72Q406.35 3.64 405.91 3.64L405.91 3.64ZM407.74 7.59L407.74 7.59L407.77 11.35L407.77 11.35Q407.77 11.63 407.94 11.71L407.94 11.71L407.94 11.71Q408.11 11.80 408.68 11.80L408.68 11.80L408.68 11.80Q410.94 11.80 410.94 9.91L410.94 9.91L410.94 9.91Q410.94 9.22 410.61 8.73L410.61 8.73L410.61 8.73Q410.30 8.24 409.77 8.02L409.77 8.02L409.77 8.02Q409.19 7.75 408.75 7.68L408.75 7.68L408.75 7.68Q408.27 7.59 407.74 7.59ZM407.77 4.01L407.77 7.19L409.14 7.19L409.14 7.19Q409.80 7.19 410.22 6.66L410.22 6.66L410.22 6.66Q410.62 6.15 410.63 5.54L410.63 5.54L410.63 5.54Q410.63 4.85 410.04 4.27L410.04 4.27L410.04 4.27Q409.47 3.69 408.19 3.69L408.19 3.69L408.19 3.69Q407.77 3.69 407.77 4.01L407.77 4.01ZM420.69 3.64L420.31 3.64L420.31 3.08L423.67 3.08L423.68 3.64L423.15 3.64L423.15 3.64Q422.72 3.64 422.56 3.73L422.56 3.73L422.56 3.73Q422.39 3.83 422.39 4.16L422.39 4.16L422.39 9.33L422.39 9.33Q422.39 9.63 422.43 9.78L422.43 9.78L422.43 9.78Q422.47 10.01 422.63 10.41L422.63 10.41L422.63 10.41Q422.80 10.80 423.10 11.09L423.10 11.09L423.10 11.09Q423.40 11.40 423.96 11.63L423.96 11.63L423.96 11.63Q424.54 11.85 425.32 11.85L425.32 11.85L425.32 11.85Q426.17 11.85 426.72 11.67L426.72 11.67L426.72 11.67Q427.28 11.48 427.59 11.22L427.59 11.22L427.59 11.22Q427.90 10.96 428.04 10.49L428.04 10.49L428.04 10.49Q428.21 9.95 428.22 9.66L428.22 9.66L428.22 9.66Q428.24 9.18 428.25 8.67L428.25 8.67L428.25 4.14L428.25 4.14Q428.25 3.81 428.11 3.72L428.11 3.72L428.11 3.72Q427.96 3.64 427.48 3.64L427.48 3.64L426.99 3.64L427.01 3.08L429.65 3.08L429.65 3.64L429.45 3.64L429.45 3.64Q429.13 3.64 429.02 3.75L429.02 3.75L429.02 3.75Q428.91 3.86 428.91 4.25L428.91 4.25L428.91 9.22L428.91 9.22Q428.91 12.67 425.32 12.67L425.32 12.67L425.32 12.67Q423.15 12.67 422.20 11.76L422.20 11.76L422.20 11.76Q421.26 10.86 421.26 9.41L421.26 9.41L421.26 4.14L421.26 4.14Q421.26 3.81 421.16 3.72L421.16 3.72L421.16 3.72Q421.05 3.64 420.69 3.64L420.69 3.64ZM437.36 10.04L437.36 10.04L437.85 9.98L438.03 10.85L438.03 10.85Q438.14 11.33 438.21 11.41L438.21 11.41L438.21 11.41Q438.28 11.49 438.69 11.64L438.69 11.64L438.69 11.64Q439.53 11.95 440.43 11.95L440.43 11.95L440.43 11.95Q441.21 11.95 441.75 11.49L441.75 11.49L441.75 11.49Q442.29 11.04 442.29 10.26L442.29 10.26L442.29 10.26Q442.29 9.65 441.83 9.21L441.83 9.21L441.83 9.21Q441.35 8.76 440.49 8.30L440.49 8.30L439.92 7.98L439.92 7.98Q439.17 7.55 438.94 7.36L438.94 7.36L438.94 7.36Q438.58 7.08 438.27 6.59L438.27 6.59L438.27 6.59Q437.96 6.10 437.96 5.46L437.96 5.46L437.96 5.46Q437.96 4.39 438.80 3.68L438.80 3.68L438.80 3.68Q439.64 2.97 440.75 2.97L440.75 2.97L440.75 2.97Q441.03 2.97 441.38 3.04L441.38 3.04L441.38 3.04Q441.57 3.08 441.91 3.17L441.91 3.17L442.15 3.25L442.15 3.25Q442.24 3.25 442.29 3.16L442.29 3.16L442.29 3.16Q442.34 3.05 442.34 2.98L442.34 2.98L442.35 2.88L442.83 2.85L443.04 5.41L442.54 5.43L442.42 4.18L442.42 4.18Q441.67 3.62 440.51 3.62L440.51 3.62L440.51 3.62Q439.87 3.62 439.36 4.05L439.36 4.05L439.36 4.05Q438.88 4.47 438.88 5.12L438.88 5.12L438.88 5.12Q438.88 5.72 439.33 6.17L439.33 6.17L439.33 6.17Q439.76 6.60 440.63 7.08L440.63 7.08L441.40 7.50L441.40 7.50Q442.35 8.03 442.89 8.59L442.89 8.59L442.89 8.59Q443.42 9.15 443.42 9.92L443.42 9.92L443.42 9.92Q443.42 10.99 442.57 11.76L442.57 11.76L442.57 11.76Q441.70 12.54 440.24 12.54L440.24 12.54L440.24 12.54Q439.68 12.54 439.18 12.41L439.18 12.41L439.18 12.41Q438.68 12.29 438.62 12.29L438.62 12.29L438.62 12.29Q438.37 12.29 438.37 12.58L438.37 12.58L438.38 12.76L437.90 12.80L437.90 12.80Q437.84 12.41 437.36 10.04ZM452.19 3.64L451.60 3.64L451.62 3.08L455.13 3.08L455.13 3.64L454.90 3.64L454.90 3.64Q454.35 3.64 454.18 3.73L454.18 3.73L454.18 3.73Q454.04 3.81 454.04 4.28L454.04 4.28L454.04 11.22L454.04 11.22Q454.04 11.68 454.15 11.77L454.15 11.77L454.15 11.77Q454.26 11.87 454.79 11.87L454.79 11.87L455.34 11.87L455.36 12.41L451.77 12.41L451.76 11.87L452.12 11.87L452.12 11.87Q452.68 11.87 452.80 11.77L452.80 11.77L452.80 11.77Q452.91 11.67 452.91 11.25L452.91 11.25L452.91 4.14L452.91 4.14Q452.91 3.77 452.81 3.71L452.81 3.71L452.81 3.71Q452.70 3.64 452.19 3.64L452.19 3.64ZM463.11 3.64L463.09 3.08L465.27 3.08L471.00 10.48L471.00 4.14L471.00 4.14Q471.00 3.81 470.85 3.72L470.85 3.72L470.85 3.72Q470.70 3.64 470.24 3.64L470.24 3.64L469.75 3.64L469.77 3.08L472.75 3.08L472.75 3.64L472.43 3.64L472.43 3.64Q471.97 3.64 471.82 3.75L471.82 3.75L471.82 3.75Q471.67 3.86 471.67 4.25L471.67 4.25L471.67 12.32L471.67 12.47L471.67 12.47Q471.67 12.52 471.65 12.57L471.65 12.57L471.65 12.57Q471.64 12.61 471.60 12.64L471.60 12.64L471.60 12.64Q471.59 12.65 471.54 12.65L471.54 12.65L471.34 12.65L471.28 12.65L471.26 12.65L471.23 12.64L471.23 12.64Q471.20 12.64 471.19 12.63L471.19 12.63L471.19 12.63Q471.17 12.61 471.17 12.60L471.17 12.60L471.17 12.60Q471.17 12.58 471.16 12.57L471.16 12.57L471.16 12.57Q471.13 12.54 471.11 12.50L471.11 12.50L471.11 12.50Q471.09 12.48 471.07 12.45L471.07 12.45L471.07 12.45Q471.05 12.41 471.04 12.40L471.04 12.40L464.93 4.56L465.00 11.22L465.00 11.22Q465.00 11.67 465.17 11.77L465.17 11.77L465.17 11.77Q465.32 11.87 466.03 11.87L466.03 11.87L466.27 11.87L466.27 12.41L463.33 12.41L463.33 11.87L463.76 11.87L463.76 11.87Q464.13 11.87 464.24 11.76L464.24 11.76L464.24 11.76Q464.34 11.66 464.34 11.25L464.34 11.25L464.34 3.80L464.20 3.64L463.11 3.64ZM480.50 3.64L480.49 3.08L487.70 3.08L487.70 3.08Q487.72 4.14 487.77 5.28L487.77 5.28L487.22 5.30L487.22 5.30Q487.21 4.66 487.16 4.25L487.16 4.25L487.16 4.25Q487.12 3.89 487.06 3.80L487.06 3.80L487.06 3.80Q487.01 3.71 486.89 3.69L486.89 3.69L486.89 3.69Q486.79 3.68 486.21 3.68L486.21 3.68L483.83 3.68L483.83 3.68Q483.28 3.68 483.14 3.77L483.14 3.77L483.14 3.77Q483.01 3.86 483.01 4.33L483.01 4.33L483.01 6.28L483.01 6.28Q483.01 6.69 483.07 6.76L483.07 6.76L483.07 6.76Q483.14 6.84 483.48 6.84L483.48 6.84L485.59 6.84L485.59 6.84Q485.95 6.84 486.04 6.73L486.04 6.73L486.04 6.73Q486.12 6.63 486.12 6.14L486.12 6.14L486.12 5.61L486.64 5.63L486.64 8.97L486.12 8.97L486.12 8.24L486.12 8.24Q486.12 7.66 486.05 7.57L486.05 7.57L486.05 7.57Q485.97 7.46 485.62 7.46L485.62 7.46L483.52 7.46L483.52 7.46Q483.18 7.46 483.10 7.54L483.10 7.54L483.10 7.54Q483.01 7.63 483.01 7.89L483.01 7.89L483.01 11.20L483.01 11.20Q483.01 11.57 483.10 11.67L483.10 11.67L483.10 11.67Q483.18 11.77 483.46 11.77L483.46 11.77L483.46 11.77Q486.38 11.75 486.90 11.69L486.90 11.69L486.90 11.69Q487.42 11.63 487.50 11.38L487.50 11.38L487.51 11.36L487.52 11.35L487.74 10.17L488.22 10.25L487.87 12.41L480.77 12.41L480.77 11.87L481.14 11.87L481.14 11.87Q481.70 11.87 481.78 11.80L481.78 11.80L481.78 11.80Q481.88 11.72 481.88 11.33L481.88 11.33L481.88 4.24L481.88 4.24Q481.88 3.82 481.73 3.73L481.73 3.73L481.73 3.73Q481.56 3.64 480.90 3.64L480.90 3.64L480.50 3.64ZM496.07 10.04L496.07 10.04L496.56 9.98L496.75 10.85L496.75 10.85Q496.86 11.33 496.92 11.41L496.92 11.41L496.92 11.41Q496.99 11.49 497.40 11.64L497.40 11.64L497.40 11.64Q498.24 11.95 499.14 11.95L499.14 11.95L499.14 11.95Q499.93 11.95 500.47 11.49L500.47 11.49L500.47 11.49Q501.00 11.04 501.00 10.26L501.00 10.26L501.00 10.26Q501.00 9.65 500.54 9.21L500.54 9.21L500.54 9.21Q500.06 8.76 499.21 8.30L499.21 8.30L498.63 7.98L498.63 7.98Q497.89 7.55 497.66 7.36L497.66 7.36L497.66 7.36Q497.29 7.08 496.98 6.59L496.98 6.59L496.98 6.59Q496.67 6.10 496.67 5.46L496.67 5.46L496.67 5.46Q496.67 4.39 497.51 3.68L497.51 3.68L497.51 3.68Q498.35 2.97 499.46 2.97L499.46 2.97L499.46 2.97Q499.74 2.97 500.09 3.04L500.09 3.04L500.09 3.04Q500.29 3.08 500.62 3.17L500.62 3.17L500.86 3.25L500.86 3.25Q500.96 3.25 501.00 3.16L501.00 3.16L501.00 3.16Q501.05 3.05 501.05 2.98L501.05 2.98L501.07 2.88L501.55 2.85L501.76 5.41L501.25 5.43L501.13 4.18L501.13 4.18Q500.38 3.62 499.22 3.62L499.22 3.62L499.22 3.62Q498.58 3.62 498.07 4.05L498.07 4.05L498.07 4.05Q497.59 4.47 497.59 5.12L497.59 5.12L497.59 5.12Q497.59 5.72 498.05 6.17L498.05 6.17L498.05 6.17Q498.48 6.60 499.34 7.08L499.34 7.08L500.12 7.50L500.12 7.50Q501.07 8.03 501.60 8.59L501.60 8.59L501.60 8.59Q502.13 9.15 502.13 9.92L502.13 9.92L502.13 9.92Q502.13 10.99 501.28 11.76L501.28 11.76L501.28 11.76Q500.41 12.54 498.96 12.54L498.96 12.54L498.96 12.54Q498.39 12.54 497.89 12.41L497.89 12.41L497.89 12.41Q497.39 12.29 497.33 12.29L497.33 12.29L497.33 12.29Q497.08 12.29 497.08 12.58L497.08 12.58L497.10 12.76L496.62 12.80L496.62 12.80Q496.56 12.41 496.07 10.04ZM510.29 10.04L510.29 10.04L510.78 9.98L510.97 10.85L510.97 10.85Q511.08 11.33 511.14 11.41L511.14 11.41L511.14 11.41Q511.21 11.49 511.62 11.64L511.62 11.64L511.62 11.64Q512.46 11.95 513.36 11.95L513.36 11.95L513.36 11.95Q514.14 11.95 514.68 11.49L514.68 11.49L514.68 11.49Q515.22 11.04 515.22 10.26L515.22 10.26L515.22 10.26Q515.22 9.65 514.76 9.21L514.76 9.21L514.76 9.21Q514.28 8.76 513.43 8.30L513.43 8.30L512.85 7.98L512.85 7.98Q512.11 7.55 511.88 7.36L511.88 7.36L511.88 7.36Q511.51 7.08 511.20 6.59L511.20 6.59L511.20 6.59Q510.89 6.10 510.89 5.46L510.89 5.46L510.89 5.46Q510.89 4.39 511.73 3.68L511.73 3.68L511.73 3.68Q512.57 2.97 513.68 2.97L513.68 2.97L513.68 2.97Q513.96 2.97 514.31 3.04L514.31 3.04L514.31 3.04Q514.51 3.08 514.84 3.17L514.84 3.17L515.08 3.25L515.08 3.25Q515.18 3.25 515.22 3.16L515.22 3.16L515.22 3.16Q515.27 3.05 515.27 2.98L515.27 2.98L515.29 2.88L515.76 2.85L515.98 5.41L515.47 5.43L515.35 4.18L515.35 4.18Q514.60 3.62 513.44 3.62L513.44 3.62L513.44 3.62Q512.80 3.62 512.29 4.05L512.29 4.05L512.29 4.05Q511.81 4.47 511.81 5.12L511.81 5.12L511.81 5.12Q511.81 5.72 512.26 6.17L512.26 6.17L512.26 6.17Q512.70 6.60 513.56 7.08L513.56 7.08L514.34 7.50L514.34 7.50Q515.29 8.03 515.82 8.59L515.82 8.59L515.82 8.59Q516.35 9.15 516.35 9.92L516.35 9.92L516.35 9.92Q516.35 10.99 515.50 11.76L515.50 11.76L515.50 11.76Q514.63 12.54 513.17 12.54L513.17 12.54L513.17 12.54Q512.61 12.54 512.11 12.41L512.11 12.41L512.11 12.41Q511.61 12.29 511.55 12.29L511.55 12.29L511.55 12.29Q511.30 12.29 511.30 12.58L511.30 12.58L511.31 12.76L510.84 12.80L510.84 12.80Q510.77 12.41 510.29 10.04Z"></path></g></svg>