<svg data-v-fde0c5aa="" xmlns="http://www.w3.org/2000/svg" viewBox="0 0 300 300" class="font"><!----><defs data-v-fde0c5aa=""><!----></defs><rect data-v-fde0c5aa="" fill="#F47973" x="0" y="0" width="300px" height="300px" class="logo-background-square"></rect><defs data-v-fde0c5aa=""><!----></defs><g data-v-fde0c5aa="" id="f2ceea51-a71f-4a4a-8137-495881c300ad" fill="#10143A" transform="matrix(2.2928609379599405,0,0,2.2928609379599405,39.174570029534785,134.15633113189446)"><path d="M3.49 4.20L3.49 4.20L3.49 4.20Q3.98 4.37 4.48 4.62L4.48 4.62L4.48 4.62Q4.98 4.87 5.38 5.25L5.38 5.25L5.38 5.25Q5.78 5.63 6.03 6.15L6.03 6.15L6.03 6.15Q6.27 6.66 6.24 7.38L6.24 7.38L6.24 7.38Q6.22 7.92 6.10 8.34L6.10 8.34L6.10 8.34Q5.98 8.76 5.80 9.08L5.80 9.08L5.80 9.08Q5.61 9.39 5.40 9.61L5.40 9.61L5.40 9.61Q5.18 9.83 4.98 9.97L4.98 9.97L4.98 9.97Q4.48 10.33 3.87 10.46L3.87 10.46L3.87 10.46Q3.26 10.58 2.65 10.54L2.65 10.54L2.65 10.54Q2.03 10.49 1.44 10.29L1.44 10.29L1.44 10.29Q0.84 10.09 0.36 9.81L0.36 9.81L1.05 7.62L1.05 7.62Q1.39 7.77 1.85 7.95L1.85 7.95L1.85 7.95Q2.31 8.12 2.75 8.18L2.75 8.18L2.75 8.18Q3.19 8.23 3.53 8.10L3.53 8.10L3.53 8.10Q3.86 7.97 3.98 7.48L3.98 7.48L3.98 7.48Q4.05 7.17 3.80 6.95L3.80 6.95L3.80 6.95Q3.56 6.73 3.15 6.52L3.15 6.52L3.15 6.52Q2.74 6.31 2.25 6.05L2.25 6.05L2.25 6.05Q1.75 5.80 1.33 5.42L1.33 5.42L1.33 5.42Q0.91 5.04 0.64 4.48L0.64 4.48L0.64 4.48Q0.36 3.92 0.39 3.11L0.39 3.11L0.39 3.11Q0.43 2.06 0.94 1.38L0.94 1.38L0.94 1.38Q1.44 0.70 2.22 0.39L2.22 0.39L2.22 0.39Q3.00 0.08 3.94 0.13L3.94 0.13L3.94 0.13Q4.89 0.18 5.81 0.59L5.81 0.59L5.08 2.60L5.08 2.60Q4.84 2.51 4.45 2.41L4.45 2.41L4.45 2.41Q4.06 2.32 3.68 2.35L3.68 2.35L3.68 2.35Q3.30 2.37 3.01 2.54L3.01 2.54L3.01 2.54Q2.72 2.72 2.66 3.15L2.66 3.15L2.66 3.15Q2.60 3.53 2.87 3.79L2.87 3.79L2.87 3.79Q3.14 4.05 3.49 4.20ZM10.08 2.38L10.08 2.38L10.08 2.38Q10.71 2.38 11.24 2.55L11.24 2.55L11.24 2.55Q11.77 2.73 12.16 3.07L12.16 3.07L12.16 3.07Q12.54 3.42 12.76 3.92L12.76 3.92L12.76 3.92Q12.98 4.42 12.98 5.08L12.98 5.08L12.98 7.85L12.98 7.85Q12.98 8.51 12.76 9.02L12.76 9.02L12.76 9.02Q12.54 9.52 12.17 9.86L12.17 9.86L12.17 9.86Q11.79 10.21 11.26 10.39L11.26 10.39L11.26 10.39Q10.72 10.57 10.09 10.57L10.09 10.57L10.09 10.57Q9.45 10.57 8.92 10.39L8.92 10.39L8.92 10.39Q8.39 10.21 8.00 9.86L8.00 9.86L8.00 9.86Q7.62 9.52 7.40 9.02L7.40 9.02L7.40 9.02Q7.18 8.51 7.18 7.85L7.18 7.85L7.18 5.08L7.18 5.08Q7.18 4.42 7.40 3.92L7.40 3.92L7.40 3.92Q7.62 3.42 8.00 3.07L8.00 3.07L8.00 3.07Q8.39 2.73 8.92 2.55L8.92 2.55L8.92 2.55Q9.45 2.38 10.08 2.38ZM10.77 7.85L10.77 5.05L10.77 5.05Q10.77 4.80 10.56 4.67L10.56 4.67L10.56 4.67Q10.35 4.54 10.09 4.54L10.09 4.54L10.09 4.54Q9.83 4.54 9.62 4.67L9.62 4.67L9.62 4.67Q9.41 4.80 9.41 5.05L9.41 5.05L9.41 7.85L9.41 7.85Q9.41 8.11 9.61 8.24L9.61 8.24L9.61 8.24Q9.81 8.37 10.07 8.37L10.07 8.37L10.07 8.37Q10.32 8.37 10.54 8.25L10.54 8.25L10.54 8.25Q10.75 8.12 10.77 7.85L10.77 7.85ZM20.01 10.51L19.89 10.51L18.89 9.95L18.89 9.95Q18.51 10.22 18.12 10.37L18.12 10.37L18.12 10.37Q17.74 10.51 17.09 10.51L17.09 10.51L17.09 10.51Q16.48 10.51 15.95 10.37L15.95 10.37L15.95 10.37Q15.43 10.23 15.05 9.91L15.05 9.91L15.05 9.91Q14.67 9.59 14.46 9.07L14.46 9.07L14.46 9.07Q14.24 8.55 14.24 7.81L14.24 7.81L14.24 2.56L14.10 2.44L16.60 2.44L16.46 2.55L16.46 7.90L16.46 7.90Q16.46 8.13 16.67 8.25L16.67 8.25L16.67 8.25Q16.87 8.37 17.11 8.37L17.11 8.37L17.11 8.37Q17.36 8.37 17.56 8.25L17.56 8.25L17.56 8.25Q17.77 8.13 17.77 7.90L17.77 7.90L17.77 2.56L17.64 2.44L20.13 2.44L20.01 2.56L20.01 10.51ZM24.71 8.37L24.71 8.37L25.33 8.37L25.51 8.26L25.51 10.63L25.31 10.53L24.57 10.53L24.57 10.53Q24.16 10.53 23.77 10.46L23.77 10.46L23.77 10.46Q23.37 10.40 23.01 10.21L23.01 10.21L23.01 10.21Q22.65 10.02 22.36 9.68L22.36 9.68L22.36 9.68Q22.06 9.34 21.88 8.78L21.88 8.78L21.88 4.52L21.13 4.52L20.97 4.65L20.97 2.25L21.13 2.39L21.88 2.39L21.88 0.08L21.73-0.06L24.23-0.06L24.08 0.11L24.08 2.39L25.21 2.39L25.37 2.25L25.37 4.65L25.21 4.52L24.08 4.52L24.08 8.02L24.08 8.02Q24.15 8.18 24.32 8.28L24.32 8.28L24.32 8.28Q24.49 8.39 24.71 8.37ZM30.11 5.01L30.11 5.01L30.11 5.01Q30.11 4.83 29.99 4.70L29.99 4.70L29.99 4.70Q29.86 4.58 29.68 4.58L29.68 4.58L28.85 4.58L28.85 10.36L28.98 10.50L26.46 10.50L26.61 10.36L26.61 0.36L26.49 0.20L28.99 0.20L28.87 0.38L28.87 2.42L29.71 2.42L29.71 2.42Q30.39 2.42 30.89 2.61L30.89 2.61L30.89 2.61Q31.39 2.80 31.71 3.15L31.71 3.15L31.71 3.15Q32.03 3.50 32.19 4.00L32.19 4.00L32.19 4.00Q32.34 4.51 32.34 5.11L32.34 5.11L32.34 10.36L32.49 10.50L29.97 10.50L30.11 10.37L30.11 5.01ZM36.54 0.17L36.54 0.17L41.17 0.17L41.29 0.04L41.29 2.55L41.16 2.42L38.79 2.42L38.79 4.20L40.96 4.20L41.09 4.07L41.09 6.59L40.96 6.45L38.79 6.45L38.79 8.25L41.37 8.25L41.50 8.12L41.50 10.63L41.37 10.50L36.41 10.50L36.54 10.37L36.54 0.17ZM42.66 2.42L42.77 2.42L43.78 2.98L43.78 2.98Q43.96 2.86 44.14 2.75L44.14 2.75L44.14 2.75Q44.32 2.65 44.53 2.57L44.53 2.57L44.53 2.57Q44.74 2.49 45.00 2.46L45.00 2.46L45.00 2.46Q45.25 2.42 45.57 2.42L45.57 2.42L45.57 2.42Q46.19 2.42 46.71 2.56L46.71 2.56L46.71 2.56Q47.24 2.70 47.61 3.02L47.61 3.02L47.61 3.02Q47.99 3.35 48.21 3.86L48.21 3.86L48.21 3.86Q48.43 4.38 48.43 5.12L48.43 5.12L48.43 10.37L48.57 10.50L46.06 10.50L46.20 10.39L46.20 5.04L46.20 5.04Q46.20 4.80 46.00 4.68L46.00 4.68L46.00 4.68Q45.79 4.56 45.55 4.56L45.55 4.56L45.55 4.56Q45.30 4.56 45.10 4.68L45.10 4.68L45.10 4.68Q44.90 4.80 44.90 5.04L44.90 5.04L44.90 10.37L45.02 10.50L42.53 10.50L42.66 10.37L42.66 2.42ZM55.47 10.50L55.30 10.50L53.87 9.72L53.87 9.72Q53.38 10.22 52.91 10.38L52.91 10.38L52.91 10.38Q52.44 10.54 51.98 10.54L51.98 10.54L51.98 10.54Q50.97 10.54 50.34 9.82L50.34 9.82L50.34 9.82Q49.71 9.10 49.71 7.80L49.71 7.80L49.71 5.11L49.71 5.11Q49.71 4.51 49.87 4.00L49.87 4.00L49.87 4.00Q50.02 3.50 50.34 3.15L50.34 3.15L50.34 3.15Q50.67 2.80 51.16 2.61L51.16 2.61L51.16 2.61Q51.66 2.42 52.35 2.42L52.35 2.42L53.21 2.42L53.21 0.38L53.09 0.20L55.59 0.20L55.47 0.36L55.47 10.50ZM52.72 8.30L52.75 8.30L53.24 7.95L53.24 4.55L52.37 4.55L52.37 4.55Q52.19 4.55 52.07 4.68L52.07 4.68L52.07 4.68Q51.94 4.82 51.94 5.00L51.94 5.00L51.94 7.91L51.94 7.91Q51.94 8.08 52.02 8.18L52.02 8.18L52.02 8.18Q52.09 8.29 52.21 8.33L52.21 8.33L52.21 8.33Q52.33 8.37 52.47 8.37L52.47 8.37L52.47 8.37Q52.61 8.36 52.72 8.30L52.72 8.30ZM59.56 0.17L62.92 0.17L62.92 0.17Q63.48 0.17 63.97 0.34L63.97 0.34L63.97 0.34Q64.46 0.52 64.82 0.86L64.82 0.86L64.82 0.86Q65.18 1.20 65.39 1.71L65.39 1.71L65.39 1.71Q65.60 2.21 65.60 2.87L65.60 2.87L65.60 7.81L65.60 7.81Q65.60 8.51 65.39 9.02L65.39 9.02L65.39 9.02Q65.18 9.52 64.82 9.85L64.82 9.85L64.82 9.85Q64.46 10.18 63.97 10.34L63.97 10.34L63.97 10.34Q63.48 10.50 62.92 10.50L62.92 10.50L59.56 10.50L59.68 10.37L59.68 0.29L59.56 0.17ZM63.35 7.81L63.35 2.87L63.35 2.87Q63.35 2.67 63.22 2.55L63.22 2.55L63.22 2.55Q63.10 2.42 62.92 2.42L62.92 2.42L61.94 2.42L61.94 8.25L62.92 8.25L62.92 8.25Q63.10 8.25 63.22 8.12L63.22 8.12L63.22 8.12Q63.35 7.99 63.35 7.81L63.35 7.81ZM69.05 7.83L69.05 7.83L69.05 7.83Q69.05 8.13 69.28 8.29L69.28 8.29L69.28 8.29Q69.51 8.46 69.78 8.46L69.78 8.46L69.78 8.46Q70.06 8.47 70.29 8.32L70.29 8.32L70.29 8.32Q70.53 8.18 70.55 7.87L70.55 7.87L72.58 7.87L72.58 7.87Q72.58 8.61 72.37 9.11L72.37 9.11L72.37 9.11Q72.17 9.62 71.81 9.94L71.81 9.94L71.81 9.94Q71.44 10.26 70.93 10.40L70.93 10.40L70.93 10.40Q70.42 10.54 69.79 10.54L69.79 10.54L69.79 10.54Q68.42 10.54 67.65 9.83L67.65 9.83L67.65 9.83Q66.88 9.11 66.88 7.84L66.88 7.84L66.88 5.14L66.88 5.14Q66.88 4.58 67.03 4.08L67.03 4.08L67.03 4.08Q67.17 3.58 67.52 3.21L67.52 3.21L67.52 3.21Q67.86 2.84 68.43 2.63L68.43 2.63L68.43 2.63Q68.99 2.41 69.82 2.41L69.82 2.41L69.82 2.41Q71.13 2.41 71.85 3.04L71.85 3.04L71.85 3.04Q72.56 3.68 72.56 5.00L72.56 5.00L72.56 5.00Q72.56 5.74 72.25 6.20L72.25 6.20L72.25 6.20Q71.93 6.65 71.43 6.95L71.43 6.95L71.43 6.95Q70.92 7.25 70.29 7.44L70.29 7.44L70.29 7.44Q69.66 7.63 69.05 7.83ZM70.49 5.03L70.49 5.03L70.49 5.03Q70.49 4.76 70.27 4.63L70.27 4.63L70.27 4.63Q70.04 4.49 69.77 4.49L69.77 4.49L69.77 4.49Q69.50 4.49 69.27 4.62L69.27 4.62L69.27 4.62Q69.05 4.75 69.05 4.98L69.05 4.98L69.05 5.77L69.05 5.77Q69.52 5.68 69.81 5.60L69.81 5.60L69.81 5.60Q70.10 5.52 70.25 5.43L70.25 5.43L70.25 5.43Q70.41 5.35 70.45 5.25L70.45 5.25L70.45 5.25Q70.49 5.15 70.49 5.03ZM75.82 5.24L75.82 5.24L75.82 5.24Q76.09 5.35 76.57 5.54L76.57 5.54L76.57 5.54Q77.06 5.73 77.53 6.06L77.53 6.06L77.53 6.06Q77.99 6.40 78.32 6.89L78.32 6.89L78.32 6.89Q78.65 7.38 78.61 8.09L78.61 8.09L78.61 8.09Q78.57 8.82 78.32 9.32L78.32 9.32L78.32 9.32Q78.06 9.81 77.67 10.11L77.67 10.11L77.67 10.11Q77.27 10.40 76.77 10.51L76.77 10.51L76.77 10.51Q76.27 10.61 75.73 10.57L75.73 10.57L75.73 10.57Q75.28 10.54 74.67 10.42L74.67 10.42L74.67 10.42Q74.06 10.30 73.44 9.98L73.44 9.98L74.12 7.85L74.12 7.85Q74.31 7.97 74.59 8.06L74.59 8.06L74.59 8.06Q74.87 8.15 75.17 8.22L75.17 8.22L75.17 8.22Q75.46 8.29 75.75 8.33L75.75 8.33L75.75 8.33Q76.05 8.37 76.27 8.37L76.27 8.37L76.27 8.37Q76.43 8.12 76.36 7.80L76.36 7.80L76.36 7.80Q76.17 7.71 75.89 7.59L75.89 7.59L75.89 7.59Q75.60 7.48 75.29 7.31L75.29 7.31L75.29 7.31Q74.97 7.14 74.66 6.90L74.66 6.90L74.66 6.90Q74.34 6.66 74.10 6.36L74.10 6.36L74.10 6.36Q73.86 6.05 73.73 5.65L73.73 5.65L73.73 5.65Q73.60 5.25 73.64 4.75L73.64 4.75L73.64 4.75Q73.68 4.31 73.80 3.98L73.80 3.98L73.80 3.98Q73.92 3.64 74.09 3.40L74.09 3.40L74.09 3.40Q74.26 3.16 74.45 3.00L74.45 3.00L74.45 3.00Q74.63 2.83 74.82 2.73L74.82 2.73L74.82 2.73Q75.28 2.45 75.82 2.40L75.82 2.40L75.82 2.40Q76.37 2.35 76.87 2.43L76.87 2.43L76.87 2.43Q77.36 2.51 77.76 2.63L77.76 2.63L77.76 2.63Q78.15 2.76 78.33 2.84L78.33 2.84L77.46 4.91L77.46 4.91Q77.35 4.87 77.15 4.82L77.15 4.82L77.15 4.82Q76.96 4.76 76.75 4.72L76.75 4.72L76.75 4.72Q76.54 4.68 76.33 4.64L76.33 4.64L76.33 4.64Q76.12 4.61 75.99 4.61L75.99 4.61L75.99 4.61Q75.94 4.61 75.88 4.68L75.88 4.68L75.88 4.68Q75.82 4.76 75.79 4.87L75.79 4.87L75.79 4.87Q75.75 4.97 75.75 5.08L75.75 5.08L75.75 5.08Q75.75 5.18 75.82 5.24ZM82.07 10.50L79.53 10.50L79.66 10.37L79.66 2.80L79.53 2.67L82.07 2.67L81.94 2.80L81.94 10.37L82.07 10.50ZM79.45 1.04L79.45 1.04L79.45 1.04Q79.45 0.63 79.65 0.36L79.65 0.36L79.65 0.36Q79.84 0.10 80.13-0.04L80.13-0.04L80.13-0.04Q80.42-0.17 80.76-0.17L80.76-0.17L80.76-0.17Q81.10-0.17 81.39-0.04L81.39-0.04L81.39-0.04Q81.68 0.10 81.87 0.36L81.87 0.36L81.87 0.36Q82.07 0.63 82.07 1.04L82.07 1.04L82.07 1.04Q82.07 1.43 81.87 1.70L81.87 1.70L81.87 1.70Q81.68 1.97 81.39 2.10L81.39 2.10L81.39 2.10Q81.10 2.23 80.76 2.23L80.76 2.23L80.76 2.23Q80.42 2.24 80.13 2.10L80.13 2.10L80.13 2.10Q79.84 1.96 79.65 1.70L79.65 1.70L79.65 1.70Q79.45 1.44 79.45 1.04ZM88.86 2.44L89.03 2.44L89.03 12.39L89.03 12.39Q88.58 13.16 87.93 13.57L87.93 13.57L87.93 13.57Q87.28 13.99 86.42 13.99L86.42 13.99L86.42 13.99Q86.04 13.99 85.67 13.94L85.67 13.94L85.67 13.94Q85.29 13.89 84.90 13.75L84.90 13.75L84.90 13.75Q84.50 13.62 84.10 13.38L84.10 13.38L84.10 13.38Q83.69 13.13 83.24 12.74L83.24 12.74L84.38 11.07L84.38 11.07Q84.84 11.45 85.24 11.62L85.24 11.62L85.24 11.62Q85.64 11.79 85.95 11.82L85.95 11.82L85.95 11.82Q86.25 11.84 86.47 11.78L86.47 11.78L86.47 11.78Q86.69 11.72 86.80 11.63L86.80 11.63L86.81 10.50L86.81 10.50Q86.74 10.51 86.60 10.51L86.60 10.51L86.60 10.51Q86.46 10.51 86.31 10.51L86.31 10.51L85.92 10.51L85.92 10.51Q85.36 10.51 84.87 10.35L84.87 10.35L84.87 10.35Q84.38 10.18 84.01 9.84L84.01 9.84L84.01 9.84Q83.65 9.51 83.44 9.01L83.44 9.01L83.44 9.01Q83.23 8.51 83.23 7.84L83.23 7.84L83.23 5.17L83.23 5.17Q83.23 4.54 83.44 4.02L83.44 4.02L83.44 4.02Q83.65 3.51 84.01 3.16L84.01 3.16L84.01 3.16Q84.38 2.81 84.87 2.63L84.87 2.63L84.87 2.63Q85.36 2.44 85.92 2.44L85.92 2.44L86.32 2.44L86.32 2.44Q86.77 2.44 87.16 2.60L87.16 2.60L87.16 2.60Q87.56 2.76 87.89 3.00L87.89 3.00L88.86 2.44ZM85.92 8.36L86.81 8.36L86.81 4.58L85.92 4.58L85.92 4.58Q85.72 4.58 85.60 4.70L85.60 4.70L85.60 4.70Q85.47 4.83 85.47 5.03L85.47 5.03L85.47 7.92L85.47 7.92Q85.47 8.11 85.60 8.23L85.60 8.23L85.60 8.23Q85.72 8.36 85.92 8.36L85.92 8.36ZM90.40 2.42L90.51 2.42L91.52 2.98L91.52 2.98Q91.70 2.86 91.88 2.75L91.88 2.75L91.88 2.75Q92.06 2.65 92.27 2.57L92.27 2.57L92.27 2.57Q92.48 2.49 92.74 2.46L92.74 2.46L92.74 2.46Q92.99 2.42 93.31 2.42L93.31 2.42L93.31 2.42Q93.93 2.42 94.45 2.56L94.45 2.56L94.45 2.56Q94.98 2.70 95.35 3.02L95.35 3.02L95.35 3.02Q95.73 3.35 95.95 3.86L95.95 3.86L95.95 3.86Q96.17 4.38 96.17 5.12L96.17 5.12L96.17 10.37L96.31 10.50L93.80 10.50L93.94 10.39L93.94 5.04L93.94 5.04Q93.94 4.80 93.74 4.68L93.74 4.68L93.74 4.68Q93.53 4.56 93.29 4.56L93.29 4.56L93.29 4.56Q93.04 4.56 92.84 4.68L92.84 4.68L92.84 4.68Q92.64 4.80 92.64 5.04L92.64 5.04L92.64 10.37L92.76 10.50L90.27 10.50L90.40 10.37L90.40 2.42Z"></path></g><!----><!----></svg>