<svg data-v-423bf9ae="" xmlns="http://www.w3.org/2000/svg" viewBox="0 0 665 90" class="iconLeftSlogan"><!----><!----><!----><g data-v-423bf9ae="" id="c7a3843c-59f9-4d88-8446-d01c7a1332ba" fill="#ffffff" transform="matrix(4.285714285714286,0,0,4.285714285714286,79.33338198491504,-12.900000197546824)"><path d="M3.92 13.71L3.92 13.71Q3.05 13.71 2.16 13.52L2.16 13.52L2.16 13.52Q1.26 13.33 0.71 13.08L0.71 13.08L0.90 11.66L0.90 11.66Q1.60 12.00 2.48 12.25L2.48 12.25L2.48 12.25Q3.36 12.50 4.23 12.50L4.23 12.50L4.23 12.50Q5.21 12.50 5.75 12.14L5.75 12.14L5.75 12.14Q6.29 11.79 6.29 11.07L6.29 11.07L6.29 11.07Q6.29 10.54 6.01 10.18L6.01 10.18L6.01 10.18Q5.74 9.83 5.21 9.58L5.21 9.58L5.21 9.58Q4.69 9.34 3.75 9.06L3.75 9.06L3.75 9.06Q2.80 8.78 2.17 8.46L2.17 8.46L2.17 8.46Q1.54 8.13 1.16 7.57L1.16 7.57L1.16 7.57Q0.77 7.01 0.77 6.16L0.77 6.16L0.77 6.16Q0.77 4.97 1.69 4.24L1.69 4.24L1.69 4.24Q2.60 3.51 4.27 3.51L4.27 3.51L4.27 3.51Q5.17 3.51 5.97 3.71L5.97 3.71L5.97 3.71Q6.78 3.91 7.38 4.19L7.38 4.19L7.24 5.60L7.24 5.60Q6.45 5.14 5.73 4.93L5.73 4.93L5.73 4.93Q5.00 4.72 4.21 4.72L4.21 4.72L4.21 4.72Q3.30 4.72 2.77 5.05L2.77 5.05L2.77 5.05Q2.23 5.39 2.23 6.09L2.23 6.09L2.23 6.09Q2.23 6.57 2.47 6.87L2.47 6.87L2.47 6.87Q2.72 7.18 3.18 7.40L3.18 7.40L3.18 7.40Q3.64 7.62 4.47 7.87L4.47 7.87L4.47 7.87Q6.12 8.37 6.93 9.06L6.93 9.06L6.93 9.06Q7.74 9.76 7.74 10.98L7.74 10.98L7.74 10.98Q7.74 12.26 6.78 12.98L6.78 12.98L6.78 12.98Q5.81 13.71 3.92 13.71L3.92 13.71ZM12.03 13.65L12.03 13.65Q10.98 13.65 10.21 13.18L10.21 13.18L10.21 13.18Q9.44 12.71 9.03 11.90L9.03 11.90L9.03 11.90Q8.62 11.09 8.62 10.08L8.62 10.08L8.62 10.08Q8.62 9.07 9.03 8.26L9.03 8.26L9.03 8.26Q9.44 7.45 10.21 6.98L10.21 6.98L10.21 6.98Q10.98 6.51 12.03 6.51L12.03 6.51L12.03 6.51Q13.06 6.51 13.84 6.98L13.84 6.98L13.84 6.98Q14.62 7.45 15.02 8.26L15.02 8.26L15.02 8.26Q15.43 9.07 15.43 10.08L15.43 10.08L15.43 10.08Q15.43 11.09 15.02 11.90L15.02 11.90L15.02 11.90Q14.62 12.71 13.84 13.18L13.84 13.18L13.84 13.18Q13.06 13.65 12.03 13.65L12.03 13.65ZM12.03 12.53L12.03 12.53Q13.03 12.53 13.59 11.89L13.59 11.89L13.59 11.89Q14.14 11.24 14.14 10.08L14.14 10.08L14.14 10.08Q14.14 8.92 13.59 8.27L13.59 8.27L13.59 8.27Q13.03 7.63 12.03 7.63L12.03 7.63L12.03 7.63Q11.02 7.63 10.46 8.27L10.46 8.27L10.46 8.27Q9.91 8.92 9.91 10.08L9.91 10.08L9.91 10.08Q9.91 11.24 10.46 11.89L10.46 11.89L10.46 11.89Q11.02 12.53 12.03 12.53L12.03 12.53ZM21.10 6.65L22.36 6.65L22.36 13.51L21.24 13.51L21.10 12.75L21.10 12.75Q20.76 13.22 20.31 13.43L20.31 13.43L20.31 13.43Q19.85 13.65 19.19 13.65L19.19 13.65L19.19 13.65Q17.96 13.65 17.31 12.90L17.31 12.90L17.31 12.90Q16.66 12.15 16.66 10.64L16.66 10.64L16.66 6.65L17.92 6.65L17.92 10.29L17.92 10.29Q17.92 11.41 18.30 11.97L18.30 11.97L18.30 11.97Q18.69 12.53 19.52 12.53L19.52 12.53L19.52 12.53Q20.01 12.53 20.43 12.33L20.43 12.33L20.43 12.33Q20.86 12.14 21.10 11.76L21.10 11.76L21.10 6.65ZM26.43 13.65L26.43 13.65Q25.52 13.65 25.08 13.17L25.08 13.17L25.08 13.17Q24.64 12.70 24.64 12.01L24.64 12.01L24.64 7.63L23.46 7.63L23.58 6.65L24.64 6.65L24.64 4.96L25.90 4.83L25.90 6.65L27.71 6.65L27.71 7.63L25.90 7.63L25.90 11.24L25.90 11.24Q25.90 11.96 25.98 12.22L25.98 12.22L25.98 12.22Q26.07 12.49 26.34 12.56L26.34 12.56L26.34 12.56Q26.61 12.64 27.34 12.64L27.34 12.64L27.66 12.64L27.57 13.65L26.43 13.65ZM32.06 6.51L32.06 6.51Q33.36 6.51 34.05 7.36L34.05 7.36L34.05 7.36Q34.73 8.22 34.73 9.69L34.73 9.69L34.73 13.51L33.47 13.51L33.47 9.84L33.47 9.84Q33.47 8.71 33.06 8.17L33.06 8.17L33.06 8.17Q32.65 7.63 31.78 7.63L31.78 7.63L31.78 7.63Q31.25 7.63 30.80 7.88L30.80 7.88L30.80 7.88Q30.35 8.12 30.04 8.57L30.04 8.57L30.04 13.51L28.77 13.51L28.77 3.01L30.04 3.01L30.04 7.31L30.04 7.31Q30.45 6.92 30.93 6.71L30.93 6.71L30.93 6.71Q31.42 6.51 32.06 6.51L32.06 6.51ZM39.79 13.51L39.79 3.71L45.77 3.71L45.77 4.91L41.12 4.91L41.12 7.78L44.81 7.78L44.81 8.99L41.12 8.99L41.12 12.31L45.89 12.31L45.89 13.51L39.79 13.51ZM50.67 6.51L50.67 6.51Q53.47 6.51 53.47 9.73L53.47 9.73L53.47 13.51L52.21 13.51L52.21 9.73L52.21 9.73Q52.21 8.62 51.79 8.13L51.79 8.13L51.79 8.13Q51.38 7.63 50.41 7.63L50.41 7.63L50.41 7.63Q49.80 7.63 49.29 7.85L49.29 7.85L49.29 7.85Q48.79 8.08 48.54 8.53L48.54 8.53L48.54 13.51L47.28 13.51L47.28 6.65L48.26 6.65L48.40 7.38L48.40 7.38Q48.94 6.89 49.50 6.70L49.50 6.70L49.50 6.70Q50.05 6.51 50.67 6.51L50.67 6.51ZM59.92 3.01L61.18 3.01L61.18 13.51L60.06 13.51L59.92 12.67L59.92 12.67Q59.57 13.15 59.01 13.40L59.01 13.40L59.01 13.40Q58.45 13.65 57.82 13.65L57.82 13.65L57.82 13.65Q56.95 13.65 56.24 13.17L56.24 13.17L56.24 13.17Q55.52 12.70 55.11 11.89L55.11 11.89L55.11 11.89Q54.70 11.07 54.70 10.09L54.70 10.09L54.70 10.09Q54.70 9.14 55.08 8.32L55.08 8.32L55.08 8.32Q55.47 7.49 56.18 7L56.18 7L56.18 7Q56.90 6.51 57.82 6.51L57.82 6.51L57.82 6.51Q58.44 6.51 58.98 6.73L58.98 6.73L58.98 6.73Q59.53 6.96 59.92 7.42L59.92 7.42L59.92 3.01ZM58.04 12.53L58.04 12.53Q58.55 12.53 59.01 12.27L59.01 12.27L59.01 12.27Q59.47 12.01 59.77 11.47L59.77 11.47L59.77 11.47Q60.06 10.92 60.06 10.09L60.06 10.09L60.06 10.09Q60.06 9.32 59.77 8.76L59.77 8.76L59.77 8.76Q59.47 8.20 59.00 7.92L59.00 7.92L59.00 7.92Q58.53 7.63 58.04 7.63L58.04 7.63L58.04 7.63Q57.09 7.63 56.54 8.32L56.54 8.32L56.54 8.32Q55.99 9.02 55.99 10.09L55.99 10.09L55.99 10.09Q55.99 11.13 56.55 11.83L56.55 11.83L56.55 11.83Q57.11 12.53 58.04 12.53L58.04 12.53ZM68.00 13.51L65.23 3.71L66.63 3.71L68.70 11.79L71.09 3.91L72.49 3.91L74.89 11.79L76.96 3.71L78.36 3.71L75.59 13.51L74.17 13.51L71.79 5.63L69.41 13.51L68.00 13.51ZM82.56 13.65L82.56 13.65Q81.38 13.65 80.55 13.17L80.55 13.17L80.55 13.17Q79.72 12.68 79.28 11.86L79.28 11.86L79.28 11.86Q78.85 11.03 78.85 10.02L78.85 10.02L78.85 10.02Q78.85 9.06 79.25 8.25L79.25 8.25L79.25 8.25Q79.65 7.45 80.41 6.98L80.41 6.98L80.41 6.98Q81.17 6.51 82.21 6.51L82.21 6.51L82.21 6.51Q83.52 6.51 84.34 7.28L84.34 7.28L84.34 7.28Q85.16 8.05 85.16 9.41L85.16 9.41L85.16 9.41Q85.16 9.76 85.11 10.08L85.11 10.08L80.14 10.08L80.14 10.08Q80.26 11.41 80.95 11.97L80.95 11.97L80.95 11.97Q81.63 12.53 82.71 12.53L82.71 12.53L82.71 12.53Q83.79 12.53 84.69 12.12L84.69 12.12L84.85 13.12L84.85 13.12Q83.66 13.65 82.56 13.65L82.56 13.65ZM80.25 9.21L83.86 9.21L83.86 9.21Q83.86 8.47 83.44 8.05L83.44 8.05L83.44 8.05Q83.02 7.63 82.18 7.63L82.18 7.63L82.18 7.63Q81.37 7.63 80.91 8.03L80.91 8.03L80.91 8.03Q80.44 8.43 80.25 9.21L80.25 9.21ZM89.81 6.51L89.81 6.51Q90.73 6.51 91.44 7L91.44 7L91.44 7Q92.15 7.49 92.53 8.31L92.53 8.31L92.53 8.31Q92.90 9.13 92.90 10.08L92.90 10.08L92.90 10.08Q92.90 11.06 92.49 11.88L92.49 11.88L92.49 11.88Q92.08 12.70 91.37 13.17L91.37 13.17L91.37 13.17Q90.66 13.65 89.81 13.65L89.81 13.65L89.81 13.65Q89.18 13.65 88.59 13.39L88.59 13.39L88.59 13.39Q88.00 13.13 87.68 12.67L87.68 12.67L87.54 13.51L86.42 13.51L86.42 3.01L87.68 3.01L87.68 7.45L87.68 7.45Q88.06 7.01 88.63 6.76L88.63 6.76L88.63 6.76Q89.19 6.51 89.81 6.51L89.81 6.51ZM89.66 12.53L89.66 12.53Q90.54 12.53 91.08 11.82L91.08 11.82L91.08 11.82Q91.62 11.12 91.62 10.08L91.62 10.08L91.62 10.08Q91.62 9.02 91.08 8.32L91.08 8.32L91.08 8.32Q90.54 7.63 89.66 7.63L89.66 7.63L89.66 7.63Q88.79 7.63 88.20 8.27L88.20 8.27L88.20 8.27Q87.61 8.90 87.61 10.08L87.61 10.08L87.61 10.08Q87.61 11.30 88.19 11.91L88.19 11.91L88.19 11.91Q88.77 12.53 89.66 12.53L89.66 12.53ZM97.62 13.51L97.62 3.71L101.25 3.71L101.25 3.71Q102.68 3.71 103.78 4.29L103.78 4.29L103.78 4.29Q104.89 4.87 105.50 5.98L105.50 5.98L105.50 5.98Q106.12 7.10 106.12 8.61L106.12 8.61L106.12 8.61Q106.12 10.12 105.50 11.23L105.50 11.23L105.50 11.23Q104.89 12.35 103.78 12.93L103.78 12.93L103.78 12.93Q102.68 13.51 101.25 13.51L101.25 13.51L97.62 13.51ZM98.95 12.31L101.25 12.31L101.25 12.31Q102.89 12.31 103.78 11.30L103.78 11.30L103.78 11.30Q104.66 10.30 104.66 8.61L104.66 8.61L104.66 8.61Q104.66 6.92 103.78 5.92L103.78 5.92L103.78 5.92Q102.89 4.91 101.25 4.91L101.25 4.91L98.95 4.91L98.95 12.31ZM110.82 13.65L110.82 13.65Q109.65 13.65 108.82 13.17L108.82 13.17L108.82 13.17Q107.98 12.68 107.55 11.86L107.55 11.86L107.55 11.86Q107.11 11.03 107.11 10.02L107.11 10.02L107.11 10.02Q107.11 9.06 107.51 8.25L107.51 8.25L107.51 8.25Q107.91 7.45 108.68 6.98L108.68 6.98L108.68 6.98Q109.44 6.51 110.47 6.51L110.47 6.51L110.47 6.51Q111.79 6.51 112.61 7.28L112.61 7.28L112.61 7.28Q113.43 8.05 113.43 9.41L113.43 9.41L113.43 9.41Q113.43 9.76 113.37 10.08L113.37 10.08L108.40 10.08L108.40 10.08Q108.53 11.41 109.21 11.97L109.21 11.97L109.21 11.97Q109.90 12.53 110.98 12.53L110.98 12.53L110.98 12.53Q112.06 12.53 112.95 12.12L112.95 12.12L113.12 13.12L113.12 13.12Q111.93 13.65 110.82 13.65L110.82 13.65ZM108.51 9.21L112.13 9.21L112.13 9.21Q112.13 8.47 111.71 8.05L111.71 8.05L111.71 8.05Q111.29 7.63 110.45 7.63L110.45 7.63L110.45 7.63Q109.63 7.63 109.17 8.03L109.17 8.03L109.17 8.03Q108.71 8.43 108.51 9.21L108.51 9.21ZM116.65 13.65L116.65 13.65Q115.84 13.65 115.23 13.46L115.23 13.46L115.23 13.46Q114.62 13.27 114.30 13.05L114.30 13.05L114.45 11.83L114.45 11.83Q114.73 12.08 115.31 12.31L115.31 12.31L115.31 12.31Q115.89 12.53 116.59 12.53L116.59 12.53L116.59 12.53Q117.25 12.53 117.61 12.31L117.61 12.31L117.61 12.31Q117.96 12.08 117.96 11.68L117.96 11.68L117.96 11.68Q117.96 11.20 117.57 10.96L117.57 10.96L117.57 10.96Q117.18 10.71 116.59 10.54L116.59 10.54L116.59 10.54Q115.95 10.37 115.51 10.18L115.51 10.18L115.51 10.18Q115.07 10.00 114.75 9.60L114.75 9.60L114.75 9.60Q114.44 9.21 114.44 8.57L114.44 8.57L114.44 8.57Q114.44 7.69 115.07 7.10L115.07 7.10L115.07 7.10Q115.70 6.51 117.01 6.51L117.01 6.51L117.01 6.51Q117.61 6.51 118.03 6.63L118.03 6.63L118.03 6.63Q118.45 6.75 118.87 6.96L118.87 6.96L118.72 8.11L118.72 8.11Q118.38 7.83 117.98 7.67L117.98 7.67L117.98 7.67Q117.57 7.50 117.04 7.50L117.04 7.50L117.04 7.50Q116.42 7.50 116.07 7.73L116.07 7.73L116.07 7.73Q115.71 7.97 115.71 8.43L115.71 8.43L115.71 8.43Q115.71 8.74 115.88 8.93L115.88 8.93L115.88 8.93Q116.05 9.11 116.35 9.24L116.35 9.24L116.35 9.24Q116.66 9.37 117.31 9.56L117.31 9.56L117.31 9.56Q118.10 9.80 118.69 10.23L118.69 10.23L118.69 10.23Q119.27 10.67 119.27 11.61L119.27 11.61L119.27 11.61Q119.27 12.45 118.67 13.05L118.67 13.05L118.67 13.05Q118.08 13.65 116.65 13.65L116.65 13.65ZM120.50 5.11L120.50 3.71L121.76 3.71L121.76 5.11L120.50 5.11ZM120.50 13.51L120.50 6.65L121.76 6.65L121.76 13.51L120.50 13.51ZM126.24 17.01L126.24 17.01Q124.78 17.01 123.88 16.48L123.88 16.48L123.88 16.48Q122.98 15.95 122.98 14.97L122.98 14.97L122.98 14.97Q122.98 13.89 124.17 13.36L124.17 13.36L124.17 13.36Q123.49 13.02 123.49 12.49L123.49 12.49L123.49 12.49Q123.49 11.82 124.31 11.49L124.31 11.49L124.31 11.49Q123.73 11.14 123.42 10.54L123.42 10.54L123.42 10.54Q123.12 9.94 123.12 9.18L123.12 9.18L123.12 9.18Q123.12 8.43 123.46 7.82L123.46 7.82L123.46 7.82Q123.80 7.21 124.44 6.86L124.44 6.86L124.44 6.86Q125.08 6.51 125.94 6.51L125.94 6.51L125.94 6.51Q126.87 6.51 127.62 7.04L127.62 7.04L127.62 7.04Q128.37 6.62 129.33 6.62L129.33 6.62L129.44 6.62L129.29 7.46L128.97 7.46L128.97 7.46Q128.84 7.46 128.60 7.49L128.60 7.49L128.60 7.49Q128.37 7.52 128.18 7.56L128.18 7.56L128.18 7.56Q128.48 7.90 128.63 8.32L128.63 8.32L128.63 8.32Q128.79 8.74 128.79 9.18L128.79 9.18L128.79 9.18Q128.79 9.97 128.44 10.59L128.44 10.59L128.44 10.59Q128.10 11.21 127.46 11.57L127.46 11.57L127.46 11.57Q126.81 11.93 125.94 11.93L125.94 11.93L125.94 11.93Q125.44 11.93 125.02 11.80L125.02 11.80L125.02 11.80Q124.70 11.91 124.70 12.17L124.70 12.17L124.70 12.17Q124.70 12.50 125.47 12.61L125.47 12.61L127.30 12.91L127.30 12.91Q128.45 13.09 129.04 13.57L129.04 13.57L129.04 13.57Q129.63 14.04 129.63 14.88L129.63 14.88L129.63 14.88Q129.63 15.93 128.72 16.47L128.72 16.47L128.72 16.47Q127.82 17.01 126.24 17.01L126.24 17.01ZM125.94 10.92L125.94 10.92Q126.73 10.92 127.16 10.45L127.16 10.45L127.16 10.45Q127.58 9.98 127.58 9.20L127.58 9.20L127.58 9.20Q127.58 8.44 127.16 7.98L127.16 7.98L127.16 7.98Q126.73 7.52 125.94 7.52L125.94 7.52L125.94 7.52Q125.16 7.52 124.74 7.98L124.74 7.98L124.74 7.98Q124.32 8.44 124.32 9.20L124.32 9.20L124.32 9.20Q124.32 9.98 124.74 10.45L124.74 10.45L124.74 10.45Q125.16 10.92 125.94 10.92L125.94 10.92ZM126.35 15.89L126.35 15.89Q127.32 15.89 127.83 15.64L127.83 15.64L127.83 15.64Q128.35 15.39 128.35 14.91L128.35 14.91L128.35 14.91Q128.35 14.55 128.04 14.33L128.04 14.33L128.04 14.33Q127.72 14.11 127.09 13.99L127.09 13.99L125.13 13.65L125.13 13.65Q124.71 13.85 124.45 14.13L124.45 14.13L124.45 14.13Q124.18 14.42 124.18 14.77L124.18 14.77L124.18 14.77Q124.18 15.34 124.75 15.62L124.75 15.62L124.75 15.62Q125.33 15.89 126.35 15.89L126.35 15.89ZM133.83 6.51L133.83 6.51Q136.63 6.51 136.63 9.73L136.63 9.73L136.63 13.51L135.37 13.51L135.37 9.73L135.37 9.73Q135.37 8.62 134.95 8.13L134.95 8.13L134.95 8.13Q134.54 7.63 133.57 7.63L133.57 7.63L133.57 7.63Q132.96 7.63 132.45 7.85L132.45 7.85L132.45 7.85Q131.95 8.08 131.70 8.53L131.70 8.53L131.70 13.51L130.44 13.51L130.44 6.65L131.42 6.65L131.56 7.38L131.56 7.38Q132.10 6.89 132.66 6.70L132.66 6.70L132.66 6.70Q133.21 6.51 133.83 6.51L133.83 6.51Z"></path></g><!----><g data-v-423bf9ae="" id="73908f50-0680-4784-9e46-14bdccd32033" transform="matrix(4.455445376275492,0,0,4.455445376275492,-21.4653445153059,-7.565343813269372)" stroke="none" fill="#C67D4E"><path d="M9.305 19l.2-2h4.99l.2 2h-5.39zm.6-6h4.19l.2 2h-4.59l.2-2zm.4-4h3.39l.2 2h-3.79l.2-2zm.4-4h2.59l.2 2h-2.99l.2-2zM19 19h-2.295l-.2-2H18.5v-2h-2.195l-.2-2H18v-2h-2.095l-.2-2H17.5V7h-1.995l-.2-2H17V3h-1.895l-.11-1.1-1.99.2.09.9h-2.19l.09-.9-1.99-.2-.11 1.1H7v2h1.695l-.2 2H6.5v2h1.795l-.2 2H6v2h1.895l-.2 2H5.5v2h1.995l-.2 2H5v2h2.095l-.09.9 1.99.2.11-1.1h5.79l.11 1.1 1.99-.2-.09-.9H19v-2z"></path></g><!----><g data-v-423bf9ae="" id="db637f26-ee08-478b-8150-2b6ecdfeaf7d" fill="#ffffff" transform="matrix(0.8936838928572934,0,0,0.8936838928572934,82.24218130778348,54.9238739121872)"><path d="M8.41 5.88L7.42 15.68L5.28 15.68L4.37 6.38L4.20 6.38L3.29 15.68L1.15 15.68L0.15 5.88L1.22 5.88L2.16 15.18L2.32 15.18L3.21 5.88L5.36 5.88L6.24 15.18L6.41 15.18L7.35 5.88L8.41 5.88ZM16.88 15.68L16.88 5.88L22.82 5.88L22.82 6.97L18.06 6.97L18.06 10.22L22.74 10.22L22.74 11.31L18.06 11.31L18.06 14.59L22.90 14.59L22.90 15.68L16.88 15.68ZM31.93 15.68L31.93 14.59L32.77 14.59L32.77 6.97L31.93 6.97L31.93 5.88L35.90 5.88L35.90 5.88Q36.60 5.88 37.13 6.08L37.13 6.08L37.13 6.08Q37.67 6.27 38.05 6.61L38.05 6.61L38.05 6.61Q38.42 6.94 38.60 7.41L38.60 7.41L38.60 7.41Q38.79 7.88 38.79 8.43L38.79 8.43L38.79 8.60L38.79 8.60Q38.79 9.00 38.67 9.34L38.67 9.34L38.67 9.34Q38.54 9.67 38.32 9.94L38.32 9.94L38.32 9.94Q38.09 10.21 37.79 10.39L37.79 10.39L37.79 10.39Q37.49 10.58 37.14 10.68L37.14 10.68L37.14 10.85L37.14 10.85Q37.84 11.05 38.32 11.60L38.32 11.60L38.32 11.60Q38.79 12.15 38.79 12.95L38.79 12.95L38.79 13.12L38.79 13.12Q38.79 13.66 38.60 14.13L38.60 14.13L38.60 14.13Q38.42 14.60 38.05 14.95L38.05 14.95L38.05 14.95Q37.67 15.29 37.13 15.48L37.13 15.48L37.13 15.48Q36.60 15.68 35.90 15.68L35.90 15.68L31.93 15.68ZM33.95 11.31L33.95 14.59L35.81 14.59L35.81 14.59Q36.64 14.59 37.16 14.17L37.16 14.17L37.16 14.17Q37.67 13.76 37.67 13.03L37.67 13.03L37.67 12.95L37.67 12.95Q37.67 12.19 37.18 11.75L37.18 11.75L37.18 11.75Q36.69 11.31 35.85 11.31L35.85 11.31L33.95 11.31ZM33.95 6.97L33.95 10.22L35.85 10.22L35.85 10.22Q36.69 10.22 37.18 9.79L37.18 9.79L37.18 9.79Q37.67 9.35 37.67 8.60L37.67 8.60L37.67 8.51L37.67 8.51Q37.67 7.80 37.16 7.38L37.16 7.38L37.16 7.38Q36.64 6.97 35.81 6.97L35.81 6.97L33.95 6.97ZM63.29 6.97L63.29 5.88L66.51 5.88L66.51 5.88Q68.33 5.88 69.17 6.75L69.17 6.75L69.17 6.75Q70.01 7.62 70.01 9.52L70.01 9.52L70.01 12.04L70.01 12.04Q70.01 13.94 69.17 14.81L69.17 14.81L69.17 14.81Q68.33 15.68 66.51 15.68L66.51 15.68L63.29 15.68L63.29 14.57L64.13 14.57L64.13 6.97L63.29 6.97ZM65.31 14.59L66.35 14.59L66.35 14.59Q66.99 14.59 67.46 14.46L67.46 14.46L67.46 14.46Q67.93 14.34 68.24 14.04L68.24 14.04L68.24 14.04Q68.54 13.73 68.69 13.23L68.69 13.23L68.69 13.23Q68.84 12.73 68.84 11.96L68.84 11.96L68.84 9.60L68.84 9.60Q68.84 8.83 68.69 8.33L68.69 8.33L68.69 8.33Q68.54 7.83 68.24 7.53L68.24 7.53L68.24 7.53Q67.93 7.22 67.46 7.10L67.46 7.10L67.46 7.10Q66.99 6.97 66.35 6.97L66.35 6.97L65.31 6.97L65.31 14.59ZM79.16 15.68L79.16 5.88L85.09 5.88L85.09 6.97L80.33 6.97L80.33 10.22L85.01 10.22L85.01 11.31L80.33 11.31L80.33 14.59L85.18 14.59L85.18 15.68L79.16 15.68ZM96.56 15.68L93.79 5.88L95.05 5.88L97.61 15.18L97.78 15.18L100.34 5.88L101.60 5.88L98.83 15.68L96.56 15.68ZM110.29 15.68L110.29 5.88L116.23 5.88L116.23 6.97L111.47 6.97L111.47 10.22L116.14 10.22L116.14 11.31L111.47 11.31L111.47 14.59L116.31 14.59L116.31 15.68L110.29 15.68ZM125.76 15.68L125.76 5.88L126.94 5.88L126.94 14.59L132.06 14.59L132.06 15.68L125.76 15.68ZM140.95 11.87L140.95 9.69L140.95 9.69Q140.95 7.78 141.86 6.73L141.86 6.73L141.86 6.73Q142.77 5.68 144.40 5.68L144.40 5.68L144.40 5.68Q146.02 5.68 146.93 6.73L146.93 6.73L146.93 6.73Q147.84 7.78 147.84 9.69L147.84 9.69L147.84 11.87L147.84 11.87Q147.84 13.83 146.93 14.85L146.93 14.85L146.93 14.85Q146.02 15.88 144.40 15.88L144.40 15.88L144.40 15.88Q142.77 15.88 141.86 14.85L141.86 14.85L141.86 14.85Q140.95 13.83 140.95 11.87L140.95 11.87ZM144.40 14.78L144.40 14.78L144.40 14.78Q145.53 14.78 146.10 14.01L146.10 14.01L146.10 14.01Q146.66 13.23 146.66 11.79L146.66 11.79L146.66 9.77L146.66 9.77Q146.66 8.43 146.10 7.60L146.10 7.60L146.10 7.60Q145.53 6.78 144.40 6.78L144.40 6.78L144.40 6.78Q143.26 6.78 142.69 7.60L142.69 7.60L142.69 7.60Q142.13 8.43 142.13 9.77L142.13 9.77L142.13 11.79L142.13 11.79Q142.13 13.23 142.69 14.01L142.69 14.01L142.69 14.01Q143.26 14.78 144.40 14.78ZM160.37 11.65L158.05 11.65L158.05 15.68L156.87 15.68L156.87 5.88L160.37 5.88L160.37 5.88Q161.13 5.88 161.69 6.10L161.69 6.10L161.69 6.10Q162.25 6.31 162.62 6.68L162.62 6.68L162.62 6.68Q162.99 7.04 163.18 7.53L163.18 7.53L163.18 7.53Q163.37 8.01 163.37 8.54L163.37 8.54L163.37 8.96L163.37 8.96Q163.37 9.49 163.18 9.98L163.18 9.98L163.18 9.98Q162.99 10.47 162.61 10.84L162.61 10.84L162.61 10.84Q162.23 11.21 161.67 11.43L161.67 11.43L161.67 11.43Q161.11 11.65 160.37 11.65L160.37 11.65ZM158.05 6.97L158.05 10.56L160.23 10.56L160.23 10.56Q162.19 10.56 162.19 8.88L162.19 8.88L162.19 8.62L162.19 8.62Q162.19 7.88 161.71 7.43L161.71 7.43L161.71 7.43Q161.22 6.97 160.23 6.97L160.23 6.97L158.05 6.97ZM171.89 15.68L171.89 5.88L174.13 5.88L175.45 15.18L175.62 15.18L176.93 5.88L179.17 5.88L179.17 15.68L178.08 15.68L178.08 6.38L177.91 6.38L176.60 15.68L174.47 15.68L173.15 6.38L172.98 6.38L172.98 15.68L171.89 15.68ZM188.13 15.68L188.13 5.88L194.07 5.88L194.07 6.97L189.31 6.97L189.31 10.22L193.98 10.22L193.98 11.31L189.31 11.31L189.31 14.59L194.15 14.59L194.15 15.68L188.13 15.68ZM205.76 5.88L208.59 15.18L208.75 15.18L208.75 5.88L209.93 5.88L209.93 15.68L207.58 15.68L204.75 6.38L204.58 6.38L204.58 15.68L203.41 15.68L203.41 5.88L205.76 5.88ZM218.79 6.97L218.79 5.88L225.68 5.88L225.68 6.97L222.82 6.97L222.82 15.68L221.65 15.68L221.65 6.97L218.79 6.97ZM250.42 15.68L250.42 5.88L256.44 5.88L256.44 6.97L251.59 6.97L251.59 10.22L256.35 10.22L256.35 11.31L251.59 11.31L251.59 15.68L250.42 15.68ZM265.50 11.87L265.50 9.69L265.50 9.69Q265.50 7.78 266.41 6.73L266.41 6.73L266.41 6.73Q267.32 5.68 268.94 5.68L268.94 5.68L268.94 5.68Q270.56 5.68 271.47 6.73L271.47 6.73L271.47 6.73Q272.38 7.78 272.38 9.69L272.38 9.69L272.38 11.87L272.38 11.87Q272.38 13.83 271.47 14.85L271.47 14.85L271.47 14.85Q270.56 15.88 268.94 15.88L268.94 15.88L268.94 15.88Q267.32 15.88 266.41 14.85L266.41 14.85L266.41 14.85Q265.50 13.83 265.50 11.87L265.50 11.87ZM268.94 14.78L268.94 14.78L268.94 14.78Q270.07 14.78 270.64 14.01L270.64 14.01L270.64 14.01Q271.21 13.23 271.21 11.79L271.21 11.79L271.21 9.77L271.21 9.77Q271.21 8.43 270.64 7.60L270.64 7.60L270.64 7.60Q270.07 6.78 268.94 6.78L268.94 6.78L268.94 6.78Q267.81 6.78 267.24 7.60L267.24 7.60L267.24 7.60Q266.67 8.43 266.67 9.77L266.67 9.77L266.67 11.79L266.67 11.79Q266.67 13.23 267.24 14.01L267.24 14.01L267.24 14.01Q267.81 14.78 268.94 14.78ZM287.57 12.15L287.57 15.68L286.40 15.68L286.40 12.40L286.40 12.40Q286.40 12.04 286.23 11.84L286.23 11.84L286.23 11.84Q286.06 11.65 285.64 11.65L285.64 11.65L282.59 11.65L282.59 15.68L281.41 15.68L281.41 5.88L284.91 5.88L284.91 5.88Q285.67 5.88 286.23 6.10L286.23 6.10L286.23 6.10Q286.79 6.31 287.16 6.68L287.16 6.68L287.16 6.68Q287.53 7.04 287.72 7.53L287.72 7.53L287.72 7.53Q287.91 8.01 287.91 8.54L287.91 8.54L287.91 8.96L287.91 8.96Q287.91 9.51 287.61 10.05L287.61 10.05L287.61 10.05Q287.31 10.60 286.68 10.89L286.68 10.89L286.68 11.06L286.68 11.06Q287.10 11.13 287.34 11.40L287.34 11.40L287.34 11.40Q287.57 11.66 287.57 12.15L287.57 12.15ZM282.59 6.97L282.59 10.56L284.77 10.56L284.77 10.56Q285.77 10.56 286.25 10.13L286.25 10.13L286.25 10.13Q286.73 9.70 286.73 8.88L286.73 8.88L286.73 8.62L286.73 8.62Q286.73 7.88 286.25 7.43L286.25 7.43L286.25 7.43Q285.77 6.97 284.77 6.97L284.77 6.97L282.59 6.97ZM312.58 15.68L312.58 5.88L313.75 5.88L313.75 14.59L318.88 14.59L318.88 15.68L312.58 15.68ZM327.77 11.87L327.77 9.69L327.77 9.69Q327.77 7.78 328.68 6.73L328.68 6.73L328.68 6.73Q329.59 5.68 331.21 5.68L331.21 5.68L331.21 5.68Q332.84 5.68 333.75 6.73L333.75 6.73L333.75 6.73Q334.66 7.78 334.66 9.69L334.66 9.69L334.66 11.87L334.66 11.87Q334.66 13.83 333.75 14.85L333.75 14.85L333.75 14.85Q332.84 15.88 331.21 15.88L331.21 15.88L331.21 15.88Q329.59 15.88 328.68 14.85L328.68 14.85L328.68 14.85Q327.77 13.83 327.77 11.87L327.77 11.87ZM331.21 14.78L331.21 14.78L331.21 14.78Q332.35 14.78 332.91 14.01L332.91 14.01L332.91 14.01Q333.48 13.23 333.48 11.79L333.48 11.79L333.48 9.77L333.48 9.77Q333.48 8.43 332.91 7.60L332.91 7.60L332.91 7.60Q332.35 6.78 331.21 6.78L331.21 6.78L331.21 6.78Q330.08 6.78 329.51 7.60L329.51 7.60L329.51 7.60Q328.94 8.43 328.94 9.77L328.94 9.77L328.94 11.79L328.94 11.79Q328.94 13.23 329.51 14.01L329.51 14.01L329.51 14.01Q330.08 14.78 331.21 14.78ZM346.84 14.78L346.84 14.78L346.84 14.78Q347.44 14.78 347.87 14.58L347.87 14.58L347.87 14.58Q348.29 14.38 348.56 14.04L348.56 14.04L348.56 14.04Q348.84 13.69 348.97 13.25L348.97 13.25L348.97 13.25Q349.10 12.81 349.10 12.32L349.10 12.32L349.10 12.15L350.28 12.15L350.28 12.32L350.28 12.32Q350.28 13.06 350.06 13.71L350.06 13.71L350.06 13.71Q349.83 14.36 349.40 14.85L349.40 14.85L349.40 14.85Q348.96 15.33 348.32 15.60L348.32 15.60L348.32 15.60Q347.68 15.88 346.84 15.88L346.84 15.88L346.84 15.88Q345.21 15.88 344.30 14.85L344.30 14.85L344.30 14.85Q343.39 13.83 343.39 11.87L343.39 11.87L343.39 9.69L343.39 9.69Q343.39 7.78 344.30 6.73L344.30 6.73L344.30 6.73Q345.21 5.68 346.84 5.68L346.84 5.68L346.84 5.68Q347.68 5.68 348.32 5.96L348.32 5.96L348.32 5.96Q348.96 6.23 349.40 6.71L349.40 6.71L349.40 6.71Q349.83 7.20 350.06 7.85L350.06 7.85L350.06 7.85Q350.28 8.50 350.28 9.24L350.28 9.24L350.28 9.41L349.10 9.41L349.10 9.24L349.10 9.24Q349.09 8.76 348.96 8.32L348.96 8.32L348.96 8.32Q348.82 7.87 348.55 7.53L348.55 7.53L348.55 7.53Q348.28 7.18 347.86 6.98L347.86 6.98L347.86 6.98Q347.44 6.78 346.84 6.78L346.84 6.78L346.84 6.78Q345.70 6.78 345.13 7.60L345.13 7.60L345.13 7.60Q344.57 8.43 344.57 9.77L344.57 9.77L344.57 11.79L344.57 11.79Q344.57 13.23 345.13 14.01L345.13 14.01L345.13 14.01Q345.70 14.78 346.84 14.78ZM365.16 15.68L364.45 13.24L360.25 13.24L359.53 15.68L358.27 15.68L361.24 5.88L363.45 5.88L366.42 15.68L365.16 15.68ZM362.43 6.38L362.26 6.38L360.57 12.15L364.13 12.15L362.43 6.38ZM374.85 15.68L374.85 5.88L376.03 5.88L376.03 14.59L381.15 14.59L381.15 15.68L374.85 15.68ZM405.57 15.68L405.57 14.59L406.41 14.59L406.41 6.97L405.57 6.97L405.57 5.88L409.53 5.88L409.53 5.88Q410.23 5.88 410.77 6.08L410.77 6.08L410.77 6.08Q411.31 6.27 411.68 6.61L411.68 6.61L411.68 6.61Q412.05 6.94 412.24 7.41L412.24 7.41L412.24 7.41Q412.43 7.88 412.43 8.43L412.43 8.43L412.43 8.60L412.43 8.60Q412.43 9.00 412.30 9.34L412.30 9.34L412.30 9.34Q412.17 9.67 411.95 9.94L411.95 9.94L411.95 9.94Q411.73 10.21 411.42 10.39L411.42 10.39L411.42 10.39Q411.12 10.58 410.77 10.68L410.77 10.68L410.77 10.85L410.77 10.85Q411.47 11.05 411.95 11.60L411.95 11.60L411.95 11.60Q412.43 12.15 412.43 12.95L412.43 12.95L412.43 13.12L412.43 13.12Q412.43 13.66 412.24 14.13L412.24 14.13L412.24 14.13Q412.05 14.60 411.68 14.95L411.68 14.95L411.68 14.95Q411.31 15.29 410.77 15.48L410.77 15.48L410.77 15.48Q410.23 15.68 409.53 15.68L409.53 15.68L405.57 15.68ZM407.58 11.31L407.58 14.59L409.44 14.59L409.44 14.59Q410.27 14.59 410.79 14.17L410.79 14.17L410.79 14.17Q411.31 13.76 411.31 13.03L411.31 13.03L411.31 12.95L411.31 12.95Q411.31 12.19 410.82 11.75L410.82 11.75L410.82 11.75Q410.33 11.31 409.49 11.31L409.49 11.31L407.58 11.31ZM407.58 6.97L407.58 10.22L409.49 10.22L409.49 10.22Q410.33 10.22 410.82 9.79L410.82 9.79L410.82 9.79Q411.31 9.35 411.31 8.60L411.31 8.60L411.31 8.51L411.31 8.51Q411.31 7.80 410.79 7.38L410.79 7.38L410.79 7.38Q410.27 6.97 409.44 6.97L409.44 6.97L407.58 6.97ZM421.26 5.88L422.44 5.88L422.44 12.38L422.44 12.38Q422.44 13.57 422.99 14.17L422.99 14.17L422.99 14.17Q423.54 14.78 424.62 14.78L424.62 14.78L424.62 14.78Q425.70 14.78 426.25 14.17L426.25 14.17L426.25 14.17Q426.80 13.57 426.80 12.38L426.80 12.38L426.80 5.88L427.98 5.88L427.98 12.38L427.98 12.38Q427.98 14.08 427.08 14.98L427.08 14.98L427.08 14.98Q426.19 15.88 424.62 15.88L424.62 15.88L424.62 15.88Q423.05 15.88 422.16 14.98L422.16 14.98L422.16 14.98Q421.26 14.08 421.26 12.38L421.26 12.38L421.26 5.88ZM442.50 9.21L442.50 8.71L442.50 8.71Q442.50 8.23 442.31 7.87L442.31 7.87L442.31 7.87Q442.12 7.50 441.80 7.27L441.80 7.27L441.80 7.27Q441.48 7.03 441.06 6.90L441.06 6.90L441.06 6.90Q440.64 6.78 440.17 6.78L440.17 6.78L440.17 6.78Q439.77 6.78 439.40 6.88L439.40 6.88L439.40 6.88Q439.04 6.99 438.75 7.18L438.75 7.18L438.75 7.18Q438.47 7.38 438.30 7.66L438.30 7.66L438.30 7.66Q438.13 7.95 438.13 8.33L438.13 8.33L438.13 8.41L438.13 8.41Q438.13 8.82 438.30 9.11L438.30 9.11L438.30 9.11Q438.47 9.39 438.79 9.60L438.79 9.60L438.79 9.60Q439.12 9.80 439.61 9.93L439.61 9.93L439.61 9.93Q440.10 10.07 440.76 10.16L440.76 10.16L440.76 10.16Q442.30 10.40 443.03 11.07L443.03 11.07L443.03 11.07Q443.76 11.73 443.76 12.85L443.76 12.85L443.76 13.02L443.76 13.02Q443.76 13.65 443.54 14.17L443.54 14.17L443.54 14.17Q443.32 14.70 442.90 15.08L442.90 15.08L442.90 15.08Q442.47 15.46 441.84 15.67L441.84 15.67L441.84 15.67Q441.21 15.88 440.38 15.88L440.38 15.88L440.38 15.88Q439.45 15.88 438.72 15.60L438.72 15.60L438.72 15.60Q438.00 15.33 437.52 14.85L437.52 14.85L437.52 14.85Q437.04 14.36 436.79 13.71L436.79 13.71L436.79 13.71Q436.53 13.06 436.53 12.29L436.53 12.29L436.53 11.87L437.71 11.87L437.71 12.21L437.71 12.21Q437.71 13.50 438.42 14.14L438.42 14.14L438.42 14.14Q439.12 14.78 440.38 14.78L440.38 14.78L440.38 14.78Q441.48 14.78 442.03 14.30L442.03 14.30L442.03 14.30Q442.58 13.82 442.58 13.02L442.58 13.02L442.58 12.94L442.58 12.94Q442.58 12.17 442.01 11.76L442.01 11.76L442.01 11.76Q441.45 11.35 440.17 11.17L440.17 11.17L440.17 11.17Q439.43 11.07 438.84 10.87L438.84 10.87L438.84 10.87Q438.24 10.67 437.82 10.34L437.82 10.34L437.82 10.34Q437.40 10.01 437.18 9.55L437.18 9.55L437.18 9.55Q436.95 9.09 436.95 8.46L436.95 8.46L436.95 8.29L436.95 8.29Q436.95 7.71 437.19 7.24L437.19 7.24L437.19 7.24Q437.43 6.76 437.86 6.41L437.86 6.41L437.86 6.41Q438.28 6.06 438.88 5.87L438.88 5.87L438.88 5.87Q439.47 5.68 440.19 5.68L440.19 5.68L440.19 5.68Q441.01 5.68 441.66 5.92L441.66 5.92L441.66 5.92Q442.32 6.16 442.76 6.56L442.76 6.56L442.76 6.56Q443.21 6.96 443.44 7.50L443.44 7.50L443.44 7.50Q443.67 8.04 443.67 8.62L443.67 8.62L443.67 9.21L442.50 9.21ZM452.65 6.97L452.65 5.88L458.86 5.88L458.86 6.97L456.34 6.97L456.34 14.59L458.86 14.59L458.86 15.68L452.65 15.68L452.65 14.59L455.17 14.59L455.17 6.97L452.65 6.97ZM470.41 5.88L473.24 15.18L473.41 15.18L473.41 5.88L474.59 5.88L474.59 15.68L472.23 15.68L469.41 6.38L469.24 6.38L469.24 15.68L468.06 15.68L468.06 5.88L470.41 5.88ZM483.92 15.68L483.92 5.88L489.86 5.88L489.86 6.97L485.10 6.97L485.10 10.22L489.78 10.22L489.78 11.31L485.10 11.31L485.10 14.59L489.94 14.59L489.94 15.68L483.92 15.68ZM504.77 9.21L504.77 8.71L504.77 8.71Q504.77 8.23 504.58 7.87L504.58 7.87L504.58 7.87Q504.39 7.50 504.07 7.27L504.07 7.27L504.07 7.27Q503.75 7.03 503.33 6.90L503.33 6.90L503.33 6.90Q502.91 6.78 502.45 6.78L502.45 6.78L502.45 6.78Q502.04 6.78 501.68 6.88L501.68 6.88L501.68 6.88Q501.31 6.99 501.02 7.18L501.02 7.18L501.02 7.18Q500.74 7.38 500.57 7.66L500.57 7.66L500.57 7.66Q500.40 7.95 500.40 8.33L500.40 8.33L500.40 8.41L500.40 8.41Q500.40 8.82 500.57 9.11L500.57 9.11L500.57 9.11Q500.74 9.39 501.07 9.60L501.07 9.60L501.07 9.60Q501.40 9.80 501.89 9.93L501.89 9.93L501.89 9.93Q502.38 10.07 503.03 10.16L503.03 10.16L503.03 10.16Q504.57 10.40 505.30 11.07L505.30 11.07L505.30 11.07Q506.03 11.73 506.03 12.85L506.03 12.85L506.03 13.02L506.03 13.02Q506.03 13.65 505.81 14.17L505.81 14.17L505.81 14.17Q505.60 14.70 505.17 15.08L505.17 15.08L505.17 15.08Q504.74 15.46 504.11 15.67L504.11 15.67L504.11 15.67Q503.48 15.88 502.66 15.88L502.66 15.88L502.66 15.88Q501.72 15.88 501.00 15.60L501.00 15.60L501.00 15.60Q500.28 15.33 499.79 14.85L499.79 14.85L499.79 14.85Q499.31 14.36 499.06 13.71L499.06 13.71L499.06 13.71Q498.81 13.06 498.81 12.29L498.81 12.29L498.81 11.87L499.98 11.87L499.98 12.21L499.98 12.21Q499.98 13.50 500.69 14.14L500.69 14.14L500.69 14.14Q501.40 14.78 502.66 14.78L502.66 14.78L502.66 14.78Q503.75 14.78 504.30 14.30L504.30 14.30L504.30 14.30Q504.85 13.82 504.85 13.02L504.85 13.02L504.85 12.94L504.85 12.94Q504.85 12.17 504.29 11.76L504.29 11.76L504.29 11.76Q503.72 11.35 502.45 11.17L502.45 11.17L502.45 11.17Q501.70 11.07 501.11 10.87L501.11 10.87L501.11 10.87Q500.51 10.67 500.09 10.34L500.09 10.34L500.09 10.34Q499.67 10.01 499.45 9.55L499.45 9.55L499.45 9.55Q499.23 9.09 499.23 8.46L499.23 8.46L499.23 8.29L499.23 8.29Q499.23 7.71 499.46 7.24L499.46 7.24L499.46 7.24Q499.70 6.76 500.13 6.41L500.13 6.41L500.13 6.41Q500.56 6.06 501.15 5.87L501.15 5.87L501.15 5.87Q501.75 5.68 502.46 5.68L502.46 5.68L502.46 5.68Q503.29 5.68 503.94 5.92L503.94 5.92L503.94 5.92Q504.59 6.16 505.04 6.56L505.04 6.56L505.04 6.56Q505.48 6.96 505.71 7.50L505.71 7.50L505.71 7.50Q505.95 8.04 505.95 8.62L505.95 8.62L505.95 9.21L504.77 9.21ZM520.34 9.21L520.34 8.71L520.34 8.71Q520.34 8.23 520.15 7.87L520.15 7.87L520.15 7.87Q519.96 7.50 519.64 7.27L519.64 7.27L519.64 7.27Q519.32 7.03 518.90 6.90L518.90 6.90L518.90 6.90Q518.48 6.78 518.01 6.78L518.01 6.78L518.01 6.78Q517.61 6.78 517.24 6.88L517.24 6.88L517.24 6.88Q516.88 6.99 516.59 7.18L516.59 7.18L516.59 7.18Q516.31 7.38 516.14 7.66L516.14 7.66L516.14 7.66Q515.97 7.95 515.97 8.33L515.97 8.33L515.97 8.41L515.97 8.41Q515.97 8.82 516.14 9.11L516.14 9.11L516.14 9.11Q516.31 9.39 516.63 9.60L516.63 9.60L516.63 9.60Q516.96 9.80 517.45 9.93L517.45 9.93L517.45 9.93Q517.94 10.07 518.60 10.16L518.60 10.16L518.60 10.16Q520.14 10.40 520.87 11.07L520.87 11.07L520.87 11.07Q521.60 11.73 521.60 12.85L521.60 12.85L521.60 13.02L521.60 13.02Q521.60 13.65 521.38 14.17L521.38 14.17L521.38 14.17Q521.16 14.70 520.74 15.08L520.74 15.08L520.74 15.08Q520.31 15.46 519.68 15.67L519.68 15.67L519.68 15.67Q519.05 15.88 518.22 15.88L518.22 15.88L518.22 15.88Q517.29 15.88 516.56 15.60L516.56 15.60L516.56 15.60Q515.84 15.33 515.36 14.85L515.36 14.85L515.36 14.85Q514.88 14.36 514.63 13.71L514.63 13.71L514.63 13.71Q514.37 13.06 514.37 12.29L514.37 12.29L514.37 11.87L515.55 11.87L515.55 12.21L515.55 12.21Q515.55 13.50 516.26 14.14L516.26 14.14L516.26 14.14Q516.96 14.78 518.22 14.78L518.22 14.78L518.22 14.78Q519.32 14.78 519.87 14.30L519.87 14.30L519.87 14.30Q520.42 13.82 520.42 13.02L520.42 13.02L520.42 12.94L520.42 12.94Q520.42 12.17 519.85 11.76L519.85 11.76L519.85 11.76Q519.29 11.35 518.01 11.17L518.01 11.17L518.01 11.17Q517.27 11.07 516.68 10.87L516.68 10.87L516.68 10.87Q516.08 10.67 515.66 10.34L515.66 10.34L515.66 10.34Q515.24 10.01 515.02 9.55L515.02 9.55L515.02 9.55Q514.79 9.09 514.79 8.46L514.79 8.46L514.79 8.29L514.79 8.29Q514.79 7.71 515.03 7.24L515.03 7.24L515.03 7.24Q515.27 6.76 515.70 6.41L515.70 6.41L515.70 6.41Q516.12 6.06 516.72 5.87L516.72 5.87L516.72 5.87Q517.31 5.68 518.03 5.68L518.03 5.68L518.03 5.68Q518.85 5.68 519.50 5.92L519.50 5.92L519.50 5.92Q520.16 6.16 520.60 6.56L520.60 6.56L520.60 6.56Q521.05 6.96 521.28 7.50L521.28 7.50L521.28 7.50Q521.51 8.04 521.51 8.62L521.51 8.62L521.51 9.21L520.34 9.21Z"></path></g></svg>