<svg data-v-423bf9ae="" xmlns="http://www.w3.org/2000/svg" viewBox="0 0 582.5142778669085 60" class="font"><!----><!----><!----><g data-v-423bf9ae="" id="d4d5d524-8206-498b-8059-cf0f748b6618" fill="black" transform="matrix(4.285714285714286,0,0,4.285714285714286,-3.0428539769990266,-12.900000197546824)"><path d="M3.92 13.71L3.92 13.71Q3.05 13.71 2.16 13.52L2.16 13.52L2.16 13.52Q1.26 13.33 0.71 13.08L0.71 13.08L0.90 11.66L0.90 11.66Q1.60 12.00 2.48 12.25L2.48 12.25L2.48 12.25Q3.36 12.50 4.23 12.50L4.23 12.50L4.23 12.50Q5.21 12.50 5.75 12.14L5.75 12.14L5.75 12.14Q6.29 11.79 6.29 11.07L6.29 11.07L6.29 11.07Q6.29 10.54 6.01 10.18L6.01 10.18L6.01 10.18Q5.74 9.83 5.21 9.58L5.21 9.58L5.21 9.58Q4.69 9.34 3.75 9.06L3.75 9.06L3.75 9.06Q2.80 8.78 2.17 8.46L2.17 8.46L2.17 8.46Q1.54 8.13 1.16 7.57L1.16 7.57L1.16 7.57Q0.77 7.01 0.77 6.16L0.77 6.16L0.77 6.16Q0.77 4.97 1.69 4.24L1.69 4.24L1.69 4.24Q2.60 3.51 4.27 3.51L4.27 3.51L4.27 3.51Q5.17 3.51 5.97 3.71L5.97 3.71L5.97 3.71Q6.78 3.91 7.38 4.19L7.38 4.19L7.24 5.60L7.24 5.60Q6.45 5.14 5.73 4.93L5.73 4.93L5.73 4.93Q5.00 4.72 4.21 4.72L4.21 4.72L4.21 4.72Q3.30 4.72 2.77 5.05L2.77 5.05L2.77 5.05Q2.23 5.39 2.23 6.09L2.23 6.09L2.23 6.09Q2.23 6.57 2.47 6.87L2.47 6.87L2.47 6.87Q2.72 7.18 3.18 7.40L3.18 7.40L3.18 7.40Q3.64 7.62 4.47 7.87L4.47 7.87L4.47 7.87Q6.12 8.37 6.93 9.06L6.93 9.06L6.93 9.06Q7.74 9.76 7.74 10.98L7.74 10.98L7.74 10.98Q7.74 12.26 6.78 12.98L6.78 12.98L6.78 12.98Q5.81 13.71 3.92 13.71L3.92 13.71ZM12.03 13.65L12.03 13.65Q10.98 13.65 10.21 13.18L10.21 13.18L10.21 13.18Q9.44 12.71 9.03 11.90L9.03 11.90L9.03 11.90Q8.62 11.09 8.62 10.08L8.62 10.08L8.62 10.08Q8.62 9.07 9.03 8.26L9.03 8.26L9.03 8.26Q9.44 7.45 10.21 6.98L10.21 6.98L10.21 6.98Q10.98 6.51 12.03 6.51L12.03 6.51L12.03 6.51Q13.06 6.51 13.84 6.98L13.84 6.98L13.84 6.98Q14.62 7.45 15.02 8.26L15.02 8.26L15.02 8.26Q15.43 9.07 15.43 10.08L15.43 10.08L15.43 10.08Q15.43 11.09 15.02 11.90L15.02 11.90L15.02 11.90Q14.62 12.71 13.84 13.18L13.84 13.18L13.84 13.18Q13.06 13.65 12.03 13.65L12.03 13.65ZM12.03 12.53L12.03 12.53Q13.03 12.53 13.59 11.89L13.59 11.89L13.59 11.89Q14.14 11.24 14.14 10.08L14.14 10.08L14.14 10.08Q14.14 8.92 13.59 8.27L13.59 8.27L13.59 8.27Q13.03 7.63 12.03 7.63L12.03 7.63L12.03 7.63Q11.02 7.63 10.46 8.27L10.46 8.27L10.46 8.27Q9.91 8.92 9.91 10.08L9.91 10.08L9.91 10.08Q9.91 11.24 10.46 11.89L10.46 11.89L10.46 11.89Q11.02 12.53 12.03 12.53L12.03 12.53ZM21.10 6.65L22.36 6.65L22.36 13.51L21.24 13.51L21.10 12.75L21.10 12.75Q20.76 13.22 20.31 13.43L20.31 13.43L20.31 13.43Q19.85 13.65 19.19 13.65L19.19 13.65L19.19 13.65Q17.96 13.65 17.31 12.90L17.31 12.90L17.31 12.90Q16.66 12.15 16.66 10.64L16.66 10.64L16.66 6.65L17.92 6.65L17.92 10.29L17.92 10.29Q17.92 11.41 18.30 11.97L18.30 11.97L18.30 11.97Q18.69 12.53 19.52 12.53L19.52 12.53L19.52 12.53Q20.01 12.53 20.43 12.33L20.43 12.33L20.43 12.33Q20.86 12.14 21.10 11.76L21.10 11.76L21.10 6.65ZM26.43 13.65L26.43 13.65Q25.52 13.65 25.08 13.17L25.08 13.17L25.08 13.17Q24.64 12.70 24.64 12.01L24.64 12.01L24.64 7.63L23.46 7.63L23.58 6.65L24.64 6.65L24.64 4.96L25.90 4.83L25.90 6.65L27.71 6.65L27.71 7.63L25.90 7.63L25.90 11.24L25.90 11.24Q25.90 11.96 25.98 12.22L25.98 12.22L25.98 12.22Q26.07 12.49 26.34 12.56L26.34 12.56L26.34 12.56Q26.61 12.64 27.34 12.64L27.34 12.64L27.66 12.64L27.57 13.65L26.43 13.65ZM32.06 6.51L32.06 6.51Q33.36 6.51 34.05 7.36L34.05 7.36L34.05 7.36Q34.73 8.22 34.73 9.69L34.73 9.69L34.73 13.51L33.47 13.51L33.47 9.84L33.47 9.84Q33.47 8.71 33.06 8.17L33.06 8.17L33.06 8.17Q32.65 7.63 31.78 7.63L31.78 7.63L31.78 7.63Q31.25 7.63 30.80 7.88L30.80 7.88L30.80 7.88Q30.35 8.12 30.04 8.57L30.04 8.57L30.04 13.51L28.77 13.51L28.77 3.01L30.04 3.01L30.04 7.31L30.04 7.31Q30.45 6.92 30.93 6.71L30.93 6.71L30.93 6.71Q31.42 6.51 32.06 6.51L32.06 6.51ZM39.79 13.51L39.79 3.71L45.77 3.71L45.77 4.91L41.12 4.91L41.12 7.78L44.81 7.78L44.81 8.99L41.12 8.99L41.12 12.31L45.89 12.31L45.89 13.51L39.79 13.51ZM50.67 6.51L50.67 6.51Q53.47 6.51 53.47 9.73L53.47 9.73L53.47 13.51L52.21 13.51L52.21 9.73L52.21 9.73Q52.21 8.62 51.79 8.13L51.79 8.13L51.79 8.13Q51.38 7.63 50.41 7.63L50.41 7.63L50.41 7.63Q49.80 7.63 49.29 7.85L49.29 7.85L49.29 7.85Q48.79 8.08 48.54 8.53L48.54 8.53L48.54 13.51L47.28 13.51L47.28 6.65L48.26 6.65L48.40 7.38L48.40 7.38Q48.94 6.89 49.50 6.70L49.50 6.70L49.50 6.70Q50.05 6.51 50.67 6.51L50.67 6.51ZM59.92 3.01L61.18 3.01L61.18 13.51L60.06 13.51L59.92 12.67L59.92 12.67Q59.57 13.15 59.01 13.40L59.01 13.40L59.01 13.40Q58.45 13.65 57.82 13.65L57.82 13.65L57.82 13.65Q56.95 13.65 56.24 13.17L56.24 13.17L56.24 13.17Q55.52 12.70 55.11 11.89L55.11 11.89L55.11 11.89Q54.70 11.07 54.70 10.09L54.70 10.09L54.70 10.09Q54.70 9.14 55.08 8.32L55.08 8.32L55.08 8.32Q55.47 7.49 56.18 7L56.18 7L56.18 7Q56.90 6.51 57.82 6.51L57.82 6.51L57.82 6.51Q58.44 6.51 58.98 6.73L58.98 6.73L58.98 6.73Q59.53 6.96 59.92 7.42L59.92 7.42L59.92 3.01ZM58.04 12.53L58.04 12.53Q58.55 12.53 59.01 12.27L59.01 12.27L59.01 12.27Q59.47 12.01 59.77 11.47L59.77 11.47L59.77 11.47Q60.06 10.92 60.06 10.09L60.06 10.09L60.06 10.09Q60.06 9.32 59.77 8.76L59.77 8.76L59.77 8.76Q59.47 8.20 59.00 7.92L59.00 7.92L59.00 7.92Q58.53 7.63 58.04 7.63L58.04 7.63L58.04 7.63Q57.09 7.63 56.54 8.32L56.54 8.32L56.54 8.32Q55.99 9.02 55.99 10.09L55.99 10.09L55.99 10.09Q55.99 11.13 56.55 11.83L56.55 11.83L56.55 11.83Q57.11 12.53 58.04 12.53L58.04 12.53ZM68.00 13.51L65.23 3.71L66.63 3.71L68.70 11.79L71.09 3.91L72.49 3.91L74.89 11.79L76.96 3.71L78.36 3.71L75.59 13.51L74.17 13.51L71.79 5.63L69.41 13.51L68.00 13.51ZM82.56 13.65L82.56 13.65Q81.38 13.65 80.55 13.17L80.55 13.17L80.55 13.17Q79.72 12.68 79.28 11.86L79.28 11.86L79.28 11.86Q78.85 11.03 78.85 10.02L78.85 10.02L78.85 10.02Q78.85 9.06 79.25 8.25L79.25 8.25L79.25 8.25Q79.65 7.45 80.41 6.98L80.41 6.98L80.41 6.98Q81.17 6.51 82.21 6.51L82.21 6.51L82.21 6.51Q83.52 6.51 84.34 7.28L84.34 7.28L84.34 7.28Q85.16 8.05 85.16 9.41L85.16 9.41L85.16 9.41Q85.16 9.76 85.11 10.08L85.11 10.08L80.14 10.08L80.14 10.08Q80.26 11.41 80.95 11.97L80.95 11.97L80.95 11.97Q81.63 12.53 82.71 12.53L82.71 12.53L82.71 12.53Q83.79 12.53 84.69 12.12L84.69 12.12L84.85 13.12L84.85 13.12Q83.66 13.65 82.56 13.65L82.56 13.65ZM80.25 9.21L83.86 9.21L83.86 9.21Q83.86 8.47 83.44 8.05L83.44 8.05L83.44 8.05Q83.02 7.63 82.18 7.63L82.18 7.63L82.18 7.63Q81.37 7.63 80.91 8.03L80.91 8.03L80.91 8.03Q80.44 8.43 80.25 9.21L80.25 9.21ZM89.81 6.51L89.81 6.51Q90.73 6.51 91.44 7L91.44 7L91.44 7Q92.15 7.49 92.53 8.31L92.53 8.31L92.53 8.31Q92.90 9.13 92.90 10.08L92.90 10.08L92.90 10.08Q92.90 11.06 92.49 11.88L92.49 11.88L92.49 11.88Q92.08 12.70 91.37 13.17L91.37 13.17L91.37 13.17Q90.66 13.65 89.81 13.65L89.81 13.65L89.81 13.65Q89.18 13.65 88.59 13.39L88.59 13.39L88.59 13.39Q88.00 13.13 87.68 12.67L87.68 12.67L87.54 13.51L86.42 13.51L86.42 3.01L87.68 3.01L87.68 7.45L87.68 7.45Q88.06 7.01 88.63 6.76L88.63 6.76L88.63 6.76Q89.19 6.51 89.81 6.51L89.81 6.51ZM89.66 12.53L89.66 12.53Q90.54 12.53 91.08 11.82L91.08 11.82L91.08 11.82Q91.62 11.12 91.62 10.08L91.62 10.08L91.62 10.08Q91.62 9.02 91.08 8.32L91.08 8.32L91.08 8.32Q90.54 7.63 89.66 7.63L89.66 7.63L89.66 7.63Q88.79 7.63 88.20 8.27L88.20 8.27L88.20 8.27Q87.61 8.90 87.61 10.08L87.61 10.08L87.61 10.08Q87.61 11.30 88.19 11.91L88.19 11.91L88.19 11.91Q88.77 12.53 89.66 12.53L89.66 12.53ZM97.62 13.51L97.62 3.71L101.25 3.71L101.25 3.71Q102.68 3.71 103.78 4.29L103.78 4.29L103.78 4.29Q104.89 4.87 105.50 5.98L105.50 5.98L105.50 5.98Q106.12 7.10 106.12 8.61L106.12 8.61L106.12 8.61Q106.12 10.12 105.50 11.23L105.50 11.23L105.50 11.23Q104.89 12.35 103.78 12.93L103.78 12.93L103.78 12.93Q102.68 13.51 101.25 13.51L101.25 13.51L97.62 13.51ZM98.95 12.31L101.25 12.31L101.25 12.31Q102.89 12.31 103.78 11.30L103.78 11.30L103.78 11.30Q104.66 10.30 104.66 8.61L104.66 8.61L104.66 8.61Q104.66 6.92 103.78 5.92L103.78 5.92L103.78 5.92Q102.89 4.91 101.25 4.91L101.25 4.91L98.95 4.91L98.95 12.31ZM110.82 13.65L110.82 13.65Q109.65 13.65 108.82 13.17L108.82 13.17L108.82 13.17Q107.98 12.68 107.55 11.86L107.55 11.86L107.55 11.86Q107.11 11.03 107.11 10.02L107.11 10.02L107.11 10.02Q107.11 9.06 107.51 8.25L107.51 8.25L107.51 8.25Q107.91 7.45 108.68 6.98L108.68 6.98L108.68 6.98Q109.44 6.51 110.47 6.51L110.47 6.51L110.47 6.51Q111.79 6.51 112.61 7.28L112.61 7.28L112.61 7.28Q113.43 8.05 113.43 9.41L113.43 9.41L113.43 9.41Q113.43 9.76 113.37 10.08L113.37 10.08L108.40 10.08L108.40 10.08Q108.53 11.41 109.21 11.97L109.21 11.97L109.21 11.97Q109.90 12.53 110.98 12.53L110.98 12.53L110.98 12.53Q112.06 12.53 112.95 12.12L112.95 12.12L113.12 13.12L113.12 13.12Q111.93 13.65 110.82 13.65L110.82 13.65ZM108.51 9.21L112.13 9.21L112.13 9.21Q112.13 8.47 111.71 8.05L111.71 8.05L111.71 8.05Q111.29 7.63 110.45 7.63L110.45 7.63L110.45 7.63Q109.63 7.63 109.17 8.03L109.17 8.03L109.17 8.03Q108.71 8.43 108.51 9.21L108.51 9.21ZM116.65 13.65L116.65 13.65Q115.84 13.65 115.23 13.46L115.23 13.46L115.23 13.46Q114.62 13.27 114.30 13.05L114.30 13.05L114.45 11.83L114.45 11.83Q114.73 12.08 115.31 12.31L115.31 12.31L115.31 12.31Q115.89 12.53 116.59 12.53L116.59 12.53L116.59 12.53Q117.25 12.53 117.61 12.31L117.61 12.31L117.61 12.31Q117.96 12.08 117.96 11.68L117.96 11.68L117.96 11.68Q117.96 11.20 117.57 10.96L117.57 10.96L117.57 10.96Q117.18 10.71 116.59 10.54L116.59 10.54L116.59 10.54Q115.95 10.37 115.51 10.18L115.51 10.18L115.51 10.18Q115.07 10.00 114.75 9.60L114.75 9.60L114.75 9.60Q114.44 9.21 114.44 8.57L114.44 8.57L114.44 8.57Q114.44 7.69 115.07 7.10L115.07 7.10L115.07 7.10Q115.70 6.51 117.01 6.51L117.01 6.51L117.01 6.51Q117.61 6.51 118.03 6.63L118.03 6.63L118.03 6.63Q118.45 6.75 118.87 6.96L118.87 6.96L118.72 8.11L118.72 8.11Q118.38 7.83 117.98 7.67L117.98 7.67L117.98 7.67Q117.57 7.50 117.04 7.50L117.04 7.50L117.04 7.50Q116.42 7.50 116.07 7.73L116.07 7.73L116.07 7.73Q115.71 7.97 115.71 8.43L115.71 8.43L115.71 8.43Q115.71 8.74 115.88 8.93L115.88 8.93L115.88 8.93Q116.05 9.11 116.35 9.24L116.35 9.24L116.35 9.24Q116.66 9.37 117.31 9.56L117.31 9.56L117.31 9.56Q118.10 9.80 118.69 10.23L118.69 10.23L118.69 10.23Q119.27 10.67 119.27 11.61L119.27 11.61L119.27 11.61Q119.27 12.45 118.67 13.05L118.67 13.05L118.67 13.05Q118.08 13.65 116.65 13.65L116.65 13.65ZM120.50 5.11L120.50 3.71L121.76 3.71L121.76 5.11L120.50 5.11ZM120.50 13.51L120.50 6.65L121.76 6.65L121.76 13.51L120.50 13.51ZM126.24 17.01L126.24 17.01Q124.78 17.01 123.88 16.48L123.88 16.48L123.88 16.48Q122.98 15.95 122.98 14.97L122.98 14.97L122.98 14.97Q122.98 13.89 124.17 13.36L124.17 13.36L124.17 13.36Q123.49 13.02 123.49 12.49L123.49 12.49L123.49 12.49Q123.49 11.82 124.31 11.49L124.31 11.49L124.31 11.49Q123.73 11.14 123.42 10.54L123.42 10.54L123.42 10.54Q123.12 9.94 123.12 9.18L123.12 9.18L123.12 9.18Q123.12 8.43 123.46 7.82L123.46 7.82L123.46 7.82Q123.80 7.21 124.44 6.86L124.44 6.86L124.44 6.86Q125.08 6.51 125.94 6.51L125.94 6.51L125.94 6.51Q126.87 6.51 127.62 7.04L127.62 7.04L127.62 7.04Q128.37 6.62 129.33 6.62L129.33 6.62L129.44 6.62L129.29 7.46L128.97 7.46L128.97 7.46Q128.84 7.46 128.60 7.49L128.60 7.49L128.60 7.49Q128.37 7.52 128.18 7.56L128.18 7.56L128.18 7.56Q128.48 7.90 128.63 8.32L128.63 8.32L128.63 8.32Q128.79 8.74 128.79 9.18L128.79 9.18L128.79 9.18Q128.79 9.97 128.44 10.59L128.44 10.59L128.44 10.59Q128.10 11.21 127.46 11.57L127.46 11.57L127.46 11.57Q126.81 11.93 125.94 11.93L125.94 11.93L125.94 11.93Q125.44 11.93 125.02 11.80L125.02 11.80L125.02 11.80Q124.70 11.91 124.70 12.17L124.70 12.17L124.70 12.17Q124.70 12.50 125.47 12.61L125.47 12.61L127.30 12.91L127.30 12.91Q128.45 13.09 129.04 13.57L129.04 13.57L129.04 13.57Q129.63 14.04 129.63 14.88L129.63 14.88L129.63 14.88Q129.63 15.93 128.72 16.47L128.72 16.47L128.72 16.47Q127.82 17.01 126.24 17.01L126.24 17.01ZM125.94 10.92L125.94 10.92Q126.73 10.92 127.16 10.45L127.16 10.45L127.16 10.45Q127.58 9.98 127.58 9.20L127.58 9.20L127.58 9.20Q127.58 8.44 127.16 7.98L127.16 7.98L127.16 7.98Q126.73 7.52 125.94 7.52L125.94 7.52L125.94 7.52Q125.16 7.52 124.74 7.98L124.74 7.98L124.74 7.98Q124.32 8.44 124.32 9.20L124.32 9.20L124.32 9.20Q124.32 9.98 124.74 10.45L124.74 10.45L124.74 10.45Q125.16 10.92 125.94 10.92L125.94 10.92ZM126.35 15.89L126.35 15.89Q127.32 15.89 127.83 15.64L127.83 15.64L127.83 15.64Q128.35 15.39 128.35 14.91L128.35 14.91L128.35 14.91Q128.35 14.55 128.04 14.33L128.04 14.33L128.04 14.33Q127.72 14.11 127.09 13.99L127.09 13.99L125.13 13.65L125.13 13.65Q124.71 13.85 124.45 14.13L124.45 14.13L124.45 14.13Q124.18 14.42 124.18 14.77L124.18 14.77L124.18 14.77Q124.18 15.34 124.75 15.62L124.75 15.62L124.75 15.62Q125.33 15.89 126.35 15.89L126.35 15.89ZM133.83 6.51L133.83 6.51Q136.63 6.51 136.63 9.73L136.63 9.73L136.63 13.51L135.37 13.51L135.37 9.73L135.37 9.73Q135.37 8.62 134.95 8.13L134.95 8.13L134.95 8.13Q134.54 7.63 133.57 7.63L133.57 7.63L133.57 7.63Q132.96 7.63 132.45 7.85L132.45 7.85L132.45 7.85Q131.95 8.08 131.70 8.53L131.70 8.53L131.70 13.51L130.44 13.51L130.44 6.65L131.42 6.65L131.56 7.38L131.56 7.38Q132.10 6.89 132.66 6.70L132.66 6.70L132.66 6.70Q133.21 6.51 133.83 6.51L133.83 6.51Z"></path></g><!----><!----></svg>