<?xml version="1.0" encoding="UTF-8" standalone="no"?>
<svg
   data-v-423bf9ae=""
   viewBox="0 0 591 90"
   class="iconLeftSlogan"
   version="1.1"
   id="svg11"
   sodipodi:docname="default-monochrome-black2.svg"
   inkscape:version="1.1.2 (b8e25be833, 2022-02-05)"
   xmlns:inkscape="http://www.inkscape.org/namespaces/inkscape"
   xmlns:sodipodi="http://sodipodi.sourceforge.net/DTD/sodipodi-0.dtd"
   xmlns="http://www.w3.org/2000/svg"
   xmlns:svg="http://www.w3.org/2000/svg">
  <defs
     id="defs15" />
  <sodipodi:namedview
     id="namedview13"
     pagecolor="#ffffff"
     bordercolor="#666666"
     borderopacity="1.0"
     inkscape:pageshadow="2"
     inkscape:pageopacity="0.0"
     inkscape:pagecheckerboard="0"
     showgrid="false"
     inkscape:zoom="1.7901861"
     inkscape:cx="359.18053"
     inkscape:cy="44.967391"
     inkscape:window-width="2560"
     inkscape:window-height="1386"
     inkscape:window-x="2552"
     inkscape:window-y="-400"
     inkscape:window-maximized="1"
     inkscape:current-layer="8a1efb91-55c1-4268-b2b5-bf354949717f" />
  <!---->
  <!---->
  <!---->
  <g
     data-v-423bf9ae=""
     id="f8baab2e-31d0-4a10-bcac-4bb4f24ae2cb"
     fill="black"
     transform="matrix(4.524887125158685,0,0,4.524887125158685,80.43052353625302,-15.339368544223227)">
    <path
       d="M0.43 12.10C1.19 13.08 2.56 13.85 4.49 13.85C6.69 13.85 8.37 12.85 8.37 10.89C8.37 9.52 7.55 8.89 6.62 8.53C5.54 8.11 4.28 8.04 3.39 7.69C2.90 7.49 2.46 7.20 2.46 6.58C2.46 5.77 3.25 5.24 4.51 5.24C5.74 5.24 6.58 5.74 7.14 6.37L8.13 5.49C7.56 4.75 6.43 3.95 4.56 3.95C2.35 3.95 1.09 5.07 1.09 6.64C1.09 7.76 1.72 8.37 2.74 8.78C3.79 9.20 5.03 9.30 5.94 9.63C6.55 9.86 6.99 10.18 6.99 10.91C6.99 11.98 6.02 12.59 4.58 12.59C3.19 12.59 2.17 12.03 1.50 11.23ZM12.82 6.15C10.99 6.15 9.69 7.49 9.69 10.02C9.69 12.57 10.98 13.92 12.82 13.92C14.64 13.92 15.95 12.57 15.95 10.02C15.95 7.49 14.63 6.15 12.82 6.15ZM12.82 7.38C13.92 7.38 14.69 8.29 14.69 10.04C14.69 11.77 13.92 12.68 12.82 12.68C11.70 12.68 10.96 11.77 10.96 10.04C10.96 8.29 11.72 7.38 12.82 7.38ZM17.75 6.33L17.75 11.21C17.75 13.08 18.79 13.92 20.29 13.92C21.28 13.92 22.06 13.54 22.62 12.81L22.62 13.73L23.88 13.73L23.88 6.33L22.55 6.33L22.55 11.34C22.13 12.33 21.49 12.66 20.71 12.66C19.77 12.66 19.08 12.17 19.08 10.99L19.08 6.33ZM25.26 6.33L25.26 7.42L26.10 7.42L26.10 11.91C26.10 13.19 26.85 13.80 27.76 13.80C28.29 13.80 28.87 13.59 29.13 13.29L29.36 12.07C29.02 12.39 28.69 12.52 28.29 12.52C27.73 12.52 27.43 12.21 27.43 11.62L27.43 7.42L29.32 7.42L29.32 6.33L27.43 6.33L27.43 3.89L26.10 4.33L26.10 6.33ZM30.67 3.84L30.67 13.73L32.00 13.73L32.00 8.71C32.41 7.73 33.07 7.41 33.85 7.41C34.83 7.41 35.48 7.90 35.48 9.18L35.48 13.73L36.81 13.73L36.81 9.04C36.81 6.97 35.77 6.15 34.27 6.15C33.31 6.15 32.55 6.50 32.00 7.15L32.00 3.39ZM42.62 4.05L42.62 13.73L48.83 13.73L48.83 12.40L44.04 12.40L44.04 9.42L47.53 9.42L47.53 8.13L44.04 8.13L44.04 5.38L48.73 5.38L48.73 4.05ZM50.58 6.33L50.58 13.73L51.91 13.73L51.91 8.71C52.32 7.73 52.98 7.41 53.76 7.41C54.74 7.41 55.38 7.90 55.38 9.18L55.38 13.73L56.71 13.73L56.71 9.04C56.71 6.97 55.68 6.15 54.18 6.15C53.17 6.15 52.39 6.52 51.84 7.24L51.84 6.33ZM63.50 3.84L63.50 7.18C63.01 6.58 62.30 6.15 61.33 6.15C59.29 6.15 58.53 8.12 58.53 10.04C58.53 11.96 59.29 13.92 61.33 13.92C62.36 13.92 63.10 13.43 63.59 12.78L63.59 13.73L64.83 13.73L64.83 3.39ZM61.67 12.68C60.26 12.68 59.79 11.42 59.79 10.04C59.79 8.65 60.26 7.36 61.66 7.36C62.54 7.36 63.11 7.88 63.50 8.57L63.50 11.49C63.11 12.21 62.54 12.68 61.67 12.68ZM70.70 4.05L70.70 13.73L73.54 13.73C76.33 13.73 78.55 11.86 78.55 8.86C78.55 5.88 76.36 4.05 73.54 4.05ZM72.14 5.38L73.56 5.38C75.54 5.38 77.11 6.66 77.11 8.88C77.11 11.10 75.53 12.42 73.56 12.42L72.14 12.42ZM86.46 10.49C86.48 10.33 86.49 10.18 86.49 10.00C86.49 7.52 85.18 6.15 83.36 6.15C81.54 6.15 80.23 7.52 80.23 10.00C80.23 12.60 81.68 13.92 83.44 13.92C84.77 13.92 85.60 13.17 86.00 12.61L85.12 11.84C84.78 12.33 84.22 12.71 83.50 12.71C82.52 12.71 81.63 12.03 81.48 10.49ZM83.37 7.35C84.36 7.35 85.09 8.08 85.25 9.49L81.48 9.49C81.62 8.12 82.35 7.35 83.37 7.35ZM93.44 7.13C92.93 6.64 91.99 6.15 90.73 6.15C89.15 6.15 87.98 6.92 87.98 8.27C87.98 9.09 88.40 9.60 89.03 9.91C89.66 10.22 90.69 10.40 91.49 10.72C92.05 10.95 92.29 11.19 92.29 11.59C92.29 12.31 91.59 12.68 90.64 12.68C89.63 12.68 88.72 12.25 88.19 11.75L87.67 12.87C88.21 13.41 89.29 13.92 90.65 13.92C92.12 13.92 93.60 13.33 93.60 11.59C93.60 10.74 93.24 10.25 92.48 9.87C91.66 9.46 90.58 9.30 89.92 9.02C89.53 8.85 89.29 8.62 89.29 8.25C89.29 7.74 89.74 7.34 90.68 7.34C91.63 7.34 92.46 7.76 92.95 8.27ZM95.02 6.33L95.02 13.73L96.35 13.73L96.35 6.33ZM95.68 3.50C95.23 3.50 94.92 3.82 94.92 4.30C94.92 4.76 95.23 5.10 95.68 5.10C96.12 5.10 96.45 4.76 96.45 4.30C96.45 3.82 96.12 3.50 95.68 3.50ZM103.28 6.33L103.28 7.20C102.79 6.59 102.05 6.15 101.04 6.15C98.98 6.15 98.22 8.01 98.22 9.79C98.22 11.56 98.98 13.43 101.04 13.43C102.05 13.43 102.79 12.99 103.28 12.39L103.28 12.66C103.28 14.25 102.40 14.98 100.32 15.46L100.48 16.65C103.31 16.10 104.52 15.01 104.52 12.32L104.52 6.33ZM101.36 12.26C99.95 12.26 99.48 11.07 99.48 9.80C99.48 8.54 99.95 7.35 101.37 7.35C102.30 7.35 102.89 7.84 103.28 8.55L103.28 11.05C102.89 11.75 102.30 12.26 101.36 12.26ZM106.65 6.33L106.65 13.73L107.98 13.73L107.98 8.71C108.39 7.73 109.05 7.41 109.83 7.41C110.81 7.41 111.45 7.90 111.45 9.18L111.45 13.73L112.78 13.73L112.78 9.04C112.78 6.97 111.75 6.15 110.25 6.15C109.24 6.15 108.46 6.52 107.91 7.24L107.91 6.33Z"
       id="path2" />
  </g>
  <!---->
  <g
     data-v-423bf9ae=""
     id="f71c91b4-5b53-4661-902e-98416047fef6"
     transform="matrix(4.6279116,0,-1.0784349,4.5107524,-2.3215367,-8.2290284)"
     stroke="none"
     fill="#000000">
    <path
       d="m 9.305,19 0.2,-2 h 4.99 l 0.2,2 z m 0.6,-6 h 4.19 l 0.2,2 h -4.59 z m 0.4,-4 h 3.39 l 0.2,2 h -3.79 z m 0.4,-4 h 2.59 l 0.2,2 h -2.99 z M 19,19 h -2.295 l -0.2,-2 H 18.5 v -2 h -2.195 l -0.2,-2 H 18 v -2 h -2.095 l -0.2,-2 H 17.5 V 7 h -1.995 l -0.2,-2 H 17 V 3 h -1.895 l -0.11,-1.1 -1.99,0.2 0.09,0.9 h -2.19 L 10.995,2.1 9.005,1.9 8.895,3 H 7 v 2 h 1.695 l -0.2,2 H 6.5 v 2 h 1.795 l -0.2,2 H 6 v 2 h 1.895 l -0.2,2 H 5.5 v 2 h 1.995 l -0.2,2 H 5 v 2 h 2.095 l -0.09,0.9 1.99,0.2 0.11,-1.1 h 5.79 l 0.11,1.1 1.99,-0.2 -0.09,-0.9 H 19 Z"
       id="path5" />
  </g>
  <!---->
  <g
     data-v-423bf9ae=""
     id="8a1efb91-55c1-4268-b2b5-bf354949717f"
     fill="#000000"
     transform="matrix(1.3131546,0,0,1.5256691,32.346889,52.253016)">
    <path
       d="m 40.228448,13.143735 v 0 q -1.04,0.03 -1.48,-0.17 v 0 0 q 0.85,-4.5900003 1.97,-9.0800003 v 0 0 q 0.06,-0.25 -0.59,-0.13 v 0 0 q -0.3,0.05 -0.55,0.17 v 0 0 q -0.28,0.13 -0.3,0.22 v 0 0 q -1.12,4.49 -1.98,9.1300003 v 0 0 q -0.09,0.09 -0.02,0.14 v 0 0 q 0,0.02 -0.01,0.09 v 0 0 q -0.01,0.04 -0.01,0.08 v 0 0 q -0.02,0.16 0.62,0.05 v 0 0 q 0.49,0.12 1.4,0.09 v 0 0 q 0.61,-0.01 1.03,-0.27 v 0 0 q 0.18,-0.11 0.16,-0.21 v 0 0 q -0.03,-0.11 -0.24,-0.11 z m 10.73,-6.1300003 v 0 q -0.13,1.44 -0.39,2.72 v 0 0 q -0.41,1.9600003 -1.19,2.7200003 v 0 0 q -0.09,-0.09 -0.16,-0.26 v 0 0 q -0.19,-0.41 -0.17,-1.35 v 0 0 q 0.03,-1.6900003 0.6,-3.5500003 v 0 0 q 0.5,-1.63 1.2,-2.47 v 0 0 q 0.07,0.24 0.12,0.61 v 0 0 q 0.07,0.59 -0.01,1.58 z m 0.92,-3.24 v 0 q -0.2,-0.17 -0.94,0.09 v 0 0 q -0.5,0.19 -0.48,0.34 v 0 0 q -0.25,0.09 -0.43,0.24 v 0 0 q -0.98,0.77 -1.65,2.59 v 0 0 q -0.54,1.48 -0.73,3.2800003 v 0 0 q -0.09,0.78 -0.06,1.42 v 0 0 q 0.04,0.85 0.41,1.21 v 0 0 q 0.18,0.18 0.61,0.2 v 0 0 q 0.54,0.03 1.37,-0.31 v 0 0 q 0.68,-0.28 1.2,-1.08 v 0 0 q 0.47,-0.73 0.79,-2.0900003 v 0 0 q 0.21,-0.91 0.33,-2.01 v 0 0 q 0.17,-1.4 0.17,-2.06 v 0 0 q -0.02,-1.33 -0.59,-1.82 z m 12.55,-0.42 v 0 q -0.43,-0.63 -1.61,-0.34 v 0 0 q -0.96,0.23 -1.6,0.94 v 0 0 q -1.02,1.12 -1.45,3.26 v 0 0 q -0.29,1.46 -0.39,3.2700003 v 0 0 q -0.01,1.31 0.13,1.8 v 0 0 q 0.27,0.97 1.36,1.03 v 0 0 q 0.62,0.03 1.21,-0.23 v 0 0 q 0.59,-0.28 0.96,-0.76 v 0 0 q 0.38,-0.49 0.71,-1.62 v 0 0 q 0.08,-0.25 -0.58,-0.13 v 0 0 q -0.3,0.05 -0.55,0.17 v 0 0 q -0.28,0.13 -0.3,0.22 v 0 0 q -0.25,0.84 -0.52,1.33 v 0 0 q -0.12,0.2 -0.25,0.35 v 0 0 q -0.57,-0.25 -0.69,-1.17 v 0 0 q -0.03,-0.24 -0.01,-1.46 v 0 0 q 0.09,-1.7900003 0.41,-3.2800003 v 0 0 q 0.46,-2.17 1.49,-3.12 v 0 0 q 0.02,-0.01 0.05,-0.04 v 0 0 q 0.36,0.25 0.45,0.99 v 0 0 q 0.08,0.61 -0.13,1.54 v 0 0 q -0.34,1.47 -0.35,1.51 v 0 0 q -0.02,0.12 0.37,0.09 v 0 0 q 0.26,-0.02 0.42,-0.07 v 0 0 q 0.64,-0.17 0.68,-0.41 v 0 0 q 0.05,-0.34 0.2,-1 v 0 0 q 0.17,-0.67 0.22,-1.01 v 0 0 q 0.19,-1.23 -0.23,-1.86 z m 9.69,6.35 v 0 q -0.1,0.01 -1,-0.05 v 0 0 q 0.41,-1.21 0.87,-2.27 v 0 0 q 0.16,-0.39 0.71,-1.62 v 0 0 q -0.02,0.66 -0.21,3.9 v 0 0 q -0.17,0.02 -0.37,0.04 z m 1.81,-6.71 v 0 q -0.18,-0.09 -0.56,-0.02 v 0 0 q -0.65,0.11 -0.86,0.39 v 0 0 q -0.2,0.25 -0.98,2.03 v 0 0 q -0.13,0.32 -0.49,1.12 v 0 0 q -0.32,0.72 -0.5,1.13 v 0 0 q -0.41,0.96 -0.79,2.03 v 0 0 q -0.92,0.11 -1.57,0.5100003 v 0 0 q -0.18,0.11 -0.15,0.21 v 0 0 q 0.02,0.09 0.23,0.1 v 0 0 q 0.52,0.02 0.99,-0.25 v 0 0 q 0.14,-0.02 0.19,-0.02 v 0 0 q 0.06,0 0.13,0 v 0 0 q -0.33,0.98 -0.65,2.12 v 0 0 q -0.07,0.26 0.59,0.14 v 0 0 q 0.3,-0.05 0.55,-0.18 v 0 0 q 0.28,-0.12 0.31,-0.22 v 0 0 q 0.26,-0.95 0.54,-1.79 v 0 0 q 0.29,0.02 0.49,-0.01 v 0 0 q 0.7,-0.08 1.06,-0.01 v 0 0 q -0.11,2.09 -0.11,3.56 v 0 0 q 0,0.08 0.22,0.09 v 0 0 q 0.22,0.01 0.51,-0.05 v 0 0 q 0.73,-0.15 0.73,-0.44 v 0 0 q 0,-1.72 0.21,-5.1700003 v 0 0 q 0.19,-3.45 0.19,-5.18 v 0 0 q 0,-0.09 -0.28,-0.09 z m 10.13,10.1500003 v 0 q -1.03,0.03 -1.48,-0.17 v 0 0 q 0.86,-4.5900003 1.97,-9.0800003 v 0 0 q 0.07,-0.25 -0.58,-0.13 v 0 0 q -0.3,0.05 -0.55,0.17 v 0 0 q -0.29,0.13 -0.31,0.22 v 0 0 q -1.12,4.49 -1.98,9.1300003 v 0 0 q -0.09,0.09 -0.02,0.14 v 0 0 q 0,0.02 -0.01,0.09 v 0 0 q 0,0.04 -0.01,0.08 v 0 0 q -0.02,0.16 0.62,0.05 v 0 0 q 0.5,0.12 1.4,0.09 v 0 0 q 0.61,-0.01 1.04,-0.27 v 0 0 q 0.17,-0.11 0.15,-0.21 v 0 0 q -0.02,-0.11 -0.24,-0.11 z M 108.69845,7.3137347 v 0 q 0.45,-0.76 0.65,-1.97 v 0 0 q 0.24,-1.38 -0.26,-1.96 v 0 0 q -0.28,-0.35 -1.03,-0.3 v 0 0 q -0.94,0.06 -1.84,0.58 v 0 0 q -1.25,0.74 -1.86,2.49 v 0 0 q -0.61,1.76 0,2.84 v 0 0 q 0.3,0.5 1.67,0.99 v 0 0 q 0.57,0.2000003 0.77,0.3100003 v 0 0 q 0.44,0.26 0.53,0.63 v 0 0 q 0.1,0.39 -0.24,1.06 v 0 0 q -0.18,0.34 -0.46,0.59 v 0 0 q -0.12,0.11 -0.28,0.21 v 0 0 q -0.07,0.05 -0.09,0.06 v 0 0 q -0.06,0.04 -0.13,0.06 v 0 0 q 0.1,-0.04 -0.02,0.01 v 0 0 q 0,0 0.07,-0.01 v 0 0 q -0.05,0 -0.09,0 v 0 0 q -0.01,0.01 -0.11,0 v 0 0 q -0.04,0 -0.19,-0.04 v 0 0 q -0.36,-0.08 -0.66,-0.41 v 0 0 q -0.22,-0.25 -0.31,-0.71 v 0 0 q -0.1,-0.49 0.13,-0.65 v 0 0 q 0.19,-0.15 0.17,-0.22 v 0 0 q -0.02,-0.09 -0.26,-0.1 v 0 0 q -0.62,-0.01 -1.03,0.28 v 0 0 q -0.39,0.29 -0.46,0.62 v 0 0 q -0.09,0.34 0.07,0.76 v 0 0 q 0.28,0.74 1.14,0.99 v 0 0 q 0.89,0.26 2.16,-0.24 v 0 0 q 1.02,-0.41 1.58,-1.13 v 0 0 q 0.38,-0.48 0.47,-1 v 0 0 q 0.1,-0.62 -0.28,-1.01 v 0 0 q -0.27,-0.2700003 -0.83,-0.4800003 v 0 0 q -0.15,-0.05 -0.46,-0.16 v 0 0 q -0.3,-0.09 -0.43,-0.15 v 0 0 q -0.53,-0.21 -0.81,-0.47 v 0 0 q -0.3,-0.28 -0.41,-1.01 v 0 0 q -0.19,-1.43 0.76,-2.99 v 0 0 q 0.41,-0.68 0.92,-1.02 v 0 0 q 0.05,-0.04 0.14,-0.09 v 0 0 q 0,0 0.05,-0.02 v 0 0 q -0.01,0 0.03,-0.01 v 0 0 q -0.03,0.01 0.01,0 v 0 0 q -0.07,0.02 -0.15,0.02 v 0 0 q 0.02,0 0.01,0 v 0 h 0.02 v 0 q 0.05,0.01 0.14,0.04 v 0 0 q 0.01,0 0.1,0.07 v 0 0 q 0.07,0.05 0.11,0.1 v 0 0 q 0.12,0.14 0.19,0.39 v 0 0 q 0.11,0.39 0.05,1.04 v 0 0 q -0.12,1.32 -0.69,2.27 v 0 0 q -0.09,0.14 0.21,0.15 v 0 0 q 0.2,0.01 0.37,-0.02 v 0 0 q 0.69,-0.13 0.86,-0.39 z m 8.64,-2.97 v 0 q -0.25,1.09 -0.86,4.26 v 0 0 q -0.24,1.24 -0.43,2.1400003 v 0 0 q -0.39,1.85 -0.4,1.98 v 0 0 q 0,0.08 0.23,0.09 v 0 0 q 0.21,0.01 0.5,-0.04 v 0 0 q 0.73,-0.15 0.73,-0.44 v 0 0 q 0.01,-0.29 0.17,-0.9 v 0 0 q 0.07,-0.3 0.23,-1.05 v 0 0 q 0.17,-0.8000003 0.43,-2.1300003 v 0 0 q 0.6,-3.08 0.84,-4.17 v 0 0 q 0.06,-0.25 -0.59,-0.14 v 0 0 q -0.3,0.06 -0.55,0.18 v 0 0 q -0.28,0.13 -0.3,0.22 z m 12.94,-0.18 v 0 q -0.96,-0.18 -1.96,-0.2 v 0 0 q -0.1,-0.12 -0.58,-0.04 v 0 0 q -0.09,0.02 -0.21,0.05 v 0 0 q -1.06,0.06 -2.1,0.3 v 0 0 q -0.74,0.17 -0.67,0.42 v 0 0 q 0.04,0.2 0.77,0.03 v 0 0 q 0.01,0 0.02,-0.01 v 0 0 q 0.01,0 0.03,-0.01 v 0 0 q 0.07,-0.01 0.23,-0.04 v 0 0 q 0.16,-0.03 0.39,-0.05 v 0 0 q 0.29,-0.04 0.61,-0.05 v 0 0 q -1.41,4.65 -1.81,8.2100003 v 0 0 q 0,0.06 0.22,0.07 v 0 0 q 0.21,0.01 0.49,-0.04 v 0 0 q 0.73,-0.13 0.76,-0.43 v 0 0 q 0.37,-3.3700003 1.69,-7.7800003 v 0 0 q 0.47,0.04 0.91,0.13 v 0 0 q 0.44,0.08 1.02,-0.19 v 0 0 q 0.16,-0.07 0.26,-0.18 v 0 0 q 0.14,-0.15 -0.07,-0.19 z m 10.42,-0.93 v 0 q -0.71,-0.23 -1.9,0.15 v 0 0 q -1.51,0.49 -2.07,2.2 v 0 0 q -0.35,1.06 -0.17,2.34 v 0 0 q 0.09,0.65 0.36,1.05 v 0 0 q -0.42,0.22 -0.71,0.54 v 0 0 q -1,1.1000003 -0.89,2.3100003 v 0 0 q 0.07,0.69 0.54,1.1 v 0 0 q 0.4,0.33 1.23,0.31 v 0 0 q 0.83,-0.03 1.54,-0.47 v 0 0 q 0.75,-0.46 1.05,-1.19 v 0 0 q 0.06,-0.15 -0.22,-0.16 v 0 0 q -0.17,-0.01 -0.36,0.03 v 0 0 q -0.75,0.13 -0.86,0.39 v 0 0 q -0.19,0.49 -0.54,0.78 v 0 0 q -0.02,0.01 -0.03,0.02 v 0 0 q -0.05,-0.01 -0.06,-0.01 v 0 0 q -0.06,-0.02 -0.15,-0.06 v 0 0 q -0.16,-0.07 -0.32,-0.23 v 0 0 q -0.28,-0.29 -0.36,-0.89 v 0 0 q -0.1,-0.8 0.53,-1.7700003 v 0 0 q 0.09,-0.12 0.19,-0.24 v 0 0 q 0.21,0.08 0.48,0.1 v 0 0 q 0.41,0.02 0.9,-0.21 v 0 0 q 0.42,-0.19 0.27,-0.33 v 0 0 q -0.29,-0.28 -0.72,-0.34 v 0 0 q -0.04,-0.05 -0.07,-0.09 v 0 0 q -0.21,-0.3 -0.31,-0.86 v 0 0 q -0.2,-1 -0.01,-1.89 v 0 0 q 0.26,-1.3 1.03,-1.96 v 0 0 q 0.06,-0.04 0.15,-0.11 v 0 0 q 0.01,0 0.01,0 v 0 0 q 0.13,0.01 0.11,0 v 0 0 q 0.58,0.09 0.46,0.69 v 0 0 q -0.05,0.24 0.58,0.13 v 0 0 q 0.31,-0.06 0.56,-0.17 v 0 0 q 0.28,-0.13 0.3,-0.22 v 0 0 q 0.14,-0.73 -0.54,-0.94 z m 11.43,4.08 v 0 q 0.46,-0.76 0.66,-1.97 v 0 0 q 0.24,-1.38 -0.26,-1.96 v 0 0 q -0.29,-0.35 -1.04,-0.3 v 0 0 q -0.94,0.06 -1.83,0.58 v 0 0 q -1.25,0.74 -1.86,2.49 v 0 0 q -0.62,1.76 0,2.84 v 0 0 q 0.29,0.5 1.67,0.99 v 0 0 q 0.57,0.2000003 0.77,0.3100003 v 0 0 q 0.44,0.26 0.53,0.63 v 0 0 q 0.09,0.39 -0.25,1.06 v 0 0 q -0.18,0.34 -0.46,0.59 v 0 0 q -0.11,0.11 -0.27,0.21 v 0 0 q -0.08,0.05 -0.1,0.06 v 0 0 q -0.06,0.04 -0.12,0.06 v 0 0 q 0.1,-0.04 -0.03,0.01 v 0 0 q 0.01,0 0.07,-0.01 v 0 0 q -0.04,0 -0.09,0 v 0 0 q 0,0.01 -0.1,0 v 0 0 q -0.05,0 -0.2,-0.04 v 0 0 q -0.35,-0.08 -0.65,-0.41 v 0 0 q -0.22,-0.25 -0.31,-0.71 v 0 0 q -0.1,-0.49 0.12,-0.65 v 0 0 q 0.2,-0.15 0.18,-0.22 v 0 0 q -0.03,-0.09 -0.26,-0.1 v 0 0 q -0.62,-0.01 -1.03,0.28 v 0 0 q -0.39,0.29 -0.47,0.62 v 0 0 q -0.08,0.34 0.08,0.76 v 0 0 q 0.27,0.74 1.14,0.99 v 0 0 q 0.89,0.26 2.16,-0.24 v 0 0 q 1.01,-0.41 1.58,-1.13 v 0 0 q 0.37,-0.48 0.46,-1 v 0 0 q 0.11,-0.62 -0.28,-1.01 v 0 0 q -0.26,-0.2700003 -0.82,-0.4800003 v 0 0 q -0.15,-0.05 -0.47,-0.16 v 0 0 q -0.29,-0.09 -0.42,-0.15 v 0 0 q -0.54,-0.21 -0.82,-0.47 v 0 0 q -0.3,-0.28 -0.4,-1.01 v 0 0 q -0.2,-1.43 0.75,-2.99 v 0 0 q 0.42,-0.68 0.92,-1.02 v 0 0 q 0.05,-0.04 0.15,-0.09 v 0 0 q -0.01,0 0.05,-0.02 v 0 0 q -0.02,0 0.02,-0.01 v 0 0 q -0.02,0.01 0.02,0 v 0 0 q -0.08,0.02 -0.15,0.02 v 0 0 q 0.02,0 0,0 v 0 h 0.02 v 0 q 0.06,0.01 0.14,0.04 v 0 0 q 0.01,0 0.11,0.07 v 0 0 q 0.07,0.05 0.11,0.1 v 0 0 q 0.12,0.14 0.18,0.39 v 0 0 q 0.12,0.39 0.06,1.04 v 0 0 q -0.12,1.32 -0.7,2.27 v 0 0 q -0.09,0.14 0.22,0.15 v 0 0 q 0.2,0.01 0.36,-0.02 v 0 0 q 0.7,-0.13 0.86,-0.39 z m 22.95,-3.91 v 0 q -1.11,-0.14 -2.79,0.16 v 0 0 q 0.01,-0.01 0.02,-0.05 v 0 0 q 0.01,-0.04 0.01,-0.06 v 0 0 q 0.07,-0.25 -0.58,-0.14 v 0 0 q -0.3,0.06 -0.55,0.17 v 0 0 q -0.28,0.13 -0.31,0.23 v 0 0 q 0.01,-0.02 -0.04,0.18 v 0 0 q -0.19,0.1 -0.26,0.22 v 0 0 q -0.06,0.13 0.15,0.15 v 0 0 q -1.27,4.8 -1.77,8.5300003 v 0 0 q -0.02,0.12 0.37,0.09 v 0 0 q 0.25,-0.02 0.42,-0.07 v 0 0 q 0.64,-0.17 0.67,-0.41 v 0 0 q 0.22,-1.64 0.58,-3.4300003 v 0 0 q -0.07,0.01 0.99,-0.07 v 0 0 q 0.64,-0.04 0.98,-0.34 v 0 0 q 0.16,-0.15 -0.03,-0.21 v 0 0 q -0.13,-0.04 -0.31,-0.03 v 0 0 q -1.13,0.09 -1.53,0.15 v 0 0 q 0.42,-2.01 1.06,-4.42 v 0 0 q 1.02,-0.18 1.71,-0.09 v 0 0 q 0.48,0.06 1.02,-0.19 v 0 0 q 0.14,-0.07 0.25,-0.18 v 0 0 q 0.15,-0.16 -0.06,-0.19 z m 8.5,3.61 v 0 q -0.12,1.44 -0.39,2.72 v 0 0 q -0.41,1.9600003 -1.18,2.7200003 v 0 0 q -0.09,-0.09 -0.17,-0.26 v 0 0 q -0.18,-0.41 -0.17,-1.35 v 0 0 q 0.03,-1.6900003 0.6,-3.5500003 v 0 0 q 0.5,-1.63 1.2,-2.47 v 0 0 q 0.08,0.24 0.12,0.61 v 0 0 q 0.07,0.59 -0.01,1.58 z m 0.93,-3.24 v 0 q -0.21,-0.17 -0.94,0.09 v 0 0 q -0.5,0.19 -0.48,0.34 v 0 0 q -0.26,0.09 -0.43,0.24 v 0 0 q -0.99,0.77 -1.65,2.59 v 0 0 q -0.55,1.48 -0.74,3.2800003 v 0 0 q -0.08,0.78 -0.05,1.42 v 0 0 q 0.04,0.85 0.4,1.21 v 0 0 q 0.18,0.18 0.61,0.2 v 0 0 q 0.54,0.03 1.37,-0.31 v 0 0 q 0.69,-0.28 1.2,-1.08 v 0 0 q 0.48,-0.73 0.79,-2.0900003 v 0 0 q 0.21,-0.91 0.34,-2.01 v 0 0 q 0.16,-1.4 0.16,-2.06 v 0 0 q -0.01,-1.33 -0.58,-1.82 z m 11.32,3.35 v 0 q -0.15,0.93 -1.05,1.87 v 0 0 q -0.19,0.2 -0.43,0.4 v 0 0 q -0.06,0.05 -0.12,0.1 v 0 0 q -0.22,-0.09 -0.47,-0.1 v 0 0 q 0.56,-2.84 0.7,-4.92 v 0 0 q 0.27,0.14 0.51,0.33 v 0 0 q 0.51,0.4 0.74,1.04 v 0 0 q 0.23,0.62 0.12,1.28 z m -2.97,-2.91 v 0 q 0,0 0.01,-0.01 v 0 0 q -0.01,0.01 -0.01,0.01 z m 4.93,9.0200003 v 0 q -0.73,-0.54 -2.26,-2.43 v 0 0 q -0.67,-0.8200003 -0.79,-0.9400003 v 0 0 q 0.46,-0.21 0.89,-0.55 v 0 0 q 1.2,-0.94 1.56,-2.09 v 0 0 q 0.25,-0.81 0.04,-1.57 v 0 0 q -0.21,-0.77 -0.83,-1.31 v 0 0 q -1.25,-1.07 -3.32,-0.65 v 0 0 q -0.13,0.03 -0.33,0.08 v 0 0 q -0.74,0.18 -0.67,0.41 v 0 0 q 0.06,0.21 0.77,0.03 v 0 0 q 0.07,-0.01 0.12,-0.02 v 0 0 q 0.04,-0.01 0.07,-0.01 v 0 0 q -0.12,2.74 -1.35,8.4200003 v 0 0 q -0.06,0.25 0.58,0.13 v 0 0 q 0.31,-0.05 0.56,-0.17 v 0 0 q 0.28,-0.13 0.3,-0.22 v 0 0 q 0.29,-1.36 0.39,-1.81 v 0 0 q 0.01,0 0.01,0 v 0 0 q 0,0 0,0 v 0 0 q 0.11,0.13 0.8,0.98 v 0 0 q 1.31,1.64 2.08,2.22 v 0 0 q 0.23,0.17 0.94,-0.09 v 0 0 q 0.19,-0.07 0.33,-0.16 v 0 0 q 0.25,-0.15 0.11,-0.25 z m 18.85,-0.09 v 0 q -1.03,0.03 -1.48,-0.17 v 0 0 q 0.86,-4.5900003 1.97,-9.0800003 v 0 0 q 0.07,-0.25 -0.58,-0.13 v 0 0 q -0.3,0.05 -0.55,0.17 v 0 0 q -0.28,0.13 -0.31,0.22 v 0 0 q -1.12,4.49 -1.98,9.1300003 v 0 0 q -0.09,0.09 -0.02,0.14 v 0 0 q 0,0.02 -0.01,0.09 v 0 0 q 0,0.04 -0.01,0.08 v 0 0 q -0.02,0.16 0.62,0.05 v 0 0 q 0.5,0.12 1.4,0.09 v 0 0 q 0.61,-0.01 1.04,-0.27 v 0 0 q 0.17,-0.11 0.15,-0.21 v 0 0 q -0.02,-0.11 -0.24,-0.11 z m 10.73,-6.1300003 v 0 q -0.12,1.44 -0.39,2.72 v 0 0 q -0.41,1.9600003 -1.18,2.7200003 v 0 0 q -0.09,-0.09 -0.17,-0.26 v 0 0 q -0.18,-0.41 -0.17,-1.35 v 0 0 q 0.03,-1.6900003 0.6,-3.5500003 v 0 0 q 0.5,-1.63 1.2,-2.47 v 0 0 q 0.08,0.24 0.12,0.61 v 0 0 q 0.07,0.59 -0.01,1.58 z m 0.93,-3.24 v 0 q -0.21,-0.17 -0.94,0.09 v 0 0 q -0.5,0.19 -0.48,0.34 v 0 0 q -0.25,0.09 -0.43,0.24 v 0 0 q -0.99,0.77 -1.65,2.59 v 0 0 q -0.55,1.48 -0.74,3.2800003 v 0 0 q -0.08,0.78 -0.05,1.42 v 0 0 q 0.04,0.85 0.4,1.21 v 0 0 q 0.18,0.18 0.62,0.2 v 0 0 q 0.54,0.03 1.36,-0.31 v 0 0 q 0.69,-0.28 1.21,-1.08 v 0 0 q 0.47,-0.73 0.78,-2.0900003 v 0 0 q 0.21,-0.91 0.34,-2.01 v 0 0 q 0.16,-1.4 0.16,-2.06 v 0 0 q -0.01,-1.33 -0.58,-1.82 z m 12.54,-0.42 v 0 q -0.43,-0.63 -1.61,-0.34 v 0 0 q -0.96,0.23 -1.6,0.94 v 0 0 q -1.01,1.12 -1.44,3.26 v 0 0 q -0.3,1.46 -0.39,3.2700003 v 0 0 q -0.01,1.31 0.12,1.8 v 0 0 q 0.28,0.97 1.36,1.03 v 0 0 q 0.62,0.03 1.21,-0.23 v 0 0 q 0.6,-0.28 0.97,-0.76 v 0 0 q 0.37,-0.49 0.71,-1.62 v 0 0 q 0.07,-0.25 -0.58,-0.13 v 0 0 q -0.3,0.05 -0.56,0.17 v 0 0 q -0.27,0.13 -0.3,0.22 v 0 0 q -0.24,0.84 -0.52,1.33 v 0 0 q -0.11,0.2 -0.24,0.35 v 0 0 q -0.57,-0.25 -0.69,-1.17 v 0 0 q -0.03,-0.24 -0.02,-1.46 v 0 0 q 0.1,-1.7900003 0.41,-3.2800003 v 0 0 q 0.47,-2.17 1.5,-3.12 v 0 0 q 0.01,-0.01 0.04,-0.04 v 0 0 q 0.36,0.25 0.46,0.99 v 0 0 q 0.07,0.61 -0.14,1.54 v 0 0 q -0.33,1.47 -0.34,1.51 v 0 0 q -0.02,0.12 0.36,0.09 v 0 0 q 0.26,-0.02 0.43,-0.07 v 0 0 q 0.63,-0.17 0.67,-0.41 v 0 0 q 0.05,-0.34 0.21,-1 v 0 0 q 0.16,-0.67 0.22,-1.01 v 0 0 q 0.19,-1.23 -0.24,-1.86 z m 9.7,6.35 v 0 q -0.11,0.01 -1.01,-0.05 v 0 0 q 0.41,-1.21 0.87,-2.27 v 0 0 q 0.16,-0.39 0.71,-1.62 v 0 0 q -0.02,0.66 -0.2,3.9 v 0 0 q -0.17,0.02 -0.37,0.04 z m 1.81,-6.71 v 0 q -0.19,-0.09 -0.57,-0.02 v 0 0 q -0.64,0.11 -0.85,0.39 v 0 0 q -0.2,0.25 -0.98,2.03 v 0 0 q -0.14,0.32 -0.5,1.12 v 0 0 q -0.31,0.72 -0.49,1.13 v 0 0 q -0.42,0.96 -0.79,2.03 v 0 0 q -0.93,0.11 -1.58,0.5100003 v 0 0 q -0.17,0.11 -0.15,0.21 v 0 0 q 0.03,0.09 0.23,0.1 v 0 0 q 0.52,0.02 1,-0.25 v 0 0 q 0.14,-0.02 0.19,-0.02 v 0 0 q 0.06,0 0.12,0 v 0 0 q -0.32,0.98 -0.64,2.12 v 0 0 q -0.07,0.26 0.59,0.14 v 0 0 q 0.3,-0.05 0.55,-0.18 v 0 0 q 0.27,-0.12 0.3,-0.22 v 0 0 q 0.27,-0.95 0.54,-1.79 v 0 0 q 0.29,0.02 0.49,-0.01 v 0 0 q 0.71,-0.08 1.06,-0.01 v 0 0 q -0.11,2.09 -0.11,3.56 v 0 0 q 0,0.08 0.23,0.09 v 0 0 q 0.22,0.01 0.5,-0.05 v 0 0 q 0.74,-0.15 0.74,-0.44 v 0 0 q 0,-1.72 0.2,-5.1700003 v 0 0 q 0.2,-3.45 0.2,-5.18 v 0 0 q 0,-0.09 -0.28,-0.09 z m 10.13,10.1500003 v 0 q -1.04,0.03 -1.48,-0.17 v 0 0 q 0.85,-4.5900003 1.97,-9.0800003 v 0 0 q 0.06,-0.25 -0.59,-0.13 v 0 0 q -0.3,0.05 -0.55,0.17 v 0 0 q -0.28,0.13 -0.3,0.22 v 0 0 q -1.12,4.49 -1.98,9.1300003 v 0 0 q -0.09,0.09 -0.02,0.14 v 0 0 q 0,0.02 -0.01,0.09 v 0 0 q -0.01,0.04 -0.01,0.08 v 0 0 q -0.02,0.16 0.62,0.05 v 0 0 q 0.49,0.12 1.4,0.09 v 0 0 q 0.61,-0.01 1.03,-0.27 v 0 0 q 0.18,-0.11 0.16,-0.21 v 0 0 q -0.03,-0.11 -0.24,-0.11 z m 20.63,-1.96 v 0 q -0.1,0.13 -0.35,0.33 v 0 0 q -0.04,0.03 -0.14,0.1 v 0 0 q -0.06,0.04 -0.11,0.07 v 0 0 q -0.11,0.07 -0.1,0.06 v 0 0 q -0.09,0.04 -0.21,0.1 v 0 0 q -0.02,0.01 -0.08,0.03 v 0 0 q -0.01,0.01 -0.11,0.05 v 0 0 q -0.01,0 -0.09,0.03 v 0 0 q -0.07,0.02 -0.08,0.03 v 0 0 q -0.09,0.02 -0.19,0.04 v 0 0 q -0.03,0.02 -0.17,0.04 v 0 0 q 0,0 -0.06,0.01 v 0 0 q 0.03,0 -0.11,0.01 v 0 0 q -0.08,0.01 -0.2,0.02 v 0 0 q 0.02,0 -0.15,0 v 0 0 q 0.07,-0.26 0.43,-2.05 v 0 0 q 0.33,-0.04 0.6,-0.1900003 v 0 0 q 0.12,-0.06 0.27,-0.12 v 0 0 q 0,-0.01 0.01,-0.01 v 0 0 q 0,0 0.01,0 v 0 0 q 0.08,-0.04 0.2,-0.08 v 0 0 q 0.02,0 0.02,-0.01 v 0 0 0 q 0.02,0 0.08,-0.02 v 0 0 q 0.08,-0.02 0.09,-0.02 v 0 0 q 0.04,0 0.08,-0.01 v 0 0 q 0.04,-0.01 0.08,-0.01 v 0 0 q 0,0 0.01,0 v 0 0 q 0.02,0 0.04,0 v 0 0 q 0.04,0 0.05,0 v 0 0 q 0.02,0 0.06,0.01 v 0 0 q 0.12,0.03 0.23,0.1 v 0 0 q 0.23,0.15 0.23,0.5800003 v 0 0 q 0,0.47 -0.34,0.91 z m -0.38,-3.2200003 v 0 q -0.49,0.8 -1.18,1.39 v 0 0 q 0.15,-0.59 0.41,-1.52 v 0 0 q 0.73,-2.57 0.92,-3.58 v 0 0 q 0.52,0.51 0.58,1.39 v 0 0 q 0.07,1 -0.73,2.32 z m 0.33,1.1 v 0 q 0.6,-0.58 1.07,-1.3 v 0 0 q 0.9,-1.39 0.78,-2.65 v 0 0 q -0.12,-1.15 -1.12,-1.68 v 0 0 q -1.03,-0.54 -2.63,-0.07 v 0 0 q -0.73,0.21 -0.67,0.41 v 0 0 q 0.06,0.24 0.79,0.03 v 0 0 q 0.18,-0.06 0.13,-0.04 v 0 0 q 0.06,-0.01 0.07,-0.02 v 0 0 q 0.01,0 0.02,0 v 0 0 q 0.05,0 0.07,0 v 0 0 q -0.02,0.04 -0.02,0.09 v 0 0 q -0.16,1.21 -1.03,4.26 v 0 0 q -0.35,1.22 -0.54,2.1000003 v 0 0 q -0.5,2.33 -0.49,2.28 v 0 0 q -0.05,0.18 0.31,0.17 v 0 0 q 0.06,0.04 0.19,0.05 v 0 0 q 1.53,0.05 3.16,-0.72 v 0 0 q 1.61,-0.77 1.75,-2.0000003 v 0 0 q 0.14,-1.28 -1.84,-0.91 z m 13.46,-5.04 v 0 q -0.63,0.17 -0.67,0.42 v 0 0 q -0.05,0.38 -0.21,1.88 v 0 0 q -0.12,1.18 -0.26,1.9 v 0 0 q -0.4,2.1600003 -1.5,3.4200003 v 0 0 q -0.15,0.17 -0.26,0.29 v 0 0 q -0.26,-0.51 -0.3,-1.72 v 0 0 q -0.06,-1.5000003 0.86,-3.8200003 v 0 0 q 0.69,-1.7 0.85,-2.18 v 0 0 q 0.09,-0.25 -0.58,-0.14 v 0 0 q -0.77,0.15 -0.86,0.4 v 0 0 q -0.16,0.46 -0.72,1.87 v 0 0 q -0.46,1.18 -0.67,1.9 v 0 0 q -0.67,2.2300003 -0.1,3.9300003 v 0 0 q 0.1,0.32 0.3,0.47 v 0 0 q 0.23,0.2 0.88,0.09 v 0 0 q 1.01,-0.19 1.92,-1.21 v 0 0 q 1.17,-1.3 1.6,-3.3700003 v 0 0 q 0.15,-0.79 0.29,-2.05 v 0 0 q 0.18,-1.71 0.23,-2.05 v 0 0 q 0.01,-0.13 -0.37,-0.1 v 0 0 q -0.26,0.02 -0.43,0.07 z m 12.42,3.29 v 0 q 0.45,-0.76 0.65,-1.97 v 0 0 q 0.24,-1.38 -0.26,-1.96 v 0 0 q -0.28,-0.35 -1.04,-0.3 v 0 0 q -0.93,0.06 -1.83,0.58 v 0 0 q -1.25,0.74 -1.86,2.49 v 0 0 q -0.61,1.76 0,2.84 v 0 0 q 0.3,0.5 1.67,0.99 v 0 0 q 0.57,0.2000003 0.77,0.3100003 v 0 0 q 0.44,0.26 0.53,0.63 v 0 0 q 0.1,0.39 -0.25,1.06 v 0 0 q -0.17,0.34 -0.45,0.59 v 0 0 q -0.12,0.11 -0.28,0.21 v 0 0 q -0.07,0.05 -0.09,0.06 v 0 0 q -0.07,0.04 -0.13,0.06 v 0 0 q 0.1,-0.04 -0.02,0.01 v 0 0 q 0,0 0.06,-0.01 v 0 0 q -0.04,0 -0.08,0 v 0 0 q -0.01,0.01 -0.11,0 v 0 0 q -0.05,0 -0.2,-0.04 v 0 0 q -0.35,-0.08 -0.65,-0.41 v 0 0 q -0.22,-0.25 -0.31,-0.71 v 0 0 q -0.1,-0.49 0.12,-0.65 v 0 0 q 0.2,-0.15 0.18,-0.22 v 0 0 q -0.03,-0.09 -0.26,-0.1 v 0 0 q -0.62,-0.01 -1.03,0.28 v 0 0 q -0.39,0.29 -0.47,0.62 v 0 0 q -0.08,0.34 0.08,0.76 v 0 0 q 0.27,0.74 1.14,0.99 v 0 0 q 0.89,0.26 2.16,-0.24 v 0 0 q 1.01,-0.41 1.58,-1.13 v 0 0 q 0.38,-0.48 0.47,-1 v 0 0 q 0.1,-0.62 -0.28,-1.01 v 0 0 q -0.27,-0.2700003 -0.83,-0.4800003 v 0 0 q -0.15,-0.05 -0.47,-0.16 v 0 0 q -0.29,-0.09 -0.42,-0.15 v 0 0 q -0.53,-0.21 -0.81,-0.47 v 0 0 q -0.3,-0.28 -0.41,-1.01 v 0 0 q -0.2,-1.43 0.75,-2.99 v 0 0 q 0.42,-0.68 0.93,-1.02 v 0 0 q 0.05,-0.04 0.14,-0.09 v 0 0 q -0.01,0 0.05,-0.02 v 0 0 q -0.01,0 0.03,-0.01 v 0 0 q -0.03,0.01 0.01,0 v 0 0 q -0.08,0.02 -0.15,0.02 v 0 0 q 0.02,0 0.01,0 v 0 h 0.02 v 0 q 0.05,0.01 0.13,0.04 v 0 0 q 0.02,0 0.11,0.07 v 0 0 q 0.07,0.05 0.11,0.1 v 0 0 q 0.12,0.14 0.19,0.39 v 0 0 q 0.11,0.39 0.05,1.04 v 0 0 q -0.12,1.32 -0.7,2.27 v 0 0 q -0.08,0.14 0.22,0.15 v 0 0 q 0.2,0.01 0.37,-0.02 v 0 0 q 0.69,-0.13 0.86,-0.39 z m 8.64,-2.97 v 0 q -0.25,1.09 -0.86,4.26 v 0 0 q -0.24,1.24 -0.43,2.1400003 v 0 0 q -0.39,1.85 -0.4,1.98 v 0 0 q 0,0.08 0.22,0.09 v 0 0 q 0.22,0.01 0.5,-0.04 v 0 0 q 0.73,-0.15 0.74,-0.44 v 0 0 q 0.01,-0.29 0.17,-0.9 v 0 0 q 0.07,-0.3 0.23,-1.05 v 0 0 q 0.17,-0.8000003 0.43,-2.1300003 v 0 0 q 0.59,-3.08 0.84,-4.17 v 0 0 q 0.05,-0.25 -0.59,-0.14 v 0 0 q -0.3,0.06 -0.55,0.18 v 0 0 q -0.28,0.13 -0.3,0.22 z m 14.05,-1.79 v 0 q -0.31,0.05 -0.56,0.17 v 0 0 q -0.27,0.13 -0.3,0.22 v 0 0 q -0.88,2.83 -1.5,6.26 v 0 0 q -0.09,-0.51 -0.2,-1.18 v 0 0 q -0.3,-1.77 -0.34,-2.16 v 0 0 q -0.15,-1.28 -0.35,-1.68 v 0 0 q 0,0 -0.01,-0.02 v 0 l 0.01,-0.01 v 0 q 0,0 0,-0.01 v 0 0 q 0.04,-0.25 -0.59,-0.13 v 0 0 q -0.3,0.06 -0.55,0.17 v 0 0 q -0.29,0.14 -0.3,0.23 v 0 0 q -0.19,1.11 -0.83,4.13 v 0 0 q -0.55,2.6100003 -0.75,4.1600003 v 0 0 q -0.02,0.12 0.37,0.09 v 0 0 q 0.25,-0.02 0.42,-0.07 v 0 0 q 0.64,-0.17 0.67,-0.41 v 0 0 q 0.2,-1.53 0.75,-4.1200003 v 0 0 q 0.03,0.16 0.04,0.23 v 0 0 q 0.21,1.29 0.39,2.3400003 v 0 0 q 0.26,1.5 0.49,2.14 v 0 0 q 0.05,0.15 0.39,0.12 v 0 0 q 0.32,-0.03 0.65,-0.16 v 0 0 q 0.59,-0.16 0.63,-0.4 v 0 0 q 0.77,-5.6500003 2.05,-9.7800003 v 0 0 q 0.09,-0.25 -0.58,-0.13 z m 11.22,0.68 v 0 q -0.71,-0.23 -1.89,0.15 v 0 0 q -1.51,0.49 -2.08,2.2 v 0 0 q -0.34,1.06 -0.17,2.34 v 0 0 q 0.09,0.65 0.36,1.05 v 0 0 q -0.42,0.22 -0.71,0.54 v 0 0 q -1,1.1000003 -0.89,2.3100003 v 0 0 q 0.07,0.69 0.55,1.1 v 0 0 q 0.39,0.33 1.22,0.31 v 0 0 q 0.83,-0.03 1.54,-0.47 v 0 0 q 0.75,-0.46 1.05,-1.19 v 0 0 q 0.06,-0.15 -0.22,-0.16 v 0 0 q -0.17,-0.01 -0.36,0.03 v 0 0 q -0.75,0.13 -0.85,0.39 v 0 0 q -0.2,0.49 -0.55,0.78 v 0 0 q -0.01,0.01 -0.03,0.02 v 0 0 q -0.05,-0.01 -0.05,-0.01 v 0 0 q -0.07,-0.02 -0.15,-0.06 v 0 0 q -0.17,-0.07 -0.32,-0.23 v 0 0 q -0.29,-0.29 -0.37,-0.89 v 0 0 q -0.09,-0.8 0.54,-1.7700003 v 0 0 q 0.08,-0.12 0.18,-0.24 v 0 0 q 0.21,0.08 0.49,0.1 v 0 0 q 0.4,0.02 0.89,-0.21 v 0 0 q 0.42,-0.19 0.27,-0.33 v 0 0 q -0.29,-0.28 -0.71,-0.34 v 0 0 q -0.04,-0.05 -0.08,-0.09 v 0 0 q -0.2,-0.3 -0.31,-0.86 v 0 0 q -0.19,-1 -0.01,-1.89 v 0 0 q 0.27,-1.3 1.03,-1.96 v 0 0 q 0.06,-0.04 0.15,-0.11 v 0 0 q 0.01,0 0.01,0 v 0 0 q 0.13,0.01 0.11,0 v 0 0 q 0.58,0.09 0.46,0.69 v 0 0 q -0.04,0.24 0.59,0.13 v 0 0 q 0.3,-0.06 0.56,-0.17 v 0 0 q 0.28,-0.13 0.3,-0.22 v 0 0 q 0.13,-0.73 -0.55,-0.94 z m 11.44,4.08 v 0 q 0.45,-0.76 0.65,-1.97 v 0 0 q 0.24,-1.38 -0.26,-1.96 v 0 0 q -0.28,-0.35 -1.04,-0.3 v 0 0 q -0.93,0.06 -1.83,0.58 v 0 0 q -1.25,0.74 -1.86,2.49 v 0 0 q -0.61,1.76 0,2.84 v 0 0 q 0.3,0.5 1.67,0.99 v 0 0 q 0.57,0.2000003 0.77,0.3100003 v 0 0 q 0.44,0.26 0.53,0.63 v 0 0 q 0.09,0.39 -0.25,1.06 v 0 0 q -0.17,0.34 -0.45,0.59 v 0 0 q -0.12,0.11 -0.28,0.21 v 0 0 q -0.07,0.05 -0.09,0.06 v 0 0 q -0.07,0.04 -0.13,0.06 v 0 0 q 0.1,-0.04 -0.02,0.01 v 0 0 q 0,0 0.06,-0.01 v 0 0 q -0.04,0 -0.09,0 v 0 0 q 0,0.01 -0.1,0 v 0 0 q -0.05,0 -0.2,-0.04 v 0 0 q -0.35,-0.08 -0.65,-0.41 v 0 0 q -0.22,-0.25 -0.31,-0.71 v 0 0 q -0.1,-0.49 0.12,-0.65 v 0 0 q 0.2,-0.15 0.18,-0.22 v 0 0 q -0.03,-0.09 -0.26,-0.1 v 0 0 q -0.62,-0.01 -1.03,0.28 v 0 0 q -0.39,0.29 -0.47,0.62 v 0 0 q -0.08,0.34 0.08,0.76 v 0 0 q 0.27,0.74 1.14,0.99 v 0 0 q 0.89,0.26 2.16,-0.24 v 0 0 q 1.01,-0.41 1.58,-1.13 v 0 0 q 0.38,-0.48 0.47,-1 v 0 0 q 0.1,-0.62 -0.29,-1.01 v 0 0 q -0.26,-0.2700003 -0.82,-0.4800003 v 0 0 q -0.15,-0.05 -0.47,-0.16 v 0 0 q -0.29,-0.09 -0.42,-0.15 v 0 0 q -0.53,-0.21 -0.81,-0.47 v 0 0 q -0.31,-0.28 -0.41,-1.01 v 0 0 q -0.2,-1.43 0.75,-2.99 v 0 0 q 0.42,-0.68 0.93,-1.02 v 0 0 q 0.04,-0.04 0.14,-0.09 v 0 0 q -0.01,0 0.05,-0.02 v 0 0 q -0.02,0 0.03,-0.01 v 0 0 q -0.03,0.01 0.01,0 v 0 0 q -0.08,0.02 -0.15,0.02 v 0 0 q 0.02,0 0.01,0 v 0 h 0.02 v 0 q 0.05,0.01 0.13,0.04 v 0 0 q 0.02,0 0.11,0.07 v 0 0 q 0.07,0.05 0.11,0.1 v 0 0 q 0.12,0.14 0.19,0.39 v 0 0 q 0.11,0.39 0.05,1.04 v 0 0 q -0.12,1.32 -0.7,2.27 v 0 0 q -0.08,0.14 0.22,0.15 v 0 0 q 0.2,0.01 0.36,-0.02 v 0 0 q 0.7,-0.13 0.87,-0.39 z m 12.36,0 v 0 q 0.45,-0.76 0.65,-1.97 v 0 0 q 0.24,-1.38 -0.26,-1.96 v 0 0 q -0.28,-0.35 -1.04,-0.3 v 0 0 q -0.93,0.06 -1.83,0.58 v 0 0 q -1.25,0.74 -1.86,2.49 v 0 0 q -0.61,1.76 0,2.84 v 0 0 q 0.3,0.5 1.67,0.99 v 0 0 q 0.57,0.2000003 0.77,0.3100003 v 0 0 q 0.44,0.26 0.53,0.63 v 0 0 q 0.09,0.39 -0.25,1.06 v 0 0 q -0.18,0.34 -0.46,0.59 v 0 0 q -0.11,0.11 -0.27,0.21 v 0 0 q -0.07,0.05 -0.09,0.06 v 0 0 q -0.07,0.04 -0.13,0.06 v 0 0 q 0.1,-0.04 -0.03,0.01 v 0 0 q 0.01,0 0.07,-0.01 v 0 0 q -0.04,0 -0.09,0 v 0 0 q 0,0.01 -0.1,0 v 0 0 q -0.05,0 -0.2,-0.04 v 0 0 q -0.35,-0.08 -0.65,-0.41 v 0 0 q -0.22,-0.25 -0.31,-0.71 v 0 0 q -0.1,-0.49 0.12,-0.65 v 0 0 q 0.2,-0.15 0.18,-0.22 v 0 0 q -0.03,-0.09 -0.26,-0.1 v 0 0 q -0.62,-0.01 -1.03,0.28 v 0 0 q -0.39,0.29 -0.47,0.62 v 0 0 q -0.08,0.34 0.08,0.76 v 0 0 q 0.27,0.74 1.14,0.99 v 0 0 q 0.89,0.26 2.16,-0.24 v 0 0 q 1.01,-0.41 1.58,-1.13 v 0 0 q 0.38,-0.48 0.46,-1 v 0 0 q 0.11,-0.62 -0.28,-1.01 v 0 0 q -0.26,-0.2700003 -0.82,-0.4800003 v 0 0 q -0.15,-0.05 -0.47,-0.16 v 0 0 q -0.29,-0.09 -0.42,-0.15 v 0 0 q -0.53,-0.21 -0.82,-0.47 v 0 0 q -0.3,-0.28 -0.4,-1.01 v 0 0 q -0.2,-1.43 0.75,-2.99 v 0 0 q 0.42,-0.68 0.93,-1.02 v 0 0 q 0.04,-0.04 0.14,-0.09 v 0 0 q -0.01,0 0.05,-0.02 v 0 0 q -0.02,0 0.03,-0.01 v 0 0 q -0.03,0.01 0.01,0 v 0 0 q -0.08,0.02 -0.15,0.02 v 0 0 q 0.02,0 0.01,0 v 0 h 0.02 v 0 q 0.05,0.01 0.13,0.04 v 0 0 q 0.02,0 0.11,0.07 v 0 0 q 0.07,0.05 0.11,0.1 v 0 0 q 0.12,0.14 0.19,0.39 v 0 0 q 0.11,0.39 0.05,1.04 v 0 0 q -0.12,1.32 -0.7,2.27 v 0 0 q -0.09,0.14 0.22,0.15 v 0 0 q 0.2,0.01 0.36,-0.02 v 0 0 q 0.7,-0.13 0.87,-0.39 z"
       id="path8" />
    <text
       xml:space="preserve"
       style="font-style:italic;font-variant:normal;font-weight:normal;font-stretch:normal;font-size:18.5961px;line-height:1.25;font-family:'Malgun Gothic';-inkscape-font-specification:'Malgun Gothic Italic';word-spacing:2.39532px;fill:#000000;fill-opacity:1;stroke:none;stroke-width:0.464905"
       x="-27.520874"
       y="174.52106"
       id="text1836"
       transform="scale(1.1699776,0.85471719)"><tspan
         sodipodi:role="line"
         id="tspan1834"
         style="font-style:italic;font-variant:normal;font-weight:normal;font-stretch:normal;font-family:'Malgun Gothic';-inkscape-font-specification:'Malgun Gothic Italic';stroke-width:0.464905"
         x="-27.520874"
         y="174.52106" /></text>
  </g>
</svg>
