<svg data-v-423bf9ae="" xmlns="http://www.w3.org/2000/svg" viewBox="0 0 591 90" class="iconLeftSlogan"><!----><!----><!----><g data-v-423bf9ae="" id="fc889c4c-79e2-458a-942a-ac84643845fd" fill="white" transform="matrix(4.524887125158685,0,0,4.524887125158685,80.43052353625302,-15.339368544223227)"><path d="M0.43 12.10C1.19 13.08 2.56 13.85 4.49 13.85C6.69 13.85 8.37 12.85 8.37 10.89C8.37 9.52 7.55 8.89 6.62 8.53C5.54 8.11 4.28 8.04 3.39 7.69C2.90 7.49 2.46 7.20 2.46 6.58C2.46 5.77 3.25 5.24 4.51 5.24C5.74 5.24 6.58 5.74 7.14 6.37L8.13 5.49C7.56 4.75 6.43 3.95 4.56 3.95C2.35 3.95 1.09 5.07 1.09 6.64C1.09 7.76 1.72 8.37 2.74 8.78C3.79 9.20 5.03 9.30 5.94 9.63C6.55 9.86 6.99 10.18 6.99 10.91C6.99 11.98 6.02 12.59 4.58 12.59C3.19 12.59 2.17 12.03 1.50 11.23ZM12.82 6.15C10.99 6.15 9.69 7.49 9.69 10.02C9.69 12.57 10.98 13.92 12.82 13.92C14.64 13.92 15.95 12.57 15.95 10.02C15.95 7.49 14.63 6.15 12.82 6.15ZM12.82 7.38C13.92 7.38 14.69 8.29 14.69 10.04C14.69 11.77 13.92 12.68 12.82 12.68C11.70 12.68 10.96 11.77 10.96 10.04C10.96 8.29 11.72 7.38 12.82 7.38ZM17.75 6.33L17.75 11.21C17.75 13.08 18.79 13.92 20.29 13.92C21.28 13.92 22.06 13.54 22.62 12.81L22.62 13.73L23.88 13.73L23.88 6.33L22.55 6.33L22.55 11.34C22.13 12.33 21.49 12.66 20.71 12.66C19.77 12.66 19.08 12.17 19.08 10.99L19.08 6.33ZM25.26 6.33L25.26 7.42L26.10 7.42L26.10 11.91C26.10 13.19 26.85 13.80 27.76 13.80C28.29 13.80 28.87 13.59 29.13 13.29L29.36 12.07C29.02 12.39 28.69 12.52 28.29 12.52C27.73 12.52 27.43 12.21 27.43 11.62L27.43 7.42L29.32 7.42L29.32 6.33L27.43 6.33L27.43 3.89L26.10 4.33L26.10 6.33ZM30.67 3.84L30.67 13.73L32.00 13.73L32.00 8.71C32.41 7.73 33.07 7.41 33.85 7.41C34.83 7.41 35.48 7.90 35.48 9.18L35.48 13.73L36.81 13.73L36.81 9.04C36.81 6.97 35.77 6.15 34.27 6.15C33.31 6.15 32.55 6.50 32.00 7.15L32.00 3.39ZM42.62 4.05L42.62 13.73L48.83 13.73L48.83 12.40L44.04 12.40L44.04 9.42L47.53 9.42L47.53 8.13L44.04 8.13L44.04 5.38L48.73 5.38L48.73 4.05ZM50.58 6.33L50.58 13.73L51.91 13.73L51.91 8.71C52.32 7.73 52.98 7.41 53.76 7.41C54.74 7.41 55.38 7.90 55.38 9.18L55.38 13.73L56.71 13.73L56.71 9.04C56.71 6.97 55.68 6.15 54.18 6.15C53.17 6.15 52.39 6.52 51.84 7.24L51.84 6.33ZM63.50 3.84L63.50 7.18C63.01 6.58 62.30 6.15 61.33 6.15C59.29 6.15 58.53 8.12 58.53 10.04C58.53 11.96 59.29 13.92 61.33 13.92C62.36 13.92 63.10 13.43 63.59 12.78L63.59 13.73L64.83 13.73L64.83 3.39ZM61.67 12.68C60.26 12.68 59.79 11.42 59.79 10.04C59.79 8.65 60.26 7.36 61.66 7.36C62.54 7.36 63.11 7.88 63.50 8.57L63.50 11.49C63.11 12.21 62.54 12.68 61.67 12.68ZM70.70 4.05L70.70 13.73L73.54 13.73C76.33 13.73 78.55 11.86 78.55 8.86C78.55 5.88 76.36 4.05 73.54 4.05ZM72.14 5.38L73.56 5.38C75.54 5.38 77.11 6.66 77.11 8.88C77.11 11.10 75.53 12.42 73.56 12.42L72.14 12.42ZM86.46 10.49C86.48 10.33 86.49 10.18 86.49 10.00C86.49 7.52 85.18 6.15 83.36 6.15C81.54 6.15 80.23 7.52 80.23 10.00C80.23 12.60 81.68 13.92 83.44 13.92C84.77 13.92 85.60 13.17 86.00 12.61L85.12 11.84C84.78 12.33 84.22 12.71 83.50 12.71C82.52 12.71 81.63 12.03 81.48 10.49ZM83.37 7.35C84.36 7.35 85.09 8.08 85.25 9.49L81.48 9.49C81.62 8.12 82.35 7.35 83.37 7.35ZM93.44 7.13C92.93 6.64 91.99 6.15 90.73 6.15C89.15 6.15 87.98 6.92 87.98 8.27C87.98 9.09 88.40 9.60 89.03 9.91C89.66 10.22 90.69 10.40 91.49 10.72C92.05 10.95 92.29 11.19 92.29 11.59C92.29 12.31 91.59 12.68 90.64 12.68C89.63 12.68 88.72 12.25 88.19 11.75L87.67 12.87C88.21 13.41 89.29 13.92 90.65 13.92C92.12 13.92 93.60 13.33 93.60 11.59C93.60 10.74 93.24 10.25 92.48 9.87C91.66 9.46 90.58 9.30 89.92 9.02C89.53 8.85 89.29 8.62 89.29 8.25C89.29 7.74 89.74 7.34 90.68 7.34C91.63 7.34 92.46 7.76 92.95 8.27ZM95.02 6.33L95.02 13.73L96.35 13.73L96.35 6.33ZM95.68 3.50C95.23 3.50 94.92 3.82 94.92 4.30C94.92 4.76 95.23 5.10 95.68 5.10C96.12 5.10 96.45 4.76 96.45 4.30C96.45 3.82 96.12 3.50 95.68 3.50ZM103.28 6.33L103.28 7.20C102.79 6.59 102.05 6.15 101.04 6.15C98.98 6.15 98.22 8.01 98.22 9.79C98.22 11.56 98.98 13.43 101.04 13.43C102.05 13.43 102.79 12.99 103.28 12.39L103.28 12.66C103.28 14.25 102.40 14.98 100.32 15.46L100.48 16.65C103.31 16.10 104.52 15.01 104.52 12.32L104.52 6.33ZM101.36 12.26C99.95 12.26 99.48 11.07 99.48 9.80C99.48 8.54 99.95 7.35 101.37 7.35C102.30 7.35 102.89 7.84 103.28 8.55L103.28 11.05C102.89 11.75 102.30 12.26 101.36 12.26ZM106.65 6.33L106.65 13.73L107.98 13.73L107.98 8.71C108.39 7.73 109.05 7.41 109.83 7.41C110.81 7.41 111.45 7.90 111.45 9.18L111.45 13.73L112.78 13.73L112.78 9.04C112.78 6.97 111.75 6.15 110.25 6.15C109.24 6.15 108.46 6.52 107.91 7.24L107.91 6.33Z"></path></g><!----><g data-v-423bf9ae="" id="523d2e89-7018-40fe-a6b4-518c76cb2311" transform="matrix(4.455445376275492,0,0,4.455445376275492,-21.4653445153059,-7.565343813269372)" stroke="none" fill="white"><path d="M9.305 19l.2-2h4.99l.2 2h-5.39zm.6-6h4.19l.2 2h-4.59l.2-2zm.4-4h3.39l.2 2h-3.79l.2-2zm.4-4h2.59l.2 2h-2.99l.2-2zM19 19h-2.295l-.2-2H18.5v-2h-2.195l-.2-2H18v-2h-2.095l-.2-2H17.5V7h-1.995l-.2-2H17V3h-1.895l-.11-1.1-1.99.2.09.9h-2.19l.09-.9-1.99-.2-.11 1.1H7v2h1.695l-.2 2H6.5v2h1.795l-.2 2H6v2h1.895l-.2 2H5.5v2h1.995l-.2 2H5v2h2.095l-.09.9 1.99.2.11-1.1h5.79l.11 1.1 1.99-.2-.09-.9H19v-2z"></path></g><!----><g data-v-423bf9ae="" id="5db0384b-bf6d-4c44-bff3-27affd7899f0" fill="white" transform="matrix(1.2319350651384018,0,0,1.2319350651384018,83.41183049751163,59.13631534562034)"><path d="M2.14 11.33L2.14 11.33Q1.10 11.36 0.66 11.16L0.66 11.16L0.66 11.16Q1.51 6.57 2.63 2.08L2.63 2.08L2.63 2.08Q2.69 1.83 2.04 1.95L2.04 1.95L2.04 1.95Q1.74 2.00 1.49 2.12L1.49 2.12L1.49 2.12Q1.21 2.25 1.19 2.34L1.19 2.34L1.19 2.34Q0.07 6.83-0.79 11.47L-0.79 11.47L-0.79 11.47Q-0.88 11.56-0.81 11.61L-0.81 11.61L-0.81 11.61Q-0.81 11.63-0.82 11.70L-0.82 11.70L-0.82 11.70Q-0.83 11.74-0.83 11.78L-0.83 11.78L-0.83 11.78Q-0.85 11.94-0.21 11.83L-0.21 11.83L-0.21 11.83Q0.28 11.95 1.19 11.92L1.19 11.92L1.19 11.92Q1.80 11.91 2.22 11.65L2.22 11.65L2.22 11.65Q2.40 11.54 2.38 11.44L2.38 11.44L2.38 11.44Q2.35 11.33 2.14 11.33L2.14 11.33ZM12.87 5.20L12.87 5.20Q12.74 6.64 12.48 7.92L12.48 7.92L12.48 7.92Q12.07 9.88 11.29 10.64L11.29 10.64L11.29 10.64Q11.20 10.55 11.13 10.38L11.13 10.38L11.13 10.38Q10.94 9.97 10.96 9.03L10.96 9.03L10.96 9.03Q10.99 7.34 11.56 5.48L11.56 5.48L11.56 5.48Q12.06 3.85 12.76 3.01L12.76 3.01L12.76 3.01Q12.83 3.25 12.88 3.62L12.88 3.62L12.88 3.62Q12.95 4.21 12.87 5.20L12.87 5.20ZM13.79 1.96L13.79 1.96Q13.59 1.79 12.85 2.05L12.85 2.05L12.85 2.05Q12.35 2.24 12.37 2.39L12.37 2.39L12.37 2.39Q12.12 2.48 11.94 2.63L11.94 2.63L11.94 2.63Q10.96 3.40 10.29 5.22L10.29 5.22L10.29 5.22Q9.75 6.70 9.56 8.50L9.56 8.50L9.56 8.50Q9.47 9.28 9.50 9.92L9.50 9.92L9.50 9.92Q9.54 10.77 9.91 11.13L9.91 11.13L9.91 11.13Q10.09 11.31 10.52 11.33L10.52 11.33L10.52 11.33Q11.06 11.36 11.89 11.02L11.89 11.02L11.89 11.02Q12.57 10.74 13.09 9.94L13.09 9.94L13.09 9.94Q13.56 9.21 13.88 7.85L13.88 7.85L13.88 7.85Q14.09 6.94 14.21 5.84L14.21 5.84L14.21 5.84Q14.38 4.44 14.38 3.78L14.38 3.78L14.38 3.78Q14.36 2.45 13.79 1.96L13.79 1.96ZM26.34 1.54L26.34 1.54Q25.91 0.91 24.73 1.20L24.73 1.20L24.73 1.20Q23.77 1.43 23.13 2.14L23.13 2.14L23.13 2.14Q22.11 3.26 21.68 5.40L21.68 5.40L21.68 5.40Q21.39 6.86 21.29 8.67L21.29 8.67L21.29 8.67Q21.28 9.98 21.42 10.47L21.42 10.47L21.42 10.47Q21.69 11.44 22.78 11.50L22.78 11.50L22.78 11.50Q23.40 11.53 23.99 11.27L23.99 11.27L23.99 11.27Q24.58 10.99 24.95 10.51L24.95 10.51L24.95 10.51Q25.33 10.02 25.66 8.89L25.66 8.89L25.66 8.89Q25.74 8.64 25.08 8.76L25.08 8.76L25.08 8.76Q24.78 8.81 24.53 8.93L24.53 8.93L24.53 8.93Q24.25 9.06 24.23 9.15L24.23 9.15L24.23 9.15Q23.98 9.99 23.71 10.48L23.71 10.48L23.71 10.48Q23.59 10.68 23.46 10.83L23.46 10.83L23.46 10.83Q22.89 10.58 22.77 9.66L22.77 9.66L22.77 9.66Q22.74 9.42 22.76 8.20L22.76 8.20L22.76 8.20Q22.85 6.41 23.17 4.92L23.17 4.92L23.17 4.92Q23.63 2.75 24.66 1.80L24.66 1.80L24.66 1.80Q24.68 1.79 24.71 1.76L24.71 1.76L24.71 1.76Q25.07 2.01 25.16 2.75L25.16 2.75L25.16 2.75Q25.24 3.36 25.03 4.29L25.03 4.29L25.03 4.29Q24.69 5.76 24.68 5.80L24.68 5.80L24.68 5.80Q24.66 5.92 25.05 5.89L25.05 5.89L25.05 5.89Q25.31 5.87 25.47 5.82L25.47 5.82L25.47 5.82Q26.11 5.65 26.15 5.41L26.15 5.41L26.15 5.41Q26.20 5.07 26.35 4.41L26.35 4.41L26.35 4.41Q26.52 3.74 26.57 3.40L26.57 3.40L26.57 3.40Q26.76 2.17 26.34 1.54L26.34 1.54ZM36.03 7.89L36.03 7.89Q35.93 7.90 35.03 7.84L35.03 7.84L35.03 7.84Q35.44 6.63 35.90 5.57L35.90 5.57L35.90 5.57Q36.06 5.18 36.61 3.95L36.61 3.95L36.61 3.95Q36.59 4.61 36.40 7.85L36.40 7.85L36.40 7.85Q36.23 7.87 36.03 7.89L36.03 7.89ZM37.84 1.18L37.84 1.18Q37.66 1.09 37.28 1.16L37.28 1.16L37.28 1.16Q36.63 1.27 36.42 1.55L36.42 1.55L36.42 1.55Q36.22 1.80 35.44 3.58L35.44 3.58L35.44 3.58Q35.31 3.90 34.95 4.70L34.95 4.70L34.95 4.70Q34.63 5.42 34.45 5.83L34.45 5.83L34.45 5.83Q34.04 6.79 33.66 7.86L33.66 7.86L33.66 7.86Q32.74 7.97 32.09 8.37L32.09 8.37L32.09 8.37Q31.91 8.48 31.94 8.58L31.94 8.58L31.94 8.58Q31.96 8.67 32.17 8.68L32.17 8.68L32.17 8.68Q32.69 8.70 33.16 8.43L33.16 8.43L33.16 8.43Q33.30 8.41 33.35 8.41L33.35 8.41L33.35 8.41Q33.41 8.41 33.48 8.41L33.48 8.41L33.48 8.41Q33.15 9.39 32.83 10.53L32.83 10.53L32.83 10.53Q32.76 10.79 33.42 10.67L33.42 10.67L33.42 10.67Q33.72 10.62 33.97 10.49L33.97 10.49L33.97 10.49Q34.25 10.37 34.28 10.27L34.28 10.27L34.28 10.27Q34.54 9.32 34.82 8.48L34.82 8.48L34.82 8.48Q35.11 8.50 35.31 8.47L35.31 8.47L35.31 8.47Q36.01 8.39 36.37 8.46L36.37 8.46L36.37 8.46Q36.26 10.55 36.26 12.02L36.26 12.02L36.26 12.02Q36.26 12.10 36.48 12.11L36.48 12.11L36.48 12.11Q36.70 12.12 36.99 12.06L36.99 12.06L36.99 12.06Q37.72 11.91 37.72 11.62L37.72 11.62L37.72 11.62Q37.72 9.90 37.93 6.45L37.93 6.45L37.93 6.45Q38.12 3.00 38.12 1.27L38.12 1.27L38.12 1.27Q38.12 1.18 37.84 1.18L37.84 1.18ZM47.97 11.33L47.97 11.33Q46.94 11.36 46.49 11.16L46.49 11.16L46.49 11.16Q47.35 6.57 48.46 2.08L48.46 2.08L48.46 2.08Q48.53 1.83 47.88 1.95L47.88 1.95L47.88 1.95Q47.58 2.00 47.33 2.12L47.33 2.12L47.33 2.12Q47.04 2.25 47.02 2.34L47.02 2.34L47.02 2.34Q45.90 6.83 45.04 11.47L45.04 11.47L45.04 11.47Q44.95 11.56 45.02 11.61L45.02 11.61L45.02 11.61Q45.02 11.63 45.01 11.70L45.01 11.70L45.01 11.70Q45.01 11.74 45.00 11.78L45.00 11.78L45.00 11.78Q44.98 11.94 45.62 11.83L45.62 11.83L45.62 11.83Q46.12 11.95 47.02 11.92L47.02 11.92L47.02 11.92Q47.63 11.91 48.06 11.65L48.06 11.65L48.06 11.65Q48.23 11.54 48.21 11.44L48.21 11.44L48.21 11.44Q48.19 11.33 47.97 11.33L47.97 11.33ZM70.61 5.50L70.61 5.50Q71.06 4.74 71.26 3.53L71.26 3.53L71.26 3.53Q71.50 2.15 71.00 1.57L71.00 1.57L71.00 1.57Q70.72 1.22 69.97 1.27L69.97 1.27L69.97 1.27Q69.03 1.33 68.13 1.85L68.13 1.85L68.13 1.85Q66.88 2.59 66.27 4.34L66.27 4.34L66.27 4.34Q65.66 6.10 66.27 7.18L66.27 7.18L66.27 7.18Q66.57 7.68 67.94 8.17L67.94 8.17L67.94 8.17Q68.51 8.37 68.71 8.48L68.71 8.48L68.71 8.48Q69.15 8.74 69.24 9.11L69.24 9.11L69.24 9.11Q69.34 9.50 69.00 10.17L69.00 10.17L69.00 10.17Q68.82 10.51 68.54 10.76L68.54 10.76L68.54 10.76Q68.42 10.87 68.26 10.97L68.26 10.97L68.26 10.97Q68.19 11.02 68.17 11.03L68.17 11.03L68.17 11.03Q68.11 11.07 68.04 11.09L68.04 11.09L68.04 11.09Q68.14 11.05 68.02 11.10L68.02 11.10L68.02 11.10Q68.02 11.10 68.09 11.09L68.09 11.09L68.09 11.09Q68.04 11.09 68.00 11.09L68.00 11.09L68.00 11.09Q67.99 11.10 67.89 11.09L67.89 11.09L67.89 11.09Q67.85 11.09 67.70 11.05L67.70 11.05L67.70 11.05Q67.34 10.97 67.04 10.64L67.04 10.64L67.04 10.64Q66.82 10.39 66.73 9.93L66.73 9.93L66.73 9.93Q66.63 9.44 66.86 9.28L66.86 9.28L66.86 9.28Q67.05 9.13 67.03 9.06L67.03 9.06L67.03 9.06Q67.01 8.97 66.77 8.96L66.77 8.96L66.77 8.96Q66.15 8.95 65.74 9.24L65.74 9.24L65.74 9.24Q65.35 9.53 65.28 9.86L65.28 9.86L65.28 9.86Q65.19 10.20 65.35 10.62L65.35 10.62L65.35 10.62Q65.63 11.36 66.49 11.61L66.49 11.61L66.49 11.61Q67.38 11.87 68.65 11.37L68.65 11.37L68.65 11.37Q69.67 10.96 70.23 10.24L70.23 10.24L70.23 10.24Q70.61 9.76 70.70 9.24L70.70 9.24L70.70 9.24Q70.80 8.62 70.42 8.23L70.42 8.23L70.42 8.23Q70.15 7.96 69.59 7.75L69.59 7.75L69.59 7.75Q69.44 7.70 69.13 7.59L69.13 7.59L69.13 7.59Q68.83 7.50 68.70 7.44L68.70 7.44L68.70 7.44Q68.17 7.23 67.89 6.97L67.89 6.97L67.89 6.97Q67.59 6.69 67.48 5.96L67.48 5.96L67.48 5.96Q67.29 4.53 68.24 2.97L68.24 2.97L68.24 2.97Q68.65 2.29 69.16 1.95L69.16 1.95L69.16 1.95Q69.21 1.91 69.30 1.86L69.30 1.86L69.30 1.86Q69.30 1.86 69.35 1.84L69.35 1.84L69.35 1.84Q69.34 1.84 69.38 1.83L69.38 1.83L69.38 1.83Q69.35 1.84 69.39 1.83L69.39 1.83L69.39 1.83Q69.32 1.85 69.24 1.85L69.24 1.85L69.24 1.85Q69.26 1.85 69.25 1.85L69.25 1.85L69.27 1.85L69.27 1.85Q69.32 1.86 69.41 1.89L69.41 1.89L69.41 1.89Q69.42 1.89 69.51 1.96L69.51 1.96L69.51 1.96Q69.58 2.01 69.62 2.06L69.62 2.06L69.62 2.06Q69.74 2.20 69.81 2.45L69.81 2.45L69.81 2.45Q69.92 2.84 69.86 3.49L69.86 3.49L69.86 3.49Q69.74 4.81 69.17 5.76L69.17 5.76L69.17 5.76Q69.08 5.90 69.38 5.91L69.38 5.91L69.38 5.91Q69.58 5.92 69.75 5.89L69.75 5.89L69.75 5.89Q70.44 5.76 70.61 5.50L70.61 5.50ZM79.25 2.53L79.25 2.53Q79.00 3.62 78.39 6.79L78.39 6.79L78.39 6.79Q78.15 8.03 77.96 8.93L77.96 8.93L77.96 8.93Q77.57 10.78 77.56 10.91L77.56 10.91L77.56 10.91Q77.56 10.99 77.79 11.00L77.79 11.00L77.79 11.00Q78.00 11.01 78.29 10.96L78.29 10.96L78.29 10.96Q79.02 10.81 79.02 10.52L79.02 10.52L79.02 10.52Q79.03 10.23 79.19 9.62L79.19 9.62L79.19 9.62Q79.26 9.32 79.42 8.57L79.42 8.57L79.42 8.57Q79.59 7.77 79.85 6.44L79.85 6.44L79.85 6.44Q80.45 3.36 80.69 2.27L80.69 2.27L80.69 2.27Q80.75 2.02 80.10 2.13L80.10 2.13L80.10 2.13Q79.80 2.19 79.55 2.31L79.55 2.31L79.55 2.31Q79.27 2.44 79.25 2.53L79.25 2.53ZM92.19 2.35L92.19 2.35Q91.23 2.17 90.23 2.15L90.23 2.15L90.23 2.15Q90.13 2.03 89.65 2.11L89.65 2.11L89.65 2.11Q89.56 2.13 89.44 2.16L89.44 2.16L89.44 2.16Q88.38 2.22 87.34 2.46L87.34 2.46L87.34 2.46Q86.60 2.63 86.67 2.88L86.67 2.88L86.67 2.88Q86.71 3.08 87.44 2.91L87.44 2.91L87.44 2.91Q87.45 2.91 87.46 2.90L87.46 2.90L87.46 2.90Q87.47 2.90 87.49 2.89L87.49 2.89L87.49 2.89Q87.56 2.88 87.72 2.85L87.72 2.85L87.72 2.85Q87.88 2.82 88.11 2.80L88.11 2.80L88.11 2.80Q88.40 2.76 88.72 2.75L88.72 2.75L88.72 2.75Q87.31 7.40 86.91 10.96L86.91 10.96L86.91 10.96Q86.91 11.02 87.13 11.03L87.13 11.03L87.13 11.03Q87.34 11.04 87.62 10.99L87.62 10.99L87.62 10.99Q88.35 10.86 88.38 10.56L88.38 10.56L88.38 10.56Q88.75 7.19 90.07 2.78L90.07 2.78L90.07 2.78Q90.54 2.82 90.98 2.91L90.98 2.91L90.98 2.91Q91.42 2.99 92.00 2.72L92.00 2.72L92.00 2.72Q92.16 2.65 92.26 2.54L92.26 2.54L92.26 2.54Q92.40 2.39 92.19 2.35L92.19 2.35ZM102.61 1.42L102.61 1.42Q101.90 1.19 100.71 1.57L100.71 1.57L100.71 1.57Q99.20 2.06 98.64 3.77L98.64 3.77L98.64 3.77Q98.29 4.83 98.47 6.11L98.47 6.11L98.47 6.11Q98.56 6.76 98.83 7.16L98.83 7.16L98.83 7.16Q98.41 7.38 98.12 7.70L98.12 7.70L98.12 7.70Q97.12 8.80 97.23 10.01L97.23 10.01L97.23 10.01Q97.30 10.70 97.77 11.11L97.77 11.11L97.77 11.11Q98.17 11.44 99.00 11.42L99.00 11.42L99.00 11.42Q99.83 11.39 100.54 10.95L100.54 10.95L100.54 10.95Q101.29 10.49 101.59 9.76L101.59 9.76L101.59 9.76Q101.65 9.61 101.37 9.60L101.37 9.60L101.37 9.60Q101.20 9.59 101.01 9.63L101.01 9.63L101.01 9.63Q100.26 9.76 100.15 10.02L100.15 10.02L100.15 10.02Q99.96 10.51 99.61 10.80L99.61 10.80L99.61 10.80Q99.59 10.81 99.58 10.82L99.58 10.82L99.58 10.82Q99.53 10.81 99.52 10.81L99.52 10.81L99.52 10.81Q99.46 10.79 99.37 10.75L99.37 10.75L99.37 10.75Q99.21 10.68 99.05 10.52L99.05 10.52L99.05 10.52Q98.77 10.23 98.69 9.63L98.69 9.63L98.69 9.63Q98.59 8.83 99.22 7.86L99.22 7.86L99.22 7.86Q99.31 7.74 99.41 7.62L99.41 7.62L99.41 7.62Q99.62 7.70 99.89 7.72L99.89 7.72L99.89 7.72Q100.30 7.74 100.79 7.51L100.79 7.51L100.79 7.51Q101.21 7.32 101.06 7.18L101.06 7.18L101.06 7.18Q100.77 6.90 100.34 6.84L100.34 6.84L100.34 6.84Q100.30 6.79 100.27 6.75L100.27 6.75L100.27 6.75Q100.06 6.45 99.96 5.89L99.96 5.89L99.96 5.89Q99.76 4.89 99.95 4.00L99.95 4.00L99.95 4.00Q100.21 2.70 100.98 2.04L100.98 2.04L100.98 2.04Q101.04 2.00 101.13 1.93L101.13 1.93L101.13 1.93Q101.14 1.93 101.14 1.93L101.14 1.93L101.14 1.93Q101.27 1.94 101.25 1.93L101.25 1.93L101.25 1.93Q101.83 2.02 101.71 2.62L101.71 2.62L101.71 2.62Q101.66 2.86 102.29 2.75L102.29 2.75L102.29 2.75Q102.60 2.69 102.85 2.58L102.85 2.58L102.85 2.58Q103.13 2.45 103.15 2.36L103.15 2.36L103.15 2.36Q103.29 1.63 102.61 1.42L102.61 1.42ZM114.04 5.50L114.04 5.50Q114.50 4.74 114.70 3.53L114.70 3.53L114.70 3.53Q114.94 2.15 114.44 1.57L114.44 1.57L114.44 1.57Q114.15 1.22 113.40 1.27L113.40 1.27L113.40 1.27Q112.46 1.33 111.57 1.85L111.57 1.85L111.57 1.85Q110.32 2.59 109.71 4.34L109.71 4.34L109.71 4.34Q109.09 6.10 109.71 7.18L109.71 7.18L109.71 7.18Q110.00 7.68 111.38 8.17L111.38 8.17L111.38 8.17Q111.95 8.37 112.15 8.48L112.15 8.48L112.15 8.48Q112.59 8.74 112.68 9.11L112.68 9.11L112.68 9.11Q112.77 9.50 112.43 10.17L112.43 10.17L112.43 10.17Q112.25 10.51 111.97 10.76L111.97 10.76L111.97 10.76Q111.86 10.87 111.70 10.97L111.70 10.97L111.70 10.97Q111.62 11.02 111.60 11.03L111.60 11.03L111.60 11.03Q111.54 11.07 111.48 11.09L111.48 11.09L111.48 11.09Q111.58 11.05 111.45 11.10L111.45 11.10L111.45 11.10Q111.46 11.10 111.52 11.09L111.52 11.09L111.52 11.09Q111.48 11.09 111.43 11.09L111.43 11.09L111.43 11.09Q111.43 11.10 111.33 11.09L111.33 11.09L111.33 11.09Q111.28 11.09 111.13 11.05L111.13 11.05L111.13 11.05Q110.78 10.97 110.48 10.64L110.48 10.64L110.48 10.64Q110.26 10.39 110.17 9.93L110.17 9.93L110.17 9.93Q110.07 9.44 110.29 9.28L110.29 9.28L110.29 9.28Q110.49 9.13 110.47 9.06L110.47 9.06L110.47 9.06Q110.44 8.97 110.21 8.96L110.21 8.96L110.21 8.96Q109.59 8.95 109.18 9.24L109.18 9.24L109.18 9.24Q108.79 9.53 108.71 9.86L108.71 9.86L108.71 9.86Q108.63 10.20 108.79 10.62L108.79 10.62L108.79 10.62Q109.06 11.36 109.93 11.61L109.93 11.61L109.93 11.61Q110.82 11.87 112.09 11.37L112.09 11.37L112.09 11.37Q113.10 10.96 113.67 10.24L113.67 10.24L113.67 10.24Q114.04 9.76 114.13 9.24L114.13 9.24L114.13 9.24Q114.24 8.62 113.85 8.23L113.85 8.23L113.85 8.23Q113.59 7.96 113.03 7.75L113.03 7.75L113.03 7.75Q112.88 7.70 112.56 7.59L112.56 7.59L112.56 7.59Q112.27 7.50 112.14 7.44L112.14 7.44L112.14 7.44Q111.60 7.23 111.32 6.97L111.32 6.97L111.32 6.97Q111.02 6.69 110.92 5.96L110.92 5.96L110.92 5.96Q110.72 4.53 111.67 2.97L111.67 2.97L111.67 2.97Q112.09 2.29 112.59 1.95L112.59 1.95L112.59 1.95Q112.64 1.91 112.74 1.86L112.74 1.86L112.74 1.86Q112.73 1.86 112.79 1.84L112.79 1.84L112.79 1.84Q112.77 1.84 112.81 1.83L112.81 1.83L112.81 1.83Q112.79 1.84 112.83 1.83L112.83 1.83L112.83 1.83Q112.75 1.85 112.68 1.85L112.68 1.85L112.68 1.85Q112.70 1.85 112.68 1.85L112.68 1.85L112.70 1.85L112.70 1.85Q112.76 1.86 112.84 1.89L112.84 1.89L112.84 1.89Q112.85 1.89 112.95 1.96L112.95 1.96L112.95 1.96Q113.02 2.01 113.06 2.06L113.06 2.06L113.06 2.06Q113.18 2.20 113.24 2.45L113.24 2.45L113.24 2.45Q113.36 2.84 113.30 3.49L113.30 3.49L113.30 3.49Q113.18 4.81 112.60 5.76L112.60 5.76L112.60 5.76Q112.51 5.90 112.82 5.91L112.82 5.91L112.82 5.91Q113.02 5.92 113.18 5.89L113.18 5.89L113.18 5.89Q113.88 5.76 114.04 5.50L114.04 5.50ZM136.99 1.59L136.99 1.59Q135.88 1.45 134.20 1.75L134.20 1.75L134.20 1.75Q134.21 1.74 134.22 1.70L134.22 1.70L134.22 1.70Q134.23 1.66 134.23 1.64L134.23 1.64L134.23 1.64Q134.30 1.39 133.65 1.50L133.65 1.50L133.65 1.50Q133.35 1.56 133.10 1.67L133.10 1.67L133.10 1.67Q132.82 1.80 132.79 1.90L132.79 1.90L132.79 1.90Q132.80 1.88 132.75 2.08L132.75 2.08L132.75 2.08Q132.56 2.18 132.49 2.30L132.49 2.30L132.49 2.30Q132.43 2.43 132.64 2.45L132.64 2.45L132.64 2.45Q131.37 7.25 130.87 10.98L130.87 10.98L130.87 10.98Q130.85 11.10 131.24 11.07L131.24 11.07L131.24 11.07Q131.49 11.05 131.66 11.00L131.66 11.00L131.66 11.00Q132.30 10.83 132.33 10.59L132.33 10.59L132.33 10.59Q132.55 8.95 132.91 7.16L132.91 7.16L132.91 7.16Q132.84 7.17 133.90 7.09L133.90 7.09L133.90 7.09Q134.54 7.05 134.88 6.75L134.88 6.75L134.88 6.75Q135.04 6.60 134.85 6.54L134.85 6.54L134.85 6.54Q134.72 6.50 134.54 6.51L134.54 6.51L134.54 6.51Q133.41 6.60 133.01 6.66L133.01 6.66L133.01 6.66Q133.43 4.65 134.07 2.24L134.07 2.24L134.07 2.24Q135.09 2.06 135.78 2.15L135.78 2.15L135.78 2.15Q136.26 2.21 136.80 1.96L136.80 1.96L136.80 1.96Q136.94 1.89 137.05 1.78L137.05 1.78L137.05 1.78Q137.20 1.62 136.99 1.59L136.99 1.59ZM145.49 5.20L145.49 5.20Q145.37 6.64 145.10 7.92L145.10 7.92L145.10 7.92Q144.69 9.88 143.92 10.64L143.92 10.64L143.92 10.64Q143.83 10.55 143.75 10.38L143.75 10.38L143.75 10.38Q143.57 9.97 143.58 9.03L143.58 9.03L143.58 9.03Q143.61 7.34 144.18 5.48L144.18 5.48L144.18 5.48Q144.68 3.85 145.38 3.01L145.38 3.01L145.38 3.01Q145.46 3.25 145.50 3.62L145.50 3.62L145.50 3.62Q145.57 4.21 145.49 5.20L145.49 5.20ZM146.42 1.96L146.42 1.96Q146.21 1.79 145.48 2.05L145.48 2.05L145.48 2.05Q144.98 2.24 145.00 2.39L145.00 2.39L145.00 2.39Q144.74 2.48 144.57 2.63L144.57 2.63L144.57 2.63Q143.58 3.40 142.92 5.22L142.92 5.22L142.92 5.22Q142.37 6.70 142.18 8.50L142.18 8.50L142.18 8.50Q142.10 9.28 142.13 9.92L142.13 9.92L142.13 9.92Q142.17 10.77 142.53 11.13L142.53 11.13L142.53 11.13Q142.71 11.31 143.14 11.33L143.14 11.33L143.14 11.33Q143.68 11.36 144.51 11.02L144.51 11.02L144.51 11.02Q145.20 10.74 145.71 9.94L145.71 9.94L145.71 9.94Q146.19 9.21 146.50 7.85L146.50 7.85L146.50 7.85Q146.71 6.94 146.84 5.84L146.84 5.84L146.84 5.84Q147 4.44 147 3.78L147 3.78L147 3.78Q146.99 2.45 146.42 1.96L146.42 1.96ZM157.74 5.31L157.74 5.31Q157.59 6.24 156.69 7.18L156.69 7.18L156.69 7.18Q156.50 7.38 156.26 7.58L156.26 7.58L156.26 7.58Q156.20 7.63 156.14 7.68L156.14 7.68L156.14 7.68Q155.92 7.59 155.67 7.58L155.67 7.58L155.67 7.58Q156.23 4.74 156.37 2.66L156.37 2.66L156.37 2.66Q156.64 2.80 156.88 2.99L156.88 2.99L156.88 2.99Q157.39 3.39 157.62 4.03L157.62 4.03L157.62 4.03Q157.85 4.65 157.74 5.31L157.74 5.31ZM154.77 2.40L154.77 2.40Q154.77 2.40 154.78 2.39L154.78 2.39L154.78 2.39Q154.77 2.40 154.77 2.40L154.77 2.40ZM159.70 11.42L159.70 11.42Q158.97 10.88 157.44 8.99L157.44 8.99L157.44 8.99Q156.77 8.17 156.65 8.05L156.65 8.05L156.65 8.05Q157.11 7.84 157.54 7.50L157.54 7.50L157.54 7.50Q158.74 6.56 159.10 5.41L159.10 5.41L159.10 5.41Q159.35 4.60 159.14 3.84L159.14 3.84L159.14 3.84Q158.93 3.07 158.31 2.53L158.31 2.53L158.31 2.53Q157.06 1.46 154.99 1.88L154.99 1.88L154.99 1.88Q154.86 1.91 154.66 1.96L154.66 1.96L154.66 1.96Q153.92 2.14 153.99 2.37L153.99 2.37L153.99 2.37Q154.05 2.58 154.76 2.40L154.76 2.40L154.76 2.40Q154.83 2.39 154.88 2.38L154.88 2.38L154.88 2.38Q154.92 2.37 154.95 2.37L154.95 2.37L154.95 2.37Q154.83 5.11 153.60 10.79L153.60 10.79L153.60 10.79Q153.54 11.04 154.18 10.92L154.18 10.92L154.18 10.92Q154.49 10.87 154.74 10.75L154.74 10.75L154.74 10.75Q155.02 10.62 155.04 10.53L155.04 10.53L155.04 10.53Q155.33 9.17 155.43 8.72L155.43 8.72L155.43 8.72Q155.44 8.72 155.44 8.72L155.44 8.72L155.44 8.72Q155.44 8.72 155.44 8.72L155.44 8.72L155.44 8.72Q155.55 8.85 156.24 9.70L156.24 9.70L156.24 9.70Q157.55 11.34 158.32 11.92L158.32 11.92L158.32 11.92Q158.55 12.09 159.26 11.83L159.26 11.83L159.26 11.83Q159.45 11.76 159.59 11.67L159.59 11.67L159.59 11.67Q159.84 11.52 159.70 11.42L159.70 11.42ZM178.55 11.33L178.55 11.33Q177.52 11.36 177.07 11.16L177.07 11.16L177.07 11.16Q177.93 6.57 179.04 2.08L179.04 2.08L179.04 2.08Q179.11 1.83 178.46 1.95L178.46 1.95L178.46 1.95Q178.16 2.00 177.91 2.12L177.91 2.12L177.91 2.12Q177.63 2.25 177.60 2.34L177.60 2.34L177.60 2.34Q176.48 6.83 175.62 11.47L175.62 11.47L175.62 11.47Q175.53 11.56 175.60 11.61L175.60 11.61L175.60 11.61Q175.60 11.63 175.59 11.70L175.59 11.70L175.59 11.70Q175.59 11.74 175.58 11.78L175.58 11.78L175.58 11.78Q175.56 11.94 176.20 11.83L176.20 11.83L176.20 11.83Q176.70 11.95 177.60 11.92L177.60 11.92L177.60 11.92Q178.21 11.91 178.64 11.65L178.64 11.65L178.64 11.65Q178.81 11.54 178.79 11.44L178.79 11.44L178.79 11.44Q178.77 11.33 178.55 11.33L178.55 11.33ZM189.28 5.20L189.28 5.20Q189.16 6.64 188.89 7.92L188.89 7.92L188.89 7.92Q188.48 9.88 187.71 10.64L187.71 10.64L187.71 10.64Q187.62 10.55 187.54 10.38L187.54 10.38L187.54 10.38Q187.36 9.97 187.37 9.03L187.37 9.03L187.37 9.03Q187.40 7.34 187.97 5.48L187.97 5.48L187.97 5.48Q188.47 3.85 189.17 3.01L189.17 3.01L189.17 3.01Q189.25 3.25 189.29 3.62L189.29 3.62L189.29 3.62Q189.36 4.21 189.28 5.20L189.28 5.20ZM190.21 1.96L190.21 1.96Q190.00 1.79 189.27 2.05L189.27 2.05L189.27 2.05Q188.77 2.24 188.79 2.39L188.79 2.39L188.79 2.39Q188.54 2.48 188.36 2.63L188.36 2.63L188.36 2.63Q187.37 3.40 186.71 5.22L186.71 5.22L186.71 5.22Q186.16 6.70 185.97 8.50L185.97 8.50L185.97 8.50Q185.89 9.28 185.92 9.92L185.92 9.92L185.92 9.92Q185.96 10.77 186.32 11.13L186.32 11.13L186.32 11.13Q186.50 11.31 186.94 11.33L186.94 11.33L186.94 11.33Q187.48 11.36 188.30 11.02L188.30 11.02L188.30 11.02Q188.99 10.74 189.51 9.94L189.51 9.94L189.51 9.94Q189.98 9.21 190.29 7.85L190.29 7.85L190.29 7.85Q190.50 6.94 190.63 5.84L190.63 5.84L190.63 5.84Q190.79 4.44 190.79 3.78L190.79 3.78L190.79 3.78Q190.78 2.45 190.21 1.96L190.21 1.96ZM202.75 1.54L202.75 1.54Q202.32 0.91 201.14 1.20L201.14 1.20L201.14 1.20Q200.18 1.43 199.54 2.14L199.54 2.14L199.54 2.14Q198.53 3.26 198.10 5.40L198.10 5.40L198.10 5.40Q197.80 6.86 197.71 8.67L197.71 8.67L197.71 8.67Q197.70 9.98 197.83 10.47L197.83 10.47L197.83 10.47Q198.11 11.44 199.19 11.50L199.19 11.50L199.19 11.50Q199.81 11.53 200.40 11.27L200.40 11.27L200.40 11.27Q201.00 10.99 201.37 10.51L201.37 10.51L201.37 10.51Q201.74 10.02 202.08 8.89L202.08 8.89L202.08 8.89Q202.15 8.64 201.50 8.76L201.50 8.76L201.50 8.76Q201.20 8.81 200.94 8.93L200.94 8.93L200.94 8.93Q200.67 9.06 200.64 9.15L200.64 9.15L200.64 9.15Q200.40 9.99 200.12 10.48L200.12 10.48L200.12 10.48Q200.01 10.68 199.88 10.83L199.88 10.83L199.88 10.83Q199.31 10.58 199.19 9.66L199.19 9.66L199.19 9.66Q199.16 9.42 199.17 8.20L199.17 8.20L199.17 8.20Q199.27 6.41 199.58 4.92L199.58 4.92L199.58 4.92Q200.05 2.75 201.08 1.80L201.08 1.80L201.08 1.80Q201.09 1.79 201.12 1.76L201.12 1.76L201.12 1.76Q201.48 2.01 201.58 2.75L201.58 2.75L201.58 2.75Q201.65 3.36 201.44 4.29L201.44 4.29L201.44 4.29Q201.11 5.76 201.10 5.80L201.10 5.80L201.10 5.80Q201.08 5.92 201.46 5.89L201.46 5.89L201.46 5.89Q201.72 5.87 201.89 5.82L201.89 5.82L201.89 5.82Q202.52 5.65 202.56 5.41L202.56 5.41L202.56 5.41Q202.61 5.07 202.77 4.41L202.77 4.41L202.77 4.41Q202.93 3.74 202.99 3.40L202.99 3.40L202.99 3.40Q203.18 2.17 202.75 1.54L202.75 1.54ZM212.45 7.89L212.45 7.89Q212.34 7.90 211.44 7.84L211.44 7.84L211.44 7.84Q211.85 6.63 212.31 5.57L212.31 5.57L212.31 5.57Q212.47 5.18 213.02 3.95L213.02 3.95L213.02 3.95Q213.00 4.61 212.82 7.85L212.82 7.85L212.82 7.85Q212.65 7.87 212.45 7.89L212.45 7.89ZM214.26 1.18L214.26 1.18Q214.07 1.09 213.69 1.16L213.69 1.16L213.69 1.16Q213.05 1.27 212.84 1.55L212.84 1.55L212.84 1.55Q212.64 1.80 211.86 3.58L211.86 3.58L211.86 3.58Q211.72 3.90 211.36 4.70L211.36 4.70L211.36 4.70Q211.05 5.42 210.87 5.83L210.87 5.83L210.87 5.83Q210.45 6.79 210.08 7.86L210.08 7.86L210.08 7.86Q209.15 7.97 208.50 8.37L208.50 8.37L208.50 8.37Q208.33 8.48 208.35 8.58L208.35 8.58L208.35 8.58Q208.38 8.67 208.58 8.68L208.58 8.68L208.58 8.68Q209.10 8.70 209.58 8.43L209.58 8.43L209.58 8.43Q209.72 8.41 209.77 8.41L209.77 8.41L209.77 8.41Q209.83 8.41 209.89 8.41L209.89 8.41L209.89 8.41Q209.57 9.39 209.25 10.53L209.25 10.53L209.25 10.53Q209.18 10.79 209.84 10.67L209.84 10.67L209.84 10.67Q210.14 10.62 210.39 10.49L210.39 10.49L210.39 10.49Q210.66 10.37 210.69 10.27L210.69 10.27L210.69 10.27Q210.96 9.32 211.23 8.48L211.23 8.48L211.23 8.48Q211.52 8.50 211.72 8.47L211.72 8.47L211.72 8.47Q212.43 8.39 212.78 8.46L212.78 8.46L212.78 8.46Q212.67 10.55 212.67 12.02L212.67 12.02L212.67 12.02Q212.67 12.10 212.90 12.11L212.90 12.11L212.90 12.11Q213.12 12.12 213.40 12.06L213.40 12.06L213.40 12.06Q214.14 11.91 214.14 11.62L214.14 11.62L214.14 11.62Q214.14 9.90 214.34 6.45L214.34 6.45L214.34 6.45Q214.54 3.00 214.54 1.27L214.54 1.27L214.54 1.27Q214.54 1.18 214.26 1.18L214.26 1.18ZM224.39 11.33L224.39 11.33Q223.35 11.36 222.91 11.16L222.91 11.16L222.91 11.16Q223.76 6.57 224.88 2.08L224.88 2.08L224.88 2.08Q224.94 1.83 224.29 1.95L224.29 1.95L224.29 1.95Q223.99 2.00 223.74 2.12L223.74 2.12L223.74 2.12Q223.46 2.25 223.44 2.34L223.44 2.34L223.44 2.34Q222.32 6.83 221.46 11.47L221.46 11.47L221.46 11.47Q221.37 11.56 221.44 11.61L221.44 11.61L221.44 11.61Q221.44 11.63 221.43 11.70L221.43 11.70L221.43 11.70Q221.42 11.74 221.42 11.78L221.42 11.78L221.42 11.78Q221.40 11.94 222.04 11.83L222.04 11.83L222.04 11.83Q222.53 11.95 223.44 11.92L223.44 11.92L223.44 11.92Q224.05 11.91 224.47 11.65L224.47 11.65L224.47 11.65Q224.65 11.54 224.63 11.44L224.63 11.44L224.63 11.44Q224.60 11.33 224.39 11.33L224.39 11.33ZM245.02 9.37L245.02 9.37Q244.92 9.50 244.67 9.70L244.67 9.70L244.67 9.70Q244.63 9.73 244.53 9.80L244.53 9.80L244.53 9.80Q244.47 9.84 244.42 9.87L244.42 9.87L244.42 9.87Q244.31 9.94 244.32 9.93L244.32 9.93L244.32 9.93Q244.23 9.97 244.11 10.03L244.11 10.03L244.11 10.03Q244.09 10.04 244.03 10.06L244.03 10.06L244.03 10.06Q244.02 10.07 243.92 10.11L243.92 10.11L243.92 10.11Q243.91 10.11 243.83 10.14L243.83 10.14L243.83 10.14Q243.76 10.16 243.75 10.17L243.75 10.17L243.75 10.17Q243.66 10.19 243.56 10.21L243.56 10.21L243.56 10.21Q243.53 10.23 243.39 10.25L243.39 10.25L243.39 10.25Q243.39 10.25 243.33 10.26L243.33 10.26L243.33 10.26Q243.36 10.26 243.22 10.27L243.22 10.27L243.22 10.27Q243.14 10.28 243.02 10.29L243.02 10.29L243.02 10.29Q243.04 10.29 242.87 10.29L242.87 10.29L242.87 10.29Q242.94 10.03 243.30 8.24L243.30 8.24L243.30 8.24Q243.63 8.20 243.90 8.05L243.90 8.05L243.90 8.05Q244.02 7.99 244.17 7.93L244.17 7.93L244.17 7.93Q244.17 7.92 244.18 7.92L244.18 7.92L244.18 7.92Q244.18 7.92 244.19 7.92L244.19 7.92L244.19 7.92Q244.27 7.88 244.39 7.84L244.39 7.84L244.39 7.84Q244.41 7.84 244.41 7.83L244.41 7.83L244.41 7.83L244.41 7.83Q244.43 7.83 244.49 7.81L244.49 7.81L244.49 7.81Q244.57 7.79 244.58 7.79L244.58 7.79L244.58 7.79Q244.62 7.79 244.66 7.78L244.66 7.78L244.66 7.78Q244.70 7.77 244.74 7.77L244.74 7.77L244.74 7.77Q244.74 7.77 244.75 7.77L244.75 7.77L244.75 7.77Q244.77 7.77 244.79 7.77L244.79 7.77L244.79 7.77Q244.83 7.77 244.84 7.77L244.84 7.77L244.84 7.77Q244.86 7.77 244.90 7.78L244.90 7.78L244.90 7.78Q245.02 7.81 245.13 7.88L245.13 7.88L245.13 7.88Q245.36 8.03 245.36 8.46L245.36 8.46L245.36 8.46Q245.36 8.93 245.02 9.37L245.02 9.37ZM244.64 6.15L244.64 6.15Q244.15 6.95 243.46 7.54L243.46 7.54L243.46 7.54Q243.61 6.95 243.87 6.02L243.87 6.02L243.87 6.02Q244.60 3.45 244.79 2.44L244.79 2.44L244.79 2.44Q245.31 2.95 245.37 3.83L245.37 3.83L245.37 3.83Q245.44 4.83 244.64 6.15L244.64 6.15ZM244.97 7.25L244.97 7.25Q245.57 6.67 246.04 5.95L246.04 5.95L246.04 5.95Q246.94 4.56 246.82 3.30L246.82 3.30L246.82 3.30Q246.70 2.15 245.70 1.62L245.70 1.62L245.70 1.62Q244.67 1.08 243.07 1.55L243.07 1.55L243.07 1.55Q242.34 1.76 242.40 1.96L242.40 1.96L242.40 1.96Q242.46 2.20 243.19 1.99L243.19 1.99L243.19 1.99Q243.37 1.93 243.32 1.95L243.32 1.95L243.32 1.95Q243.38 1.94 243.39 1.93L243.39 1.93L243.39 1.93Q243.40 1.93 243.41 1.93L243.41 1.93L243.41 1.93Q243.46 1.93 243.48 1.93L243.48 1.93L243.48 1.93Q243.46 1.97 243.46 2.02L243.46 2.02L243.46 2.02Q243.30 3.23 242.43 6.28L242.43 6.28L242.43 6.28Q242.08 7.50 241.89 8.38L241.89 8.38L241.89 8.38Q241.39 10.71 241.40 10.66L241.40 10.66L241.40 10.66Q241.35 10.84 241.71 10.83L241.71 10.83L241.71 10.83Q241.77 10.87 241.90 10.88L241.90 10.88L241.90 10.88Q243.43 10.93 245.06 10.16L245.06 10.16L245.06 10.16Q246.67 9.39 246.81 8.16L246.81 8.16L246.81 8.16Q246.95 6.88 244.97 7.25L244.97 7.25ZM258.43 2.21L258.43 2.21Q257.80 2.38 257.76 2.63L257.76 2.63L257.76 2.63Q257.71 3.01 257.55 4.51L257.55 4.51L257.55 4.51Q257.43 5.69 257.29 6.41L257.29 6.41L257.29 6.41Q256.89 8.57 255.79 9.83L255.79 9.83L255.79 9.83Q255.64 10.00 255.53 10.12L255.53 10.12L255.53 10.12Q255.27 9.61 255.23 8.40L255.23 8.40L255.23 8.40Q255.17 6.90 256.09 4.58L256.09 4.58L256.09 4.58Q256.78 2.88 256.94 2.40L256.94 2.40L256.94 2.40Q257.03 2.15 256.36 2.26L256.36 2.26L256.36 2.26Q255.59 2.41 255.50 2.66L255.50 2.66L255.50 2.66Q255.34 3.12 254.78 4.53L254.78 4.53L254.78 4.53Q254.32 5.71 254.11 6.43L254.11 6.43L254.11 6.43Q253.44 8.66 254.01 10.36L254.01 10.36L254.01 10.36Q254.11 10.68 254.31 10.83L254.31 10.83L254.31 10.83Q254.54 11.03 255.19 10.92L255.19 10.92L255.19 10.92Q256.20 10.73 257.11 9.71L257.11 9.71L257.11 9.71Q258.28 8.41 258.71 6.34L258.71 6.34L258.71 6.34Q258.86 5.55 259 4.29L259 4.29L259 4.29Q259.18 2.58 259.23 2.24L259.23 2.24L259.23 2.24Q259.24 2.11 258.86 2.14L258.86 2.14L258.86 2.14Q258.60 2.16 258.43 2.21L258.43 2.21ZM270.85 5.50L270.85 5.50Q271.30 4.74 271.50 3.53L271.50 3.53L271.50 3.53Q271.74 2.15 271.24 1.57L271.24 1.57L271.24 1.57Q270.96 1.22 270.20 1.27L270.20 1.27L270.20 1.27Q269.27 1.33 268.37 1.85L268.37 1.85L268.37 1.85Q267.12 2.59 266.51 4.34L266.51 4.34L266.51 4.34Q265.90 6.10 266.51 7.18L266.51 7.18L266.51 7.18Q266.81 7.68 268.18 8.17L268.18 8.17L268.18 8.17Q268.75 8.37 268.95 8.48L268.95 8.48L268.95 8.48Q269.39 8.74 269.48 9.11L269.48 9.11L269.48 9.11Q269.58 9.50 269.23 10.17L269.23 10.17L269.23 10.17Q269.06 10.51 268.78 10.76L268.78 10.76L268.78 10.76Q268.66 10.87 268.50 10.97L268.50 10.97L268.50 10.97Q268.43 11.02 268.41 11.03L268.41 11.03L268.41 11.03Q268.34 11.07 268.28 11.09L268.28 11.09L268.28 11.09Q268.38 11.05 268.26 11.10L268.26 11.10L268.26 11.10Q268.26 11.10 268.32 11.09L268.32 11.09L268.32 11.09Q268.28 11.09 268.24 11.09L268.24 11.09L268.24 11.09Q268.23 11.10 268.13 11.09L268.13 11.09L268.13 11.09Q268.08 11.09 267.93 11.05L267.93 11.05L267.93 11.05Q267.58 10.97 267.28 10.64L267.28 10.64L267.28 10.64Q267.06 10.39 266.97 9.93L266.97 9.93L266.97 9.93Q266.87 9.44 267.09 9.28L267.09 9.28L267.09 9.28Q267.29 9.13 267.27 9.06L267.27 9.06L267.27 9.06Q267.24 8.97 267.01 8.96L267.01 8.96L267.01 8.96Q266.39 8.95 265.98 9.24L265.98 9.24L265.98 9.24Q265.59 9.53 265.51 9.86L265.51 9.86L265.51 9.86Q265.43 10.20 265.59 10.62L265.59 10.62L265.59 10.62Q265.86 11.36 266.73 11.61L266.73 11.61L266.73 11.61Q267.62 11.87 268.89 11.37L268.89 11.37L268.89 11.37Q269.90 10.96 270.47 10.24L270.47 10.24L270.47 10.24Q270.85 9.76 270.94 9.24L270.94 9.24L270.94 9.24Q271.04 8.62 270.66 8.23L270.66 8.23L270.66 8.23Q270.39 7.96 269.83 7.75L269.83 7.75L269.83 7.75Q269.68 7.70 269.36 7.59L269.36 7.59L269.36 7.59Q269.07 7.50 268.94 7.44L268.94 7.44L268.94 7.44Q268.41 7.23 268.13 6.97L268.13 6.97L268.13 6.97Q267.83 6.69 267.72 5.96L267.72 5.96L267.72 5.96Q267.52 4.53 268.47 2.97L268.47 2.97L268.47 2.97Q268.89 2.29 269.40 1.95L269.40 1.95L269.40 1.95Q269.45 1.91 269.54 1.86L269.54 1.86L269.54 1.86Q269.53 1.86 269.59 1.84L269.59 1.84L269.59 1.84Q269.58 1.84 269.62 1.83L269.62 1.83L269.62 1.83Q269.59 1.84 269.63 1.83L269.63 1.83L269.63 1.83Q269.55 1.85 269.48 1.85L269.48 1.85L269.48 1.85Q269.50 1.85 269.49 1.85L269.49 1.85L269.51 1.85L269.51 1.85Q269.56 1.86 269.64 1.89L269.64 1.89L269.64 1.89Q269.66 1.89 269.75 1.96L269.75 1.96L269.75 1.96Q269.82 2.01 269.86 2.06L269.86 2.06L269.86 2.06Q269.98 2.20 270.05 2.45L270.05 2.45L270.05 2.45Q270.16 2.84 270.10 3.49L270.10 3.49L270.10 3.49Q269.98 4.81 269.40 5.76L269.40 5.76L269.40 5.76Q269.32 5.90 269.62 5.91L269.62 5.91L269.62 5.91Q269.82 5.92 269.99 5.89L269.99 5.89L269.99 5.89Q270.68 5.76 270.85 5.50L270.85 5.50ZM279.49 2.53L279.49 2.53Q279.24 3.62 278.63 6.79L278.63 6.79L278.63 6.79Q278.39 8.03 278.20 8.93L278.20 8.93L278.20 8.93Q277.81 10.78 277.80 10.91L277.80 10.91L277.80 10.91Q277.80 10.99 278.02 11.00L278.02 11.00L278.02 11.00Q278.24 11.01 278.52 10.96L278.52 10.96L278.52 10.96Q279.25 10.81 279.26 10.52L279.26 10.52L279.26 10.52Q279.27 10.23 279.43 9.62L279.43 9.62L279.43 9.62Q279.50 9.32 279.66 8.57L279.66 8.57L279.66 8.57Q279.83 7.77 280.09 6.44L280.09 6.44L280.09 6.44Q280.68 3.36 280.93 2.27L280.93 2.27L280.93 2.27Q280.98 2.02 280.34 2.13L280.34 2.13L280.34 2.13Q280.04 2.19 279.79 2.31L279.79 2.31L279.79 2.31Q279.51 2.44 279.49 2.53L279.49 2.53ZM293.54 0.74L293.54 0.74Q293.23 0.79 292.98 0.91L292.98 0.91L292.98 0.91Q292.71 1.04 292.68 1.13L292.68 1.13L292.68 1.13Q291.80 3.96 291.18 7.39L291.18 7.39L291.18 7.39Q291.09 6.88 290.98 6.21L290.98 6.21L290.98 6.21Q290.68 4.44 290.64 4.05L290.64 4.05L290.64 4.05Q290.49 2.77 290.29 2.37L290.29 2.37L290.29 2.37Q290.29 2.37 290.28 2.35L290.28 2.35L290.29 2.34L290.29 2.34Q290.29 2.34 290.29 2.33L290.29 2.33L290.29 2.33Q290.33 2.08 289.70 2.20L289.70 2.20L289.70 2.20Q289.40 2.26 289.15 2.37L289.15 2.37L289.15 2.37Q288.86 2.51 288.85 2.60L288.85 2.60L288.85 2.60Q288.66 3.71 288.02 6.73L288.02 6.73L288.02 6.73Q287.47 9.34 287.27 10.89L287.27 10.89L287.27 10.89Q287.25 11.01 287.64 10.98L287.64 10.98L287.64 10.98Q287.89 10.96 288.06 10.91L288.06 10.91L288.06 10.91Q288.70 10.74 288.73 10.50L288.73 10.50L288.73 10.50Q288.93 8.97 289.48 6.38L289.48 6.38L289.48 6.38Q289.51 6.54 289.52 6.61L289.52 6.61L289.52 6.61Q289.73 7.90 289.91 8.95L289.91 8.95L289.91 8.95Q290.17 10.45 290.40 11.09L290.40 11.09L290.40 11.09Q290.45 11.24 290.79 11.21L290.79 11.21L290.79 11.21Q291.11 11.18 291.44 11.05L291.44 11.05L291.44 11.05Q292.03 10.89 292.07 10.65L292.07 10.65L292.07 10.65Q292.84 5.00 294.12 0.87L294.12 0.87L294.12 0.87Q294.21 0.62 293.54 0.74L293.54 0.74ZM304.76 1.42L304.76 1.42Q304.05 1.19 302.87 1.57L302.87 1.57L302.87 1.57Q301.36 2.06 300.79 3.77L300.79 3.77L300.79 3.77Q300.45 4.83 300.62 6.11L300.62 6.11L300.62 6.11Q300.71 6.76 300.98 7.16L300.98 7.16L300.98 7.16Q300.56 7.38 300.27 7.70L300.27 7.70L300.27 7.70Q299.27 8.80 299.38 10.01L299.38 10.01L299.38 10.01Q299.45 10.70 299.93 11.11L299.93 11.11L299.93 11.11Q300.32 11.44 301.15 11.42L301.15 11.42L301.15 11.42Q301.98 11.39 302.69 10.95L302.69 10.95L302.69 10.95Q303.44 10.49 303.74 9.76L303.74 9.76L303.74 9.76Q303.80 9.61 303.52 9.60L303.52 9.60L303.52 9.60Q303.35 9.59 303.16 9.63L303.16 9.63L303.16 9.63Q302.41 9.76 302.31 10.02L302.31 10.02L302.31 10.02Q302.11 10.51 301.76 10.80L301.76 10.80L301.76 10.80Q301.75 10.81 301.73 10.82L301.73 10.82L301.73 10.82Q301.68 10.81 301.68 10.81L301.68 10.81L301.68 10.81Q301.61 10.79 301.53 10.75L301.53 10.75L301.53 10.75Q301.36 10.68 301.21 10.52L301.21 10.52L301.21 10.52Q300.92 10.23 300.84 9.63L300.84 9.63L300.84 9.63Q300.75 8.83 301.38 7.86L301.38 7.86L301.38 7.86Q301.46 7.74 301.56 7.62L301.56 7.62L301.56 7.62Q301.77 7.70 302.05 7.72L302.05 7.72L302.05 7.72Q302.45 7.74 302.94 7.51L302.94 7.51L302.94 7.51Q303.36 7.32 303.21 7.18L303.21 7.18L303.21 7.18Q302.92 6.90 302.50 6.84L302.50 6.84L302.50 6.84Q302.46 6.79 302.42 6.75L302.42 6.75L302.42 6.75Q302.22 6.45 302.11 5.89L302.11 5.89L302.11 5.89Q301.92 4.89 302.10 4.00L302.10 4.00L302.10 4.00Q302.37 2.70 303.13 2.04L303.13 2.04L303.13 2.04Q303.19 2.00 303.28 1.93L303.28 1.93L303.28 1.93Q303.29 1.93 303.29 1.93L303.29 1.93L303.29 1.93Q303.42 1.94 303.40 1.93L303.40 1.93L303.40 1.93Q303.98 2.02 303.86 2.62L303.86 2.62L303.86 2.62Q303.82 2.86 304.45 2.75L304.45 2.75L304.45 2.75Q304.75 2.69 305.01 2.58L305.01 2.58L305.01 2.58Q305.29 2.45 305.31 2.36L305.31 2.36L305.31 2.36Q305.44 1.63 304.76 1.42L304.76 1.42ZM316.20 5.50L316.20 5.50Q316.65 4.74 316.85 3.53L316.85 3.53L316.85 3.53Q317.09 2.15 316.59 1.57L316.59 1.57L316.59 1.57Q316.31 1.22 315.55 1.27L315.55 1.27L315.55 1.27Q314.62 1.33 313.72 1.85L313.72 1.85L313.72 1.85Q312.47 2.59 311.86 4.34L311.86 4.34L311.86 4.34Q311.25 6.10 311.86 7.18L311.86 7.18L311.86 7.18Q312.16 7.68 313.53 8.17L313.53 8.17L313.53 8.17Q314.10 8.37 314.30 8.48L314.30 8.48L314.30 8.48Q314.74 8.74 314.83 9.11L314.83 9.11L314.83 9.11Q314.92 9.50 314.58 10.17L314.58 10.17L314.58 10.17Q314.41 10.51 314.13 10.76L314.13 10.76L314.13 10.76Q314.01 10.87 313.85 10.97L313.85 10.97L313.85 10.97Q313.78 11.02 313.76 11.03L313.76 11.03L313.76 11.03Q313.69 11.07 313.63 11.09L313.63 11.09L313.63 11.09Q313.73 11.05 313.61 11.10L313.61 11.10L313.61 11.10Q313.61 11.10 313.67 11.09L313.67 11.09L313.67 11.09Q313.63 11.09 313.58 11.09L313.58 11.09L313.58 11.09Q313.58 11.10 313.48 11.09L313.48 11.09L313.48 11.09Q313.43 11.09 313.28 11.05L313.28 11.05L313.28 11.05Q312.93 10.97 312.63 10.64L312.63 10.64L312.63 10.64Q312.41 10.39 312.32 9.93L312.32 9.93L312.32 9.93Q312.22 9.44 312.44 9.28L312.44 9.28L312.44 9.28Q312.64 9.13 312.62 9.06L312.62 9.06L312.62 9.06Q312.59 8.97 312.36 8.96L312.36 8.96L312.36 8.96Q311.74 8.95 311.33 9.24L311.33 9.24L311.33 9.24Q310.94 9.53 310.86 9.86L310.86 9.86L310.86 9.86Q310.78 10.20 310.94 10.62L310.94 10.62L310.94 10.62Q311.21 11.36 312.08 11.61L312.08 11.61L312.08 11.61Q312.97 11.87 314.24 11.37L314.24 11.37L314.24 11.37Q315.25 10.96 315.82 10.24L315.82 10.24L315.82 10.24Q316.20 9.76 316.29 9.24L316.29 9.24L316.29 9.24Q316.39 8.62 316.00 8.23L316.00 8.23L316.00 8.23Q315.74 7.96 315.18 7.75L315.18 7.75L315.18 7.75Q315.03 7.70 314.71 7.59L314.71 7.59L314.71 7.59Q314.42 7.50 314.29 7.44L314.29 7.44L314.29 7.44Q313.76 7.23 313.48 6.97L313.48 6.97L313.48 6.97Q313.17 6.69 313.07 5.96L313.07 5.96L313.07 5.96Q312.87 4.53 313.82 2.97L313.82 2.97L313.82 2.97Q314.24 2.29 314.75 1.95L314.75 1.95L314.75 1.95Q314.79 1.91 314.89 1.86L314.89 1.86L314.89 1.86Q314.88 1.86 314.94 1.84L314.94 1.84L314.94 1.84Q314.92 1.84 314.97 1.83L314.97 1.83L314.97 1.83Q314.94 1.84 314.98 1.83L314.98 1.83L314.98 1.83Q314.90 1.85 314.83 1.85L314.83 1.85L314.83 1.85Q314.85 1.85 314.84 1.85L314.84 1.85L314.86 1.85L314.86 1.85Q314.91 1.86 314.99 1.89L314.99 1.89L314.99 1.89Q315.01 1.89 315.10 1.96L315.10 1.96L315.10 1.96Q315.17 2.01 315.21 2.06L315.21 2.06L315.21 2.06Q315.33 2.20 315.40 2.45L315.40 2.45L315.40 2.45Q315.51 2.84 315.45 3.49L315.45 3.49L315.45 3.49Q315.33 4.81 314.75 5.76L314.75 5.76L314.75 5.76Q314.67 5.90 314.97 5.91L314.97 5.91L314.97 5.91Q315.17 5.92 315.33 5.89L315.33 5.89L315.33 5.89Q316.03 5.76 316.20 5.50L316.20 5.50ZM328.56 5.50L328.56 5.50Q329.01 4.74 329.21 3.53L329.21 3.53L329.21 3.53Q329.45 2.15 328.95 1.57L328.95 1.57L328.95 1.57Q328.67 1.22 327.91 1.27L327.91 1.27L327.91 1.27Q326.98 1.33 326.08 1.85L326.08 1.85L326.08 1.85Q324.83 2.59 324.22 4.34L324.22 4.34L324.22 4.34Q323.61 6.10 324.22 7.18L324.22 7.18L324.22 7.18Q324.52 7.68 325.89 8.17L325.89 8.17L325.89 8.17Q326.46 8.37 326.66 8.48L326.66 8.48L326.66 8.48Q327.10 8.74 327.19 9.11L327.19 9.11L327.19 9.11Q327.28 9.50 326.94 10.17L326.94 10.17L326.94 10.17Q326.76 10.51 326.48 10.76L326.48 10.76L326.48 10.76Q326.37 10.87 326.21 10.97L326.21 10.97L326.21 10.97Q326.14 11.02 326.12 11.03L326.12 11.03L326.12 11.03Q326.05 11.07 325.99 11.09L325.99 11.09L325.99 11.09Q326.09 11.05 325.96 11.10L325.96 11.10L325.96 11.10Q325.97 11.10 326.03 11.09L326.03 11.09L326.03 11.09Q325.99 11.09 325.94 11.09L325.94 11.09L325.94 11.09Q325.94 11.10 325.84 11.09L325.84 11.09L325.84 11.09Q325.79 11.09 325.64 11.05L325.64 11.05L325.64 11.05Q325.29 10.97 324.99 10.64L324.99 10.64L324.99 10.64Q324.77 10.39 324.68 9.93L324.68 9.93L324.68 9.93Q324.58 9.44 324.80 9.28L324.80 9.28L324.80 9.28Q325.00 9.13 324.98 9.06L324.98 9.06L324.98 9.06Q324.95 8.97 324.72 8.96L324.72 8.96L324.72 8.96Q324.10 8.95 323.69 9.24L323.69 9.24L323.69 9.24Q323.30 9.53 323.22 9.86L323.22 9.86L323.22 9.86Q323.14 10.20 323.30 10.62L323.30 10.62L323.30 10.62Q323.57 11.36 324.44 11.61L324.44 11.61L324.44 11.61Q325.33 11.87 326.60 11.37L326.60 11.37L326.60 11.37Q327.61 10.96 328.18 10.24L328.18 10.24L328.18 10.24Q328.56 9.76 328.64 9.24L328.64 9.24L328.64 9.24Q328.75 8.62 328.36 8.23L328.36 8.23L328.36 8.23Q328.10 7.96 327.54 7.75L327.54 7.75L327.54 7.75Q327.39 7.70 327.07 7.59L327.07 7.59L327.07 7.59Q326.78 7.50 326.65 7.44L326.65 7.44L326.65 7.44Q326.12 7.23 325.83 6.97L325.83 6.97L325.83 6.97Q325.53 6.69 325.43 5.96L325.43 5.96L325.43 5.96Q325.23 4.53 326.18 2.97L326.18 2.97L326.18 2.97Q326.60 2.29 327.11 1.95L327.11 1.95L327.11 1.95Q327.15 1.91 327.25 1.86L327.25 1.86L327.25 1.86Q327.24 1.86 327.30 1.84L327.30 1.84L327.30 1.84Q327.28 1.84 327.33 1.83L327.33 1.83L327.33 1.83Q327.30 1.84 327.34 1.83L327.34 1.83L327.34 1.83Q327.26 1.85 327.19 1.85L327.19 1.85L327.19 1.85Q327.21 1.85 327.20 1.85L327.20 1.85L327.22 1.85L327.22 1.85Q327.27 1.86 327.35 1.89L327.35 1.89L327.35 1.89Q327.37 1.89 327.46 1.96L327.46 1.96L327.46 1.96Q327.53 2.01 327.57 2.06L327.57 2.06L327.57 2.06Q327.69 2.20 327.76 2.45L327.76 2.45L327.76 2.45Q327.87 2.84 327.81 3.49L327.81 3.49L327.81 3.49Q327.69 4.81 327.11 5.76L327.11 5.76L327.11 5.76Q327.02 5.90 327.33 5.91L327.33 5.91L327.33 5.91Q327.53 5.92 327.69 5.89L327.69 5.89L327.69 5.89Q328.39 5.76 328.56 5.50L328.56 5.50Z"></path></g></svg>