<svg data-v-423bf9ae="" xmlns="http://www.w3.org/2000/svg" viewBox="0 0 508.3710616071484 60" class="font"><!----><!----><!----><g data-v-423bf9ae="" id="efbc6978-d21b-4755-a938-a2c4acb6615c" fill="white" transform="matrix(4.524887125158685,0,0,4.524887125158685,-1.9456971668719802,-15.339368544223227)"><path d="M0.43 12.10C1.19 13.08 2.56 13.85 4.49 13.85C6.69 13.85 8.37 12.85 8.37 10.89C8.37 9.52 7.55 8.89 6.62 8.53C5.54 8.11 4.28 8.04 3.39 7.69C2.90 7.49 2.46 7.20 2.46 6.58C2.46 5.77 3.25 5.24 4.51 5.24C5.74 5.24 6.58 5.74 7.14 6.37L8.13 5.49C7.56 4.75 6.43 3.95 4.56 3.95C2.35 3.95 1.09 5.07 1.09 6.64C1.09 7.76 1.72 8.37 2.74 8.78C3.79 9.20 5.03 9.30 5.94 9.63C6.55 9.86 6.99 10.18 6.99 10.91C6.99 11.98 6.02 12.59 4.58 12.59C3.19 12.59 2.17 12.03 1.50 11.23ZM12.82 6.15C10.99 6.15 9.69 7.49 9.69 10.02C9.69 12.57 10.98 13.92 12.82 13.92C14.64 13.92 15.95 12.57 15.95 10.02C15.95 7.49 14.63 6.15 12.82 6.15ZM12.82 7.38C13.92 7.38 14.69 8.29 14.69 10.04C14.69 11.77 13.92 12.68 12.82 12.68C11.70 12.68 10.96 11.77 10.96 10.04C10.96 8.29 11.72 7.38 12.82 7.38ZM17.75 6.33L17.75 11.21C17.75 13.08 18.79 13.92 20.29 13.92C21.28 13.92 22.06 13.54 22.62 12.81L22.62 13.73L23.88 13.73L23.88 6.33L22.55 6.33L22.55 11.34C22.13 12.33 21.49 12.66 20.71 12.66C19.77 12.66 19.08 12.17 19.08 10.99L19.08 6.33ZM25.26 6.33L25.26 7.42L26.10 7.42L26.10 11.91C26.10 13.19 26.85 13.80 27.76 13.80C28.29 13.80 28.87 13.59 29.13 13.29L29.36 12.07C29.02 12.39 28.69 12.52 28.29 12.52C27.73 12.52 27.43 12.21 27.43 11.62L27.43 7.42L29.32 7.42L29.32 6.33L27.43 6.33L27.43 3.89L26.10 4.33L26.10 6.33ZM30.67 3.84L30.67 13.73L32.00 13.73L32.00 8.71C32.41 7.73 33.07 7.41 33.85 7.41C34.83 7.41 35.48 7.90 35.48 9.18L35.48 13.73L36.81 13.73L36.81 9.04C36.81 6.97 35.77 6.15 34.27 6.15C33.31 6.15 32.55 6.50 32.00 7.15L32.00 3.39ZM42.62 4.05L42.62 13.73L48.83 13.73L48.83 12.40L44.04 12.40L44.04 9.42L47.53 9.42L47.53 8.13L44.04 8.13L44.04 5.38L48.73 5.38L48.73 4.05ZM50.58 6.33L50.58 13.73L51.91 13.73L51.91 8.71C52.32 7.73 52.98 7.41 53.76 7.41C54.74 7.41 55.38 7.90 55.38 9.18L55.38 13.73L56.71 13.73L56.71 9.04C56.71 6.97 55.68 6.15 54.18 6.15C53.17 6.15 52.39 6.52 51.84 7.24L51.84 6.33ZM63.50 3.84L63.50 7.18C63.01 6.58 62.30 6.15 61.33 6.15C59.29 6.15 58.53 8.12 58.53 10.04C58.53 11.96 59.29 13.92 61.33 13.92C62.36 13.92 63.10 13.43 63.59 12.78L63.59 13.73L64.83 13.73L64.83 3.39ZM61.67 12.68C60.26 12.68 59.79 11.42 59.79 10.04C59.79 8.65 60.26 7.36 61.66 7.36C62.54 7.36 63.11 7.88 63.50 8.57L63.50 11.49C63.11 12.21 62.54 12.68 61.67 12.68ZM70.70 4.05L70.70 13.73L73.54 13.73C76.33 13.73 78.55 11.86 78.55 8.86C78.55 5.88 76.36 4.05 73.54 4.05ZM72.14 5.38L73.56 5.38C75.54 5.38 77.11 6.66 77.11 8.88C77.11 11.10 75.53 12.42 73.56 12.42L72.14 12.42ZM86.46 10.49C86.48 10.33 86.49 10.18 86.49 10.00C86.49 7.52 85.18 6.15 83.36 6.15C81.54 6.15 80.23 7.52 80.23 10.00C80.23 12.60 81.68 13.92 83.44 13.92C84.77 13.92 85.60 13.17 86.00 12.61L85.12 11.84C84.78 12.33 84.22 12.71 83.50 12.71C82.52 12.71 81.63 12.03 81.48 10.49ZM83.37 7.35C84.36 7.35 85.09 8.08 85.25 9.49L81.48 9.49C81.62 8.12 82.35 7.35 83.37 7.35ZM93.44 7.13C92.93 6.64 91.99 6.15 90.73 6.15C89.15 6.15 87.98 6.92 87.98 8.27C87.98 9.09 88.40 9.60 89.03 9.91C89.66 10.22 90.69 10.40 91.49 10.72C92.05 10.95 92.29 11.19 92.29 11.59C92.29 12.31 91.59 12.68 90.64 12.68C89.63 12.68 88.72 12.25 88.19 11.75L87.67 12.87C88.21 13.41 89.29 13.92 90.65 13.92C92.12 13.92 93.60 13.33 93.60 11.59C93.60 10.74 93.24 10.25 92.48 9.87C91.66 9.46 90.58 9.30 89.92 9.02C89.53 8.85 89.29 8.62 89.29 8.25C89.29 7.74 89.74 7.34 90.68 7.34C91.63 7.34 92.46 7.76 92.95 8.27ZM95.02 6.33L95.02 13.73L96.35 13.73L96.35 6.33ZM95.68 3.50C95.23 3.50 94.92 3.82 94.92 4.30C94.92 4.76 95.23 5.10 95.68 5.10C96.12 5.10 96.45 4.76 96.45 4.30C96.45 3.82 96.12 3.50 95.68 3.50ZM103.28 6.33L103.28 7.20C102.79 6.59 102.05 6.15 101.04 6.15C98.98 6.15 98.22 8.01 98.22 9.79C98.22 11.56 98.98 13.43 101.04 13.43C102.05 13.43 102.79 12.99 103.28 12.39L103.28 12.66C103.28 14.25 102.40 14.98 100.32 15.46L100.48 16.65C103.31 16.10 104.52 15.01 104.52 12.32L104.52 6.33ZM101.36 12.26C99.95 12.26 99.48 11.07 99.48 9.80C99.48 8.54 99.95 7.35 101.37 7.35C102.30 7.35 102.89 7.84 103.28 8.55L103.28 11.05C102.89 11.75 102.30 12.26 101.36 12.26ZM106.65 6.33L106.65 13.73L107.98 13.73L107.98 8.71C108.39 7.73 109.05 7.41 109.83 7.41C110.81 7.41 111.45 7.90 111.45 9.18L111.45 13.73L112.78 13.73L112.78 9.04C112.78 6.97 111.75 6.15 110.25 6.15C109.24 6.15 108.46 6.52 107.91 7.24L107.91 6.33Z"></path></g><!----><!----></svg>