<svg data-v-fde0c5aa="" xmlns="http://www.w3.org/2000/svg" viewBox="0 0 300 300" class="iconLeftSlogan"><!----><defs data-v-fde0c5aa=""><linearGradient data-v-fde0c5aa="" gradientTransform="rotate(25)" id="2ca131db-f5b8-48e8-8af1-ccab140b4175" x1="0%" y1="0%" x2="100%" y2="0%"><stop data-v-fde0c5aa="" offset="0%" stop-color="#32142D" stop-opacity="1"></stop><stop data-v-fde0c5aa="" offset="100%" stop-color="#32142D" stop-opacity="1"></stop></linearGradient></defs><rect data-v-fde0c5aa="" fill="url(#2ca131db-f5b8-48e8-8af1-ccab140b4175)" x="0" y="0" width="300px" height="300px" class="logo-background-square"></rect><defs data-v-fde0c5aa=""><!----></defs><g data-v-fde0c5aa="" id="bf866943-9289-45ca-bc24-ff99c443a8cc" fill="#ffffff" transform="matrix(1.502542532403135,0,0,1.502542532403135,83.15075264123855,124.95203673859369)"><path d="M3.87 4.18C2.16 4.18 0.62 5.28 0.62 6.96C0.62 8.03 1.01 8.96 2.43 9.50L3.84 10.05C4.38 10.24 4.91 10.53 4.91 11.01C4.91 11.61 4.28 11.91 3.51 11.91C2.42 11.91 1.44 11.44 0.64 10.87L0.64 12.74C1.38 13.26 2.41 13.70 3.47 13.70C5.37 13.70 6.95 12.54 6.95 10.91C6.95 9.90 6.37 9.12 5.09 8.57L3.96 8.11C3.20 7.79 2.60 7.56 2.60 6.96C2.60 6.26 3.39 5.96 4.10 5.96C5.04 5.96 5.77 6.37 6.43 6.78L6.43 4.91C5.84 4.53 4.94 4.18 3.87 4.18ZM11.77 6.44C9.76 6.44 8.08 8.04 8.08 10.09C8.08 12.13 9.76 13.73 11.77 13.73C13.78 13.73 15.48 12.13 15.48 10.09C15.48 8.04 13.78 6.44 11.77 6.44ZM11.77 8.12C12.76 8.12 13.63 8.83 13.63 10.09C13.63 11.35 12.76 12.04 11.77 12.04C10.79 12.04 9.93 11.35 9.93 10.09C9.93 8.83 10.79 8.12 11.77 8.12ZM23.21 6.62L21.45 6.62L21.45 10.42C21.45 11.48 20.90 12.02 20.10 12.02C19.29 12.02 18.74 11.48 18.74 10.42L18.73 6.62L16.98 6.62L16.98 10.73C16.98 12.58 18.31 13.70 20.10 13.70C21.89 13.70 23.21 12.58 23.21 10.73ZM27.70 6.62L27.70 4.61L26.81 4.61C26.37 6.02 25.61 6.86 24.72 7.18L24.72 8.07L25.96 8.07L25.96 11.50C25.96 12.88 26.82 13.73 28.05 13.73C28.85 13.73 29.34 13.45 29.68 13.11L29.68 11.73C29.37 11.92 29.04 12.04 28.55 12.04C27.99 12.04 27.70 11.66 27.70 11.05L27.70 8.07L29.61 8.07L29.61 6.62ZM35.29 6.44C34.36 6.44 33.62 7.04 33.20 7.60L33.20 3.68L31.46 3.68L31.46 13.52L33.20 13.52L33.20 9.15C33.59 8.60 34.14 8.13 34.75 8.13C35.53 8.13 36.01 8.59 36.01 9.52L36.03 13.52L37.76 13.52L37.76 9.28C37.76 7.40 36.70 6.44 35.29 6.44ZM46.06 6.00L50.64 6.00L50.64 4.36L44.16 4.36L44.16 13.52L50.64 13.52L50.64 11.84L46.06 11.84L46.06 9.63L50.11 9.63L50.11 8.08L46.06 8.08ZM56.63 6.44C55.70 6.44 54.96 7.04 54.54 7.60L54.54 6.62L52.80 6.62L52.80 13.52L54.54 13.52L54.54 9.15C54.93 8.60 55.48 8.13 56.10 8.13C56.88 8.13 57.35 8.59 57.35 9.52L57.37 13.52L59.10 13.52L59.10 9.28C59.10 7.40 58.04 6.44 56.63 6.44ZM67.66 13.52L67.66 3.68L65.93 3.68L65.93 7.40C65.41 6.82 64.59 6.44 63.83 6.44C62.06 6.44 60.62 7.81 60.62 10.12C60.62 12.41 62.06 13.73 63.71 13.73C64.74 13.73 65.52 13.10 65.93 12.36L65.93 13.52ZM64.19 8.15C64.86 8.15 65.43 8.48 65.93 9.00L65.93 9.98C65.94 11.22 65.06 11.99 64.15 11.99C63.11 11.99 62.43 11.16 62.43 10.12C62.43 9.08 63.11 8.15 64.19 8.15ZM74.20 4.36L74.20 13.33C75.30 13.55 76.59 13.70 77.85 13.70C80.80 13.70 82.59 11.59 82.59 8.89C82.59 5.93 80.19 4.36 77.52 4.36ZM76.10 6.14L77.45 6.14C79.23 6.14 80.65 7.12 80.65 8.96C80.65 10.66 79.68 11.91 77.79 11.91C77.27 11.91 76.64 11.87 76.10 11.76ZM90.55 9.87C90.55 7.86 89.33 6.44 87.29 6.44C85.27 6.44 83.79 8.13 83.79 10.14C83.79 12.22 85.46 13.73 87.50 13.73C88.55 13.73 89.29 13.38 89.67 13.10L89.67 11.53C89.25 11.80 88.58 12.15 87.57 12.15C86.52 12.15 85.74 11.54 85.54 10.60L90.55 10.60ZM85.57 9.46C85.78 8.54 86.38 7.96 87.25 7.96C88.05 7.96 88.81 8.46 88.88 9.46ZM94.36 6.44C92.80 6.44 91.71 7.33 91.71 8.63C91.71 9.50 92.05 10.14 93.11 10.50L93.95 10.80C94.55 11.01 94.87 11.16 94.87 11.51C94.87 11.96 94.49 12.22 93.79 12.22C93.12 12.22 92.19 11.87 91.67 11.51L91.67 13.03C92.13 13.37 93.09 13.73 94.02 13.73C95.50 13.73 96.70 12.78 96.70 11.51C96.70 10.62 96.20 10.01 95.13 9.69L94.35 9.43C93.73 9.24 93.56 9.01 93.56 8.71C93.56 8.30 93.97 7.97 94.62 7.97C95.31 7.97 95.98 8.31 96.40 8.60L96.40 7.07C96.00 6.73 95.22 6.44 94.36 6.44ZM99.63 5.37C100.28 5.37 100.83 4.83 100.83 4.20C100.83 3.55 100.28 3.02 99.63 3.02C98.97 3.02 98.44 3.55 98.44 4.20C98.44 4.83 98.97 5.37 99.63 5.37ZM100.60 6.62L97.75 6.62L97.75 8.09L98.86 8.09L98.86 13.52L100.60 13.52ZM105.44 6.44C103.66 6.44 102.22 7.81 102.22 10.12C102.22 12.41 103.66 13.73 105.31 13.73C106.34 13.73 107.12 13.10 107.53 12.36L107.53 13.56C107.53 14.64 106.54 15.41 105.31 15.41C104.15 15.41 103.32 14.93 102.70 14.63L102.70 16.27C103.40 16.68 104.21 17.01 105.42 17.01C107.46 17.01 109.27 15.68 109.27 13.34L109.27 6.62L107.53 6.62L107.53 7.40C107.01 6.82 106.19 6.44 105.44 6.44ZM105.79 8.15C106.46 8.15 107.04 8.48 107.53 9.00L107.53 9.98C107.54 11.22 106.67 11.98 105.75 11.98C104.71 11.98 104.03 11.16 104.03 10.12C104.03 9.08 104.71 8.15 105.79 8.15ZM115.23 6.44C114.30 6.44 113.56 7.04 113.13 7.60L113.13 6.62L111.40 6.62L111.40 13.52L113.13 13.52L113.13 9.15C113.53 8.60 114.08 8.13 114.69 8.13C115.47 8.13 115.95 8.59 115.95 9.52L115.96 13.52L117.70 13.52L117.70 9.28C117.70 7.40 116.63 6.44 115.23 6.44Z"></path></g><defs data-v-fde0c5aa=""><!----></defs><g data-v-fde0c5aa="" id="29bdff25-0999-4bec-89bc-720464f9fec4" stroke="none" fill="#ffffff" transform="matrix(0.4284440469447442,0,0,0.4284440469447442,34.11917708354935,128.57758232262674)"><path d="M57.484 24.356a8.346 8.346 0 0 0-.037-.388c2.434-2.098 3.985-5.197 3.985-8.657 0-6.305-5.129-11.433-11.434-11.433-6.306 0-11.435 5.128-11.435 11.433 0 3.458 1.549 6.555 3.981 8.653a8.43 8.43 0 0 0-.038.393c-16.417 3.463-28.78 18.06-28.78 35.493 0 20.002 16.272 36.273 36.273 36.273 20.003 0 36.274-16.271 36.274-36.273 0-17.436-12.367-32.034-28.789-35.494zm-15.26-9.044c0-4.287 3.487-7.774 7.775-7.774 4.287 0 7.775 3.487 7.775 7.774a7.738 7.738 0 0 1-1.839 5.01 7.498 7.498 0 0 0-11.876-.004 7.731 7.731 0 0 1-1.835-5.006zm10.518 75.194v-3.584a2.744 2.744 0 1 0-5.487 0v3.584c-14.789-1.314-26.6-13.123-27.913-27.91h2.737a2.745 2.745 0 0 0 0-5.488h-2.737c1.313-14.791 13.124-26.601 27.913-27.915v2.722a2.744 2.744 0 1 0 5.487 0v-2.722c14.79 1.312 26.6 13.124 27.914 27.915h-2.738a2.744 2.744 0 1 0 0 5.488h2.738c-1.314 14.789-13.124 26.597-27.914 27.91z"></path><path d="M39.343 80.205L56.134 62.76l4.519-24.226-16.787 17.445-4.523 24.226zm15.479-30.273l-2.047 10.971-5.559-3.07 7.606-7.901z"></path></g><defs data-v-fde0c5aa=""><!----></defs><g data-v-fde0c5aa="" id="9420e604-c3df-47e6-9506-8bb10be05e00" fill="#ffffff" transform="matrix(0.32915032713194897,0,0,0.32915032713194897,83.99016692650386,159.42408877836723)"><path d="M0.28 3.71L0.28 3.71L0.28 3.71Q0.28 3.51 0.66 3.51L0.66 3.51L0.66 3.51Q0.74 3.51 1.20 3.54L1.20 3.54L1.20 3.54Q1.65 3.56 2.20 3.56L2.20 3.56L2.20 3.56Q2.59 3.56 2.98 3.54L2.98 3.54L2.98 3.54Q3.37 3.51 3.40 3.51L3.40 3.51L3.40 3.51Q3.53 3.51 3.56 3.55L3.56 3.55L3.56 3.55Q3.60 3.58 3.60 3.68L3.60 3.68L3.60 3.68Q3.60 3.77 3.30 3.92L3.30 3.92L3.30 3.92Q3.00 4.07 3.00 4.34L3.00 4.34L3.00 4.34Q3.00 4.47 3.05 4.65L3.05 4.65L3.05 4.65Q3.11 4.83 3.28 5.22L3.28 5.22L3.28 5.22Q3.44 5.61 3.63 6.03L3.63 6.03L3.63 6.03Q3.82 6.45 4.21 7.33L4.21 7.33L4.21 7.33Q4.61 8.20 4.98 9.07L4.98 9.07L4.98 9.07Q5.08 9.30 5.27 9.74L5.27 9.74L5.27 9.74Q5.46 10.18 5.58 10.46L5.58 10.46L5.58 10.46Q5.70 10.74 5.84 11.05L5.84 11.05L5.84 11.05Q5.98 11.37 6.07 11.52L6.07 11.52L6.07 11.52Q6.16 11.68 6.20 11.68L6.20 11.68L6.20 11.68Q6.26 11.68 6.65 10.81L6.65 10.81L6.65 10.81Q7.04 9.94 7.35 9.17L7.35 9.17L7.35 9.17Q7.41 9.04 7.48 8.89L7.48 8.89L7.48 8.89Q7.56 8.74 7.59 8.63L7.59 8.63L7.59 8.63Q7.63 8.53 7.63 8.41L7.63 8.41L7.63 8.41Q7.63 8.25 6.79 6.36L6.79 6.36L6.79 6.36Q5.95 4.48 5.71 4.21L5.71 4.21L5.71 4.21Q5.66 4.14 5.60 4.10L5.60 4.10L5.60 4.10Q5.54 4.06 5.50 4.02L5.50 4.02L5.50 4.02Q5.45 3.99 5.41 3.97L5.41 3.97L5.41 3.97Q5.38 3.95 5.32 3.94L5.32 3.94L5.32 3.94Q5.26 3.93 5.24 3.93L5.24 3.93L5.24 3.93Q5.22 3.93 5.16 3.93L5.16 3.93L5.16 3.93Q5.10 3.92 5.08 3.92L5.08 3.92L5.08 3.92Q4.69 3.88 4.61 3.84L4.61 3.84L4.61 3.84Q4.52 3.81 4.52 3.70L4.52 3.70L4.52 3.70Q4.52 3.50 4.93 3.50L4.93 3.50L4.93 3.50Q5.01 3.50 5.47 3.53L5.47 3.53L5.47 3.53Q5.94 3.56 6.47 3.56L6.47 3.56L6.47 3.56Q6.50 3.56 6.85 3.53L6.85 3.53L6.85 3.53Q7.20 3.50 7.39 3.50L7.39 3.50L7.39 3.50Q7.81 3.50 7.81 3.61L7.81 3.61L7.81 3.61Q7.81 3.70 7.66 3.78L7.66 3.78L7.66 3.78Q7.50 3.86 7.36 4.00L7.36 4.00L7.36 4.00Q7.21 4.13 7.21 4.33L7.21 4.33L7.21 4.33Q7.21 4.59 7.64 5.57L7.64 5.57L7.64 5.57Q7.67 5.63 7.83 6.03L7.83 6.03L7.83 6.03Q7.99 6.44 8.12 6.71L8.12 6.71L8.12 6.71Q8.25 6.99 8.30 6.99L8.30 6.99L8.30 6.99Q8.41 6.99 8.86 5.76L8.86 5.76L8.86 5.76Q9.31 4.54 9.31 4.31L9.31 4.31L9.31 4.31Q9.31 4.06 9.10 3.96L9.10 3.96L9.10 3.96Q8.89 3.85 8.68 3.80L8.68 3.80L8.68 3.80Q8.47 3.75 8.47 3.64L8.47 3.64L8.47 3.64Q8.47 3.49 8.78 3.49L8.78 3.49L8.78 3.49Q8.86 3.49 9.20 3.50L9.20 3.50L9.20 3.50Q9.53 3.51 9.67 3.51L9.67 3.51L9.91 3.51L9.91 3.51Q10.11 3.51 10.65 3.47L10.65 3.47L10.78 3.47L10.78 3.47Q10.96 3.47 10.96 3.61L10.96 3.61L10.96 3.61Q10.96 3.75 10.70 3.84L10.70 3.84L10.70 3.84Q10.43 3.92 10.33 4.02L10.33 4.02L10.33 4.02Q10.11 4.24 9.94 4.66L9.94 4.66L9.94 4.66Q9.65 5.38 9.24 6.33L9.24 6.33L9.24 6.33Q8.82 7.31 8.75 7.50L8.75 7.50L8.75 7.50Q8.68 7.70 8.68 7.85L8.68 7.85L8.68 7.85Q8.68 7.97 9.53 9.87L9.53 9.87L9.53 9.87Q10.39 11.77 10.54 11.77L10.54 11.77L10.54 11.77Q10.71 11.77 12.17 8.24L12.17 8.24L12.17 8.24Q13.64 4.70 13.64 4.35L13.64 4.35L13.64 4.35Q13.64 4.13 13.47 4.01L13.47 4.01L13.47 4.01Q13.31 3.89 13.12 3.87L13.12 3.87L13.12 3.87Q12.92 3.85 12.76 3.80L12.76 3.80L12.76 3.80Q12.60 3.75 12.60 3.64L12.60 3.64L12.60 3.64Q12.60 3.54 12.64 3.52L12.64 3.52L12.64 3.52Q12.68 3.50 12.87 3.50L12.87 3.50L12.87 3.50Q12.91 3.50 13.19 3.51L13.19 3.51L13.19 3.51Q13.47 3.51 13.75 3.51L13.75 3.51L13.75 3.51Q14 3.51 14.31 3.50L14.31 3.50L14.31 3.50Q14.63 3.49 14.99 3.49L14.99 3.49L14.99 3.49Q15.27 3.49 15.27 3.68L15.27 3.68L15.27 3.68Q15.27 3.78 15.20 3.84L15.20 3.84L15.20 3.84Q15.12 3.89 14.97 3.98L14.97 3.98L14.97 3.98Q14.81 4.06 14.70 4.17L14.70 4.17L14.70 4.17Q14.63 4.24 14.58 4.31L14.58 4.31L14.58 4.31Q14.53 4.38 14.48 4.49L14.48 4.49L14.48 4.49Q14.42 4.59 14.38 4.66L14.38 4.66L14.38 4.66Q14.35 4.73 14.27 4.91L14.27 4.91L14.27 4.91Q14.20 5.08 14.15 5.18L14.15 5.18L14.15 5.18Q13.08 7.59 11.75 10.58L11.75 10.58L11.75 10.58Q10.68 13.01 10.49 13.41L10.49 13.41L10.49 13.41Q10.29 13.82 10.18 13.82L10.18 13.82L10.18 13.82Q10.11 13.82 10.01 13.64L10.01 13.64L10.01 13.64Q9.91 13.47 9.74 13.05L9.74 13.05L9.74 13.05Q9.56 12.64 9.53 12.57L9.53 12.57L9.53 12.57Q9.39 12.26 9.16 11.72L9.16 11.72L9.16 11.72Q8.93 11.17 8.77 10.79L8.77 10.79L8.77 10.79Q8.61 10.42 8.44 10.02L8.44 10.02L8.44 10.02Q8.27 9.63 8.16 9.43L8.16 9.43L8.16 9.43Q8.05 9.23 8.01 9.23L8.01 9.23L8.01 9.23Q7.87 9.23 7.06 11.16L7.06 11.16L7.06 11.16Q6.26 13.09 6.20 13.31L6.20 13.31L6.20 13.31Q6.19 13.37 6.17 13.43L6.17 13.43L6.17 13.43Q6.15 13.48 6.13 13.52L6.13 13.52L6.13 13.52Q6.12 13.57 6.10 13.61L6.10 13.61L6.10 13.61Q6.09 13.65 6.08 13.68L6.08 13.68L6.08 13.68Q6.06 13.71 6.05 13.73L6.05 13.73L6.05 13.73Q6.05 13.76 6.03 13.78L6.03 13.78L6.03 13.78Q6.02 13.80 6.01 13.82L6.01 13.82L6.01 13.82Q5.99 13.83 5.98 13.84L5.98 13.84L5.98 13.84Q5.96 13.85 5.95 13.85L5.95 13.85L5.95 13.85Q5.94 13.86 5.91 13.86L5.91 13.86L5.91 13.86Q5.78 13.86 5.60 13.46L5.60 13.46L5.60 13.46Q5.42 13.06 4.94 11.89L4.94 11.89L4.94 11.89Q4.47 10.72 3.98 9.65L3.98 9.65L3.98 9.65Q3.16 7.87 2.25 5.63L2.25 5.63L2.25 5.63Q1.99 4.96 1.68 4.57L1.68 4.57L1.68 4.57Q1.37 4.19 1.13 4.09L1.13 4.09L1.13 4.09Q0.90 3.99 0.70 3.98L0.70 3.98L0.70 3.98Q0.50 3.96 0.39 3.92L0.39 3.92L0.39 3.92Q0.28 3.88 0.28 3.71ZM22.82 3.65L22.82 3.65L22.82 3.65Q22.82 3.46 23.21 3.46L23.21 3.46L23.21 3.46Q23.27 3.46 23.39 3.47L23.39 3.47L23.39 3.47Q23.52 3.49 23.59 3.49L23.59 3.49L23.59 3.49Q23.63 3.49 24.91 3.52L24.91 3.52L24.91 3.52Q26.18 3.56 27.01 3.56L27.01 3.56L27.01 3.56Q27.30 3.56 28.45 3.53L28.45 3.53L28.45 3.53Q29.61 3.50 29.81 3.50L29.81 3.50L29.81 3.50Q30.07 3.50 30.07 3.82L30.07 3.82L30.07 3.82Q30.07 3.91 29.99 4.38L29.99 4.38L29.99 4.38Q29.90 4.84 29.90 5.25L29.90 5.25L29.90 5.25Q29.90 5.38 29.83 5.47L29.83 5.47L29.83 5.47Q29.76 5.56 29.68 5.56L29.68 5.56L29.68 5.56Q29.47 5.56 29.47 5.26L29.47 5.26L29.47 5.26Q29.47 4.89 29.23 4.58L29.23 4.58L29.23 4.58Q28.99 4.27 28.64 4.26L28.64 4.26L28.64 4.26Q27.38 4.16 26.71 4.16L26.71 4.16L26.35 4.16L26.35 4.16Q25.62 4.16 25.50 4.26L25.50 4.26L25.50 4.26Q25.38 4.37 25.35 5.01L25.35 5.01L25.35 5.01Q25.30 6.02 25.30 7.35L25.30 7.35L25.30 7.35Q25.30 8.05 25.56 8.06L25.56 8.06L25.91 8.06L26.50 8.06L26.94 8.06L26.94 8.06Q27.78 8.06 28.06 8.01L28.06 8.01L28.06 8.01Q28.34 7.95 28.56 7.80L28.56 7.80L28.56 7.80Q28.83 7.62 28.88 7.28L28.88 7.28L28.88 7.28Q28.92 7.04 29.08 7.04L29.08 7.04L29.08 7.04Q29.20 7.04 29.23 7.08L29.23 7.08L29.23 7.08Q29.26 7.13 29.26 7.27L29.26 7.27L29.26 7.27Q29.26 7.36 29.20 7.91L29.20 7.91L29.20 7.91Q29.15 8.46 29.15 8.74L29.15 8.74L29.15 8.74Q29.15 9.00 29.17 9.24L29.17 9.24L29.17 9.24Q29.19 9.48 29.19 9.59L29.19 9.59L29.19 9.59Q29.19 9.94 29.09 9.94L29.09 9.94L29.09 9.94Q28.88 9.94 28.78 9.60L28.78 9.60L28.78 9.60Q28.59 9.02 28.43 8.92L28.43 8.92L28.43 8.92Q28.14 8.72 27.09 8.72L27.09 8.72L27.09 8.72Q26.67 8.72 26.41 8.72L26.41 8.72L26.41 8.72Q26.15 8.72 26.07 8.71L26.07 8.71L26.07 8.71Q26.00 8.71 25.95 8.71L25.95 8.71L25.95 8.71Q25.90 8.71 25.86 8.71L25.86 8.71L25.86 8.71Q25.28 8.71 25.28 8.97L25.28 8.97L25.28 8.97Q25.28 9.38 25.27 9.99L25.27 9.99L25.27 9.99Q25.26 10.60 25.26 10.99L25.26 10.99L25.26 11.55L25.26 11.55Q25.26 12.56 25.59 12.66L25.59 12.66L25.59 12.66Q25.94 12.77 26.19 12.77L26.19 12.77L26.19 12.77Q27.24 12.77 28.04 12.67L28.04 12.67L28.04 12.67Q28.83 12.57 29.23 12.42L29.23 12.42L29.23 12.42Q29.62 12.28 29.89 12.10L29.89 12.10L29.89 12.10Q30.16 11.93 30.23 11.78L30.23 11.78L30.23 11.78Q30.31 11.63 30.39 11.54L30.39 11.54L30.39 11.54Q30.46 11.44 30.55 11.44L30.55 11.44L30.55 11.44Q30.72 11.44 30.72 11.68L30.72 11.68L30.72 11.68Q30.72 12.28 30.11 12.89L30.11 12.89L30.11 12.89Q29.51 13.51 29.06 13.51L29.06 13.51L29.06 13.51Q28.06 13.51 26.79 13.44L26.79 13.44L26.79 13.44Q25.52 13.37 25.21 13.37L25.21 13.37L25.21 13.37Q24.82 13.37 24.23 13.43L24.23 13.43L24.23 13.43Q23.65 13.50 23.31 13.50L23.31 13.50L23.31 13.50Q23.02 13.50 23.02 13.36L23.02 13.36L23.02 13.36Q23.02 13.23 23.02 13.19L23.02 13.19L23.02 13.19Q23.02 13.15 23.06 13.12L23.06 13.12L23.06 13.12Q23.10 13.09 23.15 13.08L23.15 13.08L23.15 13.08Q23.20 13.08 23.33 13.03L23.33 13.03L23.33 13.03Q23.46 12.99 23.62 12.92L23.62 12.92L23.62 12.92Q23.95 12.75 24.06 12.26L24.06 12.26L24.06 12.26Q24.16 11.77 24.16 10.21L24.16 10.21L24.16 8.47L24.16 8.47Q24.16 8.09 24.18 7.29L24.18 7.29L24.18 7.29Q24.21 6.50 24.21 6.05L24.21 6.05L24.21 6.05Q24.21 5.67 24.18 4.77L24.18 4.77L24.18 4.77Q24.16 4.37 23.83 4.14L23.83 4.14L23.83 4.14Q23.49 3.92 23.04 3.91L23.04 3.91L23.04 3.91Q22.82 3.91 22.82 3.65ZM38.28 3.72L38.28 3.72L38.28 3.72Q38.28 3.51 38.40 3.51L38.40 3.51L38.40 3.51Q38.44 3.51 38.58 3.52L38.58 3.52L38.58 3.52Q38.72 3.53 38.96 3.53L38.96 3.53L38.96 3.53Q39.24 3.53 40.07 3.52L40.07 3.52L40.07 3.52Q40.91 3.51 41.01 3.51L41.01 3.51L41.01 3.51Q41.33 3.51 41.82 3.49L41.82 3.49L41.82 3.49Q42.31 3.47 42.55 3.47L42.55 3.47L42.55 3.47Q43.82 3.47 44.67 4.08L44.67 4.08L44.67 4.08Q45.53 4.69 45.53 5.81L45.53 5.81L45.53 5.81Q45.53 6.22 45.38 6.57L45.38 6.57L45.38 6.57Q45.23 6.93 45.03 7.15L45.03 7.15L45.03 7.15Q44.83 7.38 44.62 7.54L44.62 7.54L44.62 7.54Q44.42 7.70 44.27 7.79L44.27 7.79L44.27 7.79Q44.13 7.88 44.13 7.90L44.13 7.90L44.13 7.90Q44.13 7.94 44.37 8.00L44.37 8.00L44.37 8.00Q44.60 8.06 44.94 8.21L44.94 8.21L44.94 8.21Q45.28 8.36 45.60 8.61L45.60 8.61L45.60 8.61Q45.93 8.86 46.17 9.36L46.17 9.36L46.17 9.36Q46.41 9.86 46.41 10.53L46.41 10.53L46.41 10.53Q46.41 11.13 46.06 11.82L46.06 11.82L46.06 11.82Q45.71 12.50 45.23 12.82L45.23 12.82L45.23 12.82Q44.62 13.26 44.09 13.40L44.09 13.40L44.09 13.40Q43.55 13.55 42.80 13.55L42.80 13.55L42.80 13.55Q42.24 13.55 41.31 13.47L41.31 13.47L41.31 13.47Q40.39 13.40 40.29 13.40L40.29 13.40L40.29 13.40Q40.14 13.40 39.74 13.43L39.74 13.43L39.74 13.43Q39.34 13.45 39.09 13.45L39.09 13.45L38.89 13.45L38.89 13.45Q38.60 13.45 38.60 13.24L38.60 13.24L38.60 13.24Q38.60 13.05 38.75 13.05L38.75 13.05L38.75 13.05Q38.84 13.05 38.93 13.04L38.93 13.04L38.93 13.04Q39.03 13.03 39.07 13.03L39.07 13.03L39.07 13.03Q39.20 13.03 39.32 12.94L39.32 12.94L39.32 12.94Q39.44 12.85 39.56 12.54L39.56 12.54L39.56 12.54Q39.69 12.22 39.70 11.73L39.70 11.73L39.70 11.73Q39.75 10.82 39.75 7.36L39.75 7.36L39.75 4.98L39.75 4.98Q39.75 4.89 39.71 4.75L39.71 4.75L39.71 4.75Q39.68 4.62 39.57 4.40L39.57 4.40L39.57 4.40Q39.47 4.19 39.19 4.04L39.19 4.04L39.19 4.04Q38.92 3.89 38.51 3.89L38.51 3.89L38.51 3.89Q38.28 3.89 38.28 3.72ZM40.81 12.15L40.81 12.15L40.81 12.15Q40.81 12.99 42.18 12.99L42.18 12.99L42.50 12.99L42.50 12.99Q43.26 12.99 43.71 12.92L43.71 12.92L43.71 12.92Q44.37 12.81 44.79 12.24L44.79 12.24L44.79 12.24Q45.22 11.66 45.22 10.86L45.22 10.86L45.22 10.86Q45.22 10.18 44.97 9.68L44.97 9.68L44.97 9.68Q44.72 9.18 44.39 8.93L44.39 8.93L44.39 8.93Q44.07 8.68 43.63 8.54L43.63 8.54L43.63 8.54Q43.19 8.40 42.94 8.37L42.94 8.37L42.94 8.37Q42.70 8.34 42.48 8.34L42.48 8.34L42.48 8.34Q42.03 8.34 41.74 8.34L41.74 8.34L41.74 8.34Q41.45 8.33 41.38 8.33L41.38 8.33L41.38 8.33Q41.30 8.33 41.25 8.32L41.25 8.32L41.25 8.32Q41.20 8.32 41.17 8.32L41.17 8.32L41.17 8.32Q41.05 8.32 40.99 8.35L40.99 8.35L40.99 8.35Q40.94 8.39 40.89 8.62L40.89 8.62L40.89 8.62Q40.84 8.85 40.83 9.28L40.83 9.28L40.83 9.28Q40.82 9.72 40.82 10.58L40.82 10.58L40.82 10.70L40.82 10.70Q40.82 11.21 40.82 11.54L40.82 11.54L40.82 11.54Q40.82 11.86 40.82 11.99L40.82 11.99L40.82 11.99Q40.81 12.12 40.81 12.15ZM40.89 5.40L40.89 5.81L40.89 5.81Q40.89 6.51 40.90 6.90L40.90 6.90L40.90 6.90Q40.91 7.29 40.94 7.50L40.94 7.50L40.94 7.50Q40.96 7.71 40.99 7.77L40.99 7.77L40.99 7.77Q41.02 7.83 41.08 7.83L41.08 7.83L41.08 7.83Q41.47 7.87 41.79 7.87L41.79 7.87L42.69 7.87L42.69 7.87Q43.57 7.87 44.01 7.41L44.01 7.41L44.01 7.41Q44.45 6.94 44.45 6.22L44.45 6.22L44.45 6.22Q44.45 5.43 43.71 4.70L43.71 4.70L43.71 4.70Q42.98 3.96 41.62 3.96L41.62 3.96L41.62 3.96Q41.19 3.96 41.04 4.22L41.04 4.22L41.04 4.22Q40.89 4.48 40.89 5.40L40.89 5.40ZM64.08 3.64L64.08 3.64L64.08 3.64Q64.08 3.51 64.20 3.49L64.20 3.49L64.20 3.49Q64.32 3.47 64.79 3.47L64.79 3.47L66.01 3.47L66.01 3.47Q66.36 3.47 67.30 3.44L67.30 3.44L67.30 3.44Q68.24 3.42 68.74 3.42L68.74 3.42L68.74 3.42Q69.71 3.42 70.67 3.71L70.67 3.71L70.67 3.71Q71.64 4.00 72.45 4.56L72.45 4.56L72.45 4.56Q73.26 5.11 73.77 6.00L73.77 6.00L73.77 6.00Q74.27 6.89 74.27 7.98L74.27 7.98L74.27 7.98Q74.27 8.96 74.14 9.68L74.14 9.68L74.14 9.68Q74.00 10.40 73.70 10.93L73.70 10.93L73.70 10.93Q73.39 11.45 73.08 11.78L73.08 11.78L73.08 11.78Q72.77 12.11 72.24 12.56L72.24 12.56L72.24 12.56Q71.82 12.89 71.02 13.19L71.02 13.19L71.02 13.19Q70.22 13.48 69.38 13.48L69.38 13.48L69.38 13.48Q69.30 13.48 67.96 13.45L67.96 13.45L67.96 13.45Q66.61 13.41 66.02 13.41L66.02 13.41L66.02 13.41Q65.53 13.41 65.11 13.45L65.11 13.45L65.11 13.45Q64.69 13.48 64.62 13.48L64.62 13.48L64.62 13.48Q64.29 13.48 64.29 13.30L64.29 13.30L64.29 13.30Q64.29 13.19 64.34 13.14L64.34 13.14L64.34 13.14Q64.39 13.09 64.55 13.05L64.55 13.05L64.55 13.05Q64.71 13.01 64.78 12.98L64.78 12.98L64.78 12.98Q65.00 12.88 65.19 12.61L65.19 12.61L65.19 12.61Q65.38 12.33 65.38 12.07L65.38 12.07L65.38 12.07Q65.38 11.28 65.39 10.07L65.39 10.07L65.39 10.07Q65.39 8.85 65.39 8.27L65.39 8.27L65.39 8.27Q65.39 7.77 65.39 6.70L65.39 6.70L65.39 6.70Q65.38 5.63 65.38 4.72L65.38 4.72L65.38 4.72Q65.38 4.48 65.15 4.23L65.15 4.23L65.15 4.23Q64.92 3.99 64.64 3.98L64.64 3.98L64.64 3.98Q64.44 3.96 64.35 3.95L64.35 3.95L64.35 3.95Q64.26 3.93 64.17 3.86L64.17 3.86L64.17 3.86Q64.08 3.78 64.08 3.64ZM66.56 11.47L66.56 11.47L66.56 11.47Q66.56 11.73 66.56 11.90L66.56 11.90L66.56 11.90Q66.57 12.07 66.62 12.21L66.62 12.21L66.62 12.21Q66.67 12.35 66.70 12.40L66.70 12.40L66.70 12.40Q66.72 12.46 66.86 12.53L66.86 12.53L66.86 12.53Q67.00 12.60 67.08 12.62L67.08 12.62L67.08 12.62Q67.16 12.64 67.41 12.71L67.41 12.71L67.41 12.71Q67.66 12.78 67.83 12.82L67.83 12.82L67.83 12.82Q68.32 12.96 68.85 12.96L68.85 12.96L69.13 12.96L69.13 12.96Q70.08 12.96 70.76 12.69L70.76 12.69L70.76 12.69Q71.43 12.42 72.04 11.83L72.04 11.83L72.04 11.83Q73.08 10.84 73.08 8.61L73.08 8.61L73.08 8.61Q73.08 7.49 72.64 6.58L72.64 6.58L72.64 6.58Q72.20 5.67 71.48 5.13L71.48 5.13L71.48 5.13Q70.77 4.59 69.94 4.30L69.94 4.30L69.94 4.30Q69.12 4.02 68.28 4.02L68.28 4.02L68.28 4.02Q67.90 4.02 67.72 4.02L67.72 4.02L67.72 4.02Q67.55 4.02 67.32 4.05L67.32 4.05L67.32 4.05Q67.09 4.09 67.01 4.11L67.01 4.11L67.01 4.11Q66.93 4.13 66.82 4.25L66.82 4.25L66.82 4.25Q66.71 4.37 66.69 4.45L66.69 4.45L66.69 4.45Q66.67 4.54 66.63 4.78L66.63 4.78L66.63 4.78Q66.60 5.03 66.60 5.21L66.60 5.21L66.60 5.21Q66.60 5.39 66.60 5.80L66.60 5.80L66.60 5.80Q66.60 6.10 66.58 7.24L66.58 7.24L66.58 7.24Q66.57 8.39 66.57 8.48L66.57 8.48L66.57 8.48Q66.57 9.32 66.56 10.30L66.56 10.30L66.56 10.30Q66.56 11.28 66.56 11.47ZM82.17 3.65L82.17 3.65L82.17 3.65Q82.17 3.46 82.56 3.46L82.56 3.46L82.56 3.46Q82.61 3.46 82.74 3.47L82.74 3.47L82.74 3.47Q82.87 3.49 82.94 3.49L82.94 3.49L82.94 3.49Q82.98 3.49 84.25 3.52L84.25 3.52L84.25 3.52Q85.53 3.56 86.35 3.56L86.35 3.56L86.35 3.56Q86.65 3.56 87.80 3.53L87.80 3.53L87.80 3.53Q88.96 3.50 89.15 3.50L89.15 3.50L89.15 3.50Q89.42 3.50 89.42 3.82L89.42 3.82L89.42 3.82Q89.42 3.91 89.33 4.38L89.33 4.38L89.33 4.38Q89.25 4.84 89.25 5.25L89.25 5.25L89.25 5.25Q89.25 5.38 89.18 5.47L89.18 5.47L89.18 5.47Q89.11 5.56 89.03 5.56L89.03 5.56L89.03 5.56Q88.82 5.56 88.82 5.26L88.82 5.26L88.82 5.26Q88.82 4.89 88.58 4.58L88.58 4.58L88.58 4.58Q88.34 4.27 87.99 4.26L87.99 4.26L87.99 4.26Q86.73 4.16 86.06 4.16L86.06 4.16L85.69 4.16L85.69 4.16Q84.97 4.16 84.85 4.26L84.85 4.26L84.85 4.26Q84.73 4.37 84.70 5.01L84.70 5.01L84.70 5.01Q84.64 6.02 84.64 7.35L84.64 7.35L84.64 7.35Q84.64 8.05 84.91 8.06L84.91 8.06L85.26 8.06L85.85 8.06L86.28 8.06L86.28 8.06Q87.12 8.06 87.40 8.01L87.40 8.01L87.40 8.01Q87.68 7.95 87.91 7.80L87.91 7.80L87.91 7.80Q88.17 7.62 88.23 7.28L88.23 7.28L88.23 7.28Q88.27 7.04 88.42 7.04L88.42 7.04L88.42 7.04Q88.55 7.04 88.58 7.08L88.58 7.08L88.58 7.08Q88.61 7.13 88.61 7.27L88.61 7.27L88.61 7.27Q88.61 7.36 88.55 7.91L88.55 7.91L88.55 7.91Q88.49 8.46 88.49 8.74L88.49 8.74L88.49 8.74Q88.49 9.00 88.52 9.24L88.52 9.24L88.52 9.24Q88.54 9.48 88.54 9.59L88.54 9.59L88.54 9.59Q88.54 9.94 88.44 9.94L88.44 9.94L88.44 9.94Q88.23 9.94 88.13 9.60L88.13 9.60L88.13 9.60Q87.93 9.02 87.78 8.92L87.78 8.92L87.78 8.92Q87.49 8.72 86.44 8.72L86.44 8.72L86.44 8.72Q86.02 8.72 85.76 8.72L85.76 8.72L85.76 8.72Q85.50 8.72 85.42 8.71L85.42 8.71L85.42 8.71Q85.34 8.71 85.30 8.71L85.30 8.71L85.30 8.71Q85.25 8.71 85.20 8.71L85.20 8.71L85.20 8.71Q84.63 8.71 84.63 8.97L84.63 8.97L84.63 8.97Q84.63 9.38 84.62 9.99L84.62 9.99L84.62 9.99Q84.60 10.60 84.60 10.99L84.60 10.99L84.60 11.55L84.60 11.55Q84.60 12.56 84.94 12.66L84.94 12.66L84.94 12.66Q85.29 12.77 85.54 12.77L85.54 12.77L85.54 12.77Q86.59 12.77 87.38 12.67L87.38 12.67L87.38 12.67Q88.17 12.57 88.57 12.42L88.57 12.42L88.57 12.42Q88.97 12.28 89.24 12.10L89.24 12.10L89.24 12.10Q89.50 11.93 89.58 11.78L89.58 11.78L89.58 11.78Q89.66 11.63 89.73 11.54L89.73 11.54L89.73 11.54Q89.81 11.44 89.89 11.44L89.89 11.44L89.89 11.44Q90.06 11.44 90.06 11.68L90.06 11.68L90.06 11.68Q90.06 12.28 89.46 12.89L89.46 12.89L89.46 12.89Q88.86 13.51 88.41 13.51L88.41 13.51L88.41 13.51Q87.40 13.51 86.13 13.44L86.13 13.44L86.13 13.44Q84.87 13.37 84.56 13.37L84.56 13.37L84.56 13.37Q84.17 13.37 83.58 13.43L83.58 13.43L83.58 13.43Q82.99 13.50 82.66 13.50L82.66 13.50L82.66 13.50Q82.36 13.50 82.36 13.36L82.36 13.36L82.36 13.36Q82.36 13.23 82.36 13.19L82.36 13.19L82.36 13.19Q82.36 13.15 82.40 13.12L82.40 13.12L82.40 13.12Q82.45 13.09 82.49 13.08L82.49 13.08L82.49 13.08Q82.54 13.08 82.68 13.03L82.68 13.03L82.68 13.03Q82.81 12.99 82.96 12.92L82.96 12.92L82.96 12.92Q83.30 12.75 83.41 12.26L83.41 12.26L83.41 12.26Q83.51 11.77 83.51 10.21L83.51 10.21L83.51 8.47L83.51 8.47Q83.51 8.09 83.53 7.29L83.53 7.29L83.53 7.29Q83.55 6.50 83.55 6.05L83.55 6.05L83.55 6.05Q83.55 5.67 83.52 4.77L83.52 4.77L83.52 4.77Q83.51 4.37 83.17 4.14L83.17 4.14L83.17 4.14Q82.84 3.92 82.39 3.91L82.39 3.91L82.39 3.91Q82.17 3.91 82.17 3.65ZM97.62 3.70L97.62 3.70L97.62 3.70Q97.62 3.50 98.01 3.50L98.01 3.50L98.01 3.50Q98.08 3.50 98.55 3.53L98.55 3.53L98.55 3.53Q99.02 3.56 99.55 3.56L99.55 3.56L99.55 3.56Q99.68 3.56 100.00 3.54L100.00 3.54L100.00 3.54Q100.31 3.53 100.46 3.53L100.46 3.53L100.46 3.53Q100.79 3.53 100.86 3.56L100.86 3.56L100.86 3.56Q100.93 3.58 100.93 3.68L100.93 3.68L100.93 3.68Q100.93 3.77 100.79 3.84L100.79 3.84L100.79 3.84Q100.65 3.91 100.50 4.02L100.50 4.02L100.50 4.02Q100.35 4.14 100.35 4.34L100.35 4.34L100.35 4.34Q100.35 4.52 100.40 4.71L100.40 4.71L100.40 4.71Q100.45 4.90 100.62 5.29L100.62 5.29L100.62 5.29Q100.79 5.68 100.96 6.08L100.96 6.08L100.96 6.08Q101.14 6.47 101.53 7.34L101.53 7.34L101.53 7.34Q101.93 8.22 102.31 9.07L102.31 9.07L102.31 9.07Q103.49 11.77 103.71 11.77L103.71 11.77L103.71 11.77Q103.78 11.77 104.52 10.08L104.52 10.08L104.52 10.08Q105.25 8.39 105.97 6.54L105.97 6.54L105.97 6.54Q106.68 4.69 106.68 4.35L106.68 4.35L106.68 4.35Q106.68 4.13 106.52 4.01L106.52 4.01L106.52 4.01Q106.36 3.89 106.18 3.87L106.18 3.87L106.18 3.87Q105.99 3.85 105.83 3.80L105.83 3.80L105.83 3.80Q105.67 3.75 105.67 3.64L105.67 3.64L105.67 3.64Q105.67 3.54 105.72 3.52L105.72 3.52L105.72 3.52Q105.77 3.50 105.97 3.50L105.97 3.50L105.97 3.50Q106.01 3.50 106.29 3.51L106.29 3.51L106.29 3.51Q106.57 3.51 106.85 3.51L106.85 3.51L106.85 3.51Q107.10 3.51 107.41 3.50L107.41 3.50L107.41 3.50Q107.73 3.49 108.09 3.49L108.09 3.49L108.09 3.49Q108.36 3.49 108.36 3.68L108.36 3.68L108.36 3.68Q108.36 3.78 108.27 3.85L108.27 3.85L108.27 3.85Q108.18 3.92 108.05 3.98L108.05 3.98L108.05 3.98Q107.93 4.03 107.76 4.21L107.76 4.21L107.76 4.21Q107.59 4.40 107.46 4.69L107.46 4.69L104.34 11.80L104.34 11.80Q104.01 12.56 103.68 13.34L103.68 13.34L103.68 13.34Q103.53 13.72 103.49 13.79L103.49 13.79L103.49 13.79Q103.45 13.86 103.38 13.86L103.38 13.86L103.38 13.86Q103.12 13.86 102.75 12.89L102.75 12.89L102.75 12.89Q102.38 11.98 101.30 9.65L101.30 9.65L101.30 9.65Q100.77 8.48 100.34 7.50L100.34 7.50L100.34 7.50Q99.90 6.52 99.72 6.06L99.72 6.06L99.72 6.06Q99.53 5.60 99.36 5.24L99.36 5.24L99.36 5.24Q99.20 4.87 99.12 4.72L99.12 4.72L99.12 4.72Q99.04 4.56 98.92 4.44L98.92 4.44L98.92 4.44Q98.69 4.17 98.43 4.06L98.43 4.06L98.43 4.06Q98.17 3.95 98.01 3.96L98.01 3.96L98.01 3.96Q97.85 3.96 97.73 3.91L97.73 3.91L97.73 3.91Q97.62 3.86 97.62 3.70ZM115.92 3.65L115.92 3.65L115.92 3.65Q115.92 3.46 116.31 3.46L116.31 3.46L116.31 3.46Q116.37 3.46 116.49 3.47L116.49 3.47L116.49 3.47Q116.62 3.49 116.69 3.49L116.69 3.49L116.69 3.49Q116.73 3.49 118.01 3.52L118.01 3.52L118.01 3.52Q119.28 3.56 120.11 3.56L120.11 3.56L120.11 3.56Q120.40 3.56 121.56 3.53L121.56 3.53L121.56 3.53Q122.71 3.50 122.91 3.50L122.91 3.50L122.91 3.50Q123.17 3.50 123.17 3.82L123.17 3.82L123.17 3.82Q123.17 3.91 123.09 4.38L123.09 4.38L123.09 4.38Q123.00 4.84 123.00 5.25L123.00 5.25L123.00 5.25Q123.00 5.38 122.93 5.47L122.93 5.47L122.93 5.47Q122.86 5.56 122.78 5.56L122.78 5.56L122.78 5.56Q122.57 5.56 122.57 5.26L122.57 5.26L122.57 5.26Q122.57 4.89 122.33 4.58L122.33 4.58L122.33 4.58Q122.09 4.27 121.74 4.26L121.74 4.26L121.74 4.26Q120.48 4.16 119.81 4.16L119.81 4.16L119.45 4.16L119.45 4.16Q118.72 4.16 118.60 4.26L118.60 4.26L118.60 4.26Q118.48 4.37 118.45 5.01L118.45 5.01L118.45 5.01Q118.40 6.02 118.40 7.35L118.40 7.35L118.40 7.35Q118.40 8.05 118.66 8.06L118.66 8.06L119.01 8.06L119.60 8.06L120.04 8.06L120.04 8.06Q120.88 8.06 121.16 8.01L121.16 8.01L121.16 8.01Q121.44 7.95 121.66 7.80L121.66 7.80L121.66 7.80Q121.93 7.62 121.98 7.28L121.98 7.28L121.98 7.28Q122.02 7.04 122.18 7.04L122.18 7.04L122.18 7.04Q122.30 7.04 122.33 7.08L122.33 7.08L122.33 7.08Q122.36 7.13 122.36 7.27L122.36 7.27L122.36 7.27Q122.36 7.36 122.30 7.91L122.30 7.91L122.30 7.91Q122.25 8.46 122.25 8.74L122.25 8.74L122.25 8.74Q122.25 9.00 122.27 9.24L122.27 9.24L122.27 9.24Q122.29 9.48 122.29 9.59L122.29 9.59L122.29 9.59Q122.29 9.94 122.19 9.94L122.19 9.94L122.19 9.94Q121.98 9.94 121.88 9.60L121.88 9.60L121.88 9.60Q121.69 9.02 121.53 8.92L121.53 8.92L121.53 8.92Q121.24 8.72 120.19 8.72L120.19 8.72L120.19 8.72Q119.77 8.72 119.51 8.72L119.51 8.72L119.51 8.72Q119.25 8.72 119.17 8.71L119.17 8.71L119.17 8.71Q119.10 8.71 119.05 8.71L119.05 8.71L119.05 8.71Q119 8.71 118.96 8.71L118.96 8.71L118.96 8.71Q118.38 8.71 118.38 8.97L118.38 8.97L118.38 8.97Q118.38 9.38 118.37 9.99L118.37 9.99L118.37 9.99Q118.36 10.60 118.36 10.99L118.36 10.99L118.36 11.55L118.36 11.55Q118.36 12.56 118.69 12.66L118.69 12.66L118.69 12.66Q119.04 12.77 119.29 12.77L119.29 12.77L119.29 12.77Q120.34 12.77 121.14 12.67L121.14 12.67L121.14 12.67Q121.93 12.57 122.33 12.42L122.33 12.42L122.33 12.42Q122.72 12.28 122.99 12.10L122.99 12.10L122.99 12.10Q123.26 11.93 123.33 11.78L123.33 11.78L123.33 11.78Q123.41 11.63 123.49 11.54L123.49 11.54L123.49 11.54Q123.56 11.44 123.65 11.44L123.65 11.44L123.65 11.44Q123.82 11.44 123.82 11.68L123.82 11.68L123.82 11.68Q123.82 12.28 123.21 12.89L123.21 12.89L123.21 12.89Q122.61 13.51 122.16 13.51L122.16 13.51L122.16 13.51Q121.16 13.51 119.89 13.44L119.89 13.44L119.89 13.44Q118.62 13.37 118.31 13.37L118.31 13.37L118.31 13.37Q117.92 13.37 117.33 13.43L117.33 13.43L117.33 13.43Q116.75 13.50 116.41 13.50L116.41 13.50L116.41 13.50Q116.12 13.50 116.12 13.36L116.12 13.36L116.12 13.36Q116.12 13.23 116.12 13.19L116.12 13.19L116.12 13.19Q116.12 13.15 116.16 13.12L116.16 13.12L116.16 13.12Q116.20 13.09 116.25 13.08L116.25 13.08L116.25 13.08Q116.30 13.08 116.43 13.03L116.43 13.03L116.43 13.03Q116.56 12.99 116.72 12.92L116.72 12.92L116.72 12.92Q117.05 12.75 117.16 12.26L117.16 12.26L117.16 12.26Q117.26 11.77 117.26 10.21L117.26 10.21L117.26 8.47L117.26 8.47Q117.26 8.09 117.28 7.29L117.28 7.29L117.28 7.29Q117.31 6.50 117.31 6.05L117.31 6.05L117.31 6.05Q117.31 5.67 117.28 4.77L117.28 4.77L117.28 4.77Q117.26 4.37 116.93 4.14L116.93 4.14L116.93 4.14Q116.59 3.92 116.14 3.91L116.14 3.91L116.14 3.91Q115.92 3.91 115.92 3.65ZM131.38 3.71L131.38 3.71L131.38 3.71Q131.38 3.46 131.75 3.46L131.75 3.46L131.75 3.46Q131.81 3.46 131.94 3.47L131.94 3.47L131.94 3.47Q132.06 3.49 132.13 3.49L132.13 3.49L132.13 3.49Q132.27 3.49 132.66 3.51L132.66 3.51L132.66 3.51Q133.04 3.54 133.35 3.54L133.35 3.54L133.35 3.54Q133.78 3.54 134.27 3.51L134.27 3.51L134.27 3.51Q134.76 3.49 134.82 3.49L134.82 3.49L134.82 3.49Q135.06 3.49 135.06 3.63L135.06 3.63L135.06 3.63Q135.06 3.82 134.89 3.88L134.89 3.88L134.89 3.88Q134.72 3.95 134.52 3.97L134.52 3.97L134.52 3.97Q134.32 3.99 134.13 4.28L134.13 4.28L134.13 4.28Q133.94 4.56 133.91 5.14L133.91 5.14L133.91 5.14Q133.88 5.68 133.84 8.19L133.84 8.19L133.84 8.19Q133.80 10.70 133.80 10.99L133.80 10.99L133.80 11.55L133.80 11.55Q133.80 12.56 134.13 12.66L134.13 12.66L134.13 12.66Q134.48 12.77 134.74 12.77L134.74 12.77L134.74 12.77Q135.79 12.77 136.58 12.67L136.58 12.67L136.58 12.67Q137.37 12.57 137.77 12.42L137.77 12.42L137.77 12.42Q138.17 12.28 138.43 12.10L138.43 12.10L138.43 12.10Q138.70 11.93 138.78 11.78L138.78 11.78L138.78 11.78Q138.85 11.63 138.93 11.54L138.93 11.54L138.93 11.54Q139.01 11.44 139.09 11.44L139.09 11.44L139.09 11.44Q139.26 11.44 139.26 11.68L139.26 11.68L139.26 11.68Q139.26 12.28 138.66 12.89L138.66 12.89L138.66 12.89Q138.05 13.51 137.61 13.51L137.61 13.51L137.61 13.51Q136.60 13.51 135.33 13.44L135.33 13.44L135.33 13.44Q134.06 13.37 133.76 13.37L133.76 13.37L133.76 13.37Q133.36 13.37 132.85 13.43L132.85 13.43L132.85 13.43Q132.34 13.48 132.01 13.48L132.01 13.48L132.01 13.48Q131.60 13.48 131.60 13.31L131.60 13.31L131.60 13.31Q131.60 13.22 131.68 13.15L131.68 13.15L131.68 13.15Q131.75 13.09 131.82 13.09L131.82 13.09L131.82 13.09Q132.03 13.09 132.23 12.95L132.23 12.95L132.23 12.95Q132.48 12.75 132.59 12.23L132.59 12.23L132.59 12.23Q132.71 11.70 132.71 10.21L132.71 10.21L132.71 8.47L132.71 8.47Q132.71 8.09 132.73 7.29L132.73 7.29L132.73 7.29Q132.75 6.50 132.75 6.05L132.75 6.05L132.75 6.05Q132.75 5.67 132.72 4.77L132.72 4.77L132.72 4.77Q132.71 4.37 132.37 4.14L132.37 4.14L132.37 4.14Q132.03 3.92 131.59 3.91L131.59 3.91L131.59 3.91Q131.45 3.91 131.41 3.86L131.41 3.86L131.41 3.86Q131.38 3.81 131.38 3.71ZM147.15 8.69L147.15 8.69L147.15 8.69Q147.15 6.34 148.57 4.84L148.57 4.84L148.57 4.84Q149.98 3.33 152.57 3.33L152.57 3.33L152.57 3.33Q153.78 3.33 154.74 3.68L154.74 3.68L154.74 3.68Q155.71 4.03 156.27 4.54L156.27 4.54L156.27 4.54Q156.83 5.05 157.21 5.71L157.21 5.71L157.21 5.71Q157.58 6.37 157.72 6.92L157.72 6.92L157.72 6.92Q157.86 7.48 157.86 7.95L157.86 7.95L157.86 7.95Q157.86 9.86 157.12 11.16L157.12 11.16L157.12 11.16Q156.38 12.47 155.17 13.07L155.17 13.07L155.17 13.07Q153.96 13.66 152.38 13.66L152.38 13.66L152.38 13.66Q150.71 13.66 149.50 12.94L149.50 12.94L149.50 12.94Q148.29 12.21 147.72 11.10L147.72 11.10L147.72 11.10Q147.15 10.00 147.15 8.69ZM148.39 7.98L148.39 7.98L148.39 7.98Q148.39 8.54 148.54 9.19L148.54 9.19L148.54 9.19Q148.69 9.84 149.04 10.54L149.04 10.54L149.04 10.54Q149.39 11.23 149.89 11.78L149.89 11.78L149.89 11.78Q150.39 12.33 151.15 12.69L151.15 12.69L151.15 12.69Q151.91 13.05 152.82 13.05L152.82 13.05L152.82 13.05Q153.30 13.05 153.83 12.90L153.83 12.90L153.83 12.90Q154.35 12.75 154.87 12.45L154.87 12.45L154.87 12.45Q155.39 12.14 155.79 11.70L155.79 11.70L155.79 11.70Q156.20 11.26 156.46 10.62L156.46 10.62L156.46 10.62Q156.72 9.98 156.72 9.24L156.72 9.24L156.72 9.24Q156.72 6.71 155.39 5.30L155.39 5.30L155.39 5.30Q154.06 3.89 152.10 3.89L152.10 3.89L152.10 3.89Q150.56 3.89 149.47 4.93L149.47 4.93L149.47 4.93Q148.39 5.96 148.39 7.98ZM165.76 3.72L165.76 3.72L165.76 3.72Q165.76 3.50 166.08 3.50L166.08 3.50L166.08 3.50Q166.12 3.50 166.24 3.49L166.24 3.49L166.24 3.49Q166.35 3.49 166.60 3.49L166.60 3.49L166.60 3.49Q166.67 3.49 166.99 3.51L166.99 3.51L166.99 3.51Q167.30 3.53 167.44 3.53L167.44 3.53L167.44 3.53Q167.75 3.53 168.63 3.51L168.63 3.51L168.63 3.51Q169.51 3.49 169.75 3.49L169.75 3.49L169.75 3.49Q171.07 3.49 172.02 4.15L172.02 4.15L172.02 4.15Q172.97 4.82 172.97 6.06L172.97 6.06L172.97 6.06Q172.97 6.75 172.72 7.29L172.72 7.29L172.72 7.29Q172.47 7.83 172.11 8.13L172.11 8.13L172.11 8.13Q171.75 8.44 171.31 8.64L171.31 8.64L171.31 8.64Q170.87 8.85 170.53 8.91L170.53 8.91L170.53 8.91Q170.18 8.97 169.92 8.97L169.92 8.97L169.92 8.97Q169.47 8.97 169.01 8.87L169.01 8.87L169.01 8.87Q168.55 8.76 168.55 8.65L168.55 8.65L168.55 8.65Q168.55 8.44 168.73 8.44L168.73 8.44L168.73 8.44Q168.80 8.44 169.02 8.50L169.02 8.50L169.02 8.50Q169.23 8.55 169.44 8.55L169.44 8.55L169.44 8.55Q169.76 8.55 170.13 8.46L170.13 8.46L170.13 8.46Q170.49 8.37 170.88 8.17L170.88 8.17L170.88 8.17Q171.28 7.97 171.53 7.55L171.53 7.55L171.53 7.55Q171.78 7.14 171.78 6.59L171.78 6.59L171.78 6.59Q171.78 5.66 171.02 4.85L171.02 4.85L171.02 4.85Q170.27 4.05 168.94 4.05L168.94 4.05L168.94 4.05Q168.50 4.05 168.35 4.30L168.35 4.30L168.35 4.30Q168.20 4.56 168.20 5.47L168.20 5.47L168.20 5.47Q168.20 8.39 168.18 8.80L168.18 8.80L168.18 8.80Q168.17 9.21 168.17 11.26L168.17 11.26L168.17 11.26Q168.17 12.49 168.74 12.87L168.74 12.87L168.74 12.87Q168.90 12.96 169.13 12.99L169.13 12.99L169.13 12.99Q169.36 13.02 169.51 13.01L169.51 13.01L169.51 13.01Q169.67 13.01 169.79 13.07L169.79 13.07L169.79 13.07Q169.90 13.13 169.90 13.30L169.90 13.30L169.90 13.30Q169.90 13.54 169.58 13.54L169.58 13.54L169.58 13.54Q169.26 13.54 168.45 13.50L168.45 13.50L168.45 13.50Q167.64 13.47 167.58 13.47L167.58 13.47L167.58 13.47Q167.44 13.47 167.03 13.50L167.03 13.50L167.03 13.50Q166.61 13.52 166.28 13.52L166.28 13.52L166.28 13.52Q165.84 13.52 165.84 13.37L165.84 13.37L165.84 13.37Q165.84 13.29 165.87 13.23L165.87 13.23L165.87 13.23Q165.89 13.17 165.91 13.14L165.91 13.14L165.91 13.14Q165.93 13.10 166.00 13.08L166.00 13.08L166.00 13.08Q166.07 13.05 166.10 13.03L166.10 13.03L166.10 13.03Q166.12 13.02 166.23 13.00L166.23 13.00L166.23 13.00Q166.33 12.98 166.38 12.96L166.38 12.96L166.38 12.96Q166.40 12.95 166.46 12.94L166.46 12.94L166.46 12.94Q166.52 12.94 166.54 12.93L166.54 12.93L166.54 12.93Q166.56 12.92 166.61 12.89L166.61 12.89L166.61 12.89Q166.66 12.85 166.68 12.79L166.68 12.79L166.68 12.79Q166.71 12.73 166.76 12.62L166.76 12.62L166.76 12.62Q166.81 12.52 166.87 12.35L166.87 12.35L166.87 12.35Q166.96 12.08 167.02 10.25L167.02 10.25L167.02 10.25Q167.08 8.41 167.08 7.41L167.08 7.41L167.08 7.41Q167.08 6.54 167.07 5.80L167.07 5.80L167.07 5.80Q167.06 5.07 167.06 5.03L167.06 5.03L167.06 5.03Q167.06 4.65 166.82 4.28L166.82 4.28L166.82 4.28Q166.59 3.91 166.04 3.91L166.04 3.91L166.04 3.91Q165.76 3.91 165.76 3.72ZM180.45 3.71L180.45 3.71L180.45 3.71Q180.45 3.50 180.70 3.50L180.70 3.50L180.70 3.50Q180.78 3.50 181.08 3.53L181.08 3.53L181.08 3.53Q181.38 3.56 181.44 3.56L181.44 3.56L181.44 3.56Q181.65 3.56 182.01 3.54L182.01 3.54L182.01 3.54Q182.38 3.53 182.49 3.53L182.49 3.53L182.49 3.53Q182.76 3.53 182.83 3.72L182.83 3.72L182.83 3.72Q182.99 4.09 183.43 5.03L183.43 5.03L183.43 5.03Q183.86 5.98 184.12 6.54L184.12 6.54L184.12 6.54Q184.38 7.10 184.79 7.97L184.79 7.97L184.79 7.97Q185.19 8.83 185.44 9.37L185.44 9.37L185.44 9.37Q185.70 9.91 185.97 10.46L185.97 10.46L185.97 10.46Q186.24 11.00 186.39 11.26L186.39 11.26L186.39 11.26Q186.54 11.52 186.58 11.52L186.58 11.52L186.58 11.52Q186.62 11.52 186.67 11.47L186.67 11.47L186.67 11.47Q186.72 11.42 186.77 11.34L186.77 11.34L186.77 11.34Q186.82 11.26 186.85 11.17L186.85 11.17L186.85 11.17Q186.89 11.09 186.95 10.96L186.95 10.96L186.95 10.96Q187.01 10.82 187.04 10.75L187.04 10.75L188.85 7.03L188.85 7.03Q189.15 6.40 189.39 5.89L189.39 5.89L189.39 5.89Q189.63 5.39 189.77 5.08L189.77 5.08L189.77 5.08Q189.91 4.77 190.01 4.55L190.01 4.55L190.01 4.55Q190.11 4.33 190.16 4.21L190.16 4.21L190.16 4.21Q190.20 4.10 190.22 4.04L190.22 4.04L190.22 4.04Q190.25 3.98 190.26 3.94L190.26 3.94L190.26 3.94Q190.27 3.91 190.29 3.88L190.29 3.88L190.29 3.88Q190.30 3.85 190.34 3.75L190.34 3.75L190.34 3.75Q190.37 3.65 190.41 3.62L190.41 3.62L190.41 3.62Q190.44 3.58 190.55 3.54L190.55 3.54L190.55 3.54Q190.65 3.50 190.82 3.50L190.82 3.50L190.82 3.50Q191.09 3.50 191.32 3.51L191.32 3.51L191.32 3.51Q191.55 3.53 192.02 3.53L192.02 3.53L192.02 3.53Q192.26 3.53 192.26 3.71L192.26 3.71L192.26 3.71Q192.26 3.85 192.17 3.91L192.17 3.91L192.17 3.91Q192.08 3.98 191.80 4.02L191.80 4.02L191.80 4.02Q191.45 4.06 191.31 4.37L191.31 4.37L191.31 4.37Q191.17 4.68 191.17 5.54L191.17 5.54L191.17 5.54Q191.17 7.43 191.25 8.97L191.25 8.97L191.25 8.97Q191.34 10.50 191.34 10.89L191.34 10.89L191.34 10.89Q191.34 12.29 191.56 12.68L191.56 12.68L191.56 12.68Q191.79 13.06 192.50 13.06L192.50 13.06L192.50 13.06Q192.60 13.06 192.68 13.13L192.68 13.13L192.68 13.13Q192.75 13.20 192.75 13.26L192.75 13.26L192.75 13.26Q192.75 13.34 192.74 13.38L192.74 13.38L192.74 13.38Q192.72 13.43 192.68 13.45L192.68 13.45L192.68 13.45Q192.64 13.48 192.60 13.48L192.60 13.48L192.60 13.48Q192.56 13.48 192.44 13.48L192.44 13.48L192.44 13.48Q192.02 13.48 191.62 13.45L191.62 13.45L191.62 13.45Q191.21 13.43 191.02 13.43L191.02 13.43L191.02 13.43Q190.62 13.43 190.20 13.46L190.20 13.46L190.20 13.46Q189.78 13.50 189.56 13.50L189.56 13.50L189.56 13.50Q189.31 13.50 189.31 13.30L189.31 13.30L189.31 13.30Q189.31 13.17 189.42 13.12L189.42 13.12L189.42 13.12Q189.53 13.06 189.68 13.05L189.68 13.05L189.68 13.05Q189.83 13.03 189.99 12.87L189.99 12.87L189.99 12.87Q190.15 12.71 190.22 12.39L190.22 12.39L190.22 12.39Q190.27 12.11 190.27 11.49L190.27 11.49L190.27 11.49Q190.27 11.05 190.25 10.42L190.25 10.42L190.25 10.42Q190.23 9.79 190.20 9.19L190.20 9.19L190.20 9.19Q190.18 8.60 190.15 8.07L190.15 8.07L190.15 8.07Q190.12 7.55 190.11 7.21L190.11 7.21L190.08 6.87L190.08 6.87Q190.08 6.27 189.95 6.27L189.95 6.27L189.95 6.27Q189.94 6.27 189.91 6.29L189.91 6.29L189.91 6.29Q189.88 6.30 189.86 6.33L189.86 6.33L189.86 6.33Q189.84 6.36 189.81 6.38L189.81 6.38L189.81 6.38Q189.78 6.41 189.76 6.47L189.76 6.47L189.76 6.47Q189.73 6.54 189.70 6.58L189.70 6.58L189.70 6.58Q189.67 6.62 189.63 6.70L189.63 6.70L189.63 6.70Q189.59 6.78 189.56 6.83L189.56 6.83L189.56 6.83Q189.53 6.89 189.48 6.99L189.48 6.99L189.48 6.99Q189.43 7.08 189.41 7.15L189.41 7.15L187.46 11.09L187.46 11.09Q187.12 11.77 186.75 12.56L186.75 12.56L186.75 12.56Q186.49 13.09 186.44 13.18L186.44 13.18L186.44 13.18Q186.38 13.27 186.30 13.27L186.30 13.27L186.30 13.27Q186.17 13.27 186.09 13.15L186.09 13.15L186.09 13.15Q186.00 13.03 185.84 12.63L185.84 12.63L185.84 12.63Q185.67 12.22 185.54 11.96L185.54 11.96L185.54 11.96Q182.98 6.75 182.91 6.65L182.91 6.65L182.91 6.65Q182.87 6.59 182.83 6.59L182.83 6.59L182.83 6.59Q182.71 6.59 182.71 7.15L182.71 7.15L182.71 7.15Q182.70 8.25 182.64 9.31L182.64 9.31L182.64 9.31Q182.59 10.37 182.59 10.85L182.59 10.85L182.59 11.48L182.59 11.48Q182.59 11.84 182.61 12.04L182.61 12.04L182.61 12.04Q182.63 12.24 182.72 12.49L182.72 12.49L182.72 12.49Q182.81 12.75 183.05 12.89L183.05 12.89L183.05 12.89Q183.29 13.03 183.67 13.08L183.67 13.08L183.67 13.08Q183.74 13.08 183.80 13.13L183.80 13.13L183.80 13.13Q183.86 13.17 183.86 13.23L183.86 13.23L183.86 13.23Q183.86 13.38 183.82 13.43L183.82 13.43L183.82 13.43Q183.78 13.48 183.65 13.48L183.65 13.48L183.65 13.48Q183.37 13.48 182.81 13.45L182.81 13.45L182.81 13.45Q182.25 13.43 182.20 13.43L182.20 13.43L182.20 13.43Q182.17 13.43 181.79 13.45L181.79 13.45L181.79 13.45Q181.41 13.47 181.05 13.47L181.05 13.47L181.05 13.47Q180.94 13.47 180.89 13.45L180.89 13.45L180.89 13.45Q180.84 13.44 180.80 13.39L180.80 13.39L180.80 13.39Q180.75 13.34 180.75 13.24L180.75 13.24L180.75 13.24Q180.75 13.13 180.88 13.09L180.88 13.09L180.88 13.09Q181.01 13.05 181.17 13.04L181.17 13.04L181.17 13.04Q181.33 13.03 181.52 12.82L181.52 12.82L181.52 12.82Q181.72 12.60 181.82 12.18L181.82 12.18L181.82 12.18Q181.89 11.87 181.99 9.74L181.99 9.74L181.99 9.74Q182.08 7.62 182.08 6.59L182.08 6.59L182.08 6.59Q182.08 5.19 181.81 4.66L181.81 4.66L181.81 4.66Q181.54 4.13 180.63 3.92L180.63 3.92L180.63 3.92Q180.45 3.88 180.45 3.71ZM200.31 3.65L200.31 3.65L200.31 3.65Q200.31 3.46 200.70 3.46L200.70 3.46L200.70 3.46Q200.76 3.46 200.89 3.47L200.89 3.47L200.89 3.47Q201.01 3.49 201.08 3.49L201.08 3.49L201.08 3.49Q201.12 3.49 202.40 3.52L202.40 3.52L202.40 3.52Q203.67 3.56 204.50 3.56L204.50 3.56L204.50 3.56Q204.79 3.56 205.95 3.53L205.95 3.53L205.95 3.53Q207.10 3.50 207.30 3.50L207.30 3.50L207.30 3.50Q207.56 3.50 207.56 3.82L207.56 3.82L207.56 3.82Q207.56 3.91 207.48 4.38L207.48 4.38L207.48 4.38Q207.40 4.84 207.40 5.25L207.40 5.25L207.40 5.25Q207.40 5.38 207.33 5.47L207.33 5.47L207.33 5.47Q207.26 5.56 207.17 5.56L207.17 5.56L207.17 5.56Q206.96 5.56 206.96 5.26L206.96 5.26L206.96 5.26Q206.96 4.89 206.72 4.58L206.72 4.58L206.72 4.58Q206.49 4.27 206.14 4.26L206.14 4.26L206.14 4.26Q204.88 4.16 204.20 4.16L204.20 4.16L203.84 4.16L203.84 4.16Q203.11 4.16 202.99 4.26L202.99 4.26L202.99 4.26Q202.87 4.37 202.85 5.01L202.85 5.01L202.85 5.01Q202.79 6.02 202.79 7.35L202.79 7.35L202.79 7.35Q202.79 8.05 203.06 8.06L203.06 8.06L203.41 8.06L203.99 8.06L204.43 8.06L204.43 8.06Q205.27 8.06 205.55 8.01L205.55 8.01L205.55 8.01Q205.83 7.95 206.05 7.80L206.05 7.80L206.05 7.80Q206.32 7.62 206.37 7.28L206.37 7.28L206.37 7.28Q206.42 7.04 206.57 7.04L206.57 7.04L206.57 7.04Q206.70 7.04 206.72 7.08L206.72 7.08L206.72 7.08Q206.75 7.13 206.75 7.27L206.75 7.27L206.75 7.27Q206.75 7.36 206.70 7.91L206.70 7.91L206.70 7.91Q206.64 8.46 206.64 8.74L206.64 8.74L206.64 8.74Q206.64 9.00 206.66 9.24L206.66 9.24L206.66 9.24Q206.68 9.48 206.68 9.59L206.68 9.59L206.68 9.59Q206.68 9.94 206.58 9.94L206.58 9.94L206.58 9.94Q206.37 9.94 206.28 9.60L206.28 9.60L206.28 9.60Q206.08 9.02 205.93 8.92L205.93 8.92L205.93 8.92Q205.63 8.72 204.58 8.72L204.58 8.72L204.58 8.72Q204.16 8.72 203.90 8.72L203.90 8.72L203.90 8.72Q203.64 8.72 203.57 8.71L203.57 8.71L203.57 8.71Q203.49 8.71 203.44 8.71L203.44 8.71L203.44 8.71Q203.39 8.71 203.35 8.71L203.35 8.71L203.35 8.71Q202.78 8.71 202.78 8.97L202.78 8.97L202.78 8.97Q202.78 9.38 202.76 9.99L202.76 9.99L202.76 9.99Q202.75 10.60 202.75 10.99L202.75 10.99L202.75 11.55L202.75 11.55Q202.75 12.56 203.08 12.66L203.08 12.66L203.08 12.66Q203.43 12.77 203.69 12.77L203.69 12.77L203.69 12.77Q204.74 12.77 205.53 12.67L205.53 12.67L205.53 12.67Q206.32 12.57 206.72 12.42L206.72 12.42L206.72 12.42Q207.12 12.28 207.38 12.10L207.38 12.10L207.38 12.10Q207.65 11.93 207.72 11.78L207.72 11.78L207.72 11.78Q207.80 11.63 207.88 11.54L207.88 11.54L207.88 11.54Q207.96 11.44 208.04 11.44L208.04 11.44L208.04 11.44Q208.21 11.44 208.21 11.68L208.21 11.68L208.21 11.68Q208.21 12.28 207.61 12.89L207.61 12.89L207.61 12.89Q207.00 13.51 206.56 13.51L206.56 13.51L206.56 13.51Q205.55 13.51 204.28 13.44L204.28 13.44L204.28 13.44Q203.01 13.37 202.71 13.37L202.71 13.37L202.71 13.37Q202.31 13.37 201.73 13.43L201.73 13.43L201.73 13.43Q201.14 13.50 200.80 13.50L200.80 13.50L200.80 13.50Q200.51 13.50 200.51 13.36L200.51 13.36L200.51 13.36Q200.51 13.23 200.51 13.19L200.51 13.19L200.51 13.19Q200.51 13.15 200.55 13.12L200.55 13.12L200.55 13.12Q200.59 13.09 200.64 13.08L200.64 13.08L200.64 13.08Q200.69 13.08 200.82 13.03L200.82 13.03L200.82 13.03Q200.96 12.99 201.11 12.92L201.11 12.92L201.11 12.92Q201.45 12.75 201.55 12.26L201.55 12.26L201.55 12.26Q201.66 11.77 201.66 10.21L201.66 10.21L201.66 8.47L201.66 8.47Q201.66 8.09 201.68 7.29L201.68 7.29L201.68 7.29Q201.70 6.50 201.70 6.05L201.70 6.05L201.70 6.05Q201.70 5.67 201.67 4.77L201.67 4.77L201.67 4.77Q201.66 4.37 201.32 4.14L201.32 4.14L201.32 4.14Q200.98 3.92 200.54 3.91L200.54 3.91L200.54 3.91Q200.31 3.91 200.31 3.65ZM215.77 3.77L215.77 3.77L215.77 3.77Q215.77 3.68 215.87 3.60L215.87 3.60L215.87 3.60Q215.96 3.53 216.12 3.53L216.12 3.53L216.12 3.53Q216.20 3.53 216.40 3.54L216.40 3.54L216.40 3.54Q216.59 3.54 216.65 3.54L216.65 3.54L216.65 3.54Q216.86 3.54 217.04 3.53L217.04 3.53L217.04 3.53Q217.22 3.51 217.34 3.51L217.34 3.51L217.34 3.51Q217.46 3.51 217.63 3.59L217.63 3.59L217.63 3.59Q217.80 3.67 217.83 3.75L217.83 3.75L217.83 3.75Q217.85 3.79 217.98 3.94L217.98 3.94L217.98 3.94Q218.11 4.09 218.32 4.33L218.32 4.33L218.32 4.33Q218.53 4.56 218.69 4.79L218.69 4.79L218.69 4.79Q220.60 7.27 223.79 10.77L223.79 10.77L223.79 10.77Q223.87 10.86 223.99 10.99L223.99 10.99L223.99 10.99Q224.11 11.12 224.16 11.18L224.16 11.18L224.16 11.18Q224.21 11.24 224.27 11.30L224.27 11.30L224.27 11.30Q224.32 11.35 224.36 11.38L224.36 11.38L224.36 11.38Q224.39 11.40 224.42 11.40L224.42 11.40L224.42 11.40Q224.56 11.40 224.56 10.53L224.56 10.53L224.56 8.89L224.56 8.89Q224.56 7.95 224.55 7.31L224.55 7.31L224.55 7.31Q224.55 6.66 224.54 6.38L224.54 6.38L224.54 6.38Q224.53 6.09 224.53 6.02L224.53 6.02L224.53 5.92L224.53 5.92Q224.53 5.45 224.47 5.11L224.47 5.11L224.47 5.11Q224.41 4.77 224.32 4.59L224.32 4.59L224.32 4.59Q224.24 4.41 224.08 4.28L224.08 4.28L224.08 4.28Q223.92 4.16 223.80 4.12L223.80 4.12L223.80 4.12Q223.69 4.09 223.48 4.05L223.48 4.05L223.48 4.05Q223.27 4.00 223.19 3.98L223.19 3.98L223.19 3.98Q222.91 3.89 222.91 3.74L222.91 3.74L222.91 3.74Q222.91 3.53 223.17 3.53L223.17 3.53L223.17 3.53Q223.26 3.53 223.85 3.54L223.85 3.54L223.85 3.54Q224.43 3.54 224.50 3.54L224.50 3.54L224.50 3.54Q224.84 3.54 225.25 3.53L225.25 3.53L225.25 3.53Q225.67 3.51 225.76 3.51L225.76 3.51L225.76 3.51Q226.00 3.51 226.09 3.56L226.09 3.56L226.09 3.56Q226.18 3.61 226.18 3.75L226.18 3.75L226.18 3.75Q226.18 3.81 226.11 3.86L226.11 3.86L226.11 3.86Q226.03 3.91 225.95 3.94L225.95 3.94L225.95 3.94Q225.86 3.98 225.78 4.00L225.78 4.00L225.69 4.03L225.69 4.03Q225.23 4.28 225.23 5.61L225.23 5.61L225.23 6.15L225.23 6.15Q225.23 7.21 225.15 9.83L225.15 9.83L225.15 9.83Q225.08 12.46 225.08 13.08L225.08 13.08L225.08 13.36L225.08 13.36Q225.08 13.68 224.88 13.68L224.88 13.68L224.88 13.68Q224.76 13.68 224.66 13.58L224.66 13.58L224.66 13.58Q220.01 8.19 219.11 7.17L219.11 7.17L219.11 7.17Q218.20 6.16 218.11 6.16L218.11 6.16L218.11 6.16Q217.97 6.16 217.97 7.11L217.97 7.11L217.97 7.11Q217.97 8.44 217.91 9.97L217.91 9.97L217.91 9.97Q217.85 11.51 217.85 11.65L217.85 11.65L217.85 11.65Q217.85 12.28 218.07 12.61L218.07 12.61L218.07 12.61Q218.29 12.94 218.54 12.98L218.54 12.98L218.54 12.98Q218.79 13.02 219.01 13.07L219.01 13.07L219.01 13.07Q219.23 13.12 219.23 13.26L219.23 13.26L219.23 13.26Q219.23 13.41 219.18 13.45L219.18 13.45L219.18 13.45Q219.13 13.50 219.00 13.50L219.00 13.50L219.00 13.50Q218.90 13.50 218.56 13.48L218.56 13.48L218.56 13.48Q218.22 13.47 217.50 13.47L217.50 13.47L217.50 13.47Q217.38 13.47 216.99 13.48L216.99 13.48L216.99 13.48Q216.59 13.50 216.31 13.50L216.31 13.50L216.31 13.50Q216.01 13.50 216.01 13.27L216.01 13.27L216.01 13.27Q216.01 13.15 216.19 13.11L216.19 13.11L216.19 13.11Q216.37 13.08 216.64 12.89L216.64 12.89L216.64 12.89Q216.90 12.71 217.04 12.21L217.04 12.21L217.04 12.21Q217.13 11.89 217.25 9.60L217.25 9.60L217.25 9.60Q217.38 7.32 217.38 6.45L217.38 6.45L217.38 6.45Q217.38 5.25 217.04 4.65L217.04 4.65L217.04 4.65Q216.71 4.06 215.95 3.98L215.95 3.98L215.95 3.98Q215.77 3.96 215.77 3.77ZM233.94 5.32L233.94 5.32L233.94 5.32Q233.94 4.76 234.08 3.88L234.08 3.88L234.08 3.88Q234.08 3.85 234.09 3.78L234.09 3.78L234.09 3.78Q234.09 3.71 234.10 3.69L234.10 3.69L234.10 3.69Q234.11 3.67 234.11 3.62L234.11 3.62L234.11 3.62Q234.12 3.57 234.14 3.55L234.14 3.55L234.14 3.55Q234.15 3.53 234.17 3.49L234.17 3.49L234.17 3.49Q234.19 3.46 234.22 3.44L234.22 3.44L234.22 3.44Q234.25 3.43 234.29 3.42L234.29 3.42L234.29 3.42Q234.33 3.40 234.39 3.39L234.39 3.39L234.39 3.39Q234.44 3.39 234.51 3.39L234.51 3.39L234.51 3.39Q234.74 3.39 235.70 3.44L235.70 3.44L235.70 3.44Q236.66 3.50 238.46 3.50L238.46 3.50L238.46 3.50Q241.54 3.50 242.77 3.43L242.77 3.43L242.77 3.43Q242.79 3.43 242.82 3.42L242.82 3.42L242.82 3.42Q242.86 3.42 242.87 3.42L242.87 3.42L242.87 3.42Q243.03 3.42 243.08 3.50L243.08 3.50L243.08 3.50Q243.14 3.58 243.14 3.65L243.14 3.65L243.14 3.65Q243.14 3.75 243.18 4.24L243.18 4.24L243.18 4.24Q243.22 4.73 243.22 4.79L243.22 4.79L243.22 4.79Q243.22 5.14 243.18 5.23L243.18 5.23L243.18 5.23Q243.14 5.32 243.00 5.32L243.00 5.32L243.00 5.32Q242.89 5.32 242.84 5.15L242.84 5.15L242.84 5.15Q242.73 4.75 242.65 4.60L242.65 4.60L242.65 4.60Q242.56 4.45 242.28 4.34L242.28 4.34L242.28 4.34Q242.00 4.23 241.43 4.23L241.43 4.23L239.61 4.23L239.61 4.23Q239.27 4.23 239.20 4.36L239.20 4.36L239.20 4.36Q239.12 4.49 239.12 5.12L239.12 5.12L239.12 5.81L239.12 5.81Q239.12 7.69 239.10 9.11L239.10 9.11L239.10 9.11Q239.08 10.54 239.08 10.93L239.08 10.93L239.08 10.93Q239.08 11.13 239.07 11.43L239.07 11.43L239.07 11.43Q239.06 11.73 239.06 11.84L239.06 11.84L239.06 11.84Q239.06 12.45 239.26 12.64L239.26 12.64L239.26 12.64Q239.44 12.81 239.67 12.90L239.67 12.90L239.67 12.90Q239.89 12.99 240.05 13.01L240.05 13.01L240.05 13.01Q240.21 13.02 240.32 13.08L240.32 13.08L240.32 13.08Q240.44 13.13 240.44 13.26L240.44 13.26L240.44 13.26Q240.44 13.41 240.37 13.45L240.37 13.45L240.37 13.45Q240.30 13.50 240.10 13.50L240.10 13.50L240.10 13.50Q239.93 13.50 239.36 13.44L239.36 13.44L239.36 13.44Q238.78 13.38 238.55 13.38L238.55 13.38L238.55 13.38Q238.38 13.38 237.87 13.43L237.87 13.43L237.87 13.43Q237.36 13.48 237.12 13.48L237.12 13.48L237.12 13.48Q236.60 13.48 236.60 13.26L236.60 13.26L236.60 13.26Q236.60 13.12 236.68 13.07L236.68 13.07L236.68 13.07Q236.77 13.02 237.01 12.98L237.01 12.98L237.01 12.98Q237.26 12.95 237.33 12.94L237.33 12.94L237.33 12.94Q237.80 12.82 237.86 12.38L237.86 12.38L237.86 12.38Q238.00 11.14 238.00 7.08L238.00 7.08L237.99 4.58L237.99 4.58Q237.99 4.31 237.83 4.25L237.83 4.25L237.83 4.25Q237.68 4.19 236.92 4.19L236.92 4.19L236.92 4.19Q235.94 4.19 235.44 4.24L235.44 4.24L235.44 4.24Q234.95 4.30 234.86 4.35L234.86 4.35L234.86 4.35Q234.78 4.40 234.67 4.54L234.67 4.54L234.67 4.54Q234.54 4.70 234.46 4.91L234.46 4.91L234.46 4.91Q234.39 5.11 234.37 5.24L234.37 5.24L234.37 5.24Q234.35 5.38 234.28 5.47L234.28 5.47L234.28 5.47Q234.22 5.56 234.09 5.56L234.09 5.56L234.09 5.56Q233.94 5.56 233.94 5.32ZM260.76 3.68L260.76 3.68L260.76 3.68Q260.76 3.64 260.78 3.60L260.78 3.60L260.78 3.60Q260.81 3.56 260.90 3.50L260.90 3.50L260.90 3.50Q260.99 3.44 261.13 3.44L261.13 3.44L261.51 3.44L261.51 3.44Q261.84 3.44 262.59 3.49L262.59 3.49L262.59 3.49Q263.34 3.53 264.54 3.53L264.54 3.53L264.54 3.53Q265.54 3.53 266.31 3.49L266.31 3.49L266.31 3.49Q267.08 3.46 267.72 3.46L267.72 3.46L267.72 3.46Q267.96 3.46 267.96 3.79L267.96 3.79L267.96 3.79Q267.96 3.92 267.93 4.11L267.93 4.11L267.93 4.11Q267.90 4.30 267.85 4.61L267.85 4.61L267.85 4.61Q267.79 4.93 267.76 5.22L267.76 5.22L267.76 5.22Q267.74 5.50 267.55 5.50L267.55 5.50L267.55 5.50Q267.36 5.50 267.36 5.22L267.36 5.22L267.36 5.22Q267.36 4.30 266.71 4.26L266.71 4.26L266.71 4.26Q264.60 4.09 264.19 4.09L264.19 4.09L264.19 4.09Q263.56 4.09 263.42 4.24L263.42 4.24L263.42 4.24Q263.27 4.40 263.26 4.87L263.26 4.87L263.26 4.87Q263.26 4.94 263.26 4.98L263.26 4.98L263.26 4.98Q263.21 5.74 263.21 7.32L263.21 7.32L263.21 7.32Q263.21 8.01 263.47 8.02L263.47 8.02L263.47 8.02Q263.54 8.02 263.65 8.03L263.65 8.03L263.65 8.03Q263.77 8.04 263.82 8.04L263.82 8.04L263.82 8.04Q263.91 8.04 264.11 8.03L264.11 8.03L264.11 8.03Q264.31 8.02 264.42 8.02L264.42 8.02L264.85 8.02L264.85 8.02Q265.69 8.02 265.96 7.97L265.96 7.97L265.96 7.97Q266.24 7.92 266.46 7.77L266.46 7.77L266.46 7.77Q266.59 7.69 266.66 7.57L266.66 7.57L266.66 7.57Q266.73 7.46 266.76 7.31L266.76 7.31L266.76 7.31Q266.78 7.15 266.83 7.08L266.83 7.08L266.83 7.08Q266.87 7.01 266.99 7.01L266.99 7.01L266.99 7.01Q267.12 7.01 267.15 7.06L267.15 7.06L267.15 7.06Q267.18 7.10 267.18 7.24L267.18 7.24L267.18 7.24Q267.18 7.34 267.11 7.73L267.11 7.73L267.11 7.73Q267.05 8.12 267.05 8.40L267.05 8.40L267.05 8.40Q267.05 8.67 267.10 9.05L267.10 9.05L267.10 9.05Q267.15 9.44 267.15 9.55L267.15 9.55L267.15 9.55Q267.15 9.77 267.10 9.83L267.10 9.83L267.10 9.83Q267.05 9.90 266.95 9.90L266.95 9.90L266.95 9.90Q266.71 9.90 266.66 9.55L266.66 9.55L266.66 9.55Q266.66 9.52 266.64 9.42L266.64 9.42L266.64 9.42Q266.63 9.32 266.62 9.28L266.62 9.28L266.62 9.28Q266.62 9.24 266.59 9.16L266.59 9.16L266.59 9.16Q266.56 9.09 266.53 9.04L266.53 9.04L266.53 9.04Q266.50 9.00 266.46 8.95L266.46 8.95L266.46 8.95Q266.42 8.90 266.35 8.88L266.35 8.88L266.35 8.88Q266.15 8.79 265.65 8.74L265.65 8.74L265.65 8.74Q265.15 8.68 264.99 8.68L264.99 8.68L263.77 8.68L263.77 8.68Q263.20 8.68 263.20 8.95L263.20 8.95L263.20 8.95Q263.20 9.35 263.19 9.96L263.19 9.96L263.19 9.96Q263.17 10.57 263.17 10.96L263.17 10.96L263.17 10.96Q263.17 11.06 263.16 11.25L263.16 11.25L263.16 11.25Q263.16 11.44 263.16 11.52L263.16 11.52L263.16 11.52Q263.16 11.80 263.21 12.08L263.21 12.08L263.21 12.08Q263.27 12.36 263.54 12.67L263.54 12.67L263.54 12.67Q263.82 12.98 264.28 12.98L264.28 12.98L264.28 12.98Q264.70 12.98 264.70 13.23L264.70 13.23L264.70 13.23Q264.70 13.27 264.67 13.33L264.67 13.33L264.67 13.33Q264.64 13.38 264.54 13.44L264.54 13.44L264.54 13.44Q264.43 13.50 264.26 13.50L264.26 13.50L264.26 13.50Q264.04 13.50 263.56 13.44L263.56 13.44L263.56 13.44Q263.07 13.38 262.91 13.38L262.91 13.38L262.91 13.38Q262.51 13.38 262.03 13.43L262.03 13.43L262.03 13.43Q261.55 13.47 261.21 13.47L261.21 13.47L261.21 13.47Q260.93 13.47 260.93 13.31L260.93 13.31L260.93 13.31Q260.93 13.13 261.00 13.09L261.00 13.09L261.00 13.09Q261.06 13.05 261.53 12.88L261.53 12.88L261.53 12.88Q261.90 12.75 261.98 12.13L261.98 12.13L261.98 12.13Q262.07 11.51 262.08 9.60L262.08 9.60L262.08 9.60Q262.08 8.86 262.08 8.44L262.08 8.44L262.08 8.44Q262.08 8.06 262.10 7.26L262.10 7.26L262.10 7.26Q262.12 6.45 262.12 6.01L262.12 6.01L262.12 5.19L262.12 5.19Q262.12 4.27 261.46 3.96L261.46 3.96L261.46 3.96Q261.37 3.92 261.23 3.90L261.23 3.90L261.23 3.90Q261.09 3.88 261.00 3.88L261.00 3.88L261.00 3.88Q260.90 3.88 260.83 3.83L260.83 3.83L260.83 3.83Q260.76 3.78 260.76 3.68ZM275.86 8.69L275.86 8.69L275.86 8.69Q275.86 6.34 277.27 4.84L277.27 4.84L277.27 4.84Q278.68 3.33 281.27 3.33L281.27 3.33L281.27 3.33Q282.48 3.33 283.44 3.68L283.44 3.68L283.44 3.68Q284.41 4.03 284.97 4.54L284.97 4.54L284.97 4.54Q285.53 5.05 285.91 5.71L285.91 5.71L285.91 5.71Q286.29 6.37 286.43 6.92L286.43 6.92L286.43 6.92Q286.57 7.48 286.57 7.95L286.57 7.95L286.57 7.95Q286.57 9.86 285.82 11.16L285.82 11.16L285.82 11.16Q285.08 12.47 283.87 13.07L283.87 13.07L283.87 13.07Q282.66 13.66 281.08 13.66L281.08 13.66L281.08 13.66Q279.41 13.66 278.20 12.94L278.20 12.94L278.20 12.94Q276.99 12.21 276.42 11.10L276.42 11.10L276.42 11.10Q275.86 10.00 275.86 8.69ZM277.09 7.98L277.09 7.98L277.09 7.98Q277.09 8.54 277.24 9.19L277.24 9.19L277.24 9.19Q277.40 9.84 277.75 10.54L277.75 10.54L277.75 10.54Q278.10 11.23 278.59 11.78L278.59 11.78L278.59 11.78Q279.09 12.33 279.85 12.69L279.85 12.69L279.85 12.69Q280.62 13.05 281.53 13.05L281.53 13.05L281.53 13.05Q282.00 13.05 282.53 12.90L282.53 12.90L282.53 12.90Q283.05 12.75 283.57 12.45L283.57 12.45L283.57 12.45Q284.09 12.14 284.49 11.70L284.49 11.70L284.49 11.70Q284.90 11.26 285.16 10.62L285.16 10.62L285.16 10.62Q285.42 9.98 285.42 9.24L285.42 9.24L285.42 9.24Q285.42 6.71 284.09 5.30L284.09 5.30L284.09 5.30Q282.76 3.89 280.80 3.89L280.80 3.89L280.80 3.89Q279.26 3.89 278.17 4.93L278.17 4.93L278.17 4.93Q277.09 5.96 277.09 7.98ZM294.46 3.70L294.46 3.70L294.46 3.70Q294.46 3.47 294.87 3.47L294.87 3.47L297.19 3.47L297.19 3.47Q297.51 3.47 297.93 3.45L297.93 3.45L297.93 3.45Q298.35 3.43 298.59 3.43L298.59 3.43L298.59 3.43Q299.85 3.43 300.75 4.07L300.75 4.07L300.75 4.07Q301.64 4.70 301.64 5.78L301.64 5.78L301.64 5.78Q301.64 6.50 301.37 7.03L301.37 7.03L301.37 7.03Q301.10 7.57 300.77 7.81L300.77 7.81L300.77 7.81Q300.44 8.05 300.17 8.22L300.17 8.22L300.17 8.22Q299.89 8.40 299.89 8.46L299.89 8.46L299.89 8.46Q299.89 8.62 301.07 10.27L301.07 10.27L301.07 10.27Q302.25 11.91 302.68 12.38L302.68 12.38L302.68 12.38Q303.21 13.03 303.97 13.03L303.97 13.03L303.97 13.03Q304.16 13.03 304.16 13.20L304.16 13.20L304.16 13.20Q304.16 13.41 304.00 13.48L304.00 13.48L304.00 13.48Q303.83 13.55 303.13 13.55L303.13 13.55L303.13 13.55Q302.47 13.55 301.92 13.23L301.92 13.23L301.92 13.23Q301.22 12.82 299.56 10.09L299.56 10.09L299.56 10.09Q299.46 9.94 299.42 9.87L299.42 9.87L299.42 9.87Q298.75 8.78 298.38 8.78L298.38 8.78L298.09 8.78L297.23 8.78L297.23 8.78Q297.07 8.78 297.03 8.92L297.03 8.92L297.03 8.92Q297.00 9.06 297.00 9.77L297.00 9.77L297.00 9.77Q297.00 10.44 297.00 10.88L297.00 10.88L297.00 10.88Q297.00 11.31 297.00 11.43L297.00 11.43L297.00 11.43Q297.01 11.55 297.01 11.63L297.01 11.63L297.01 11.63Q297.01 11.70 297.01 11.75L297.01 11.75L297.01 11.75Q297.01 12.32 297.28 12.63L297.28 12.63L297.28 12.63Q297.54 12.95 297.87 13.00L297.87 13.00L297.87 13.00Q298.20 13.05 298.47 13.11L298.47 13.11L298.47 13.11Q298.73 13.17 298.73 13.31L298.73 13.31L298.73 13.31Q298.73 13.54 298.48 13.54L298.48 13.54L298.48 13.54Q298.47 13.54 297.51 13.49L297.51 13.49L297.51 13.49Q296.56 13.44 296.48 13.44L296.48 13.44L296.48 13.44Q296.07 13.44 295.51 13.47L295.51 13.47L295.51 13.47Q294.95 13.50 294.94 13.50L294.94 13.50L294.94 13.50Q294.64 13.50 294.64 13.27L294.64 13.27L294.64 13.27Q294.64 13.12 294.83 13.05L294.83 13.05L294.83 13.05Q295.01 12.99 295.23 12.96L295.23 12.96L295.23 12.96Q295.46 12.94 295.64 12.66L295.64 12.66L295.64 12.66Q295.82 12.38 295.82 11.86L295.82 11.86L295.82 11.86Q295.82 11.49 295.83 9.90L295.83 9.90L295.83 9.90Q295.83 8.30 295.83 7.45L295.83 7.45L295.83 7.45Q295.83 6.58 295.83 5.86L295.83 5.86L295.83 5.86Q295.82 5.14 295.82 5.08L295.82 5.08L295.82 5.08Q295.82 4.56 295.61 4.29L295.61 4.29L295.61 4.29Q295.40 4.02 295.14 3.98L295.14 3.98L295.14 3.98Q294.88 3.95 294.67 3.89L294.67 3.89L294.67 3.89Q294.46 3.84 294.46 3.70ZM297.00 5.54L297.00 5.94L297.00 5.94Q297.00 7.38 297.01 7.72L297.01 7.72L297.01 7.72Q297.02 8.06 297.11 8.12L297.11 8.12L297.11 8.12Q297.32 8.25 297.71 8.25L297.71 8.25L297.85 8.25L298.26 8.25L298.26 8.25Q299.45 8.25 299.96 7.70L299.96 7.70L299.96 7.70Q300.47 7.15 300.47 6.30L300.47 6.30L300.47 6.30Q300.47 5.43 299.79 4.72L299.79 4.72L299.79 4.72Q299.11 4.00 297.74 4.00L297.74 4.00L297.74 4.00Q297.22 4.00 297.11 4.28L297.11 4.28L297.11 4.28Q297.00 4.55 297.00 5.54L297.00 5.54ZM321.50 3.71L321.50 3.71L321.50 3.71Q321.50 3.46 321.87 3.46L321.87 3.46L321.87 3.46Q321.93 3.46 322.06 3.47L322.06 3.47L322.06 3.47Q322.18 3.49 322.25 3.49L322.25 3.49L322.25 3.49Q322.39 3.49 322.78 3.51L322.78 3.51L322.78 3.51Q323.16 3.54 323.47 3.54L323.47 3.54L323.47 3.54Q323.90 3.54 324.39 3.51L324.39 3.51L324.39 3.51Q324.88 3.49 324.94 3.49L324.94 3.49L324.94 3.49Q325.18 3.49 325.18 3.63L325.18 3.63L325.18 3.63Q325.18 3.82 325.01 3.88L325.01 3.88L325.01 3.88Q324.84 3.95 324.64 3.97L324.64 3.97L324.64 3.97Q324.44 3.99 324.25 4.28L324.25 4.28L324.25 4.28Q324.06 4.56 324.03 5.14L324.03 5.14L324.03 5.14Q324.00 5.68 323.96 8.19L323.96 8.19L323.96 8.19Q323.92 10.70 323.92 10.99L323.92 10.99L323.92 11.55L323.92 11.55Q323.92 12.56 324.25 12.66L324.25 12.66L324.25 12.66Q324.60 12.77 324.86 12.77L324.86 12.77L324.86 12.77Q325.91 12.77 326.70 12.67L326.70 12.67L326.70 12.67Q327.49 12.57 327.89 12.42L327.89 12.42L327.89 12.42Q328.29 12.28 328.55 12.10L328.55 12.10L328.55 12.10Q328.82 11.93 328.90 11.78L328.90 11.78L328.90 11.78Q328.97 11.63 329.05 11.54L329.05 11.54L329.05 11.54Q329.13 11.44 329.21 11.44L329.21 11.44L329.21 11.44Q329.38 11.44 329.38 11.68L329.38 11.68L329.38 11.68Q329.38 12.28 328.78 12.89L328.78 12.89L328.78 12.89Q328.17 13.51 327.73 13.51L327.73 13.51L327.73 13.51Q326.72 13.51 325.45 13.44L325.45 13.44L325.45 13.44Q324.18 13.37 323.88 13.37L323.88 13.37L323.88 13.37Q323.48 13.37 322.97 13.43L322.97 13.43L322.97 13.43Q322.46 13.48 322.13 13.48L322.13 13.48L322.13 13.48Q321.72 13.48 321.72 13.31L321.72 13.31L321.72 13.31Q321.72 13.22 321.80 13.15L321.80 13.15L321.80 13.15Q321.87 13.09 321.94 13.09L321.94 13.09L321.94 13.09Q322.15 13.09 322.35 12.95L322.35 12.95L322.35 12.95Q322.60 12.75 322.71 12.23L322.71 12.23L322.71 12.23Q322.83 11.70 322.83 10.21L322.83 10.21L322.83 8.47L322.83 8.47Q322.83 8.09 322.85 7.29L322.85 7.29L322.85 7.29Q322.87 6.50 322.87 6.05L322.87 6.05L322.87 6.05Q322.87 5.67 322.84 4.77L322.84 4.77L322.84 4.77Q322.83 4.37 322.49 4.14L322.49 4.14L322.49 4.14Q322.15 3.92 321.71 3.91L321.71 3.91L321.71 3.91Q321.57 3.91 321.53 3.86L321.53 3.86L321.53 3.86Q321.50 3.81 321.50 3.71ZM337.27 8.69L337.27 8.69L337.27 8.69Q337.27 6.34 338.69 4.84L338.69 4.84L338.69 4.84Q340.10 3.33 342.69 3.33L342.69 3.33L342.69 3.33Q343.90 3.33 344.86 3.68L344.86 3.68L344.86 3.68Q345.83 4.03 346.39 4.54L346.39 4.54L346.39 4.54Q346.95 5.05 347.33 5.71L347.33 5.71L347.33 5.71Q347.70 6.37 347.84 6.92L347.84 6.92L347.84 6.92Q347.98 7.48 347.98 7.95L347.98 7.95L347.98 7.95Q347.98 9.86 347.24 11.16L347.24 11.16L347.24 11.16Q346.50 12.47 345.29 13.07L345.29 13.07L345.29 13.07Q344.08 13.66 342.50 13.66L342.50 13.66L342.50 13.66Q340.83 13.66 339.62 12.94L339.62 12.94L339.62 12.94Q338.41 12.21 337.84 11.10L337.84 11.10L337.84 11.10Q337.27 10.00 337.27 8.69ZM338.51 7.98L338.51 7.98L338.51 7.98Q338.51 8.54 338.66 9.19L338.66 9.19L338.66 9.19Q338.81 9.84 339.16 10.54L339.16 10.54L339.16 10.54Q339.51 11.23 340.01 11.78L340.01 11.78L340.01 11.78Q340.51 12.33 341.27 12.69L341.27 12.69L341.27 12.69Q342.03 13.05 342.94 13.05L342.94 13.05L342.94 13.05Q343.42 13.05 343.95 12.90L343.95 12.90L343.95 12.90Q344.47 12.75 344.99 12.45L344.99 12.45L344.99 12.45Q345.51 12.14 345.91 11.70L345.91 11.70L345.91 11.70Q346.32 11.26 346.58 10.62L346.58 10.62L346.58 10.62Q346.84 9.98 346.84 9.24L346.84 9.24L346.84 9.24Q346.84 6.71 345.51 5.30L345.51 5.30L345.51 5.30Q344.18 3.89 342.22 3.89L342.22 3.89L342.22 3.89Q340.68 3.89 339.59 4.93L339.59 4.93L339.59 4.93Q338.51 5.96 338.51 7.98ZM356.22 8.90L356.22 8.90L356.22 8.90Q356.22 7.38 356.80 6.16L356.80 6.16L356.80 6.16Q357.39 4.94 358.62 4.19L358.62 4.19L358.62 4.19Q359.84 3.44 361.52 3.44L361.52 3.44L361.52 3.44Q362.38 3.44 363.24 3.70L363.24 3.70L363.24 3.70Q364.11 3.95 364.63 4.20L364.63 4.20L365.15 4.47L365.15 4.47Q365.19 4.47 365.29 4.40L365.29 4.40L365.29 4.40Q365.39 4.33 365.44 4.33L365.44 4.33L365.44 4.33Q365.51 4.33 365.58 4.38L365.58 4.38L365.58 4.38Q365.65 4.44 365.65 4.55L365.65 4.55L365.65 4.55Q365.67 4.96 365.72 5.41L365.72 5.41L365.72 5.41Q365.76 5.87 365.81 6.16L365.81 6.16L365.81 6.16Q365.85 6.45 365.85 6.51L365.85 6.51L365.85 6.51Q365.85 6.76 365.68 6.76L365.68 6.76L365.68 6.76Q365.55 6.76 365.44 6.57L365.44 6.57L365.44 6.57Q364.08 4.02 361.52 4.02L361.52 4.02L361.52 4.02Q359.77 4.02 358.65 5.14L358.65 5.14L358.65 5.14Q357.53 6.26 357.53 8.06L357.53 8.06L357.53 8.06Q357.53 9.06 357.79 9.93L357.79 9.93L357.79 9.93Q358.05 10.79 358.58 11.51L358.58 11.51L358.58 11.51Q359.10 12.24 360.02 12.66L360.02 12.66L360.02 12.66Q360.95 13.08 362.18 13.08L362.18 13.08L362.18 13.08Q364.20 13.08 365.57 10.98L365.57 10.98L365.57 10.98Q365.62 10.88 365.78 10.88L365.78 10.88L365.78 10.88Q365.90 10.88 365.90 11.07L365.90 11.07L365.90 11.07Q365.90 11.23 365.86 11.49L365.86 11.49L365.86 11.49Q365.81 11.75 365.74 12.06L365.74 12.06L365.74 12.06Q365.67 12.38 365.65 12.45L365.65 12.45L365.65 12.45Q365.62 12.60 365.43 12.70L365.43 12.70L365.43 12.70Q364.67 13.06 364.25 13.24L364.25 13.24L364.25 13.24Q363.82 13.43 363.16 13.57L363.16 13.57L363.16 13.57Q362.50 13.72 361.82 13.72L361.82 13.72L361.82 13.72Q360.60 13.72 359.62 13.43L359.62 13.43L359.62 13.43Q358.64 13.13 358.02 12.66L358.02 12.66L358.02 12.66Q357.39 12.18 356.97 11.54L356.97 11.54L356.97 11.54Q356.55 10.91 356.38 10.25L356.38 10.25L356.38 10.25Q356.22 9.60 356.22 8.90ZM373.56 13.33L373.56 13.33L373.56 13.33Q373.56 13.13 373.77 13.06L373.77 13.06L373.77 13.06Q374.22 12.89 374.56 12.31L374.56 12.31L374.56 12.31Q374.89 11.73 376.22 8.83L376.22 8.83L376.22 8.83Q377.59 5.87 378.64 3.63L378.64 3.63L378.64 3.63Q378.74 3.42 378.82 3.36L378.82 3.36L378.82 3.36Q378.90 3.30 379.06 3.30L379.06 3.30L379.06 3.30Q379.19 3.30 379.23 3.36L379.23 3.36L379.23 3.36Q379.27 3.42 379.41 3.82L379.41 3.82L379.41 3.82Q379.50 4.06 379.56 4.23L379.56 4.23L379.56 4.23Q379.62 4.40 379.76 4.77L379.76 4.77L379.76 4.77Q379.90 5.15 380.07 5.56L380.07 5.56L380.07 5.56Q380.52 6.66 381.62 9.22L381.62 9.22L381.62 9.22Q382.72 11.77 382.82 11.98L382.82 11.98L382.82 11.98Q383.05 12.46 383.35 12.71L383.35 12.71L383.35 12.71Q383.64 12.95 383.86 12.97L383.86 12.97L383.86 12.97Q384.08 12.99 384.22 13.04L384.22 13.04L384.22 13.04Q384.37 13.09 384.37 13.26L384.37 13.26L384.37 13.26Q384.37 13.47 383.99 13.47L383.99 13.47L383.99 13.47Q383.84 13.47 383.39 13.43L383.39 13.43L383.39 13.43Q382.94 13.38 382.73 13.38L382.73 13.38L382.73 13.38Q382.47 13.38 382.05 13.41L382.05 13.41L382.05 13.41Q381.63 13.44 381.43 13.44L381.43 13.44L381.43 13.44Q381.00 13.44 380.88 13.40L380.88 13.40L380.88 13.40Q380.76 13.37 380.76 13.24L380.76 13.24L380.76 13.24Q380.76 13.15 380.87 13.08L380.87 13.08L380.87 13.08Q380.98 13.02 381.11 13.00L381.11 13.00L381.11 13.00Q381.23 12.98 381.35 12.87L381.35 12.87L381.35 12.87Q381.46 12.77 381.46 12.59L381.46 12.59L381.46 12.59Q381.46 12.28 381.11 11.33L381.11 11.33L381.11 11.33Q380.76 10.37 380.52 9.93L380.52 9.93L380.52 9.93Q380.39 9.69 379.95 9.69L379.95 9.69L379.95 9.69Q379.88 9.69 379.33 9.70L379.33 9.70L379.33 9.70Q378.78 9.72 378.25 9.72L378.25 9.72L377.51 9.72L377.51 9.72Q376.88 9.72 376.72 9.79L376.72 9.79L376.72 9.79Q376.56 9.86 376.43 10.12L376.43 10.12L376.43 10.12Q376.35 10.30 376.15 10.70L376.15 10.70L376.15 10.70Q375.96 11.10 375.89 11.26L375.89 11.26L375.89 11.26Q375.82 11.41 375.71 11.65L375.71 11.65L375.71 11.65Q375.61 11.90 375.57 12.05L375.57 12.05L375.57 12.05Q375.54 12.19 375.54 12.31L375.54 12.31L375.54 12.31Q375.54 12.63 375.70 12.80L375.70 12.80L375.70 12.80Q375.86 12.96 376.05 12.98L376.05 12.98L376.05 12.98Q376.25 13.01 376.41 13.06L376.41 13.06L376.41 13.06Q376.57 13.12 376.57 13.26L376.57 13.26L376.57 13.26Q376.57 13.36 376.53 13.40L376.53 13.40L376.53 13.40Q376.49 13.45 376.33 13.45L376.33 13.45L376.33 13.45Q376.25 13.45 375.85 13.45L375.85 13.45L375.85 13.45Q375.45 13.44 375.17 13.44L375.17 13.44L375.17 13.44Q374.86 13.44 374.48 13.47L374.48 13.47L374.48 13.47Q374.09 13.50 373.97 13.50L373.97 13.50L373.97 13.50Q373.56 13.50 373.56 13.33ZM377.08 8.71L377.08 8.71L377.08 8.71Q377.08 8.89 377.20 8.93L377.20 8.93L377.20 8.93Q377.33 8.97 377.79 8.97L377.79 8.97L378.22 8.97L379.55 8.96L379.55 8.96Q380.10 8.96 380.10 8.74L380.10 8.74L380.10 8.74Q380.10 8.55 379.41 7.01L379.41 7.01L379.41 7.01Q378.73 5.46 378.55 5.46L378.55 5.46L378.55 5.46Q378.42 5.46 377.75 7.01L377.75 7.01L377.75 7.01Q377.08 8.55 377.08 8.71ZM391.93 3.71L391.93 3.71L391.93 3.71Q391.93 3.46 392.31 3.46L392.31 3.46L392.31 3.46Q392.36 3.46 392.49 3.47L392.49 3.47L392.49 3.47Q392.62 3.49 392.69 3.49L392.69 3.49L392.69 3.49Q392.83 3.49 393.21 3.51L393.21 3.51L393.21 3.51Q393.60 3.54 393.90 3.54L393.90 3.54L393.90 3.54Q394.34 3.54 394.83 3.51L394.83 3.51L394.83 3.51Q395.32 3.49 395.37 3.49L395.37 3.49L395.37 3.49Q395.61 3.49 395.61 3.63L395.61 3.63L395.61 3.63Q395.61 3.82 395.44 3.88L395.44 3.88L395.44 3.88Q395.28 3.95 395.07 3.97L395.07 3.97L395.07 3.97Q394.87 3.99 394.68 4.28L394.68 4.28L394.68 4.28Q394.49 4.56 394.46 5.14L394.46 5.14L394.46 5.14Q394.44 5.68 394.39 8.19L394.39 8.19L394.39 8.19Q394.35 10.70 394.35 10.99L394.35 10.99L394.35 11.55L394.35 11.55Q394.35 12.56 394.69 12.66L394.69 12.66L394.69 12.66Q395.04 12.77 395.29 12.77L395.29 12.77L395.29 12.77Q396.34 12.77 397.13 12.67L397.13 12.67L397.13 12.67Q397.92 12.57 398.32 12.42L398.32 12.42L398.32 12.42Q398.72 12.28 398.99 12.10L398.99 12.10L398.99 12.10Q399.25 11.93 399.33 11.78L399.33 11.78L399.33 11.78Q399.41 11.63 399.48 11.54L399.48 11.54L399.48 11.54Q399.56 11.44 399.64 11.44L399.64 11.44L399.64 11.44Q399.81 11.44 399.81 11.68L399.81 11.68L399.81 11.68Q399.81 12.28 399.21 12.89L399.21 12.89L399.21 12.89Q398.61 13.51 398.16 13.51L398.16 13.51L398.16 13.51Q397.15 13.51 395.89 13.44L395.89 13.44L395.89 13.44Q394.62 13.37 394.31 13.37L394.31 13.37L394.31 13.37Q393.92 13.37 393.41 13.43L393.41 13.43L393.41 13.43Q392.90 13.48 392.56 13.48L392.56 13.48L392.56 13.48Q392.15 13.48 392.15 13.31L392.15 13.31L392.15 13.31Q392.15 13.22 392.23 13.15L392.23 13.15L392.23 13.15Q392.31 13.09 392.38 13.09L392.38 13.09L392.38 13.09Q392.59 13.09 392.78 12.95L392.78 12.95L392.78 12.95Q393.04 12.75 393.15 12.23L393.15 12.23L393.15 12.23Q393.26 11.70 393.26 10.21L393.26 10.21L393.26 8.47L393.26 8.47Q393.26 8.09 393.28 7.29L393.28 7.29L393.28 7.29Q393.30 6.50 393.30 6.05L393.30 6.05L393.30 6.05Q393.30 5.67 393.27 4.77L393.27 4.77L393.27 4.77Q393.26 4.37 392.92 4.14L392.92 4.14L392.92 4.14Q392.59 3.92 392.14 3.91L392.14 3.91L392.14 3.91Q392.00 3.91 391.97 3.86L391.97 3.86L391.97 3.86Q391.93 3.81 391.93 3.71ZM417.35 3.72L417.35 3.72L417.35 3.72Q417.35 3.51 417.48 3.51L417.48 3.51L417.48 3.51Q417.52 3.51 417.66 3.52L417.66 3.52L417.66 3.52Q417.80 3.53 418.04 3.53L418.04 3.53L418.04 3.53Q418.32 3.53 419.15 3.52L419.15 3.52L419.15 3.52Q419.99 3.51 420.08 3.51L420.08 3.51L420.08 3.51Q420.41 3.51 420.90 3.49L420.90 3.49L420.90 3.49Q421.39 3.47 421.62 3.47L421.62 3.47L421.62 3.47Q422.90 3.47 423.75 4.08L423.75 4.08L423.75 4.08Q424.61 4.69 424.61 5.81L424.61 5.81L424.61 5.81Q424.61 6.22 424.46 6.57L424.46 6.57L424.46 6.57Q424.31 6.93 424.11 7.15L424.11 7.15L424.11 7.15Q423.91 7.38 423.70 7.54L423.70 7.54L423.70 7.54Q423.50 7.70 423.35 7.79L423.35 7.79L423.35 7.79Q423.21 7.88 423.21 7.90L423.21 7.90L423.21 7.90Q423.21 7.94 423.44 8.00L423.44 8.00L423.44 8.00Q423.68 8.06 424.02 8.21L424.02 8.21L424.02 8.21Q424.35 8.36 424.68 8.61L424.68 8.61L424.68 8.61Q425.01 8.86 425.25 9.36L425.25 9.36L425.25 9.36Q425.49 9.86 425.49 10.53L425.49 10.53L425.49 10.53Q425.49 11.13 425.14 11.82L425.14 11.82L425.14 11.82Q424.79 12.50 424.31 12.82L424.31 12.82L424.31 12.82Q423.70 13.26 423.16 13.40L423.16 13.40L423.16 13.40Q422.63 13.55 421.88 13.55L421.88 13.55L421.88 13.55Q421.32 13.55 420.39 13.47L420.39 13.47L420.39 13.47Q419.47 13.40 419.37 13.40L419.37 13.40L419.37 13.40Q419.22 13.40 418.82 13.43L418.82 13.43L418.82 13.43Q418.42 13.45 418.17 13.45L418.17 13.45L417.97 13.45L417.97 13.45Q417.68 13.45 417.68 13.24L417.68 13.24L417.68 13.24Q417.68 13.05 417.83 13.05L417.83 13.05L417.83 13.05Q417.91 13.05 418.01 13.04L418.01 13.04L418.01 13.04Q418.11 13.03 418.15 13.03L418.15 13.03L418.15 13.03Q418.28 13.03 418.40 12.94L418.40 12.94L418.40 12.94Q418.52 12.85 418.64 12.54L418.64 12.54L418.64 12.54Q418.77 12.22 418.78 11.73L418.78 11.73L418.78 11.73Q418.82 10.82 418.82 7.36L418.82 7.36L418.82 4.98L418.82 4.98Q418.82 4.89 418.79 4.75L418.79 4.75L418.79 4.75Q418.75 4.62 418.65 4.40L418.65 4.40L418.65 4.40Q418.54 4.19 418.27 4.04L418.27 4.04L418.27 4.04Q418.00 3.89 417.59 3.89L417.59 3.89L417.59 3.89Q417.35 3.89 417.35 3.72ZM419.89 12.15L419.89 12.15L419.89 12.15Q419.89 12.99 421.26 12.99L421.26 12.99L421.58 12.99L421.58 12.99Q422.34 12.99 422.79 12.92L422.79 12.92L422.79 12.92Q423.44 12.81 423.87 12.24L423.87 12.24L423.87 12.24Q424.30 11.66 424.30 10.86L424.30 10.86L424.30 10.86Q424.30 10.18 424.05 9.68L424.05 9.68L424.05 9.68Q423.79 9.18 423.47 8.93L423.47 8.93L423.47 8.93Q423.15 8.68 422.71 8.54L422.71 8.54L422.71 8.54Q422.27 8.40 422.02 8.37L422.02 8.37L422.02 8.37Q421.78 8.34 421.55 8.34L421.55 8.34L421.55 8.34Q421.11 8.34 420.82 8.34L420.82 8.34L420.82 8.34Q420.53 8.33 420.46 8.33L420.46 8.33L420.46 8.33Q420.38 8.33 420.33 8.32L420.33 8.32L420.33 8.32Q420.28 8.32 420.25 8.32L420.25 8.32L420.25 8.32Q420.13 8.32 420.07 8.35L420.07 8.35L420.07 8.35Q420.01 8.39 419.97 8.62L419.97 8.62L419.97 8.62Q419.92 8.85 419.91 9.28L419.91 9.28L419.91 9.28Q419.90 9.72 419.90 10.58L419.90 10.58L419.90 10.70L419.90 10.70Q419.90 11.21 419.90 11.54L419.90 11.54L419.90 11.54Q419.90 11.86 419.90 11.99L419.90 11.99L419.90 11.99Q419.89 12.12 419.89 12.15ZM419.97 5.40L419.97 5.81L419.97 5.81Q419.97 6.51 419.98 6.90L419.98 6.90L419.98 6.90Q419.99 7.29 420.01 7.50L420.01 7.50L420.01 7.50Q420.04 7.71 420.07 7.77L420.07 7.77L420.07 7.77Q420.10 7.83 420.15 7.83L420.15 7.83L420.15 7.83Q420.55 7.87 420.87 7.87L420.87 7.87L421.76 7.87L421.76 7.87Q422.65 7.87 423.09 7.41L423.09 7.41L423.09 7.41Q423.53 6.94 423.53 6.22L423.53 6.22L423.53 6.22Q423.53 5.43 422.79 4.70L422.79 4.70L422.79 4.70Q422.06 3.96 420.70 3.96L420.70 3.96L420.70 3.96Q420.27 3.96 420.12 4.22L420.12 4.22L420.12 4.22Q419.97 4.48 419.97 5.40L419.97 5.40ZM433.17 3.68L433.17 3.68L433.17 3.68Q433.17 3.61 433.19 3.58L433.19 3.58L433.19 3.58Q433.20 3.56 433.27 3.53L433.27 3.53L433.27 3.53Q433.34 3.50 433.50 3.50L433.50 3.50L433.50 3.50Q433.65 3.50 434.14 3.53L434.14 3.53L434.14 3.53Q434.63 3.56 435.08 3.56L435.08 3.56L435.08 3.56Q435.36 3.56 435.59 3.54L435.59 3.54L435.59 3.54Q435.82 3.53 436.39 3.53L436.39 3.53L436.39 3.53Q436.69 3.53 436.69 3.72L436.69 3.72L436.69 3.72Q436.69 3.85 436.59 3.88L436.59 3.88L436.59 3.88Q436.49 3.91 436.35 3.92L436.35 3.92L436.35 3.92Q436.20 3.93 436.05 4.02L436.05 4.02L436.05 4.02Q435.90 4.10 435.81 4.43L435.81 4.43L435.81 4.43Q435.71 4.76 435.71 5.32L435.71 5.32L435.71 5.71L435.71 5.71Q435.71 6.37 435.70 7.37L435.70 7.37L435.70 7.37Q435.69 8.37 435.69 8.74L435.69 8.74L435.69 8.74Q435.69 9.17 435.70 9.39L435.70 9.39L435.70 9.39Q435.71 9.62 435.74 10.04L435.74 10.04L435.74 10.04Q435.76 10.47 435.81 10.72L435.81 10.72L435.81 10.72Q435.86 10.96 435.97 11.32L435.97 11.32L435.97 11.32Q436.09 11.68 436.25 11.89L436.25 11.89L436.25 11.89Q436.41 12.10 436.65 12.35L436.65 12.35L436.65 12.35Q436.90 12.60 437.22 12.73L437.22 12.73L437.22 12.73Q437.54 12.87 437.98 12.96L437.98 12.96L437.98 12.96Q438.41 13.05 438.94 13.05L438.94 13.05L438.94 13.05Q439.39 13.05 439.64 13.03L439.64 13.03L439.64 13.03Q439.89 13.02 440.34 12.94L440.34 12.94L440.34 12.94Q440.78 12.87 441.04 12.72L441.04 12.72L441.04 12.72Q441.29 12.57 441.62 12.27L441.62 12.27L441.62 12.27Q441.95 11.97 442.13 11.54L442.13 11.54L442.13 11.54Q442.32 11.10 442.44 10.43L442.44 10.43L442.44 10.43Q442.57 9.76 442.57 8.90L442.57 8.90L442.57 8.90Q442.57 7.49 442.56 6.75L442.56 6.75L442.56 6.75Q442.55 6.01 442.55 5.94L442.55 5.94L442.55 5.94Q442.55 5.45 442.53 5.17L442.53 5.17L442.53 5.17Q442.51 4.89 442.39 4.55L442.39 4.55L442.39 4.55Q442.27 4.21 442.05 4.06L442.05 4.06L442.05 4.06Q441.91 3.96 441.69 3.93L441.69 3.93L441.69 3.93Q441.46 3.89 441.32 3.87L441.32 3.87L441.32 3.87Q441.18 3.85 441.18 3.75L441.18 3.75L441.18 3.75Q441.18 3.53 441.46 3.53L441.46 3.53L441.46 3.53Q441.55 3.53 442.01 3.54L442.01 3.54L442.01 3.54Q442.47 3.56 442.54 3.56L442.54 3.56L442.54 3.56Q442.88 3.56 443.25 3.54L443.25 3.54L443.25 3.54Q443.63 3.51 443.73 3.51L443.73 3.51L443.73 3.51Q444.02 3.51 444.02 3.70L444.02 3.70L444.02 3.70Q444.02 3.81 443.72 3.98L443.72 3.98L443.72 3.98Q443.42 4.16 443.35 4.30L443.35 4.30L443.35 4.30Q443.20 4.59 443.20 5.22L443.20 5.22L443.20 5.22Q443.20 5.32 443.21 5.62L443.21 5.62L443.21 5.62Q443.21 5.92 443.21 6.16L443.21 6.16L443.21 6.16Q443.21 8.85 442.99 10.28L442.99 10.28L442.99 10.28Q442.76 11.70 442.31 12.36L442.31 12.36L442.31 12.36Q441.85 13.01 440.94 13.40L440.94 13.40L440.94 13.40Q440.20 13.71 438.94 13.71L438.94 13.71L438.94 13.71Q436.60 13.71 435.62 12.81L435.62 12.81L435.62 12.81Q434.85 12.10 434.67 11.09L434.67 11.09L434.67 11.09Q434.49 10.09 434.49 7.64L434.49 7.64L434.49 7.41L434.49 7.41Q434.49 6.86 434.50 6.20L434.50 6.20L434.50 6.20Q434.52 5.54 434.52 5.39L434.52 5.39L434.52 5.39Q434.52 4.62 434.34 4.33L434.34 4.33L434.34 4.33Q434.15 4.05 433.48 3.95L433.48 3.95L433.48 3.95Q433.17 3.91 433.17 3.68ZM452.13 10.82L452.13 10.82L452.13 10.82Q452.13 10.53 452.33 10.53L452.33 10.53L452.33 10.53Q452.51 10.53 452.55 10.67L452.55 10.67L452.55 10.67Q452.69 11.00 452.81 11.25L452.81 11.25L452.81 11.25Q452.93 11.49 453.19 11.85L453.19 11.85L453.19 11.85Q453.46 12.21 453.77 12.44L453.77 12.44L453.77 12.44Q454.08 12.67 454.56 12.84L454.56 12.84L454.56 12.84Q455.04 13.01 455.62 13.01L455.62 13.01L455.62 13.01Q456.67 13.01 457.30 12.45L457.30 12.45L457.30 12.45Q457.94 11.90 457.94 11.00L457.94 11.00L457.94 11.00Q457.94 10.35 457.51 9.90L457.51 9.90L457.51 9.90Q457.07 9.46 456.51 9.27L456.51 9.27L456.51 9.27Q455.95 9.09 455.09 8.77L455.09 8.77L455.09 8.77Q454.23 8.46 453.68 8.13L453.68 8.13L453.68 8.13Q452.41 7.38 452.41 6.08L452.41 6.08L452.41 6.08Q452.41 4.83 453.31 4.08L453.31 4.08L453.31 4.08Q454.22 3.33 455.66 3.33L455.66 3.33L455.66 3.33Q456.19 3.33 456.93 3.56L456.93 3.56L456.93 3.56Q457.66 3.79 457.67 3.79L457.67 3.79L457.67 3.79Q457.72 3.79 457.83 3.74L457.83 3.74L457.83 3.74Q457.94 3.68 458.00 3.68L458.00 3.68L458.00 3.68Q458.18 3.68 458.21 3.79L458.21 3.79L458.21 3.79Q458.50 5.49 458.50 5.70L458.50 5.70L458.50 5.70Q458.50 6.09 458.30 6.09L458.30 6.09L458.30 6.09Q458.18 6.09 458.11 5.89L458.11 5.89L458.11 5.89Q457.94 5.49 457.78 5.24L457.78 5.24L457.78 5.24Q457.62 4.98 457.55 4.91L457.55 4.91L457.55 4.91Q457.48 4.84 457.18 4.58L457.18 4.58L457.18 4.58Q456.43 3.91 455.35 3.91L455.35 3.91L455.35 3.91Q454.48 3.91 453.89 4.33L453.89 4.33L453.89 4.33Q453.31 4.75 453.31 5.46L453.31 5.46L453.31 5.46Q453.31 6.09 453.65 6.50L453.65 6.50L453.65 6.50Q453.99 6.90 454.57 7.13L454.57 7.13L454.57 7.13Q455.14 7.35 455.77 7.55L455.77 7.55L455.77 7.55Q456.40 7.74 457.11 8.09L457.11 8.09L457.11 8.09Q457.81 8.44 458.28 8.93L458.28 8.93L458.28 8.93Q458.84 9.53 458.84 10.43L458.84 10.43L458.84 10.43Q458.84 11.90 457.90 12.76L457.90 12.76L457.90 12.76Q456.96 13.62 455.57 13.62L455.57 13.62L455.57 13.62Q454.61 13.62 454.02 13.52L454.02 13.52L454.02 13.52Q453.43 13.41 452.82 13.09L452.82 13.09L452.82 13.09Q452.63 12.98 452.38 12.00L452.38 12.00L452.38 12.00Q452.13 11.02 452.13 10.82ZM466.93 3.71L466.93 3.71L466.93 3.71Q466.93 3.50 467.32 3.50L467.32 3.50L467.32 3.50Q467.46 3.50 467.96 3.53L467.96 3.53L467.96 3.53Q468.47 3.56 468.90 3.56L468.90 3.56L468.90 3.56Q469.17 3.56 469.41 3.54L469.41 3.54L469.41 3.54Q469.66 3.53 470.13 3.53L470.13 3.53L470.13 3.53Q470.51 3.53 470.51 3.72L470.51 3.72L470.51 3.72Q470.51 3.84 469.87 4.10L469.87 4.10L469.87 4.10Q469.42 4.28 469.42 5.71L469.42 5.71L469.42 5.71Q469.42 7.60 469.40 9.05L469.40 9.05L469.40 9.05Q469.38 10.50 469.38 10.89L469.38 10.89L469.38 10.89Q469.38 12.07 469.73 12.59L469.73 12.59L469.73 12.59Q470.04 13.02 470.40 13.02L470.40 13.02L470.40 13.02Q470.43 13.02 470.54 13.03L470.54 13.03L470.54 13.03Q470.65 13.03 470.68 13.03L470.68 13.03L470.68 13.03Q470.78 13.03 470.88 13.08L470.88 13.08L470.88 13.08Q470.97 13.13 470.97 13.19L470.97 13.19L470.97 13.19Q470.97 13.34 470.90 13.39L470.90 13.39L470.90 13.39Q470.82 13.44 470.62 13.44L470.62 13.44L470.62 13.44Q470.20 13.44 469.85 13.41L469.85 13.41L469.85 13.41Q469.49 13.38 469.29 13.38L469.29 13.38L469.29 13.38Q468.90 13.38 468.44 13.42L468.44 13.42L468.44 13.42Q467.98 13.45 467.75 13.45L467.75 13.45L467.75 13.45Q467.12 13.45 467.12 13.24L467.12 13.24L467.12 13.24Q467.12 13.12 467.26 13.07L467.26 13.07L467.26 13.07Q467.39 13.02 467.56 13.00L467.56 13.00L467.56 13.00Q467.73 12.98 467.91 12.82L467.91 12.82L467.91 12.82Q468.09 12.66 468.16 12.35L468.16 12.35L468.16 12.35Q468.19 12.25 468.25 10.76L468.25 10.76L468.25 10.76Q468.31 9.27 468.31 8.61L468.31 8.61L468.31 7.81L468.31 7.81Q468.31 7.63 468.32 7.12L468.32 7.12L468.32 7.12Q468.33 6.61 468.33 6.30L468.33 6.30L468.33 5.66L468.33 5.66Q468.33 5.04 468.27 4.63L468.27 4.63L468.27 4.63Q468.23 4.30 467.90 4.12L467.90 4.12L467.90 4.12Q467.57 3.93 467.22 3.92L467.22 3.92L467.22 3.92Q466.93 3.91 466.93 3.71ZM478.52 3.77L478.52 3.77L478.52 3.77Q478.52 3.68 478.62 3.60L478.62 3.60L478.62 3.60Q478.72 3.53 478.87 3.53L478.87 3.53L478.87 3.53Q478.95 3.53 479.15 3.54L479.15 3.54L479.15 3.54Q479.35 3.54 479.40 3.54L479.40 3.54L479.40 3.54Q479.61 3.54 479.79 3.53L479.79 3.53L479.79 3.53Q479.98 3.51 480.09 3.51L480.09 3.51L480.09 3.51Q480.21 3.51 480.38 3.59L480.38 3.59L480.38 3.59Q480.55 3.67 480.58 3.75L480.58 3.75L480.58 3.75Q480.61 3.79 480.73 3.94L480.73 3.94L480.73 3.94Q480.86 4.09 481.07 4.33L481.07 4.33L481.07 4.33Q481.28 4.56 481.45 4.79L481.45 4.79L481.45 4.79Q483.35 7.27 486.54 10.77L486.54 10.77L486.54 10.77Q486.63 10.86 486.75 10.99L486.75 10.99L486.75 10.99Q486.86 11.12 486.91 11.18L486.91 11.18L486.91 11.18Q486.96 11.24 487.02 11.30L487.02 11.30L487.02 11.30Q487.07 11.35 487.11 11.38L487.11 11.38L487.11 11.38Q487.14 11.40 487.17 11.40L487.17 11.40L487.17 11.40Q487.31 11.40 487.31 10.53L487.31 10.53L487.31 8.89L487.31 8.89Q487.31 7.95 487.31 7.31L487.31 7.31L487.31 7.31Q487.30 6.66 487.29 6.38L487.29 6.38L487.29 6.38Q487.28 6.09 487.28 6.02L487.28 6.02L487.28 5.92L487.28 5.92Q487.28 5.45 487.22 5.11L487.22 5.11L487.22 5.11Q487.16 4.77 487.07 4.59L487.07 4.59L487.07 4.59Q486.99 4.41 486.83 4.28L486.83 4.28L486.83 4.28Q486.67 4.16 486.56 4.12L486.56 4.12L486.56 4.12Q486.44 4.09 486.23 4.05L486.23 4.05L486.23 4.05Q486.02 4.00 485.94 3.98L485.94 3.98L485.94 3.98Q485.66 3.89 485.66 3.74L485.66 3.74L485.66 3.74Q485.66 3.53 485.93 3.53L485.93 3.53L485.93 3.53Q486.01 3.53 486.60 3.54L486.60 3.54L486.60 3.54Q487.19 3.54 487.26 3.54L487.26 3.54L487.26 3.54Q487.59 3.54 488.01 3.53L488.01 3.53L488.01 3.53Q488.42 3.51 488.52 3.51L488.52 3.51L488.52 3.51Q488.75 3.51 488.85 3.56L488.85 3.56L488.85 3.56Q488.94 3.61 488.94 3.75L488.94 3.75L488.94 3.75Q488.94 3.81 488.86 3.86L488.86 3.86L488.86 3.86Q488.78 3.91 488.70 3.94L488.70 3.94L488.70 3.94Q488.61 3.98 488.53 4.00L488.53 4.00L488.45 4.03L488.45 4.03Q487.98 4.28 487.98 5.61L487.98 5.61L487.98 6.15L487.98 6.15Q487.98 7.21 487.91 9.83L487.91 9.83L487.91 9.83Q487.83 12.46 487.83 13.08L487.83 13.08L487.83 13.36L487.83 13.36Q487.83 13.68 487.63 13.68L487.63 13.68L487.63 13.68Q487.51 13.68 487.41 13.58L487.41 13.58L487.41 13.58Q482.76 8.19 481.86 7.17L481.86 7.17L481.86 7.17Q480.96 6.16 480.86 6.16L480.86 6.16L480.86 6.16Q480.72 6.16 480.72 7.11L480.72 7.11L480.72 7.11Q480.72 8.44 480.66 9.97L480.66 9.97L480.66 9.97Q480.61 11.51 480.61 11.65L480.61 11.65L480.61 11.65Q480.61 12.28 480.82 12.61L480.82 12.61L480.82 12.61Q481.04 12.94 481.29 12.98L481.29 12.98L481.29 12.98Q481.54 13.02 481.76 13.07L481.76 13.07L481.76 13.07Q481.98 13.12 481.98 13.26L481.98 13.26L481.98 13.26Q481.98 13.41 481.93 13.45L481.93 13.45L481.93 13.45Q481.88 13.50 481.75 13.50L481.75 13.50L481.75 13.50Q481.66 13.50 481.31 13.48L481.31 13.48L481.31 13.48Q480.97 13.47 480.26 13.47L480.26 13.47L480.26 13.47Q480.13 13.47 479.74 13.48L479.74 13.48L479.74 13.48Q479.35 13.50 479.07 13.50L479.07 13.50L479.07 13.50Q478.76 13.50 478.76 13.27L478.76 13.27L478.76 13.27Q478.76 13.15 478.94 13.11L478.94 13.11L478.94 13.11Q479.12 13.08 479.39 12.89L479.39 12.89L479.39 12.89Q479.65 12.71 479.79 12.21L479.79 12.21L479.79 12.21Q479.88 11.89 480.00 9.60L480.00 9.60L480.00 9.60Q480.13 7.32 480.13 6.45L480.13 6.45L480.13 6.45Q480.13 5.25 479.79 4.65L479.79 4.65L479.79 4.65Q479.46 4.06 478.70 3.98L478.70 3.98L478.70 3.98Q478.52 3.96 478.52 3.77ZM496.69 3.65L496.69 3.65L496.69 3.65Q496.69 3.46 497.08 3.46L497.08 3.46L497.08 3.46Q497.14 3.46 497.27 3.47L497.27 3.47L497.27 3.47Q497.39 3.49 497.46 3.49L497.46 3.49L497.46 3.49Q497.50 3.49 498.78 3.52L498.78 3.52L498.78 3.52Q500.05 3.56 500.88 3.56L500.88 3.56L500.88 3.56Q501.17 3.56 502.33 3.53L502.33 3.53L502.33 3.53Q503.48 3.50 503.68 3.50L503.68 3.50L503.68 3.50Q503.94 3.50 503.94 3.82L503.94 3.82L503.94 3.82Q503.94 3.91 503.86 4.38L503.86 4.38L503.86 4.38Q503.78 4.84 503.78 5.25L503.78 5.25L503.78 5.25Q503.78 5.38 503.71 5.47L503.71 5.47L503.71 5.47Q503.64 5.56 503.55 5.56L503.55 5.56L503.55 5.56Q503.34 5.56 503.34 5.26L503.34 5.26L503.34 5.26Q503.34 4.89 503.10 4.58L503.10 4.58L503.10 4.58Q502.87 4.27 502.52 4.26L502.52 4.26L502.52 4.26Q501.26 4.16 500.58 4.16L500.58 4.16L500.22 4.16L500.22 4.16Q499.49 4.16 499.37 4.26L499.37 4.26L499.37 4.26Q499.25 4.37 499.23 5.01L499.23 5.01L499.23 5.01Q499.17 6.02 499.17 7.35L499.17 7.35L499.17 7.35Q499.17 8.05 499.44 8.06L499.44 8.06L499.79 8.06L500.37 8.06L500.81 8.06L500.81 8.06Q501.65 8.06 501.93 8.01L501.93 8.01L501.93 8.01Q502.21 7.95 502.43 7.80L502.43 7.80L502.43 7.80Q502.70 7.62 502.75 7.28L502.75 7.28L502.75 7.28Q502.80 7.04 502.95 7.04L502.95 7.04L502.95 7.04Q503.08 7.04 503.10 7.08L503.10 7.08L503.10 7.08Q503.13 7.13 503.13 7.27L503.13 7.27L503.13 7.27Q503.13 7.36 503.08 7.91L503.08 7.91L503.08 7.91Q503.02 8.46 503.02 8.74L503.02 8.74L503.02 8.74Q503.02 9.00 503.04 9.24L503.04 9.24L503.04 9.24Q503.06 9.48 503.06 9.59L503.06 9.59L503.06 9.59Q503.06 9.94 502.96 9.94L502.96 9.94L502.96 9.94Q502.75 9.94 502.66 9.60L502.66 9.60L502.66 9.60Q502.46 9.02 502.31 8.92L502.31 8.92L502.31 8.92Q502.01 8.72 500.96 8.72L500.96 8.72L500.96 8.72Q500.54 8.72 500.28 8.72L500.28 8.72L500.28 8.72Q500.02 8.72 499.95 8.71L499.95 8.71L499.95 8.71Q499.87 8.71 499.82 8.71L499.82 8.71L499.82 8.71Q499.77 8.71 499.73 8.71L499.73 8.71L499.73 8.71Q499.16 8.71 499.16 8.97L499.16 8.97L499.16 8.97Q499.16 9.38 499.14 9.99L499.14 9.99L499.14 9.99Q499.13 10.60 499.13 10.99L499.13 10.99L499.13 11.55L499.13 11.55Q499.13 12.56 499.46 12.66L499.46 12.66L499.46 12.66Q499.81 12.77 500.07 12.77L500.07 12.77L500.07 12.77Q501.12 12.77 501.91 12.67L501.91 12.67L501.91 12.67Q502.70 12.57 503.10 12.42L503.10 12.42L503.10 12.42Q503.50 12.28 503.76 12.10L503.76 12.10L503.76 12.10Q504.03 11.93 504.11 11.78L504.11 11.78L504.11 11.78Q504.18 11.63 504.26 11.54L504.26 11.54L504.26 11.54Q504.34 11.44 504.42 11.44L504.42 11.44L504.42 11.44Q504.59 11.44 504.59 11.68L504.59 11.68L504.59 11.68Q504.59 12.28 503.99 12.89L503.99 12.89L503.99 12.89Q503.38 13.51 502.94 13.51L502.94 13.51L502.94 13.51Q501.93 13.51 500.66 13.44L500.66 13.44L500.66 13.44Q499.39 13.37 499.09 13.37L499.09 13.37L499.09 13.37Q498.69 13.37 498.11 13.43L498.11 13.43L498.11 13.43Q497.52 13.50 497.18 13.50L497.18 13.50L497.18 13.50Q496.89 13.50 496.89 13.36L496.89 13.36L496.89 13.36Q496.89 13.23 496.89 13.19L496.89 13.19L496.89 13.19Q496.89 13.15 496.93 13.12L496.93 13.12L496.93 13.12Q496.97 13.09 497.02 13.08L497.02 13.08L497.02 13.08Q497.07 13.08 497.20 13.03L497.20 13.03L497.20 13.03Q497.34 12.99 497.49 12.92L497.49 12.92L497.49 12.92Q497.83 12.75 497.93 12.26L497.93 12.26L497.93 12.26Q498.04 11.77 498.04 10.21L498.04 10.21L498.04 8.47L498.04 8.47Q498.04 8.09 498.06 7.29L498.06 7.29L498.06 7.29Q498.08 6.50 498.08 6.05L498.08 6.05L498.08 6.05Q498.08 5.67 498.05 4.77L498.05 4.77L498.05 4.77Q498.04 4.37 497.70 4.14L497.70 4.14L497.70 4.14Q497.36 3.92 496.92 3.91L496.92 3.91L496.92 3.91Q496.69 3.91 496.69 3.65ZM512.69 10.82L512.69 10.82L512.69 10.82Q512.69 10.53 512.89 10.53L512.89 10.53L512.89 10.53Q513.07 10.53 513.11 10.67L513.11 10.67L513.11 10.67Q513.25 11.00 513.37 11.25L513.37 11.25L513.37 11.25Q513.49 11.49 513.76 11.85L513.76 11.85L513.76 11.85Q514.02 12.21 514.33 12.44L514.33 12.44L514.33 12.44Q514.64 12.67 515.12 12.84L515.12 12.84L515.12 12.84Q515.61 13.01 516.18 13.01L516.18 13.01L516.18 13.01Q517.23 13.01 517.87 12.45L517.87 12.45L517.87 12.45Q518.50 11.90 518.50 11.00L518.50 11.00L518.50 11.00Q518.50 10.35 518.07 9.90L518.07 9.90L518.07 9.90Q517.64 9.46 517.08 9.27L517.08 9.27L517.08 9.27Q516.52 9.09 515.66 8.77L515.66 8.77L515.66 8.77Q514.79 8.46 514.25 8.13L514.25 8.13L514.25 8.13Q512.97 7.38 512.97 6.08L512.97 6.08L512.97 6.08Q512.97 4.83 513.88 4.08L513.88 4.08L513.88 4.08Q514.78 3.33 516.22 3.33L516.22 3.33L516.22 3.33Q516.75 3.33 517.49 3.56L517.49 3.56L517.49 3.56Q518.22 3.79 518.24 3.79L518.24 3.79L518.24 3.79Q518.28 3.79 518.39 3.74L518.39 3.74L518.39 3.74Q518.50 3.68 518.56 3.68L518.56 3.68L518.56 3.68Q518.74 3.68 518.77 3.79L518.77 3.79L518.77 3.79Q519.06 5.49 519.06 5.70L519.06 5.70L519.06 5.70Q519.06 6.09 518.87 6.09L518.87 6.09L518.87 6.09Q518.74 6.09 518.67 5.89L518.67 5.89L518.67 5.89Q518.50 5.49 518.34 5.24L518.34 5.24L518.34 5.24Q518.18 4.98 518.11 4.91L518.11 4.91L518.11 4.91Q518.04 4.84 517.75 4.58L517.75 4.58L517.75 4.58Q516.99 3.91 515.91 3.91L515.91 3.91L515.91 3.91Q515.05 3.91 514.46 4.33L514.46 4.33L514.46 4.33Q513.87 4.75 513.87 5.46L513.87 5.46L513.87 5.46Q513.87 6.09 514.21 6.50L514.21 6.50L514.21 6.50Q514.56 6.90 515.13 7.13L515.13 7.13L515.13 7.13Q515.70 7.35 516.33 7.55L516.33 7.55L516.33 7.55Q516.96 7.74 517.67 8.09L517.67 8.09L517.67 8.09Q518.38 8.44 518.84 8.93L518.84 8.93L518.84 8.93Q519.40 9.53 519.40 10.43L519.40 10.43L519.40 10.43Q519.40 11.90 518.46 12.76L518.46 12.76L518.46 12.76Q517.52 13.62 516.14 13.62L516.14 13.62L516.14 13.62Q515.17 13.62 514.58 13.52L514.58 13.52L514.58 13.52Q514.00 13.41 513.38 13.09L513.38 13.09L513.38 13.09Q513.20 12.98 512.95 12.00L512.95 12.00L512.95 12.00Q512.69 11.02 512.69 10.82ZM528.04 10.82L528.04 10.82L528.04 10.82Q528.04 10.53 528.23 10.53L528.23 10.53L528.23 10.53Q528.42 10.53 528.46 10.67L528.46 10.67L528.46 10.67Q528.60 11.00 528.72 11.25L528.72 11.25L528.72 11.25Q528.84 11.49 529.10 11.85L529.10 11.85L529.10 11.85Q529.37 12.21 529.68 12.44L529.68 12.44L529.68 12.44Q529.98 12.67 530.47 12.84L530.47 12.84L530.47 12.84Q530.95 13.01 531.52 13.01L531.52 13.01L531.52 13.01Q532.57 13.01 533.21 12.45L533.21 12.45L533.21 12.45Q533.85 11.90 533.85 11.00L533.85 11.00L533.85 11.00Q533.85 10.35 533.41 9.90L533.41 9.90L533.41 9.90Q532.98 9.46 532.42 9.27L532.42 9.27L532.42 9.27Q531.86 9.09 531.00 8.77L531.00 8.77L531.00 8.77Q530.14 8.46 529.59 8.13L529.59 8.13L529.59 8.13Q528.32 7.38 528.32 6.08L528.32 6.08L528.32 6.08Q528.32 4.83 529.22 4.08L529.22 4.08L529.22 4.08Q530.12 3.33 531.57 3.33L531.57 3.33L531.57 3.33Q532.10 3.33 532.83 3.56L532.83 3.56L532.83 3.56Q533.57 3.79 533.58 3.79L533.58 3.79L533.58 3.79Q533.62 3.79 533.74 3.74L533.74 3.74L533.74 3.74Q533.85 3.68 533.90 3.68L533.90 3.68L533.90 3.68Q534.09 3.68 534.11 3.79L534.11 3.79L534.11 3.79Q534.41 5.49 534.41 5.70L534.41 5.70L534.41 5.70Q534.41 6.09 534.21 6.09L534.21 6.09L534.21 6.09Q534.09 6.09 534.02 5.89L534.02 5.89L534.02 5.89Q533.85 5.49 533.69 5.24L533.69 5.24L533.69 5.24Q533.53 4.98 533.46 4.91L533.46 4.91L533.46 4.91Q533.39 4.84 533.09 4.58L533.09 4.58L533.09 4.58Q532.34 3.91 531.26 3.91L531.26 3.91L531.26 3.91Q530.39 3.91 529.80 4.33L529.80 4.33L529.80 4.33Q529.21 4.75 529.21 5.46L529.21 5.46L529.21 5.46Q529.21 6.09 529.56 6.50L529.56 6.50L529.56 6.50Q529.90 6.90 530.47 7.13L530.47 7.13L530.47 7.13Q531.05 7.35 531.68 7.55L531.68 7.55L531.68 7.55Q532.31 7.74 533.02 8.09L533.02 8.09L533.02 8.09Q533.72 8.44 534.18 8.93L534.18 8.93L534.18 8.93Q534.74 9.53 534.74 10.43L534.74 10.43L534.74 10.43Q534.74 11.90 533.81 12.76L533.81 12.76L533.81 12.76Q532.87 13.62 531.48 13.62L531.48 13.62L531.48 13.62Q530.52 13.62 529.93 13.52L529.93 13.52L529.93 13.52Q529.34 13.41 528.72 13.09L528.72 13.09L528.72 13.09Q528.54 12.98 528.29 12.00L528.29 12.00L528.29 12.00Q528.04 11.02 528.04 10.82Z"></path></g></svg>