<svg data-v-423bf9ae="" xmlns="http://www.w3.org/2000/svg" viewBox="0 0 502.13007627076934 60" class="font"><!----><!----><!----><g data-v-423bf9ae="" id="2489a423-dfe2-4760-be44-e52b871c09a9" fill="white" transform="matrix(4.288777768522039,0,0,4.288777768522039,-2.6590387110563256,-12.95210830229746)"><path d="M3.87 4.18C2.16 4.18 0.62 5.28 0.62 6.96C0.62 8.03 1.01 8.96 2.43 9.50L3.84 10.05C4.38 10.24 4.91 10.53 4.91 11.01C4.91 11.61 4.28 11.91 3.51 11.91C2.42 11.91 1.44 11.44 0.64 10.87L0.64 12.74C1.38 13.26 2.41 13.70 3.47 13.70C5.37 13.70 6.95 12.54 6.95 10.91C6.95 9.90 6.37 9.12 5.09 8.57L3.96 8.11C3.20 7.79 2.60 7.56 2.60 6.96C2.60 6.26 3.39 5.96 4.10 5.96C5.04 5.96 5.77 6.37 6.43 6.78L6.43 4.91C5.84 4.53 4.94 4.18 3.87 4.18ZM11.77 6.44C9.76 6.44 8.08 8.04 8.08 10.09C8.08 12.13 9.76 13.73 11.77 13.73C13.78 13.73 15.48 12.13 15.48 10.09C15.48 8.04 13.78 6.44 11.77 6.44ZM11.77 8.12C12.76 8.12 13.63 8.83 13.63 10.09C13.63 11.35 12.76 12.04 11.77 12.04C10.79 12.04 9.93 11.35 9.93 10.09C9.93 8.83 10.79 8.12 11.77 8.12ZM23.21 6.62L21.45 6.62L21.45 10.42C21.45 11.48 20.90 12.02 20.10 12.02C19.29 12.02 18.74 11.48 18.74 10.42L18.73 6.62L16.98 6.62L16.98 10.73C16.98 12.58 18.31 13.70 20.10 13.70C21.89 13.70 23.21 12.58 23.21 10.73ZM27.70 6.62L27.70 4.61L26.81 4.61C26.37 6.02 25.61 6.86 24.72 7.18L24.72 8.07L25.96 8.07L25.96 11.50C25.96 12.88 26.82 13.73 28.05 13.73C28.85 13.73 29.34 13.45 29.68 13.11L29.68 11.73C29.37 11.92 29.04 12.04 28.55 12.04C27.99 12.04 27.70 11.66 27.70 11.05L27.70 8.07L29.61 8.07L29.61 6.62ZM35.29 6.44C34.36 6.44 33.62 7.04 33.20 7.60L33.20 3.68L31.46 3.68L31.46 13.52L33.20 13.52L33.20 9.15C33.59 8.60 34.14 8.13 34.75 8.13C35.53 8.13 36.01 8.59 36.01 9.52L36.03 13.52L37.76 13.52L37.76 9.28C37.76 7.40 36.70 6.44 35.29 6.44ZM46.06 6.00L50.64 6.00L50.64 4.36L44.16 4.36L44.16 13.52L50.64 13.52L50.64 11.84L46.06 11.84L46.06 9.63L50.11 9.63L50.11 8.08L46.06 8.08ZM56.63 6.44C55.70 6.44 54.96 7.04 54.54 7.60L54.54 6.62L52.80 6.62L52.80 13.52L54.54 13.52L54.54 9.15C54.93 8.60 55.48 8.13 56.10 8.13C56.88 8.13 57.35 8.59 57.35 9.52L57.37 13.52L59.10 13.52L59.10 9.28C59.10 7.40 58.04 6.44 56.63 6.44ZM67.66 13.52L67.66 3.68L65.93 3.68L65.93 7.40C65.41 6.82 64.59 6.44 63.83 6.44C62.06 6.44 60.62 7.81 60.62 10.12C60.62 12.41 62.06 13.73 63.71 13.73C64.74 13.73 65.52 13.10 65.93 12.36L65.93 13.52ZM64.19 8.15C64.86 8.15 65.43 8.48 65.93 9.00L65.93 9.98C65.94 11.22 65.06 11.99 64.15 11.99C63.11 11.99 62.43 11.16 62.43 10.12C62.43 9.08 63.11 8.15 64.19 8.15ZM74.20 4.36L74.20 13.33C75.30 13.55 76.59 13.70 77.85 13.70C80.80 13.70 82.59 11.59 82.59 8.89C82.59 5.93 80.19 4.36 77.52 4.36ZM76.10 6.14L77.45 6.14C79.23 6.14 80.65 7.12 80.65 8.96C80.65 10.66 79.68 11.91 77.79 11.91C77.27 11.91 76.64 11.87 76.10 11.76ZM90.55 9.87C90.55 7.86 89.33 6.44 87.29 6.44C85.27 6.44 83.79 8.13 83.79 10.14C83.79 12.22 85.46 13.73 87.50 13.73C88.55 13.73 89.29 13.38 89.67 13.10L89.67 11.53C89.25 11.80 88.58 12.15 87.57 12.15C86.52 12.15 85.74 11.54 85.54 10.60L90.55 10.60ZM85.57 9.46C85.78 8.54 86.38 7.96 87.25 7.96C88.05 7.96 88.81 8.46 88.88 9.46ZM94.36 6.44C92.80 6.44 91.71 7.33 91.71 8.63C91.71 9.50 92.05 10.14 93.11 10.50L93.95 10.80C94.55 11.01 94.87 11.16 94.87 11.51C94.87 11.96 94.49 12.22 93.79 12.22C93.12 12.22 92.19 11.87 91.67 11.51L91.67 13.03C92.13 13.37 93.09 13.73 94.02 13.73C95.50 13.73 96.70 12.78 96.70 11.51C96.70 10.62 96.20 10.01 95.13 9.69L94.35 9.43C93.73 9.24 93.56 9.01 93.56 8.71C93.56 8.30 93.97 7.97 94.62 7.97C95.31 7.97 95.98 8.31 96.40 8.60L96.40 7.07C96.00 6.73 95.22 6.44 94.36 6.44ZM99.63 5.37C100.28 5.37 100.83 4.83 100.83 4.20C100.83 3.55 100.28 3.02 99.63 3.02C98.97 3.02 98.44 3.55 98.44 4.20C98.44 4.83 98.97 5.37 99.63 5.37ZM100.60 6.62L97.75 6.62L97.75 8.09L98.86 8.09L98.86 13.52L100.60 13.52ZM105.44 6.44C103.66 6.44 102.22 7.81 102.22 10.12C102.22 12.41 103.66 13.73 105.31 13.73C106.34 13.73 107.12 13.10 107.53 12.36L107.53 13.56C107.53 14.64 106.54 15.41 105.31 15.41C104.15 15.41 103.32 14.93 102.70 14.63L102.70 16.27C103.40 16.68 104.21 17.01 105.42 17.01C107.46 17.01 109.27 15.68 109.27 13.34L109.27 6.62L107.53 6.62L107.53 7.40C107.01 6.82 106.19 6.44 105.44 6.44ZM105.79 8.15C106.46 8.15 107.04 8.48 107.53 9.00L107.53 9.98C107.54 11.22 106.67 11.98 105.75 11.98C104.71 11.98 104.03 11.16 104.03 10.12C104.03 9.08 104.71 8.15 105.79 8.15ZM115.23 6.44C114.30 6.44 113.56 7.04 113.13 7.60L113.13 6.62L111.40 6.62L111.40 13.52L113.13 13.52L113.13 9.15C113.53 8.60 114.08 8.13 114.69 8.13C115.47 8.13 115.95 8.59 115.95 9.52L115.96 13.52L117.70 13.52L117.70 9.28C117.70 7.40 116.63 6.44 115.23 6.44Z"></path></g><!----><!----></svg>